<svg width="320" height="320" viewBox="0 0 320 320" fill="none" xmlns="http://www.w3.org/2000/svg">
<g clip-path="url(#clip0_1010_7520)">
<path d="M160 0C281.326 0 320 38.6737 320 160C320 281.326 281.326 320 160 320C38.6736 320 0 281.326 0 160C0 38.6737 38.6736 0 160 0Z" fill="url(#paint0_linear_1010_7520)"/>
<path d="M160 2C220.573 2 259.85 11.6833 284.083 35.9168C308.317 60.1504 318 99.4272 318 160C318 220.573 308.317 259.85 284.083 284.083C259.85 308.317 220.573 318 160 318C99.4272 318 60.1504 308.317 35.9168 284.083C11.6833 259.85 2 220.573 2 160C2 99.4272 11.6833 60.1504 35.9168 35.9168C60.1504 11.6833 99.4272 2 160 2Z" stroke="#F8FAFC" stroke-opacity="0.2" stroke-width="4"/>
<g clip-path="url(#clip1_1010_7520)">
<path d="M159.394 166.464C158.456 165.527 157.184 165 155.858 165H65.3753C62.5173 165 60.2288 167.395 60.518 170.239C65.6455 220.657 108.228 260 160 260C183.927 260 205.89 251.597 223.101 237.581C225.318 235.776 225.393 232.464 223.372 230.442L159.394 166.464Z" fill="url(#paint1_linear_1010_7520)"/>
<path d="M230.443 223.372C232.464 225.393 235.777 225.318 237.582 223.101C251.597 205.89 260 183.926 260 160C260 108.228 220.658 65.6454 170.239 60.5179C167.395 60.2288 165 62.5173 165 65.3753L165 155.858C165 157.184 165.527 158.455 166.464 159.393L230.443 223.372Z" fill="url(#paint2_linear_1010_7520)"/>
<path d="M65.3753 155C62.5173 155 60.2288 152.604 60.518 149.761C65.3034 102.709 102.709 65.3035 149.761 60.518C152.604 60.2288 155 62.5173 155 65.3753L155 150C155 152.762 152.761 155 150 155H65.3753Z" fill="url(#paint3_linear_1010_7520)"/>
</g>
</g>
<defs>
<linearGradient id="paint0_linear_1010_7520" x1="160" y1="0" x2="160" y2="320" gradientUnits="userSpaceOnUse">
<stop stop-color="#475569"/>
<stop offset="1" stop-color="#1E293B"/>
</linearGradient>
<linearGradient id="paint1_linear_1010_7520" x1="143.605" y1="165" x2="143.605" y2="260" gradientUnits="userSpaceOnUse">
<stop stop-color="#FB7185"/>
<stop offset="1" stop-color="#E11D48"/>
</linearGradient>
<linearGradient id="paint2_linear_1010_7520" x1="212.5" y1="60.123" x2="212.5" y2="227.087" gradientUnits="userSpaceOnUse">
<stop stop-color="#7DD3FC"/>
<stop offset="1" stop-color="#0EA5E9"/>
</linearGradient>
<linearGradient id="paint3_linear_1010_7520" x1="107.562" y1="60.123" x2="107.562" y2="155" gradientUnits="userSpaceOnUse">
<stop stop-color="#2DD4BF"/>
<stop offset="1" stop-color="#0D9488"/>
</linearGradient>
<clipPath id="clip0_1010_7520">
<rect width="320" height="320" fill="white"/>
</clipPath>
<clipPath id="clip1_1010_7520">
<rect width="240" height="240" fill="white" transform="translate(40 40)"/>
</clipPath>
</defs>
</svg>
