<?xml version="1.0" encoding="UTF-8"?>
<svg width="600px" height="600px" viewBox="0 0 600 600" version="1.1" xmlns="http://www.w3.org/2000/svg" xmlns:xlink="http://www.w3.org/1999/xlink">
    <!-- Generator: Sketch 40.3 (33839) - http://www.bohemiancoding.com/sketch -->
    <title>Group 2 Copy 21</title>
    <desc>Created with Sketch.</desc>
    <defs>
        <linearGradient x1="50%" y1="0%" x2="50%" y2="100%" id="linearGradient-1">
            <stop stop-color="#FFFFFF" stop-opacity="0.2" offset="0%"></stop>
            <stop stop-color="#000000" stop-opacity="0.138870018" offset="100%"></stop>
        </linearGradient>
        <linearGradient x1="50%" y1="0%" x2="50%" y2="100%" id="linearGradient-2">
            <stop stop-color="#FFFFFF" offset="0%"></stop>
            <stop stop-color="#F6F6F6" offset="35.2427758%"></stop>
            <stop stop-color="#E5E5E5" offset="100%"></stop>
        </linearGradient>
        <path d="M268.761399,0 L268.761399,31.5025907 L111.248446,31.5025907 L111.248446,0 L63.9945596,0 L63.9945596,31.5025907 L40.357772,31.5025907 C18.697772,31.5025907 0.979533679,49.220829 0.979533679,70.880829 L0.979533679,338.65285 C0.979533679,360.31285 18.697772,378.031088 40.357772,378.031088 L339.642228,378.031088 C361.302228,378.031088 379.020466,360.31285 379.020466,338.65285 L379.020466,70.880829 C379.020466,49.220829 361.302228,31.5025907 339.642228,31.5025907 L316.015285,31.5025907 L316.015285,0 L268.761399,0 L268.761399,0 Z M339.642228,338.65285 L40.357772,338.65285 L40.357772,129.948187 L339.642228,129.948187 L339.642228,338.65285 L339.642228,338.65285 Z" id="path-3"></path>
        <filter x="-50%" y="-50%" width="200%" height="200%" filterUnits="objectBoundingBox" id="filter-4">
            <feMorphology radius="1" operator="dilate" in="SourceAlpha" result="shadowSpreadOuter1"></feMorphology>
            <feOffset dx="0" dy="2" in="shadowSpreadOuter1" result="shadowOffsetOuter1"></feOffset>
            <feColorMatrix values="0 0 0 0 0   0 0 0 0 0   0 0 0 0 0  0 0 0 0.08 0" type="matrix" in="shadowOffsetOuter1"></feColorMatrix>
        </filter>
        <polygon id="path-5" points="300.26399 204.766839 205.756218 204.766839 205.756218 299.274611 300.26399 299.274611"></polygon>
        <filter x="-50%" y="-50%" width="200%" height="200%" filterUnits="objectBoundingBox" id="filter-6">
            <feMorphology radius="1" operator="dilate" in="SourceAlpha" result="shadowSpreadOuter1"></feMorphology>
            <feOffset dx="0" dy="2" in="shadowSpreadOuter1" result="shadowOffsetOuter1"></feOffset>
            <feColorMatrix values="0 0 0 0 0   0 0 0 0 0   0 0 0 0 0  0 0 0 0.08 0" type="matrix" in="shadowOffsetOuter1"></feColorMatrix>
        </filter>
    </defs>
    <g id="Page-1" stroke="none" stroke-width="1" fill="none" fill-rule="evenodd">
        <g id="Group-2-Copy-21">
            <path d="M552.268958,552.268958 C600,504.537813 600,431.458333 600,300 C600,168.541667 600,95.4621875 552.268958,47.7310417 C504.537813,0 431.458333,0 300,0 C168.541667,0 95.4621875,0 47.7310417,47.7310417 C0,95.4621875 0,168.541667 0,300 C0,431.458333 0,504.537813 47.7310417,552.268958 C95.4621875,600 168.541667,600 300,600 C431.458333,600 504.537813,600 552.268958,552.268958 L552.268958,552.268958 Z" id="path" fill="#2BAF92"></path>
            <path d="M552.268958,552.268958 C600,504.537813 600,431.458333 600,300 C600,168.541667 600,95.4621875 552.268958,47.7310417 C504.537813,0 431.458333,0 300,0 C168.541667,0 95.4621875,0 47.7310417,47.7310417 C0,95.4621875 0,168.541667 0,300 C0,431.458333 0,504.537813 47.7310417,552.268958 C95.4621875,600 168.541667,600 300,600 C431.458333,600 504.537813,600 552.268958,552.268958 L552.268958,552.268958 Z" id="path-copy" fill="url(#linearGradient-1)"></path>
            <g id="android-calendar" transform="translate(110.000000, 108.000000)">
                <g id="Layer_1">
                    <g id="Shape">
                        <use fill="black" fill-opacity="1" filter="url(#filter-4)" xlink:href="#path-3"></use>
                        <use fill="url(#linearGradient-2)" fill-rule="evenodd" xlink:href="#path-3"></use>
                    </g>
                    <g id="Path" opacity="0.5">
                        <use fill="black" fill-opacity="1" filter="url(#filter-6)" xlink:href="#path-5"></use>
                        <use fill="url(#linearGradient-2)" fill-rule="evenodd" xlink:href="#path-5"></use>
                    </g>
                </g>
            </g>
        </g>
    </g>
</svg>