<svg width="48" height="48" viewBox="0 0 48 48" fill="none" xmlns="http://www.w3.org/2000/svg">
<rect width="48" height="48" fill="url(#paint0_linear_221_2571)"/>
<path d="M37.161 33C38.285 33 39.1789 32.2928 39.9817 31.3037C41.6248 29.2791 38.9269 27.6612 37.8981 26.8689C36.852 26.0634 35.6841 25.6071 34.5 25.5M33 22.5C35.071 22.5 36.75 20.8211 36.75 18.75C36.75 16.6789 35.071 15 33 15" stroke="white" stroke-width="2.25" stroke-linecap="round"/>
<path d="M10.8389 33C9.71499 33 8.821 32.2928 8.01832 31.3037C6.37513 29.2791 9.073 27.6612 10.102 26.8689C11.148 26.0634 12.3159 25.6071 13.5 25.5M14.25 22.5C12.1789 22.5 10.5 20.8211 10.5 18.75C10.5 16.6789 12.1789 15 14.25 15" stroke="white" stroke-width="2.25" stroke-linecap="round"/>
<path d="M18.1257 28.6668C16.593 29.6145 12.5745 31.5496 15.022 33.9711C16.2177 35.154 17.5493 36 19.2234 36H28.7766C30.4507 36 31.7823 35.154 32.9779 33.9711C35.4255 31.5496 31.407 29.6145 29.8743 28.6668C26.2801 26.4444 21.7198 26.4444 18.1257 28.6668Z" stroke="white" stroke-width="2.25" stroke-linecap="round" stroke-linejoin="round"/>
<path d="M29.25 17.25C29.25 20.1495 26.8995 22.5 24 22.5C21.1005 22.5 18.75 20.1495 18.75 17.25C18.75 14.3505 21.1005 12 24 12C26.8995 12 29.25 14.3505 29.25 17.25Z" stroke="white" stroke-width="2.25"/>
<defs>
<linearGradient id="paint0_linear_221_2571" x1="24" y1="0" x2="24" y2="48" gradientUnits="userSpaceOnUse">
<stop stop-color="#F43F5E"/>
<stop offset="1" stop-color="#BE123C"/>
</linearGradient>
</defs>
</svg>
