<svg width="320" height="320" viewBox="0 0 320 320" fill="none" xmlns="http://www.w3.org/2000/svg">
<g clip-path="url(#clip0_1014_7619)">
<path d="M160 0C281.326 0 320 38.6737 320 160C320 281.326 281.326 320 160 320C38.6736 320 0 281.326 0 160C0 38.6737 38.6736 0 160 0Z" fill="url(#paint0_linear_1014_7619)"/>
<path d="M160 2C220.573 2 259.85 11.6833 284.083 35.9168C308.317 60.1504 318 99.4272 318 160C318 220.573 308.317 259.85 284.083 284.083C259.85 308.317 220.573 318 160 318C99.4272 318 60.1504 308.317 35.9168 284.083C11.6833 259.85 2 220.573 2 160C2 99.4272 11.6833 60.1504 35.9168 35.9168C60.1504 11.6833 99.4272 2 160 2Z" stroke="#F8FAFC" stroke-opacity="0.2" stroke-width="4"/>
<g clip-path="url(#clip1_1014_7619)">
<path fill-rule="evenodd" clip-rule="evenodd" d="M160 60C243.412 60 270 84.1711 270 160C270 235.829 243.412 260 160 260C76.5881 260 50 235.829 50 160C50 84.1711 76.5881 60 160 60ZM112.679 130C120.377 116.667 139.623 116.667 147.321 130L151.34 136.962L172.679 100C180.377 86.6667 199.622 86.6667 207.321 100L241.962 160C249.66 173.333 240.037 190 224.641 190L181.962 190C189.66 203.333 180.037 220 164.641 220H95.359C79.963 220 70.3405 203.333 78.0385 190L112.679 130Z" fill="url(#paint1_linear_1014_7619)"/>
<path d="M121.34 135C125.189 128.333 134.811 128.333 138.66 135L173.301 195C177.15 201.667 172.339 210 164.641 210H95.359C87.661 210 82.8497 201.667 86.6987 195L121.34 135Z" fill="url(#paint2_linear_1014_7619)"/>
<path fill-rule="evenodd" clip-rule="evenodd" d="M198.66 105C194.811 98.3333 185.189 98.3333 181.34 105L160 141.962C158.214 145.056 158.214 148.868 160 151.962L173.301 175C175.088 178.094 178.389 180 181.961 180H224.641C232.339 180 237.15 171.667 233.301 165L198.66 105Z" fill="url(#paint3_linear_1014_7619)"/>
</g>
</g>
<defs>
<linearGradient id="paint0_linear_1014_7619" x1="160" y1="0" x2="160" y2="320" gradientUnits="userSpaceOnUse">
<stop stop-color="#475569"/>
<stop offset="1" stop-color="#1E293B"/>
</linearGradient>
<linearGradient id="paint1_linear_1014_7619" x1="160" y1="60" x2="160" y2="260" gradientUnits="userSpaceOnUse">
<stop stop-color="#60A5FA"/>
<stop offset="1" stop-color="#2563EB"/>
</linearGradient>
<linearGradient id="paint2_linear_1014_7619" x1="130" y1="120" x2="130" y2="240" gradientUnits="userSpaceOnUse">
<stop stop-color="#34D399"/>
<stop offset="1" stop-color="#059669"/>
</linearGradient>
<linearGradient id="paint3_linear_1014_7619" x1="196.658" y1="100" x2="196.658" y2="180" gradientUnits="userSpaceOnUse">
<stop stop-color="#2DD4BF"/>
<stop offset="1" stop-color="#0D9488"/>
</linearGradient>
<clipPath id="clip0_1014_7619">
<rect width="320" height="320" fill="white"/>
</clipPath>
<clipPath id="clip1_1014_7619">
<rect width="240" height="240" fill="white" transform="translate(40 40)"/>
</clipPath>
</defs>
</svg>
