<?xml version="1.0" encoding="utf-8"?>
<!-- Generator: Adobe Illustrator 20.1.0, SVG Export Plug-In . SVG Version: 6.00 Build 0)  -->
<svg version="1.1" id="Слой_1" xmlns="http://www.w3.org/2000/svg" xmlns:xlink="http://www.w3.org/1999/xlink" x="0px" y="0px"
	 viewBox="0 0 64 64" style="enable-background:new 0 0 64 64;" xml:space="preserve">
<style type="text/css">
	.st0{fill:#00B356;}
	.st1{fill:#FFFFFF;}
</style>
<title>contact</title>
<desc>Created with Sketch.</desc>
<g id="Page-1">
	<g id="Artboard" transform="translate(-826.000000, -430.000000)">
		<g id="contact" transform="translate(826.000000, 430.000000)">
			<g id="Path">
				<path id="path-1_1_" class="st0" d="M32,64c14,0,21.8,0,26.9-5.1S64,46,64,32s0-21.8-5.1-26.9S46,0,32,0S10.2,0,5.1,5.1
					S0,18,0,32s0,21.8,5.1,26.9S18,64,32,64z"/>
			</g>
		</g>
	</g>
</g>
<path class="st1" d="M15.3,22h33.4c0.7,0,1.3-0.6,1.3-1.3v-3.2c0-0.7-0.6-1.3-1.3-1.3H15.3c-0.7,0-1.3,0.6-1.3,1.3v3.2
	C14,21.5,14.6,22,15.3,22z M15.3,34.9h33.4c0.7,0,1.3-0.6,1.3-1.3v-3.2c0-0.7-0.6-1.3-1.3-1.3H15.3c-0.7,0-1.3,0.6-1.3,1.3v3.2
	C14,34.3,14.6,34.9,15.3,34.9z M15.3,47.8h33.4c0.7,0,1.3-0.6,1.3-1.3v-3.2c0-0.7-0.6-1.3-1.3-1.3H15.3c-0.7,0-1.3,0.6-1.3,1.3v3.2
	C14,47.2,14.6,47.8,15.3,47.8z"/>
</svg>
