<svg width="48" height="48" viewBox="0 0 48 48" fill="none" xmlns="http://www.w3.org/2000/svg">
<rect width="48" height="48" fill="url(#paint0_linear_322_1767)"/>
<path d="M9 24C9 16.9289 9 13.3934 11.1967 11.1967C13.3934 9 16.9289 9 24 9C31.071 9 34.6066 9 36.8034 11.1967C39 13.3934 39 16.9289 39 24C39 31.071 39 34.6066 36.8034 36.8034C34.6066 39 31.071 39 24 39C16.9289 39 13.3934 39 11.1967 36.8034C9 34.6066 9 31.071 9 24Z" stroke="white" stroke-width="2.25"/>
<path d="M14.1596 18H20.5281C20.8576 18 21.1301 18.0971 21.3455 18.2914C21.5737 18.4743 21.6877 18.7143 21.6877 19.0114C21.6877 19.2971 21.5737 19.5314 21.3455 19.7143C21.1301 19.8857 20.8576 19.9714 20.5281 19.9714H15.2052L15.3763 19.68V23.0229L15.2242 22.8857H19.6726C20.0021 22.8857 20.2746 22.9829 20.4901 23.1771C20.7182 23.36 20.8323 23.6 20.8323 23.8971C20.8323 24.1829 20.7182 24.4171 20.4901 24.6C20.2746 24.7714 20.0021 24.8571 19.6726 24.8571H15.2812L15.3763 24.72V28.1829L15.2242 28.0286H20.5281C20.8576 28.0286 21.1301 28.1314 21.3455 28.3371C21.5737 28.5314 21.6877 28.76 21.6877 29.0229C21.6877 29.3086 21.5737 29.5429 21.3455 29.7257C21.1301 29.9086 20.8576 30 20.5281 30H14.1596C13.8301 30 13.5513 29.9029 13.3232 29.7086C13.1077 29.5029 13 29.2514 13 28.9543V19.0457C13 18.7486 13.1077 18.5029 13.3232 18.3086C13.5513 18.1029 13.8301 18 14.1596 18Z" fill="white"/>
<path d="M33.9734 18C34.2776 18 34.5247 18.0914 34.7148 18.2743C34.9049 18.4571 35 18.6857 35 18.96V28.9543C35 29.2514 34.8859 29.5029 34.6578 29.7086C34.4424 29.9029 34.1699 30 33.8404 30C33.6756 30 33.5045 29.9771 33.3271 29.9314C33.1623 29.8743 33.0356 29.8 32.9469 29.7086L25.4758 21.1543L25.9701 20.88V29.04C25.9701 29.3143 25.8687 29.5429 25.6659 29.7257C25.4758 29.9086 25.2224 30 24.9055 30C24.6014 30 24.3542 29.9086 24.1641 29.7257C23.974 29.5429 23.879 29.3143 23.879 29.04V19.0457C23.879 18.7486 23.9867 18.5029 24.2021 18.3086C24.4303 18.1029 24.7091 18 25.0386 18C25.216 18 25.3998 18.0343 25.5899 18.1029C25.78 18.16 25.9194 18.2514 26.0081 18.3771L33.2511 26.7086L32.9279 26.9143V18.96C32.9279 18.6857 33.0229 18.4571 33.213 18.2743C33.4031 18.0914 33.6566 18 33.9734 18Z" fill="white"/>
<defs>
<linearGradient id="paint0_linear_322_1767" x1="24" y1="0" x2="24" y2="48" gradientUnits="userSpaceOnUse">
<stop stop-color="#0891B2"/>
<stop offset="1" stop-color="#0E7490"/>
</linearGradient>
</defs>
</svg>
