<?xml version="1.0" encoding="UTF-8"?>
<svg width="600px" height="600px" viewBox="0 0 600 600" version="1.1" xmlns="http://www.w3.org/2000/svg" xmlns:xlink="http://www.w3.org/1999/xlink">
    <!-- Generator: Sketch 40.3 (33839) - http://www.bohemiancoding.com/sketch -->
    <title>Group 2 Copy 19</title>
    <desc>Created with Sketch.</desc>
    <defs>
        <linearGradient x1="50%" y1="0%" x2="50%" y2="100%" id="linearGradient-1">
            <stop stop-color="#FFFFFF" stop-opacity="0.2" offset="0%"></stop>
            <stop stop-color="#000000" stop-opacity="0.138870018" offset="100%"></stop>
        </linearGradient>
        <linearGradient x1="50%" y1="0%" x2="50%" y2="100%" id="linearGradient-2">
            <stop stop-color="#FFFFFF" offset="0%"></stop>
            <stop stop-color="#F6F6F6" offset="35.2427758%"></stop>
            <stop stop-color="#E5E5E5" offset="100%"></stop>
        </linearGradient>
        <path d="M296.712695,208.4098 C284.084633,204.013363 270.427617,203.732739 257.799555,199.336303 C253.964365,198.026726 246.387528,196.436526 244.797327,192.040089 C243.300668,187.737194 243.300668,182.685969 243.020045,178.195991 C242.832962,174.641425 242.739421,171.08686 242.739421,167.532294 C242.739421,165.193764 248.726058,160.23608 250.035635,158.084633 C255.08686,149.665924 255.554566,138.347439 256.489978,128.806236 C264.628062,131.051225 265.657016,115.991091 267.060134,111.407572 C268.089087,108.227171 274.356347,86.3385301 264.628062,89.3318486 C266.966592,85.2160356 267.902004,80.1648107 268.556793,75.5812918 C270.427617,63.6080178 271.175947,50.5122494 267.52784,38.8195991 C259.951002,14.4988864 236.659243,0.841870824 212.057906,0.0935412027 C187.082405,-0.748329621 162.013363,11.2249443 152.659243,35.4521158 C148.169265,47.2383073 148.54343,60.0534521 150.040089,72.4008909 C150.694878,78.013363 151.63029,84.2806236 154.436526,89.3318486 C145.363029,86.6191537 150.227171,105.888641 151.256125,109.256125 C152.752784,114.026726 154.062361,131.144766 162.57461,128.806236 C163.32294,136.383073 164.164811,144.146993 166.222717,151.536748 C167.625835,156.494432 170.525612,160.703786 173.893096,164.538976 C175.576837,166.4098 176.418708,166.596882 176.325167,169.028953 C176.231626,176.325167 176.418708,184.182628 174.547884,191.291759 C172.67706,198.400891 157.055679,201.394209 150.788419,202.703786 C133.951002,206.164811 118.423163,207.755011 104.391982,218.231626 C88.0222717,230.298441 79.5100223,249.100223 79.5100223,269.398664 L313.269488,269.398664 L339.554566,269.398664 C339.554566,241.804009 322.904232,217.483296 296.712695,208.4098 L296.712695,208.4098 Z" id="path-3"></path>
        <filter x="-50%" y="-50%" width="200%" height="200%" filterUnits="objectBoundingBox" id="filter-4">
            <feMorphology radius="1" operator="dilate" in="SourceAlpha" result="shadowSpreadOuter1"></feMorphology>
            <feOffset dx="0" dy="2" in="shadowSpreadOuter1" result="shadowOffsetOuter1"></feOffset>
            <feColorMatrix values="0 0 0 0 0   0 0 0 0 0   0 0 0 0 0  0 0 0 0.08 0" type="matrix" in="shadowOffsetOuter1"></feColorMatrix>
        </filter>
        <path d="M104.111359,196.904232 C100.930958,198.494432 97.0957684,200.458797 104.859688,196.530067 C107.665924,195.126949 107.104677,195.407572 105.608018,196.155902 C111.96882,193.162584 118.797327,192.414254 125.625835,191.759465 C128.244989,191.478842 129.461024,189.701559 127.496659,187.175947 C123.755011,182.405345 110.846325,181.469933 105.420935,179.318486 C102.053452,178.008909 101.11804,176.792873 100.837416,173.051225 C100.743875,171.367483 99.8084633,163.884187 101.11804,162.668151 C102.053452,161.732739 107.946548,162.106904 109.256125,161.919822 C114.587973,161.265033 120.013363,160.142539 125.064588,158.178174 C127.216036,157.336303 129.273942,156.30735 131.144766,154.997773 C133.389755,153.314031 129.461024,149.198218 128.432071,146.953229 C125.25167,139.937639 123.848552,132.267261 123.380846,124.596882 C122.445434,109.536748 124.783964,94.3830735 121.977728,79.4164811 C117.768374,56.4988864 100.089087,44.9933185 77.545657,44.9933185 C63.6080178,44.9933185 49.857461,49.7639198 42.0935412,61.9242762 C33.4877506,75.3006682 33.9554566,91.9510022 34.4231626,107.198218 C34.7037862,115.89755 35.077951,124.690423 33.8619154,133.389755 C33.3006682,137.131403 32.4587973,140.77951 31.1492205,144.334076 C30.1202673,147.046771 24.8819599,153.781737 26.9398664,155.184855 C34.7037862,160.703786 47.7995546,162.57461 57.1536748,161.826281 C57.4342984,166.4098 58.2761693,172.302895 56.5924276,176.605791 C53.9732739,183.340757 34.4231626,185.11804 28.5300668,187.082405 C12.1603563,192.507795 0,205.790646 0,224.498886 L51.2605791,224.498886 L74.3652561,224.498886 C75.5812918,224.498886 80.2583519,215.799555 81.5679287,214.396437 C87.9287305,207.380846 95.6926503,201.300668 104.111359,196.904232 L104.111359,196.904232 Z" id="path-5"></path>
        <filter x="-50%" y="-50%" width="200%" height="200%" filterUnits="objectBoundingBox" id="filter-6">
            <feMorphology radius="1" operator="dilate" in="SourceAlpha" result="shadowSpreadOuter1"></feMorphology>
            <feOffset dx="0" dy="2" in="shadowSpreadOuter1" result="shadowOffsetOuter1"></feOffset>
            <feColorMatrix values="0 0 0 0 0   0 0 0 0 0   0 0 0 0 0  0 0 0 0.08 0" type="matrix" in="shadowOffsetOuter1"></feColorMatrix>
        </filter>
        <path d="M390.347439,186.988864 C382.770601,184.556793 368.178174,183.808463 362.752784,177.260579 C360.040089,173.986637 361.536748,165.66147 361.817372,161.732739 C365.933185,162.106904 370.423163,161.452116 374.632517,160.890869 C378.467706,160.329621 382.209354,159.581292 385.857461,158.271715 C387.541203,157.616927 389.224944,156.962138 390.815145,156.026726 C394.463252,153.875278 392.77951,153.501114 390.908686,150.320713 C380.712695,133.202673 385.296214,111.501114 384.828508,92.6993318 C384.454343,77.077951 380.33853,59.9599109 366.120267,51.1670379 C353.305122,43.2160356 334.316258,42.935412 320.565702,48.5478842 C280.904232,64.4498886 304.289532,117.020045 290.726058,147.140312 C288.387528,152.191537 285.020045,153.96882 290.91314,156.962138 C294.187082,158.64588 297.741648,159.768374 301.296214,160.610245 C306.721604,161.919822 312.334076,162.668151 317.946548,162.855234 C318.88196,162.855234 318.227171,174.641425 317.946548,175.857461 C316.917595,180.44098 306.908686,181.750557 303.167038,182.77951 C299.331849,183.808463 292.971047,184.089087 291.100223,188.111359 C288.293987,194.097996 300.360802,192.601336 303.35412,193.162584 C312.988864,194.939866 321.501114,200.271715 328.98441,206.351893 C334.596882,210.935412 342.173719,217.109131 344.231626,224.592428 L419.25167,224.592428 C419.064588,205.790646 406.81069,192.414254 390.347439,186.988864 L390.347439,186.988864 Z" id="path-7"></path>
        <filter x="-50%" y="-50%" width="200%" height="200%" filterUnits="objectBoundingBox" id="filter-8">
            <feMorphology radius="1" operator="dilate" in="SourceAlpha" result="shadowSpreadOuter1"></feMorphology>
            <feOffset dx="0" dy="2" in="shadowSpreadOuter1" result="shadowOffsetOuter1"></feOffset>
            <feColorMatrix values="0 0 0 0 0   0 0 0 0 0   0 0 0 0 0  0 0 0 0.08 0" type="matrix" in="shadowOffsetOuter1"></feColorMatrix>
        </filter>
    </defs>
    <g id="Page-1" stroke="none" stroke-width="1" fill="none" fill-rule="evenodd">
        <g id="Group-2-Copy-19">
            <path d="M552.268958,552.268958 C600,504.537813 600,431.458333 600,300 C600,168.541667 600,95.4621875 552.268958,47.7310417 C504.537813,0 431.458333,0 300,0 C168.541667,0 95.4621875,0 47.7310417,47.7310417 C0,95.4621875 0,168.541667 0,300 C0,431.458333 0,504.537813 47.7310417,552.268958 C95.4621875,600 168.541667,600 300,600 C431.458333,600 504.537813,600 552.268958,552.268958 L552.268958,552.268958 Z" id="path" fill="#2BAF92"></path>
            <path d="M552.268958,552.268958 C600,504.537813 600,431.458333 600,300 C600,168.541667 600,95.4621875 552.268958,47.7310417 C504.537813,0 431.458333,0 300,0 C168.541667,0 95.4621875,0 47.7310417,47.7310417 C0,95.4621875 0,168.541667 0,300 C0,431.458333 0,504.537813 47.7310417,552.268958 C95.4621875,600 168.541667,600 300,600 C431.458333,600 504.537813,600 552.268958,552.268958 L552.268958,552.268958 Z" id="path-copy" fill="url(#linearGradient-1)"></path>
            <g id="ios-people" transform="translate(90.000000, 162.000000)">
                <g id="Layer_1">
                    <g id="Group">
                        <path d="M296.712695,208.4098 C307.282851,212.057906 286.23608,204.761693 296.712695,208.4098 L296.712695,208.4098 L296.712695,208.4098 Z" id="Shape" fill="#000000"></path>
                        <g id="Shape">
                            <use fill="black" fill-opacity="1" filter="url(#filter-4)" xlink:href="#path-3"></use>
                            <use fill="url(#linearGradient-2)" fill-rule="evenodd" xlink:href="#path-3"></use>
                        </g>
                        <path d="M104.111359,196.904232 C104.672606,196.623608 105.233853,196.342984 105.608018,196.155902 C105.327394,196.249443 105.046771,196.436526 104.859688,196.530067 C104.579065,196.623608 104.391982,196.717149 104.111359,196.904232 L104.111359,196.904232 Z" id="Shape" fill="#000000"></path>
                        <g id="Shape" opacity="0.5">
                            <use fill="black" fill-opacity="1" filter="url(#filter-6)" xlink:href="#path-5"></use>
                            <use fill="url(#linearGradient-2)" fill-rule="evenodd" xlink:href="#path-5"></use>
                        </g>
                        <g id="Shape" opacity="0.5">
                            <use fill="black" fill-opacity="1" filter="url(#filter-8)" xlink:href="#path-7"></use>
                            <use fill="url(#linearGradient-2)" fill-rule="evenodd" xlink:href="#path-7"></use>
                        </g>
                    </g>
                </g>
            </g>
        </g>
    </g>
</svg>