<?xml version="1.0" encoding="UTF-8"?>
<svg width="606px" height="606px" viewBox="0 0 606 606" version="1.1" xmlns="http://www.w3.org/2000/svg" xmlns:xlink="http://www.w3.org/1999/xlink">
    <!-- Generator: Sketch 40.2 (33826) - http://www.bohemiancoding.com/sketch -->
    <title>group</title>
    <desc>Created with Sketch.</desc>
    <defs>
        <linearGradient x1="50%" y1="0%" x2="50%" y2="100%" id="linearGradient-1">
            <stop stop-color="#FFFFFF" stop-opacity="0.2" offset="0%"></stop>
            <stop stop-color="#000000" stop-opacity="0.2" offset="100%"></stop>
        </linearGradient>
        <path d="M552.268958,552.268958 C600,504.537813 600,431.458333 600,300 C600,168.541667 600,95.4621875 552.268958,47.7310417 C504.537813,0 431.458333,0 300,0 C168.541667,0 95.4621875,0 47.7310417,47.7310417 C0,95.4621875 0,168.541667 0,300 C0,431.458333 0,504.537813 47.7310417,552.268958 C95.4621875,600 168.541667,600 300,600 C431.458333,600 504.537813,600 552.268958,552.268958 Z" id="path-2"></path>
    </defs>
    <g id="Page-1" stroke="none" stroke-width="1" fill="none" fill-rule="evenodd">
        <g id="group" transform="translate(3.000000, 3.000000)">
            <g id="Shape">
                <use fill="#F06563" xlink:href="#path-2"></use>
                <use stroke="#000000" stroke-width="4.04" fill="url(#linearGradient-1)" xlink:href="#path-2"></use>
            </g>
            <g id="Group-4" transform="translate(102.000000, 144.000000)" fill="#FFFFFF" opacity="0.9">
                <g id="user" transform="translate(73.857404, 19.012797)">
                    <g id="Capa_1">
                        <g id="Group">
                            <path d="M71.1143545,131.070047 C74.2717359,136.491211 78.3227156,141.674082 83.2672939,146.022928 C88.152299,150.371774 93.9309025,153.886595 100.066945,156.031231 C107.037014,158.59288 113.709216,158.712027 118.177208,157.818428 C122.6452,156.626964 125.087703,154.72062 124.611117,151.980251 C123.777092,146.856953 115.675132,143.759145 106.620001,139.291153 C98.3393217,135.240173 92.3819985,128.091385 88.4501651,119.393693 C84.4587586,110.696002 82.4332687,100.687698 81.3013773,90.5006758 C80.8247914,86.3901228 80.5864985,82.2199965 80.5269252,78.0498702 C80.467352,75.9648071 80.467352,73.879744 80.5269252,71.8542541 L80.6460717,68.8160192 L80.8843646,65.3607718 L81.3609505,59.4034485 C81.4205237,57.3779586 82.0758293,55.5907617 82.3736954,53.624845 L82.9098545,50.7653299 L83.803453,48.0845344 C84.4587586,46.2973374 84.816198,44.390994 85.7693697,42.84209 C88.7480313,36.0507415 93.5138899,30.3912844 99.709506,26.3998779 C105.845549,22.2893248 113.530496,19.9659688 121.275016,19.1915168 C128.245084,19.6085294 135.334299,21.1574334 141.410769,23.8382289 C147.546812,26.5190243 152.729683,30.2125647 156.601943,34.9188501 C160.533776,39.6251354 163.154998,45.403739 164.942195,51.7185016 C165.418781,54.9354561 166.371953,57.2588122 166.610246,61.7863778 L167.205978,67.8628475 C167.325125,69.3521783 167.444271,71.318095 167.503844,73.105292 C167.920857,87.8794536 166.252806,103.249347 160.772069,115.700153 C159.401885,118.797961 157.793407,121.657476 155.946637,124.278698 C154.099867,126.840347 152.014804,129.044557 149.691448,131.010474 C145.044736,134.644441 139.385279,137.20609 133.249236,137.980542 C132.77265,138.040115 132.236491,138.218835 131.640759,138.516701 C131.045026,138.814567 130.56844,139.23158 129.674842,139.648592 C128.066365,140.423044 126.577034,141.376216 125.921728,142.150668 C123.240933,145.12933 127.113193,147.631406 132.59393,148.882443 C137.121496,149.954762 142.244794,149.954762 147.487238,149.00159 C152.789256,148.048418 158.150847,145.605916 162.976279,142.150668 C172.746289,135.121027 179.478064,123.742539 183.112031,112.185332 C187.52045,98.1260495 189.009781,83.8284738 188.771488,69.3521783 C188.771488,67.6245546 188.592769,65.420345 188.473622,63.871441 L188.116183,58.8077162 C188.116183,55.7099081 187.103438,51.301489 186.388559,47.4292289 C186.090693,45.403739 185.375814,43.5569688 184.780082,41.6506253 C184.124776,39.7442819 183.588617,37.8975117 182.814165,35.9911683 C180.967395,32.3572011 179.418491,28.6040875 176.856842,25.2679865 C172.21013,18.4170648 165.835794,12.4597415 158.567859,8.46833497 C151.359498,4.41735517 143.495832,1.85570618 135.632165,0.783388004 C131.700332,0.187655682 127.708925,-0.0506372474 123.836665,0.00893598484 C119.666539,0.0685092171 115.794279,0.545095075 111.862445,1.31954709 C104.058352,2.86845113 96.2542586,5.78753951 89.3437636,10.3746784 C82.3141222,14.5448047 75.8206399,20.2042617 71.233501,27.1743299 C63.7272737,38.0762314 60.5698924,50.7057566 59.6167207,62.5608299 L59.3784278,64.8246127 L59.2592813,65.9565041 C59.1997081,66.5522364 59.3188546,65.1820521 59.3188546,65.3011985 L59.3188546,65.3607718 L59.3188546,65.420345 L59.3188546,65.5394915 L59.2592813,65.8373576 L59.1997081,66.4926632 C59.0805616,68.0415672 58.9614152,69.4713248 58.9018419,70.9606556 C58.7826955,73.879744 58.7231222,76.7392591 58.7231222,79.5987743 C58.7826955,85.3773778 59.1997081,91.0964081 60.0337333,96.8750116 C61.6422106,108.432219 64.7995919,120.168145 71.1143545,131.070047 L71.1143545,131.070047 Z" id="Shape"></path>
                            <path d="M251.442529,228.114842 C251.323382,224.719168 251.025516,221.144774 250.54893,217.510807 C249.536185,210.242873 247.391549,202.379206 242.62569,194.992125 C237.859832,187.605044 229.996165,181.766868 221.953779,179.086072 L221.834632,179.026499 C221.596339,178.966926 221.298473,178.847779 221.06018,178.788206 C207.656203,175.332959 194.490519,169.494782 182.337579,162.286421 C179.418491,160.61837 173.87818,159.546052 171.733544,159.843918 C170.720799,160.022638 170.00592,160.380077 169.648481,160.97581 C169.291041,161.571542 169.291041,162.345994 169.529334,163.239592 C170.065493,165.086363 171.85269,167.528865 174.354766,170.030941 C184.780082,180.754123 199.137231,190.46456 216.592188,196.541029 L216.056029,196.36231 C223.08567,199.698411 227.31537,205.298294 229.340859,213.340681 C231.00891,219.357577 231.128056,226.506365 231.00891,233.774299 C230.889763,237.348693 230.651471,241.042234 230.294031,244.497481 C230.115311,246.225105 229.877019,247.952729 229.519579,249.501633 C229.460006,249.739926 229.460006,249.918645 229.400433,250.097365 C229.102566,250.276085 228.8047,250.395231 228.566407,250.514378 C227.196223,251.169683 225.885612,251.884562 224.515428,252.480294 C221.775059,253.790905 218.915544,254.922797 216.115602,256.114261 C210.396572,258.378044 204.558395,260.403534 198.601072,262.131158 C186.745998,265.645979 174.533486,268.207628 162.201827,269.875678 C159.163592,270.411837 156.006211,270.590557 152.908402,270.947996 C149.810594,271.365009 146.712786,271.543729 143.614978,271.722448 C140.51717,271.901168 137.419362,272.199034 134.261981,272.199034 L125.147276,272.437327 C118.653794,272.318181 111.981592,272.318181 106.024269,271.901168 L101.43713,271.662875 L96.7904176,271.245862 C93.6926096,270.947996 90.5352283,270.769277 87.4374202,270.292691 C83.5055869,269.518239 79.5737535,268.862933 75.7014934,267.850188 L69.8633167,266.480004 L64.0847131,264.871527 C56.1019,262.607744 48.2382334,260.046095 40.6128596,256.888713 C36.8001728,255.339809 33.0470591,253.671759 29.413092,251.944135 C27.625895,251.050537 25.7791248,250.156938 24.0515011,249.203767 C23.7536349,249.025047 23.515342,248.9059 23.2174758,248.727181 C23.0983293,247.833582 22.9791829,246.939984 22.8600364,245.986812 C22.5621703,243.306017 22.4430238,240.386928 22.3238773,237.46784 C22.1451576,231.748809 22.3834506,225.67234 22.9791829,220.608615 C23.6344884,215.425744 25.0046728,210.957751 27.0301627,207.681224 C29.1152258,204.464269 31.736448,202.260059 35.6087081,200.651582 L34.7151096,200.889875 C45.6170111,197.792067 55.8636071,193.443221 65.5144707,188.319923 C79.5141803,180.873269 88.926751,171.043686 84.816198,167.230999 C81.1226576,163.775751 70.7569151,166.575693 57.1742182,172.354297 C48.2382334,176.166984 39.0043824,179.205219 29.7109581,181.230709 C29.5918117,181.230709 29.4726652,181.290282 29.3535187,181.349855 L28.9960793,181.469001 C23.6940617,183.196625 18.392044,186.115714 14.1027713,190.28584 C9.81349855,194.396393 6.7752637,199.519691 4.74977381,204.583416 C2.72428391,209.706714 1.65196573,214.830012 1.05623341,219.77459 C0.758367247,222.276666 0.57964755,224.659595 0.460501085,227.042524 L0.341354621,230.438198 L0.281781389,232.106249 L0.281781389,234.072166 C0.341354621,238.063572 0.460501085,242.054979 0.877513711,246.165532 C1.05623341,248.250595 1.29452634,250.276085 1.71153896,252.539868 C2.12855159,254.80365 2.54556421,257.00786 3.67745563,259.986522 L3.73702886,260.105668 C4.45190765,261.892865 5.64337229,263.441769 7.43056926,264.514087 C8.8007536,265.348112 9.81349855,265.943845 10.94539,266.539577 C12.0772814,267.194883 13.1495996,267.731042 14.281491,268.326774 C16.4857006,269.518239 18.7494834,270.47141 20.953693,271.543729 C25.4216854,273.509645 29.9492511,275.356415 34.5363899,277.024466 C43.6510945,280.300994 52.9445187,283.041362 62.3570894,285.066852 C67.0633747,286.198744 71.7696601,286.913623 76.5355187,287.866794 C81.3013773,288.462527 86.0076626,289.356125 90.8330944,289.773138 C95.598953,290.249724 100.364812,290.726309 105.249817,290.905029 L112.517751,291.262468 L119.487819,291.322042 C119.13038,291.143322 118.77294,290.905029 118.415501,290.726309 C118.77294,290.905029 119.13038,291.143322 119.487819,291.322042 C129.913135,292.513506 140.33845,292.632653 150.882913,292.334787 C161.367801,291.739054 171.971837,290.726309 182.456726,288.641246 C192.941615,286.615756 203.307357,283.934961 213.49438,280.360567 C218.558104,278.57337 223.621829,276.607453 228.625981,274.343671 C231.128056,273.271352 233.570559,272.020314 236.072635,270.769277 C237.323673,270.113971 238.515137,269.518239 239.766175,268.80336 C241.076786,268.088481 242.149104,267.492749 243.757582,266.480004 L243.936301,266.360857 C245.902218,265.10982 247.510695,263.263049 248.344721,260.88012 C250.251064,255.578102 250.54893,252.182428 250.965943,248.548461 C251.323382,244.974067 251.502102,241.578393 251.621248,238.182719 C251.680822,236.514668 251.680822,234.846618 251.680822,233.059421 L251.442529,228.114842 L251.442529,228.114842 Z" id="Shape"></path>
                        </g>
                    </g>
                </g>
                <g id="user-copy" transform="translate(250.822669, 0.000000)">
                    <g id="Capa_1">
                        <g id="Group">
                            <path d="M13.5514003,34.9163033 C15.9774986,29.3813543 19.8592559,24.7688968 24.9055403,21.5159005 C29.9033028,18.1657998 36.1626364,16.2722646 42.470492,15.6410862 C48.147562,15.9809515 53.921676,17.2433083 58.8709165,19.4281565 C63.868679,21.6130048 68.0900901,24.6232403 71.2440178,28.4588628 C74.4464676,32.2944854 76.5814341,37.0040473 78.0370931,42.1505788 C78.4252688,44.7723967 79.2016203,46.6659319 79.3957081,50.3558979 L79.8809278,55.3082207 C79.9779717,56.5220253 80.0750157,58.1242474 80.1235376,59.580813 C80.4631914,71.6217547 79.1045763,84.1482182 74.6405555,94.2956247 C73.5245502,96.8203383 72.2144572,99.1508431 70.7102762,101.287139 C69.2060953,103.374883 67.5078265,105.171314 65.6154698,106.773536 C61.8307564,109.735219 57.2211697,111.822963 52.2234072,112.454142 C51.8352314,112.502694 51.3985338,112.64835 50.9133141,112.891111 C50.4280944,113.133872 50.0399187,113.473738 49.3120892,113.813603 C48.0019961,114.444781 46.788947,115.221616 46.2552054,115.852795 C44.0717169,118.280404 47.2256447,120.319595 51.6896655,121.339191 C55.377335,122.213131 59.550224,122.213131 63.820157,121.436296 C68.138612,120.659461 72.505589,118.668821 76.4358682,115.852795 C84.3934706,110.123637 89.8764528,100.85017 92.8362927,91.4310458 C96.4269182,79.9727304 97.6399673,68.3202061 97.4458795,56.5220253 C97.4458795,55.114012 97.3003136,53.3175812 97.2032696,52.0552244 L96.9121378,47.9282887 C96.9121378,45.4035751 96.0872644,41.8107135 95.5050008,38.6548215 C95.262391,37.0040473 94.6801274,35.4989295 94.1949078,33.9452596 C93.6611661,32.3915897 93.2244684,30.886472 92.5936829,29.3328021 C91.0895019,26.3711189 89.8279308,23.3123313 87.7414863,20.593409 C83.9567729,15.0099078 78.7649226,10.1546893 72.8452427,6.901693 C66.9740848,3.60014447 60.5691853,1.51240054 54.1642858,0.638461223 C50.9618361,0.152939381 47.7108643,-0.0412693566 44.5569366,0.00728282764 C41.1603989,0.0558350119 38.0064711,0.444252486 34.8040214,1.07543088 C28.4476438,2.33778767 22.0912663,4.7168447 16.4627182,8.45536289 C10.7371263,11.8540158 5.44823197,16.4664733 1.71204059,22.1470789 C-4.40172713,31.0321286 12.7750488,36.1786601 13.5514003,34.9163033 Z" id="Shape"></path>
                            <path d="M147.763158,177.271308 C146.938285,171.347941 145.191494,164.939053 141.309737,158.918582 C137.427979,152.898111 131.02308,148.139997 124.472615,145.955149 C124.181483,145.858044 123.938873,145.76094 123.744785,145.712388 C112.827343,142.896361 102.103988,138.138247 92.2055071,132.263433 C89.8279308,130.903972 85.315388,130.030032 83.5685972,130.272793 C82.7437238,130.41845 82.1614602,130.709763 81.8703284,131.195285 C81.5791966,131.680807 81.5791966,132.311985 81.7732845,133.040268 C82.2099822,134.545385 83.6656411,136.536025 85.7035637,138.575217 C94.1949078,147.31461 105.888702,155.228616 120.105638,160.180939 L119.66894,160.035282 C125.394532,162.754205 128.839591,167.31811 130.489338,173.872655 C131.847953,178.776425 131.944997,184.602687 131.847953,190.526054 C131.750909,193.439185 131.556822,196.44942 131.26569,199.265447 C131.120124,200.67346 130.926036,202.081474 130.634904,203.343831 C130.586382,203.538039 130.586382,203.683696 130.53786,203.829352 C130.29525,203.975009 130.052641,204.072113 129.858553,204.169218 C128.742548,204.703292 127.675064,205.285918 126.559059,205.77144 C124.327049,206.839588 121.997994,207.762079 119.717462,208.733123 C115.059353,210.578106 110.3042,212.22888 105.452004,213.636894 C95.7961326,216.501473 88.872108,219.074738 81.8703284,222.534566 C79.2373228,226.819836 83.7626851,236.941942 92.3025511,235.242616 C100.842417,233.591841 109.285239,231.406993 117.582495,228.493862 C121.706862,227.037297 125.83123,225.435074 129.907075,223.590091 C131.944997,222.716152 133.934398,221.696556 135.97232,220.67696 C136.991282,220.142886 137.961721,219.657365 138.980682,219.074738 C140.048166,218.492112 140.921561,218.00659 142.231654,217.181203 C143.978445,216.064503 145.288538,214.559385 145.967845,212.617298 C147.520548,208.296153 147.763158,205.528679 148.102812,202.566996 C148.393944,199.653865 148.53951,196.88639 148.636554,194.118916 C148.685076,192.759454 148.685076,191.399993 148.685076,189.943428 L148.490988,185.913596 C148.393944,183.146122 148.151334,180.232991 147.763158,177.271308 Z" id="Shape"></path>
                        </g>
                    </g>
                </g>
                <g id="user-copy-2" transform="translate(74.588665, 117.733090) scale(-1, 1) translate(-74.588665, -117.733090) ">
                    <g id="Capa_1">
                        <g id="Group">
                            <path d="M13.5514003,34.9163033 C15.9774986,29.3813543 19.8592559,24.7688968 24.9055403,21.5159005 C29.9033028,18.1657998 36.1626364,16.2722646 42.470492,15.6410862 C48.147562,15.9809515 53.921676,17.2433083 58.8709165,19.4281565 C63.868679,21.6130048 68.0900901,24.6232403 71.2440178,28.4588628 C74.4464676,32.2944854 76.5814341,37.0040473 78.0370931,42.1505788 C78.4252688,44.7723967 79.2016203,46.6659319 79.3957081,50.3558979 L79.8809278,55.3082207 C79.9779717,56.5220253 80.0750157,58.1242474 80.1235376,59.580813 C80.4631914,71.6217547 79.1045763,84.1482182 74.6405555,94.2956247 C73.5245502,96.8203383 72.2144572,99.1508431 70.7102762,101.287139 C69.2060953,103.374883 67.5078265,105.171314 65.6154698,106.773536 C61.8307564,109.735219 57.2211697,111.822963 52.2234072,112.454142 C51.8352314,112.502694 51.3985338,112.64835 50.9133141,112.891111 C50.4280944,113.133872 50.0399187,113.473738 49.3120892,113.813603 C48.0019961,114.444781 46.788947,115.221616 46.2552054,115.852795 C44.0717169,118.280404 47.2256447,120.319595 51.6896655,121.339191 C55.377335,122.213131 59.550224,122.213131 63.820157,121.436296 C68.138612,120.659461 72.505589,118.668821 76.4358682,115.852795 C84.3934706,110.123637 89.8764528,100.85017 92.8362927,91.4310458 C96.4269182,79.9727304 97.6399673,68.3202061 97.4458795,56.5220253 C97.4458795,55.114012 97.3003136,53.3175812 97.2032696,52.0552244 L96.9121378,47.9282887 C96.9121378,45.4035751 96.0872644,41.8107135 95.5050008,38.6548215 C95.262391,37.0040473 94.6801274,35.4989295 94.1949078,33.9452596 C93.6611661,32.3915897 93.2244684,30.886472 92.5936829,29.3328021 C91.0895019,26.3711189 89.8279308,23.3123313 87.7414863,20.593409 C83.9567729,15.0099078 78.7649226,10.1546893 72.8452427,6.901693 C66.9740848,3.60014447 60.5691853,1.51240054 54.1642858,0.638461223 C50.9618361,0.152939381 47.7108643,-0.0412693566 44.5569366,0.00728282764 C41.1603989,0.0558350119 38.0064711,0.444252486 34.8040214,1.07543088 C28.4476438,2.33778767 22.0912663,4.7168447 16.4627182,8.45536289 C10.7371263,11.8540158 5.44823197,16.4664733 1.71204059,22.1470789 C-4.40172713,31.0321286 12.7750488,36.1786601 13.5514003,34.9163033 Z" id="Shape"></path>
                            <path d="M147.763158,177.271308 C146.938285,171.347941 145.191494,164.939053 141.309737,158.918582 C137.427979,152.898111 131.02308,148.139997 124.472615,145.955149 C124.181483,145.858044 123.938873,145.76094 123.744785,145.712388 C112.827343,142.896361 102.103988,138.138247 92.2055071,132.263433 C89.8279308,130.903972 85.315388,130.030032 83.5685972,130.272793 C82.7437238,130.41845 82.1614602,130.709763 81.8703284,131.195285 C81.5791966,131.680807 81.5791966,132.311985 81.7732845,133.040268 C82.2099822,134.545385 83.6656411,136.536025 85.7035637,138.575217 C94.1949078,147.31461 105.888702,155.228616 120.105638,160.180939 L119.66894,160.035282 C125.394532,162.754205 128.839591,167.31811 130.489338,173.872655 C131.847953,178.776425 131.944997,184.602687 131.847953,190.526054 C131.750909,193.439185 131.556822,196.44942 131.26569,199.265447 C131.120124,200.67346 130.926036,202.081474 130.634904,203.343831 C130.586382,203.538039 130.586382,203.683696 130.53786,203.829352 C130.29525,203.975009 130.052641,204.072113 129.858553,204.169218 C128.742548,204.703292 127.675064,205.285918 126.559059,205.77144 C124.327049,206.839588 121.997994,207.762079 119.717462,208.733123 C115.059353,210.578106 110.3042,212.22888 105.452004,213.636894 C95.7961326,216.501473 88.872108,219.074738 81.8703284,222.534566 C79.2373228,226.819836 83.7626851,236.941942 92.3025511,235.242616 C100.842417,233.591841 109.285239,231.406993 117.582495,228.493862 C121.706862,227.037297 125.83123,225.435074 129.907075,223.590091 C131.944997,222.716152 133.934398,221.696556 135.97232,220.67696 C136.991282,220.142886 137.961721,219.657365 138.980682,219.074738 C140.048166,218.492112 140.921561,218.00659 142.231654,217.181203 C143.978445,216.064503 145.288538,214.559385 145.967845,212.617298 C147.520548,208.296153 147.763158,205.528679 148.102812,202.566996 C148.393944,199.653865 148.53951,196.88639 148.636554,194.118916 C148.685076,192.759454 148.685076,191.399993 148.685076,189.943428 L148.490988,185.913596 C148.393944,183.146122 148.151334,180.232991 147.763158,177.271308 Z" id="Shape"></path>
                        </g>
                    </g>
                </g>
            </g>
        </g>
    </g>
</svg>