<?xml version="1.0" encoding="UTF-8"?>
<svg width="64px" height="64px" viewBox="0 0 64 64" version="1.1" xmlns="http://www.w3.org/2000/svg" xmlns:xlink="http://www.w3.org/1999/xlink">
    <!-- Generator: Sketch 55 (78076) - https://sketchapp.com -->
    <title>groups</title>
    <desc>Created with Sketch.</desc>
    <defs>
        <path d="M32,64 C46.0222222,64 53.8173667,64 58.9086889,58.9086889 C64,53.8173667 64,46.0222222 64,32 C64,17.9777778 64,10.1826333 58.9086889,5.09131111 C53.8173667,0 46.0222222,0 32,0 C17.9777778,0 10.1826333,0 5.09131111,5.09131111 C0,10.1826333 0,17.9777778 0,32 C0,46.0222222 0,53.8173667 5.09131111,58.9086889 C10.1826333,64 17.9777778,64 32,64 Z" id="path-1"></path>
        <linearGradient x1="50%" y1="0%" x2="50%" y2="100%" id="linearGradient-3">
            <stop stop-color="#FDFEFF" offset="0%"></stop>
            <stop stop-color="#FBFCFD" stop-opacity="0.9" offset="100%"></stop>
        </linearGradient>
        <path d="M6.15,12.4285714 C8.41140625,12.4285714 10.25,10.5707589 10.25,8.28571429 C10.25,6.00066964 8.41140625,4.14285714 6.15,4.14285714 C3.88859375,4.14285714 2.05,6.00066964 2.05,8.28571429 C2.05,10.5707589 3.88859375,12.4285714 6.15,12.4285714 Z M34.85,12.4285714 C37.1114063,12.4285714 38.95,10.5707589 38.95,8.28571429 C38.95,6.00066964 37.1114063,4.14285714 34.85,4.14285714 C32.5885938,4.14285714 30.75,6.00066964 30.75,8.28571429 C30.75,10.5707589 32.5885937,12.4285714 34.85,12.4285714 Z M36.9,14.5 L32.8,14.5 C31.6725,14.5 30.6539063,14.9595982 29.9107813,15.7040179 C32.4925,17.1345982 34.3246875,19.7174107 34.721875,22.7857143 L38.95,22.7857143 C40.0839062,22.7857143 41,21.8600446 41,20.7142857 L41,18.6428571 C41,16.3578125 39.1614062,14.5 36.9,14.5 Z M20.5,14.5 C24.4654687,14.5 27.675,11.2569196 27.675,7.25 C27.675,3.24308036 24.4654687,0 20.5,0 C16.5345312,0 13.325,3.24308036 13.325,7.25 C13.325,11.2569196 16.5345312,14.5 20.5,14.5 Z M25.42,16.5714286 L24.8882812,16.5714286 C23.5557812,17.21875 22.0759375,17.6071429 20.5,17.6071429 C18.9240625,17.6071429 17.450625,17.21875 16.1117187,16.5714286 L15.58,16.5714286 C11.505625,16.5714286 8.2,19.9116071 8.2,24.0285714 L8.2,25.8928571 C8.2,27.6082589 9.57734375,29 11.275,29 L29.725,29 C31.4226562,29 32.8,27.6082589 32.8,25.8928571 L32.8,24.0285714 C32.8,19.9116071 29.494375,16.5714286 25.42,16.5714286 Z M11.0892188,15.7040179 C10.3460938,14.9595982 9.3275,14.5 8.2,14.5 L4.1,14.5 C1.83859375,14.5 0,16.3578125 0,18.6428571 L0,20.7142857 C0,21.8600446 0.91609375,22.7857143 2.05,22.7857143 L6.27171875,22.7857143 C6.6753125,19.7174107 8.5075,17.1345982 11.0892188,15.7040179 Z" id="path-4"></path>
        <filter x="-4.9%" y="-3.4%" width="109.8%" height="113.8%" filterUnits="objectBoundingBox" id="filter-5">
            <feOffset dx="0" dy="1" in="SourceAlpha" result="shadowOffsetOuter1"></feOffset>
            <feGaussianBlur stdDeviation="0.5" in="shadowOffsetOuter1" result="shadowBlurOuter1"></feGaussianBlur>
            <feColorMatrix values="0 0 0 0 0   0 0 0 0 0   0 0 0 0 0  0 0 0 0.1 0" type="matrix" in="shadowBlurOuter1"></feColorMatrix>
        </filter>
    </defs>
    <g id="Page-1" stroke="none" stroke-width="1" fill="none" fill-rule="evenodd">
        <g id="Artboard" transform="translate(-1636.000000, -430.000000)">
            <g id="groups" transform="translate(1636.000000, 430.000000)">
                <mask id="mask-2" fill="white">
                    <use xlink:href="#path-1"></use>
                </mask>
                <use id="Path" fill="#00B356" xlink:href="#path-1"></use>
                <g id="users" mask="url(#mask-2)" fill-rule="nonzero">
                    <g transform="translate(12.000000, 17.000000)" id="Shape">
                        <g>
                            <use fill="black" fill-opacity="1" filter="url(#filter-5)" xlink:href="#path-4"></use>
                            <use fill="url(#linearGradient-3)" xlink:href="#path-4"></use>
                        </g>
                    </g>
                </g>
            </g>
        </g>
    </g>
</svg>