<?xml version="1.0" encoding="UTF-8"?>
<svg width="516px" height="516px" viewBox="0 0 516 516" version="1.1" xmlns="http://www.w3.org/2000/svg" xmlns:xlink="http://www.w3.org/1999/xlink">
    <!-- Generator: Sketch 50.2 (55047) - http://www.bohemiancoding.com/sketch -->
    <title>Protean</title>
    <desc>Created with Sketch.</desc>
    <defs>
        <linearGradient x1="50%" y1="0%" x2="50%" y2="100%" id="linearGradient-1">
            <stop stop-color="#FFFFFF" offset="0%"></stop>
            <stop stop-color="#EEEEEE" offset="100%"></stop>
        </linearGradient>
    </defs>
    <g id="Page-1" stroke="none" stroke-width="1" fill="none" fill-rule="evenodd">
        <g id="Protean" transform="translate(2.000000, 2.000000)">
            <path d="M256,512 C368.177778,512 430.538933,512 471.269511,471.269511 C512,430.538933 512,368.177778 512,256 C512,143.822222 512,81.4610667 471.269511,40.7304889 C430.538933,0 368.177778,0 256,0 C143.822222,0 81.4610667,0 40.7304889,40.7304889 C0,81.4610667 0,143.822222 0,256 C0,368.177778 0,430.538933 40.7304889,471.269511 C81.4610667,512 143.822222,512 256,512 Z" id="Shape" stroke="#000000" stroke-width="4" fill="url(#linearGradient-1)"></path>
            <g transform="translate(76.000000, 76.000000)" fill-rule="nonzero" id="Shape">
                <polygon fill-opacity="0.52" fill="#95DF4B" points="272.9376 87.048 248.9328 139.0752 223.2 129.6 217.8 113.4144 218.6352 112.1184"></polygon>
                <polygon fill-opacity="0.5" fill="#F15ABE" points="87.048 87.048 141.3504 112.1184 142.1856 113.4144 136.8 129.6 111.0672 139.0752"></polygon>
                <polygon fill-opacity="0.5" fill="#F47735" points="141.3504 247.8816 87.048 272.952 111.0672 220.9248 136.8 230.4 142.1856 246.5856"></polygon>
                <polygon fill-opacity="0.497735507" fill="#00B1A5" points="217.8 246.5856 223.2 230.4 248.9328 220.9248 272.9376 272.952 218.6352 247.8816"></polygon>
                <path d="M180,144 C160.117749,144 144,160.117749 144,180 C144,199.882251 160.117749,216 180,216 C199.882251,216 216,199.882251 216,180 C216,160.117749 199.882251,144 180,144 Z M180,201.6 C168.070649,201.6 158.4,191.929351 158.4,180 C158.4,168.070649 168.070649,158.4 180,158.4 C191.929351,158.4 201.6,168.070649 201.6,180 C201.587301,191.924087 191.924087,201.587301 180,201.6 Z" fill="#5180D9"></path>
                <path d="M150.4584,225.85824 C149.074941,221.708255 145.880041,218.412156 141.7752,216.9 L41.65056,180 L141.7752,143.11008 C145.880041,141.597924 149.074941,138.301825 150.4584,134.15184 L180,45.53856 L209.53872,134.15328 C210.922179,138.303265 214.117079,141.599364 218.22192,143.11152 L318.34512,180 L218.22048,216.88992 C214.115639,218.402076 210.920739,221.698175 209.53728,225.84816 L180,314.46144 L150.4584,225.85824 Z M262.48464,215.92656 L360,180 L262.48752,144.07344 L302.4,57.6 L212.95728,98.88048 L180,0 L147.0384,98.88048 L57.6,57.6 L97.51248,144.07344 L0,180 L97.51248,215.92656 L57.6,302.4 L147.04128,261.11952 L180,360 L212.95872,261.11952 L302.4,302.4 L262.48464,215.92656 Z M218.64096,112.11696 L272.94336,87.06096 L248.93136,139.08816 L223.2,129.6 L217.8072,113.41728 L218.64096,112.11696 Z M87.05088,87.06096 L141.35328,112.11696 L142.18992,113.41296 L136.8,129.6 L111.06576,139.08096 L87.05088,87.06096 Z M141.35328,247.89024 L87.05088,272.94624 L111.06288,220.91904 L136.8,230.4 L142.1928,246.5784 L141.35328,247.89024 Z M217.80432,246.59424 L223.2,230.4 L248.93424,220.91904 L272.94624,272.94624 L218.64384,247.89024 L217.80432,246.59424 Z" fill="#5180D9"></path>
            </g>
        </g>
    </g>
</svg>