<svg width="320" height="320" viewBox="0 0 320 320" fill="none" xmlns="http://www.w3.org/2000/svg">
<g clip-path="url(#clip0_1016_7553)">
<path d="M160 0C281.326 0 320 38.6737 320 160C320 281.326 281.326 320 160 320C38.6736 320 0 281.326 0 160C0 38.6737 38.6736 0 160 0Z" fill="url(#paint0_linear_1016_7553)"/>
<path d="M160 2C220.573 2 259.85 11.6833 284.083 35.9168C308.317 60.1504 318 99.4272 318 160C318 220.573 308.317 259.85 284.083 284.083C259.85 308.317 220.573 318 160 318C99.4272 318 60.1504 308.317 35.9168 284.083C11.6833 259.85 2 220.573 2 160C2 99.4272 11.6833 60.1504 35.9168 35.9168C60.1504 11.6833 99.4272 2 160 2Z" stroke="#F8FAFC" stroke-opacity="0.2" stroke-width="4"/>
<g opacity="0.8">
<g clip-path="url(#clip1_1016_7553)">
<path d="M118.585 50.0549C100.19 51.2199 82.9531 59.4388 70.4678 72.9989C57.9824 86.5589 51.2114 104.414 51.566 122.843C51.9205 141.272 59.3732 158.854 72.3709 171.924C85.3686 184.993 102.909 192.543 121.335 193H179.36C186.895 193 193 186.95 193 179.36V121.555C193.016 111.913 191.08 102.367 187.309 93.4932C183.537 84.6192 178.009 76.6005 171.056 69.92C164.103 63.2395 155.87 58.0355 146.852 54.6215C137.835 51.2075 128.219 49.6541 118.585 50.0549V50.0549Z" fill="url(#paint1_linear_1016_7553)"/>
<path d="M201.415 269.945C219.811 268.78 237.047 260.561 249.533 247.001C262.018 233.441 268.789 215.586 268.435 197.157C268.08 178.728 260.627 161.146 247.63 148.076C234.632 135.006 217.092 127.457 198.665 127H140.64C137.023 127 133.553 128.437 130.995 130.995C128.437 133.553 127 137.022 127 140.64V198.445C126.984 208.087 128.92 217.633 132.692 226.507C136.463 235.381 141.992 243.399 148.945 250.08C155.898 256.76 164.131 261.964 173.148 265.378C182.166 268.792 191.781 270.346 201.415 269.945V269.945Z" fill="#0073E6"/>
<path d="M193 127V179.36C193 182.978 191.563 186.447 189.005 189.005C186.447 191.563 182.978 193 179.36 193H127V140.64C126.993 137.17 128.308 133.828 130.679 131.294C133.05 128.759 136.297 127.224 139.76 127L140.64 126.945H193V127Z" fill="url(#paint2_linear_1016_7553)"/>
</g>
</g>
</g>
<defs>
<linearGradient id="paint0_linear_1016_7553" x1="160" y1="0" x2="160" y2="320" gradientUnits="userSpaceOnUse">
<stop stop-color="#475569"/>
<stop offset="1" stop-color="#1E293B"/>
</linearGradient>
<linearGradient id="paint1_linear_1016_7553" x1="121.5" y1="59.4049" x2="121.5" y2="133.875" gradientUnits="userSpaceOnUse">
<stop stop-color="#11EFE3"/>
<stop offset="0.33" stop-color="#15E8E2"/>
<stop offset="0.74" stop-color="#1FD3E0"/>
<stop offset="1" stop-color="#21CFE0"/>
</linearGradient>
<linearGradient id="paint2_linear_1016_7553" x1="160" y1="136.46" x2="160" y2="199.82" gradientUnits="userSpaceOnUse">
<stop stop-color="#00299C"/>
<stop offset="1" stop-color="#0073E6"/>
</linearGradient>
<clipPath id="clip0_1016_7553">
<rect width="320" height="320" fill="white"/>
</clipPath>
<clipPath id="clip1_1016_7553">
<rect width="220" height="220" fill="white" transform="translate(50 50)"/>
</clipPath>
</defs>
</svg>
