<?xml version="1.0" encoding="UTF-8"?>
<svg width="606px" height="606px" viewBox="0 0 606 606" version="1.1" xmlns="http://www.w3.org/2000/svg" xmlns:xlink="http://www.w3.org/1999/xlink">
    <title>Dolphin connect</title>
    <defs>
        <linearGradient x1="50%" y1="0%" x2="50%" y2="100%" id="linearGradient-1">
            <stop stop-color="#FFFFFF" stop-opacity="0.2" offset="0%"></stop>
            <stop stop-color="#000000" stop-opacity="0.2" offset="100%"></stop>
        </linearGradient>
        <path d="M552.268958,552.268958 C600,504.537813 600,431.458333 600,300 C600,168.541667 600,95.4621875 552.268958,47.7310417 C504.537813,0 431.458333,0 300,0 C168.541667,0 95.4621875,0 47.7310417,47.7310417 C0,95.4621875 0,168.541667 0,300 C0,431.458333 0,504.537813 47.7310417,552.268958 C95.4621875,600 168.541667,600 300,600 C431.458333,600 504.537813,600 552.268958,552.268958 Z" id="path-2"></path>
    </defs>
    <g id="Page-1" stroke="none" stroke-width="1" fill="none" fill-rule="evenodd">
        <g id="dolphin-connect" transform="translate(3.000000, 3.000000)">
            <g id="Squircle2-Copy-6">
                <g id="Shape">
                    <use fill="#FFFFFF" xlink:href="#path-2"></use>
                    <use stroke="#000000" stroke-width="4.04" fill="url(#linearGradient-1)" xlink:href="#path-2"></use>
                </g>
            </g>
            <g id="Dolphin_Logo" transform="matrix(75 0 0 -75 42 420)" stroke-width="0.1" stroke="#3399ff" stroke-linejoin="round">
                <path d="M 2.4 1 L 2.4 0 L 3.4 0 L 3.4 1 L 2.4 1 z" fill="#3399ff" />
                <path d="M 2.2 0.1 L 1.2 1.1 L 1.2 2.1 L 2.2 1.1 L 2.2 0.1 z" fill="#3399ff" />
                <path d="M 3.6 1 L 4.6 1 L 3.6 0 L 3.6 1 z" fill="#3399ff" />
                <path d="M 1.05 1 L 2.05 0 L 0.05 0 L 1.05 1 z" fill="#3399ff" />
                <path d="M 2.55 1.2 L 4.55 3.2 L 4.55 1.2 L 2.55 1.2 z" fill="#3399ff" />
                <path d="M 4.75 1.2 L 4.75 3.2 L 6.75 3.2 L 4.75 1.2 z" fill="#3399ff" />
                <path d="M 4.841 1 L 5.549 1.707 L 5.549 0.293 L 4.841 1 z" fill="#3399ff" />
            </g>
        </g>
    </g>
</svg>

