<svg width="80" height="80" viewBox="0 0 80 80" fill="none" xmlns="http://www.w3.org/2000/svg">
<rect width="80" height="80" fill="url(#paint0_linear_2424_9938)"/>
<path d="M61.0533 26.9789C60.6403 27.1909 60.1592 27.2317 59.7158 27.0922C59.2724 26.9528 58.9031 26.6447 58.6889 26.2354C57.014 22.9561 54.4788 20.1845 51.3498 18.2117C51.1548 18.0898 50.9859 17.931 50.8528 17.7444C50.7197 17.5579 50.625 17.3471 50.5741 17.1243C50.5232 16.9014 50.517 16.6708 50.556 16.4456C50.595 16.2204 50.6784 16.005 50.8014 15.8118C50.9244 15.6185 51.0846 15.4511 51.2729 15.3192C51.4611 15.1873 51.6738 15.0934 51.8986 15.043C52.1235 14.9925 52.3561 14.9864 52.5834 15.0251C52.8106 15.0637 53.0279 15.1464 53.2229 15.2683C56.8696 17.5824 59.8308 20.815 61.8035 24.6355C62.0174 25.0448 62.0585 25.5216 61.9178 25.9611C61.7772 26.4005 61.4662 26.7666 61.0533 26.9789ZM19.754 27.1745C20.0754 27.1744 20.3907 27.0868 20.6653 26.9211C20.94 26.7555 21.1634 26.5183 21.3113 26.2354C22.9862 22.9561 25.5213 20.1845 28.6504 18.2117C29.0442 17.9655 29.3232 17.5744 29.4261 17.1243C29.5289 16.6742 29.4471 16.2021 29.1987 15.8118C28.9503 15.4214 28.5557 15.1449 28.1015 15.043C27.6474 14.9411 27.171 15.0221 26.7772 15.2683C23.1305 17.5824 20.1694 20.815 18.1967 24.6355C18.0581 24.9005 17.9908 25.1964 18.001 25.4947C18.0113 25.7931 18.0989 26.0837 18.2553 26.3388C18.4117 26.5939 18.6318 26.8047 18.8943 26.9511C19.1567 27.0975 19.4528 27.1744 19.754 27.1745ZM60.573 49.7697C60.8838 50.298 61.0486 50.8983 61.0508 51.5099C61.0529 52.1215 60.8922 52.7228 60.585 53.2533C60.2778 53.7837 59.8349 54.2245 59.301 54.5312C58.7671 54.8378 58.161 54.9996 57.5439 55H48.5949C46.5711 55 31.3987 55 31.3987 55H22.4497C21.8329 54.9988 21.2274 54.8365 20.6941 54.5295C20.1608 54.2226 19.7185 53.7817 19.4118 53.2514C19.1051 52.7211 18.9449 52.12 18.9472 51.5088C18.9495 50.8976 19.1143 50.2977 19.425 49.7697C21.4012 46.3893 22.4497 41.5829 22.4497 35.87C22.4497 31.2576 24.2984 26.8342 27.5891 23.5728C30.8798 20.3113 35.343 18.4791 39.9968 18.4791C44.6506 18.4791 49.1137 20.3113 52.4045 23.5728C55.6952 26.8342 57.5439 31.2576 57.5439 35.87C57.5439 41.5807 58.5923 46.3872 60.573 49.7697Z" fill="black" fill-opacity="0.2"/>
<path d="M33 59C33 58.4477 33.4477 58 34 58H46C46.5523 58 47 58.4477 47 59C47 62.866 43.866 66 40 66C36.134 66 33 62.866 33 59Z" fill="black" fill-opacity="0.2"/>
<path d="M61.0533 25.9789C60.6403 26.1909 60.1592 26.2317 59.7158 26.0922C59.2724 25.9528 58.9031 25.6447 58.6889 25.2354C57.014 21.9561 54.4788 19.1845 51.3498 17.2117C51.1548 17.0898 50.9859 16.931 50.8528 16.7444C50.7197 16.5579 50.625 16.3471 50.5741 16.1243C50.5232 15.9014 50.517 15.6708 50.556 15.4456C50.595 15.2204 50.6784 15.005 50.8014 14.8118C50.9244 14.6185 51.0846 14.4511 51.2729 14.3192C51.4611 14.1873 51.6738 14.0934 51.8986 14.043C52.1235 13.9925 52.3561 13.9864 52.5834 14.0251C52.8106 14.0637 53.0279 14.1464 53.2229 14.2683C56.8697 16.5824 59.8308 19.815 61.8035 23.6355C62.0174 24.0448 62.0585 24.5216 61.9178 24.9611C61.7772 25.4005 61.4662 25.7666 61.0533 25.9789ZM19.754 26.1745C20.0754 26.1744 20.3907 26.0868 20.6653 25.9211C20.94 25.7555 21.1634 25.5183 21.3113 25.2354C22.9862 21.9561 25.5213 19.1845 28.6504 17.2117C29.0442 16.9655 29.3232 16.5744 29.4261 16.1243C29.5289 15.6742 29.4471 15.2021 29.1987 14.8118C28.9503 14.4214 28.5557 14.1449 28.1015 14.043C27.6474 13.9411 27.171 14.0221 26.7772 14.2683C23.1305 16.5824 20.1694 19.815 18.1967 23.6355C18.0581 23.9005 17.9908 24.1964 18.001 24.4947C18.0113 24.7931 18.0989 25.0837 18.2553 25.3388C18.4117 25.5939 18.6318 25.8047 18.8943 25.9511C19.1567 26.0975 19.4528 26.1744 19.754 26.1745ZM60.573 48.7697C60.8838 49.298 61.0486 49.8983 61.0508 50.5099C61.0529 51.1215 60.8922 51.7228 60.585 52.2533C60.2778 52.7837 59.8349 53.2245 59.301 53.5312C58.7671 53.8378 58.161 53.9996 57.5439 54H48.5949C46.5711 54 31.3987 54 31.3987 54H22.4497C21.8329 53.9988 21.2274 53.8365 20.6941 53.5296C20.1608 53.2226 19.7185 52.7817 19.4118 52.2514C19.1051 51.7211 18.9449 51.12 18.9472 50.5088C18.9495 49.8975 19.1143 49.2977 19.425 48.7697C21.4012 45.3893 22.4497 40.5829 22.4497 34.87C22.4497 30.2576 24.2984 25.8342 27.5891 22.5728C30.8798 19.3113 35.343 17.4791 39.9968 17.4791C44.6506 17.4791 49.1137 19.3113 52.4045 22.5728C55.6952 25.8342 57.5439 30.2576 57.5439 34.87C57.5439 40.5807 58.5923 45.3872 60.573 48.7697Z" fill="url(#paint1_linear_2424_9938)"/>
<path d="M33 58C33 57.4477 33.4477 57 34 57H46C46.5523 57 47 57.4477 47 58V58C47 61.866 43.866 65 40 65V65C36.134 65 33 61.866 33 58V58Z" fill="url(#paint2_linear_2424_9938)"/>
<defs>
<linearGradient id="paint0_linear_2424_9938" x1="40" y1="0" x2="40" y2="80" gradientUnits="userSpaceOnUse">
<stop stop-color="#6B7280"/>
<stop offset="1" stop-color="#1F2937"/>
</linearGradient>
<linearGradient id="paint1_linear_2424_9938" x1="40" y1="14" x2="40" y2="54" gradientUnits="userSpaceOnUse">
<stop stop-color="#F9FAFB"/>
<stop offset="1" stop-color="#9CA3AF"/>
</linearGradient>
<linearGradient id="paint2_linear_2424_9938" x1="40" y1="57" x2="40" y2="65" gradientUnits="userSpaceOnUse">
<stop stop-color="#FCD34D"/>
<stop offset="1" stop-color="#EA580C"/>
</linearGradient>
</defs>
</svg>
