<svg width="320" height="320" viewBox="0 0 320 320" fill="none" xmlns="http://www.w3.org/2000/svg">
<g clip-path="url(#clip0_937_6747)">
<path d="M160 0C281.326 0 320 38.6737 320 160C320 281.326 281.326 320 160 320C38.6736 320 0 281.326 0 160C0 38.6737 38.6736 0 160 0Z" fill="url(#paint0_linear_937_6747)"/>
<path d="M160 2C220.573 2 259.85 11.6833 284.083 35.9168C308.317 60.1504 318 99.4272 318 160C318 220.573 308.317 259.85 284.083 284.083C259.85 308.317 220.573 318 160 318C99.4272 318 60.1504 308.317 35.9168 284.083C11.6833 259.85 2 220.573 2 160C2 99.4272 11.6833 60.1504 35.9168 35.9168C60.1504 11.6833 99.4272 2 160 2Z" stroke="#0F172A" stroke-opacity="0.2" stroke-width="4"/>
<g clip-path="url(#clip1_937_6747)">
<g clip-path="url(#clip2_937_6747)">
<path fill-rule="evenodd" clip-rule="evenodd" d="M129.405 236.521C130.735 233.317 128.372 229.822 124.905 229.745C112.467 229.469 101.481 228.96 91.819 228.181C89.1091 227.963 86.6817 229.918 86.4512 232.627C84.6399 253.913 88.859 263.34 98.9117 266.033C110.061 269.021 119.138 261.247 129.405 236.521ZM154.011 156.88C153.536 158.699 151.88 160 150 160V160C134.197 160 120.264 160.255 108.027 160.816C104.632 160.972 102.034 157.798 102.912 154.514C103.019 154.114 103.126 153.713 103.234 153.311C124.822 72.7414 137.541 48.6233 155.852 53.5298C173.434 58.2409 173.171 83.5483 154.011 156.88Z" fill="url(#paint1_linear_937_6747)"/>
<path fill-rule="evenodd" clip-rule="evenodd" d="M168.912 266.033C187.223 270.94 199.941 246.822 221.53 166.252C221.619 165.92 221.708 165.589 221.796 165.258C222.679 161.953 220.043 158.766 216.627 158.952C204.642 159.602 190.928 159.931 175.307 159.99C173.037 159.999 171.043 161.565 170.472 163.761C151.59 236.263 151.416 261.345 168.912 266.033ZM195.129 83.5982C193.813 86.7923 196.159 90.2722 199.612 90.3676C212.177 90.7151 223.188 91.3188 232.791 92.2209C235.518 92.4771 237.987 90.5301 238.236 87.8023C240.236 65.905 236.04 56.2596 225.852 53.5298C214.619 50.5199 205.491 58.4323 195.129 83.5982Z" fill="url(#paint2_linear_937_6747)"/>
<path fill-rule="evenodd" clip-rule="evenodd" d="M166.673 145.739C166.142 147.902 167.772 150 170 150V150C253.412 150 280 143.957 280 125C280 106.854 255.637 100.541 180.392 100.034C177.894 100.017 175.74 101.852 175.351 104.32C173.508 115.986 170.613 129.69 166.673 145.739ZM105.136 109.243C106.236 105.809 103.482 102.335 99.9008 102.75C70.72 106.132 60 112.963 60 125C60 135.543 68.2231 142.091 89.8696 145.827C92.3594 146.257 94.7397 144.683 95.41 142.247C98.7898 129.962 102.013 118.992 105.136 109.243Z" fill="url(#paint3_linear_937_6747)"/>
<path fill-rule="evenodd" clip-rule="evenodd" d="M233.776 174.854C231.259 174.345 228.81 175.923 228.127 178.398C224.864 190.231 221.746 200.836 218.723 210.298C217.617 213.757 220.419 217.245 224.018 216.76C250.246 213.227 260 206.482 260 195C260 185.071 252.707 178.685 233.776 174.854ZM148.369 215.698C147.98 218.162 145.83 219.997 143.336 219.987C65.1651 219.663 40 213.443 40 195C40 176.043 66.5882 170 150 170C150.577 170 151.151 170 151.723 170.001C154.966 170.004 157.334 173.058 156.568 176.21C152.868 191.432 150.133 204.504 148.369 215.698Z" fill="url(#paint4_linear_937_6747)"/>
</g>
</g>
</g>
<defs>
<linearGradient id="paint0_linear_937_6747" x1="160" y1="0" x2="160" y2="320" gradientUnits="userSpaceOnUse">
<stop stop-color="#F8FAFC"/>
<stop offset="1" stop-color="#E2E8F0"/>
</linearGradient>
<linearGradient id="paint1_linear_937_6747" x1="127.382" y1="52.9233" x2="127.382" y2="266.64" gradientUnits="userSpaceOnUse">
<stop stop-color="#60A5FA"/>
<stop offset="1" stop-color="#2563EB"/>
</linearGradient>
<linearGradient id="paint2_linear_937_6747" x1="197.382" y1="52.9233" x2="197.382" y2="266.64" gradientUnits="userSpaceOnUse">
<stop stop-color="#60A5FA"/>
<stop offset="1" stop-color="#2563EB"/>
</linearGradient>
<linearGradient id="paint3_linear_937_6747" x1="170" y1="100.034" x2="170" y2="150" gradientUnits="userSpaceOnUse">
<stop stop-color="#34D399"/>
<stop offset="1" stop-color="#059669"/>
</linearGradient>
<linearGradient id="paint4_linear_937_6747" x1="150" y1="170" x2="150" y2="219.987" gradientUnits="userSpaceOnUse">
<stop stop-color="#34D399"/>
<stop offset="1" stop-color="#059669"/>
</linearGradient>
<clipPath id="clip0_937_6747">
<rect width="320" height="320" fill="white"/>
</clipPath>
<clipPath id="clip1_937_6747">
<rect width="240" height="240" fill="white" transform="translate(40 40)"/>
</clipPath>
<clipPath id="clip2_937_6747">
<rect width="240" height="240" fill="white" transform="translate(40 40)"/>
</clipPath>
</defs>
</svg>
