<svg width="320" height="320" viewBox="0 0 320 320" fill="none" xmlns="http://www.w3.org/2000/svg">
<g clip-path="url(#clip0_895_8037)">
<path d="M160 0C281.326 0 320 38.6737 320 160C320 281.326 281.326 320 160 320C38.6736 320 0 281.326 0 160C0 38.6737 38.6736 0 160 0Z" fill="url(#paint0_linear_895_8037)"/>
<path d="M160 2C220.573 2 259.85 11.6833 284.083 35.9168C308.317 60.1504 318 99.4272 318 160C318 220.573 308.317 259.85 284.083 284.083C259.85 308.317 220.573 318 160 318C99.4272 318 60.1504 308.317 35.9168 284.083C11.6833 259.85 2 220.573 2 160C2 99.4272 11.6833 60.1504 35.9168 35.9168C60.1504 11.6833 99.4272 2 160 2Z" stroke="#0F172A" stroke-opacity="0.2" stroke-width="4"/>
<g clip-path="url(#clip1_895_8037)">
<path fill-rule="evenodd" clip-rule="evenodd" d="M175 70C175 58.6257 171.374 55 160 55C148.626 55 145 58.6257 145 70C145 81.3743 148.626 85 160 85C171.374 85 175 81.3743 175 70ZM160 245C235.829 245 260 238.957 260 220C260 201.043 235.829 195 160 195C84.1711 195 60 201.043 60 220C60 238.957 84.1711 245 160 245Z" fill="url(#paint1_linear_895_8037)"/>
<path fill-rule="evenodd" clip-rule="evenodd" d="M136.865 83.8923C135.827 81.0596 132.945 79.0843 130.099 80.0863C95.0915 92.4135 70 125.777 70 165C70 172.812 70.9953 180.391 72.8659 187.618C73.554 190.277 76.352 191.719 79.0158 191.052C96.292 186.723 122.361 185 160 185C197.639 185 223.708 186.723 240.984 191.052C243.648 191.719 246.446 190.277 247.134 187.618C249.005 180.391 250 172.812 250 165C250 125.777 224.909 92.4135 189.901 80.0863C187.055 79.0843 184.173 81.0596 183.135 83.8923C180.138 92.0706 173.199 95.0001 160 95.0001C146.801 95.0001 139.862 92.0706 136.865 83.8923Z" fill="url(#paint2_linear_895_8037)"/>
</g>
</g>
<defs>
<linearGradient id="paint0_linear_895_8037" x1="160" y1="0" x2="160" y2="320" gradientUnits="userSpaceOnUse">
<stop stop-color="#F8FAFC"/>
<stop offset="1" stop-color="#E2E8F0"/>
</linearGradient>
<linearGradient id="paint1_linear_895_8037" x1="160" y1="55" x2="160" y2="245" gradientUnits="userSpaceOnUse">
<stop stop-color="#2DD4BF"/>
<stop offset="1" stop-color="#0D9488"/>
</linearGradient>
<linearGradient id="paint2_linear_895_8037" x1="160" y1="79.8223" x2="160" y2="191.214" gradientUnits="userSpaceOnUse">
<stop stop-color="#FB923C"/>
<stop offset="1" stop-color="#EA580C"/>
</linearGradient>
<clipPath id="clip0_895_8037">
<rect width="320" height="320" fill="white"/>
</clipPath>
<clipPath id="clip1_895_8037">
<rect width="240" height="240" fill="white" transform="translate(40 40)"/>
</clipPath>
</defs>
</svg>
