<?xml version="1.0" encoding="UTF-8"?>
<svg width="606px" height="606px" viewBox="0 0 606 606" version="1.1" xmlns="http://www.w3.org/2000/svg" xmlns:xlink="http://www.w3.org/1999/xlink">
    <title>Mobile Apps</title>
    <defs>
        <linearGradient id="linearGradient-1" y2="100%" x2="50%" y1="0%" x1="50%">
            <stop offset="0%" stop-opacity="0.2" stop-color="#FFFFFF"/>
            <stop offset="100%" stop-opacity="0.13887" stop-color="#000000"/>
        </linearGradient>    
        <path d="M552.268958,552.268958 C600,504.537813 600,431.458333 600,300 C600,168.541667 600,95.4621875 552.268958,47.7310417 C504.537813,0 431.458333,0 300,0 C168.541667,0 95.4621875,0 47.7310417,47.7310417 C0,95.4621875 0,168.541667 0,300 C0,431.458333 0,504.537813 47.7310417,552.268958 C95.4621875,600 168.541667,600 300,600 C431.458333,600 504.537813,600 552.268958,552.268958 Z" id="path-2"></path>
    </defs>
    <g id="Page-1" stroke="none" stroke-width="1" fill="none" fill-rule="evenodd">
        <g transform="translate(3.000000, 3.000000)">
            <g id="Squircle2-Copy-6">
                <g id="Shape">
                    <use fill="#FF4D63" xlink:href="#path-2"></use>
                    <use stroke="#000000" stroke-width="4.04" fill="url(#linearGradient-1)" xlink:href="#path-2"></use>
                </g>
            </g>
            <g transform="translate(172.000000, 96.000000) scale(0.8, 0.8)" fill="#FFFFFF">

<path fill="#fff" d="M272 0H48C21.5 0 0 21.5 0 48v416c0 26.5 21.5 48 48 48h224c26.5 0 48-21.5 48-48V48c0-26.5-21.5-48-48-48zM160 480c-17.7 0-32-14.3-32-32s14.3-32 32-32 32 14.3 32 32-14.3 32-32 32zm112-108c0 6.6-5.4 12-12 12H60c-6.6 0-12-5.4-12-12V60c0-6.6 5.4-12 12-12h200c6.6 0 12 5.4 12 12v312z"></path>

            </g>
        </g>
    </g>
</svg>
