<?xml version="1.0" encoding="UTF-8"?>
<svg width="606px" height="606px" viewBox="0 0 606 606" version="1.1" xmlns="http://www.w3.org/2000/svg" xmlns:xlink="http://www.w3.org/1999/xlink">
    <!-- Generator: Sketch 40.2 (33826) - http://www.bohemiancoding.com/sketch -->
    <title>una connect</title>
    <desc>Created with Sketch.</desc>
    <defs>
        <linearGradient x1="50%" y1="0%" x2="50%" y2="100%" id="linearGradient-1">
            <stop stop-color="#FFFFFF" stop-opacity="0.2" offset="0%"></stop>
            <stop stop-color="#000000" stop-opacity="0.2" offset="100%"></stop>
        </linearGradient>
        <path d="M552.268958,552.268958 C600,504.537813 600,431.458333 600,300 C600,168.541667 600,95.4621875 552.268958,47.7310417 C504.537813,0 431.458333,0 300,0 C168.541667,0 95.4621875,0 47.7310417,47.7310417 C0,95.4621875 0,168.541667 0,300 C0,431.458333 0,504.537813 47.7310417,552.268958 C95.4621875,600 168.541667,600 300,600 C431.458333,600 504.537813,600 552.268958,552.268958 Z" id="path-2"></path>
    </defs>
    <g id="Page-1" stroke="none" stroke-width="1" fill="none" fill-rule="evenodd">
        <g id="una-connect" transform="translate(3.000000, 3.000000)">
            <g id="Squircle2-Copy-6">
                <g id="Shape">
                    <use fill="#FFFFFF" xlink:href="#path-2"></use>
                    <use stroke="#000000" stroke-width="4.04" fill="url(#linearGradient-1)" xlink:href="#path-2"></use>
                </g>
            </g>
            <g id="logosvg-animated-copy" transform="translate(100.000000, 100.000000)">
                <g id="Group">
                    <g id="inner">
                        <g id="XMLID_5_">
                            <path d="M81.3186813,200 L81.3186813,200 C81.3186813,134.285714 134.505495,80.8791209 200.10989,80.8791209 C247.692308,80.8791209 289.010989,109.010989 307.692308,149.450549 L307.692308,32.1978022 C276.923077,12.0879121 239.67033,0.43956044 199.89011,0.43956044 C89.8901099,0.43956044 0.659340659,90 0.659340659,200 C0.659340659,265.384615 31.8681319,323.516484 81.3186813,360 L81.3186813,200 L81.3186813,200 Z" id="Shape" fill="#2AB191"></path>
                            <path d="M318.681319,40 L318.681319,200 C318.681319,265.714286 265.494505,319.120879 199.89011,319.120879 C152.307692,319.120879 110.989011,290.989011 92.3076923,250.549451 L92.3076923,367.802198 C123.076923,387.912088 160.32967,399.56044 200.10989,399.56044 C310.10989,399.56044 399.340659,310.10989 399.340659,200 C399.340659,134.615385 368.131868,76.4835165 318.681319,40 L318.681319,40 Z" id="Shape" fill="#4990E2"></path>
                        </g>
                    </g>
                    <g id="outer" transform="translate(0.000000, 1.098901)">
                        <path d="M75.7142857,30.4395604 C66.8131868,13.956044 35.1648352,-2.41758242 0,0.43956044 L0,136.923077 C13.1868132,93.7362637 40.2197802,56.5934066 75.7142857,30.4395604 L75.7142857,30.4395604 Z" id="Shape" fill="#4990E2"></path>
                        <path d="M324.285714,367.362637 C333.186813,383.846154 364.615385,400.21978 400,397.362637 L400,260.879121 C386.593407,304.065934 359.78022,341.208791 324.285714,367.362637 L324.285714,367.362637 Z" id="Shape" fill="#EE6666"></path>
                    </g>
                </g>
            </g>
        </g>
    </g>
</svg>