<?xml version="1.0"?>
<svg width="600" height="600" xmlns="http://www.w3.org/2000/svg" xmlns:svg="http://www.w3.org/2000/svg">
 <!-- Generator: Sketch 40.3 (33839) - http://www.bohemiancoding.com/sketch -->
 <title>Group 2 Copy 4</title>
 <desc>Created with Sketch.</desc>
 <defs>
  <linearGradient x1="50%" y1="0%" x2="50%" y2="100%" id="linearGradient-1">
   <stop stop-color="#FFFFFF" stop-opacity="0.2" offset="0%"/>
   <stop stop-color="#000000" stop-opacity="0.13887" offset="100%"/>
  </linearGradient>
  <path d="m285,135.71429c22.47768,0 40.71429,-18.23661 40.71429,-40.71429c0,-22.47768 -18.23661,-40.71429 -40.71429,-40.71429c-22.47768,0 -40.71429,18.23661 -40.71429,40.71429c0,22.47768 18.23661,40.71429 40.71429,40.71429l0,0z" id="path-2"/>
  <path d="m356.25,0l-332.5,0c-13.23214,0 -23.75,10.77232 -23.75,24.00446l0,277.70536c0,13.23214 10.51786,24.00447 23.75,24.00447l332.5,0c13.23214,0 23.75,-10.77233 23.75,-24.00447l0,-277.70536c0,-13.23214 -10.51786,-24.00446 -23.75,-24.00446l0,0zm-87.45089,167.69196c-2.54465,-2.96875 -6.44643,-5.25892 -10.85715,-5.25892c-4.32589,0 -7.37946,2.03571 -10.85714,4.83482l-15.86161,13.40178c-3.30803,2.375 -5.9375,3.98661 -9.75446,3.98661c-3.64732,0 -6.95536,-1.35714 -9.33036,-3.47768c-0.84821,-0.76339 -2.375,-2.20536 -3.64732,-3.47768l-45.63393,-49.36607c-3.39285,-3.90178 -8.48214,-6.36161 -14.16518,-6.36161c-5.68303,0 -10.94196,2.79911 -14.25,6.61608l-107.2991,129.4375l0,-220.95983c0.84821,-5.76785 5.34375,-9.9241 11.1116,-9.9241l303.40625,0c5.85268,0 10.60268,4.32589 10.94197,10.17857l0.25446,220.875l-84.05803,-90.50447l0,0z" id="path-5"/>
 </defs>
 <g class="layer">
  <title>Layer 1</title>
  <path d="m552.26896,552.26896c47.73104,-47.73115 47.73104,-120.81063 47.73104,-252.26896c0,-131.45833 0,-204.53781 -47.73104,-252.26896c-47.73115,-47.73104 -120.81063,-47.73104 -252.26896,-47.73104c-131.45833,0 -204.53781,0 -252.26896,47.73104c-47.73104,47.73115 -47.73104,120.81063 -47.73104,252.26896c0,131.45833 0,204.53781 47.73104,252.26896c47.73115,47.73104 120.81063,47.73104 252.26896,47.73104c131.45833,0 204.53781,0 252.26896,-47.73104l0,0z" id="path" fill="#2BAF92"/>
  <path d="m552.26896,552.26896c47.73104,-47.73115 47.73104,-120.81063 47.73104,-252.26896c0,-131.45833 0,-204.53781 -47.73104,-252.26896c-47.73115,-47.73104 -120.81063,-47.73104 -252.26896,-47.73104c-131.45833,0 -204.53781,0 -252.26896,47.73104c-47.73104,47.73115 -47.73104,120.81063 -47.73104,252.26896c0,131.45833 0,204.53781 47.73104,252.26896c47.73115,47.73104 120.81063,47.73104 252.26896,47.73104c131.45833,0 204.53781,0 252.26896,-47.73104l0,0z" id="path-copy" fill="url(#linearGradient-1)"/>
  <g id="svg_8"/>
  <g transform="matrix(14.207523743721726,0,0,13.787235608958325,23.159877294011494,858.2659898240728) " id="svg_29">
   <path id="svg_30" fill="#FFFFFF" d="m19.243109,-51.573915c-4.547,0 -8.245,3.699 -8.245,8.245c0,4.546 3.698,8.244 8.245,8.244c4.544,0 8.244,-3.697 8.244,-8.244c0,-4.545 -3.699,-8.245 -8.244,-8.245zm0,15.352c-3.92,0 -7.107,-3.188 -7.107,-7.107c0,-3.919 3.188,-7.107 7.107,-7.107c3.917,0 7.107,3.188 7.107,7.107c0,3.92 -3.189,7.107 -7.107,7.107z"/>
   <path id="svg_31" fill="#FFFFFF" d="m28.128109,-42.740915c0.006,0.292 -0.072,0.67 -0.125,1.052c-0.064,0.38 -0.186,0.746 -0.248,1.028c-0.102,0.271 -0.168,0.45 -0.168,0.45l3.443,1.287c0,0 0.092,-0.256 0.232,-0.64c0.1,-0.395 0.261,-0.919 0.354,-1.454c0.082,-0.538 0.178,-1.076 0.18,-1.484c0.021,-0.406 0.033,-0.678 0.033,-0.678l-3.676,-0.044c0,0.001 -0.01,0.194 -0.025,0.483z"/>
   <path id="svg_32" fill="#FFFFFF" d="m27.319109,-39.570915c-0.062,0.129 -0.135,0.281 -0.213,0.445c-0.084,0.158 -0.191,0.318 -0.29,0.484c-0.183,0.341 -0.442,0.63 -0.606,0.867c-0.08,0.121 -0.168,0.205 -0.225,0.27c-0.057,0.061 -0.09,0.098 -0.09,0.098l2.745,2.443c0,0 0.046,-0.051 0.126,-0.139c0.078,-0.09 0.197,-0.211 0.316,-0.377c0.237,-0.331 0.59,-0.748 0.856,-1.225c0.14,-0.233 0.287,-0.463 0.407,-0.688c0.111,-0.229 0.215,-0.444 0.304,-0.628c0.187,-0.364 0.274,-0.622 0.274,-0.622l-3.412,-1.37c0.003,0.001 -0.057,0.186 -0.192,0.442z"/>
   <path id="svg_33" fill="#FFFFFF" d="m27.964109,-34.254915c0.154,-0.136 0.271,-0.261 0.35,-0.35c0.08,-0.088 0.126,-0.139 0.126,-0.139l-2.687,-2.51c0,0 -0.521,0.575 -1.146,1.03c-0.299,0.245 -0.631,0.44 -0.88,0.589c-0.094,0.062 -0.174,0.107 -0.241,0.145c-0.078,0.021 -0.155,0.047 -0.229,0.084c-0.067,0.037 -0.135,0.08 -0.199,0.123c-0.07,0.033 -0.2,0.097 -0.376,0.182c-0.275,0.085 -0.625,0.253 -1,0.341c-0.372,0.099 -0.743,0.198 -1.032,0.226c-0.286,0.045 -0.477,0.074 -0.477,0.074l0.379,3.655c0,0 0.27,-0.04 0.672,-0.101c0.252,-0.027 0.552,-0.09 0.867,-0.166c1.596,1.351 2.803,6.471 2.803,6.471l1.469,-2.824l2.891,0c0,0 -0.987,-4.136 -2.104,-6.105c0.31,-0.254 0.586,-0.522 0.814,-0.725z"/>
   <path id="svg_34" fill="#FFFFFF" d="m18.418109,-34.453915c-0.382,-0.045 -0.764,-0.104 -1.047,-0.158c-0.279,-0.072 -0.466,-0.121 -0.466,-0.121l-0.002,0.008c-0.064,-0.025 -0.133,-0.045 -0.203,-0.059l0,0c0,0 -0.047,-0.014 -0.128,-0.035c-0.079,-0.028 -0.191,-0.07 -0.327,-0.121c-0.135,-0.049 -0.293,-0.105 -0.463,-0.167c-0.162,-0.079 -0.336,-0.162 -0.51,-0.246c-0.357,-0.147 -0.666,-0.386 -0.92,-0.522c-0.128,-0.068 -0.215,-0.154 -0.285,-0.201c-0.067,-0.051 -0.105,-0.08 -0.105,-0.08l-2.184,2.959c0,0 0.055,0.041 0.15,0.111c0.096,0.064 0.22,0.174 0.389,0.271c-1.144,1.947 -2.127,5.863 -2.127,5.863l2.887,0.146l1.324,2.895c0,0 2.229,-6.233 3.917,-6.801c0.041,-0.014 0.073,-0.037 0.108,-0.058c0.959,0.056 1.827,-0.017 1.827,-0.017l-0.293,-3.664c0.002,0.001 -0.771,0.064 -1.542,-0.003z"/>
   <path id="svg_35" fill="#FFFFFF" d="m11.012109,-33.806915c0.149,0.141 0.279,0.248 0.377,0.316c0.096,0.072 0.15,0.113 0.15,0.113l2.252,-2.906c0,0 -0.039,-0.028 -0.107,-0.078c-0.07,-0.047 -0.162,-0.125 -0.267,-0.227c-0.212,-0.195 -0.511,-0.441 -0.757,-0.74c-0.273,-0.274 -0.495,-0.592 -0.668,-0.822c-0.184,-0.225 -0.27,-0.399 -0.27,-0.399l-3.101,1.976c0,0 0.128,0.242 0.38,0.563c0.242,0.329 0.563,0.771 0.941,1.16c0.355,0.415 0.77,0.768 1.07,1.044z"/>
   <path id="svg_36" fill="#FFFFFF" d="m11.368109,-39.144915c-0.11,-0.268 -0.319,-0.596 -0.434,-0.966c-0.066,-0.18 -0.133,-0.36 -0.195,-0.53c-0.052,-0.173 -0.087,-0.337 -0.125,-0.477c-0.036,-0.14 -0.066,-0.256 -0.088,-0.337c-0.025,-0.081 -0.027,-0.13 -0.027,-0.13l-3.606,0.715c0,0 0.007,0.067 0.038,0.183c0.03,0.115 0.072,0.28 0.122,0.479c0.053,0.197 0.106,0.431 0.181,0.673c0.088,0.24 0.181,0.496 0.273,0.754c0.172,0.518 0.451,0.99 0.617,1.363c0.193,0.357 0.344,0.586 0.344,0.586l3.146,-1.899c0,0 -0.108,-0.161 -0.246,-0.414z"/>
   <path id="svg_37" fill="#FFFFFF" d="m10.394109,-42.268915c-0.046,-0.285 -0.038,-0.674 -0.069,-1.059c0.031,-0.385 0.023,-0.773 0.069,-1.06c0.044,-0.285 0.073,-0.476 0.073,-0.476l-3.621,-0.627c0,0 -0.041,0.269 -0.103,0.672c-0.06,0.403 -0.063,0.949 -0.094,1.491c0.031,0.542 0.034,1.086 0.095,1.49c0.062,0.403 0.103,0.673 0.103,0.673l3.621,-0.629c-0.001,0 -0.03,-0.191 -0.074,-0.475z"/>
   <path id="svg_38" fill="#FFFFFF" d="m10.526109,-45.202915c0.021,-0.081 0.052,-0.198 0.088,-0.337c0.038,-0.14 0.073,-0.305 0.125,-0.478c0.063,-0.169 0.129,-0.35 0.195,-0.53c0.115,-0.367 0.324,-0.696 0.434,-0.964c0.139,-0.254 0.246,-0.415 0.246,-0.415l-3.146,-1.9c0,0 -0.15,0.229 -0.344,0.588c-0.166,0.372 -0.446,0.846 -0.618,1.363c-0.092,0.257 -0.185,0.512 -0.273,0.753c-0.074,0.244 -0.128,0.477 -0.181,0.673c-0.049,0.199 -0.091,0.363 -0.122,0.478c-0.031,0.115 -0.038,0.183 -0.038,0.183l3.606,0.715c0.001,0 0.003,-0.047 0.028,-0.129z"/>
   <path id="svg_39" fill="#FFFFFF" d="m11.993109,-48.505915c0.173,-0.231 0.395,-0.548 0.668,-0.821c0.246,-0.299 0.545,-0.545 0.757,-0.742c0.104,-0.101 0.196,-0.178 0.267,-0.225c0.068,-0.05 0.107,-0.079 0.107,-0.079l-2.252,-2.906c0,0 -0.055,0.041 -0.15,0.112c-0.098,0.068 -0.228,0.177 -0.378,0.318c-0.3,0.274 -0.715,0.628 -1.068,1.044c-0.379,0.391 -0.699,0.831 -0.941,1.16c-0.252,0.321 -0.38,0.564 -0.38,0.564l3.101,1.975c-0.001,0 0.085,-0.176 0.269,-0.4z"/>
   <path id="svg_40" fill="#FFFFFF" d="m14.067109,-50.578915c0.07,-0.047 0.157,-0.133 0.285,-0.201c0.254,-0.137 0.563,-0.376 0.92,-0.522c0.174,-0.084 0.348,-0.168 0.51,-0.246c0.17,-0.062 0.328,-0.119 0.464,-0.168c0.135,-0.051 0.247,-0.092 0.327,-0.122c0.08,-0.021 0.127,-0.033 0.127,-0.033l-1.047,-3.525c0,0 -0.064,0.019 -0.18,0.05c-0.112,0.04 -0.272,0.098 -0.465,0.167c-0.191,0.072 -0.415,0.154 -0.654,0.243c-0.23,0.109 -0.477,0.227 -0.723,0.344c-0.5,0.219 -0.945,0.538 -1.299,0.741c-0.177,0.1 -0.305,0.214 -0.404,0.282c-0.095,0.07 -0.149,0.111 -0.149,0.111l2.183,2.958c0,0 0.038,-0.029 0.105,-0.079z"/>
   <path id="svg_41" fill="#FFFFFF" d="m17.371109,-52.044915c0.283,-0.054 0.665,-0.112 1.047,-0.158c0.772,-0.068 1.543,-0.005 1.543,-0.005l0.291,-3.664c0,0 -1.084,-0.092 -2.169,0.008c-0.54,0.06 -1.08,0.146 -1.479,0.224c-0.396,0.102 -0.66,0.169 -0.66,0.169l0.961,3.548c0,-0.002 0.186,-0.05 0.466,-0.122z"/>
   <path id="svg_42" fill="#FFFFFF" d="m20.649109,-52.121915c0.289,0.026 0.661,0.125 1.033,0.224c0.375,0.089 0.725,0.257 1,0.342c0.261,0.125 0.435,0.207 0.435,0.207l1.601,-3.309c0,0 -0.245,-0.115 -0.614,-0.289c-0.388,-0.132 -0.888,-0.356 -1.416,-0.487c-0.526,-0.143 -1.056,-0.273 -1.462,-0.318c-0.403,-0.061 -0.674,-0.101 -0.674,-0.101l-0.379,3.656c0,-0.001 0.191,0.03 0.476,0.075z"/>
   <path id="svg_43" fill="#FFFFFF" d="m23.728109,-51.023915c0.249,0.146 0.581,0.344 0.88,0.588c0.625,0.455 1.145,1.03 1.145,1.03l2.688,-2.509c0,0 -0.046,-0.051 -0.126,-0.139c-0.079,-0.089 -0.194,-0.214 -0.349,-0.348c-0.305,-0.271 -0.69,-0.656 -1.141,-0.967c-0.425,-0.34 -0.891,-0.623 -1.242,-0.831c-0.344,-0.22 -0.596,-0.329 -0.596,-0.329l-1.68,3.27c0,0 0.18,0.075 0.421,0.235z"/>
   <path id="svg_44" fill="#FFFFFF" d="m25.985109,-49.151915c0.057,0.063 0.145,0.147 0.225,0.268c0.164,0.237 0.424,0.527 0.606,0.868c0.099,0.166 0.206,0.325 0.291,0.485c0.077,0.162 0.149,0.314 0.212,0.445c0.135,0.256 0.195,0.438 0.195,0.438l3.412,-1.369c0,0 -0.09,-0.258 -0.275,-0.623c-0.088,-0.184 -0.191,-0.397 -0.304,-0.628c-0.12,-0.225 -0.269,-0.453 -0.407,-0.688c-0.268,-0.477 -0.619,-0.894 -0.857,-1.224c-0.119,-0.167 -0.238,-0.289 -0.315,-0.378c-0.08,-0.088 -0.126,-0.139 -0.126,-0.139l-2.746,2.446c-0.001,0.002 0.032,0.037 0.089,0.099z"/>
   <path id="svg_45" fill="#FFFFFF" d="m27.753109,-45.995915c0.063,0.281 0.185,0.648 0.248,1.028c0.053,0.381 0.133,0.76 0.127,1.052c0.016,0.289 0.024,0.481 0.024,0.481l3.677,-0.043c0,0 -0.014,-0.271 -0.033,-0.678c-0.002,-0.409 -0.099,-0.946 -0.181,-1.484c-0.093,-0.536 -0.254,-1.06 -0.354,-1.455c-0.141,-0.384 -0.231,-0.64 -0.231,-0.64l-3.442,1.287c-0.001,0 0.065,0.182 0.165,0.452z"/>
  </g>
  <g transform="matrix(39.0625,0,0,39.0625,0,0) " id="svg_46"/>
  <g transform="matrix(39.0625,0,0,39.0625,0,0) " id="svg_47"/>
  <g transform="matrix(39.0625,0,0,39.0625,0,0) " id="svg_48"/>
  <g transform="matrix(39.0625,0,0,39.0625,0,0) " id="svg_49"/>
  <g transform="matrix(39.0625,0,0,39.0625,0,0) " id="svg_50"/>
  <g transform="matrix(39.0625,0,0,39.0625,0,0) " id="svg_51"/>
  <g transform="matrix(39.0625,0,0,39.0625,0,0) " id="svg_52"/>
  <g transform="matrix(39.0625,0,0,39.0625,0,0) " id="svg_53"/>
  <g transform="matrix(39.0625,0,0,39.0625,0,0) " id="svg_54"/>
  <g transform="matrix(39.0625,0,0,39.0625,0,0) " id="svg_55"/>
  <g transform="matrix(39.0625,0,0,39.0625,0,0) " id="svg_56"/>
  <g transform="matrix(39.0625,0,0,39.0625,0,0) " id="svg_57"/>
  <g transform="matrix(39.0625,0,0,39.0625,0,0) " id="svg_58"/>
  <g transform="matrix(39.0625,0,0,39.0625,0,0) " id="svg_59"/>
  <g transform="matrix(39.0625,0,0,39.0625,0,0) " id="svg_60"/>
  <g id="svg_26"/>
 </g>
</svg>