<?xml version="1.0" encoding="UTF-8"?>
<svg width="64px" height="64px" viewBox="0 0 64 64" version="1.1" xmlns="http://www.w3.org/2000/svg" xmlns:xlink="http://www.w3.org/1999/xlink">
    <!-- Generator: Sketch 55 (78076) - https://sketchapp.com -->
    <title>developer</title>
    <desc>Created with Sketch.</desc>
    <defs>
        <path d="M32,64 C46.0222222,64 53.8173667,64 58.9086889,58.9086889 C64,53.8173667 64,46.0222222 64,32 C64,17.9777778 64,10.1826333 58.9086889,5.09131111 C53.8173667,0 46.0222222,0 32,0 C17.9777778,0 10.1826333,0 5.09131111,5.09131111 C0,10.1826333 0,17.9777778 0,32 C0,46.0222222 0,53.8173667 5.09131111,58.9086889 C10.1826333,64 17.9777778,64 32,64 Z" id="path-1"></path>
        <linearGradient x1="50%" y1="0%" x2="50%" y2="100%" id="linearGradient-3">
            <stop stop-color="#FDFEFF" offset="0%"></stop>
            <stop stop-color="#FBFCFD" stop-opacity="0.9" offset="100%"></stop>
        </linearGradient>
        <path d="M17.4314507,31.78719 L13.6192485,30.6871428 C13.2192797,30.5752736 12.9942973,30.1588715 13.1067885,29.7611144 L21.6373721,0.538390813 C21.7498633,0.140633624 22.1685806,-0.0831047957 22.5685493,0.0287644139 L26.3807515,1.12881164 C26.7807203,1.24068085 27.0057027,1.65708291 26.8932115,2.0548401 L18.3626279,31.2775636 C18.2438872,31.6753208 17.8314194,31.9052742 17.4314507,31.78719 L17.4314507,31.78719 Z M10.3070073,24.8140093 L13.0255449,21.9302697 C13.3130224,21.6257368 13.2942739,21.1409703 12.9755488,20.8612972 L7.31349113,15.9079772 L12.9755488,10.9546572 C13.2942739,10.6749842 13.3192719,10.1902176 13.0255449,9.88568477 L10.3070073,7.00194515 C10.0257792,6.70362726 9.55081634,6.68498239 9.24459027,6.97087037 L0.239043825,15.3610611 C-0.0796812749,15.653164 -0.0796812749,16.1565755 0.239043825,16.4486784 L9.24459027,24.8450841 C9.55081634,25.1309721 10.0257792,25.1185422 10.3070073,24.8140093 L10.3070073,24.8140093 Z M30.7554097,24.851299 L39.7609562,16.4548934 C40.0796813,16.1627904 40.0796813,15.659379 39.7609562,15.367276 L30.7554097,6.96465541 C30.4554332,6.68498239 29.9804703,6.6974123 29.6929927,6.99573019 L26.9744551,9.87946982 C26.6869776,10.1840027 26.7057261,10.6687692 27.0244512,10.9484423 L32.6865089,15.9079772 L27.0244512,20.8612972 C26.7057261,21.1409703 26.6807281,21.6257368 26.9744551,21.9302697 L29.6929927,24.8140093 C29.9742208,25.1185422 30.4491837,25.1309721 30.7554097,24.851299 Z" id="path-4"></path>
        <filter x="-5.0%" y="-3.1%" width="110.0%" height="112.6%" filterUnits="objectBoundingBox" id="filter-5">
            <feOffset dx="0" dy="1" in="SourceAlpha" result="shadowOffsetOuter1"></feOffset>
            <feGaussianBlur stdDeviation="0.5" in="shadowOffsetOuter1" result="shadowBlurOuter1"></feGaussianBlur>
            <feColorMatrix values="0 0 0 0 0   0 0 0 0 0   0 0 0 0 0  0 0 0 0.1 0" type="matrix" in="shadowBlurOuter1"></feColorMatrix>
        </filter>
    </defs>
    <g id="Page-1" stroke="none" stroke-width="1" fill="none" fill-rule="evenodd">
        <g id="Artboard" transform="translate(-340.000000, -184.000000)">
            <g id="developer" transform="translate(340.000000, 184.000000)">
                <mask id="mask-2" fill="white">
                    <use xlink:href="#path-1"></use>
                </mask>
                <use id="Path" fill="#738088" xlink:href="#path-1"></use>
                <g id="code" mask="url(#mask-2)" fill-rule="nonzero">
                    <g transform="translate(12.000000, 16.000000)" id="Shape">
                        <g>
                            <use fill="black" fill-opacity="1" filter="url(#filter-5)" xlink:href="#path-4"></use>
                            <use fill="url(#linearGradient-3)" xlink:href="#path-4"></use>
                        </g>
                    </g>
                </g>
            </g>
        </g>
    </g>
</svg>