<?xml version="1.0" encoding="UTF-8"?>
<svg width="600px" height="600px" viewBox="0 0 600 600" version="1.1" xmlns="http://www.w3.org/2000/svg" xmlns:xlink="http://www.w3.org/1999/xlink">
    <!-- Generator: Sketch 40.3 (33839) - http://www.bohemiancoding.com/sketch -->
    <title>Group 2 Copy 14</title>
    <desc>Created with Sketch.</desc>
    <defs>
        <linearGradient x1="50%" y1="0%" x2="50%" y2="100%" id="linearGradient-1">
            <stop stop-color="#FFFFFF" stop-opacity="0.2" offset="0%"></stop>
            <stop stop-color="#000000" stop-opacity="0.138870018" offset="100%"></stop>
        </linearGradient>
        <linearGradient x1="50%" y1="0%" x2="50%" y2="100%" id="linearGradient-2">
            <stop stop-color="#FFFFFF" offset="0%"></stop>
            <stop stop-color="#F6F6F6" offset="35.2427758%"></stop>
            <stop stop-color="#E5E5E5" offset="100%"></stop>
        </linearGradient>
        <path d="M275,152.027734 L275,110 C275,49.2490625 225.750938,0 165,0 C104.249062,0 55,49.2490625 55,110 L55,152.028594 C21.2480469,182.240781 0,226.136797 0,275 C0,366.127266 73.8735937,440 165,440 C256.127266,440 330,366.127266 330,275 C330,226.136797 308.751953,182.240781 275,152.027734 L275,152.027734 Z M82.5,110 C82.5,64.5089844 119.508984,27.5 165,27.5 C210.491016,27.5 247.5,64.5089844 247.5,110 L247.5,132.079063 C223.230391,118.039453 195.054922,110 165,110 C134.945078,110 106.769609,118.039453 82.5,132.079922 L82.5,110 L82.5,110 Z M165,412.5 C89.0604688,412.5 27.5,350.939531 27.5,275 C27.5,199.060469 89.0604688,137.5 165,137.5 C240.939531,137.5 302.5,199.060469 302.5,275 C302.5,350.939531 240.939531,412.5 165,412.5 L165,412.5 Z" id="path-3"></path>
        <filter x="-50%" y="-50%" width="200%" height="200%" filterUnits="objectBoundingBox" id="filter-4">
            <feMorphology radius="1" operator="dilate" in="SourceAlpha" result="shadowSpreadOuter1"></feMorphology>
            <feOffset dx="0" dy="2" in="shadowSpreadOuter1" result="shadowOffsetOuter1"></feOffset>
            <feColorMatrix values="0 0 0 0 0   0 0 0 0 0   0 0 0 0 0  0 0 0 0.08 0" type="matrix" in="shadowOffsetOuter1"></feColorMatrix>
        </filter>
        <path d="M165,151.25 C96.6547656,151.25 41.25,206.655625 41.25,275 C41.25,343.344375 96.6547656,398.75 165,398.75 C233.345234,398.75 288.75,343.344375 288.75,275 C288.75,206.655625 233.345234,151.25 165,151.25 L165,151.25 Z M270.301797,303.777891 L249.573672,296.992266 L246.199766,307.468047 L266.963125,314.267422 C263.816953,322.668672 259.691094,330.565469 254.715313,337.822031 L245.640312,331.173047 L242.42625,335.628047 L251.496953,342.274453 C246.229844,349.189844 240.162656,355.443516 233.426016,360.907422 L220.550859,343.043594 L211.713047,349.516406 L224.583047,367.370781 C217.296406,372.145469 209.409062,376.067656 201.037891,378.999844 L197.634766,368.434687 L192.436406,370.137969 L196.667969,380.675625 C188.491016,383.083594 179.609375,384.567734 171.875,385 L171.875,374.121172 L171.875,368.671875 L158.125,368.671875 L158.125,374.121172 L158.125,385 C148.671875,384.565156 141.191016,383.071562 132.994297,380.647266 L136.387109,371.017109 L131.016016,369.207266 L127.974688,378.852891 C119.761641,375.937031 112.049609,372.068125 104.888438,367.3725 L117.776484,349.519844 L108.950703,343.045313 L96.0798438,360.909141 C89.3689844,355.466719 83.3258594,349.243125 78.0733594,342.36125 L86.2855469,336.347344 L82.8729688,331.614766 L74.655625,337.630391 C69.7417188,330.427969 65.6588281,322.593906 62.5444531,314.267422 L83.3086719,307.466328 L79.9347656,296.992266 L59.2057813,303.77875 C57.0659375,295.673984 55.8078125,287.890625 55.5465625,278.438359 L60.15625,278.438359 L60.15625,272.590313 L55.0060156,272.588594 C55.1976563,263.474063 55.5835156,254.644844 57.8127344,246.22125 L79.2292187,253.010312 L82.9649219,242.53625 L62.3691406,235.735156 C65.45,227.510938 69.5535156,219.765391 74.3875,212.636016 L83.2725781,219.109688 L86.5029687,214.654687 L77.6582812,208.170703 C83.0044531,201.078281 89.1945312,194.6725 96.078125,189.095156 L108.955,206.958984 L117.792812,200.482734 L104.923672,182.630078 C112.146719,177.891484 119.973047,173.993359 128.264297,171.072344 L131.663125,181.597109 L136.857188,179.895547 L132.886875,169.384531 C141.117969,166.940469 148.671875,165.436563 158.125,165 L158.125,175.879687 L158.125,181.328125 L171.875,181.328125 L171.875,175.879687 L171.875,165 C179.609375,165.427969 188.339766,166.888906 196.440234,169.254766 L192.34875,180.667266 L197.661406,182.477109 L201.248437,171.037109 C209.580937,173.965859 217.385781,177.875156 224.630312,182.630937 L211.737969,200.484453 L220.561172,206.959844 L233.430312,189.096016 C240.249453,194.623516 246.380234,200.965703 251.696328,207.9825 L241.98625,215.087812 L245.402266,219.824687 L255.092578,212.72625 C259.900781,219.834141 263.898594,227.544453 266.965703,235.736016 L246.198906,242.537109 L249.574531,253.011172 L270.302656,246.222109 C272.525,254.645703 274.815234,263.474062 275.003437,272.590312 L268.125,272.586875 L268.125,278.4375 L273.959297,278.4375 C273.698906,287.889766 272.439062,295.673984 270.301797,303.777891 L270.301797,303.777891 Z" id="path-5"></path>
        <filter x="-50%" y="-50%" width="200%" height="200%" filterUnits="objectBoundingBox" id="filter-6">
            <feMorphology radius="1" operator="dilate" in="SourceAlpha" result="shadowSpreadOuter1"></feMorphology>
            <feOffset dx="0" dy="2" in="shadowSpreadOuter1" result="shadowOffsetOuter1"></feOffset>
            <feColorMatrix values="0 0 0 0 0   0 0 0 0 0   0 0 0 0 0  0 0 0 0.08 0" type="matrix" in="shadowOffsetOuter1"></feColorMatrix>
        </filter>
        <circle id="path-7" cx="165" cy="275" r="69.609375"></circle>
        <filter x="-50%" y="-50%" width="200%" height="200%" filterUnits="objectBoundingBox" id="filter-8">
            <feMorphology radius="1" operator="dilate" in="SourceAlpha" result="shadowSpreadOuter1"></feMorphology>
            <feOffset dx="0" dy="2" in="shadowSpreadOuter1" result="shadowOffsetOuter1"></feOffset>
            <feColorMatrix values="0 0 0 0 0   0 0 0 0 0   0 0 0 0 0  0 0 0 0.08 0" type="matrix" in="shadowOffsetOuter1"></feColorMatrix>
        </filter>
    </defs>
    <g id="Page-1" stroke="none" stroke-width="1" fill="none" fill-rule="evenodd">
        <g id="Group-2-Copy-14">
            <path d="M552.268958,552.268958 C600,504.537813 600,431.458333 600,300 C600,168.541667 600,95.4621875 552.268958,47.7310417 C504.537813,0 431.458333,0 300,0 C168.541667,0 95.4621875,0 47.7310417,47.7310417 C0,95.4621875 0,168.541667 0,300 C0,431.458333 0,504.537813 47.7310417,552.268958 C95.4621875,600 168.541667,600 300,600 C431.458333,600 504.537813,600 552.268958,552.268958 L552.268958,552.268958 Z" id="path" fill="#4990E2"></path>
            <path d="M552.268958,552.268958 C600,504.537813 600,431.458333 600,300 C600,168.541667 600,95.4621875 552.268958,47.7310417 C504.537813,0 431.458333,0 300,0 C168.541667,0 95.4621875,0 47.7310417,47.7310417 C0,95.4621875 0,168.541667 0,300 C0,431.458333 0,504.537813 47.7310417,552.268958 C95.4621875,600 168.541667,600 300,600 C431.458333,600 504.537813,600 552.268958,552.268958 L552.268958,552.268958 Z" id="path-copy" fill="url(#linearGradient-1)"></path>
            <g id="lock-combination" transform="translate(135.000000, 75.000000)">
                <g id="Layer_1">
                    <g id="Group">
                        <g id="Shape">
                            <use fill="black" fill-opacity="1" filter="url(#filter-4)" xlink:href="#path-3"></use>
                            <use fill="url(#linearGradient-2)" fill-rule="evenodd" xlink:href="#path-3"></use>
                        </g>
                        <g id="Shape" opacity="0.5">
                            <use fill="black" fill-opacity="1" filter="url(#filter-6)" xlink:href="#path-5"></use>
                            <use fill="url(#linearGradient-2)" fill-rule="evenodd" xlink:href="#path-5"></use>
                        </g>
                        <g id="Oval" opacity="0.5">
                            <use fill="black" fill-opacity="1" filter="url(#filter-8)" xlink:href="#path-7"></use>
                            <use fill="url(#linearGradient-2)" fill-rule="evenodd" xlink:href="#path-7"></use>
                        </g>
                    </g>
                </g>
            </g>
        </g>
    </g>
</svg>