<?xml version="1.0" encoding="UTF-8"?>
<svg width="600px" height="600px" viewBox="0 0 600 600" version="1.1" xmlns="http://www.w3.org/2000/svg" xmlns:xlink="http://www.w3.org/1999/xlink">
    <!-- Generator: Sketch 40.3 (33839) - http://www.bohemiancoding.com/sketch -->
    <title>Group 2 Copy 7</title>
    <desc>Created with Sketch.</desc>
    <defs>
        <linearGradient x1="50%" y1="0%" x2="50%" y2="100%" id="linearGradient-1">
            <stop stop-color="#FFFFFF" stop-opacity="0.2" offset="0%"></stop>
            <stop stop-color="#000000" stop-opacity="0.138870018" offset="100%"></stop>
        </linearGradient>
        <linearGradient x1="50%" y1="0%" x2="50%" y2="100%" id="linearGradient-2">
            <stop stop-color="#FFFFFF" offset="0%"></stop>
            <stop stop-color="#F6F6F6" offset="35.2427758%"></stop>
            <stop stop-color="#E5E5E5" offset="100%"></stop>
        </linearGradient>
        <path d="M250.742188,94.4125 L220.0625,208.796875 L302.043438,290.828125 C321.736406,268.468594 332.5,240.062813 332.5,210 C332.5,177.279375 319.757813,146.516562 296.619531,123.379375 C283.449688,110.209531 267.809063,100.413906 250.742188,94.4125 L250.742188,94.4125 Z" id="path-3"></path>
        <filter x="-50%" y="-50%" width="200%" height="200%" filterUnits="objectBoundingBox" id="filter-4">
            <feMorphology radius="1" operator="dilate" in="SourceAlpha" result="shadowSpreadOuter1"></feMorphology>
            <feOffset dx="0" dy="2" in="shadowSpreadOuter1" result="shadowOffsetOuter1"></feOffset>
            <feColorMatrix values="0 0 0 0 0   0 0 0 0 0   0 0 0 0 0  0 0 0 0.08 0" type="matrix" in="shadowOffsetOuter1"></feColorMatrix>
        </filter>
        <path d="M234.136875,89.8635938 C226.275,88.300625 218.19875,87.5 210,87.5 C177.279375,87.5 146.516563,100.242188 123.379375,123.380469 C100.242188,146.516563 87.5,177.279375 87.5,210 C87.5,218.168125 88.2951563,226.21375 89.8460938,234.049375 L203.765625,203.546875 L234.136875,89.8635938 L234.136875,89.8635938 Z" id="path-5"></path>
        <filter x="-50%" y="-50%" width="200%" height="200%" filterUnits="objectBoundingBox" id="filter-6">
            <feMorphology radius="1" operator="dilate" in="SourceAlpha" result="shadowSpreadOuter1"></feMorphology>
            <feOffset dx="0" dy="2" in="shadowSpreadOuter1" result="shadowOffsetOuter1"></feOffset>
            <feColorMatrix values="0 0 0 0 0   0 0 0 0 0   0 0 0 0 0  0 0 0 0.08 0" type="matrix" in="shadowOffsetOuter1"></feColorMatrix>
        </filter>
        <path d="M94.5798437,251.231094 C100.595469,268.107656 110.334219,283.575469 123.379375,296.619531 C146.516562,319.757813 177.278281,332.5 210,332.5 C239.541094,332.5 267.485312,322.110469 289.663281,303.066094 L207.703125,221.15625 L94.5798437,251.231094 L94.5798437,251.231094 Z" id="path-7"></path>
        <filter x="-50%" y="-50%" width="200%" height="200%" filterUnits="objectBoundingBox" id="filter-8">
            <feMorphology radius="1" operator="dilate" in="SourceAlpha" result="shadowSpreadOuter1"></feMorphology>
            <feOffset dx="0" dy="2" in="shadowSpreadOuter1" result="shadowOffsetOuter1"></feOffset>
            <feColorMatrix values="0 0 0 0 0   0 0 0 0 0   0 0 0 0 0  0 0 0 0.08 0" type="matrix" in="shadowOffsetOuter1"></feColorMatrix>
        </filter>
        <path d="M420,201.325702 C420,196.902031 416.541617,192.41184 412.255667,191.291398 L383.587969,183.797031 L380.743125,169.355156 L404.54191,151.325382 C408.066676,148.655047 409.559091,143.17687 407.880211,139.101418 L400.627445,121.495457 C398.946372,117.414683 394.044748,114.600676 389.652119,115.213999 L359.967344,119.35875 L351.766406,107.761719 L367.027677,82.1396883 C369.287977,78.3448876 368.591809,72.7388593 365.466332,69.6118605 L352.062106,56.2011082 C348.939498,53.0769807 343.301551,52.3352004 339.485756,54.5348658 L313.386719,69.58 L301.686875,61.5934375 L306.284414,31.2130575 C306.945581,26.844091 304.181101,21.9255102 300.101409,20.2236095 L282.604841,12.9246718 C278.528895,11.2243338 273.055587,12.6894539 270.373867,16.2049731 L251.60625,40.8078125 L238.156406,37.9629688 L230.585364,7.75104475 C229.512609,3.47026094 225.062843,0 220.637459,0 L201.658322,0 C197.237001,0 192.742382,3.45571455 191.617179,7.72664052 L183.593594,38.1817187 L170.361406,40.8067187 L151.609753,15.4997518 C148.982309,11.9537893 143.540691,10.4561642 139.467442,12.1497728 L121.870996,19.4661647 C117.792427,21.1619849 114.963483,26.0889362 115.55145,30.4639551 L119.735,61.5934375 L106.941406,69.470625 L79.580122,53.1152364 C75.7890513,50.8490988 70.1872779,51.5418776 67.0618007,54.6690147 L53.6575743,68.0803603 C50.5349671,71.204626 49.8369295,76.8107538 52.1018879,80.6077376 L68.560625,108.199219 L61.2346875,119.685781 L30.3429539,115.332736 C25.9658466,114.715945 21.0525289,117.52938 19.3736486,121.604832 L12.1208826,139.210793 C10.4398099,143.291567 11.9372094,148.74841 15.4721106,151.40402 L40.67875,170.340625 L38.0548438,183.687656 L7.74683443,191.443015 C3.46837591,192.537808 0,197.007228 0,201.434826 L0,220.423455 C0,224.846987 3.46769994,229.322935 7.74680176,230.421143 L37.9421875,238.170625 L40.5671875,251.845781 L15.9084046,270.349856 C12.3753537,273.001075 10.8874121,278.452564 12.5884828,282.53447 L19.8838609,300.04053 C21.5833697,304.118688 26.5100748,306.917357 30.8793442,306.292765 L61.2325,301.95375 L68.9970312,314.316406 L53.4611705,340.88693 C51.2311058,344.700944 51.9518966,350.322547 55.077512,353.449546 L68.4823317,366.860298 C71.6050772,369.984426 77.1988024,370.670681 80.9888681,368.385494 L107.159062,352.606406 L119.404687,360.592969 L115.525332,390.184913 C114.950773,394.567686 117.796652,399.486156 121.880038,401.169904 L139.456212,408.417284 C143.540379,410.101354 148.980565,408.591496 151.61462,405.034915 L169.377031,381.051562 L184.028906,383.785937 L191.600047,412.275594 C192.733758,416.541666 197.232938,420 201.658322,420 L220.637459,420 C225.05878,420 229.513208,416.527748 230.589985,412.23141 L237.718906,383.787031 L252.590625,380.942188 L270.369113,404.229309 C273.050773,407.741877 278.536452,409.223732 282.619975,407.539847 L300.196744,400.291872 C304.281048,398.607664 307.067874,393.707168 306.419316,389.332971 L302.125469,360.373125 L313.277344,352.279375 L338.077419,366.739242 C341.893665,368.964333 347.515959,368.238279 350.641575,365.111142 L364.046394,351.699796 C367.16914,348.57553 367.905831,342.953672 365.680708,339.123864 L351.331094,314.425781 L359.967344,301.954844 L388.997637,306.080305 C393.376489,306.702579 398.302524,303.904779 400.003733,299.822874 L407.299704,282.316814 C408.999351,278.238656 407.525367,272.782019 403.996709,270.120959 L380.634844,252.503125 L383.587969,237.735313 L412.255667,230.326197 C416.532744,229.220794 420,224.74266 420,220.314923 L420,201.325702 Z M210,350 C132.680625,350 70,287.320469 70,210 C70,132.680625 132.680625,70 210,70 C287.319375,70 350,132.680625 350,210 C350,287.320469 287.319375,350 210,350 L210,350 Z" id="path-9"></path>
        <filter x="-50%" y="-50%" width="200%" height="200%" filterUnits="objectBoundingBox" id="filter-10">
            <feMorphology radius="1" operator="dilate" in="SourceAlpha" result="shadowSpreadOuter1"></feMorphology>
            <feOffset dx="0" dy="2" in="shadowSpreadOuter1" result="shadowOffsetOuter1"></feOffset>
            <feColorMatrix values="0 0 0 0 0   0 0 0 0 0   0 0 0 0 0  0 0 0 0.2 0" type="matrix" in="shadowOffsetOuter1"></feColorMatrix>
        </filter>
    </defs>
    <g id="Page-1" stroke="none" stroke-width="1" fill="none" fill-rule="evenodd">
        <g id="Group-2-Copy-7">
            <path d="M552.268958,552.268958 C600,504.537813 600,431.458333 600,300 C600,168.541667 600,95.4621875 552.268958,47.7310417 C504.537813,0 431.458333,0 300,0 C168.541667,0 95.4621875,0 47.7310417,47.7310417 C0,95.4621875 0,168.541667 0,300 C0,431.458333 0,504.537813 47.7310417,552.268958 C95.4621875,600 168.541667,600 300,600 C431.458333,600 504.537813,600 552.268958,552.268958 L552.268958,552.268958 Z" id="path" fill="#FF4D63"></path>
            <path d="M552.268958,552.268958 C600,504.537813 600,431.458333 600,300 C600,168.541667 600,95.4621875 552.268958,47.7310417 C504.537813,0 431.458333,0 300,0 C168.541667,0 95.4621875,0 47.7310417,47.7310417 C0,95.4621875 0,168.541667 0,300 C0,431.458333 0,504.537813 47.7310417,552.268958 C95.4621875,600 168.541667,600 300,600 C431.458333,600 504.537813,600 552.268958,552.268958 L552.268958,552.268958 Z" id="path-copy" fill="url(#linearGradient-1)"></path>
            <g id="ios-cog" transform="translate(90.000000, 89.000000)">
                <g id="Group">
                    <g id="Shape">
                        <use fill="black" fill-opacity="1" filter="url(#filter-4)" xlink:href="#path-3"></use>
                        <use fill="url(#linearGradient-2)" fill-rule="evenodd" xlink:href="#path-3"></use>
                    </g>
                    <g id="Shape">
                        <use fill="black" fill-opacity="1" filter="url(#filter-6)" xlink:href="#path-5"></use>
                        <use fill="url(#linearGradient-2)" fill-rule="evenodd" xlink:href="#path-5"></use>
                    </g>
                    <g id="Shape">
                        <use fill="black" fill-opacity="1" filter="url(#filter-8)" xlink:href="#path-7"></use>
                        <use fill="url(#linearGradient-2)" fill-rule="evenodd" xlink:href="#path-7"></use>
                    </g>
                    <g id="Shape" opacity="0.496773098">
                        <use fill="black" fill-opacity="1" filter="url(#filter-10)" xlink:href="#path-9"></use>
                        <use fill="#FFFFFF" fill-rule="evenodd" xlink:href="#path-9"></use>
                    </g>
                </g>
            </g>
        </g>
    </g>
</svg>