<svg width="240" height="240" viewBox="0 0 240 240" fill="none" xmlns="http://www.w3.org/2000/svg">
<path fill-rule="evenodd" clip-rule="evenodd" d="M111.066 111.066C137.875 84.2563 137.875 67.1648 111.066 40.3552C84.2563 13.5456 67.1648 13.5457 40.3552 40.3552C13.5457 67.1648 13.5456 84.2563 40.3552 111.066V111.066C41.8025 112.513 44.1171 112.563 45.7148 111.284C67.3387 93.9711 84.3592 93.9688 105.982 111.277C107.498 112.491 109.693 112.439 111.066 111.066V111.066Z" fill="url(#paint0_linear_435_2166)"/>
<path fill-rule="evenodd" clip-rule="evenodd" d="M129.161 105.315C128.02 106.728 128.07 108.781 129.355 110.066V110.066C156.165 136.875 173.256 136.875 200.066 110.066C226.875 83.2563 226.875 66.1648 200.066 39.3552C173.256 12.5456 156.165 12.5457 129.355 39.3552V39.3552C127.996 40.7141 127.947 42.8874 129.154 44.3829C146.823 66.2759 146.825 83.4227 129.161 105.315Z" fill="url(#paint1_linear_435_2166)"/>
<path fill-rule="evenodd" clip-rule="evenodd" d="M135.555 129.087C133.695 127.629 131.026 127.684 129.355 129.355V129.355C102.546 156.165 102.546 173.256 129.355 200.066C156.165 226.876 173.256 226.876 200.066 200.066C226.875 173.256 226.875 156.165 200.066 129.355V129.355C198.469 127.758 195.918 127.701 194.14 129.095C173.195 145.515 156.502 145.512 135.555 129.087Z" fill="url(#paint2_linear_435_2166)"/>
<path fill-rule="evenodd" clip-rule="evenodd" d="M110.066 200.066C111.752 198.38 111.812 195.688 110.348 193.805C94.2779 173.128 94.2805 156.569 110.356 135.891C111.884 133.925 111.826 131.116 110.066 129.355V129.355C83.2563 102.546 66.1648 102.546 39.3552 129.355C12.5457 156.165 12.5456 173.256 39.3552 200.066C66.1648 226.875 83.2563 226.875 110.066 200.066V200.066Z" fill="url(#paint3_linear_435_2166)"/>
<defs>
<linearGradient id="paint0_linear_435_2166" x1="75.7106" y1="20.248" x2="75.7106" y2="112.2" gradientUnits="userSpaceOnUse">
<stop stop-color="#2DD4BF"/>
<stop offset="1" stop-color="#0D9488"/>
</linearGradient>
<linearGradient id="paint1_linear_435_2166" x1="174.231" y1="19.248" x2="174.231" y2="130.173" gradientUnits="userSpaceOnUse">
<stop stop-color="#C084FC"/>
<stop offset="1" stop-color="#9333EA"/>
</linearGradient>
<linearGradient id="paint2_linear_435_2166" x1="164.711" y1="128.045" x2="164.711" y2="220.173" gradientUnits="userSpaceOnUse">
<stop stop-color="#FB923C"/>
<stop offset="1" stop-color="#EA580C"/>
</linearGradient>
<linearGradient id="paint3_linear_435_2166" x1="65.3479" y1="109.248" x2="65.3479" y2="220.173" gradientUnits="userSpaceOnUse">
<stop stop-color="#7DD3FC"/>
<stop offset="1" stop-color="#0EA5E9"/>
</linearGradient>
</defs>
</svg>
