<?xml version="1.0" encoding="UTF-8"?>
<svg width="606px" height="606px" viewBox="0 0 606 606" version="1.1" xmlns="http://www.w3.org/2000/svg" xmlns:xlink="http://www.w3.org/1999/xlink">
    <!-- Generator: Sketch 40.2 (33826) - http://www.bohemiancoding.com/sketch -->
    <title>datafox</title>
    <desc>Created with Sketch.</desc>
    <defs>
        <linearGradient x1="50%" y1="0%" x2="50%" y2="100%" id="linearGradient-1">
            <stop stop-color="#FFFFFF" stop-opacity="0.2" offset="0%"></stop>
            <stop stop-color="#000000" stop-opacity="0.2" offset="100%"></stop>
        </linearGradient>
        <path d="M552.268958,552.268958 C600,504.537813 600,431.458333 600,300 C600,168.541667 600,95.4621875 552.268958,47.7310417 C504.537813,0 431.458333,0 300,0 C168.541667,0 95.4621875,0 47.7310417,47.7310417 C0,95.4621875 0,168.541667 0,300 C0,431.458333 0,504.537813 47.7310417,552.268958 C95.4621875,600 168.541667,600 300,600 C431.458333,600 504.537813,600 552.268958,552.268958 Z" id="path-2"></path>
    </defs>
    <g id="Page-1" stroke="none" stroke-width="1" fill="none" fill-rule="evenodd">
        <g id="datafox" transform="translate(3.000000, 3.000000)">
            <g id="Squircle2-Copy-4">
                <g id="Shape">
                    <use fill="#4A4A4A" xlink:href="#path-2"></use>
                    <use stroke="#000000" stroke-width="4.04" fill="url(#linearGradient-1)" xlink:href="#path-2"></use>
                </g>
            </g>
            <g id="DataFox-HD" transform="translate(149.000000, 100.000000)" fill="#FFFFFF">
                <g id="Group-10">
                    <path d="M273.837813,147.479466 C273.75059,141.769463 274.960814,136.124841 274.650081,130.431183 C268.887886,134.522989 267.443249,142.216238 261.582928,146.231765 C261.88821,136.228362 268.484478,126.355723 263.970668,116.439496 C255.531805,120.711102 258.726362,132.904792 250.641845,137.694002 C249.126338,128.535114 249.311688,119.207322 249.73145,109.961258 C251.524981,82.7243243 261.937273,57.1273824 272.627589,32.3531603 C278.793192,53.2480672 286.648748,74.0122106 287.848069,95.9804673 C288.556759,108.975083 290.072265,122.61262 285.438523,135.089631 C283.503254,140.685216 278.978541,144.826058 273.837813,147.479466 L273.837813,147.479466 Z M221.847225,274.892086 C212.623352,285.805384 199.392655,292.790331 185.420559,295.312975 C183.261781,275.48597 190.817506,255.925939 201.943939,239.863831 C210.966108,227.032669 223.313668,215.432863 238.992071,211.782384 C241.379811,233.881404 236.729715,257.772973 221.847225,274.892086 L221.847225,274.892086 Z M117.053781,295.416496 C104.155623,292.888403 91.7317423,287.004049 82.6986707,277.294864 C66.1589365,260.159406 60.8546645,234.916615 63.329628,211.793281 C78.3811132,215.089609 90.2652992,226.024701 99.2111475,238.033143 C111.1553,254.487542 119.21256,274.794013 117.053781,295.416496 L117.053781,295.416496 Z M51.8324958,137.770281 C44.3530906,132.817616 45.8031794,122.54179 40.1064021,116.248799 C36.1540925,119.545128 36.4920832,125.026295 37.4787977,129.575773 C38.6944736,135.12777 40.5752278,140.570798 40.8423494,146.302595 C35.0801546,142.161753 33.324784,134.828104 28.0641237,130.240487 C27.5462349,135.988629 28.6474301,141.682287 28.6092699,147.414084 C21.8003945,144.433768 17.1502978,138.020911 15.569374,130.861613 C12.7019053,118.662474 14.0048045,105.98387 14.7625577,93.6212771 C16.2508067,72.4593949 23.9482703,52.490729 29.7322709,32.2768817 C40.0954992,56.0049962 49.9517415,80.5122429 52.4158021,106.528718 C53.2226184,116.908065 53.358905,127.423624 51.8324958,137.770281 L51.8324958,137.770281 Z M292.601744,218.031786 C298.718283,203.473458 302.468889,187.814536 302.65969,171.964919 C297.25184,176.803166 294.089993,183.428513 289.352672,188.833402 C290.606509,180.993044 292.77619,173.343383 294.433435,165.573856 C299.285235,144.700743 301.683878,123.108431 299.928508,101.690471 C298.691026,87.7859589 296.150645,74.05035 293.588458,60.3365349 C290.868179,46.0015936 290.186746,31.2525681 286.005475,17.2118445 C284.184687,11.681641 281.84601,5.77004415 276.983306,2.20674061 C271.237466,-1.75430171 263.349201,0.337913212 258.257536,4.41882201 C250.565524,10.6791214 244.977776,18.9880478 238.675887,26.5396361 C213.964412,55.1822763 193.428756,87.7478195 180.225317,123.282782 C179.522078,125.004501 178.74797,126.693529 177.9248,128.349865 C177.019857,122.966771 177.537746,117.452913 179.178636,112.271412 C184.057694,96.7378055 195.162321,84.173619 200.668297,68.9233337 C196.552444,68.857952 192.420236,68.8198126 188.298931,68.5691827 C191.537099,64.5264133 195.489409,61.0284914 197.99163,56.4299774 C188.010004,57.67223 180.05087,64.2866803 170.979638,67.9970927 C170.685259,65.7523204 170.412686,63.5020997 170.12921,61.2573274 C163.058664,65.964811 157.574494,72.5465705 151.305313,78.2129859 C144.850783,72.5683644 139.328453,65.8285991 132.039849,61.1810488 C131.898111,63.4639604 131.772727,65.7414235 131.630989,68.0243351 C122.461631,64.4119953 114.540657,57.6940239 104.520871,56.4081835 C106.930417,61.0012491 110.860921,64.477377 113.957351,68.5800797 C109.912366,68.8089157 105.872833,68.857952 101.827849,68.9233337 C107.023092,83.8358135 117.800631,96.0349521 122.826879,111.007365 C124.838468,116.657435 125.127395,122.716141 124.647667,128.649532 C121.763844,123.059395 119.948507,117.006138 117.419029,111.263444 C104.36823,80.8446 86.2257662,52.6923226 64.6543332,27.6129859 C58.4669244,20.3392699 53.0699775,12.3354582 45.9721747,5.88446215 C41.322078,1.59106278 34.5840716,-1.21490255 28.2930851,0.73020351 C23.3159008,2.5990309 20.2576309,7.43727792 18.2732989,12.1229676 C13.3996923,24.0823732 12.451138,37.1096802 10.5540294,49.7664908 C7.14141454,71.8491655 1.64634137,93.7956283 1.85894836,116.276042 C1.74991914,133.460536 4.56287326,150.525164 8.31893022,167.24109 C9.84533943,174.324109 12.0204726,181.270916 12.805483,188.495596 C8.26986707,183.216022 5.03169895,176.917584 0.0163543844,172.013955 C-0.234412844,184.796081 2.40409451,197.474685 6.54720524,209.521266 C10.265102,220.63071 15.8583014,230.950124 20.6228788,241.618241 C16.5070254,239.29719 12.6364877,236.545709 8.53153722,234.18107 C12.1076959,249.044514 19.9687034,262.812814 30.8225632,273.557209 C42.3578557,285.402197 56.3790146,294.343146 69.1681433,304.711597 C74.4996726,309.092172 79.1988324,314.279121 82.725928,320.239754 C88.1174234,329.142565 90.6087413,339.412943 92.76752,349.487176 C94.6755315,358.351847 95.5368625,367.772262 100.486789,375.628965 C107.562786,387.179735 120.161114,394.202821 132.988403,397.548186 C150.356759,402.386433 169.578612,399.961861 185.306079,391.173468 C195.113258,385.665059 203.388576,376.675073 206.228788,365.603769 C209.85401,351.018197 211.244132,335.56087 218.587251,322.173964 C223.373634,313.058663 231.147418,306.008334 239.308256,299.949629 C251.650365,290.512867 264.586683,281.588263 274.998974,269.944869 C284.086561,259.832497 290.693732,247.453559 293.866483,234.21921 C289.707017,236.556606 285.803771,239.324432 281.671563,241.721762 C285.236819,233.78878 289.37993,226.128222 292.601744,218.031786 L292.601744,218.031786 Z" id="Fill-9"></path>
                </g>
            </g>
        </g>
    </g>
</svg>