<?xml version="1.0" encoding="UTF-8"?>
<svg width="64px" height="64px" viewBox="0 0 64 64" version="1.1" xmlns="http://www.w3.org/2000/svg" xmlns:xlink="http://www.w3.org/1999/xlink">
    <!-- Generator: Sketch 55.1 (78136) - https://sketchapp.com -->
    <title>plyr</title>
    <desc>Created with Sketch.</desc>
    <defs>
        <path d="M32,64 C46.0222222,64 53.8173667,64 58.9086889,58.9086889 C64,53.8173667 64,46.0222222 64,32 C64,17.9777778 64,10.1826333 58.9086889,5.09131111 C53.8173667,0 46.0222222,0 32,0 C17.9777778,0 10.1826333,0 5.09131111,5.09131111 C0,10.1826333 0,17.9777778 0,32 C0,46.0222222 0,53.8173667 5.09131111,58.9086889 C10.1826333,64 17.9777778,64 32,64 Z" id="path-1"></path>
        <circle id="path-3" cx="32" cy="32" r="20"></circle>
        <filter x="-5.0%" y="-2.5%" width="110.0%" height="110.0%" filterUnits="objectBoundingBox" id="filter-4">
            <feOffset dx="0" dy="1" in="SourceAlpha" result="shadowOffsetOuter1"></feOffset>
            <feGaussianBlur stdDeviation="0.5" in="shadowOffsetOuter1" result="shadowBlurOuter1"></feGaussianBlur>
            <feColorMatrix values="0 0 0 0 0   0 0 0 0 0   0 0 0 0 0  0 0 0 0.1 0" type="matrix" in="shadowBlurOuter1"></feColorMatrix>
        </filter>
    </defs>
    <g id="Page-1" stroke="none" stroke-width="1" fill="none" fill-rule="evenodd">
        <g id="Artboard" transform="translate(-340.000000, -768.000000)">
            <g id="plyr" transform="translate(340.000000, 768.000000)">
                <mask id="mask-2" fill="white">
                    <use xlink:href="#path-1"></use>
                </mask>
                <use id="Path" fill="#E3EBEE" xlink:href="#path-1"></use>
                <g id="Oval" fill-rule="nonzero" mask="url(#mask-2)">
                    <use fill="black" fill-opacity="1" filter="url(#filter-4)" xlink:href="#path-3"></use>
                    <use fill="#FFFFFF" xlink:href="#path-3"></use>
                </g>
                <circle id="Oval-Copy" fill="#00B4FF" fill-rule="nonzero" mask="url(#mask-2)" cx="32" cy="32" r="17"></circle>
                <path d="M34.8682431,26.5194255 L41.1450635,37.5038611 C41.4190734,37.9833785 41.2524767,38.5942332 40.7729593,38.8682431 C40.6218616,38.9545847 40.4508473,39 40.2768203,39 L27.7231797,39 C27.1708949,39 26.7231797,38.5522847 26.7231797,38 C26.7231797,37.8259731 26.768595,37.6549588 26.8549365,37.5038611 L33.1317569,26.5194255 C33.4057668,26.0399081 34.0166215,25.8733113 34.4961389,26.1473213 C34.6511702,26.2359106 34.7796538,26.3643942 34.8682431,26.5194255 Z" id="Triangle" fill="#FFFFFF" mask="url(#mask-2)" transform="translate(34.000000, 32.000000) rotate(-270.000000) translate(-34.000000, -32.000000) "></path>
            </g>
        </g>
    </g>
</svg>