<svg width="80" height="80" viewBox="0 0 80 80" fill="none" xmlns="http://www.w3.org/2000/svg">
<rect width="80" height="80" fill="url(#paint0_linear_830_7665)"/>
<path d="M44 29C44 32.0704 42.6504 34.9495 40.9406 37.434C40.2158 38.4871 40.9251 40 42.2035 40H59C62.866 40 66 36.866 66 33C66 29.134 62.866 26 59 26H46.3876C45.1427 26 44.0768 27.1384 44.017 28.3818C44.0071 28.5869 44 28.793 44 29Z" fill="black" fill-opacity="0.2"/>
<path d="M39.3376 59.5C38.294 59.5 37.458 58.6891 37.2098 57.6754C37.1509 57.4346 37.0813 57.2017 37 57C36.4182 55.5577 35.0333 54.6111 34.5 53.9C33.9666 53.1889 33.9405 52.2467 34.4739 51.5356C35.5048 50.161 36.4173 49.5938 37 48C37.0731 47.7999 37.1365 47.6084 37.1912 47.423C37.4981 46.3816 38.3482 45.5 39.4338 45.5C44.1285 45.5 55.9244 45.5 59 45.5C62.866 45.5 66 48.634 66 52.5C66 56.366 62.866 59.5 59 59.5C55.9018 59.5 43.9592 59.5 39.3376 59.5Z" fill="black" fill-opacity="0.2"/>
<path fill-rule="evenodd" clip-rule="evenodd" d="M14 28C14 20.8203 19.8203 15 27 15C34.1796 15 40 20.8203 40 28C40 32.3988 37.8153 36.2874 34.4717 38.6397C33.8878 39.0505 33.5 39.7005 33.5 40.4145V44.0334C33.5 45.7515 33.5 46.6105 33.2332 47.4111C32.9662 48.2116 32.4509 48.8988 31.42 50.2734L30.5 51.5C29.9667 52.2111 29.9667 53.1889 30.5 53.9L32.8079 56.9772C32.9791 57.2055 33.0652 57.3205 33.1368 57.4414C33.3258 57.7604 33.4444 58.1161 33.4847 58.4847C33.5 58.6254 33.5 58.77 33.5 59.0593C33.5 59.4168 33.5 59.5957 33.4771 59.7668C33.4173 60.2163 33.2408 60.6422 32.9654 61.0023C32.8607 61.1393 32.734 61.266 32.4813 61.5187L28.4142 65.5858C27.6332 66.3668 26.3668 66.3669 25.5858 65.5858L23.5461 63.5462L23.5451 63.5451C22.0428 62.0428 21.2916 61.2915 20.8958 60.3359C20.5 59.3804 20.5 58.3176 20.5 56.1921V40.4145C20.5 39.7005 20.1122 39.0505 19.5283 38.6397C16.1847 36.2874 14 32.3988 14 28ZM27 32C29.2091 32 31 30.2091 31 28C31 25.7909 29.2091 24 27 24C24.7909 24 23 25.7909 23 28C23 30.2091 24.7909 32 27 32Z" fill="black" fill-opacity="0.2"/>
<path d="M44 28C44 31.4393 42.3066 34.6386 40.3104 37.312C39.8005 37.9948 40.2704 39 41.1227 39H59C62.866 39 66 35.866 66 32C66 28.134 62.866 25 59 25H45.1938C44.5714 25 44.0882 25.5672 44.0747 26.1895C44.0619 26.7844 44 27.3884 44 28Z" fill="url(#paint1_linear_830_7665)"/>
<path d="M38.4117 58.5C37.8898 58.5 37.4649 58.0985 37.3859 57.5827C37.3081 57.0756 37.1845 56.4575 37 56C36.4182 54.5577 35.0333 53.6111 34.5 52.9C33.9666 52.1889 33.9405 51.2467 34.4739 50.5356C35.5048 49.161 36.4173 48.5938 37 47C37.204 46.4419 37.332 45.9512 37.4062 45.4717C37.4893 44.9353 37.9135 44.5 38.4563 44.5C42.1967 44.5 55.6798 44.5 59 44.5C62.866 44.5 66 47.634 66 51.5C66 55.366 62.866 58.5 59 58.5C55.6645 58.5 42.0775 58.5 38.4117 58.5Z" fill="url(#paint2_linear_830_7665)"/>
<path fill-rule="evenodd" clip-rule="evenodd" d="M14 27C14 19.8203 19.8203 14 27 14C34.1796 14 40 19.8203 40 27C40 31.3988 37.8153 35.2874 34.4717 37.6397C33.8878 38.0505 33.5 38.7005 33.5 39.4145V43.0334C33.5 44.7515 33.5 45.6105 33.2332 46.4111C32.9662 47.2116 32.4509 47.8988 31.42 49.2734L30.5 50.5C29.9667 51.2111 29.9667 52.1889 30.5 52.9L32.8079 55.9772C32.9791 56.2055 33.0652 56.3205 33.1368 56.4414C33.3258 56.7604 33.4444 57.1161 33.4847 57.4847C33.5 57.6254 33.5 57.77 33.5 58.0593C33.5 58.4168 33.5 58.5957 33.4771 58.7668C33.4173 59.2163 33.2408 59.6422 32.9654 60.0023C32.8607 60.1393 32.734 60.266 32.4813 60.5187L28.4142 64.5858C27.6332 65.3668 26.3668 65.3669 25.5858 64.5858L23.5461 62.5462L23.5451 62.5451C22.0428 61.0428 21.2916 60.2915 20.8958 59.3359C20.5 58.3804 20.5 57.3176 20.5 55.1921V39.4145C20.5 38.7005 20.1122 38.0505 19.5283 37.6397C16.1847 35.2874 14 31.3988 14 27ZM27 31C29.2091 31 31 29.2091 31 27C31 24.7909 29.2091 23 27 23C24.7909 23 23 24.7909 23 27C23 29.2091 24.7909 31 27 31Z" fill="url(#paint3_linear_830_7665)"/>
<defs>
<linearGradient id="paint0_linear_830_7665" x1="40" y1="0" x2="40" y2="80" gradientUnits="userSpaceOnUse">
<stop stop-color="#0284C7"/>
<stop offset="1" stop-color="#0C4A6E"/>
</linearGradient>
<linearGradient id="paint1_linear_830_7665" x1="52.4806" y1="25" x2="52.4806" y2="39" gradientUnits="userSpaceOnUse">
<stop stop-color="#F9FAFB"/>
<stop offset="1" stop-color="#9CA3AF"/>
</linearGradient>
<linearGradient id="paint2_linear_830_7665" x1="50.0433" y1="44.5" x2="50.0433" y2="58.5" gradientUnits="userSpaceOnUse">
<stop stop-color="#F9FAFB"/>
<stop offset="1" stop-color="#9CA3AF"/>
</linearGradient>
<linearGradient id="paint3_linear_830_7665" x1="27" y1="14" x2="27" y2="65.1716" gradientUnits="userSpaceOnUse">
<stop stop-color="#FDE68A"/>
<stop offset="1" stop-color="#D97706"/>
</linearGradient>
</defs>
</svg>
