<svg width="80" height="80" viewBox="0 0 80 80" fill="none" xmlns="http://www.w3.org/2000/svg">
<rect width="80" height="80" fill="url(#paint0_linear_1559_24420)"/>
<path fill-rule="evenodd" clip-rule="evenodd" d="M40.1624 15H39.8376C34.3543 15 30.0197 14.9999 26.6293 15.4558C23.1436 15.9244 20.3354 16.9101 18.1227 19.1227C15.91 21.3354 14.9244 24.1436 14.4558 27.6293C13.9999 31.0197 14 35.3542 14 40.8376V41.1624C14 46.6457 13.9999 50.9803 14.4558 54.3707C14.9244 57.8564 15.9101 60.6647 18.1227 62.8774C20.3354 65.09 23.1436 66.0756 26.6293 66.5443C30.0197 67.0001 34.3543 67 39.8377 67H40.1623C45.6457 67 49.9802 67.0001 53.3707 66.5443C56.8564 66.0756 59.6647 65.0899 61.8774 62.8773C64.09 60.6646 65.0756 57.8564 65.5443 54.3707C66.0001 50.9802 66 46.6457 66 41.1623V40.8377C66 35.3543 66.0001 31.0197 65.5443 27.6293C65.0756 24.1436 64.09 21.3354 61.8774 19.1227C59.6646 16.91 56.8564 15.9244 53.3707 15.4558C49.9803 14.9999 45.6457 15 40.1624 15ZM40.1343 19.4827H39.8656C35.3276 19.4827 31.7404 19.4827 28.9345 19.8599C26.0498 20.2478 23.7258 21.0635 21.8946 22.8947C20.0634 24.7258 19.2477 27.0498 18.8599 29.9346C18.4827 32.7404 18.4827 36.3276 18.4827 40.8656V41.1344C18.4827 45.6723 18.4827 49.2595 18.8599 52.0654C19.2477 54.9501 20.0635 57.2742 21.8946 59.1054C23.7258 60.9366 26.0498 61.7522 28.9345 62.1401C31.7404 62.5173 35.3276 62.5173 39.8656 62.5172H40.1343C44.6722 62.5173 48.2595 62.5173 51.0653 62.1401C53.9501 61.7522 56.2742 60.9365 58.1054 59.1054C59.9365 57.2741 60.7522 54.9501 61.14 52.0654C61.5173 49.2595 61.5172 45.6723 61.5172 41.1343V40.8657C61.5172 36.3277 61.5173 32.7404 61.14 29.9346C60.7522 27.0499 59.9365 24.7258 58.1054 22.8946C56.2741 21.0635 53.9501 20.2478 51.0654 19.8599C48.2595 19.4827 44.6722 19.4827 40.1343 19.4827Z" fill="black" fill-opacity="0.2"/>
<path fill-rule="evenodd" clip-rule="evenodd" d="M49.7661 54.8396C44.7141 49.1756 35.2811 49.3778 30.2078 54.8683C29.3828 55.7612 28.0135 55.7939 27.1494 54.9415C26.2853 54.089 26.2536 52.6742 27.0786 51.7813C33.7745 44.5347 46.1036 44.1371 52.9475 51.81C53.7571 52.7178 53.7013 54.1318 52.8228 54.9684C51.9443 55.805 50.5758 55.7473 49.7661 54.8396Z" fill="black" fill-opacity="0.2"/>
<path fill-rule="evenodd" clip-rule="evenodd" d="M31.68 34.76C31.68 30.1621 35.408 26.44 39.9999 26.44C44.5921 26.44 48.32 30.1621 48.32 34.76C48.32 39.3579 44.5921 43.08 39.9999 43.08C35.408 43.08 31.68 39.3578 31.68 34.76Z" fill="black" fill-opacity="0.2"/>
<path fill-rule="evenodd" clip-rule="evenodd" d="M40.1624 14H39.8376C34.3543 14 30.0197 13.9999 26.6293 14.4558C23.1436 14.9244 20.3354 15.9101 18.1227 18.1227C15.91 20.3354 14.9244 23.1436 14.4558 26.6293C13.9999 30.0197 14 34.3542 14 39.8376V40.1624C14 45.6457 13.9999 49.9803 14.4558 53.3707C14.9244 56.8564 15.9101 59.6647 18.1227 61.8774C20.3354 64.09 23.1436 65.0756 26.6293 65.5443C30.0197 66.0001 34.3543 66 39.8377 66H40.1623C45.6457 66 49.9802 66.0001 53.3707 65.5443C56.8564 65.0756 59.6647 64.0899 61.8774 61.8773C64.09 59.6646 65.0756 56.8564 65.5443 53.3707C66.0001 49.9802 66 45.6457 66 40.1623V39.8377C66 34.3543 66.0001 30.0197 65.5443 26.6293C65.0756 23.1436 64.09 20.3354 61.8773 18.1227C59.6646 15.91 56.8564 14.9244 53.3707 14.4558C49.9803 13.9999 45.6457 14 40.1624 14ZM40.1343 18.4827H39.8656C35.3276 18.4827 31.7404 18.4827 28.9345 18.8599C26.0498 19.2478 23.7258 20.0635 21.8946 21.8947C20.0634 23.7258 19.2477 26.0498 18.8599 28.9346C18.4827 31.7404 18.4827 35.3276 18.4827 39.8656V40.1344C18.4827 44.6723 18.4827 48.2595 18.8599 51.0654C19.2477 53.9501 20.0635 56.2742 21.8946 58.1054C23.7258 59.9366 26.0498 60.7522 28.9345 61.1401C31.7404 61.5173 35.3276 61.5173 39.8656 61.5172H40.1343C44.6722 61.5173 48.2595 61.5173 51.0653 61.1401C53.9501 60.7522 56.2742 59.9365 58.1054 58.1054C59.9365 56.2741 60.7522 53.9501 61.14 51.0654C61.5173 48.2595 61.5172 44.6723 61.5172 40.1343V39.8657C61.5172 35.3277 61.5173 31.7404 61.14 28.9346C60.7522 26.0499 59.9365 23.7258 58.1054 21.8946C56.2741 20.0635 53.9501 19.2478 51.0654 18.8599C48.2595 18.4827 44.6722 18.4827 40.1343 18.4827Z" fill="url(#paint1_linear_1559_24420)"/>
<path fill-rule="evenodd" clip-rule="evenodd" d="M50.8352 54.2303C45.2302 48.1791 34.7645 48.3951 29.1359 54.261C28.2206 55.2149 26.7014 55.2499 25.7427 54.3392C24.784 53.4284 24.7488 51.9168 25.6641 50.9629C33.093 43.2208 46.7717 42.7961 54.3648 50.9936C55.2631 51.9634 55.2012 53.4742 54.2265 54.368C53.2518 55.2618 51.7335 55.2001 50.8352 54.2303Z" fill="url(#paint2_linear_1559_24420)"/>
<path fill-rule="evenodd" clip-rule="evenodd" d="M31 33C31 28.0264 35.0326 24 39.9999 24C44.9674 24 49 28.0263 49 33C49 37.9736 44.9674 42 39.9999 42C35.0326 42 31 37.9736 31 33Z" fill="url(#paint3_linear_1559_24420)"/>
<defs>
<linearGradient id="paint0_linear_1559_24420" x1="40" y1="0" x2="40" y2="80" gradientUnits="userSpaceOnUse">
<stop stop-color="#0284C7"/>
<stop offset="1" stop-color="#0C4A6E"/>
</linearGradient>
<linearGradient id="paint1_linear_1559_24420" x1="40" y1="14" x2="40" y2="66" gradientUnits="userSpaceOnUse">
<stop stop-color="#F9FAFB"/>
<stop offset="1" stop-color="#9CA3AF"/>
</linearGradient>
<linearGradient id="paint2_linear_1559_24420" x1="40" y1="45" x2="40" y2="55" gradientUnits="userSpaceOnUse">
<stop stop-color="#F9FAFB"/>
<stop offset="1" stop-color="#9CA3AF"/>
</linearGradient>
<linearGradient id="paint3_linear_1559_24420" x1="40" y1="24" x2="40" y2="42" gradientUnits="userSpaceOnUse">
<stop stop-color="#FDE68A"/>
<stop offset="1" stop-color="#D97706"/>
</linearGradient>
</defs>
</svg>
