<svg width="48" height="48" viewBox="0 0 48 48" fill="none" xmlns="http://www.w3.org/2000/svg">
<rect width="48" height="48" fill="url(#paint0_linear_221_2584)"/>
<path d="M32.3697 20.5652C31.6147 20.3597 30.8202 20.25 30 20.25C26.2002 20.25 22.9503 22.6048 21.6303 25.9347M32.3697 20.5652C36.1906 21.6054 39 25.0996 39 29.25C39 34.2205 34.9705 38.25 30 38.25C27.6949 38.25 25.5922 37.3835 24 35.9583M32.3697 20.5652C32.7765 19.5393 33 18.4207 33 17.25C33 12.2794 28.9705 8.25 24 8.25C19.0294 8.25 15 12.2794 15 17.25C15 18.4207 15.2235 19.5393 15.6303 20.5652M21.6303 25.9347C21.2235 26.9607 21 28.0793 21 29.25C21 31.9155 22.1588 34.3104 24 35.9583M21.6303 25.9347C18.8872 25.188 16.6654 23.1765 15.6303 20.5652M24 35.9583C22.4078 37.3835 20.3051 38.25 18 38.25C13.0294 38.25 9 34.2205 9 29.25C9 25.0996 11.8094 21.6054 15.6303 20.5652" stroke="white" stroke-width="2.25" stroke-linecap="round"/>
<defs>
<linearGradient id="paint0_linear_221_2584" x1="24" y1="0" x2="24" y2="48" gradientUnits="userSpaceOnUse">
<stop stop-color="#F43F5E"/>
<stop offset="1" stop-color="#BE123C"/>
</linearGradient>
</defs>
</svg>
