<?xml version="1.0"?>
<svg width="600" height="600" xmlns="http://www.w3.org/2000/svg" xmlns:svg="http://www.w3.org/2000/svg">
 <!-- Generator: Sketch 40.3 (33839) - http://www.bohemiancoding.com/sketch -->
 <title>Group 2 Copy 19</title>
 <desc>Created with Sketch.</desc>
 <defs>
  <linearGradient id="linearGradient-1" y2="100%" x2="50%" y1="0%" x1="50%">
   <stop offset="0%" stop-opacity="0.2" stop-color="#FFFFFF"/>
   <stop offset="100%" stop-opacity="0.13887" stop-color="#000000"/>
  </linearGradient>
  <path id="path-3" d="m296.71269,208.4098c-12.62806,-4.39644 -26.28507,-4.67706 -38.91314,-9.0735c-3.83519,-1.30957 -11.41202,-2.89977 -13.00222,-7.29621c-1.49666,-4.3029 -1.49666,-9.35412 -1.77728,-13.8441c-0.18709,-3.55457 -0.28063,-7.10913 -0.28063,-10.6637c0,-2.33853 5.98664,-7.29621 7.29622,-9.44766c5.05122,-8.41871 5.51893,-19.73719 6.45434,-29.27839c8.13808,2.24498 9.16704,-12.81515 10.57015,-17.39867c1.02896,-3.1804 7.29622,-25.06904 -2.43207,-22.07572c2.33853,-4.11581 3.27394,-9.16704 3.92873,-13.75056c1.87083,-11.97327 2.61916,-25.06904 -1.02895,-36.76169c-7.57684,-24.32071 -30.8686,-37.97773 -55.46993,-38.72606c-24.97551,-0.84187 -50.04455,11.1314 -59.39867,35.35858c-4.48998,11.78619 -4.11581,24.60133 -2.61915,36.94877c0.65479,5.61247 1.5902,11.87973 4.39644,16.93096c-9.0735,-2.7127 -4.20936,16.55679 -3.18041,19.92427c1.49666,4.77061 2.80624,21.88865 11.31849,19.55012c0.74833,7.57683 1.5902,15.34075 3.64811,22.73051c1.40311,4.95768 4.30289,9.16704 7.67038,13.00223c1.68374,1.87082 2.52561,2.0579 2.43207,4.48997c-0.09354,7.29622 0.09354,15.15368 -1.77729,22.26281c-1.87082,7.10913 -17.4922,10.10245 -23.75946,11.41203c-16.83742,3.46102 -32.36526,5.05122 -46.39644,15.52784c-16.36971,12.06681 -24.88196,30.86859 -24.88196,51.16703l233.75947,0l26.28508,0c0,-27.59465 -16.65034,-51.91536 -42.84188,-60.98886l0,0z"/>
  <path id="path-5" d="m104.11136,196.90423c-3.1804,1.5902 -7.01559,3.55457 0.74833,-0.37416c2.80623,-1.40312 2.24499,-1.1225 0.74833,-0.37417c6.3608,-2.99332 13.18931,-3.74165 20.01781,-4.39643c2.61916,-0.28063 3.83519,-2.05791 1.87083,-4.58352c-3.74165,-4.7706 -16.65034,-5.70602 -22.07572,-7.85746c-3.36749,-1.30958 -4.3029,-2.52562 -4.58352,-6.26727c-0.09354,-1.68374 -1.02896,-9.16703 0.28062,-10.38307c0.93541,-0.93541 6.82851,-0.56125 8.13808,-0.74833c5.33185,-0.65479 10.75724,-1.77728 15.80847,-3.74165c2.15145,-0.84187 4.20935,-1.87082 6.08018,-3.1804c2.24499,-1.68374 -1.68375,-5.79955 -2.7127,-8.04454c-3.1804,-7.01559 -4.58352,-14.68597 -5.05122,-22.35635c-0.93542,-15.06013 1.40311,-30.21381 -1.40312,-45.1804c-4.20936,-22.91759 -21.88864,-34.42316 -44.43207,-34.42316c-13.93764,0 -27.6882,4.7706 -35.45212,16.93096c-8.60579,13.37639 -8.13808,30.02672 -7.67038,45.27394c0.28063,8.69933 0.65479,17.4922 -0.56124,26.19154c-0.56125,3.74164 -1.40312,7.38975 -2.7127,10.94432c-1.02895,2.71269 -6.26726,9.44766 -4.20935,10.85077c7.76392,5.51894 20.85968,7.38976 30.2138,6.64143c0.28063,4.58352 1.1225,10.47662 -0.56124,14.77951c-2.61916,6.73497 -22.16927,8.51225 -28.06236,10.47661c-16.36971,5.42539 -28.53007,18.70825 -28.53007,37.41649l51.26058,0l23.10468,0c1.21603,0 5.89309,-8.69934 7.20267,-10.10245c6.3608,-7.01559 14.12472,-13.09577 22.54343,-17.49221l0,0z"/>
  <path id="path-7" d="m390.34744,186.98886c-7.57684,-2.43207 -22.16927,-3.1804 -27.59466,-9.72828c-2.71269,-3.27394 -1.21603,-11.59911 -0.93541,-15.52784c4.11581,0.37416 8.60579,-0.28062 12.81515,-0.84187c3.83519,-0.56125 7.57683,-1.30958 11.22494,-2.61915c1.68374,-0.65479 3.36748,-1.30958 4.95768,-2.24499c3.64811,-2.15145 1.96437,-2.52562 0.09355,-5.70602c-10.196,-17.11804 -5.61248,-38.8196 -6.08018,-57.62138c-0.37417,-15.62138 -4.48998,-32.73942 -18.70824,-41.53229c-12.81515,-7.951 -31.80401,-8.23163 -45.55457,-2.61916c-39.66147,15.90201 -16.27617,68.47216 -29.83964,98.59243c-2.33853,5.05123 -5.70602,6.82851 0.18708,9.82183c3.27394,1.68374 6.82851,2.80623 10.38307,3.6481c5.42539,1.30958 11.03787,2.05791 16.65034,2.24499c0.93541,0 0.28062,11.78619 0,13.00223c-1.02895,4.58352 -11.03786,5.8931 -14.77951,6.92205c-3.83519,1.02895 -10.19599,1.30958 -12.06682,5.33185c-2.80623,5.98664 9.26058,4.48998 12.2539,5.05122c9.63474,1.77729 18.14699,7.10914 25.63029,13.18931c5.61247,4.58352 13.18931,10.75724 15.24722,18.24054l75.02004,0c-0.18708,-18.80178 -12.44098,-32.17818 -28.90423,-37.60357l0,0z"/>
 </defs>
 <g class="layer">
  <title>Layer 1</title>
  <path fill="#2BAF92" id="path" d="m552.26896,552.26896c47.73104,-47.73115 47.73104,-120.81063 47.73104,-252.26896c0,-131.45833 0,-204.53781 -47.73104,-252.26896c-47.73115,-47.73104 -120.81063,-47.73104 -252.26896,-47.73104c-131.45833,0 -204.53781,0 -252.26896,47.73104c-47.73104,47.73115 -47.73104,120.81063 -47.73104,252.26896c0,131.45833 0,204.53781 47.73104,252.26896c47.73115,47.73104 120.81063,47.73104 252.26896,47.73104c131.45833,0 204.53781,0 252.26896,-47.73104l0,0z"/>
  <path fill="url(#linearGradient-1)" id="path-copy" d="m552.26896,552.26896c47.73104,-47.73115 47.73104,-120.81063 47.73104,-252.26896c0,-131.45833 0,-204.53781 -47.73104,-252.26896c-47.73115,-47.73104 -120.81063,-47.73104 -252.26896,-47.73104c-131.45833,0 -204.53781,0 -252.26896,47.73104c-47.73104,47.73115 -47.73104,120.81063 -47.73104,252.26896c0,131.45833 0,204.53781 47.73104,252.26896c47.73115,47.73104 120.81063,47.73104 252.26896,47.73104c131.45833,0 204.53781,0 252.26896,-47.73104l0,0z"/>
  <g id="svg_9"/>
  <g transform="matrix(1.8695367368156468,0,0,2.093171738466615,-51.56975864520307,-72.23986828892671) " id="svg_11">
   <path id="svg_12" fill="#fff" d="m286.534893,126.666157l-12.5,0l0,100l12.5,0l0,37.5l-37.5,0l0,-12.5l-125,0l0,12.5l-37.5,0l0,-37.5l12.5,0l0,-100l-12.5,0l0,-37.5l37.5,0l0,12.5l125,0l0,-12.5l37.5,0l0,37.5zm-25,-25l0,12.5l12.5,0l0,-12.5l-12.5,0zm-162.5,0l0,12.5l12.5,0l0,-12.5l-12.5,0zm12.5,150l0,-12.5l-12.5,0l0,12.5l12.5,0zm137.5,-12.5l0,-12.5l12.5,0l0,-100l-12.5,0l0,-12.5l-125,0l0,12.5l-12.5,0l0,100l12.5,0l0,12.5l125,0zm25,12.5l0,-12.5l-12.5,0l0,12.5l12.5,0zm-62.5,-100l37.5,0l0,75l-87.5,0l0,-25l-37.5,0l0,-75l87.5,0l0,25zm-75,37.5l62.5,0l0,-50l-62.5,0l0,50zm100,25l0,-50l-25,0l0,37.5l-37.5,0l0,12.5l62.5,0z"/>
  </g>
 </g>
</svg>