<?xml version="1.0" encoding="utf-8"?>
<!-- Generator: Adobe Illustrator 20.1.0, SVG Export Plug-In . SVG Version: 6.00 Build 0)  -->
<svg version="1.1" id="Слой_1" xmlns="http://www.w3.org/2000/svg" xmlns:xlink="http://www.w3.org/1999/xlink" x="0px" y="0px"
	 viewBox="0 0 64 64" style="enable-background:new 0 0 64 64;" xml:space="preserve">
<style type="text/css">
	.st0{fill:#00B356;}
	.st1{fill:#FFFFFF;}
</style>
<title>groups</title>
<desc>Created with Sketch.</desc>
<g id="Page-1">
	<g id="Artboard" transform="translate(-1636.000000, -430.000000)">
		<g id="groups" transform="translate(1636.000000, 430.000000)">
			<g id="Path">
				<path id="path-1_1_" class="st0" d="M32,64c14,0,21.8,0,26.9-5.1C64,53.8,64,46,64,32s0-21.8-5.1-26.9C53.8,0,46,0,32,0
					S10.2,0,5.1,5.1C0,10.2,0,18,0,32s0,21.8,5.1,26.9C10.2,64,18,64,32,64z"/>
			</g>
		</g>
	</g>
</g>
<path class="st1" d="M40.3,18.2c0-4.6-3.7-8.3-8.3-8.3s-8.3,3.7-8.3,8.3s3.7,8.3,8.3,8.3S40.3,22.8,40.3,18.2z M30.1,30.7
	c-5.1-3.1-13.4-4-17.6-4.2c-1.4-0.1-2.6,1-2.6,2.3v19.3c0,1.2,1,2.3,2.3,2.3c3.8,0.2,11.4,0.9,16.7,3.6c0.8,0.4,1.8-0.1,1.8-1V31.7
	C30.6,31.3,30.4,30.9,30.1,30.7L30.1,30.7z M51.5,26.5c-4.2,0.2-12.5,1.1-17.6,4.2c-0.4,0.2-0.6,0.6-0.6,1V53c0,0.9,1,1.4,1.8,1
	c5.3-2.7,12.9-3.4,16.7-3.6c1.3-0.1,2.3-1.1,2.3-2.3V28.8C54.1,27.5,53,26.4,51.5,26.5z"/>
</svg>
