<svg width="320" height="320" viewBox="0 0 320 320" fill="none" xmlns="http://www.w3.org/2000/svg">
<g clip-path="url(#clip0_435_3056)">
<path d="M160 0C281.326 0 320 38.6737 320 160C320 281.326 281.326 320 160 320C38.6736 320 0 281.326 0 160C0 38.6737 38.6736 0 160 0Z" fill="url(#paint0_linear_435_3056)"/>
<path d="M160 2C220.573 2 259.85 11.6833 284.083 35.9168C308.317 60.1504 318 99.4272 318 160C318 220.573 308.317 259.85 284.083 284.083C259.85 308.317 220.573 318 160 318C99.4272 318 60.1504 308.317 35.9168 284.083C11.6833 259.85 2 220.573 2 160C2 99.4272 11.6833 60.1504 35.9168 35.9168C60.1504 11.6833 99.4272 2 160 2Z" stroke="#F8FAFC" stroke-opacity="0.2" stroke-width="4"/>
<g clip-path="url(#clip1_435_3056)">
<path fill-rule="evenodd" clip-rule="evenodd" d="M229.909 183.498C229.806 179.975 226.093 177.817 222.873 179.252C177.37 199.538 142.506 199.639 97.1093 179.557C93.8867 178.131 90.1788 180.297 90.082 183.819C90.0269 185.823 90 187.883 90 190C90 243.081 106.92 260 160 260C213.08 260 230 243.081 230 190C230 187.77 229.97 185.603 229.909 183.498Z" fill="url(#paint1_linear_435_3056)"/>
<path fill-rule="evenodd" clip-rule="evenodd" d="M67.7223 164.665C64.479 162.825 60.3921 164.946 60.2542 168.672C60.0793 173.401 60 178.819 60 185C60 219.123 62.4171 230 70 230C77.5829 230 80 219.123 80 185C80 181.089 79.9683 177.484 79.9006 174.165C79.8636 172.349 78.8278 170.707 77.222 169.859C76.7575 169.613 76.2918 169.366 75.8249 169.117C72.9983 167.61 70.2975 166.127 67.7223 164.665Z" fill="url(#paint2_linear_435_3056)"/>
<path fill-rule="evenodd" clip-rule="evenodd" d="M91.3903 96.4434C139.824 124.407 156.471 131.227 160.263 124.66C164.054 118.093 149.824 107.086 101.39 79.1229C100.065 78.3579 100.157 76.4157 101.549 75.7808C149.361 53.9739 183.839 56.7135 235 83.9997C291.872 114.331 291.872 133.668 235 164C178.129 194.331 141.872 194.331 85.0005 164C31.77 135.61 28.3619 116.852 74.7761 89.6962C76.3262 88.7893 78.2759 88.792 79.8234 89.7034C83.4408 91.8338 87.2932 94.0779 91.3903 96.4434Z" fill="url(#paint3_linear_435_3056)"/>
</g>
</g>
<defs>
<linearGradient id="paint0_linear_435_3056" x1="160" y1="0" x2="160" y2="320" gradientUnits="userSpaceOnUse">
<stop stop-color="#475569"/>
<stop offset="1" stop-color="#1E293B"/>
</linearGradient>
<linearGradient id="paint1_linear_435_3056" x1="90" y1="248" x2="230" y2="249.5" gradientUnits="userSpaceOnUse">
<stop stop-color="#059669"/>
<stop offset="0.48725" stop-color="#34D399"/>
<stop offset="0.993579" stop-color="#059669"/>
</linearGradient>
<linearGradient id="paint2_linear_435_3056" x1="70" y1="163.991" x2="70" y2="230" gradientUnits="userSpaceOnUse">
<stop stop-color="#FB923C"/>
<stop offset="1" stop-color="#EA580C"/>
</linearGradient>
<linearGradient id="paint3_linear_435_3056" x1="165" y1="187" x2="160" y2="60.9998" gradientUnits="userSpaceOnUse">
<stop stop-color="#60A5FA"/>
<stop offset="1" stop-color="#2563EB"/>
</linearGradient>
<clipPath id="clip0_435_3056">
<rect width="320" height="320" fill="white"/>
</clipPath>
<clipPath id="clip1_435_3056">
<rect width="240" height="240" fill="white" transform="translate(40 40)"/>
</clipPath>
</defs>
</svg>
