<svg width="320" height="320" viewBox="0 0 320 320" fill="none" xmlns="http://www.w3.org/2000/svg">
<g clip-path="url(#clip0_1006_8430)">
<path d="M160 0C281.326 0 320 38.6737 320 160C320 281.326 281.326 320 160 320C38.6736 320 0 281.326 0 160C0 38.6737 38.6736 0 160 0Z" fill="url(#paint0_linear_1006_8430)"/>
<path d="M160 2C220.573 2 259.85 11.6833 284.083 35.9168C308.317 60.1504 318 99.4272 318 160C318 220.573 308.317 259.85 284.083 284.083C259.85 308.317 220.573 318 160 318C99.4272 318 60.1504 308.317 35.9168 284.083C11.6833 259.85 2 220.573 2 160C2 99.4272 11.6833 60.1504 35.9168 35.9168C60.1504 11.6833 99.4272 2 160 2Z" stroke="#0F172A" stroke-opacity="0.2" stroke-width="4"/>
<g clip-path="url(#clip1_1006_8430)">
<path fill-rule="evenodd" clip-rule="evenodd" d="M160 50C243.412 50 270 76.5882 270 160C270 243.412 243.412 270 160 270C143.995 270 130.082 269.021 118.048 266.85C112.267 265.807 109.048 259.651 109.617 253.804C109.878 251.12 110 248.19 110 245C110 218.46 101.54 210 75 210C71.8096 210 68.8804 210.122 66.1958 210.383C60.3487 210.952 54.1935 207.733 53.1503 201.952C50.9789 189.918 50 176.005 50 160C50 76.5882 76.5881 50 160 50ZM226.884 121.335C229.679 120.573 232.389 119.607 234.999 118.45C231.349 123.903 226.784 128.726 221.54 132.657C221 133.062 220.688 133.704 220.71 134.378C220.738 135.252 220.752 136.129 220.752 137.009C220.752 174.915 191.861 218.623 139.029 218.623C125.264 218.623 112.307 215.203 100.931 209.193C99.4484 208.41 100.175 206.136 101.852 206.136C113.288 206.136 123.95 202.824 132.927 197.107C134.516 196.096 133.777 193.607 131.937 193.208C123.004 191.271 115.616 185.186 111.908 177.075C111.277 175.695 112.514 174.266 114.028 174.377C114.71 174.426 115.399 174.452 116.096 174.452C118.003 174.452 118.15 171.814 116.446 170.957C107.062 166.235 100.622 156.527 100.622 145.319C100.622 145.154 100.797 145.053 100.942 145.131C102.764 146.112 104.705 146.905 106.738 147.48C108.674 148.027 109.698 145.482 108.343 143.996C103.692 138.896 100.857 132.111 100.857 124.67C100.857 120.44 101.775 116.424 103.421 112.809C104 111.539 105.689 111.402 106.609 112.451C120.186 127.94 139.53 138.251 161.299 140.045C162.624 140.154 163.647 138.928 163.468 137.611C163.294 136.327 163.204 135.015 163.204 133.683C163.204 117.843 176.066 105 191.928 105C199.791 105 206.932 108.155 212.12 113.266C212.61 113.75 213.303 113.98 213.976 113.834C218.352 112.886 222.543 111.445 226.488 109.57C228.149 108.78 229.947 110.315 229.073 111.933C227.972 113.971 226.63 115.861 225.086 117.566C223.765 119.024 224.986 121.853 226.884 121.335ZM234.999 118.45C234.999 118.45 235 118.45 235 118.45C235 118.45 235 118.45 235 118.45V118.45C235 118.45 235 118.45 234.999 118.45C234.999 118.45 234.999 118.45 234.999 118.45Z" fill="url(#paint1_linear_1006_8430)"/>
<path d="M75 220C93.9572 220 100 226.043 100 245C100 263.957 93.9572 270 75 270C56.0428 270 50 263.957 50 245C50 226.043 56.0428 220 75 220Z" fill="url(#paint2_linear_1006_8430)"/>
</g>
</g>
<defs>
<linearGradient id="paint0_linear_1006_8430" x1="160" y1="0" x2="160" y2="320" gradientUnits="userSpaceOnUse">
<stop stop-color="#F8FAFC"/>
<stop offset="1" stop-color="#E2E8F0"/>
</linearGradient>
<linearGradient id="paint1_linear_1006_8430" x1="160" y1="50" x2="160" y2="270" gradientUnits="userSpaceOnUse">
<stop stop-color="#60A5FA"/>
<stop offset="1" stop-color="#2563EB"/>
</linearGradient>
<linearGradient id="paint2_linear_1006_8430" x1="75" y1="220" x2="75" y2="270" gradientUnits="userSpaceOnUse">
<stop stop-color="#FB923C"/>
<stop offset="1" stop-color="#EA580C"/>
</linearGradient>
<clipPath id="clip0_1006_8430">
<rect width="320" height="320" fill="white"/>
</clipPath>
<clipPath id="clip1_1006_8430">
<rect width="240" height="240" fill="white" transform="translate(40 40)"/>
</clipPath>
</defs>
</svg>
