<?xml version="1.0" encoding="UTF-8"?>
<svg width="606px" height="606px" viewBox="0 0 606 606" version="1.1" xmlns="http://www.w3.org/2000/svg" xmlns:xlink="http://www.w3.org/1999/xlink">
    <!-- Generator: Sketch 40.2 (33826) - http://www.bohemiancoding.com/sketch -->
    <title>twitter</title>
    <desc>Created with Sketch.</desc>
    <defs>
        <linearGradient x1="50%" y1="0%" x2="50%" y2="100%" id="linearGradient-1">
            <stop stop-color="#FFFFFF" stop-opacity="0.2" offset="0%"></stop>
            <stop stop-color="#000000" stop-opacity="0.2" offset="100%"></stop>
        </linearGradient>
        <path d="M552.268958,552.268958 C600,504.537813 600,431.458333 600,300 C600,168.541667 600,95.4621875 552.268958,47.7310417 C504.537813,0 431.458333,0 300,0 C168.541667,0 95.4621875,0 47.7310417,47.7310417 C0,95.4621875 0,168.541667 0,300 C0,431.458333 0,504.537813 47.7310417,552.268958 C95.4621875,600 168.541667,600 300,600 C431.458333,600 504.537813,600 552.268958,552.268958 Z" id="path-2"></path>
    </defs>
    <g id="Page-1" stroke="none" stroke-width="1" fill="none" fill-rule="evenodd">
        <g id="twitter" transform="translate(3.000000, 3.000000)">
            <g id="Squircle2-Copy-6">
                <g id="Shape">
                    <use fill="#1DA1F2" xlink:href="#path-2"></use>
                    <use stroke="#000000" stroke-width="4.04" fill="url(#linearGradient-1)" xlink:href="#path-2"></use>
                </g>
            </g>
            <g id="Twitter_Logo_White_On_Blue" transform="translate(100.000000, 137.000000)" opacity="0.9" fill="#FFFFFF">
                <g id="Twitter_Logo_White-on-Blue">
                    <g id="Logo_FIXED">
                        <path d="M125.792,325.744 C276.736,325.744 359.296,200.688 359.296,92.24 C359.296,88.688 359.296,85.152 359.056,81.632 C375.117302,70.0145737 388.981688,55.6300703 400,39.152 C385.022065,45.7888284 369.133268,50.1412584 352.864,52.064 C369.995904,41.8077129 382.817976,25.6763518 388.944,6.672 C372.83452,16.231285 355.210338,22.9681923 336.832,26.592 C311.393324,-0.457691539 270.97151,-7.07819865 238.232788,10.4428788 C205.494067,27.9639563 188.5804,65.2692117 196.976,101.44 C130.990332,98.1319926 69.5116125,66.9651723 27.84,15.696 C6.0579641,53.1943156 17.1838061,101.165752 53.248,125.248 C40.1878592,124.860921 27.4124699,121.337811 16,114.976 L16,116.016 C16.0106901,155.081488 43.5480238,188.728563 81.84,196.464 C69.7579135,199.759041 57.0812894,200.240709 44.784,197.872 C55.5351669,231.302765 86.345193,254.204542 121.456,254.864 C92.3957606,277.702911 56.4969522,290.101244 19.536,290.064 C13.0064571,290.051465 6.48326504,289.65612 0,288.88 C37.5301752,312.964425 81.1986144,325.739471 125.792,325.68" id="Shape"></path>
                    </g>
                </g>
            </g>
        </g>
    </g>
</svg>