<svg width="320" height="320" viewBox="0 0 320 320" fill="none" xmlns="http://www.w3.org/2000/svg">
<g clip-path="url(#clip0_1014_7025)">
<path d="M160 0C281.326 0 320 38.6737 320 160C320 281.326 281.326 320 160 320C38.6736 320 0 281.326 0 160C0 38.6737 38.6736 0 160 0Z" fill="url(#paint0_linear_1014_7025)"/>
<path d="M160 2C220.573 2 259.85 11.6833 284.083 35.9168C308.317 60.1504 318 99.4272 318 160C318 220.573 308.317 259.85 284.083 284.083C259.85 308.317 220.573 318 160 318C99.4272 318 60.1504 308.317 35.9168 284.083C11.6833 259.85 2 220.573 2 160C2 99.4272 11.6833 60.1504 35.9168 35.9168C60.1504 11.6833 99.4272 2 160 2Z" stroke="#F8FAFC" stroke-opacity="0.2" stroke-width="4"/>
<g clip-path="url(#clip1_1014_7025)">
<path d="M233.334 169.959C233.315 171.715 232.604 173.392 231.356 174.627C230.107 175.862 228.423 176.554 226.667 176.554C224.911 176.554 223.226 175.862 221.978 174.627C220.73 173.392 220.019 171.715 220 169.959V110C220.019 108.244 220.73 106.567 221.978 105.332C223.226 104.098 224.911 103.405 226.667 103.405C228.423 103.405 230.107 104.098 231.356 105.332C232.604 106.567 233.315 108.244 233.334 110V169.959ZM231.007 211.688C229.977 212.57 205.28 233.294 160 233.294C114.72 233.294 90.025 212.57 88.9945 211.688C87.6523 210.537 86.8222 208.9 86.6867 207.137C86.5511 205.374 87.1213 203.629 88.2719 202.287C89.4199 200.946 91.0528 200.116 92.8123 199.978C94.5717 199.84 96.3141 200.406 97.657 201.551C98.0484 201.879 120.102 219.959 160.001 219.959C200.401 219.959 222.113 201.748 222.327 201.565C225.117 199.169 229.334 199.491 231.728 202.288C232.879 203.63 233.45 205.374 233.314 207.137C233.179 208.9 232.349 210.537 231.007 211.688V211.688ZM86.6664 110C86.6854 108.244 87.3962 106.567 88.6444 105.332C89.8926 104.098 91.5775 103.405 93.3332 103.405C95.089 103.405 96.7738 104.098 98.022 105.332C99.2702 106.567 99.981 108.244 100 110V169.959C99.981 171.715 99.2702 173.392 98.022 174.627C96.7738 175.862 95.089 176.554 93.3332 176.554C91.5775 176.554 89.8926 175.862 88.6444 174.627C87.3962 173.392 86.6854 171.715 86.6664 169.959V110ZM120.001 96.6664C120.028 94.916 120.742 93.2464 121.989 92.0181C123.236 90.7898 124.917 90.1013 126.667 90.1013C128.418 90.1013 130.098 90.7898 131.345 92.0181C132.593 93.2464 133.307 94.916 133.334 96.6664V185.73C133.307 187.48 132.593 189.15 131.345 190.378C130.098 191.606 128.418 192.295 126.667 192.295C124.917 192.295 123.236 191.606 121.989 190.378C120.742 189.15 120.028 187.48 120.001 185.73V96.6672V96.6664ZM153.334 93.293C153.333 92.4175 153.506 91.5506 153.841 90.7417C154.176 89.9329 154.667 89.1979 155.286 88.5789C155.905 87.9598 156.64 87.4688 157.449 87.1338C158.258 86.7988 159.125 86.6265 160 86.6266C160.876 86.6264 161.743 86.7986 162.551 87.1336C163.36 87.4685 164.095 87.9595 164.715 88.5786C165.334 89.1977 165.825 89.9326 166.16 90.7415C166.495 91.5504 166.667 92.4174 166.667 93.293V189.959C166.648 191.715 165.937 193.392 164.689 194.627C163.441 195.862 161.756 196.554 160 196.554C158.245 196.554 156.56 195.862 155.312 194.627C154.063 193.392 153.353 191.715 153.334 189.959V93.293V93.293ZM186.667 96.6664C186.694 94.916 187.408 93.2464 188.655 92.0181C189.903 90.7898 191.583 90.1013 193.334 90.1013C195.084 90.1013 196.764 90.7898 198.012 92.0181C199.259 93.2464 199.973 94.916 200 96.6664V185.73C199.973 187.48 199.259 189.15 198.012 190.378C196.764 191.606 195.084 192.295 193.334 192.295C191.583 192.295 189.903 191.606 188.655 190.378C187.408 189.15 186.694 187.48 186.667 185.73V96.6672V96.6664ZM235 60H85C71.193 60 60 71.193 60 85V235C60 248.806 71.193 260 85 260H235C248.807 260 260 248.806 260 235V85C260 71.193 248.807 60 235 60Z" fill="#38BDF8"/>
</g>
</g>
<defs>
<linearGradient id="paint0_linear_1014_7025" x1="160" y1="0" x2="160" y2="320" gradientUnits="userSpaceOnUse">
<stop stop-color="#475569"/>
<stop offset="1" stop-color="#1E293B"/>
</linearGradient>
<clipPath id="clip0_1014_7025">
<rect width="320" height="320" fill="white"/>
</clipPath>
<clipPath id="clip1_1014_7025">
<rect width="240" height="240" fill="white" transform="translate(40 40)"/>
</clipPath>
</defs>
</svg>
