<?xml version="1.0" encoding="UTF-8"?>
<svg width="606px" height="606px" viewBox="0 0 606 606" version="1.1" xmlns="http://www.w3.org/2000/svg" xmlns:xlink="http://www.w3.org/1999/xlink">
    <!-- Generator: Sketch 40.2 (33826) - http://www.bohemiancoding.com/sketch -->
    <title>intercom</title>
    <desc>Created with Sketch.</desc>
    <defs>
        <linearGradient x1="50%" y1="0%" x2="50%" y2="100%" id="linearGradient-1">
            <stop stop-color="#FFFFFF" stop-opacity="0.2" offset="0%"></stop>
            <stop stop-color="#000000" stop-opacity="0.2" offset="100%"></stop>
        </linearGradient>
        <path d="M552.268958,552.268958 C600,504.537813 600,431.458333 600,300 C600,168.541667 600,95.4621875 552.268958,47.7310417 C504.537813,0 431.458333,0 300,0 C168.541667,0 95.4621875,0 47.7310417,47.7310417 C0,95.4621875 0,168.541667 0,300 C0,431.458333 0,504.537813 47.7310417,552.268958 C95.4621875,600 168.541667,600 300,600 C431.458333,600 504.537813,600 552.268958,552.268958 Z" id="path-2"></path>
        <polygon id="path-3" points="0 399.8 400 399.8 400 0 0 0"></polygon>
    </defs>
    <g id="Page-1" stroke="none" stroke-width="1" fill="none" fill-rule="evenodd">
        <g id="intercom" transform="translate(3.000000, 3.000000)">
            <g id="Squircle2-Copy-6">
                <g id="Shape">
                    <use fill="#108AEE" xlink:href="#path-2"></use>
                    <use stroke="#000000" stroke-width="4.04" fill="url(#linearGradient-1)" xlink:href="#path-2"></use>
                </g>
            </g>
            <g id="Intercom_bue_symbol" opacity="0.9" transform="translate(100.000000, 100.000000)">
                <mask id="mask-4" fill="white">
                    <use xlink:href="#path-3"></use>
                </mask>
                <g id="Clip-2"></g>
                <path d="M346.666667,219.92 C346.666667,227.283333 340.696667,233.253333 333.333333,233.253333 C325.97,233.253333 320,227.283333 320,219.92 L320,100 C320,92.6366667 325.97,86.6666667 333.333333,86.6666667 C340.696667,86.6666667 346.666667,92.6366667 346.666667,100 L346.666667,219.92 L346.666667,219.92 Z M342.013333,303.376667 C339.953333,305.14 290.56,346.586667 200,346.586667 C109.44,346.586667 60.0466667,305.14 57.9866667,303.376667 C52.4,298.583333 51.75,290.166667 56.5433333,284.573333 C61.3233333,278.993333 69.72,278.333333 75.3133333,283.103333 C76.0966667,283.756667 120.2,319.92 200,319.92 C280.8,319.92 324.226667,283.496667 324.653333,283.13 C330.233333,278.336667 338.666667,278.98 343.456667,284.573333 C348.25,290.166667 347.603333,298.583333 342.013333,303.376667 L342.013333,303.376667 Z M53.3333333,100 C53.3333333,92.6366667 59.3033333,86.6666667 66.6666667,86.6666667 C74.03,86.6666667 80,92.6366667 80,100 L80,219.92 C80,227.283333 74.03,233.253333 66.6666667,233.253333 C59.3033333,233.253333 53.3333333,227.283333 53.3333333,219.92 L53.3333333,100 L53.3333333,100 Z M120,73.3333333 C120,65.97 125.97,60 133.333333,60 C140.696667,60 146.666667,65.97 146.666667,73.3333333 L146.666667,251.46 C146.666667,258.823333 140.696667,264.793333 133.333333,264.793333 C125.97,264.793333 120,258.823333 120,251.46 L120,73.3333333 L120,73.3333333 Z M186.666667,66.5866667 C186.666667,59.2233333 192.636667,53.2533333 200,53.2533333 C207.363333,53.2533333 213.333333,59.2233333 213.333333,66.5866667 L213.333333,259.92 C213.333333,267.283333 207.363333,273.253333 200,273.253333 C192.636667,273.253333 186.666667,267.283333 186.666667,259.92 L186.666667,66.5866667 L186.666667,66.5866667 Z M253.333333,73.3333333 C253.333333,65.97 259.303333,60 266.666667,60 C274.03,60 280,65.97 280,73.3333333 L280,251.46 C280,258.823333 274.03,264.793333 266.666667,264.793333 C259.303333,264.793333 253.333333,258.823333 253.333333,251.46 L253.333333,73.3333333 L253.333333,73.3333333 Z M350,0 L50,0 C22.3833333,0 0,22.3866667 0,50 L0,350 C0,377.613333 22.3866667,400 50,400 L350,400 C377.613333,400 400,377.613333 400,350 L400,50 C400,22.3866667 377.613333,0 350,0 L350,0 Z" id="Fill-1" fill="#FFFFFF" mask="url(#mask-4)"></path>
            </g>
        </g>
    </g>
</svg>