<svg width="320" height="320" viewBox="0 0 320 320" fill="none" xmlns="http://www.w3.org/2000/svg">
<g clip-path="url(#clip0_1014_7047)">
<path d="M160 0C281.326 0 320 38.6737 320 160C320 281.326 281.326 320 160 320C38.6736 320 0 281.326 0 160C0 38.6737 38.6736 0 160 0Z" fill="url(#paint0_linear_1014_7047)"/>
<path d="M160 2C220.573 2 259.85 11.6833 284.083 35.9168C308.317 60.1504 318 99.4272 318 160C318 220.573 308.317 259.85 284.083 284.083C259.85 308.317 220.573 318 160 318C99.4272 318 60.1504 308.317 35.9168 284.083C11.6833 259.85 2 220.573 2 160C2 99.4272 11.6833 60.1504 35.9168 35.9168C60.1504 11.6833 99.4272 2 160 2Z" stroke="#F8FAFC" stroke-opacity="0.2" stroke-width="4"/>
<g clip-path="url(#clip1_1014_7047)">
<path d="M179.156 261.636L140.957 223.398L223.012 140.518L261.916 179.406L179.156 261.636Z" fill="#8AB4F8"/>
<path d="M179.432 96.9538L140.538 58.0566L58.0633 140.518C47.3197 151.251 47.3108 168.647 58.0455 179.389C58.0544 179.398 58.0633 179.406 58.0633 179.406L140.538 261.868L178.693 223.541L116.369 160.016L179.432 96.9538Z" fill="#4285F4"/>
<path d="M261.907 140.518L179.432 58.0564C168.689 47.3145 151.272 47.3145 140.529 58.0564C129.785 68.7984 129.785 86.2117 140.529 96.9447L223.048 179.406C233.792 190.148 251.208 190.148 261.942 179.406C272.686 168.664 272.686 151.251 261.942 140.518H261.907Z" fill="#8AB4F8"/>
<path d="M159.682 270C174.737 270 186.942 257.797 186.942 242.744C186.942 227.691 174.737 215.488 159.682 215.488C144.627 215.488 132.422 227.691 132.422 242.744C132.422 257.797 144.627 270 159.682 270Z" fill="#246FDB"/>
</g>
</g>
<defs>
<linearGradient id="paint0_linear_1014_7047" x1="160" y1="0" x2="160" y2="320" gradientUnits="userSpaceOnUse">
<stop stop-color="#475569"/>
<stop offset="1" stop-color="#1E293B"/>
</linearGradient>
<clipPath id="clip0_1014_7047">
<rect width="320" height="320" fill="white"/>
</clipPath>
<clipPath id="clip1_1014_7047">
<rect width="240" height="240" fill="white" transform="translate(40 40)"/>
</clipPath>
</defs>
</svg>
