<svg width="48" height="48" viewBox="0 0 48 48" fill="none" xmlns="http://www.w3.org/2000/svg">
<rect width="48" height="48" fill="url(#paint0_linear_337_1954)"/>
<path d="M32.6661 26.4748L33.854 28.8702C34.016 29.2036 34.448 29.5234 34.8125 29.5846L36.9654 29.9454C38.3423 30.1767 38.6663 31.1839 37.6742 32.1774L36.0003 33.865C35.7168 34.1509 35.5616 34.702 35.6493 35.0968L36.1286 37.1859C36.5066 38.8395 35.6358 39.4792 34.1847 38.6149L32.1668 37.4104C31.8023 37.1928 31.2015 37.1928 30.8304 37.4104L28.8123 38.6149C27.368 39.4792 26.4906 38.8327 26.8686 37.1859L27.3477 35.0968C27.4355 34.702 27.2802 34.1509 26.9969 33.865L25.323 32.1774C24.3375 31.1839 24.6548 30.1767 26.0316 29.9454L28.1847 29.5846C28.5423 29.5234 28.9743 29.2036 29.1363 28.8702L30.3242 26.4748C30.9722 25.1751 32.025 25.1751 32.6661 26.4748Z" stroke="white" stroke-width="2.25" stroke-linecap="round" stroke-linejoin="round"/>
<path d="M33 9V12M15 9V12" stroke="white" stroke-width="2.25" stroke-linecap="round" stroke-linejoin="round"/>
<path d="M38.2496 23.25C38.2436 17.4505 38.14 14.442 36.3719 12.5305C34.4937 10.5 31.4707 10.5 25.425 10.5H22.575C16.5292 10.5 13.5064 10.5 11.6282 12.5305C9.75 14.5609 9.75 17.8289 9.75 24.3648V25.1352C9.75 31.6711 9.75 34.9391 11.6282 36.9696C13.4189 38.9055 16.2502 38.9957 21.75 38.9999" stroke="white" stroke-width="2.25" stroke-linecap="round" stroke-linejoin="round"/>
<path d="M10.5 18H37.5" stroke="white" stroke-width="2.25" stroke-linecap="round" stroke-linejoin="round"/>
<defs>
<linearGradient id="paint0_linear_337_1954" x1="24" y1="0" x2="24" y2="48" gradientUnits="userSpaceOnUse">
<stop stop-color="#F43F5E"/>
<stop offset="1" stop-color="#BE123C"/>
</linearGradient>
</defs>
</svg>
