<?xml version="1.0" encoding="UTF-8"?>
<svg width="606px" height="606px" viewBox="0 0 606 606" version="1.1" xmlns="http://www.w3.org/2000/svg" xmlns:xlink="http://www.w3.org/1999/xlink">
    <!-- Generator: Sketch 40.2 (33826) - http://www.bohemiancoding.com/sketch -->
    <title>events</title>
    <desc>Created with Sketch.</desc>
    <defs>
        <linearGradient x1="50%" y1="0%" x2="50%" y2="100%" id="linearGradient-1">
            <stop stop-color="#FFFFFF" stop-opacity="0.2" offset="0%"></stop>
            <stop stop-color="#000000" stop-opacity="0.2" offset="100%"></stop>
        </linearGradient>
        <path d="M552.268958,552.268958 C600,504.537813 600,431.458333 600,300 C600,168.541667 600,95.4621875 552.268958,47.7310417 C504.537813,0 431.458333,0 300,0 C168.541667,0 95.4621875,0 47.7310417,47.7310417 C0,95.4621875 0,168.541667 0,300 C0,431.458333 0,504.537813 47.7310417,552.268958 C95.4621875,600 168.541667,600 300,600 C431.458333,600 504.537813,600 552.268958,552.268958 Z" id="path-2"></path>
    </defs>
    <g id="Page-1" stroke="none" stroke-width="1" fill="none" fill-rule="evenodd">
        <g id="events" transform="translate(3.000000, 3.000000)">
            <g id="Squircle2-Copy-6">
                <g id="Shape">
                    <use fill="#4F94E7" xlink:href="#path-2"></use>
                    <use stroke="#000000" stroke-width="4.04" fill="url(#linearGradient-1)" xlink:href="#path-2"></use>
                </g>
            </g>
            <g id="checked" opacity="0.9" transform="translate(126.000000, 117.000000)" fill="#FFFFFF">
                <g id="Capa_1">
                    <g id="Group">
                        <path d="M365.267256,60.2255976 C365.118476,58.0682805 365.192866,55.9853537 364.820915,53.8280366 C364.300183,49.5877927 363.33311,45.421939 361.919695,41.3304756 C356.266037,25.1134024 343.619695,11.6487683 327.774573,5.17681707 C325.766037,4.43291463 323.7575,3.61462195 321.748963,3.0195 C319.591646,2.49876829 317.73189,1.90364634 315.351402,1.53169512 L311.780671,1.01096341 L309.995305,0.787792683 L308.730671,0.713402439 L306.275793,0.564621951 L305.085549,0.490231707 L303.151402,0.490231707 L283.735549,0.564621951 L244.903841,0.639012195 C193.128232,0.713402439 141.427012,0.713402439 89.8001829,0.267060976 C80.6501829,0.192670732 66.2184756,2.79632927 61.6806707,4.58169512 C52.6794512,8.22681707 64.3587195,11.2768171 81.8404268,13.5829146 C139.492866,21.2451098 209.419695,24.5926707 280.611159,25.4853537 L296.679451,25.7085244 L304.192866,25.7829146 L308.209939,26.0060854 C309.325793,26.1548659 309.995305,26.3780366 310.962378,26.4524268 C318.773354,28.014622 326.361159,32.5524268 331.419695,38.8755976 C336.552622,45.2731585 339.230671,53.2329146 339.08189,61.3414512 L338.635549,93.4780366 C338.114817,136.326817 337.668476,179.175598 337.147744,222.098768 C336.998963,243.523159 336.850183,265.021939 336.701402,286.446329 L336.627012,302.514622 C336.701402,308.540232 336.403841,311.887793 335.511159,315.012183 C333.725793,322.228037 329.262378,328.774378 323.162378,333.089012 C320.112378,335.246329 316.764817,336.882915 313.194085,337.924378 C311.40872,338.44511 309.548963,338.742671 307.689207,339.040232 L304.862378,339.189012 C303.820915,339.263402 302.25872,339.189012 300.994085,339.263402 L268.70872,339.412183 C247.209939,339.635354 225.636768,339.858524 204.137988,340.081695 C182.787988,339.784134 161.512378,339.560963 140.162378,339.263402 L89.4282317,338.817061 L64.0611585,338.66828 L60.862378,338.66828 L59.3001829,338.66828 L59.0770122,338.66828 L58.4818902,338.66828 L55.2831098,338.5195 C54.6879878,338.5195 54.3904268,338.44511 54.1672561,338.37072 L53.3489634,338.221939 C52.3818902,338.147549 50.8940854,337.626817 49.4806707,337.329256 C48.1416463,336.808524 46.7282317,336.436573 45.4635976,335.767061 C40.2562805,333.386573 35.7928659,329.44389 32.5940854,324.682915 C29.4696951,319.847549 27.609939,314.342671 27.4611585,308.614622 L27.3867683,258.549988 C27.312378,224.776817 27.0892073,191.003646 26.7172561,157.304866 C26.4940854,140.41828 26.2709146,123.606085 26.0477439,106.79389 L25.452622,81.5755976 L25.2294512,68.9292561 L25.0806707,62.6060854 L25.0806707,61.7877927 L25.0806707,61.564622 L25.0806707,61.4902317 L25.0806707,61.4158415 L25.155061,60.0768171 C25.2294512,59.1097439 25.155061,57.7707195 25.3038415,57.1012073 C25.452622,56.4316951 25.5270122,55.6877927 25.6014024,55.0182805 C25.6757927,54.3487683 25.9733537,53.3816951 26.0477439,52.5634024 C26.1965244,51.7451098 26.4196951,50.9268171 26.7172561,50.1085244 C27.0148171,49.2902317 27.1635976,48.471939 27.4611585,47.7280366 C28.5770122,44.6036463 30.2879878,41.7768171 31.9989634,39.1731585 C35.6440854,34.114622 40.1075,30.171939 44.3477439,27.4195 C52.7538415,22.0634024 59.8209146,20.4268171 58.4818902,16.8560854 C57.8867683,15.4426707 55.655061,13.8060854 51.7867683,13.1365732 C47.9184756,12.2438902 42.3392073,12.3926707 35.7928659,14.4755976 C29.3209146,16.5585244 21.6587195,20.724378 15.3355488,28.014622 C8.9379878,35.2304756 3.87945122,45.2731585 2.8379878,57.621939 L2.61481707,60.8951098 L2.54042683,64.6890122 L2.39164634,71.3097439 L2.01969512,84.5512073 L1.57335366,111.108524 C1.27579268,128.813402 0.978231707,146.51828 0.755060976,164.223159 C0.234329268,199.632915 -0.0632317073,235.117061 0.0111585366,270.526817 L0.0855487805,291.876817 L0.159939024,302.589012 C0.159939024,304.448768 0.159939024,306.010963 0.234329268,308.09389 C0.383109756,310.325598 0.308719512,312.557305 0.755060976,314.789012 C1.94530488,323.715841 5.21847561,332.34511 10.2770122,339.784134 C15.3355488,347.148768 22.105061,353.397549 29.9160366,357.786573 C31.8501829,358.902427 33.9331098,359.79511 35.9416463,360.762183 C38.0245732,361.506085 40.1075,362.398768 42.2648171,362.99389 C44.4965244,363.514622 46.4306707,364.184134 49.0343293,364.481695 L52.6794512,365.002427 C53.9440854,365.151207 54.5392073,365.076817 55.5062805,365.151207 L58.7794512,365.299988 L61.4575,365.299988 L66.8135976,365.225598 L77.4514024,365.151207 L120.151402,364.779256 C177.059939,364.258524 233.968476,363.663402 290.877012,363.142671 L300.473354,363.514622 C302.109939,363.589012 303.523354,363.663402 305.4575,363.663402 C307.391646,363.589012 309.325793,363.663402 311.259939,363.440232 C319.070915,362.77072 326.73311,360.390232 333.651402,356.521939 C347.487988,348.859744 358.125793,335.023159 361.696524,319.178037 C363.705061,309.358524 363.035549,304.225598 363.4075,297.530476 L363.853841,278.263402 C364.077012,265.39389 364.300183,252.524378 364.523354,239.654866 C365.267256,188.176817 365.564817,136.549988 365.564817,84.774378 L365.564817,65.3585244 L365.564817,62.9036463 C365.341646,62.1597439 365.341646,61.4158415 365.267256,60.2255976 L365.267256,60.2255976 Z" id="Shape"></path>
                        <path d="M139.046524,250.515841 L139.046524,250.515841 C143.212378,255.276817 150.428232,255.871939 155.189207,251.706085 L156.528232,250.515841 C173.042866,236.307305 189.259939,221.652427 203.542866,205.063402 C206.518476,202.534134 209.494085,200.004866 212.320915,197.475598 C230.620915,181.035354 248.325793,163.999988 263.501402,144.584134 C267.816037,139.079256 269.527012,132.607305 264.394085,128.14389 C259.7075,124.126817 253.012378,124.349988 247.43311,128.887793 C237.464817,136.996329 227.273354,145.104866 218.272134,154.329256 C203.766037,169.132915 190.152622,184.754866 176.241646,200.004866 C166.198963,206.253646 156.974573,213.54389 148.270915,221.280476 C136.740427,209.824378 124.986768,198.665841 114.125793,186.689012 C113.009939,185.424378 109.290427,185.424378 107.430671,186.09389 C103.711159,187.507305 103.041646,191.152427 103.636768,195.09511 C105.570915,207.964622 112.191646,219.346329 120.672134,229.091451 L139.046524,250.515841 L139.046524,250.515841 Z" id="Shape"></path>
                    </g>
                </g>
            </g>
        </g>
    </g>
</svg>