<svg width="320" height="320" viewBox="0 0 320 320" fill="none" xmlns="http://www.w3.org/2000/svg">
<g clip-path="url(#clip0_1004_6920)">
<path d="M160 0C281.326 0 320 38.6737 320 160C320 281.326 281.326 320 160 320C38.6736 320 0 281.326 0 160C0 38.6737 38.6736 0 160 0Z" fill="url(#paint0_linear_1004_6920)"/>
<path d="M160 2C220.573 2 259.85 11.6833 284.083 35.9168C308.317 60.1504 318 99.4272 318 160C318 220.573 308.317 259.85 284.083 284.083C259.85 308.317 220.573 318 160 318C99.4272 318 60.1504 308.317 35.9168 284.083C11.6833 259.85 2 220.573 2 160C2 99.4272 11.6833 60.1504 35.9168 35.9168C60.1504 11.6833 99.4272 2 160 2Z" stroke="#0F172A" stroke-opacity="0.2" stroke-width="4"/>
<g clip-path="url(#clip1_1004_6920)">
<path fill-rule="evenodd" clip-rule="evenodd" d="M60 160C60 148.444 60.4639 137.979 61.4648 128.525C61.9851 123.609 66.2086 120 71.1517 120H248.848C253.791 120 258.015 123.609 258.535 128.525C259.536 137.979 260 148.444 260 160C260 243.412 235.829 270 160 270C84.171 270 60 243.412 60 160ZM172.554 150.438C167.419 140.032 152.581 140.032 147.446 150.438L142.685 160.084C140.646 164.216 136.704 167.08 132.144 167.743L121.498 169.29C110.015 170.958 105.43 185.07 113.739 193.169L121.442 200.678C124.742 203.894 126.248 208.528 125.469 213.07L123.65 223.672C121.689 235.109 133.693 243.83 143.964 238.431L153.485 233.425C157.564 231.281 162.436 231.281 166.515 233.425L176.036 238.431C186.307 243.83 198.311 235.109 196.35 223.672L194.531 213.07C193.752 208.528 195.258 203.894 198.558 200.678L206.261 193.169C214.57 185.07 209.985 170.958 198.502 169.29L187.856 167.743C183.296 167.08 179.354 164.216 177.315 160.084L172.554 150.438Z" fill="url(#paint1_linear_1004_6920)"/>
<path fill-rule="evenodd" clip-rule="evenodd" d="M160 50C215.201 50 243.026 64.0902 254.08 103.935C254.935 107.018 252.555 110 249.356 110H70.6428C67.4438 110 65.0635 107.018 65.9187 103.935C76.9725 64.0902 104.798 50 160 50ZM129.999 70C124.476 70 119.999 74.4772 119.999 80C119.999 85.5228 124.476 90 129.999 90H189.999C195.522 90 199.999 85.5228 199.999 80C199.999 74.4772 195.522 70 189.999 70H129.999Z" fill="url(#paint2_linear_1004_6920)"/>
<path d="M155.516 154.085C157.35 150.369 162.65 150.369 164.484 154.085L173.531 172.417C174.26 173.893 175.667 174.916 177.296 175.153L197.527 178.092C201.628 178.688 203.266 183.728 200.298 186.621L185.659 200.891C184.48 202.039 183.943 203.694 184.221 205.316L187.677 225.466C188.377 229.55 184.09 232.665 180.422 230.736L162.327 221.223C160.87 220.457 159.13 220.457 157.673 221.223L139.578 230.736C135.91 232.665 131.623 229.55 132.323 225.466L135.779 205.316C136.057 203.694 135.52 202.039 134.341 200.891L119.702 186.621C116.734 183.728 118.372 178.688 122.473 178.092L142.704 175.153C144.333 174.916 145.74 173.893 146.469 172.417L155.516 154.085Z" fill="url(#paint3_linear_1004_6920)"/>
</g>
</g>
<defs>
<linearGradient id="paint0_linear_1004_6920" x1="160" y1="0" x2="160" y2="320" gradientUnits="userSpaceOnUse">
<stop stop-color="#F8FAFC"/>
<stop offset="1" stop-color="#E2E8F0"/>
</linearGradient>
<linearGradient id="paint1_linear_1004_6920" x1="160" y1="120" x2="160" y2="270" gradientUnits="userSpaceOnUse">
<stop stop-color="#7DD3FC"/>
<stop offset="1" stop-color="#0EA5E9"/>
</linearGradient>
<linearGradient id="paint2_linear_1004_6920" x1="160" y1="50" x2="160" y2="110" gradientUnits="userSpaceOnUse">
<stop stop-color="#FB7185"/>
<stop offset="1" stop-color="#F43F5E"/>
</linearGradient>
<linearGradient id="paint3_linear_1004_6920" x1="160" y1="145" x2="160" y2="245" gradientUnits="userSpaceOnUse">
<stop stop-color="#FB923C"/>
<stop offset="1" stop-color="#EA580C"/>
</linearGradient>
<clipPath id="clip0_1004_6920">
<rect width="320" height="320" fill="white"/>
</clipPath>
<clipPath id="clip1_1004_6920">
<rect width="240" height="240" fill="white" transform="translate(40 40)"/>
</clipPath>
</defs>
</svg>
