<?xml version="1.0" encoding="UTF-8"?>
<svg width="64px" height="64px" viewBox="0 0 64 64" version="1.1" xmlns="http://www.w3.org/2000/svg" xmlns:xlink="http://www.w3.org/1999/xlink">
    <!-- Generator: Sketch 55 (78076) - https://sketchapp.com -->
    <title>events</title>
    <desc>Created with Sketch.</desc>
    <defs>
        <path d="M32,64 C46.0222222,64 53.8173667,64 58.9086889,58.9086889 C64,53.8173667 64,46.0222222 64,32 C64,17.9777778 64,10.1826333 58.9086889,5.09131111 C53.8173667,0 46.0222222,0 32,0 C17.9777778,0 10.1826333,0 5.09131111,5.09131111 C0,10.1826333 0,17.9777778 0,32 C0,46.0222222 0,53.8173667 5.09131111,58.9086889 C10.1826333,64 17.9777778,64 32,64 Z" id="path-1"></path>
        <linearGradient x1="50%" y1="0%" x2="50%" y2="100%" id="linearGradient-3">
            <stop stop-color="#FDFEFF" offset="0%"></stop>
            <stop stop-color="#FBFCFD" stop-opacity="0.9" offset="100%"></stop>
        </linearGradient>
        <path d="M0,36.25 C0,38.3203125 1.6796875,40 3.75,40 L31.25,40 C33.3203125,40 35,38.3203125 35,36.25 L35,15 L0,15 L0,36.25 Z M5,21.25 C5,20.5625 5.5625,20 6.25,20 L13.75,20 C14.4375,20 15,20.5625 15,21.25 L15,28.75 C15,29.4375 14.4375,30 13.75,30 L6.25,30 C5.5625,30 5,29.4375 5,28.75 L5,21.25 Z M31.25,5 L27.5,5 L27.5,1.25 C27.5,0.5625 26.9375,0 26.25,0 L23.75,0 C23.0625,0 22.5,0.5625 22.5,1.25 L22.5,5 L12.5,5 L12.5,1.25 C12.5,0.5625 11.9375,0 11.25,0 L8.75,0 C8.0625,0 7.5,0.5625 7.5,1.25 L7.5,5 L3.75,5 C1.6796875,5 0,6.6796875 0,8.75 L0,12.5 L35,12.5 L35,8.75 C35,6.6796875 33.3203125,5 31.25,5 Z" id="path-4"></path>
        <filter x="-5.7%" y="-2.5%" width="111.4%" height="110.0%" filterUnits="objectBoundingBox" id="filter-5">
            <feOffset dx="0" dy="1" in="SourceAlpha" result="shadowOffsetOuter1"></feOffset>
            <feGaussianBlur stdDeviation="0.5" in="shadowOffsetOuter1" result="shadowBlurOuter1"></feGaussianBlur>
            <feColorMatrix values="0 0 0 0 0   0 0 0 0 0   0 0 0 0 0  0 0 0 0.1 0" type="matrix" in="shadowBlurOuter1"></feColorMatrix>
        </filter>
    </defs>
    <g id="Page-1" stroke="none" stroke-width="1" fill="none" fill-rule="evenodd">
        <g id="Artboard" transform="translate(-1717.000000, -430.000000)">
            <g id="events" transform="translate(1717.000000, 430.000000)">
                <mask id="mask-2" fill="white">
                    <use xlink:href="#path-1"></use>
                </mask>
                <use id="Path" fill="#00B356" xlink:href="#path-1"></use>
                <g id="calendar-day" mask="url(#mask-2)" fill-rule="nonzero">
                    <g transform="translate(15.000000, 12.000000)" id="Shape">
                        <g>
                            <use fill="black" fill-opacity="1" filter="url(#filter-5)" xlink:href="#path-4"></use>
                            <use fill="url(#linearGradient-3)" xlink:href="#path-4"></use>
                        </g>
                    </g>
                </g>
            </g>
        </g>
    </g>
</svg>