<?xml version="1.0" encoding="UTF-8"?>
<svg width="606px" height="606px" viewBox="0 0 606 606" version="1.1" xmlns="http://www.w3.org/2000/svg" xmlns:xlink="http://www.w3.org/1999/xlink">
    <!-- Generator: Sketch 40.2 (33826) - http://www.bohemiancoding.com/sketch -->
    <title>events</title>
    <desc>Created with Sketch.</desc>
    <defs>
        <linearGradient x1="50%" y1="0%" x2="50%" y2="100%" id="linearGradient-1">
            <stop stop-color="#FFFFFF" stop-opacity="0.2" offset="0%"></stop>
            <stop stop-color="#000000" stop-opacity="0.2" offset="100%"></stop>
        </linearGradient>
        <path d="M552.268958,552.268958 C600,504.537813 600,431.458333 600,300 C600,168.541667 600,95.4621875 552.268958,47.7310417 C504.537813,0 431.458333,0 300,0 C168.541667,0 95.4621875,0 47.7310417,47.7310417 C0,95.4621875 0,168.541667 0,300 C0,431.458333 0,504.537813 47.7310417,552.268958 C95.4621875,600 168.541667,600 300,600 C431.458333,600 504.537813,600 552.268958,552.268958 Z" id="path-2"></path>
    </defs>
    <g id="Page-1" stroke="none" stroke-width="1" fill="none" fill-rule="evenodd">
        <g id="events" transform="translate(3.000000, 3.000000)">
            <g id="Squircle2-Copy-6">
                <g id="Shape">
                    <use fill="#458EE5" xlink:href="#path-2"></use>
                    <use stroke="#000000" stroke-width="4.04" fill="url(#linearGradient-1)" xlink:href="#path-2"></use>
                </g>
            </g>
            <g id="android-calendar" opacity="0.9" transform="translate(101.000000, 101.000000)" fill="#FFFFFF">
                <g id="Layer_1">
                    <path d="M315.067358,215.544041 L215.585492,215.544041 L215.585492,315.025907 L315.067358,315.025907 L315.067358,215.544041 L315.067358,215.544041 Z M281.906736,0 L281.906736,33.1606218 L116.103627,33.1606218 L116.103627,0 L66.3626943,0 L66.3626943,33.1606218 L41.4818653,33.1606218 C18.6818653,33.1606218 0.0310880829,51.811399 0.0310880829,74.611399 L0.0310880829,356.476684 C0.0310880829,379.276684 18.6818653,397.927461 41.4818653,397.927461 L356.518135,397.927461 C379.318135,397.927461 397.968912,379.276684 397.968912,356.476684 L397.968912,74.611399 C397.968912,51.811399 379.318135,33.1606218 356.518135,33.1606218 L331.647668,33.1606218 L331.647668,0 L281.906736,0 L281.906736,0 Z M356.518135,356.476684 L41.4818653,356.476684 L41.4818653,136.787565 L356.518135,136.787565 L356.518135,356.476684 L356.518135,356.476684 Z" id="Shape"></path>
                </g>
            </g>
        </g>
    </g>
</svg>