<svg width="48" height="48" viewBox="0 0 48 48" fill="none" xmlns="http://www.w3.org/2000/svg">
<rect width="48" height="48" fill="url(#paint0_linear_337_2012)"/>
<path d="M33 36.75C34.3332 36.4506 35.3457 35.9583 36.1632 35.149C38.25 33.0831 38.25 29.7579 38.25 23.1075C38.25 16.4572 38.25 13.132 36.1632 11.066C34.0763 9 30.7175 9 24 9C17.2825 9 13.9237 9 11.8369 11.066C9.75 13.132 9.75 16.4572 9.75 23.1075C9.75 29.7579 9.75 33.0831 11.8369 35.149C12.6543 35.9583 13.6669 36.4506 15 36.75" stroke="white" stroke-width="2.25" stroke-linecap="round"/>
<path d="M9.75 18.75H38.25" stroke="white" stroke-width="2.25" stroke-linejoin="round"/>
<path d="M16.4998 14.25H16.5132" stroke="white" stroke-width="3" stroke-linecap="round" stroke-linejoin="round"/>
<path d="M22.4998 14.25H22.5133" stroke="white" stroke-width="3" stroke-linecap="round" stroke-linejoin="round"/>
<path d="M23.9987 25.5C21.8616 25.5 20.4759 26.8628 18.8371 27.3596C18.1708 27.5616 17.8376 27.6626 17.7027 27.8049C17.5679 27.9473 17.5284 28.1553 17.4495 28.5714C16.6044 33.0235 18.4514 37.1397 22.8563 38.7418C23.3295 38.9139 23.5662 39 24.0011 39C24.4359 39 24.6726 38.9139 25.1459 38.7418C29.5503 37.1397 31.3956 33.0235 30.5504 28.5714C30.4713 28.1551 30.4319 27.9471 30.297 27.8047C30.1622 27.6624 29.829 27.5615 29.1627 27.3596C27.5232 26.8629 26.1359 25.5 23.9987 25.5Z" stroke="white" stroke-width="2.25" stroke-linecap="round" stroke-linejoin="round"/>
<defs>
<linearGradient id="paint0_linear_337_2012" x1="24" y1="0" x2="24" y2="48" gradientUnits="userSpaceOnUse">
<stop stop-color="#71717A"/>
<stop offset="1" stop-color="#52525B"/>
</linearGradient>
</defs>
</svg>
