<?xml version="1.0" encoding="UTF-8" standalone="no"?>
<!DOCTYPE svg PUBLIC "-//W3C//DTD SVG 1.1//EN" "http://www.w3.org/Graphics/SVG/1.1/DTD/svg11.dtd">
<svg width="100%" height="100%" viewBox="0 0 64 64" version="1.1" xmlns="http://www.w3.org/2000/svg" xmlns:xlink="http://www.w3.org/1999/xlink" xml:space="preserve" xmlns:serif="http://www.serif.com/" style="fill-rule:evenodd;clip-rule:evenodd;stroke-linejoin:round;stroke-miterlimit:2;">
    <g transform="matrix(1,0,0,1,-363,-64)">
        <g id="tasks" transform="matrix(1,0,0,1,363,64)">
            <path id="Path" d="M32,64C46.022,64 53.817,64 58.909,58.909C64,53.817 64,46.022 64,32C64,17.978 64,10.183 58.909,5.091C53.817,0 46.022,0 32,0C17.978,0 10.183,0 5.091,5.091C0,10.183 0,17.978 0,32C0,46.022 0,53.817 5.091,58.909C10.183,64 17.978,64 32,64Z" style="fill:rgb(0,179,86);"/>
            <g id="tasks1" serif:id="tasks" transform="matrix(0.0859375,0,0,0.0859375,32,31)">
                <g transform="matrix(1,0,0,1,-256,-256)">
                    <path d="M496,384L208,384C199.223,384 192,391.223 192,400L192,432C192,440.777 199.223,448 208,448L496,448C504.777,448 512,440.777 512,432L512,400C512,391.223 504.777,384 496,384ZM496,64L208,64C199.223,64 192,71.223 192,80L192,112C192,120.777 199.223,128 208,128L496,128C504.777,128 512,120.777 512,112L512,80C512,71.223 504.777,64 496,64ZM496,224L208,224C199.223,224 192,231.223 192,240L192,272C192,280.777 199.223,288 208,288L496,288C504.777,288 512,280.777 512,272L512,240C512,231.223 504.777,224 496,224Z" style="fill:white;fill-opacity:0.4;fill-rule:nonzero;"/>
                    <path d="M139.61,35.5C137.359,33.241 134.299,31.971 131.11,31.971C127.921,31.971 124.861,33.241 122.61,35.5L58.93,98.81L36.23,76.69C33.979,74.431 30.919,73.161 27.73,73.161C24.541,73.161 21.481,74.431 19.23,76.69L3.53,92.41C1.271,94.661 0.001,97.721 0.001,100.91C0.001,104.099 1.271,107.159 3.53,109.41L51.12,156.81C56.025,161.472 63.825,161.472 68.73,156.81L84.32,141.19L156.52,69C161.171,64.345 161.212,56.704 156.61,52L139.61,35.5ZM139.61,194.69C137.359,192.431 134.299,191.161 131.11,191.161C127.921,191.161 124.861,192.431 122.61,194.69L58.93,258.41L36.23,236.31C33.979,234.051 30.919,232.781 27.73,232.781C24.541,232.781 21.481,234.051 19.23,236.31L3.53,252C1.271,254.251 0.001,257.311 0.001,260.5C0.001,263.689 1.271,266.749 3.53,269L51,316.5C55.901,321.161 63.699,321.161 68.6,316.5L84.3,300.81L156.5,228.59C161.134,223.967 161.174,216.362 156.59,211.69L139.61,194.69ZM64,368C37.51,368 15.41,389.5 15.41,416C15.41,442.5 37.53,464 64,464C90.332,464 112,442.332 112,416C112,389.668 90.332,368 64,368Z" style="fill:white;fill-rule:nonzero;"/>
                </g>
            </g>
        </g>
    </g>
</svg>
