<?xml version="1.0"?>
<svg width="64" height="64" xmlns="http://www.w3.org/2000/svg" xmlns:svg="http://www.w3.org/2000/svg" xmlns:xlink="http://www.w3.org/1999/xlink">
 <!-- Generator: Sketch 54.1 (76490) - https://sketchapp.com -->
 <title>posts</title>
 <desc>Created with Sketch.</desc>
 <defs>
  <path id="path-1" d="m32,64c14.02222,0 21.81737,0 26.90869,-5.09131c5.09131,-5.09132 5.09131,-12.88647 5.09131,-26.90869c0,-14.02222 0,-21.81737 -5.09131,-26.90869c-5.09132,-5.09131 -12.88647,-5.09131 -26.90869,-5.09131c-14.02222,0 -21.81737,0 -26.90869,5.09131c-5.09131,5.09132 -5.09131,12.88647 -5.09131,26.90869c0,14.02222 0,21.81737 5.09131,26.90869c5.09132,5.09131 12.88647,5.09131 26.90869,5.09131z"/>
  <linearGradient id="linearGradient-3" y2="100%" x2="50%" y1="0%" x1="50%">
   <stop offset="0%" stop-color="#FDFEFF"/>
   <stop offset="100%" stop-opacity="0.9" stop-color="#FBFCFD"/>
  </linearGradient>
  <path id="path-4" d="m17.77778,10.625l0,-10.625l-15.87302,0c-1.05555,0 -1.90476,0.83594 -1.90476,1.875l0,36.25c0,1.03906 0.84921,1.875 1.90476,1.875l26.66667,0c1.05555,0 1.90476,-0.83594 1.90476,-1.875l0,-25.625l-10.79365,0c-1.04762,0 -1.90476,-0.84375 -1.90476,-1.875zm5.07936,18.4375c0,0.51563 -0.42857,0.9375 -0.95238,0.9375l-13.33333,0c-0.52381,0 -0.95238,-0.42187 -0.95238,-0.9375l0,-0.625c0,-0.51562 0.42857,-0.9375 0.95238,-0.9375l13.33333,0c0.52381,0 0.95238,0.42188 0.95238,0.9375l0,0.625zm0,-5c0,0.51563 -0.42857,0.9375 -0.95238,0.9375l-13.33333,0c-0.52381,0 -0.95238,-0.42187 -0.95238,-0.9375l0,-0.625c0,-0.51562 0.42857,-0.9375 0.95238,-0.9375l13.33333,0c0.52381,0 0.95238,0.42188 0.95238,0.9375l0,0.625zm0,-5.625l0,0.625c0,0.51563 -0.42857,0.9375 -0.95238,0.9375l-13.33333,0c-0.52381,0 -0.95238,-0.42187 -0.95238,-0.9375l0,-0.625c0,-0.51562 0.42857,-0.9375 0.95238,-0.9375l13.33333,0c0.52381,0 0.95238,0.42188 0.95238,0.9375zm7.61905,-8.91406l0,0.47656l-10.15873,0l0,-10l0.48413,0c0.50793,0 0.99206,0.19531 1.3492,0.54688l7.76984,7.65625c0.35715,0.35156 0.55556,0.82812 0.55556,1.32031z"/>
  <filter id="filter-5" filterUnits="objectBoundingBox" height="110.0%" width="113.1%" y="-2.5%" x="-6.6%">
   <feGaussianBlur stdDeviation="0.5"/>
  </filter>
  <symbol id="svg_5" viewBox="0 0 512 512" xmlns="http://www.w3.org/2000/svg">
   <path d="m139.61,35.5a12,12 0 0 0 -17,0l-63.68,63.31l-22.7,-22.12a12,12 0 0 0 -17,0l-15.7,15.72a12,12 0 0 0 0,17l47.59,47.4a12.78,12.78 0 0 0 17.61,0l15.59,-15.62l72.2,-72.19a12.09,12.09 0 0 0 0.09,-17l-17,-16.5zm17,175.69a12,12 0 0 0 -17,0l-63.68,63.72l-22.7,-22.1a12,12 0 0 0 -17,0l-32.7,-0.81a12,12 0 0 0 0,17l47.47,47.5a12.77,12.77 0 0 0 17.6,0l15.7,-15.69l72.2,-72.22a12,12 0 0 0 0.09,-16.9l0.02,-0.5zm-92.59,156.31c-26.49,0 -48.59,21.5 -48.59,48s22.1,48.5 48.57,48.5a48,48 0 0 0 0,-96l0.02,-0.5zm524.59,-140.31l-380.61,0a16,16 0 0 0 -16,16l0,32a16,16 0 0 0 16,16l288,0a16,16 0 0 0 16,-16l0,-32a16,16 0 0 0 -16,-16l92.61,0zm0,-320l-380.61,0a16,16 0 0 0 -16,16l0,32a16,16 0 0 0 16,16l288,0a16,16 0 0 0 16,-16l0,124.81a16,16 0 0 0 -16,-16l92.61,-156.81zm0,160l-380.61,0a16,16 0 0 0 -16,16l0,32a16,16 0 0 0 16,16l288,0a16,16 0 0 0 16,-16l0,-32a16,16 0 0 0 -16,-16l92.61,0z"/>
  </symbol>
 </defs>
 <g class="layer">
  <title>Layer 1</title>
  <g fill-rule="evenodd" fill="none" id="Page-1">
   <g id="Artboard">
    <g id="posts">
     <mask transform="translate(340,430) translate(-340,-430) " id="mask-2">
      <use id="svg_1" xlink:href="#path-1"/>
     </mask>
     <use x="0" y="0" xlink:href="#path-1" fill="#00B356" id="Path"/>
     <g fill-rule="nonzero" mask="url(#mask-2)" id="file-alt">
      <g id="Shape">
       <g id="svg_2">
        <use id="svg_3" x="17" y="12" xlink:href="#path-4" filter="url(#filter-5)" fill="black"/>
        <use id="svg_4" x="17" y="12" xlink:href="#path-4" fill="url(#linearGradient-3)"/>
       </g>
      </g>
     </g>
    </g>
   </g>
  </g>
  <use fill="#ffffff" x="-3.374039" y="0" transform="matrix(0.5927614547638527,0,0,0.5688719521623433,13.226237438028988,18.769165400225347) " xlink:href="#svg_5" id="svg_6"/>
  <g id="svg_7"/>
 </g>
</svg>