<svg width="320" height="320" viewBox="0 0 320 320" fill="none" xmlns="http://www.w3.org/2000/svg">
<g clip-path="url(#clip0_711_11297)">
<path d="M160 0C281.326 0 320 38.6737 320 160C320 281.326 281.326 320 160 320C38.6736 320 0 281.326 0 160C0 38.6737 38.6736 0 160 0Z" fill="url(#paint0_linear_711_11297)"/>
<path d="M160 2C220.573 2 259.85 11.6833 284.083 35.9168C308.317 60.1504 318 99.4272 318 160C318 220.573 308.317 259.85 284.083 284.083C259.85 308.317 220.573 318 160 318C99.4272 318 60.1504 308.317 35.9168 284.083C11.6833 259.85 2 220.573 2 160C2 99.4272 11.6833 60.1504 35.9168 35.9168C60.1504 11.6833 99.4272 2 160 2Z" stroke="#F8FAFC" stroke-opacity="0.2" stroke-width="4"/>
<g clip-path="url(#clip1_711_11297)">
<path fill-rule="evenodd" clip-rule="evenodd" d="M155 220C155 178.294 141.706 165 100 165C58.2941 165 45 178.294 45 220C45 261.706 58.2941 275 100 275C141.706 275 155 261.706 155 220ZM145 220C145 185.877 134.123 175 100 175C65.877 175 55 185.877 55 220C55 254.123 65.877 265 100 265C134.123 265 145 254.123 145 220Z" fill="url(#paint1_linear_711_11297)"/>
<path fill-rule="evenodd" clip-rule="evenodd" d="M135 220C135 193.46 126.54 185 100 185C73.4599 185 65 193.46 65 220C65 246.54 73.4599 255 100 255C126.54 255 135 246.54 135 220ZM123.305 204.694C127.162 208.552 124.703 213.47 113.131 225.042C107.878 230.295 103.996 233.67 100.962 235.429C100.847 235.496 100.732 235.563 100.617 235.631C99.7171 236.158 98.8052 236.692 97.8006 236.953C94.5789 237.788 90.5712 235.198 83.7388 228.365C74.7381 219.365 73.0987 215.266 76.9561 211.409C80.8135 207.551 84.9121 209.191 93.9128 218.191C95.5315 219.81 98.2067 219.776 99.7835 218.117C100.754 217.096 101.811 216.015 102.957 214.868C114.529 203.296 119.447 200.837 123.305 204.694Z" fill="url(#paint2_linear_711_11297)"/>
<path fill-rule="evenodd" clip-rule="evenodd" d="M275 220C275 178.294 261.706 165 220 165C178.294 165 165 178.294 165 220C165 261.706 178.294 275 220 275C261.706 275 275 261.706 275 220ZM265 220C265 185.877 254.123 175 220 175C185.877 175 175 185.877 175 220C175 254.123 185.877 265 220 265C254.123 265 265 254.123 265 220Z" fill="url(#paint3_linear_711_11297)"/>
<path fill-rule="evenodd" clip-rule="evenodd" d="M255 220C255 193.46 246.54 185 220 185C193.46 185 185 193.46 185 220C185 246.54 193.46 255 220 255C246.54 255 255 246.54 255 220ZM243.305 204.694C247.162 208.552 244.703 213.47 233.131 225.042C227.878 230.295 223.996 233.67 220.962 235.429C220.847 235.496 220.732 235.563 220.617 235.631C219.717 236.158 218.805 236.692 217.801 236.953C214.579 237.788 210.571 235.198 203.739 228.365C194.738 219.365 193.099 215.266 196.956 211.409C200.814 207.551 204.912 209.191 213.913 218.191C215.531 219.81 218.207 219.776 219.783 218.117C220.754 217.096 221.811 216.015 222.957 214.868C234.529 203.296 239.447 200.837 243.305 204.694Z" fill="url(#paint4_linear_711_11297)"/>
<path fill-rule="evenodd" clip-rule="evenodd" d="M155 100C155 58.2941 141.706 45 100 45C58.2941 45 45 58.2941 45 100C45 141.706 58.2941 155 100 155C141.706 155 155 141.706 155 100ZM145 100C145 65.8769 134.123 55 99.9997 55C65.8767 55 54.9997 65.8769 54.9997 100C54.9997 134.123 65.8767 145 99.9997 145C134.123 145 145 134.123 145 100Z" fill="url(#paint5_linear_711_11297)"/>
<path fill-rule="evenodd" clip-rule="evenodd" d="M275 100C275 58.2941 261.706 45 220 45C178.294 45 165 58.2941 165 100C165 141.706 178.294 155 220 155C261.706 155 275 141.706 275 100ZM265 100C265 65.877 254.123 55 220 55C185.877 55 175 65.877 175 100C175 134.123 185.877 145 220 145C254.123 145 265 134.123 265 100Z" fill="url(#paint6_linear_711_11297)"/>
<path d="M220 65C246.54 65 255 73.4599 255 100C255 126.54 246.54 135 220 135C193.46 135 185 126.54 185 100C185 73.4599 193.46 65 220 65Z" fill="url(#paint7_linear_711_11297)"/>
</g>
</g>
<defs>
<linearGradient id="paint0_linear_711_11297" x1="160" y1="0" x2="160" y2="320" gradientUnits="userSpaceOnUse">
<stop stop-color="#475569"/>
<stop offset="1" stop-color="#1E293B"/>
</linearGradient>
<linearGradient id="paint1_linear_711_11297" x1="100" y1="165" x2="100" y2="275" gradientUnits="userSpaceOnUse">
<stop stop-color="#94A3B8"/>
<stop offset="1" stop-color="#64748B"/>
</linearGradient>
<linearGradient id="paint2_linear_711_11297" x1="100" y1="185" x2="100" y2="255" gradientUnits="userSpaceOnUse">
<stop stop-color="#FB923C"/>
<stop offset="1" stop-color="#EA580C"/>
</linearGradient>
<linearGradient id="paint3_linear_711_11297" x1="220" y1="165" x2="220" y2="275" gradientUnits="userSpaceOnUse">
<stop stop-color="#94A3B8"/>
<stop offset="1" stop-color="#64748B"/>
</linearGradient>
<linearGradient id="paint4_linear_711_11297" x1="220" y1="185" x2="220" y2="255" gradientUnits="userSpaceOnUse">
<stop stop-color="#60A5FA"/>
<stop offset="1" stop-color="#2563EB"/>
</linearGradient>
<linearGradient id="paint5_linear_711_11297" x1="100" y1="45" x2="100" y2="155" gradientUnits="userSpaceOnUse">
<stop stop-color="#94A3B8"/>
<stop offset="1" stop-color="#64748B"/>
</linearGradient>
<linearGradient id="paint6_linear_711_11297" x1="220" y1="45" x2="220" y2="155" gradientUnits="userSpaceOnUse">
<stop stop-color="#94A3B8"/>
<stop offset="1" stop-color="#64748B"/>
</linearGradient>
<linearGradient id="paint7_linear_711_11297" x1="220" y1="65" x2="220" y2="135" gradientUnits="userSpaceOnUse">
<stop stop-color="#FB7185"/>
<stop offset="1" stop-color="#E11D48"/>
</linearGradient>
<clipPath id="clip0_711_11297">
<rect width="320" height="320" fill="white"/>
</clipPath>
<clipPath id="clip1_711_11297">
<rect width="240" height="240" fill="white" transform="translate(40 40)"/>
</clipPath>
</defs>
</svg>
