<?xml version="1.0" encoding="UTF-8"?>
<svg width="606px" height="606px" viewBox="0 0 606 606" version="1.1" xmlns="http://www.w3.org/2000/svg" xmlns:xlink="http://www.w3.org/1999/xlink">
    <!-- Generator: Sketch 43.1 (39012) - http://www.bohemiancoding.com/sketch -->
    <title>una-connect</title>
    <desc>Created with Sketch.</desc>
    <defs>
        <linearGradient x1="50%" y1="0%" x2="50%" y2="100%" id="linearGradient-1">
            <stop stop-color="#FFFFFF" stop-opacity="0.2" offset="0%"></stop>
            <stop stop-color="#000000" stop-opacity="0.2" offset="100%"></stop>
        </linearGradient>
    </defs>
    <g id="Page-1" stroke="none" stroke-width="1" fill="none" fill-rule="evenodd">
        <g id="una-connect" transform="translate(3.000000, 3.000000)" fill-rule="nonzero">
            <g id="Squircle2-Copy-6">
                <g id="Shape">
                    <g id="path-2-link" fill="#FFFFFF">
                        <path d="M552.268958,552.268958 C600,504.537813 600,431.458333 600,300 C600,168.541667 600,95.4621875 552.268958,47.7310417 C504.537813,0 431.458333,0 300,0 C168.541667,0 95.4621875,0 47.7310417,47.7310417 C0,95.4621875 0,168.541667 0,300 C0,431.458333 0,504.537813 47.7310417,552.268958 C95.4621875,600 168.541667,600 300,600 C431.458333,600 504.537813,600 552.268958,552.268958 Z" id="path-2"></path>
                    </g>
                    <g id="path-2-link" stroke="#000000" stroke-width="4.04" fill="url(#linearGradient-1)">
                        <path d="M552.268958,552.268958 C600,504.537813 600,431.458333 600,300 C600,168.541667 600,95.4621875 552.268958,47.7310417 C504.537813,0 431.458333,0 300,0 C168.541667,0 95.4621875,0 47.7310417,47.7310417 C0,95.4621875 0,168.541667 0,300 C0,431.458333 0,504.537813 47.7310417,552.268958 C95.4621875,600 168.541667,600 300,600 C431.458333,600 504.537813,600 552.268958,552.268958 Z" id="path-2"></path>
                    </g>
                </g>
            </g>
            <g id="logosvg-animated-copy" transform="translate(100.000000, 100.000000)" opacity="0.800000012">
                <g id="icon_170228_110726">
                    <circle id="Oval" fill="#000000" cx="200" cy="200" r="200"></circle>
                    <path d="M303.953006,123.026752 L213.694957,70.6770834 C205.571733,66.1641809 192.935606,66.1641809 184.812381,70.6770834 L94.554332,123.026752 C87.3336883,128.442235 81.015625,139.273201 81.015625,148.299005 L81.015625,252.095762 C81.015625,261.121567 87.3336883,271.952533 95.4569125,276.465436 L185.714962,328.815104 C193.838187,333.328006 206.474313,333.328006 214.597537,328.815104 L304.855587,276.465436 C312.978812,271.952533 319.296875,261.121567 319.296875,252.095762 L319.296875,148.299005 C318.394295,139.273201 312.076231,128.442235 303.953006,123.026752 L303.953006,123.026752 Z M279.583334,179.889323 L270.557528,179.889323 L270.557528,163.642874 C270.557528,151.909327 261.531723,147.396425 243.480113,147.396425 L242.577533,147.396425 C199.25367,147.396425 202.863991,131.149977 201.961411,124.831912 L201.05883,124.831912 C200.15625,131.149977 203.766572,147.396425 160.442709,147.396425 L159.540128,147.396425 C141.488518,147.396425 132.462713,151.006747 132.462713,163.642874 L132.462713,176.279001 L279.583334,218.700284 L279.583334,236.751894 C279.583334,253.900923 271.460109,263.829309 242.577533,263.829309 L240.772372,263.829309 C219.110441,263.829309 204.669152,268.342211 204.669152,286.393821 L195.643348,286.393821 C195.643348,269.244791 182.10464,263.829309 159.540128,263.829309 C131.560133,263.829309 122.534327,253.900923 122.534327,236.751894 L122.534327,221.408026 L131.560133,221.408026 L131.560133,237.654474 C131.560133,249.388021 140.585937,253.900923 158.637548,253.900923 L159.540128,253.900923 C202.863991,253.900923 199.25367,270.147372 200.15625,276.465436 L201.05883,276.465436 C201.961411,270.147372 198.351089,253.900923 241.674952,253.900923 L243.480113,253.900923 C261.531723,253.900923 270.557528,250.290602 270.557528,237.654474 L270.557528,228.62867 L122.534327,185.304806 L122.534327,164.545455 C122.534327,147.396425 130.657552,137.46804 159.540128,137.46804 L161.345289,137.46804 C183.909801,137.46804 197.448509,132.955137 197.448509,114.903527 L206.474313,114.903527 C206.474313,132.052557 220.013021,137.46804 242.577533,137.46804 L243.480113,137.46804 C271.460109,137.46804 280.485914,147.396425 280.485914,164.545455 L279.583334,179.889323 L279.583334,179.889323 Z" id="Shape" fill="#F6E767"></path>
                </g>
            </g>
        </g>
    </g>
</svg>