<?xml version="1.0" encoding="UTF-8"?>
<svg width="64px" height="64px" viewBox="0 0 64 64" version="1.1" xmlns="http://www.w3.org/2000/svg" xmlns:xlink="http://www.w3.org/1999/xlink">
    <!-- Generator: Sketch 54.1 (76490) - https://sketchapp.com -->
    <title>protean</title>
    <desc>Created with Sketch.</desc>
    <defs>
        <path d="M32,64 C46.0222222,64 53.8173667,64 58.9086889,58.9086889 C64,53.8173667 64,46.0222222 64,32 C64,17.9777778 64,10.1826333 58.9086889,5.09131111 C53.8173667,0 46.0222222,0 32,0 C17.9777778,0 10.1826333,0 5.09131111,5.09131111 C0,10.1826333 0,17.9777778 0,32 C0,46.0222222 0,53.8173667 5.09131111,58.9086889 C10.1826333,64 17.9777778,64 32,64 Z" id="path-1"></path>
        <linearGradient x1="50%" y1="0%" x2="50%" y2="100%" id="linearGradient-3">
            <stop stop-color="#FDFEFF" offset="0%"></stop>
            <stop stop-color="#FBFCFD" stop-opacity="0.9" offset="100%"></stop>
        </linearGradient>
        <path d="M37.7796406,2.2204816 C33.8483239,-1.70902209 26.8124903,-0.0340052946 19.998089,4.20710867 C13.1836877,-0.0313266963 6.14963985,-1.70187917 2.22010892,2.2204816 C-1.70852914,6.1499853 -0.0343936025,13.1848773 4.20674975,20.0001242 C-0.0343936025,26.8153711 -1.70763627,33.851156 2.22010892,37.7797668 C5.90588571,41.4655181 12.5372482,40.405686 19.9998747,35.7601037 C27.4321436,40.386043 34.0786849,41.4780182 37.7796406,37.7797668 C41.7082786,33.8502631 40.0341431,26.8153711 35.7929997,20.0001242 C40.035036,13.1848773 41.7082786,6.14909243 37.7796406,2.2204816 Z M6.26124888,6.26159356 C6.64518397,5.87944687 7.29519499,5.68212346 8.15770962,5.68212346 C9.78452292,5.68212346 12.1765278,6.39998781 14.943539,7.86071674 C11.1309743,10.9991411 8.84343553,13.7509544 7.87556197,14.9259662 C5.65677435,10.7089596 5.15855161,7.36606892 6.26124888,6.26159356 Z M6.26124888,33.7386549 C5.15855161,32.6350724 5.65588147,29.2912888 7.87556197,25.0742822 C10.4488199,28.196635 12.6167138,30.1975479 14.9453247,32.1154243 C10.7175745,34.3440181 7.36662477,34.844916 6.26124888,33.7386549 Z M19.9998747,28.8332485 C15.9980212,25.7850037 13.4810142,23.0385475 11.1675821,20.0010171 C12.6943937,17.9965327 15.4551548,14.5893557 20.0007676,11.1241423 C24.5454875,14.5884628 27.3098201,18.000997 28.8330603,20.0010171 C25.7847943,24.0019501 23.0409977,26.516261 19.9998747,28.8332485 Z M33.7385006,33.7386549 C32.631339,34.8404516 29.2812821,34.3413395 25.0553176,32.1145314 C27.3749998,30.2046908 29.5428937,28.2073494 32.1241875,25.0742822 C34.3429751,29.2912888 34.8411979,32.6350724 33.7385006,33.7386549 L33.7385006,33.7386549 Z M32.1241875,14.9259662 C31.1598854,13.7545259 28.8580607,10.9911053 25.0562105,7.86160961 C27.8241146,6.40088067 30.2161194,5.68301633 31.8420399,5.68301633 C32.7045545,5.68301633 33.3545655,5.87855401 33.7385006,6.26248643 C34.8411979,7.36606892 34.3429751,10.7089596 32.1241875,14.9259662 Z M19.9998747,17.1420598 C18.4212765,17.1420598 17.1417906,18.4215369 17.1417906,20.0001242 C17.1417906,21.5787115 18.4212765,22.8581886 19.9998747,22.8581886 C21.5784729,22.8581886 22.8579589,21.5787115 22.8579589,20.0001242 C22.8579589,18.4215369 21.5784729,17.1420598 19.9998747,17.1420598 Z" id="path-5"></path>
        <filter x="-5.0%" y="-2.5%" width="110.0%" height="110.0%" filterUnits="objectBoundingBox" id="filter-6">
            <feOffset dx="0" dy="1" in="SourceAlpha" result="shadowOffsetOuter1"></feOffset>
            <feGaussianBlur stdDeviation="0.5" in="shadowOffsetOuter1" result="shadowBlurOuter1"></feGaussianBlur>
            <feColorMatrix values="0 0 0 0 0   0 0 0 0 0   0 0 0 0 0  0 0 0 0.1 0" type="matrix" in="shadowBlurOuter1"></feColorMatrix>
        </filter>
    </defs>
    <g id="Page-1" stroke="none" stroke-width="1" fill="none" fill-rule="evenodd">
        <g id="Artboard" transform="translate(-502.000000, -676.000000)">
            <g id="protean" transform="translate(502.000000, 676.000000)">
                <mask id="mask-2" fill="white">
                    <use xlink:href="#path-1"></use>
                </mask>
                <use id="Path" fill="#94B0D3" xlink:href="#path-1"></use>
                <g id="atom-alt" mask="url(#mask-2)" fill-rule="nonzero">
                    <g transform="translate(12.000000, 12.000000)" id="Shape">
                        <g>
                            <use fill="black" fill-opacity="1" filter="url(#filter-6)" xlink:href="#path-5"></use>
                            <use fill="url(#linearGradient-3)" xlink:href="#path-5"></use>
                        </g>
                    </g>
                </g>
            </g>
        </g>
    </g>
</svg>
