<svg width="1440" height="900" xmlns="http://www.w3.org/2000/svg"><path d="M771,503L910,536L909,405Z" fill="rgb(86,159,205)" stroke="rgb(86,159,205)" stroke-width="1.51"></path><path d="M909,405L704,345L771,503Z" fill="rgb(108,172,212)" stroke="rgb(108,172,212)" stroke-width="1.51"></path><path d="M910,536L1089,584L909,405Z" fill="rgb(72,146,198)" stroke="rgb(72,146,198)" stroke-width="1.51"></path><path d="M906,789L1089,584L910,536Z" fill="rgb(51,128,190)" stroke="rgb(51,128,190)" stroke-width="1.51"></path><path d="M695,768L906,789L910,536Z" fill="rgb(59,131,190)" stroke="rgb(59,131,190)" stroke-width="1.51"></path><path d="M704,345L552,521L771,503Z" fill="rgb(113,176,215)" stroke="rgb(113,176,215)" stroke-width="1.51"></path><path d="M909,405L960,184L704,345Z" fill="rgb(126,179,215)" stroke="rgb(126,179,215)" stroke-width="1.51"></path><path d="M1149,335L960,184L909,405Z" fill="rgb(116,165,209)" stroke="rgb(116,165,209)" stroke-width="1.51"></path><path d="M695,768L910,536L771,503Z" fill="rgb(75,148,200)" stroke="rgb(75,148,200)" stroke-width="1.51"></path><path d="M1089,584L1149,335L909,405Z" fill="rgb(80,147,200)" stroke="rgb(80,147,200)" stroke-width="1.51"></path><path d="M552,521L695,768L771,503Z" fill="rgb(92,158,205)" stroke="rgb(92,158,205)" stroke-width="1.51"></path><path d="M704,345L556,297L552,521Z" fill="rgb(139,190,221)" stroke="rgb(139,190,221)" stroke-width="1.51"></path><path d="M960,184L665,186L704,345Z" fill="rgb(147,191,223)" stroke="rgb(147,191,223)" stroke-width="1.51"></path><path d="M665,186L556,297L704,345Z" fill="rgb(156,198,226)" stroke="rgb(156,198,226)" stroke-width="1.51"></path><path d="M353,498L548,715L552,521Z" fill="rgb(122,173,213)" stroke="rgb(122,173,213)" stroke-width="1.51"></path><path d="M552,521L548,715L695,768Z" fill="rgb(97,153,202)" stroke="rgb(97,153,202)" stroke-width="1.51"></path><path d="M906,789L1125,767L1089,584Z" fill="rgb(35,111,178)" stroke="rgb(35,111,178)" stroke-width="1.51"></path><path d="M1287,575L1246,322L1149,335Z" fill="rgb(81,134,189)" stroke="rgb(81,134,189)" stroke-width="1.51"></path><path d="M568,-63L564,164L665,186Z" fill="rgb(185,215,234)" stroke="rgb(185,215,234)" stroke-width="1.51"></path><path d="M1149,335L1105,153L960,184Z" fill="rgb(128,165,211)" stroke="rgb(128,165,211)" stroke-width="1.51"></path><path d="M665,186L564,164L556,297Z" fill="rgb(172,206,231)" stroke="rgb(172,206,231)" stroke-width="1.51"></path><path d="M968,-40L665,186L960,184Z" fill="rgb(155,192,224)" stroke="rgb(155,192,224)" stroke-width="1.51"></path><path d="M1149,335L1246,322L1105,153Z" fill="rgb(115,152,201)" stroke="rgb(115,152,201)" stroke-width="1.51"></path><path d="M1287,575L1149,335L1089,584Z" fill="rgb(63,128,187)" stroke="rgb(63,128,187)" stroke-width="1.51"></path><path d="M906,789L1122,959L1125,767Z" fill="rgb(27,91,158)" stroke="rgb(27,91,158)" stroke-width="1.51"></path><path d="M695,768L752,897L906,789Z" fill="rgb(59,116,175)" stroke="rgb(59,116,175)" stroke-width="1.51"></path><path d="M513,939L752,897L695,768Z" fill="rgb(76,117,169)" stroke="rgb(76,117,169)" stroke-width="1.51"></path><path d="M1253,750L1287,575L1089,584Z" fill="rgb(34,107,175)" stroke="rgb(34,107,175)" stroke-width="1.51"></path><path d="M752,897L853,931L906,789Z" fill="rgb(51,104,161)" stroke="rgb(51,104,161)" stroke-width="1.51"></path><path d="M1125,767L1253,750L1089,584Z" fill="rgb(27,102,172)" stroke="rgb(27,102,172)" stroke-width="1.51"></path><path d="M1122,959L1253,750L1125,767Z" fill="rgb(17,83,154)" stroke="rgb(17,83,154)" stroke-width="1.51"></path><path d="M556,297L382,324L552,521Z" fill="rgb(154,198,225)" stroke="rgb(154,198,225)" stroke-width="1.51"></path><path d="M564,164L382,324L556,297Z" fill="rgb(176,210,231)" stroke="rgb(176,210,231)" stroke-width="1.51"></path><path d="M382,324L353,498L552,521Z" fill="rgb(147,193,224)" stroke="rgb(147,193,224)" stroke-width="1.51"></path><path d="M1105,153L1087,20L960,184Z" fill="rgb(142,174,216)" stroke="rgb(142,174,216)" stroke-width="1.51"></path><path d="M1300,228L1087,20L1105,153Z" fill="rgb(135,162,207)" stroke="rgb(135,162,207)" stroke-width="1.51"></path><path d="M1246,322L1300,228L1105,153Z" fill="rgb(120,151,200)" stroke="rgb(120,151,200)" stroke-width="1.51"></path><path d="M1447,299L1300,228L1246,322Z" fill="rgb(106,135,183)" stroke="rgb(106,135,183)" stroke-width="1.51"></path><path d="M1087,20L968,-40L960,184Z" fill="rgb(152,183,220)" stroke="rgb(152,183,220)" stroke-width="1.51"></path><path d="M853,931L1122,959L906,789Z" fill="rgb(36,91,150)" stroke="rgb(36,91,150)" stroke-width="1.51"></path><path d="M353,498L379,782L548,715Z" fill="rgb(120,163,209)" stroke="rgb(120,163,209)" stroke-width="1.51"></path><path d="M548,715L513,939L695,768Z" fill="rgb(90,132,184)" stroke="rgb(90,132,184)" stroke-width="1.51"></path><path d="M752,897L751,1077L853,931Z" fill="rgb(55,103,156)" stroke="rgb(55,103,156)" stroke-width="1.51"></path><path d="M379,782L513,939L548,715Z" fill="rgb(104,138,187)" stroke="rgb(104,138,187)" stroke-width="1.51"></path><path d="M853,931L959,1152L1122,959Z" fill="rgb(34,88,148)" stroke="rgb(34,88,148)" stroke-width="1.51"></path><path d="M564,164L294,153L382,324Z" fill="rgb(193,217,237)" stroke="rgb(193,217,237)" stroke-width="1.51"></path><path d="M968,-40L676,-83L665,186Z" fill="rgb(174,206,232)" stroke="rgb(174,206,232)" stroke-width="1.51"></path><path d="M1287,575L1428,559L1246,322Z" fill="rgb(60,116,174)" stroke="rgb(60,116,174)" stroke-width="1.51"></path><path d="M1253,750L1428,559L1287,575Z" fill="rgb(33,97,163)" stroke="rgb(33,97,163)" stroke-width="1.51"></path><path d="M1530,784L1428,559L1253,750Z" fill="rgb(20,79,146)" stroke="rgb(20,79,146)" stroke-width="1.51"></path><path d="M676,-83L568,-63L665,186Z" fill="rgb(190,218,236)" stroke="rgb(190,218,236)" stroke-width="1.51"></path><path d="M513,939L751,1077L752,897Z" fill="rgb(71,111,161)" stroke="rgb(71,111,161)" stroke-width="1.51"></path><path d="M1300,228L1346,-83L1087,20Z" fill="rgb(140,159,204)" stroke="rgb(140,159,204)" stroke-width="1.51"></path><path d="M1428,559L1447,299L1246,322Z" fill="rgb(80,121,172)" stroke="rgb(80,121,172)" stroke-width="1.51"></path><path d="M127,415L163,593L353,498Z" fill="rgb(157,196,226)" stroke="rgb(157,196,226)" stroke-width="1.51"></path><path d="M166,886L334,937L379,782Z" fill="rgb(118,136,180)" stroke="rgb(118,136,180)" stroke-width="1.51"></path><path d="M388,1L294,153L564,164Z" fill="rgb(205,225,241)" stroke="rgb(205,225,241)" stroke-width="1.51"></path><path d="M968,-40L904,-178L676,-83Z" fill="rgb(169,201,229)" stroke="rgb(169,201,229)" stroke-width="1.51"></path><path d="M676,-83L661,-156L568,-63Z" fill="rgb(191,219,237)" stroke="rgb(191,219,237)" stroke-width="1.51"></path><path d="M1132,-221L904,-178L968,-40Z" fill="rgb(158,187,222)" stroke="rgb(158,187,222)" stroke-width="1.51"></path><path d="M1132,-221L968,-40L1087,20Z" fill="rgb(155,181,219)" stroke="rgb(155,181,219)" stroke-width="1.51"></path><path d="M568,-63L388,1L564,164Z" fill="rgb(203,225,240)" stroke="rgb(203,225,240)" stroke-width="1.51"></path><path d="M904,-178L661,-156L676,-83Z" fill="rgb(178,210,234)" stroke="rgb(178,210,234)" stroke-width="1.51"></path><path d="M286,-229L388,1L568,-63Z" fill="rgb(217,232,245)" stroke="rgb(217,232,245)" stroke-width="1.51"></path><path d="M1122,959L1324,934L1253,750Z" fill="rgb(11,69,137)" stroke="rgb(11,69,137)" stroke-width="1.51"></path><path d="M1270,1077L1324,934L1122,959Z" fill="rgb(11,66,133)" stroke="rgb(11,66,133)" stroke-width="1.51"></path><path d="M1447,299L1471,194L1300,228Z" fill="rgb(110,130,175)" stroke="rgb(110,130,175)" stroke-width="1.51"></path><path d="M1603,332L1471,194L1447,299Z" fill="rgb(101,124,168)" stroke="rgb(101,124,168)" stroke-width="1.51"></path><path d="M751,1077L959,1152L853,931Z" fill="rgb(47,98,153)" stroke="rgb(47,98,153)" stroke-width="1.51"></path><path d="M513,939L481,1091L751,1077Z" fill="rgb(84,117,163)" stroke="rgb(84,117,163)" stroke-width="1.51"></path><path d="M751,1077L481,1091L959,1152Z" fill="rgb(62,107,159)" stroke="rgb(62,107,159)" stroke-width="1.51"></path><path d="M379,782L334,937L513,939Z" fill="rgb(106,128,173)" stroke="rgb(106,128,173)" stroke-width="1.51"></path><path d="M163,593L379,782L353,498Z" fill="rgb(137,175,216)" stroke="rgb(137,175,216)" stroke-width="1.51"></path><path d="M127,415L353,498L382,324Z" fill="rgb(168,204,230)" stroke="rgb(168,204,230)" stroke-width="1.51"></path><path d="M959,1152L1092,1136L1122,959Z" fill="rgb(25,81,144)" stroke="rgb(25,81,144)" stroke-width="1.51"></path><path d="M383,1053L481,1091L513,939Z" fill="rgb(99,124,167)" stroke="rgb(99,124,167)" stroke-width="1.51"></path><path d="M1471,194L1434,42L1300,228Z" fill="rgb(120,136,179)" stroke="rgb(120,136,179)" stroke-width="1.51"></path><path d="M294,153L127,415L382,324Z" fill="rgb(192,217,236)" stroke="rgb(192,217,236)" stroke-width="1.51"></path><path d="M143,108L127,415L294,153Z" fill="rgb(210,226,243)" stroke="rgb(210,226,243)" stroke-width="1.51"></path><path d="M1092,1136L1270,1077L1122,959Z" fill="rgb(17,72,138)" stroke="rgb(17,72,138)" stroke-width="1.51"></path><path d="M1434,42L1346,-83L1300,228Z" fill="rgb(132,146,188)" stroke="rgb(132,146,188)" stroke-width="1.51"></path><path d="M1346,-83L1132,-221L1087,20Z" fill="rgb(149,169,210)" stroke="rgb(149,169,210)" stroke-width="1.51"></path><path d="M904,-178L587,-266L661,-156Z" fill="rgb(181,212,235)" stroke="rgb(181,212,235)" stroke-width="1.51"></path><path d="M1428,559L1603,332L1447,299Z" fill="rgb(76,114,162)" stroke="rgb(76,114,162)" stroke-width="1.51"></path><path d="M1324,934L1530,784L1253,750Z" fill="rgb(9,65,133)" stroke="rgb(9,65,133)" stroke-width="1.51"></path><path d="M1535,901L1530,784L1324,934Z" fill="rgb(8,52,112)" stroke="rgb(8,52,112)" stroke-width="1.51"></path><path d="M334,937L383,1053L513,939Z" fill="rgb(105,126,169)" stroke="rgb(105,126,169)" stroke-width="1.51"></path><path d="M94,1151L383,1053L334,937Z" fill="rgb(116,131,173)" stroke="rgb(116,131,173)" stroke-width="1.51"></path><path d="M1471,194L1620,-5L1434,42Z" fill="rgb(126,137,177)" stroke="rgb(126,137,177)" stroke-width="1.51"></path><path d="M1624,551L1603,332L1428,559Z" fill="rgb(58,104,157)" stroke="rgb(58,104,157)" stroke-width="1.51"></path><path d="M163,593L121,726L379,782Z" fill="rgb(136,166,210)" stroke="rgb(136,166,210)" stroke-width="1.51"></path><path d="M-79,517L121,726L163,593Z" fill="rgb(155,186,222)" stroke="rgb(155,186,222)" stroke-width="1.51"></path><path d="M1645,663L1624,551L1428,559Z" fill="rgb(37,91,149)" stroke="rgb(37,91,149)" stroke-width="1.51"></path><path d="M1132,-221L587,-266L904,-178Z" fill="rgb(167,199,228)" stroke="rgb(167,199,228)" stroke-width="1.51"></path><path d="M661,-156L587,-266L568,-63Z" fill="rgb(195,221,238)" stroke="rgb(195,221,238)" stroke-width="1.51"></path><path d="M199,-67L294,153L388,1Z" fill="rgb(224,236,248)" stroke="rgb(224,236,248)" stroke-width="1.51"></path><path d="M199,-67L143,108L294,153Z" fill="rgb(226,237,248)" stroke="rgb(226,237,248)" stroke-width="1.51"></path><path d="M121,726L166,886L379,782Z" fill="rgb(128,150,198)" stroke="rgb(128,150,198)" stroke-width="1.51"></path><path d="M1530,784L1645,663L1428,559Z" fill="rgb(23,80,144)" stroke="rgb(23,80,144)" stroke-width="1.51"></path><path d="M1434,1086L1535,901L1324,934Z" fill="rgb(8,49,108)" stroke="rgb(8,49,108)" stroke-width="1.51"></path><path d="M1597,933L1645,663L1530,784Z" fill="rgb(9,63,130)" stroke="rgb(9,63,130)" stroke-width="1.51"></path><path d="M1624,551L1664,214L1603,332Z" fill="rgb(84,117,163)" stroke="rgb(84,117,163)" stroke-width="1.51"></path><path d="M286,-229L199,-67L388,1Z" fill="rgb(227,238,249)" stroke="rgb(227,238,249)" stroke-width="1.51"></path><path d="M1270,1077L1434,1086L1324,934Z" fill="rgb(9,57,120)" stroke="rgb(9,57,120)" stroke-width="1.51"></path><path d="M1092,1136L1434,1086L1270,1077Z" fill="rgb(9,64,131)" stroke="rgb(9,64,131)" stroke-width="1.51"></path><path d="M1603,332L1664,214L1471,194Z" fill="rgb(106,127,170)" stroke="rgb(106,127,170)" stroke-width="1.51"></path><path d="M1524,-207L1341,-247L1346,-83Z" fill="rgb(137,146,185)" stroke="rgb(137,146,185)" stroke-width="1.51"></path><path d="M1645,663L1664,214L1624,551Z" fill="rgb(58,105,157)" stroke="rgb(58,105,157)" stroke-width="1.51"></path><path d="M143,108L9,325L127,415Z" fill="rgb(206,226,241)" stroke="rgb(206,226,241)" stroke-width="1.51"></path><path d="M127,415L-79,517L163,593Z" fill="rgb(167,201,229)" stroke="rgb(167,201,229)" stroke-width="1.51"></path><path d="M-64,145L9,325L143,108Z" fill="rgb(224,236,248)" stroke="rgb(224,236,248)" stroke-width="1.51"></path><path d="M1132,-221L1341,-247L587,-266Z" fill="rgb(157,185,221)" stroke="rgb(157,185,221)" stroke-width="1.51"></path><path d="M1346,-83L1341,-247L1132,-221Z" fill="rgb(145,160,203)" stroke="rgb(145,160,203)" stroke-width="1.51"></path><path d="M1524,-207L1346,-83L1434,42Z" fill="rgb(135,143,180)" stroke="rgb(135,143,180)" stroke-width="1.51"></path><path d="M1434,1086L1597,933L1535,901Z" fill="rgb(8,48,107)" stroke="rgb(8,48,107)" stroke-width="1.51"></path><path d="M1535,901L1597,933L1530,784Z" fill="rgb(9,52,113)" stroke="rgb(9,52,113)" stroke-width="1.51"></path><path d="M587,-266L286,-229L568,-63Z" fill="rgb(210,229,242)" stroke="rgb(210,229,242)" stroke-width="1.51"></path><path d="M1664,214L1620,-5L1471,194Z" fill="rgb(120,134,174)" stroke="rgb(120,134,174)" stroke-width="1.51"></path><path d="M121,726L-50,855L166,886Z" fill="rgb(137,152,195)" stroke="rgb(137,152,195)" stroke-width="1.51"></path><path d="M9,325L-79,517L127,415Z" fill="rgb(185,215,236)" stroke="rgb(185,215,236)" stroke-width="1.51"></path><path d="M286,-229L167,-169L199,-67Z" fill="rgb(232,241,250)" stroke="rgb(232,241,250)" stroke-width="1.51"></path><path d="M-14,13L-64,145L143,108Z" fill="rgb(236,243,252)" stroke="rgb(236,243,252)" stroke-width="1.51"></path><path d="M9,325L-196,346L-79,517Z" fill="rgb(192,219,237)" stroke="rgb(192,219,237)" stroke-width="1.51"></path><path d="M-79,517L-44,780L121,726Z" fill="rgb(154,179,218)" stroke="rgb(154,179,218)" stroke-width="1.51"></path><path d="M166,886L94,1151L334,937Z" fill="rgb(121,134,175)" stroke="rgb(121,134,175)" stroke-width="1.51"></path><path d="M1620,-5L1524,-207L1434,42Z" fill="rgb(135,142,179)" stroke="rgb(135,142,179)" stroke-width="1.51"></path><path d="M-14,13L143,108L199,-67Z" fill="rgb(238,244,252)" stroke="rgb(238,244,252)" stroke-width="1.51"></path><path d="M167,-169L-14,13L199,-67Z" fill="rgb(239,246,253)" stroke="rgb(239,246,253)" stroke-width="1.51"></path><path d="M-199,782L-50,855L-44,780Z" fill="rgb(144,158,201)" stroke="rgb(144,158,201)" stroke-width="1.51"></path><path d="M-44,780L-50,855L121,726Z" fill="rgb(145,161,205)" stroke="rgb(145,161,205)" stroke-width="1.51"></path><path d="M1664,214L1639,-141L1620,-5Z" fill="rgb(132,141,178)" stroke="rgb(132,141,178)" stroke-width="1.51"></path><path d="M1620,-5L1639,-141L1524,-207Z" fill="rgb(135,142,179)" stroke="rgb(135,142,179)" stroke-width="1.51"></path><path d="M383,1053L94,1151L481,1091Z" fill="rgb(113,130,172)" stroke="rgb(113,130,172)" stroke-width="1.51"></path><path d="M481,1091L94,1151L959,1152Z" fill="rgb(94,122,166)" stroke="rgb(94,122,166)" stroke-width="1.51"></path><path d="M25,1088L94,1151L166,886Z" fill="rgb(128,139,177)" stroke="rgb(128,139,177)" stroke-width="1.51"></path><path d="M-50,855L25,1088L166,886Z" fill="rgb(131,140,178)" stroke="rgb(131,140,178)" stroke-width="1.51"></path><path d="M1434,1086L1652,1152L1597,933Z" fill="rgb(8,48,107)" stroke="rgb(8,48,107)" stroke-width="1.51"></path><path d="M1597,933L1652,1152L1645,663Z" fill="rgb(8,48,107)" stroke="rgb(8,48,107)" stroke-width="1.51"></path><path d="M1645,663L1652,1152L1664,214Z" fill="rgb(22,79,143)" stroke="rgb(22,79,143)" stroke-width="1.51"></path><path d="M1092,1136L1652,1152L1434,1086Z" fill="rgb(9,52,113)" stroke="rgb(9,52,113)" stroke-width="1.51"></path><path d="M959,1152L1652,1152L1092,1136Z" fill="rgb(11,66,133)" stroke="rgb(11,66,133)" stroke-width="1.51"></path><path d="M-179,151L-196,346L-64,145Z" fill="rgb(224,236,248)" stroke="rgb(224,236,248)" stroke-width="1.51"></path><path d="M-64,145L-196,346L9,325Z" fill="rgb(215,231,244)" stroke="rgb(215,231,244)" stroke-width="1.51"></path><path d="M-79,517L-199,782L-44,780Z" fill="rgb(152,176,216)" stroke="rgb(152,176,216)" stroke-width="1.51"></path><path d="M-14,13L-179,151L-64,145Z" fill="rgb(236,243,252)" stroke="rgb(236,243,252)" stroke-width="1.51"></path><path d="M-283,-11L-179,151L-14,13Z" fill="rgb(242,247,253)" stroke="rgb(242,247,253)" stroke-width="1.51"></path><path d="M167,-169L19,-225L-14,13Z" fill="rgb(243,248,253)" stroke="rgb(243,248,253)" stroke-width="1.51"></path><path d="M286,-229L19,-225L167,-169Z" fill="rgb(236,244,252)" stroke="rgb(236,244,252)" stroke-width="1.51"></path><path d="M587,-266L19,-225L286,-229Z" fill="rgb(227,238,249)" stroke="rgb(227,238,249)" stroke-width="1.51"></path><path d="M-50,855L-226,858L25,1088Z" fill="rgb(135,142,179)" stroke="rgb(135,142,179)" stroke-width="1.51"></path><path d="M-269,498L-199,782L-79,517Z" fill="rgb(161,191,224)" stroke="rgb(161,191,224)" stroke-width="1.51"></path><path d="M-283,-11L-269,498L-196,346Z" fill="rgb(214,231,243)" stroke="rgb(214,231,243)" stroke-width="1.51"></path><path d="M-196,346L-269,498L-79,517Z" fill="rgb(180,211,234)" stroke="rgb(180,211,234)" stroke-width="1.51"></path><path d="M-269,498L-226,858L-199,782Z" fill="rgb(151,173,214)" stroke="rgb(151,173,214)" stroke-width="1.51"></path><path d="M-199,782L-226,858L-50,855Z" fill="rgb(141,154,195)" stroke="rgb(141,154,195)" stroke-width="1.51"></path><path d="M-179,151L-283,-11L-196,346Z" fill="rgb(229,239,249)" stroke="rgb(229,239,249)" stroke-width="1.51"></path><path d="M-219,-173L-283,-11L-14,13Z" fill="rgb(247,251,255)" stroke="rgb(247,251,255)" stroke-width="1.51"></path><path d="M19,-225L-219,-173L-14,13Z" fill="rgb(247,251,255)" stroke="rgb(247,251,255)" stroke-width="1.51"></path><path d="M-269,498L-280,1164L-226,858Z" fill="rgb(141,152,193)" stroke="rgb(141,152,193)" stroke-width="1.51"></path><path d="M-226,858L-280,1164L25,1088Z" fill="rgb(135,142,179)" stroke="rgb(135,142,179)" stroke-width="1.51"></path><path d="M25,1088L-280,1164L94,1151Z" fill="rgb(135,142,179)" stroke="rgb(135,142,179)" stroke-width="1.51"></path><path d="M94,1151L-280,1164L959,1152Z" fill="rgb(117,132,174)" stroke="rgb(117,132,174)" stroke-width="1.51"></path><path d="M959,1152L-280,1164L1652,1152Z" fill="rgb(56,104,157)" stroke="rgb(56,104,157)" stroke-width="1.51"></path><path d="M-283,-11L-280,1164L-269,498Z" fill="rgb(166,199,228)" stroke="rgb(166,199,228)" stroke-width="1.51"></path></svg>