<?xml version="1.0" encoding="UTF-8"?>
<svg width="600px" height="600px" viewBox="0 0 600 600" version="1.1" xmlns="http://www.w3.org/2000/svg" xmlns:xlink="http://www.w3.org/1999/xlink">
    <!-- Generator: Sketch 40.3 (33839) - http://www.bohemiancoding.com/sketch -->
    <title>Group 2 Copy 20</title>
    <desc>Created with Sketch.</desc>
    <defs>
        <linearGradient x1="50%" y1="0%" x2="50%" y2="100%" id="linearGradient-1">
            <stop stop-color="#FFFFFF" stop-opacity="0.2" offset="0%"></stop>
            <stop stop-color="#000000" stop-opacity="0.138870018" offset="100%"></stop>
        </linearGradient>
        <linearGradient x1="50%" y1="0%" x2="80.7785089%" y2="100%" id="linearGradient-2">
            <stop stop-color="#FFFFFF" offset="0%"></stop>
            <stop stop-color="#E5E5E5" stop-opacity="0.504670516" offset="100%"></stop>
        </linearGradient>
        <path d="M376.607143,334.910714 C355.267857,357.5 329.910714,374.017857 300.535714,384.375 C271.160714,394.821429 240.178571,400 207.589286,400 C176.428571,400 148.035714,395.089286 122.5,385.178571 C96.9642857,375.357143 75.0892857,361.607143 57.0535714,344.017857 C38.9285714,326.428571 24.9107143,305.357143 14.9107143,280.803571 C4.91071429,256.25 0,229.464286 0,200.446429 C0,171.785714 5.44642857,145.267857 16.3392857,120.892857 C27.2321429,96.5178571 42.0535714,75.3571429 60.8928571,57.4107143 C79.7321429,39.4642857 101.696429,25.4464286 126.964286,15.1785714 C152.053571,5.08928571 179.017857,0 207.589286,0 C232.232143,0 256.160714,3.57142857 279.285714,10.7142857 C302.5,17.8571429 323.035714,28.6607143 340.982143,42.9464286 C358.928571,57.3214286 373.214286,75.1785714 383.928571,96.6964286 C394.642857,118.214286 400,143.482143 400,172.5 C400,194.017857 397.053571,213.035714 391.071429,229.464286 C385.089286,245.982143 377.142857,259.732143 367.142857,270.892857 C357.142857,282.053571 345.803571,290.357143 332.946429,295.892857 C320.089286,301.428571 306.607143,304.196429 292.5,304.196429 C278.035714,304.196429 266.428571,300.803571 257.678571,294.017857 C249.017857,287.232143 244.642857,278.571429 244.642857,268.214286 L241.964286,268.214286 C236.517857,276.785714 228.214286,285 216.964286,292.678571 C205.714286,300.357143 191.964286,304.285714 175.625,304.285714 C150.982143,304.285714 131.964286,296.25 118.571429,280.089286 C105.178571,263.928571 98.4821429,243.035714 98.4821429,217.142857 C98.4821429,202.053571 100.982143,187.232143 106.071429,172.5 C111.160714,157.767857 118.392857,144.732143 127.767857,133.214286 C137.142857,121.785714 148.392857,112.5 161.428571,105.535714 C174.464286,98.5714286 188.928571,95.0892857 204.910714,95.0892857 C218.660714,95.0892857 230.267857,97.9464286 239.732143,103.660714 C249.107143,109.375 255.267857,116.428571 258.214286,124.642857 L258.75,124.642857 L263.125,103.125 L311.517857,103.125 L290.178571,204.821429 C289.464286,209.821429 288.482143,215.357143 287.232143,221.517857 C285.982143,227.589286 285.357143,233.303571 285.357143,238.75 C285.357143,244.821429 286.517857,249.910714 288.928571,254.107143 C291.25,258.214286 295.892857,260.267857 302.767857,260.267857 C316.875,260.267857 328.571429,252.767857 337.857143,237.678571 C347.053571,222.589286 351.696429,202.410714 351.696429,176.964286 C351.696429,155.446429 348.035714,136.339286 340.803571,119.732143 C333.571429,103.035714 323.482143,89.1071429 310.625,77.7678571 C297.767857,66.5178571 282.410714,57.9464286 264.732143,52.2321429 C246.964286,46.5178571 227.589286,43.6607143 206.607143,43.6607143 C183.75,43.6607143 162.857143,47.6785714 143.839286,55.7142857 C124.821429,63.75 108.571429,74.9107143 95.1785714,89.0178571 C81.7857143,103.214286 71.3392857,119.821429 63.9285714,139.017857 C56.4285714,158.125 52.6785714,178.839286 52.6785714,201.071429 C52.6785714,224.732143 56.6071429,246.071429 64.375,265.089286 C72.1428571,284.107143 83.125,300.267857 97.2321429,313.75 C111.339286,327.232143 128.214286,337.5 147.767857,344.642857 C167.321429,351.785714 188.928571,355.357143 212.410714,355.357143 C241.785714,355.357143 267.053571,350.714286 288.214286,341.339286 C309.375,332.053571 328.839286,319.107143 346.607143,302.589286 L376.607143,334.910714 L376.607143,334.910714 Z M206.517857,139.285714 C197.857143,139.285714 190.178571,141.785714 183.660714,146.785714 C177.142857,151.785714 171.607143,158.125 167.053571,165.892857 C162.5,173.571429 159.107143,182.142857 156.696429,191.428571 C154.375,200.714286 153.125,209.732143 153.125,218.303571 C153.125,222.589286 153.571429,227.142857 154.464286,232.053571 C155.357143,236.875 157.142857,241.339286 159.910714,245.535714 C162.589286,249.642857 166.160714,253.035714 170.535714,255.714286 C174.910714,258.392857 180.714286,259.732143 187.946429,259.732143 C197.767857,259.732143 206.071429,257.321429 212.946429,252.5 C219.821429,247.678571 225.446429,241.607143 229.821429,234.196429 C234.196429,226.875 237.321429,218.839286 239.375,210.267857 C241.339286,201.696429 242.321429,193.75 242.321429,186.607143 C242.321429,180.892857 241.785714,175.267857 240.714286,169.642857 C239.642857,164.107143 237.767857,159.107143 235,154.553571 C232.321429,150.089286 228.571429,146.428571 223.839286,143.571429 C219.196429,140.714286 213.392857,139.285714 206.517857,139.285714 L206.517857,139.285714 Z" id="path-3"></path>
        <filter x="-50%" y="-50%" width="200%" height="200%" filterUnits="objectBoundingBox" id="filter-4">
            <feMorphology radius="1" operator="dilate" in="SourceAlpha" result="shadowSpreadOuter1"></feMorphology>
            <feOffset dx="0" dy="2" in="shadowSpreadOuter1" result="shadowOffsetOuter1"></feOffset>
            <feColorMatrix values="0 0 0 0 0   0 0 0 0 0   0 0 0 0 0  0 0 0 0.08 0" type="matrix" in="shadowOffsetOuter1"></feColorMatrix>
        </filter>
    </defs>
    <g id="Page-1" stroke="none" stroke-width="1" fill="none" fill-rule="evenodd">
        <g id="Group-2-Copy-20">
            <path d="M552.268958,552.268958 C600,504.537813 600,431.458333 600,300 C600,168.541667 600,95.4621875 552.268958,47.7310417 C504.537813,0 431.458333,0 300,0 C168.541667,0 95.4621875,0 47.7310417,47.7310417 C0,95.4621875 0,168.541667 0,300 C0,431.458333 0,504.537813 47.7310417,552.268958 C95.4621875,600 168.541667,600 300,600 C431.458333,600 504.537813,600 552.268958,552.268958 L552.268958,552.268958 Z" id="path-copy-16" fill="#FF4D63"></path>
            <path d="M552.268958,552.268958 C600,504.537813 600,431.458333 600,300 C600,168.541667 600,95.4621875 552.268958,47.7310417 C504.537813,0 431.458333,0 300,0 C168.541667,0 95.4621875,0 47.7310417,47.7310417 C0,95.4621875 0,168.541667 0,300 C0,431.458333 0,504.537813 47.7310417,552.268958 C95.4621875,600 168.541667,600 300,600 C431.458333,600 504.537813,600 552.268958,552.268958 L552.268958,552.268958 Z" id="path-copy" fill="url(#linearGradient-1)"></path>
            <g id="at" transform="translate(100.000000, 105.000000)">
                <g id="Layer_1">
                    <g id="Shape">
                        <use fill="black" fill-opacity="1" filter="url(#filter-4)" xlink:href="#path-3"></use>
                        <use fill="url(#linearGradient-2)" fill-rule="evenodd" xlink:href="#path-3"></use>
                    </g>
                </g>
            </g>
        </g>
    </g>
</svg>