<svg width="48" height="48" viewBox="0 0 48 48" fill="none" xmlns="http://www.w3.org/2000/svg">
<rect width="48" height="48" fill="url(#paint0_linear_322_1763)"/>
<path d="M9 24C9 16.9289 9 13.3934 11.1967 11.1967C13.3934 9 16.9289 9 24 9C31.071 9 34.6066 9 36.8034 11.1967C39 13.3934 39 16.9289 39 24C39 31.071 39 34.6066 36.8034 36.8034C34.6066 39 31.071 39 24 39C16.9289 39 13.3934 39 11.1967 36.8034C9 34.6066 9 31.071 9 24Z" stroke="white" stroke-width="2.25"/>
<path d="M14.2809 29.917C13.9488 29.917 13.6523 29.8207 13.3914 29.628C13.1305 29.424 13 29.1747 13 28.88V19.054C13 18.7593 13.1008 18.5157 13.3024 18.323C13.5159 18.119 13.7768 18.017 14.0852 18.017H19.2088C19.8255 18.017 20.4007 18.1757 20.9344 18.493C21.48 18.799 21.9188 19.2297 22.2509 19.785C22.583 20.329 22.749 20.958 22.749 21.672C22.749 22.1027 22.6541 22.522 22.4643 22.93C22.2864 23.338 22.0374 23.7063 21.7172 24.035C21.4088 24.3637 21.0589 24.6187 20.6675 24.8L20.6853 24.409C21.0174 24.579 21.2902 24.783 21.5037 25.021C21.729 25.2477 21.901 25.497 22.0196 25.769C22.1501 26.0297 22.2271 26.313 22.2509 26.619C22.2983 26.9023 22.328 27.1517 22.3398 27.367C22.3635 27.5823 22.3991 27.7637 22.4466 27.911C22.5059 28.0583 22.6126 28.1717 22.7668 28.251C23.0277 28.3983 23.1878 28.6137 23.2471 28.897C23.3183 29.169 23.253 29.4127 23.0514 29.628C22.921 29.7753 22.7549 29.8717 22.5533 29.917C22.3517 29.951 22.1501 29.951 21.9484 29.917C21.7468 29.8717 21.5808 29.815 21.4503 29.747C21.2487 29.6337 21.0471 29.4693 20.8454 29.254C20.6438 29.0273 20.4778 28.727 20.3473 28.353C20.2287 27.979 20.1694 27.4973 20.1694 26.908C20.1694 26.7153 20.1338 26.5397 20.0627 26.381C19.9915 26.211 19.8907 26.0693 19.7602 25.956C19.6298 25.8313 19.4637 25.7407 19.2621 25.684C19.0605 25.616 18.8233 25.582 18.5505 25.582H14.9569L15.2238 25.191V28.88C15.2238 29.1747 15.1407 29.424 14.9747 29.628C14.8087 29.8207 14.5774 29.917 14.2809 29.917ZM14.9747 23.831H19.1198C19.3333 23.831 19.5408 23.7403 19.7425 23.559C19.9441 23.3663 20.1101 23.1113 20.2406 22.794C20.371 22.4653 20.4363 22.1083 20.4363 21.723C20.4363 21.2243 20.294 20.8107 20.0093 20.482C19.7365 20.142 19.44 19.972 19.1198 19.972H15.0103L15.2238 19.428V24.239L14.9747 23.831Z" fill="white"/>
<path d="M33.9682 18C34.2765 18 34.5256 18.102 34.7154 18.306C34.9051 18.4987 35 18.7423 35 19.037V25.191C35 26.1317 34.7865 26.9647 34.3596 27.69C33.9445 28.4153 33.3692 28.982 32.6339 29.39C31.8986 29.798 31.0447 30.002 30.0721 30.002C29.0996 30.002 28.2397 29.798 27.4926 29.39C26.7572 28.982 26.1761 28.4153 25.7491 27.69C25.334 26.9647 25.1265 26.1317 25.1265 25.191V19.037C25.1265 18.7423 25.2332 18.4987 25.4467 18.306C25.6602 18.102 25.933 18 26.265 18C26.5378 18 26.781 18.102 26.9944 18.306C27.2198 18.4987 27.3325 18.7423 27.3325 19.037V25.191C27.3325 25.7577 27.457 26.2507 27.706 26.67C27.967 27.078 28.305 27.3953 28.7201 27.622C29.147 27.8487 29.5977 27.962 30.0721 27.962C30.5821 27.962 31.0565 27.8487 31.4953 27.622C31.9342 27.3953 32.29 27.078 32.5628 26.67C32.8355 26.2507 32.9719 25.7577 32.9719 25.191V19.037C32.9719 18.7423 33.0609 18.4987 33.2388 18.306C33.4167 18.102 33.6598 18 33.9682 18Z" fill="white"/>
<defs>
<linearGradient id="paint0_linear_322_1763" x1="24" y1="0" x2="24" y2="48" gradientUnits="userSpaceOnUse">
<stop stop-color="#0891B2"/>
<stop offset="1" stop-color="#0E7490"/>
</linearGradient>
</defs>
</svg>
