<svg width="240" height="240" viewBox="0 0 240 240" fill="none" xmlns="http://www.w3.org/2000/svg">
<path fill-rule="evenodd" clip-rule="evenodd" d="M20 120C20 108.444 20.4639 97.9794 21.4648 88.5246C21.9851 83.609 26.2086 80 31.1517 80H208.848C213.791 80 218.015 83.609 218.535 88.5246C219.536 97.9794 220 108.444 220 120C220 203.412 195.829 230 120 230C44.171 230 20 203.412 20 120ZM132.554 110.438C127.419 100.032 112.581 100.032 107.446 110.438L102.685 120.084C100.646 124.216 96.7037 127.08 92.1438 127.743L81.4983 129.29C70.0152 130.958 65.4301 145.07 73.7393 153.169L81.4425 160.678C84.7421 163.894 86.2477 168.528 85.4688 173.07L83.6504 183.672C81.6888 195.109 93.6929 203.83 103.964 198.431L113.485 193.425C117.564 191.281 122.436 191.281 126.515 193.425L136.036 198.431C146.307 203.83 158.311 195.109 156.35 183.672L154.531 173.07C153.752 168.528 155.258 163.894 158.558 160.678L166.261 153.169C174.57 145.07 169.985 130.958 158.502 129.29L147.856 127.743C143.296 127.08 139.354 124.216 137.315 120.084L132.554 110.438Z" fill="url(#paint0_linear_429_6025)"/>
<path fill-rule="evenodd" clip-rule="evenodd" d="M120 10C175.201 10 203.026 24.0902 214.08 63.9351C214.936 67.0177 212.555 70 209.356 70H30.6428C27.4438 70 25.0635 67.0177 25.9187 63.9351C36.9725 24.0902 64.7981 10 120 10ZM89.999 30C84.4762 30 79.999 34.4772 79.999 40C79.999 45.5228 84.4762 50 89.999 50H149.999C155.522 50 159.999 45.5228 159.999 40C159.999 34.4772 155.522 30 149.999 30H89.999Z" fill="url(#paint1_linear_429_6025)"/>
<path d="M115.516 114.085C117.35 110.369 122.65 110.369 124.484 114.085L133.531 132.417C134.26 133.893 135.667 134.916 137.296 135.153L157.527 138.092C161.628 138.688 163.266 143.728 160.298 146.621L145.659 160.891C144.48 162.039 143.943 163.694 144.221 165.316L147.677 185.466C148.377 189.55 144.09 192.665 140.422 190.736L122.327 181.223C120.87 180.457 119.13 180.457 117.673 181.223L99.5781 190.736C95.91 192.665 91.6228 189.55 92.3234 185.466L95.7792 165.316C96.0574 163.694 95.5197 162.039 94.3412 160.891L79.7019 146.621C76.7343 143.728 78.3719 138.688 82.473 138.092L102.704 135.153C104.333 134.916 105.74 133.893 106.469 132.417L115.516 114.085Z" fill="url(#paint2_linear_429_6025)"/>
<defs>
<linearGradient id="paint0_linear_429_6025" x1="120" y1="80" x2="120" y2="230" gradientUnits="userSpaceOnUse">
<stop stop-color="#7DD3FC"/>
<stop offset="1" stop-color="#0EA5E9"/>
</linearGradient>
<linearGradient id="paint1_linear_429_6025" x1="120" y1="10" x2="120" y2="70" gradientUnits="userSpaceOnUse">
<stop stop-color="#FB7185"/>
<stop offset="1" stop-color="#F43F5E"/>
</linearGradient>
<linearGradient id="paint2_linear_429_6025" x1="120" y1="105" x2="120" y2="205" gradientUnits="userSpaceOnUse">
<stop stop-color="#FB923C"/>
<stop offset="1" stop-color="#EA580C"/>
</linearGradient>
</defs>
</svg>
