<svg width="320" height="320" viewBox="0 0 320 320" fill="none" xmlns="http://www.w3.org/2000/svg">
<g clip-path="url(#clip0_922_6670)">
<path d="M160 0C281.326 0 320 38.6737 320 160C320 281.326 281.326 320 160 320C38.6736 320 0 281.326 0 160C0 38.6737 38.6736 0 160 0Z" fill="url(#paint0_linear_922_6670)"/>
<path d="M160 2C220.573 2 259.85 11.6833 284.083 35.9168C308.317 60.1504 318 99.4272 318 160C318 220.573 308.317 259.85 284.083 284.083C259.85 308.317 220.573 318 160 318C99.4272 318 60.1504 308.317 35.9168 284.083C11.6833 259.85 2 220.573 2 160C2 99.4272 11.6833 60.1504 35.9168 35.9168C60.1504 11.6833 99.4272 2 160 2Z" stroke="#0F172A" stroke-opacity="0.2" stroke-width="4"/>
<g clip-path="url(#clip1_922_6670)">
<path fill-rule="evenodd" clip-rule="evenodd" d="M93.3463 153.225C92.6673 150.479 89.948 148.665 87.23 149.447C60.5372 157.129 50.9995 175.183 50.9995 209.799C50.9995 259.088 70.3364 274.799 131 274.799C191.663 274.799 211 259.088 211 209.799C211 207.835 210.969 205.924 210.906 204.065C210.811 201.267 208.354 199.184 205.56 199.372C199.2 199.798 192.356 200 185 200C176.217 200 168.164 199.712 160.793 199.098C156.644 198.752 153.655 203.24 155.737 206.846L167.373 227C170.452 232.333 166.603 239 160.445 239H101.555C95.3967 239 91.5477 232.333 94.6269 227L114.895 191.894C116.265 189.522 115.451 186.512 113.236 184.901C103.166 177.577 96.8156 167.254 93.3463 153.225Z" fill="url(#paint1_linear_922_6670)"/>
<path fill-rule="evenodd" clip-rule="evenodd" d="M185 190C249.455 190 270 173.08 270 120C270 66.9197 249.455 50 185 50C120.545 50 100 66.9197 100 120C100 173.08 120.545 190 185 190ZM199.303 94.9805L192.174 80.5359C189.239 74.5899 180.761 74.5899 177.826 80.5359L170.697 94.9805C169.532 97.3416 167.279 98.9782 164.674 99.3568L148.733 101.673C142.171 102.627 139.551 110.69 144.299 115.319L155.834 126.562C157.72 128.4 158.58 131.048 158.135 133.643L155.412 149.519C154.291 156.055 161.151 161.038 167.02 157.953L181.277 150.457C183.608 149.232 186.392 149.232 188.723 150.457L202.98 157.953C208.849 161.038 215.709 156.055 214.588 149.519L211.865 133.643C211.42 131.048 212.28 128.4 214.166 126.562L225.701 115.319C230.449 110.69 227.829 102.627 221.267 101.673L205.326 99.3568C202.721 98.9782 200.468 97.3416 199.303 94.9805Z" fill="url(#paint2_linear_922_6670)"/>
</g>
</g>
<defs>
<linearGradient id="paint0_linear_922_6670" x1="160" y1="0" x2="160" y2="320" gradientUnits="userSpaceOnUse">
<stop stop-color="#F8FAFC"/>
<stop offset="1" stop-color="#E2E8F0"/>
</linearGradient>
<linearGradient id="paint1_linear_922_6670" x1="131" y1="149.265" x2="131" y2="274.799" gradientUnits="userSpaceOnUse">
<stop stop-color="#7DD3FC"/>
<stop offset="1" stop-color="#0EA5E9"/>
</linearGradient>
<linearGradient id="paint2_linear_922_6670" x1="185" y1="50" x2="185" y2="190" gradientUnits="userSpaceOnUse">
<stop stop-color="#FB923C"/>
<stop offset="1" stop-color="#EA580C"/>
</linearGradient>
<clipPath id="clip0_922_6670">
<rect width="320" height="320" fill="white"/>
</clipPath>
<clipPath id="clip1_922_6670">
<rect width="240" height="240" fill="white" transform="translate(40 40)"/>
</clipPath>
</defs>
</svg>
