<?xml version="1.0" encoding="UTF-8"?>
<svg width="606px" height="606px" viewBox="0 0 606 606" version="1.1" xmlns="http://www.w3.org/2000/svg" xmlns:xlink="http://www.w3.org/1999/xlink">
    <!-- Generator: Sketch 43.1 (39012) - http://www.bohemiancoding.com/sketch -->
    <title>shopify</title>
    <desc>Created with Sketch.</desc>
    <defs>
        <linearGradient x1="50%" y1="0%" x2="50%" y2="100%" id="linearGradient-1">
            <stop stop-color="#FFFFFF" stop-opacity="0.2" offset="0%"></stop>
            <stop stop-color="#000000" stop-opacity="0.2" offset="100%"></stop>
        </linearGradient>
    </defs>
    <g id="Page-1" stroke="none" stroke-width="1" fill="none" fill-rule="evenodd">
        <g id="shopify" transform="translate(3.000000, 3.000000)">
            <g id="Squircle2-Copy-6" fill-rule="nonzero">
                <g id="Shape">
                    <g id="path-2-link" fill="#FFFFFF">
                        <path d="M552.268958,552.268958 C600,504.537813 600,431.458333 600,300 C600,168.541667 600,95.4621875 552.268958,47.7310417 C504.537813,0 431.458333,0 300,0 C168.541667,0 95.4621875,0 47.7310417,47.7310417 C0,95.4621875 0,168.541667 0,300 C0,431.458333 0,504.537813 47.7310417,552.268958 C95.4621875,600 168.541667,600 300,600 C431.458333,600 504.537813,600 552.268958,552.268958 Z" id="path-2"></path>
                    </g>
                    <g id="path-2-link" stroke="#000000" stroke-width="4.04" fill="url(#linearGradient-1)">
                        <path d="M552.268958,552.268958 C600,504.537813 600,431.458333 600,300 C600,168.541667 600,95.4621875 552.268958,47.7310417 C504.537813,0 431.458333,0 300,0 C168.541667,0 95.4621875,0 47.7310417,47.7310417 C0,95.4621875 0,168.541667 0,300 C0,431.458333 0,504.537813 47.7310417,552.268958 C95.4621875,600 168.541667,600 300,600 C431.458333,600 504.537813,600 552.268958,552.268958 Z" id="path-2"></path>
                    </g>
                </g>
            </g>
            <g id="shopify-logo-default-cmyk" opacity="0.9" transform="translate(122.000000, 100.000000)">
                <path d="M164.0704,14.592 C166.288,14.592 168.5216,15.344 170.6592,16.816 C154.1952,24.5632 136.5472,44.0768 129.0944,83.0432 C118.2016,86.416 107.5552,89.712 97.712,92.7616 C106.4416,63.04 127.1712,14.592 164.0704,14.592 Z M179.3344,29.04 C182.4928,36.9568 184.5472,48.3168 184.5472,63.648 C184.5472,64.432 184.5408,65.1488 184.5344,65.8752 C172.0288,69.7472 158.448,73.952 144.832,78.1696 C152.4768,48.6656 166.8064,34.416 179.3344,29.04 Z M217.232,55.7568 C211.5264,57.5232 205.04,59.5296 198.0096,61.7056 C198.016,60.352 198.0192,59.0176 198.0192,57.5616 C198.0192,44.8576 196.2592,34.6304 193.4272,26.5216 C204.7936,27.9488 212.3616,40.8768 217.232,55.7568 Z M309.4944,78.3712 C309.2192,76.368 307.4656,75.2608 306.016,75.1392 C304.5696,75.0176 273.952,72.7488 273.952,72.7488 C273.952,72.7488 252.688,51.6384 250.3552,49.3024 C248.0192,46.9696 243.4592,47.6768 241.6896,48.1984 C241.4272,48.2752 237.0432,49.6288 229.7888,51.872 C222.6848,31.4336 210.1504,12.6496 188.096,12.6496 C187.488,12.6496 186.8608,12.6752 186.2304,12.7104 C179.9616,4.416 172.192,0.8128 165.4816,0.8128 C114.1088,0.8128 89.5648,65.0336 81.8688,97.6704 C61.9072,103.856 47.7248,108.2528 45.9136,108.8224 C34.768,112.3168 34.4192,112.6688 32.9568,123.168 C31.8528,131.1168 2.6976,356.5888 2.6976,356.5888 L229.8816,399.1552 L352.9792,372.5248 C352.9792,372.5248 309.7664,80.3744 309.4944,78.3712 L309.4944,78.3712 Z" id="Fill-3" fill="#8DB849"></path>
                <path d="M306.016,75.1392 C304.5696,75.0176 273.952,72.7488 273.952,72.7488 C273.952,72.7488 252.688,51.6384 250.3552,49.3056 C249.4816,48.432 248.304,47.9872 247.072,47.7952 L229.8944,399.152 L352.9792,372.5248 C352.9792,372.5248 309.7664,80.3776 309.4944,78.3712 C309.2192,76.368 307.4656,75.2608 306.016,75.1392" id="Fill-4" fill="#5A863D"></path>
                <path d="M188.096,143.1552 L172.9184,188.304 C172.9184,188.304 159.6192,181.2064 143.3184,181.2064 C119.4208,181.2064 118.2176,196.2048 118.2176,199.984 C118.2176,220.6048 171.968,228.5056 171.968,276.8064 C171.968,314.8064 147.8688,339.2768 115.3696,339.2768 C76.368,339.2768 56.4288,315.0048 56.4288,315.0048 L66.8704,280.5056 C66.8704,280.5056 87.3696,298.1056 104.6688,298.1056 C115.968,298.1056 120.5696,289.2064 120.5696,282.704 C120.5696,255.8048 76.4704,254.6048 76.4704,210.4064 C76.4704,173.2064 103.168,137.2064 157.0688,137.2064 C177.8368,137.2064 188.096,143.1552 188.096,143.1552" id="Fill-5" fill="#FFFFFF"></path>
            </g>
        </g>
    </g>
</svg>