<svg width="320" height="320" viewBox="0 0 320 320" fill="none" xmlns="http://www.w3.org/2000/svg">
<g clip-path="url(#clip0_1016_7671)">
<path d="M160 0C281.326 0 320 38.6737 320 160C320 281.326 281.326 320 160 320C38.6736 320 0 281.326 0 160C0 38.6737 38.6736 0 160 0Z" fill="url(#paint0_linear_1016_7671)"/>
<path d="M160 2C220.573 2 259.85 11.6833 284.083 35.9168C308.317 60.1504 318 99.4272 318 160C318 220.573 308.317 259.85 284.083 284.083C259.85 308.317 220.573 318 160 318C99.4272 318 60.1504 308.317 35.9168 284.083C11.6833 259.85 2 220.573 2 160C2 99.4272 11.6833 60.1504 35.9168 35.9168C60.1504 11.6833 99.4272 2 160 2Z" stroke="#F8FAFC" stroke-opacity="0.2" stroke-width="4"/>
<g clip-path="url(#clip1_1016_7671)">
<g clip-path="url(#clip2_1016_7671)">
<path d="M226.586 88.5113C226.447 87.5013 225.565 86.941 224.833 86.88C224.106 86.819 209.868 86.6027 209.868 86.6027C209.868 86.6027 197.96 75.0392 196.784 73.8628C195.608 72.6865 193.311 73.0416 192.417 73.308C192.406 73.3135 190.181 74.0016 186.436 75.1612C185.809 73.1304 184.888 70.6335 183.573 68.1255C179.334 60.0355 173.125 55.7575 165.623 55.7464C165.612 55.7464 165.606 55.7464 165.595 55.7464C165.073 55.7464 164.557 55.7964 164.036 55.8407C163.814 55.5744 163.592 55.3136 163.359 55.0584C160.091 51.5627 155.902 49.8593 150.88 50.0091C141.192 50.2865 131.543 57.2834 123.719 69.7124C118.215 78.4571 114.026 89.4437 112.838 97.9497C101.713 101.395 93.9339 103.803 93.7619 103.859C88.1466 105.623 87.9691 105.795 87.2367 111.089C86.6929 115.089 72 228.704 72 228.704L195.131 250L248.498 236.733C248.498 236.733 226.725 89.5213 226.586 88.5113ZM180.271 77.07C177.436 77.9467 174.212 78.9454 170.716 80.0274C170.644 75.1224 170.062 68.2975 167.776 62.3993C175.128 63.792 178.745 72.1095 180.271 77.07ZM164.274 82.0249C157.821 84.0223 150.78 86.203 143.717 88.3893C145.703 80.782 149.471 73.2081 154.098 68.242C155.818 66.3943 158.226 64.3358 161.078 63.1594C163.758 68.7525 164.341 76.6705 164.274 82.0249ZM151.074 56.4566C153.349 56.4067 155.263 56.9061 156.9 57.9825C154.281 59.342 151.751 61.2951 149.376 63.8419C143.223 70.4449 138.506 80.6933 136.625 90.581C130.76 92.3953 125.023 94.1767 119.741 95.808C123.076 80.2438 136.12 56.8894 151.074 56.4566Z" fill="#95BF47"/>
<path d="M224.838 86.8857C224.111 86.8247 209.873 86.6084 209.873 86.6084C209.873 86.6084 197.966 75.0449 196.789 73.8686C196.351 73.4302 195.757 73.2027 195.136 73.1084L195.141 249.995L248.503 236.733C248.503 236.733 226.73 89.5271 226.591 88.5171C226.452 87.5071 225.565 86.9467 224.838 86.8857Z" fill="#5E8E3E"/>
<path d="M165.556 114.324L159.358 137.512C159.358 137.512 152.445 134.366 144.249 134.882C132.231 135.642 132.103 143.221 132.225 145.125C132.88 155.495 160.163 157.759 161.694 182.051C162.898 201.161 151.557 214.233 135.216 215.265C115.601 216.503 104.804 204.934 104.804 204.934L108.96 187.256C108.96 187.256 119.829 195.457 128.53 194.907C134.212 194.547 136.242 189.925 136.037 186.656C135.183 173.129 112.966 173.928 111.562 151.7C110.38 132.995 122.665 114.041 149.77 112.332C160.213 111.661 165.556 114.324 165.556 114.324Z" fill="white"/>
</g>
</g>
</g>
<defs>
<linearGradient id="paint0_linear_1016_7671" x1="160" y1="0" x2="160" y2="320" gradientUnits="userSpaceOnUse">
<stop stop-color="#475569"/>
<stop offset="1" stop-color="#1E293B"/>
</linearGradient>
<clipPath id="clip0_1016_7671">
<rect width="320" height="320" fill="white"/>
</clipPath>
<clipPath id="clip1_1016_7671">
<rect width="240" height="240" fill="white" transform="translate(40 40)"/>
</clipPath>
<clipPath id="clip2_1016_7671">
<rect width="176.667" height="200" fill="white" transform="translate(72 50)"/>
</clipPath>
</defs>
</svg>
