<svg width="24" height="24" viewBox="0 0 24 24" fill="none" xmlns="http://www.w3.org/2000/svg">
<g opacity="0.7">
<path d="M17.763 18.91L17.413 18.031C17.236 17.585 16.961 17.185 16.609 16.859L16.545 16.8C15.991 16.286 15.263 16 14.507 16H9.493C8.737 16 8.009 16.286 7.454 16.799L7.39 16.859C7.038 17.185 6.764 17.585 6.586 18.031L6.236 18.91" stroke="white" stroke-width="1.5" stroke-linecap="round" stroke-linejoin="round"/>
<path d="M14.4749 7.44713C15.8417 8.81397 15.8417 11.03 14.4749 12.3969C13.1081 13.7637 10.892 13.7637 9.52515 12.3969C8.15831 11.03 8.15831 8.81397 9.52515 7.44713C10.892 6.08029 13.1081 6.08029 14.4749 7.44713" stroke="white" stroke-width="1.5" stroke-linecap="round" stroke-linejoin="round"/>
<path d="M18.364 5.63604C21.8787 9.15076 21.8787 14.8492 18.364 18.3639C14.8493 21.8787 9.1508 21.8787 5.6361 18.3639C2.12138 14.8492 2.12138 9.15074 5.6361 5.63604C9.15082 2.12132 14.8493 2.12132 18.364 5.63604" stroke="white" stroke-width="1.5" stroke-linecap="round" stroke-linejoin="round"/>
</g>
</svg>
