<svg width="24" height="24" viewBox="0 0 24 24" fill="none" xmlns="http://www.w3.org/2000/svg">
<g opacity="0.7">
<path d="M14.0008 21.0035H19.0029C20.1079 21.0035 21.0037 20.1077 21.0037 19.0026V15.001" stroke="white" stroke-width="1.5" stroke-linecap="round" stroke-linejoin="round"/>
<path d="M9.99916 2.99609H4.99708C3.89205 2.99609 2.99625 3.8919 2.99625 4.99693V9.99901" stroke="white" stroke-width="1.5" stroke-linecap="round" stroke-linejoin="round"/>
<circle cx="17.0021" cy="6.99818" r="5.00208" stroke="white" stroke-width="1.5" stroke-linecap="round" stroke-linejoin="round"/>
<path fill-rule="evenodd" clip-rule="evenodd" d="M6.9979 22.0042V22.0042C4.23533 22.0042 1.99582 19.7647 1.99582 17.0021V17.0021C1.99582 14.2395 4.23533 12 6.9979 12V12C8.32454 12 9.59684 12.527 10.5349 13.4651C11.473 14.4031 12 15.6754 12 17.0021V17.0021C12 18.3287 11.473 19.601 10.5349 20.5391C9.59684 21.4772 8.32454 22.0042 6.9979 22.0042Z" stroke="white" stroke-width="1.5" stroke-linecap="round" stroke-linejoin="round"/>
<path d="M5.46127 17.8322H8.54456" stroke="white" stroke-width="1.5" stroke-linecap="round" stroke-linejoin="round"/>
<path d="M8.79867 18.5527L7.50213 14.9512H6.49371L5.19717 18.5527" stroke="white" stroke-width="1.5" stroke-linecap="round" stroke-linejoin="round"/>
<path d="M18.5027 6.12228H17.0021" stroke="white" stroke-width="1.5" stroke-linecap="round" stroke-linejoin="round"/>
<path d="M17.0021 4.95508V6.12256" stroke="white" stroke-width="1.5" stroke-linecap="round" stroke-linejoin="round"/>
<path d="M15.5015 6.12228H17.0021" stroke="white" stroke-width="1.5" stroke-linecap="round" stroke-linejoin="round"/>
<path d="M18.3586 8.62409C17.5132 8.07286 17.0031 7.13228 17.0021 6.12305" stroke="white" stroke-width="1.5" stroke-linecap="round" stroke-linejoin="round"/>
<path d="M17.0021 6.12305C17.0011 7.13228 16.4909 8.07286 15.6455 8.62409" stroke="white" stroke-width="1.5" stroke-linecap="round" stroke-linejoin="round"/>
</g>
</svg>
