<svg width="24" height="24" viewBox="0 0 24 24" fill="none" xmlns="http://www.w3.org/2000/svg">
<g opacity="0.7">
<path d="M14.2189 15.2194C13.5509 15.7241 12.7372 15.9987 11.9 16.0017C9.74491 15.9984 7.99715 14.2551 7.98835 12.1001L7.99835 10.4994L6.66479 11.8339" stroke="white" stroke-width="1.5" stroke-linecap="round" stroke-linejoin="round"/>
<path d="M12.0001 21.0037C7.02745 21.0037 2.99634 16.9726 2.99634 12C2.99634 7.02733 7.02745 2.99622 12.0001 2.99622C16.9727 2.99622 21.0038 7.02733 21.0038 12C21.0038 16.9726 16.9727 21.0037 12.0001 21.0037" stroke="white" stroke-width="1.5" stroke-linecap="round" stroke-linejoin="round"/>
<path d="M17.3354 12.166L16.0019 13.5006L16.0159 11.8999C16.0065 9.74353 14.2567 7.99992 12.1003 7.99829C11.2624 8.00132 10.448 8.27581 9.7793 8.78062" stroke="white" stroke-width="1.5" stroke-linecap="round" stroke-linejoin="round"/>
</g>
</svg>
