<svg width="24" height="24" viewBox="0 0 24 24" fill="none" xmlns="http://www.w3.org/2000/svg">
<g opacity="0.7">
<path fill-rule="evenodd" clip-rule="evenodd" d="M8 10H5C3.895 10 3 9.105 3 8V5C3 3.895 3.895 3 5 3H8C9.105 3 10 3.895 10 5V8C10 9.105 9.105 10 8 10Z" stroke="white" stroke-width="1.5" stroke-linecap="round" stroke-linejoin="round"/>
<path fill-rule="evenodd" clip-rule="evenodd" d="M19 10H16C14.895 10 14 9.105 14 8V5C14 3.895 14.895 3 16 3H19C20.105 3 21 3.895 21 5V8C21 9.105 20.105 10 19 10Z" stroke="white" stroke-width="1.5" stroke-linecap="round" stroke-linejoin="round"/>
<path fill-rule="evenodd" clip-rule="evenodd" d="M8 21H5C3.895 21 3 20.105 3 19V16C3 14.895 3.895 14 5 14H8C9.105 14 10 14.895 10 16V19C10 20.105 9.105 21 8 21Z" stroke="white" stroke-width="1.5" stroke-linecap="round" stroke-linejoin="round"/>
<path d="M20 15.55H15" stroke="white" stroke-width="1.5" stroke-linecap="round" stroke-linejoin="round"/>
<path d="M15 19.45H20" stroke="white" stroke-width="1.5" stroke-linecap="round" stroke-linejoin="round"/>
</g>
</svg>
