<svg width="24" height="24" viewBox="0 0 24 24" fill="none" xmlns="http://www.w3.org/2000/svg">
<g opacity="0.7">
<path d="M18.3667 5.63339C21.8829 9.14959 21.8829 14.8504 18.3667 18.3666C14.8505 21.8828 9.14967 21.8828 5.63349 18.3666C2.11731 14.8504 2.11728 9.14959 5.63344 5.63339C7.32197 3.94484 9.61213 2.99622 12.0001 2.99622C14.388 2.99622 16.6782 3.94484 18.3667 5.63339" stroke="white" stroke-width="1.5" stroke-linecap="round" stroke-linejoin="round"/>
<rect x="7.3252" y="12.6853" width="3.27636" height="3.27636" rx="1" stroke="white" stroke-width="1.5" stroke-linecap="round" stroke-linejoin="round"/>
<circle cx="14.9782" cy="14.3249" r="1.83176" stroke="white" stroke-width="1.5" stroke-linecap="round" stroke-linejoin="round"/>
<path fill-rule="evenodd" clip-rule="evenodd" d="M11.8631 6.80583L10.0713 9.90712C10.0266 9.98458 10.0267 10.08 10.0715 10.1574C10.1163 10.2349 10.199 10.2825 10.2884 10.2823H13.8699C13.9594 10.2825 14.0421 10.2349 14.0869 10.1574C14.1317 10.08 14.1317 9.98458 14.087 9.90712L12.2963 6.80583C12.2516 6.72845 12.169 6.68079 12.0797 6.68079C11.9903 6.68079 11.9078 6.72845 11.8631 6.80583Z" stroke="white" stroke-width="1.5" stroke-linecap="round" stroke-linejoin="round"/>
</g>
</svg>
