<svg width="24" height="24" viewBox="0 0 24 24" fill="none" xmlns="http://www.w3.org/2000/svg">
<g opacity="0.7">
<path d="M16.502 13.1255H7.49829" stroke="white" stroke-width="1.5" stroke-linecap="round" stroke-linejoin="round"/>
<path fill-rule="evenodd" clip-rule="evenodd" d="M15.0014 16.5019H8.99892C8.60092 16.5019 8.21921 16.3438 7.93779 16.0624C7.65636 15.781 7.49829 15.3993 7.49829 15.0013V8.99879C7.49829 8.6008 7.65636 8.21909 7.93779 7.93767C8.21921 7.65624 8.60092 7.49817 8.99892 7.49817H15.0014C15.3994 7.49817 15.7811 7.65624 16.0625 7.93767C16.344 8.21909 16.502 8.6008 16.502 8.99879V15.0013C16.502 15.3993 16.344 15.781 16.0625 16.0624C15.7811 16.3438 15.3994 16.5019 15.0014 16.5019Z" stroke="white" stroke-width="1.5" stroke-linecap="round" stroke-linejoin="round"/>
<circle cx="12.0001" cy="12" r="9.00375" stroke="white" stroke-width="1.5" stroke-linecap="round" stroke-linejoin="round"/>
<path d="M9.99927 10.4994H14.0009" stroke="white" stroke-width="1.5" stroke-linecap="round" stroke-linejoin="round"/>
</g>
</svg>
