<svg width="24" height="24" viewBox="0 0 24 24" fill="none" xmlns="http://www.w3.org/2000/svg">
<g opacity="0.7">
<path d="M9.24894 15.7512C9.66316 15.7512 9.99894 15.4154 9.99894 15.0012C9.99894 14.587 9.66316 14.2512 9.24894 14.2512V15.7512ZM6.998 14.2512C6.58379 14.2512 6.248 14.587 6.248 15.0012C6.248 15.4154 6.58379 15.7512 6.998 15.7512V14.2512ZM9.99894 15.0012C9.99894 14.587 9.66316 14.2512 9.24894 14.2512C8.83473 14.2512 8.49894 14.587 8.49894 15.0012H9.99894ZM13.5004 15.0012C13.5004 14.587 13.1646 14.2512 12.7504 14.2512C12.3362 14.2512 12.0004 14.587 12.0004 15.0012H13.5004ZM8.49894 15.0012C8.49894 15.4154 8.83473 15.7512 9.24894 15.7512C9.66316 15.7512 9.99894 15.4154 9.99894 15.0012H8.49894ZM12.0004 15.0012C12.0004 15.4154 12.3362 15.7512 12.7504 15.7512C13.1646 15.7512 13.5004 15.4154 13.5004 15.0012H12.0004ZM17.0022 15.7512C17.4164 15.7512 17.7522 15.4154 17.7522 15.0012C17.7522 14.587 17.4164 14.2512 17.0022 14.2512V15.7512ZM12.7504 14.2512C12.3362 14.2512 12.0004 14.587 12.0004 15.0012C12.0004 15.4154 12.3362 15.7512 12.7504 15.7512V14.2512ZM11.2498 9.74872C11.664 9.74872 11.9998 9.41293 11.9998 8.99872C11.9998 8.5845 11.664 8.24872 11.2498 8.24872V9.74872ZM6.998 8.24872C6.58379 8.24872 6.248 8.5845 6.248 8.99872C6.248 9.41293 6.58379 9.74872 6.998 9.74872V8.24872ZM11.9998 8.99872C11.9998 8.5845 11.664 8.24872 11.2498 8.24872C10.8356 8.24872 10.4998 8.5845 10.4998 8.99872H11.9998ZM15.5012 8.99872C15.5012 8.5845 15.1654 8.24872 14.7512 8.24872C14.337 8.24872 14.0012 8.5845 14.0012 8.99872H15.5012ZM10.4998 8.99872C10.4998 9.41293 10.8356 9.74872 11.2498 9.74872C11.664 9.74872 11.9998 9.41293 11.9998 8.99872H10.4998ZM14.0012 8.99872C14.0012 9.41293 14.337 9.74872 14.7512 9.74872C15.1654 9.74872 15.5012 9.41293 15.5012 8.99872H14.0012ZM17.0022 9.74872C17.4164 9.74872 17.7522 9.41293 17.7522 8.99872C17.7522 8.5845 17.4164 8.24872 17.0022 8.24872V9.74872ZM14.7512 8.24872C14.337 8.24872 14.0012 8.5845 14.0012 8.99872C14.0012 9.41293 14.337 9.74872 14.7512 9.74872V8.24872ZM9.24894 14.2512H6.998V15.7512H9.24894V14.2512ZM8.49894 15.0012C8.49894 16.3823 9.61856 17.5019 10.9997 17.5019V16.0019C10.447 16.0019 9.99894 15.5539 9.99894 15.0012H8.49894ZM10.9997 17.5019C12.3808 17.5019 13.5004 16.3823 13.5004 15.0012H12.0004C12.0004 15.5539 11.5524 16.0019 10.9997 16.0019V17.5019ZM9.99894 15.0012C9.99894 14.4485 10.447 14.0005 10.9997 14.0005V12.5005C9.61856 12.5005 8.49894 13.6201 8.49894 15.0012H9.99894ZM10.9997 14.0005C11.5524 14.0005 12.0004 14.4485 12.0004 15.0012H13.5004C13.5004 13.6201 12.3808 12.5005 10.9997 12.5005V14.0005ZM17.0022 14.2512H12.7504V15.7512H17.0022V14.2512ZM20.2538 12C20.2538 16.5584 16.5585 20.2537 12.0001 20.2537V21.7537C17.3869 21.7537 21.7538 17.3868 21.7538 12H20.2538ZM12.0001 20.2537C7.44167 20.2537 3.74634 16.5584 3.74634 12H2.24634C2.24634 17.3868 6.61324 21.7537 12.0001 21.7537V20.2537ZM3.74634 12C3.74634 7.44155 7.44167 3.74622 12.0001 3.74622V2.24622C6.61324 2.24622 2.24634 6.61312 2.24634 12H3.74634ZM12.0001 3.74622C14.1891 3.74622 16.2885 4.6158 17.8364 6.16368L18.897 5.10302C17.0678 3.27384 14.5869 2.24622 12.0001 2.24622V3.74622ZM17.8364 6.16368C19.3842 7.71156 20.2538 9.81094 20.2538 12H21.7538C21.7538 9.41311 20.7262 6.93221 18.897 5.10302L17.8364 6.16368ZM11.2498 8.24872H6.998V9.74872H11.2498V8.24872ZM10.4998 8.99872C10.4998 10.3798 11.6194 11.4994 13.0005 11.4994V9.99944C12.4478 9.99944 11.9998 9.5514 11.9998 8.99872H10.4998ZM13.0005 11.4994C14.3816 11.4994 15.5012 10.3798 15.5012 8.99872H14.0012C14.0012 9.5514 13.5532 9.99944 13.0005 9.99944V11.4994ZM11.9998 8.99872C11.9998 8.44603 12.4478 7.99799 13.0005 7.99799V6.49799C11.6194 6.49799 10.4998 7.6176 10.4998 8.99872H11.9998ZM13.0005 7.99799C13.5532 7.99799 14.0012 8.44603 14.0012 8.99872H15.5012C15.5012 7.6176 14.3816 6.49799 13.0005 6.49799V7.99799ZM17.0022 8.24872H14.7512V9.74872H17.0022V8.24872Z" fill="white"/>
</g>
</svg>
