<svg width="24" height="24" viewBox="0 0 24 24" fill="none" xmlns="http://www.w3.org/2000/svg">
<g opacity="0.7">
<path d="M9.24882 15.7512C9.66303 15.7512 9.99882 15.4154 9.99882 15.0012C9.99882 14.587 9.66303 14.2512 9.24882 14.2512V15.7512ZM6.99788 14.2512C6.58367 14.2512 6.24788 14.587 6.24788 15.0012C6.24788 15.4154 6.58367 15.7512 6.99788 15.7512V14.2512ZM9.99882 15.0012C9.99882 14.587 9.66303 14.2512 9.24882 14.2512C8.83461 14.2512 8.49882 14.587 8.49882 15.0012H9.99882ZM13.5003 15.0012C13.5003 14.587 13.1645 14.2512 12.7503 14.2512C12.3361 14.2512 12.0003 14.587 12.0003 15.0012H13.5003ZM8.49882 15.0012C8.49882 15.4154 8.83461 15.7512 9.24882 15.7512C9.66303 15.7512 9.99882 15.4154 9.99882 15.0012H8.49882ZM12.0003 15.0012C12.0003 15.4154 12.3361 15.7512 12.7503 15.7512C13.1645 15.7512 13.5003 15.4154 13.5003 15.0012H12.0003ZM17.002 15.7512C17.4163 15.7512 17.752 15.4154 17.752 15.0012C17.752 14.587 17.4163 14.2512 17.002 14.2512V15.7512ZM12.7503 14.2512C12.3361 14.2512 12.0003 14.587 12.0003 15.0012C12.0003 15.4154 12.3361 15.7512 12.7503 15.7512V14.2512ZM11.2497 9.74872C11.6639 9.74872 11.9997 9.41293 11.9997 8.99872C11.9997 8.5845 11.6639 8.24872 11.2497 8.24872V9.74872ZM6.99788 8.24872C6.58367 8.24872 6.24788 8.5845 6.24788 8.99872C6.24788 9.41293 6.58367 9.74872 6.99788 9.74872V8.24872ZM11.9997 8.99872C11.9997 8.5845 11.6639 8.24872 11.2497 8.24872C10.8354 8.24872 10.4997 8.5845 10.4997 8.99872H11.9997ZM15.5011 8.99872C15.5011 8.5845 15.1653 8.24872 14.7511 8.24872C14.3369 8.24872 14.0011 8.5845 14.0011 8.99872H15.5011ZM10.4997 8.99872C10.4997 9.41293 10.8354 9.74872 11.2497 9.74872C11.6639 9.74872 11.9997 9.41293 11.9997 8.99872H10.4997ZM14.0011 8.99872C14.0011 9.41293 14.3369 9.74872 14.7511 9.74872C15.1653 9.74872 15.5011 9.41293 15.5011 8.99872H14.0011ZM17.002 9.74872C17.4163 9.74872 17.752 9.41293 17.752 8.99872C17.752 8.5845 17.4163 8.24872 17.002 8.24872V9.74872ZM14.7511 8.24872C14.3369 8.24872 14.0011 8.5845 14.0011 8.99872C14.0011 9.41293 14.3369 9.74872 14.7511 9.74872V8.24872ZM9.24882 14.2512H6.99788V15.7512H9.24882V14.2512ZM8.49882 15.0012C8.49882 16.3823 9.61843 17.5019 10.9995 17.5019V16.0019C10.4469 16.0019 9.99882 15.5539 9.99882 15.0012H8.49882ZM10.9995 17.5019C12.3807 17.5019 13.5003 16.3823 13.5003 15.0012H12.0003C12.0003 15.5539 11.5522 16.0019 10.9995 16.0019V17.5019ZM9.99882 15.0012C9.99882 14.4485 10.4469 14.0005 10.9995 14.0005V12.5005C9.61843 12.5005 8.49882 13.6201 8.49882 15.0012H9.99882ZM10.9995 14.0005C11.5522 14.0005 12.0003 14.4485 12.0003 15.0012H13.5003C13.5003 13.6201 12.3807 12.5005 10.9995 12.5005V14.0005ZM17.002 14.2512H12.7503V15.7512H17.002V14.2512ZM20.2537 12C20.2537 16.5584 16.5584 20.2537 12 20.2537V21.7537C17.3868 21.7537 21.7537 17.3868 21.7537 12H20.2537ZM12 20.2537C7.44155 20.2537 3.74622 16.5584 3.74622 12H2.24622C2.24622 17.3868 6.61312 21.7537 12 21.7537V20.2537ZM3.74622 12C3.74622 7.44155 7.44155 3.74622 12 3.74622V2.24622C6.61312 2.24622 2.24622 6.61312 2.24622 12H3.74622ZM12 3.74622C14.189 3.74622 16.2884 4.6158 17.8362 6.16368L18.8969 5.10302C17.0677 3.27384 14.5868 2.24622 12 2.24622V3.74622ZM17.8362 6.16368C19.3841 7.71156 20.2537 9.81094 20.2537 12H21.7537C21.7537 9.41311 20.7261 6.93221 18.8969 5.10302L17.8362 6.16368ZM11.2497 8.24872H6.99788V9.74872H11.2497V8.24872ZM10.4997 8.99872C10.4997 10.3798 11.6193 11.4994 13.0004 11.4994V9.99944C12.4477 9.99944 11.9997 9.5514 11.9997 8.99872H10.4997ZM13.0004 11.4994C14.3815 11.4994 15.5011 10.3798 15.5011 8.99872H14.0011C14.0011 9.5514 13.5531 9.99944 13.0004 9.99944V11.4994ZM11.9997 8.99872C11.9997 8.44603 12.4477 7.99799 13.0004 7.99799V6.49799C11.6193 6.49799 10.4997 7.6176 10.4997 8.99872H11.9997ZM13.0004 7.99799C13.5531 7.99799 14.0011 8.44603 14.0011 8.99872H15.5011C15.5011 7.6176 14.3815 6.49799 13.0004 6.49799V7.99799ZM17.002 8.24872H14.7511V9.74872H17.002V8.24872Z" fill="white"/>
</g>
</svg>
