<svg width="320" height="320" viewBox="0 0 320 320" fill="none" xmlns="http://www.w3.org/2000/svg">
<g clip-path="url(#clip0_1004_7311)">
<path d="M160 0C281.326 0 320 38.6737 320 160C320 281.326 281.326 320 160 320C38.6736 320 0 281.326 0 160C0 38.6737 38.6736 0 160 0Z" fill="url(#paint0_linear_1004_7311)"/>
<path d="M160 2C220.573 2 259.85 11.6833 284.083 35.9168C308.317 60.1504 318 99.4272 318 160C318 220.573 308.317 259.85 284.083 284.083C259.85 308.317 220.573 318 160 318C99.4272 318 60.1504 308.317 35.9168 284.083C11.6833 259.85 2 220.573 2 160C2 99.4272 11.6833 60.1504 35.9168 35.9168C60.1504 11.6833 99.4272 2 160 2Z" stroke="#0F172A" stroke-opacity="0.2" stroke-width="4"/>
<g clip-path="url(#clip1_1004_7311)">
<path fill-rule="evenodd" clip-rule="evenodd" d="M202.921 150.01C199.624 148.288 197.917 143.967 200.617 141.408C203.016 139.134 205.665 137.12 208.517 135.411C210.086 134.471 212.037 134.636 213.631 135.532C218.694 138.377 224.535 140 230.755 140C237.338 140 243.496 138.183 248.755 135.023C250.322 134.081 252.268 133.86 253.863 134.754C265.68 141.378 274.222 153.148 276.456 167.028C276.682 168.431 276.223 169.855 275.237 170.879C267.048 179.379 256.39 185.484 244.417 188.039C242.348 188.48 240.287 187.422 239.22 185.596C230.525 170.715 218.17 158.485 203.484 150.313C203.297 150.209 203.109 150.108 202.921 150.01Z" fill="url(#paint1_linear_1004_7311)"/>
<path fill-rule="evenodd" clip-rule="evenodd" d="M215.183 124.559C213.713 123.387 213.305 121.39 213.802 119.577C215.075 114.934 215.755 110.047 215.755 105C215.755 99.9534 215.075 95.0655 213.802 90.423C213.305 88.6095 213.713 86.6129 215.183 85.4407C219.455 82.0353 224.868 80 230.755 80C244.562 80 255.755 91.1929 255.755 105C255.755 118.807 244.562 130 230.755 130C224.868 130 219.455 127.965 215.183 124.559Z" fill="url(#paint2_linear_1004_7311)"/>
<path fill-rule="evenodd" clip-rule="evenodd" d="M44.2759 170.879C43.2898 169.856 42.8308 168.432 43.0565 167.029C45.2178 153.596 53.2884 142.139 64.5169 135.411C66.0857 134.471 68.0371 134.636 69.6315 135.532C74.6936 138.377 80.5351 140 86.7555 140C93.3377 140 99.4956 138.183 104.755 135.023C106.322 134.081 108.268 133.86 109.863 134.754C113.714 136.913 117.217 139.618 120.268 142.765C122.465 145.032 121.535 148.664 118.772 150.192C103.851 158.44 91.322 170.872 82.5722 186.017C81.5467 187.792 79.5818 188.855 77.5608 188.511C64.5867 186.305 53.0228 179.958 44.2759 170.879Z" fill="url(#paint3_linear_1004_7311)"/>
<path fill-rule="evenodd" clip-rule="evenodd" d="M107.586 94.0331C107.881 92.7018 107.706 91.2857 106.897 90.1877C102.346 84.0088 95.0189 80 86.7559 80C72.9487 80 61.7559 91.1929 61.7559 105C61.7559 118.807 72.9487 130 86.7559 130C94.7792 130 101.92 126.22 106.494 120.345C107.332 119.269 107.545 117.859 107.285 116.521C106.626 113.115 106.28 109.598 106.28 106C106.28 101.89 106.731 97.8856 107.586 94.0331Z" fill="url(#paint4_linear_1004_7311)"/>
<path fill-rule="evenodd" clip-rule="evenodd" d="M151.937 159.21C141.557 157.433 130.53 155.458 121.343 160.605C103.807 170.429 90.2417 186.498 83.658 205.799C79.9874 216.56 83.8684 228.359 92.7186 235.497C111.514 250.655 135.42 259.73 161.447 259.73C187.473 259.73 211.379 250.655 230.175 235.497C239.025 228.359 242.906 216.56 239.235 205.799C232.628 186.429 218.989 170.315 201.362 160.5C192.161 155.377 181.14 157.382 170.766 159.185C167.684 159.721 164.515 160 161.28 160C158.095 160 154.973 159.729 151.937 159.21Z" fill="url(#paint5_linear_1004_7311)"/>
<circle cx="161.28" cy="105" r="45" fill="url(#paint6_linear_1004_7311)"/>
</g>
</g>
<defs>
<linearGradient id="paint0_linear_1004_7311" x1="160" y1="0" x2="160" y2="320" gradientUnits="userSpaceOnUse">
<stop stop-color="#F8FAFC"/>
<stop offset="1" stop-color="#E2E8F0"/>
</linearGradient>
<linearGradient id="paint1_linear_1004_7311" x1="237.896" y1="134.188" x2="237.896" y2="188.139" gradientUnits="userSpaceOnUse">
<stop stop-color="#FB7185"/>
<stop offset="1" stop-color="#E11D48"/>
</linearGradient>
<linearGradient id="paint2_linear_1004_7311" x1="234.678" y1="80" x2="234.678" y2="130" gradientUnits="userSpaceOnUse">
<stop stop-color="#FB7185"/>
<stop offset="1" stop-color="#E11D48"/>
</linearGradient>
<linearGradient id="paint3_linear_1004_7311" x1="82.2445" y1="134.188" x2="82.2445" y2="188.576" gradientUnits="userSpaceOnUse">
<stop stop-color="#FB7185"/>
<stop offset="1" stop-color="#E11D48"/>
</linearGradient>
<linearGradient id="paint4_linear_1004_7311" x1="84.7381" y1="80" x2="84.7381" y2="130" gradientUnits="userSpaceOnUse">
<stop stop-color="#FB7185"/>
<stop offset="1" stop-color="#E11D48"/>
</linearGradient>
<linearGradient id="paint5_linear_1004_7311" x1="161.447" y1="157.239" x2="161.447" y2="259.73" gradientUnits="userSpaceOnUse">
<stop stop-color="#34D399"/>
<stop offset="1" stop-color="#059669"/>
</linearGradient>
<linearGradient id="paint6_linear_1004_7311" x1="161.28" y1="60" x2="161.28" y2="150" gradientUnits="userSpaceOnUse">
<stop stop-color="#FB923C"/>
<stop offset="1" stop-color="#EA580C"/>
</linearGradient>
<clipPath id="clip0_1004_7311">
<rect width="320" height="320" fill="white"/>
</clipPath>
<clipPath id="clip1_1004_7311">
<rect width="240" height="240" fill="white" transform="translate(40 40)"/>
</clipPath>
</defs>
</svg>
