<svg width="320" height="320" viewBox="0 0 320 320" fill="none" xmlns="http://www.w3.org/2000/svg">
<g clip-path="url(#clip0_1014_7657)">
<path d="M160 0C281.326 0 320 38.6737 320 160C320 281.326 281.326 320 160 320C38.6736 320 0 281.326 0 160C0 38.6737 38.6736 0 160 0Z" fill="url(#paint0_linear_1014_7657)"/>
<path d="M160 2C220.573 2 259.85 11.6833 284.083 35.9168C308.317 60.1504 318 99.4272 318 160C318 220.573 308.317 259.85 284.083 284.083C259.85 308.317 220.573 318 160 318C99.4272 318 60.1504 308.317 35.9168 284.083C11.6833 259.85 2 220.573 2 160C2 99.4272 11.6833 60.1504 35.9168 35.9168C60.1504 11.6833 99.4272 2 160 2Z" stroke="#F8FAFC" stroke-opacity="0.2" stroke-width="4"/>
<g clip-path="url(#clip1_1014_7657)">
<g clip-path="url(#clip2_1014_7657)">
<path d="M113.416 144.072C113.416 149.277 112.221 154.056 109.832 158.408C107.443 162.675 103.773 166.131 98.824 168.776C93.8747 171.421 87.7307 172.744 80.392 172.744H66.824V205H44.936V115.144H80.392C87.56 115.144 93.6187 116.381 98.568 118.856C103.517 121.331 107.229 124.744 109.704 129.096C112.179 133.448 113.416 138.44 113.416 144.072ZM78.728 155.336C82.9093 155.336 86.024 154.355 88.072 152.392C90.12 150.429 91.144 147.656 91.144 144.072C91.144 140.488 90.12 137.715 88.072 135.752C86.024 133.789 82.9093 132.808 78.728 132.808H66.824V155.336H78.728ZM144.139 110.28V205H122.251V110.28H144.139ZM230.401 133.576L185.601 238.92H162.049L178.433 202.568L149.377 133.576H173.825L190.337 178.248L206.721 133.576H230.401ZM257.644 145.48C260.204 141.555 263.404 138.483 267.244 136.264C271.084 133.96 275.351 132.808 280.044 132.808V155.976H274.028C268.567 155.976 264.471 157.171 261.74 159.56C259.009 161.864 257.644 165.96 257.644 171.848V205H235.756V133.576H257.644V145.48Z" fill="#38BDF8"/>
</g>
</g>
</g>
<defs>
<linearGradient id="paint0_linear_1014_7657" x1="160" y1="0" x2="160" y2="320" gradientUnits="userSpaceOnUse">
<stop stop-color="#475569"/>
<stop offset="1" stop-color="#1E293B"/>
</linearGradient>
<clipPath id="clip0_1014_7657">
<rect width="320" height="320" fill="white"/>
</clipPath>
<clipPath id="clip1_1014_7657">
<rect width="240" height="240" fill="white" transform="translate(40 40)"/>
</clipPath>
<clipPath id="clip2_1014_7657">
<rect width="240" height="240" fill="white" transform="translate(40 40)"/>
</clipPath>
</defs>
</svg>
