<svg width="80" height="80" viewBox="0 0 80 80" fill="none" xmlns="http://www.w3.org/2000/svg">
<rect width="80" height="80" fill="url(#paint0_linear_stripe_connect)"/>
<g transform="translate(14.000 29.181) scale(0.10156)">
<svg:path xmlns:svg="http://www.w3.org/2000/svg" fill="white" d="M512 110.08c0-36.409-17.636-65.138-51.342-65.138c-33.85 0-54.33 28.73-54.33 64.854c0 42.808 24.179 64.426 58.88 64.426c16.925 0 29.725-3.84 39.396-9.244v-28.445c-9.67 4.836-20.764 7.823-34.844 7.823c-13.796 0-26.027-4.836-27.591-21.618h69.547c0-1.85.284-9.245.284-12.658m-70.258-13.511c0-16.071 9.814-22.756 18.774-22.756c8.675 0 17.92 6.685 17.92 22.756zm-90.31-51.627c-13.939 0-22.899 6.542-27.876 11.094l-1.85-8.818h-31.288v165.83l35.555-7.537l.143-40.249c5.12 3.698 12.657 8.96 25.173 8.96c25.458 0 48.64-20.48 48.64-65.564c-.142-41.245-23.609-63.716-48.498-63.716m-8.534 97.991c-8.391 0-13.37-2.986-16.782-6.684l-.143-52.765c3.698-4.124 8.818-6.968 16.925-6.968c12.942 0 21.902 14.506 21.902 33.137c0 19.058-8.818 33.28-21.902 33.28M241.493 36.551l35.698-7.68V0l-35.698 7.538zm0 10.809h35.698v124.444h-35.698zm-38.257 10.524L200.96 47.36h-30.72v124.444h35.556V87.467c8.39-10.951 22.613-8.96 27.022-7.396V47.36c-4.551-1.707-21.191-4.836-29.582 10.524m-71.112-41.386l-34.702 7.395l-.142 113.92c0 21.05 15.787 36.551 36.836 36.551c11.662 0 20.195-2.133 24.888-4.693V140.8c-4.55 1.849-27.022 8.391-27.022-12.658V77.653h27.022V47.36h-27.022zM35.982 83.484c0-5.546 4.551-7.68 12.09-7.68c10.808 0 24.461 3.272 35.27 9.103V51.484c-11.804-4.693-23.466-6.542-35.27-6.542C19.2 44.942 0 60.018 0 85.192c0 39.252 54.044 32.995 54.044 49.92c0 6.541-5.688 8.675-13.653 8.675c-11.804 0-26.88-4.836-38.827-11.378v33.849c13.227 5.689 26.596 8.106 38.827 8.106c29.582 0 49.92-14.648 49.92-40.106c-.142-42.382-54.329-34.845-54.329-50.774" />
</g>
<g transform="translate(14.000 30.181) scale(0.10156)">
<path fill-rule="evenodd" fill="black" fill-opacity="0.1" d="M241.49 36.55 L277.19 28.87 L277.19 0.00 L241.49 7.54 Z M132.12 16.50 L97.42 23.89 L97.30 139.11 L97.41 141.03 L97.60 142.92 L97.88 144.79 L98.25 146.62 L98.71 148.43 L99.26 150.21 L99.89 151.95 L100.61 153.63 L101.40 155.27 L102.28 156.87 L103.24 158.41 L104.29 159.91 L105.39 161.34 L106.58 162.71 L107.85 164.02 L109.17 165.27 L110.57 166.44 L112.01 167.53 L113.53 168.55 L115.09 169.50 L116.70 170.36 L118.37 171.15 L120.07 171.84 L121.82 172.46 L123.60 172.99 L125.39 173.43 L127.23 173.79 L129.09 174.06 L130.89 174.24 L132.73 174.34 L134.61 174.36 L137.01 174.32 L140.35 174.15 L143.56 173.86 L146.62 173.44 L149.54 172.90 L152.27 172.25 L154.78 171.48 L157.04 170.62 L159.00 169.67 L159.00 140.80 L157.04 141.50 L154.78 142.13 L152.51 142.63 L150.28 142.98 L148.17 143.18 L146.18 143.22 L144.28 143.11 L142.51 142.86 L140.91 142.46 L139.44 141.93 L138.09 141.26 L136.88 140.45 L135.79 139.49 L134.84 138.40 L134.02 137.18 L133.35 135.83 L132.79 134.28 L132.38 132.60 L132.11 130.77 L131.99 128.82 L131.98 77.65 L159.00 77.65 L159.00 47.36 L131.98 47.36 Z M203.24 57.88 L200.96 47.36 L170.24 47.36 L170.24 171.80 L205.80 171.80 L205.80 87.47 L206.93 86.11 L208.15 84.85 L209.47 83.71 L210.88 82.68 L212.36 81.78 L213.95 80.99 L215.59 80.32 L217.34 79.77 L219.20 79.34 L221.12 79.04 L223.09 78.87 L225.12 78.84 L227.19 78.95 L229.23 79.21 L231.17 79.59 L232.82 80.07 L232.82 47.36 L230.85 46.76 L228.58 46.29 L226.24 46.00 L223.89 45.89 L221.64 45.97 L219.45 46.23 L217.33 46.66 L215.31 47.27 L213.45 48.03 L211.68 48.95 L210.02 50.02 L208.46 51.26 L207.03 52.63 L205.70 54.16 L204.54 55.73 Z M241.49 47.36 L241.49 171.80 L277.19 171.80 L277.19 47.36 Z M512.00 110.01 L511.94 106.50 L511.77 103.04 L511.49 99.62 L511.10 96.28 L510.60 93.00 L510.00 89.80 L509.28 86.67 L508.46 83.64 L507.53 80.69 L506.51 77.84 L505.37 75.08 L504.14 72.42 L502.81 69.87 L501.38 67.44 L499.86 65.10 L498.24 62.89 L496.54 60.81 L494.76 58.84 L492.89 57.01 L490.94 55.30 L488.92 53.71 L486.80 52.25 L484.61 50.92 L482.34 49.72 L480.01 48.65 L477.60 47.72 L475.13 46.92 L472.60 46.26 L470.01 45.73 L467.33 45.34 L464.61 45.08 L461.82 44.95 L458.91 44.97 L456.05 45.12 L453.24 45.42 L450.48 45.86 L447.77 46.44 L445.12 47.16 L442.53 48.03 L440.00 49.03 L437.54 50.17 L435.16 51.44 L432.83 52.85 L430.59 54.39 L428.43 56.07 L426.36 57.86 L424.37 59.78 L422.47 61.83 L420.65 64.01 L418.92 66.31 L417.30 68.71 L415.78 71.23 L414.36 73.85 L413.05 76.57 L411.86 79.37 L410.77 82.26 L409.80 85.26 L408.95 88.31 L408.21 91.43 L407.60 94.62 L407.10 97.88 L406.73 101.18 L406.48 104.53 L406.35 107.93 L406.34 111.60 L406.47 115.28 L406.71 118.85 L407.08 122.33 L407.57 125.70 L408.18 128.98 L408.92 132.17 L409.77 135.24 L410.76 138.23 L411.85 141.10 L413.07 143.88 L414.41 146.53 L415.86 149.08 L417.43 151.52 L419.11 153.83 L420.91 156.04 L422.82 158.13 L424.86 160.11 L426.99 161.96 L429.24 163.69 L431.58 165.29 L434.04 166.77 L436.59 168.11 L439.23 169.32 L441.98 170.40 L444.82 171.35 L447.73 172.16 L450.75 172.85 L453.83 173.39 L457.01 173.80 L460.26 174.07 L463.58 174.21 L466.42 174.22 L469.37 174.14 L472.23 173.99 L475.05 173.76 L477.81 173.46 L480.52 173.07 L483.17 172.61 L485.77 172.07 L488.31 171.45 L490.80 170.76 L493.24 169.99 L495.62 169.14 L497.95 168.21 L500.22 167.21 L502.44 166.13 L504.60 164.98 L504.60 136.53 L502.03 137.76 L499.43 138.88 L496.81 139.89 L494.15 140.79 L491.44 141.59 L488.71 142.29 L485.93 142.88 L483.09 143.37 L479.90 143.80 L476.63 144.11 L473.30 144.29 L469.88 144.36 L467.25 144.30 L464.76 144.12 L462.38 143.82 L460.13 143.40 L458.14 142.90 L456.28 142.29 L454.54 141.58 L452.89 140.75 L451.35 139.83 L449.94 138.79 L448.64 137.65 L447.46 136.41 L446.39 135.06 L445.44 133.61 L444.60 132.05 L443.89 130.41 L443.28 128.64 L442.80 126.78 L442.42 124.80 L442.17 122.74 L511.72 122.74 Z M35.98 83.42 L36.04 82.42 L36.21 81.50 L36.47 80.66 L36.85 79.87 L37.33 79.16 L37.92 78.52 L38.61 77.95 L39.42 77.44 L40.32 77.01 L41.34 76.64 L42.46 76.34 L43.70 76.10 L45.03 75.94 L46.48 75.84 L47.99 75.80 L49.82 75.83 L51.86 75.93 L53.96 76.10 L56.11 76.34 L58.26 76.64 L60.47 77.02 L62.67 77.46 L64.88 77.96 L67.07 78.53 L69.24 79.15 L71.40 79.82 L73.52 80.56 L75.60 81.34 L77.62 82.16 L79.59 83.04 L81.50 83.95 L83.34 84.91 L83.34 51.48 L80.01 50.23 L76.65 49.12 L73.27 48.14 L69.83 47.29 L66.36 46.57 L62.85 45.99 L59.28 45.53 L55.65 45.21 L51.81 45.01 L47.90 44.94 L44.54 45.02 L41.26 45.24 L37.96 45.61 L34.77 46.12 L31.69 46.78 L28.71 47.59 L25.97 48.50 L23.33 49.54 L20.81 50.71 L18.41 52.01 L16.15 53.44 L14.01 54.98 L12.01 56.65 L10.17 58.43 L8.47 60.32 L6.92 62.30 L5.52 64.40 L4.27 66.61 L3.18 68.90 L2.24 71.30 L1.47 73.79 L0.86 76.35 L0.48 78.49 L0.21 80.67 L0.05 82.89 L0.00 85.17 L0.05 87.28 L0.21 89.31 L0.47 91.28 L0.85 93.21 L1.33 95.06 L1.91 96.84 L2.59 98.55 L3.39 100.22 L4.29 101.83 L5.31 103.39 L6.42 104.88 L7.65 106.32 L8.85 107.58 L10.14 108.79 L11.53 109.97 L13.01 111.10 L14.58 112.20 L16.25 113.27 L18.05 114.32 L19.95 115.33 L23.46 117.01 L27.45 118.70 L31.35 120.19 L39.70 123.25 L43.18 124.62 L46.25 126.01 L47.54 126.68 L48.69 127.35 L49.96 128.20 L51.05 129.08 L51.97 129.98 L52.71 130.91 L53.29 131.88 L53.70 132.89 L53.95 133.95 L54.04 135.05 L53.99 136.20 L53.81 137.26 L53.51 138.24 L53.08 139.15 L52.52 139.98 L51.84 140.72 L51.02 141.39 L50.10 141.96 L49.06 142.45 L47.87 142.88 L46.56 143.22 L45.11 143.48 L43.54 143.66 L41.82 143.76 L39.97 143.79 L38.06 143.73 L36.03 143.59 L33.93 143.36 L31.78 143.05 L29.55 142.66 L27.28 142.19 L24.96 141.64 L22.61 141.01 L20.24 140.31 L17.85 139.53 L15.44 138.69 L13.05 137.78 L10.67 136.80 L8.33 135.78 L6.03 134.70 L3.76 133.57 L1.56 132.41 L1.56 166.26 L5.06 167.69 L8.62 168.99 L12.22 170.15 L15.87 171.18 L19.53 172.06 L23.22 172.80 L26.91 173.40 L30.63 173.86 L34.39 174.17 L38.14 174.34 L41.86 174.35 L45.46 174.22 L48.96 173.93 L52.35 173.50 L55.65 172.91 L58.83 172.18 L60.97 171.59 L63.05 170.93 L65.09 170.19 L67.04 169.39 L68.94 168.51 L70.76 167.57 L72.50 166.57 L74.18 165.50 L75.78 164.36 L77.29 163.18 L78.75 161.91 L80.11 160.60 L81.39 159.22 L82.59 157.80 L83.70 156.31 L84.73 154.77 L85.69 153.15 L86.56 151.49 L87.34 149.78 L88.03 148.02 L88.63 146.21 L89.13 144.36 L89.55 142.46 L89.88 140.50 L90.12 138.45 L90.26 136.35 L90.31 134.26 L90.26 132.13 L90.11 130.05 L89.86 128.03 L89.53 126.08 L89.10 124.20 L88.31 121.60 L87.33 119.10 L86.15 116.73 L84.78 114.49 L83.22 112.37 L81.45 110.35 L79.47 108.44 L77.29 106.63 L74.92 104.94 L72.31 103.33 L69.46 101.79 L66.33 100.31 L63.38 99.06 L60.05 97.79 L49.76 94.21 L46.64 93.07 L43.70 91.85 L41.37 90.67 L40.06 89.88 L38.95 89.06 L38.03 88.22 L37.28 87.35 L36.70 86.44 L36.30 85.48 L36.06 84.48 Z M351.32 44.94 L349.38 44.99 L347.44 45.13 L345.56 45.35 L343.70 45.65 L341.86 46.04 L340.04 46.53 L338.26 47.09 L336.51 47.74 L334.79 48.48 L333.09 49.30 L331.44 50.20 L329.81 51.19 L328.21 52.27 L326.64 53.43 L325.09 54.68 L323.56 56.04 L321.71 47.22 L290.42 47.22 L290.42 213.05 L325.97 205.51 L326.12 165.26 L328.76 167.12 L330.99 168.56 L333.20 169.81 L335.39 170.89 L337.66 171.83 L339.96 172.61 L342.32 173.24 L344.74 173.71 L347.33 174.04 L350.01 174.20 L352.79 174.20 L355.57 174.03 L358.27 173.69 L360.94 173.20 L363.56 172.55 L366.11 171.73 L368.51 170.81 L370.87 169.73 L373.15 168.51 L375.36 167.15 L377.49 165.65 L379.53 164.03 L381.48 162.27 L383.35 160.39 L385.13 158.37 L386.81 156.25 L388.40 154.00 L389.89 151.63 L391.29 149.15 L392.58 146.56 L393.77 143.85 L394.86 141.04 L396.12 137.24 L397.19 133.28 L398.09 129.17 L398.82 124.87 L399.36 120.42 L399.73 115.80 L399.91 110.94 L399.89 106.29 L399.69 101.90 L399.30 97.64 L398.73 93.45 L397.97 89.41 L397.03 85.47 L395.92 81.69 L394.62 78.04 L393.16 74.53 L391.52 71.19 L389.73 68.02 L387.76 65.01 L385.66 62.18 L383.39 59.54 L382.21 58.30 L380.98 57.09 L379.73 55.94 L378.45 54.85 L377.14 53.81 L375.79 52.82 L374.42 51.88 L373.00 51.00 L371.57 50.17 L370.12 49.41 L368.64 48.70 L367.13 48.05 L365.61 47.46 L364.07 46.93 L362.51 46.46 L360.94 46.05 L359.36 45.71 L357.76 45.43 L356.16 45.21 L354.55 45.06 L352.94 44.97 Z"/>
</g>
<defs>
<linearGradient id="paint0_linear_stripe_connect" x1="40" y1="0" x2="40" y2="80" gradientUnits="userSpaceOnUse">
<stop stop-color="#6F68FF"/>
<stop offset="1" stop-color="#4F48D9"/>
</linearGradient>

</defs>
</svg>
