<?xml version="1.0" encoding="UTF-8"?>
<svg width="606px" height="606px" viewBox="0 0 606 606" version="1.1" xmlns="http://www.w3.org/2000/svg" xmlns:xlink="http://www.w3.org/1999/xlink">
    <!-- Generator: Sketch 40.2 (33826) - http://www.bohemiancoding.com/sketch -->
    <title>stripe</title>
    <desc>Created with Sketch.</desc>
    <defs>
        <linearGradient x1="50%" y1="0%" x2="50%" y2="100%" id="linearGradient-1">
            <stop stop-color="#FFFFFF" stop-opacity="0.2" offset="0%"></stop>
            <stop stop-color="#000000" stop-opacity="0.2" offset="100%"></stop>
        </linearGradient>
        <path d="M552.268958,552.268958 C600,504.537813 600,431.458333 600,300 C600,168.541667 600,95.4621875 552.268958,47.7310417 C504.537813,0 431.458333,0 300,0 C168.541667,0 95.4621875,0 47.7310417,47.7310417 C0,95.4621875 0,168.541667 0,300 C0,431.458333 0,504.537813 47.7310417,552.268958 C95.4621875,600 168.541667,600 300,600 C431.458333,600 504.537813,600 552.268958,552.268958 Z" id="path-2"></path>
    </defs>
    <g id="Page-1" stroke="none" stroke-width="1" fill="none" fill-rule="evenodd">
        <g id="stripe" transform="translate(3.000000, 3.000000)">
            <g id="Squircle2-Copy-6">
                <g id="Shape">
                    <use fill="#6772E5" xlink:href="#path-2"></use>
                    <use stroke="#000000" stroke-width="4.04" fill="url(#linearGradient-1)" xlink:href="#path-2"></use>
                </g>
            </g>
            <g id="Stripe-Logo-(white)" transform="translate(100.000000, 217.000000)" fill="#FFFFFF">
                <g id="Layer_1">
                    <g id="Stripe">
                        <path d="M400,86 C400,57.5555556 386.222222,35.1111111 359.888889,35.1111111 C333.444444,35.1111111 317.444444,57.5555556 317.444444,85.7777778 C317.444444,119.222222 336.333333,136.111111 363.444444,136.111111 C376.666667,136.111111 386.666667,133.111111 394.222222,128.888889 L394.222222,106.666667 C386.666667,110.444444 378,112.777778 367,112.777778 C356.222222,112.777778 346.666667,109 345.444444,95.8888889 L399.777778,95.8888889 C399.777778,94.4444444 400,88.6666667 400,86 L400,86 Z M345.111111,75.4444444 C345.111111,62.8888889 352.777778,57.6666667 359.777778,57.6666667 C366.555556,57.6666667 373.777778,62.8888889 373.777778,75.4444444 L345.111111,75.4444444 L345.111111,75.4444444 Z" id="Shape"></path>
                        <path d="M274.555556,35.1111111 C263.666667,35.1111111 256.666667,40.2222222 252.777778,43.7777778 L251.333333,36.8888889 L226.888889,36.8888889 L226.888889,166.444444 L254.666667,160.555556 L254.777778,129.111111 C258.777778,132 264.666667,136.111111 274.444444,136.111111 C294.333333,136.111111 312.444444,120.111111 312.444444,84.8888889 C312.333333,52.6666667 294,35.1111111 274.555556,35.1111111 L274.555556,35.1111111 Z M267.888889,111.666667 C261.333333,111.666667 257.444444,109.333333 254.777778,106.444444 L254.666667,65.2222222 C257.555556,62 261.555556,59.7777778 267.888889,59.7777778 C278,59.7777778 285,71.1111111 285,85.6666667 C285,100.555556 278.111111,111.666667 267.888889,111.666667 L267.888889,111.666667 Z" id="Shape"></path>
                        <polygon id="Shape" points="188.666667 28.5555556 216.555556 22.5555556 216.555556 0 188.666667 5.88888889"></polygon>
                        <rect id="Rectangle-path" x="188.666667" y="37" width="27.8888889" height="97.2222222"></rect>
                        <path d="M158.777778,45.2222222 L157,37 L133,37 L133,134.222222 L160.777778,134.222222 L160.777778,68.3333333 C167.333333,59.7777778 178.444444,61.3333333 181.888889,62.5555556 L181.888889,37 C178.333333,35.6666667 165.333333,33.2222222 158.777778,45.2222222 L158.777778,45.2222222 Z" id="Shape"></path>
                        <path d="M103.222222,12.8888889 L76.1111111,18.6666667 L76,107.666667 C76,124.111111 88.3333333,136.222222 104.777778,136.222222 C113.888889,136.222222 120.555556,134.555556 124.222222,132.555556 L124.222222,110 C120.666667,111.444444 103.111111,116.555556 103.111111,100.111111 L103.111111,60.6666667 L124.222222,60.6666667 L124.222222,37 L103.111111,37 L103.222222,12.8888889 L103.222222,12.8888889 Z" id="Shape"></path>
                        <path d="M28.1111111,65.2222222 C28.1111111,60.8888889 31.6666667,59.2222222 37.5555556,59.2222222 C46,59.2222222 56.6666667,61.7777778 65.1111111,66.3333333 L65.1111111,40.2222222 C55.8888889,36.5555556 46.7777778,35.1111111 37.5555556,35.1111111 C15,35.1111111 0,46.8888889 0,66.5555556 C0,97.2222222 42.2222222,92.3333333 42.2222222,105.555556 C42.2222222,110.666667 37.7777778,112.333333 31.5555556,112.333333 C22.3333333,112.333333 10.5555556,108.555556 1.22222222,103.444444 L1.22222222,129.888889 C11.5555556,134.333333 22,136.222222 31.5555556,136.222222 C54.6666667,136.222222 70.5555556,124.777778 70.5555556,104.888889 C70.4444444,71.7777778 28.1111111,77.6666667 28.1111111,65.2222222 L28.1111111,65.2222222 Z" id="Shape"></path>
                    </g>
                </g>
            </g>
        </g>
    </g>
</svg>