<?xml version="1.0" encoding="UTF-8" standalone="no"?>
<!DOCTYPE svg PUBLIC "-//W3C//DTD SVG 1.1//EN" "http://www.w3.org/Graphics/SVG/1.1/DTD/svg11.dtd">
<svg width="100%" height="100%" viewBox="0 0 64 64" version="1.1" xmlns="http://www.w3.org/2000/svg" xmlns:xlink="http://www.w3.org/1999/xlink" xml:space="preserve" xmlns:serif="http://www.serif.com/" style="fill-rule:evenodd;clip-rule:evenodd;stroke-linejoin:round;stroke-miterlimit:2;">
    <g id="discussions">
        <path id="Path" d="M32,64C46.022,64 53.817,64 58.909,58.909C64,53.817 64,46.022 64,32C64,17.978 64,10.183 58.909,5.091C53.817,0 46.022,0 32,0C17.978,0 10.183,0 5.091,5.091C0,10.183 0,17.978 0,32C0,46.022 0,53.817 5.091,58.909C10.183,64 17.978,64 32,64Z" style="fill:rgb(0,179,86);"/>
        <g transform="matrix(0.09375,0,0,0.09375,8,7)">
            <path d="M157.52,272L194.48,272L176,218.78L157.52,272ZM352,256C338.77,256 328,266.77 328,280C328,293.23 338.77,304 352,304C365.23,304 376,293.23 376,280C376,266.77 365.23,256 352,256ZM464,64L48,64C21.5,64 0,85.5 0,112L0,400C0,426.5 21.5,448 48,448L464,448C490.5,448 512,426.5 512,400L512,112C512,85.5 490.5,64 464,64ZM250.58,352L233.64,352C226.83,352 220.76,347.68 218.52,341.25L211.15,320L140.86,320L133.48,341.25C131.249,347.672 125.158,352.002 118.36,352L101.42,352C90.41,352 82.69,341.15 86.3,330.75L140,176.12C143.345,166.492 152.477,159.998 162.67,160L189.33,160C199.526,159.998 208.659,166.497 212,176.13L265.69,330.75C269.3,341.15 261.58,352 250.58,352ZM424,336C424,344.84 416.84,352 408,352L392,352C387.15,352 382.96,349.73 380.02,346.32C371.4,349.98 361.93,352 352,352C312.3,352 280,319.7 280,280C280,240.3 312.3,208 352,208C360.46,208 368.46,209.73 376,212.42L376,176C376,167.16 383.16,160 392,160L408,160C416.84,160 424,167.16 424,176L424,336Z" style="fill:white;fill-opacity:0.81;fill-rule:nonzero;"/>
            <clipPath id="_clip1">
                <path d="M157.52,272L194.48,272L176,218.78L157.52,272ZM352,256C338.77,256 328,266.77 328,280C328,293.23 338.77,304 352,304C365.23,304 376,293.23 376,280C376,266.77 365.23,256 352,256ZM464,64L48,64C21.5,64 0,85.5 0,112L0,400C0,426.5 21.5,448 48,448L464,448C490.5,448 512,426.5 512,400L512,112C512,85.5 490.5,64 464,64ZM250.58,352L233.64,352C226.83,352 220.76,347.68 218.52,341.25L211.15,320L140.86,320L133.48,341.25C131.249,347.672 125.158,352.002 118.36,352L101.42,352C90.41,352 82.69,341.15 86.3,330.75L140,176.12C143.345,166.492 152.477,159.998 162.67,160L189.33,160C199.526,159.998 208.659,166.497 212,176.13L265.69,330.75C269.3,341.15 261.58,352 250.58,352ZM424,336C424,344.84 416.84,352 408,352L392,352C387.15,352 382.96,349.73 380.02,346.32C371.4,349.98 361.93,352 352,352C312.3,352 280,319.7 280,280C280,240.3 312.3,208 352,208C360.46,208 368.46,209.73 376,212.42L376,176C376,167.16 383.16,160 392,160L408,160C416.84,160 424,167.16 424,176L424,336Z" clip-rule="nonzero"/>
            </clipPath>
            <g clip-path="url(#_clip1)">
                <path d="M157.52,272L194.48,272L176,218.78L157.52,272ZM352,256C338.77,256 328,266.77 328,280C328,293.23 338.77,304 352,304C365.23,304 376,293.23 376,280C376,266.77 365.23,256 352,256ZM464,64L48,64C21.5,64 0,85.5 0,112L0,224L512,112C512,85.5 490.5,64 464,64ZM250.58,352L233.64,352C226.83,352 220.76,347.68 218.52,341.25L211.15,320L140.86,320L133.48,341.25C131.249,347.672 125.158,352.002 118.36,352L101.42,352C90.41,352 82.69,341.15 86.3,330.75L140,176.12C143.345,166.492 152.477,159.998 162.67,160L189.33,160C199.526,159.998 208.659,166.497 212,176.13L265.69,330.75C269.3,341.15 261.58,352 250.58,352ZM424,336C424,344.84 416.84,352 408,352L392,352C387.15,352 382.96,349.73 380.02,346.32C371.4,349.98 361.93,352 352,352C312.3,352 280,319.7 280,280C280,240.3 312.3,208 352,208C360.46,208 368.46,209.73 376,212.42L376,176C376,167.16 383.16,160 392,160L408,160C416.84,160 424,167.16 424,176L424,336Z" style="fill:white;fill-rule:nonzero;"/>
                <path d="M157.52,272L194.48,272L176,218.78L157.52,272ZM352,256C338.77,256 328,266.77 328,280C328,293.23 338.77,304 352,304C365.23,304 376,293.23 376,280C376,266.77 365.23,256 352,256ZM464,64L48,64C21.5,64 0,85.5 0,112L0,400C0,426.5 21.5,448 48,448L512,112C512,85.5 490.5,64 464,64ZM250.58,352L233.64,352C226.83,352 220.76,347.68 218.52,341.25L211.15,320L140.86,320L133.48,341.25C131.249,347.672 125.158,352.002 118.36,352L101.42,352C90.41,352 82.69,341.15 86.3,330.75L140,176.12C143.345,166.492 152.477,159.998 162.67,160L189.33,160C199.526,159.998 208.659,166.497 212,176.13L265.69,330.75C269.3,341.15 261.58,352 250.58,352ZM424,336C424,344.84 416.84,352 408,352L392,352C387.15,352 382.96,349.73 380.02,346.32C371.4,349.98 361.93,352 352,352C312.3,352 280,319.7 280,280C280,240.3 312.3,208 352,208C360.46,208 368.46,209.73 376,212.42L376,176C376,167.16 383.16,160 392,160L408,160C416.84,160 424,167.16 424,176L424,336Z" style="fill:white;fill-opacity:0.49;fill-rule:nonzero;"/>
            </g>
        </g>
    </g>
</svg>
