<?xml version="1.0" encoding="utf-8"?>
<!-- Generator: Adobe Illustrator 20.1.0, SVG Export Plug-In . SVG Version: 6.00 Build 0)  -->
<svg version="1.1" id="Слой_1" xmlns="http://www.w3.org/2000/svg" xmlns:xlink="http://www.w3.org/1999/xlink" x="0px" y="0px"
	 viewBox="0 0 64 64" style="enable-background:new 0 0 64 64;" xml:space="preserve">
<style type="text/css">
	.st0{fill:#00B356;}
	.st1{fill:#FFFFFF;}
</style>
<title>directory</title>
<desc>Created with Sketch.</desc>
<g id="Page-1">
	<g id="Artboard" transform="translate(-1717.000000, -511.000000)">
		<g id="directory" transform="translate(1717.000000, 511.000000)">
			<g id="Path">
				<path id="path-1_1_" class="st0" d="M32,64c14,0,21.8,0,26.9-5.1C64,53.8,64,46,64,32s0-21.8-5.1-26.9C53.8,0,46,0,32,0
					S10.2,0,5.1,5.1C0,10.2,0,18,0,32s0,21.8,5.1,26.9C10.2,64,18,64,32,64z"/>
			</g>
		</g>
	</g>
</g>
<path class="st1" d="M23.7,33.3h3.1l-1.6-4.5L23.7,33.3z M40.1,32c-1.1,0-2,0.9-2,2s0.9,2,2,2s2-0.9,2-2S41.2,32,40.1,32z
	 M49.5,15.9h-35c-2.2,0-4,1.8-4,4v24.2c0,2.2,1.8,4,4,4h35c2.2,0,4-1.8,4-4V19.9C53.5,17.7,51.7,15.9,49.5,15.9z M31.5,40.1h-1.4
	c-0.6,0-1.1-0.4-1.3-0.9l-0.6-1.8h-5.9l-0.6,1.8c-0.2,0.5-0.7,0.9-1.3,0.9H19c-0.9,0-1.6-0.9-1.3-1.8l4.5-13c0.3-0.8,1-1.4,1.9-1.4
	h2.2c0.9,0,1.6,0.5,1.9,1.4l4.5,13C33.1,39.2,32.5,40.1,31.5,40.1z M46.1,38.7c0,0.7-0.6,1.3-1.3,1.3h-1.3c-0.4,0-0.8-0.2-1-0.5
	c-0.7,0.3-1.5,0.5-2.4,0.5c-3.3,0-6.1-2.7-6.1-6.1s2.7-6.1,6.1-6.1c0.7,0,1.4,0.1,2,0.4v-3.1c0-0.7,0.6-1.3,1.3-1.3h1.3
	c0.7,0,1.3,0.6,1.3,1.3V38.7z"/>
</svg>
