<?xml version="1.0" encoding="UTF-8"?>
<svg width="600px" height="600px" viewBox="0 0 600 600" version="1.1" xmlns="http://www.w3.org/2000/svg" xmlns:xlink="http://www.w3.org/1999/xlink">
    <!-- Generator: Sketch 40.3 (33839) - http://www.bohemiancoding.com/sketch -->
    <title>Group 2 Copy 4</title>
    <desc>Created with Sketch.</desc>
    <defs>
        <linearGradient x1="50%" y1="0%" x2="50%" y2="100%" id="linearGradient-1">
            <stop stop-color="#FFFFFF" stop-opacity="0.2" offset="0%"></stop>
            <stop stop-color="#000000" stop-opacity="0.138870018" offset="100%"></stop>
        </linearGradient>
        <path d="M285,135.714286 C307.477679,135.714286 325.714286,117.477679 325.714286,95 C325.714286,72.5223214 307.477679,54.2857143 285,54.2857143 C262.522321,54.2857143 244.285714,72.5223214 244.285714,95 C244.285714,117.477679 262.522321,135.714286 285,135.714286 L285,135.714286 Z" id="path-2"></path>
        <filter x="-50%" y="-50%" width="200%" height="200%" filterUnits="objectBoundingBox" id="filter-3">
            <feMorphology radius="1" operator="dilate" in="SourceAlpha" result="shadowSpreadOuter1"></feMorphology>
            <feOffset dx="0" dy="2" in="shadowSpreadOuter1" result="shadowOffsetOuter1"></feOffset>
            <feColorMatrix values="0 0 0 0 0   0 0 0 0 0   0 0 0 0 0  0 0 0 0.2 0" type="matrix" in="shadowOffsetOuter1"></feColorMatrix>
        </filter>
        <linearGradient x1="50%" y1="0%" x2="50%" y2="100%" id="linearGradient-4">
            <stop stop-color="#FFFFFF" offset="0%"></stop>
            <stop stop-color="#F6F6F6" offset="35.2427758%"></stop>
            <stop stop-color="#E5E5E5" offset="100%"></stop>
        </linearGradient>
        <path d="M356.25,-5.68434189e-14 L23.75,-5.68434189e-14 C10.5178571,-5.68434189e-14 0,10.7723214 0,24.0044643 L0,301.709821 C0,314.941964 10.5178571,325.714286 23.75,325.714286 L356.25,325.714286 C369.482143,325.714286 380,314.941964 380,301.709821 L380,24.0044643 C380,10.7723214 369.482143,-5.68434189e-14 356.25,-5.68434189e-14 L356.25,-5.68434189e-14 Z M268.799107,167.691964 C266.254464,164.723214 262.352679,162.433036 257.941964,162.433036 C253.616071,162.433036 250.5625,164.46875 247.084821,167.267857 L231.223214,180.669643 C227.915179,183.044643 225.285714,184.65625 221.46875,184.65625 C217.821429,184.65625 214.513393,183.299107 212.138393,181.178571 C211.290179,180.415179 209.763393,178.973214 208.491071,177.700893 L162.857143,128.334821 C159.464286,124.433036 154.375,121.973214 148.691964,121.973214 C143.008929,121.973214 137.75,124.772321 134.441964,128.589286 L27.1428571,258.026786 L27.1428571,37.0669643 C27.9910714,31.2991071 32.4866071,27.1428571 38.2544643,27.1428571 L341.660714,27.1428571 C347.513393,27.1428571 352.263393,31.46875 352.602679,37.3214286 L352.857143,258.196429 L268.799107,167.691964 L268.799107,167.691964 Z" id="path-5"></path>
        <filter x="-50%" y="-50%" width="200%" height="200%" filterUnits="objectBoundingBox" id="filter-6">
            <feMorphology radius="1" operator="dilate" in="SourceAlpha" result="shadowSpreadOuter1"></feMorphology>
            <feOffset dx="0" dy="2" in="shadowSpreadOuter1" result="shadowOffsetOuter1"></feOffset>
            <feColorMatrix values="0 0 0 0 0   0 0 0 0 0   0 0 0 0 0  0 0 0 0.08 0" type="matrix" in="shadowOffsetOuter1"></feColorMatrix>
        </filter>
    </defs>
    <g id="Page-1" stroke="none" stroke-width="1" fill="none" fill-rule="evenodd">
        <g id="Group-2-Copy-4">
            <path d="M552.268958,552.268958 C600,504.537813 600,431.458333 600,300 C600,168.541667 600,95.4621875 552.268958,47.7310417 C504.537813,0 431.458333,0 300,0 C168.541667,0 95.4621875,0 47.7310417,47.7310417 C0,95.4621875 0,168.541667 0,300 C0,431.458333 0,504.537813 47.7310417,552.268958 C95.4621875,600 168.541667,600 300,600 C431.458333,600 504.537813,600 552.268958,552.268958 L552.268958,552.268958 Z" id="path" fill="#2BAF92"></path>
            <path d="M552.268958,552.268958 C600,504.537813 600,431.458333 600,300 C600,168.541667 600,95.4621875 552.268958,47.7310417 C504.537813,0 431.458333,0 300,0 C168.541667,0 95.4621875,0 47.7310417,47.7310417 C0,95.4621875 0,168.541667 0,300 C0,431.458333 0,504.537813 47.7310417,552.268958 C95.4621875,600 168.541667,600 300,600 C431.458333,600 504.537813,600 552.268958,552.268958 L552.268958,552.268958 Z" id="path-copy" fill="url(#linearGradient-1)"></path>
            <g id="image" transform="translate(300.000000, 300.000000) rotate(-360.000000) translate(-300.000000, -300.000000) translate(110.000000, 137.000000)">
                <g id="Layer_1" transform="translate(-0.000000, 0.000000)">
                    <g id="Group">
                        <g id="Shape" opacity="0.496773098">
                            <use fill="black" fill-opacity="1" filter="url(#filter-3)" xlink:href="#path-2"></use>
                            <use fill="#FFFFFF" fill-rule="evenodd" xlink:href="#path-2"></use>
                        </g>
                        <g id="Shape">
                            <use fill="black" fill-opacity="1" filter="url(#filter-6)" xlink:href="#path-5"></use>
                            <use fill="url(#linearGradient-4)" fill-rule="evenodd" xlink:href="#path-5"></use>
                        </g>
                    </g>
                </g>
            </g>
        </g>
    </g>
</svg>