<svg width="320" height="320" viewBox="0 0 320 320" fill="none" xmlns="http://www.w3.org/2000/svg">
<g clip-path="url(#clip0_937_6833)">
<path d="M160 0C281.326 0 320 38.6737 320 160C320 281.326 281.326 320 160 320C38.6736 320 0 281.326 0 160C0 38.6737 38.6736 0 160 0Z" fill="url(#paint0_linear_937_6833)"/>
<path d="M160 2C220.573 2 259.85 11.6833 284.083 35.9168C308.317 60.1504 318 99.4272 318 160C318 220.573 308.317 259.85 284.083 284.083C259.85 308.317 220.573 318 160 318C99.4272 318 60.1504 308.317 35.9168 284.083C11.6833 259.85 2 220.573 2 160C2 99.4272 11.6833 60.1504 35.9168 35.9168C60.1504 11.6833 99.4272 2 160 2Z" stroke="#0F172A" stroke-opacity="0.2" stroke-width="4"/>
<g clip-path="url(#clip1_937_6833)">
<path fill-rule="evenodd" clip-rule="evenodd" d="M270 150C270 74.1711 243.412 50 160 50C76.5881 50 50 74.1711 50 150C50 179.996 54.1604 201.908 64.3528 217.439C66.1041 220.107 67.489 223.022 68.0813 226.159L76.4408 270.428C77.996 278.664 88.3846 281.448 93.8492 275.093L110.581 255.636C115.132 250.343 122.106 247.873 129.049 248.59C138.366 249.553 148.658 250 160 250C243.412 250 270 225.829 270 150ZM150 105C150 96.7157 156.716 90 165 90H215C223.284 90 230 96.7157 230 105C230 113.284 223.284 120 215 120H165C156.716 120 150 113.284 150 105ZM105 140C96.7157 140 90 146.716 90 155C90 163.284 96.7157 170 105 170H215C223.284 170 230 163.284 230 155C230 146.716 223.284 140 215 140H105ZM90 195C90 186.716 96.7157 180 105 180H215C223.284 180 230 186.716 230 195C230 203.284 223.284 210 215 210H105C96.7157 210 90 203.284 90 195ZM115 80C101.193 80 90 91.1929 90 105C90 118.807 101.193 130 115 130C128.807 130 140 118.807 140 105C140 91.1929 128.807 80 115 80Z" fill="url(#paint1_linear_937_6833)"/>
<rect x="100" y="90" width="30" height="30" rx="15" fill="url(#paint2_linear_937_6833)"/>
</g>
</g>
<defs>
<linearGradient id="paint0_linear_937_6833" x1="160" y1="0" x2="160" y2="320" gradientUnits="userSpaceOnUse">
<stop stop-color="#F8FAFC"/>
<stop offset="1" stop-color="#E2E8F0"/>
</linearGradient>
<linearGradient id="paint1_linear_937_6833" x1="160" y1="50" x2="160" y2="278.581" gradientUnits="userSpaceOnUse">
<stop stop-color="#60A5FA"/>
<stop offset="1" stop-color="#2563EB"/>
</linearGradient>
<linearGradient id="paint2_linear_937_6833" x1="115" y1="90" x2="115" y2="120" gradientUnits="userSpaceOnUse">
<stop stop-color="#FB923C"/>
<stop offset="1" stop-color="#EA580C"/>
</linearGradient>
<clipPath id="clip0_937_6833">
<rect width="320" height="320" fill="white"/>
</clipPath>
<clipPath id="clip1_937_6833">
<rect width="240" height="240" fill="white" transform="translate(40 40)"/>
</clipPath>
</defs>
</svg>
