<svg xmlns="http://www.w3.org/2000/svg" xmlns:xlink="http://www.w3.org/1999/xlink" viewBox="0 0 608 608"><defs><style>.cls-1{stroke:#6f6e6e;stroke-width:8px;fill:url(#Безымянный_градиент);}.cls-2{fill:#2ab191;}.cls-3{fill:#4990e2;}.cls-4{fill:#e66;}.cls-5{opacity:0.1;}.cls-6{fill:url(#Безымянный_градиент_2);}.cls-7{fill:#168de2;}.cls-8{fill:#e5e5e5;}.cls-9{fill:#3aa2eb;}.cls-10{fill:#fff;}.cls-11{fill:#6f6f6f;}.cls-12{fill:#1c99e5;}</style><linearGradient id="Безымянный_градиент" x1="8.49" y1="0.81" x2="8.49" y2="1.81" gradientTransform="translate(-4792 -484) scale(600)" gradientUnits="userSpaceOnUse"><stop offset="0" stop-color="#fff"/><stop offset="1" stop-color="#fff"/></linearGradient><linearGradient id="Безымянный_градиент_2" x1="8.49" y1="0.81" x2="8.49" y2="1.81" gradientTransform="translate(-4792 -484) scale(600)" gradientUnits="userSpaceOnUse"><stop offset="0" stop-color="#fff" stop-opacity="0.2"/><stop offset="1" stop-opacity="0.14"/></linearGradient></defs><title>std-icon</title><g id="Слой_1" data-name="Слой 1"><g id="Page-1"><g id="Group-2-Copy-31"><g id="path-copy-20"><path id="path-2" class="cls-1" d="M552.3,552.3C600,504.5,600,431.5,600,300s0-204.5-47.7-252.3S431.5,0,300,0,95.5,0,47.7,47.7,0,168.5,0,300,0,504.5,47.7,552.3,168.5,600,300,600s204.5,0,252.3-47.7Z" transform="translate(4 4)"/></g><g id="Group-2"><g id="logosvg-animated-copy"><g id="Group"><g id="inner"><g id="_Группа_" data-name="&lt;Группа&gt;"><path id="Shape" class="cls-2" d="M409.88,299.5h0a48.87,48.87,0,0,1,93.2-20.8V230.3a80.38,80.38,0,0,0-44.3-13.1,82.27,82.27,0,0,0-48.9,148.3Z" transform="translate(4 4)"/><path id="Shape-2" data-name="Shape" class="cls-3" d="M507.68,233.5v66a48.87,48.87,0,0,1-93.2,20.8v48.4a81,81,0,0,0,44.4,13.1,82.22,82.22,0,0,0,48.8-148.3Z" transform="translate(4 4)"/></g></g><g id="outer"><path id="Shape-3" data-name="Shape" class="cls-3" d="M407.58,230.05c-3.7-6.8-16.7-13.6-31.2-12.4V274A85.44,85.44,0,0,1,407.58,230.05Z" transform="translate(4 4)"/><path id="Shape-4" data-name="Shape" class="cls-4" d="M510,369.05c3.7,6.8,16.6,13.6,31.2,12.4v-56.3A86.84,86.84,0,0,1,510,369.05Z" transform="translate(4 4)"/></g></g></g><g id="arrow-right-c" class="cls-5"><g id="Layer_1" data-name="Layer 1"><path id="Shape-5" data-name="Shape" d="M310.2,261.88l30.2,31.6a9.66,9.66,0,0,1,0,13.4l-30.2,31.9a8.84,8.84,0,0,1-13,0,9.91,9.91,0,0,1,0-13.6L311.7,310H246.4a9.61,9.61,0,0,1-.1-19.2h65.4l-14.5-15.3a9.91,9.91,0,0,1,0-13.6A9,9,0,0,1,310.2,261.88Z" transform="translate(4 4)"/></g></g></g><path id="path-copy" class="cls-6" d="M601,300.9c0-131.5,0-204.5-47.7-252.3S432.5.9,301,.9,96.5.9,48.7,48.6,1,169.4,1,300.9,1,505.4,48.7,553.2,169.5,600.9,301,600.9s204.5,0,252.3-47.7S601,432.4,601,300.9Z" transform="translate(4 4)"/></g></g></g><g id="Слой_2" data-name="Слой 2"><path class="cls-7" d="M123.53,269.08c28.83-33.22,88.56-38.46,88.56-38.46,23.65-4,36.08-4.64,41.79-4.61-3.66-3.51-17.52-3.7-17.52-3.7-40.34-49.42-120.59,2.63-120.59,2.63-48.77,2.8-46.35,13.92-46.35,13.92,19.54,6.23,17.31,16.59,17.31,16.59-38.56,82.17,7.9,133,7.9,133-15.24,46.52-6.32,49.88-6.32,49.88,2.31-14.58,13.42-19.37,18.77-25.64,5.09-6,5.76-10,5.54-12.16C53.86,339.73,123.53,269.08,123.53,269.08Z" transform="translate(4 4)"/><path class="cls-8" d="M253.89,226c-5.72,0-18.15.62-41.8,4.61,0,0-59.73,5.23-88.55,38.45,0,0-69.68,70.65-10.92,131.43a4.32,4.32,0,0,0-.61-2,12.32,12.32,0,0,0,12.37-4.75,36.22,36.22,0,0,1,24.41-14.54c-11.35-10.65-41.78,2-41.78,2C79.12,341.11,127.71,300,127.71,300c6-9.44,54.65-37.17,71.58-46.64a66.16,66.16,0,0,0,8.61-5.94c9.63-7.62,30.26-11.67,38.1-13a13,13,0,0,0,7.21-3.61C255.21,228.76,255.12,227.2,253.89,226Z" transform="translate(4 4)"/><path class="cls-9" d="M148.47,265.09s6.35,17.11-8.12,37.73c0,0,31.08-2.6,30.71-51.29Z" transform="translate(4 4)"/><ellipse class="cls-10" cx="209.79" cy="222.35" rx="6.59" ry="6.19" transform="matrix(0.96, -0.28, 0.28, 0.96, -49.4, 70.84)"/><ellipse class="cls-11" cx="209.79" cy="222.35" rx="4.09" ry="3.84" transform="translate(-49.4 70.84) rotate(-16.09)"/><ellipse class="cls-10" cx="212.18" cy="220.77" rx="2.05" ry="1.92" transform="translate(-48.87 71.44) rotate(-16.09)"/><path class="cls-12" d="M79.55,304.53a7.8,7.8,0,0,0,1.16-11.62l-5.38-5.06a137.73,137.73,0,0,0-3.07,18A8.77,8.77,0,0,0,79.55,304.53Z" transform="translate(4 4)"/><path class="cls-12" d="M179.06,209.51l-6.71-6.95C142.2,207.82,115.77,225,115.77,225,67,227.74,69.42,238.86,69.42,238.86c19.54,6.23,17.31,16.59,17.31,16.59a176.87,176.87,0,0,0-6.85,16.9,9,9,0,0,1,6.17,2.74l8.83,8.3a8.73,8.73,0,0,0,11.72.29,7.8,7.8,0,0,0,.87-11.37l-11.36-11a6.52,6.52,0,0,1,.79-9.49c4-3.38,7.87-2.82,10.2-.34l11,10.63a9,9,0,0,0,10.4,1.85c1.11-1.06,2.29-2,3.47-3a7.61,7.61,0,0,0-.77-9.34l-7.1-6.46a6.5,6.5,0,0,1,.71-9.43c3.92-3.33,8.47-2.74,11-.05l4.44,3.63a9,9,0,0,0,11.87,1,7.82,7.82,0,0,0,1.3-11.62l-5.77-5c-2.65-2.82-2.12-7.14,1-9.69l.07-.06.15-.12a7.36,7.36,0,0,1,10.22.12l6.85,6.19a9.13,9.13,0,0,0,11.93,1.08A7.81,7.81,0,0,0,179.06,209.51Z" transform="translate(4 4)"/></g></svg>