<?xml version="1.0" encoding="UTF-8" standalone="no"?>
<svg
   xmlns:dc="http://purl.org/dc/elements/1.1/"
   xmlns:cc="http://creativecommons.org/ns#"
   xmlns:rdf="http://www.w3.org/1999/02/22-rdf-syntax-ns#"
   xmlns:svg="http://www.w3.org/2000/svg"
   xmlns="http://www.w3.org/2000/svg"
   xmlns:xlink="http://www.w3.org/1999/xlink"
   xmlns:sodipodi="http://sodipodi.sourceforge.net/DTD/sodipodi-0.dtd"
   xmlns:inkscape="http://www.inkscape.org/namespaces/inkscape"
   width="606px"
   height="606px"
   viewBox="0 0 606 606"
   version="1.1"
   id="svg3806"
   sodipodi:docname="std-icon.svg"
   inkscape:version="0.92.3 (2405546, 2018-03-11)">
  <metadata
     id="metadata3810">
    <rdf:RDF>
      <cc:Work
         rdf:about="">
        <dc:format>image/svg+xml</dc:format>
        <dc:type
           rdf:resource="http://purl.org/dc/dcmitype/StillImage" />
      </cc:Work>
    </rdf:RDF>
  </metadata>
  <sodipodi:namedview
     pagecolor="#ffffff"
     bordercolor="#666666"
     borderopacity="1"
     objecttolerance="10"
     gridtolerance="10"
     guidetolerance="10"
     inkscape:pageopacity="0"
     inkscape:pageshadow="2"
     inkscape:window-width="1920"
     inkscape:window-height="1017"
     id="namedview3808"
     showgrid="false"
     inkscape:zoom="1.1014997"
     inkscape:cx="285.37206"
     inkscape:cy="312.60955"
     inkscape:window-x="-8"
     inkscape:window-y="-8"
     inkscape:window-maximized="1"
     inkscape:current-layer="svg3806" />
  <title
     id="title3783">markerio</title>
  <desc
     id="desc3785">Created manually.</desc>
  <defs
     id="defs3793">
    <linearGradient
       x1="50%"
       y1="0%"
       x2="50%"
       y2="100%"
       id="linearGradient-1">
      <stop
         stop-color="#FFFFFF"
         stop-opacity="0.2"
         offset="0%"
         id="stop3787" />
      <stop
         stop-color="#000000"
         stop-opacity="0.2"
         offset="100%"
         id="stop3789" />
    </linearGradient>
    <path
       d="M552.268958,552.268958 C600,504.537813 600,431.458333 600,300 C600,168.541667 600,95.4621875 552.268958,47.7310417 C504.537813,0 431.458333,0 300,0 C168.541667,0 95.4621875,0 47.7310417,47.7310417 C0,95.4621875 0,168.541667 0,300 C0,431.458333 0,504.537813 47.7310417,552.268958 C95.4621875,600 168.541667,600 300,600 C431.458333,600 504.537813,600 552.268958,552.268958 Z"
       id="path-2" />
  </defs>
  <g
     id="Page-1"
     stroke="none"
     stroke-width="1"
     fill="none"
     fill-rule="evenodd">
    <g
       id="oauth"
       transform="translate(3.000000, 3.000000)">
      <g
         id="Squircle2-Copy-6">
        <g
           id="Shape">
          <use
             fill="#FFFFFF"
             xlink:href="#path-2"
             id="use3795" />
          <use
             stroke="#000000"
             stroke-width="4.04"
             fill="url(#linearGradient-1)"
             xlink:href="#path-2"
             id="use3797" />
        </g>
      </g>
      <g
         id="Group"
         opacity="0.9"
         transform="translate(101.000000, 151.000000) scale(8, 8)" />
    </g>
  </g>
  <g
     id="g3839"
     transform="matrix(1.6631299,0,0,1.6631299,89.119376,91.119376)">
    <path
       style="fill:#1fc0e7"
       inkscape:connector-curvature="0"
       d="M 128.00285,256 C 198.69312,256 256,198.68877 256,128 256,57.299844 198.69882,0 128.00285,0 57.306882,0 0,57.299844 0,128 0,198.68877 57.306882,256 128.00285,256"
       id="path3835" />
    <path
       style="fill:#ffffff"
       inkscape:connector-curvature="0"
       d="m 62.367289,127.96776 21.799822,-21.90222 c 0.722489,-0.72818 1.1264,-1.70667 1.1264,-2.74204 0,-2.16178 -1.752178,-3.913959 -3.908267,-3.913959 -1.052444,0 -2.036622,0.4096 -2.776177,1.166219 L 56.820622,122.38127 34.946844,100.53594 c -0.739555,-0.728177 -1.718044,-1.126399 -2.759111,-1.126399 -2.161777,0 -3.908266,1.752179 -3.908266,3.908269 0,1.05244 0.420977,2.048 1.171911,2.78755 L 51.2512,127.93363 29.462756,149.77896 c -0.762312,0.76231 -1.183289,1.75218 -1.183289,2.80462 0,2.16178 1.752177,3.91396 3.908266,3.91396 1.041067,0 2.019556,-0.39822 2.759111,-1.13778 l 21.845334,-21.85671 21.76,21.77138 c 0.773689,0.79644 1.763555,1.22311 2.833066,1.22311 2.1504,0 3.902578,-1.75218 3.902578,-3.91396 0,-1.04106 -0.398222,-2.01955 -1.137778,-2.75911 L 62.3616,127.94501 Z m 129.598581,-0.006 c 0,3.92534 3.18577,7.11111 7.11111,7.11111 3.90258,0 7.08835,-3.18577 7.08835,-7.11111 0,-3.92533 -3.18577,-7.11111 -7.09404,-7.11111 -3.90827,0 -7.08836,3.18578 -7.08836,7.11111 z m -13.45423,0 c 0,-11.34933 9.216,-20.59377 20.55965,-20.59377 11.32089,0 20.55395,9.24444 20.55395,20.59377 0,11.34934 -9.22737,20.59378 -20.55395,20.59378 -11.33796,0 -20.55965,-9.23307 -20.55965,-20.59378 z m -8.0896,0 c 0,15.81511 12.85689,28.69476 28.64925,28.69476 15.79235,0 28.64924,-12.86827 28.64924,-28.68907 0,-15.81511 -12.85689,-28.694753 -28.64924,-28.694753 -15.79805,0 -28.64925,12.873953 -28.64925,28.694753 z m -2.03093,-28.199818 h -1.19467 c -3.61244,0 -7.09404,1.137778 -10.00106,3.384888 -0.39822,-1.7408 -1.96836,-3.072 -3.83431,-3.072 -2.14471,0 -3.86845,1.73511 -3.86845,3.8912 l 0.0114,48.32711 c 0,2.14471 1.76356,3.8912 3.89689,3.8912 2.1504,0 3.90258,-1.74649 3.90827,-3.90258 v -29.71875 c 0,-9.89867 0.91022,-13.90365 9.37528,-14.96178 0.79645,-0.0967 1.6384,-0.0796 1.64978,-0.0796 2.30969,-0.0853 3.95947,-1.68391 3.95947,-3.84 0,-2.16178 -1.76356,-3.913959 -3.92533,-3.913959 z M 93.377422,123.24599 c 0,-0.11378 0.01138,-0.22756 0.01707,-0.32996 2.264178,-8.98845 10.387908,-15.62738 20.053328,-15.62738 9.78489,0 17.97689,6.79254 20.13867,15.94027 H 93.371733 Z m 48.201958,-0.73956 c -1.68391,-7.98151 -6.04729,-14.5408 -12.68622,-18.75058 -9.71663,-6.178131 -22.53938,-5.836798 -31.914671,0.85333 -7.657245,5.44427 -12.077511,14.36445 -12.077511,23.552 0,2.304 0.284444,4.63076 0.853333,6.92338 2.889956,11.37778 12.663467,20.00214 24.314309,21.43005 3.45885,0.42097 6.82667,0.22755 10.29689,-0.68267 3.00373,-0.73956 5.89938,-1.9456 8.56747,-3.66364 2.77049,-1.78063 5.08586,-4.13583 7.33866,-6.95183 0.0341,-0.0569 0.0797,-0.0967 0.12516,-0.1536 1.55876,-1.93422 1.26862,-4.69902 -0.43804,-6.00746 -1.44498,-1.10934 -3.86845,-1.55876 -5.76854,0.88746 -0.4096,0.59165 -0.8704,1.19467 -1.36533,1.792 -1.51893,1.67823 -3.40196,3.29956 -5.65476,4.56249 -2.87857,1.536 -6.144,2.4064 -9.61422,2.42916 -11.3664,-0.13085 -17.442132,-8.07822 -19.609599,-13.74436 -0.375467,-1.06382 -0.6656,-2.16178 -0.8704,-3.29955 l -0.05689,-0.59734 h 40.789339 c 5.58648,-0.12515 8.59022,-4.07893 7.75964,-8.59022 z"
       id="path3837" />
  </g>
</svg>
