<svg width="96" height="96" viewBox="0 0 96 96" fill="none" xmlns="http://www.w3.org/2000/svg">
<mask id="mask0" mask-type="alpha" maskUnits="userSpaceOnUse" x="0" y="0" width="96" height="96">
<path d="M48 96C69.0333 96 80.7261 96 88.363 88.363C96 80.7261 96 69.0333 96 48C96 26.9667 96 15.274 88.363 7.63697C80.7261 0 69.0333 0 48 0C26.9667 0 15.274 0 7.63697 7.63697C0 15.274 0 26.9667 0 48C0 69.0333 0 80.7261 7.63697 88.363C15.274 96 26.9667 96 48 96Z" fill="white"/>
</mask>
<g mask="url(#mask0)">
<path d="M48 96C69.0333 96 80.7261 96 88.363 88.363C96 80.7261 96 69.0333 96 48C96 26.9667 96 15.274 88.363 7.63697C80.7261 0 69.0333 0 48 0C26.9667 0 15.274 0 7.63697 7.63697C0 15.274 0 26.9667 0 48C0 69.0333 0 80.7261 7.63697 88.363C15.274 96 26.9667 96 48 96Z" fill="#00B356"/>
<g filter="url(#filter0_d)">
<path d="M35.0833 68.25C32.35 68.25 29.6167 65.8875 28.25 64.875C21.4167 60.15 19.3667 58.4625 18 57.45V71.625C18 73.4886 19.53 75 21.4167 75H48.75C50.6366 75 52.1667 73.4886 52.1667 71.625V57.45C50.8 58.4625 48.75 60.15 41.9167 64.875C40.55 65.8875 37.8167 68.25 35.0833 68.25ZM48.75 48H21.4167C19.53 48 18 49.5114 18 51.375V53.0625C20.7333 55.0875 20.3917 55.0875 30.3 62.175C31.325 62.85 33.375 64.875 35.0833 64.875C36.7917 64.875 38.8417 62.85 39.8667 62.5125C49.775 55.425 49.4333 55.425 52.1667 53.4V51.375C52.1667 49.5114 50.6366 48 48.75 48ZM76.0833 37.875H41.9167C40.03 37.875 38.5 39.3864 38.5 41.25V44.625H48.75C52.2959 44.625 55.2192 47.306 55.5524 50.7232L55.5833 50.7V64.875H76.0833C77.97 64.875 79.5 63.3636 79.5 61.5V41.25C79.5 39.3864 77.97 37.875 76.0833 37.875ZM72.6667 51.375H65.8333V44.625H72.6667V51.375ZM35.0833 41.25C35.0833 37.528 38.1487 34.5 41.9167 34.5H65.8333V24.375C65.8333 22.5114 64.3033 21 62.4167 21H28.25C26.3634 21 24.8333 22.5114 24.8333 24.375V44.625H35.0833V41.25Z" fill="black"/>
</g>
<path d="M35.0833 68.25C32.35 68.25 29.6167 65.8875 28.25 64.875C21.4167 60.15 19.3667 58.4625 18 57.45V71.625C18 73.4886 19.53 75 21.4167 75H48.75C50.6366 75 52.1667 73.4886 52.1667 71.625V57.45C50.8 58.4625 48.75 60.15 41.9167 64.875C40.55 65.8875 37.8167 68.25 35.0833 68.25ZM48.75 48H21.4167C19.53 48 18 49.5114 18 51.375V53.0625C20.7333 55.0875 20.3917 55.0875 30.3 62.175C31.325 62.85 33.375 64.875 35.0833 64.875C36.7917 64.875 38.8417 62.85 39.8667 62.5125C49.775 55.425 49.4333 55.425 52.1667 53.4V51.375C52.1667 49.5114 50.6366 48 48.75 48ZM76.0833 37.875H41.9167C40.03 37.875 38.5 39.3864 38.5 41.25V44.625H48.75C52.2959 44.625 55.2192 47.306 55.5524 50.7232L55.5833 50.7V64.875H76.0833C77.97 64.875 79.5 63.3636 79.5 61.5V41.25C79.5 39.3864 77.97 37.875 76.0833 37.875ZM72.6667 51.375H65.8333V44.625H72.6667V51.375ZM35.0833 41.25C35.0833 37.528 38.1487 34.5 41.9167 34.5H65.8333V24.375C65.8333 22.5114 64.3033 21 62.4167 21H28.25C26.3634 21 24.8333 22.5114 24.8333 24.375V44.625H35.0833V41.25Z" fill="url(#paint0_linear)"/>
</g>
<defs>
<filter id="filter0_d" x="17" y="21" width="63.5" height="56" filterUnits="userSpaceOnUse" color-interpolation-filters="sRGB">
<feFlood flood-opacity="0" result="BackgroundImageFix"/>
<feColorMatrix in="SourceAlpha" type="matrix" values="0 0 0 0 0 0 0 0 0 0 0 0 0 0 0 0 0 0 127 0"/>
<feOffset dy="1"/>
<feGaussianBlur stdDeviation="0.5"/>
<feColorMatrix type="matrix" values="0 0 0 0 0 0 0 0 0 0 0 0 0 0 0 0 0 0 0.1 0"/>
<feBlend mode="normal" in2="BackgroundImageFix" result="effect1_dropShadow"/>
<feBlend mode="normal" in="SourceGraphic" in2="effect1_dropShadow" result="shape"/>
</filter>
<linearGradient id="paint0_linear" x1="48.75" y1="21" x2="48.75" y2="75" gradientUnits="userSpaceOnUse">
<stop stop-color="#FDFEFF"/>
<stop offset="1" stop-color="#FBFCFD" stop-opacity="0.9"/>
</linearGradient>
</defs>
</svg>
