<svg width="320" height="320" viewBox="0 0 320 320" fill="none" xmlns="http://www.w3.org/2000/svg">
<g clip-path="url(#clip0_1014_7150)">
<path d="M160 0C281.326 0 320 38.6737 320 160C320 281.326 281.326 320 160 320C38.6736 320 0 281.326 0 160C0 38.6737 38.6736 0 160 0Z" fill="url(#paint0_linear_1014_7150)"/>
<path d="M160 2C220.573 2 259.85 11.6833 284.083 35.9168C308.317 60.1504 318 99.4272 318 160C318 220.573 308.317 259.85 284.083 284.083C259.85 308.317 220.573 318 160 318C99.4272 318 60.1504 308.317 35.9168 284.083C11.6833 259.85 2 220.573 2 160C2 99.4272 11.6833 60.1504 35.9168 35.9168C60.1504 11.6833 99.4272 2 160 2Z" stroke="#F8FAFC" stroke-opacity="0.2" stroke-width="4"/>
<g clip-path="url(#clip1_1014_7150)">
<path fill-rule="evenodd" clip-rule="evenodd" d="M220 215C220 177.086 205.497 165 160 165C114.503 165 100 177.086 100 215C100 252.914 114.503 265 160 265C205.497 265 220 252.914 220 215ZM165.802 189.397C170.634 190.49 175.059 192.929 178.563 196.432C183.686 201.564 186.25 208.271 186.25 214.995C186.25 216.155 185.789 217.268 184.969 218.089C184.148 218.909 183.035 219.37 181.875 219.37C180.715 219.37 179.602 218.909 178.781 218.089C177.961 217.268 177.5 216.155 177.5 214.995C177.499 210.84 176.019 206.821 173.326 203.656C170.633 200.492 166.902 198.39 162.8 197.725C158.698 197.06 154.494 197.876 150.939 200.028C147.384 202.179 144.711 205.525 143.397 209.467C142.084 213.41 142.216 217.69 143.77 221.544C145.324 225.398 148.198 228.573 151.879 230.501C155.56 232.429 159.807 232.985 163.859 232.068C167.912 231.152 171.507 228.824 174 225.499C175.95 226.962 178.269 227.853 180.697 228.071C183.125 228.29 185.566 227.828 187.747 226.738C189.927 225.647 191.76 223.971 193.042 221.897C194.323 219.823 195.001 217.433 195 214.995C194.999 207.215 192.406 199.657 187.63 193.515C182.854 187.374 176.168 182.998 168.628 181.08C161.088 179.162 153.124 179.811 145.994 182.924C138.865 186.038 132.975 191.438 129.257 198.272C125.538 205.105 124.203 212.983 125.461 220.661C126.719 228.339 130.5 235.378 136.205 240.667C141.911 245.957 149.216 249.194 156.967 249.868C164.717 250.543 172.472 248.615 179.005 244.391C179.503 244.086 179.936 243.685 180.277 243.21C180.617 242.736 180.86 242.198 180.989 241.628C181.119 241.058 181.133 240.469 181.031 239.893C180.929 239.318 180.713 238.769 180.395 238.279C180.078 237.789 179.665 237.367 179.182 237.039C178.699 236.71 178.155 236.482 177.582 236.368C177.009 236.253 176.419 236.254 175.847 236.371C175.274 236.488 174.731 236.719 174.249 237.049C170.087 239.738 165.249 241.193 160.295 241.247C155.34 241.302 150.472 239.953 146.252 237.356C142.032 234.76 138.633 231.022 136.448 226.575C134.263 222.128 133.381 217.154 133.904 212.227C134.427 207.3 136.334 202.621 139.405 198.732C142.475 194.844 146.583 191.903 151.254 190.251C155.926 188.599 160.969 188.303 165.802 189.397ZM166.187 208.808C167.828 210.449 168.75 212.674 168.75 214.995C168.75 217.316 167.828 219.541 166.187 221.182C164.546 222.823 162.321 223.745 160 223.745C157.679 223.745 155.454 222.823 153.813 221.182C152.172 219.541 151.25 217.316 151.25 214.995C151.25 212.674 152.172 210.449 153.813 208.808C155.454 207.167 157.679 206.245 160 206.245C162.321 206.245 164.546 207.167 166.187 208.808Z" fill="url(#paint1_linear_1014_7150)"/>
<path d="M90 75C112.749 75 120 81.0428 120 100C120 118.957 112.749 125 90 125C67.2513 125 60 118.957 60 100C60 81.0428 67.2513 75 90 75Z" fill="url(#paint2_linear_1014_7150)"/>
<path d="M160 55C182.749 55 190 61.0428 190 80C190 98.9572 182.749 105 160 105C137.251 105 130 98.9572 130 80C130 61.0428 137.251 55 160 55Z" fill="url(#paint3_linear_1014_7150)"/>
<path d="M230 75C252.749 75 260 81.0428 260 100C260 118.957 252.749 125 230 125C207.251 125 200 118.957 200 100C200 81.0428 207.251 75 230 75Z" fill="url(#paint4_linear_1014_7150)"/>
<path fill-rule="evenodd" clip-rule="evenodd" d="M190 140C190 121.043 182.749 115 160 115C137.251 115 130 121.043 130 140C130 145.776 130.673 150.352 132.252 153.925C133.024 155.671 134.961 156.46 136.856 156.226C143.667 155.385 151.354 155 160 155C168.646 155 176.333 155.385 183.144 156.226C185.039 156.46 186.976 155.671 187.748 153.925C189.327 150.352 190 145.776 190 140ZM229.468 184.999C227.4 184.99 225.617 183.629 224.807 181.727C220.652 171.964 213.777 165.311 203.386 161.084C201.391 160.272 199.977 158.373 200.108 156.223C201.086 140.23 208.837 135 230 135C252.749 135 260 141.043 260 160C260 178.957 252.749 185 230 185C229.822 185 229.644 185 229.468 184.999ZM119.892 156.223C120.023 158.373 118.609 160.272 116.614 161.084C106.223 165.311 99.3482 171.964 95.193 181.727C94.3831 183.629 92.6004 184.99 90.5324 184.999C90.3559 185 90.1784 185 90 185C67.2513 185 60 178.957 60 160C60 141.043 67.2513 135 90 135C111.163 135 118.914 140.23 119.892 156.223Z" fill="url(#paint5_linear_1014_7150)"/>
</g>
</g>
<defs>
<linearGradient id="paint0_linear_1014_7150" x1="160" y1="0" x2="160" y2="320" gradientUnits="userSpaceOnUse">
<stop stop-color="#475569"/>
<stop offset="1" stop-color="#1E293B"/>
</linearGradient>
<linearGradient id="paint1_linear_1014_7150" x1="160" y1="165" x2="160" y2="265" gradientUnits="userSpaceOnUse">
<stop stop-color="#FB923C"/>
<stop offset="1" stop-color="#EA580C"/>
</linearGradient>
<linearGradient id="paint2_linear_1014_7150" x1="90" y1="75" x2="90" y2="125" gradientUnits="userSpaceOnUse">
<stop stop-color="#7DD3FC"/>
<stop offset="1" stop-color="#0EA5E9"/>
</linearGradient>
<linearGradient id="paint3_linear_1014_7150" x1="160" y1="55" x2="160" y2="105" gradientUnits="userSpaceOnUse">
<stop stop-color="#7DD3FC"/>
<stop offset="1" stop-color="#0EA5E9"/>
</linearGradient>
<linearGradient id="paint4_linear_1014_7150" x1="230" y1="75" x2="230" y2="125" gradientUnits="userSpaceOnUse">
<stop stop-color="#7DD3FC"/>
<stop offset="1" stop-color="#0EA5E9"/>
</linearGradient>
<linearGradient id="paint5_linear_1014_7150" x1="160" y1="115" x2="160" y2="185" gradientUnits="userSpaceOnUse">
<stop stop-color="#7DD3FC"/>
<stop offset="1" stop-color="#0EA5E9"/>
</linearGradient>
<clipPath id="clip0_1014_7150">
<rect width="320" height="320" fill="white"/>
</clipPath>
<clipPath id="clip1_1014_7150">
<rect width="240" height="240" fill="white" transform="translate(40 40)"/>
</clipPath>
</defs>
</svg>
