<?xml version="1.0" encoding="UTF-8"?>
<svg width="64px" height="64px" viewBox="0 0 64 64" version="1.1" xmlns="http://www.w3.org/2000/svg" xmlns:xlink="http://www.w3.org/1999/xlink">
    <!-- Generator: Sketch 55 (78076) - https://sketchapp.com -->
    <title>glossary</title>
    <desc>Created with Sketch.</desc>
    <defs>
        <path d="M32,64 C46.0222222,64 53.8173667,64 58.9086889,58.9086889 C64,53.8173667 64,46.0222222 64,32 C64,17.9777778 64,10.1826333 58.9086889,5.09131111 C53.8173667,0 46.0222222,0 32,0 C17.9777778,0 10.1826333,0 5.09131111,5.09131111 C0,10.1826333 0,17.9777778 0,32 C0,46.0222222 0,53.8173667 5.09131111,58.9086889 C10.1826333,64 17.9777778,64 32,64 Z" id="path-1"></path>
        <linearGradient x1="50%" y1="0%" x2="50%" y2="100%" id="linearGradient-3">
            <stop stop-color="#FDFEFF" offset="0%"></stop>
            <stop stop-color="#FBFCFD" stop-opacity="0.9" offset="100%"></stop>
        </linearGradient>
        <path d="M35,28.125 L35,1.875 C35,0.8359375 34.1640625,0 33.125,0 L7.5,0 C3.359375,0 0,3.359375 0,7.5 L0,32.5 C0,36.640625 3.359375,40 7.5,40 L33.125,40 C34.1640625,40 35,39.1640625 35,38.125 L35,36.875 C35,36.2890625 34.7265625,35.7578125 34.3046875,35.4140625 C33.9765625,34.2109375 33.9765625,30.78125 34.3046875,29.578125 C34.7265625,29.2421875 35,28.7109375 35,28.125 Z M10,10.46875 C10,10.2109375 10.2109375,10 10.46875,10 L27.03125,10 C27.2890625,10 27.5,10.2109375 27.5,10.46875 L27.5,12.03125 C27.5,12.2890625 27.2890625,12.5 27.03125,12.5 L10.46875,12.5 C10.2109375,12.5 10,12.2890625 10,12.03125 L10,10.46875 Z M10,15.46875 C10,15.2109375 10.2109375,15 10.46875,15 L27.03125,15 C27.2890625,15 27.5,15.2109375 27.5,15.46875 L27.5,17.03125 C27.5,17.2890625 27.2890625,17.5 27.03125,17.5 L10.46875,17.5 C10.2109375,17.5 10,17.2890625 10,17.03125 L10,15.46875 Z M29.796875,35 L7.5,35 C6.1171875,35 5,33.8828125 5,32.5 C5,31.125 6.125,30 7.5,30 L29.796875,30 C29.6484375,31.3359375 29.6484375,33.6640625 29.796875,35 Z" id="path-4"></path>
        <filter x="-5.7%" y="-2.5%" width="111.4%" height="110.0%" filterUnits="objectBoundingBox" id="filter-5">
            <feOffset dx="0" dy="1" in="SourceAlpha" result="shadowOffsetOuter1"></feOffset>
            <feGaussianBlur stdDeviation="0.5" in="shadowOffsetOuter1" result="shadowBlurOuter1"></feGaussianBlur>
            <feColorMatrix values="0 0 0 0 0   0 0 0 0 0   0 0 0 0 0  0 0 0 0.1 0" type="matrix" in="shadowBlurOuter1"></feColorMatrix>
        </filter>
    </defs>
    <g id="Page-1" stroke="none" stroke-width="1" fill="none" fill-rule="evenodd">
        <g id="Artboard" transform="translate(-1798.000000, -430.000000)">
            <g id="glossary" transform="translate(1798.000000, 430.000000)">
                <mask id="mask-2" fill="white">
                    <use xlink:href="#path-1"></use>
                </mask>
                <use id="Path" fill="#00B356" xlink:href="#path-1"></use>
                <g id="book" mask="url(#mask-2)" fill-rule="nonzero">
                    <g transform="translate(15.000000, 12.000000)" id="Shape">
                        <g>
                            <use fill="black" fill-opacity="1" filter="url(#filter-5)" xlink:href="#path-4"></use>
                            <use fill="url(#linearGradient-3)" xlink:href="#path-4"></use>
                        </g>
                    </g>
                </g>
            </g>
        </g>
    </g>
</svg>