<?xml version="1.0" encoding="UTF-8"?>
<svg width="606px" height="606px" viewBox="0 0 606 606" version="1.1" xmlns="http://www.w3.org/2000/svg" xmlns:xlink="http://www.w3.org/1999/xlink">
    <!-- Generator: Sketch 43.2 (39069) - http://www.bohemiancoding.com/sketch -->
    <title>protean</title>
    <desc>Created with Sketch.</desc>
    <defs>
        <linearGradient x1="50%" y1="0%" x2="50%" y2="100%" id="linearGradient-1">
            <stop stop-color="#FFFFFF" stop-opacity="0.2" offset="0%"></stop>
            <stop stop-color="#000000" stop-opacity="0.2" offset="100%"></stop>
        </linearGradient>
    </defs>
    <g id="Page-1" stroke="none" stroke-width="1" fill="none" fill-rule="evenodd">
        <g id="protean" transform="translate(3.000000, 3.000000)">
            <g id="Squircle2-Copy-6" fill-rule="nonzero">
                <g id="Shape">
                    <g id="path-2-link" fill="#FFFFFF">
                        <path d="M552.268958,552.268958 C600,504.537813 600,431.458333 600,300 C600,168.541667 600,95.4621875 552.268958,47.7310417 C504.537813,0 431.458333,0 300,0 C168.541667,0 95.4621875,0 47.7310417,47.7310417 C0,95.4621875 0,168.541667 0,300 C0,431.458333 0,504.537813 47.7310417,552.268958 C95.4621875,600 168.541667,600 300,600 C431.458333,600 504.537813,600 552.268958,552.268958 Z" id="path-2"></path>
                    </g>
                    <g id="path-2-link" stroke="#000000" stroke-width="4.04" fill="url(#linearGradient-1)">
                        <path d="M552.268958,552.268958 C600,504.537813 600,431.458333 600,300 C600,168.541667 600,95.4621875 552.268958,47.7310417 C504.537813,0 431.458333,0 300,0 C168.541667,0 95.4621875,0 47.7310417,47.7310417 C0,95.4621875 0,168.541667 0,300 C0,431.458333 0,504.537813 47.7310417,552.268958 C95.4621875,600 168.541667,600 300,600 C431.458333,600 504.537813,600 552.268958,552.268958 Z" id="path-2"></path>
                    </g>
                </g>
            </g>
            <g id="color" transform="translate(299.500000, 302.000000) scale(-1, -1) rotate(-270.000000) translate(-299.500000, -302.000000) translate(99.500000, 102.500000)" fill="#4990E2">
                <path d="M400,199.56044 C400,269.59707 363.809524,331.135531 309.157509,366.739927 C277.802198,387.106227 240.29304,398.974359 200.14652,398.974359 L195.897436,398.974359 C194.578755,398.974359 193.113553,398.974359 191.794872,398.827839 C190.769231,398.827839 189.74359,398.681319 188.717949,398.681319 C187.545788,398.681319 186.373626,398.534799 185.201465,398.534799 C184.029304,398.388278 182.857143,398.388278 181.684982,398.241758 L181.245421,398.241758 C180.07326,398.095238 179.047619,398.095238 177.875458,397.948718 C176.263736,397.802198 174.652015,397.509158 173.040293,397.362637 C172.307692,397.216117 171.428571,397.216117 170.695971,397.069597 C169.52381,396.923077 168.205128,396.630037 167.032967,396.483516 C164.835165,396.043956 162.637363,395.750916 160.586081,395.311355 C159.85348,395.164835 159.120879,395.018315 158.388278,394.871795 C157.362637,394.578755 156.336996,394.432234 155.311355,394.139194 L155.018315,394.139194 C153.992674,393.846154 152.820513,393.699634 151.794872,393.406593 C149.74359,392.967033 147.692308,392.380952 145.494505,391.794872 C144.615385,391.501832 143.736264,391.355311 142.857143,391.062271 C140.659341,390.32967 138.315018,389.74359 136.117216,388.864469 C135.091575,388.571429 134.065934,388.131868 133.040293,387.838828 L132.893773,387.838828 C131.721612,387.399267 130.695971,387.106227 129.67033,386.666667 C128.791209,386.373626 127.912088,385.934066 127.032967,385.641026 C125.567766,385.054945 124.102564,384.468864 122.783883,383.882784 C121.904762,383.443223 121.025641,383.150183 120.14652,382.710623 C120.14652,382.710623 120.14652,382.710623 120,382.710623 C118.974359,382.271062 117.948718,381.831502 116.923077,381.245421 C115.897436,380.805861 114.871795,380.21978 113.699634,379.78022 C111.794872,378.901099 109.74359,377.875458 107.838828,376.849817 C105.641026,375.677656 103.443223,374.505495 101.391941,373.333333 C100.3663,372.747253 99.3406593,372.161172 98.4615385,371.575092 C97.5824176,370.989011 96.7032967,370.549451 95.8241758,369.96337 C95.5311355,369.81685 95.3846154,369.67033 95.0915751,369.52381 C94.2124542,369.084249 93.4798535,368.498168 92.6007326,367.912088 L92.6007326,252.747253 C111.794872,292.600733 152.673993,320.14652 200,320.14652 C232.820513,320.14652 262.710623,306.813187 284.249084,285.274725 C305.787546,263.736264 319.120879,233.992674 319.120879,201.025641 L319.120879,38.8278388 C368.058608,75.1648352 400,133.626374 400,199.56044 L400,199.56044 Z" id="Shape"></path>
                <path d="M307.252747,148.571429 C301.391941,136.117216 293.479853,124.981685 283.809524,115.457875 C262.271062,93.9194139 232.527473,80.5860806 199.56044,80.5860806 C133.772894,80.5860806 80.4395604,133.919414 80.4395604,199.70696 L80.4395604,359.56044 C31.6483516,323.223443 0.146520147,265.054945 0.146520147,199.70696 C0.146520147,134.212454 31.6483516,76.1904762 80.4395604,39.8534799 C113.846154,14.9450549 155.164835,0.293040293 200,0.293040293 C239.56044,-4.54636329e-14 276.190476,11.4285714 307.252747,31.0622711 L307.252747,148.571429 Z" id="Shape"></path>
                <path d="M0.293040293,1.46520147 L0.293040293,138.901099 C14.9450549,96.1172161 38.5347985,58.9010989 76.6300366,30.7692308 C58.021978,10.6959707 33.6996337,-0.879120879 0.293040293,1.46520147 L0.293040293,1.46520147 Z" id="Left_Ear"></path>
            </g>
        </g>
    </g>
</svg>