<?xml version="1.0"?>
<svg width="600" height="600" xmlns="http://www.w3.org/2000/svg" xmlns:svg="http://www.w3.org/2000/svg" xmlns:xlink="http://www.w3.org/1999/xlink">
 <!-- Generator: Sketch 40.3 (33839) - http://www.bohemiancoding.com/sketch -->
 <title>Group 2 Copy 20</title>
 <desc>Created with Sketch.</desc>
 <defs>
  <linearGradient x1="50%" y1="0%" x2="50%" y2="100%" id="linearGradient-1">
   <stop stop-color="#FFFFFF" stop-opacity="0.2" offset="0%"/>
   <stop stop-color="#000000" stop-opacity="0.13887" offset="100%"/>
  </linearGradient>
  <path d="m376.60714,334.91071c-21.33928,22.58929 -46.69643,39.10715 -76.07143,49.46429c-29.375,10.44643 -60.35714,15.625 -92.94642,15.625c-31.16072,0 -59.55358,-4.91071 -85.08929,-14.82143c-25.53571,-9.82143 -47.41071,-23.57143 -65.44643,-41.16071c-18.125,-17.58929 -32.14286,-38.66072 -42.14286,-63.21429c-10,-24.55357 -14.91071,-51.33928 -14.91071,-80.35714c0,-28.66072 5.44643,-55.17857 16.33929,-79.55357c10.89285,-24.375 25.71428,-45.53572 44.55357,-63.48215c18.83928,-17.94642 40.80357,-31.96428 66.07143,-42.23214c25.08928,-10.08928 52.05357,-15.17857 80.625,-15.17857c24.64285,0 48.57142,3.57143 71.69642,10.71429c23.21429,7.14285 43.75,17.94642 61.69643,32.23214c17.94643,14.375 32.23215,32.23214 42.94643,53.75c10.71429,21.51786 16.07143,46.78571 16.07143,75.80357c0,21.51786 -2.94643,40.53571 -8.92857,56.96429c-5.98214,16.51785 -13.92857,30.26785 -23.92857,41.42857c-10,11.16071 -21.33929,19.46428 -34.19643,25c-12.85714,5.53571 -26.33929,8.30357 -40.44643,8.30357c-14.46429,0 -26.07143,-3.39286 -34.82143,-10.17857c-8.66071,-6.78572 -13.03571,-15.44643 -13.03571,-25.80357l-2.67857,0c-5.44643,8.57142 -13.75,16.78571 -25,24.46428c-11.25,7.67857 -25,11.60714 -41.33929,11.60714c-24.64286,0 -43.66071,-8.03571 -57.05357,-24.19642c-13.39286,-16.16072 -20.08929,-37.05358 -20.08929,-62.94643c0,-15.08929 2.5,-29.91072 7.58929,-44.64286c5.08928,-14.73214 12.32143,-27.76786 21.69643,-39.28571c9.375,-11.42858 20.625,-20.71429 33.66071,-27.67858c13.03572,-6.96428 27.5,-10.44642 43.48214,-10.44642c13.75,0 25.35715,2.85714 34.82143,8.57142c9.375,5.71429 15.53572,12.76786 18.48215,20.98215l0.53571,0l4.375,-21.51786l48.39286,0l-21.33929,101.69643c-0.71428,5 -1.69643,10.53571 -2.94643,16.69643c-1.25,6.07143 -1.875,11.78571 -1.875,17.23214c0,6.07143 1.16072,11.16071 3.57143,15.35714c2.32143,4.10715 6.96429,6.16072 13.83929,6.16072c14.10714,0 25.80357,-7.5 35.08928,-22.58929c9.19643,-15.08928 13.83929,-35.26786 13.83929,-60.71428c0,-21.51786 -3.66072,-40.625 -10.89286,-57.23215c-7.23214,-16.69643 -17.32143,-30.625 -30.17857,-41.96428c-12.85714,-11.25 -28.21429,-19.82143 -45.89286,-25.53572c-17.76785,-5.71428 -37.14285,-8.57143 -58.125,-8.57143c-22.85714,0 -43.75,4.01786 -62.76785,12.05358c-19.01786,8.03571 -35.26786,19.19642 -48.66072,33.30357c-13.39286,14.19643 -23.83928,30.80357 -31.25,50c-7.5,19.10714 -11.25,39.82143 -11.25,62.05357c0,23.66071 3.92857,45 11.69643,64.01786c7.76786,19.01785 18.75,35.17857 32.85714,48.66071c14.10715,13.48214 30.98215,23.75 50.53572,30.89286c19.55357,7.14285 41.16071,10.71428 64.64285,10.71428c29.375,0 54.64286,-4.64285 75.80358,-14.01785c21.16071,-9.28572 40.625,-22.23215 58.39285,-38.75l30,32.32142l0,0zm-170.08928,-195.625c-8.66072,0 -16.33929,2.5 -22.85715,7.5c-6.51785,5 -12.05357,11.33929 -16.60714,19.10715c-4.55357,7.67857 -7.94643,16.25 -10.35714,25.53571c-2.32143,9.28572 -3.57143,18.30357 -3.57143,26.875c0,4.28572 0.44643,8.83929 1.33929,13.75c0.89285,4.82143 2.67857,9.28572 5.44642,13.48214c2.67858,4.10715 6.25,7.5 10.625,10.17858c4.375,2.67857 10.17858,4.01785 17.41072,4.01785c9.82143,0 18.125,-2.41071 25,-7.23214c6.875,-4.82143 12.5,-10.89286 16.875,-18.30357c4.375,-7.32143 7.5,-15.35714 9.55357,-23.92857c1.96429,-8.57143 2.94643,-16.51786 2.94643,-23.66072c0,-5.71428 -0.53572,-11.33928 -1.60714,-16.96428c-1.07143,-5.53572 -2.94643,-10.53572 -5.71429,-15.08929c-2.67857,-4.46428 -6.42857,-8.125 -11.16071,-10.98214c-4.64286,-2.85714 -10.44643,-4.28572 -17.32143,-4.28572l0,0z" id="path-3"/>
  <symbol viewBox="0 0 1792 1792" id="svg_3" xmlns="http://www.w3.org/2000/svg">
   <path id="svg_1" d="m912,1696q0,-16 -16,-16q-59,0 -101.5,-42.5t-42.5,-101.5q0,-16 -16,-16t-16,16q0,73 51.5,124.5t124.5,51.5q16,0 16,-16zm-666,-288l1300,0q-266,-300 -266,-832q0,-51 -24,-105t-69,-103t-121.5,-80.5t-169.5,-31.5t-169.5,31.5t-121.5,80.5t-69,103t-24,105q0,532 -266,832zm1482,0q0,52 -38,90t-90,38l-448,0q0,106 -75,181t-181,75t-181,-75t-75,-181l-448,0q-52,0 -90,-38t-38,-90q50,-42 91,-88t85,-119.5t74.5,-158.5t50,-206t19.5,-260q0,-152 117,-282.5t307,-158.5q-8,-19 -8,-39q0,-40 28,-68t68,-28t68,28t28,68q0,20 -8,39q190,28 307,158.5t117,282.5q0,139 19.5,260t50,206t74.5,158.5t85,119.5t91,88z" fill="#fff"/>
  </symbol>
 </defs>
 <g class="layer">
  <title>Layer 1</title>
  <path d="m552.26896,552.26896c47.73104,-47.73115 47.73104,-120.81063 47.73104,-252.26896c0,-131.45833 0,-204.53781 -47.73104,-252.26896c-47.73115,-47.73104 -120.81063,-47.73104 -252.26896,-47.73104c-131.45833,0 -204.53781,0 -252.26896,47.73104c-47.73104,47.73115 -47.73104,120.81063 -47.73104,252.26896c0,131.45833 0,204.53781 47.73104,252.26896c47.73115,47.73104 120.81063,47.73104 252.26896,47.73104c131.45833,0 204.53781,0 252.26896,-47.73104l0,0z" id="path-copy-16" fill="#FF4D63"/>
  <g id="svg_5"/>
  <g id="svg_6">
   <path d="m552.26896,552.26896c47.73104,-47.73115 47.73104,-120.81063 47.73104,-252.26896c0,-131.45833 0,-204.53781 -47.73104,-252.26896c-47.73115,-47.73104 -120.81063,-47.73104 -252.26896,-47.73104c-131.45833,0 -204.53781,0 -252.26896,47.73104c-47.73104,47.73115 -47.73104,120.81063 -47.73104,252.26896c0,131.45833 0,204.53781 47.73104,252.26896c47.73115,47.73104 120.81063,47.73104 252.26896,47.73104c131.45833,0 204.53781,0 252.26896,-47.73104l0,0z" id="path-copy" fill="url(#linearGradient-1)"/>
   <use id="svg_4" xlink:href="#svg_3" transform="matrix(0.6307147788419546,0,0,0.6707251291599935,-958.4611473019211,-84.5457166246862) " y="286.720003" x="1702.400016"/>
  </g>
 </g>
</svg>