<?xml version="1.0" encoding="UTF-8"?>
<svg width="64px" height="64px" viewBox="0 0 64 64" version="1.1" xmlns="http://www.w3.org/2000/svg" xmlns:xlink="http://www.w3.org/1999/xlink">
    <!-- Generator: Sketch 55 (78076) - https://sketchapp.com -->
    <title>quotes copy 2</title>
    <desc>Created with Sketch.</desc>
    <defs>
        <path d="M32,64 C46.0222222,64 53.8173667,64 58.9086889,58.9086889 C64,53.8173667 64,46.0222222 64,32 C64,17.9777778 64,10.1826333 58.9086889,5.09131111 C53.8173667,0 46.0222222,0 32,0 C17.9777778,0 10.1826333,0 5.09131111,5.09131111 C0,10.1826333 0,17.9777778 0,32 C0,46.0222222 0,53.8173667 5.09131111,58.9086889 C10.1826333,64 17.9777778,64 32,64 Z" id="path-1"></path>
        <linearGradient x1="50%" y1="0%" x2="50%" y2="100%" id="linearGradient-3">
            <stop stop-color="#FDFEFF" offset="0%"></stop>
            <stop stop-color="#FBFCFD" stop-opacity="0.9" offset="100%"></stop>
        </linearGradient>
        <path d="M23.0625,5.37171875 L23.0625,3.875 L24.34375,3.875 C25.0516406,3.875 25.625,3.29697917 25.625,2.58333333 L25.625,1.29166667 C25.625,0.578020833 25.0516406,0 24.34375,0 L16.65625,0 C15.9483594,0 15.375,0.578020833 15.375,1.29166667 L15.375,2.58333333 C15.375,3.29697917 15.9483594,3.875 16.65625,3.875 L17.9375,3.875 L17.9375,5.37171875 C9.24822266,6.62867187 2.5625,14.1421354 2.5625,23.25 L38.4375,23.25 C38.4375,14.1421354 31.7517773,6.62867187 23.0625,5.37171875 Z M39.71875,25.8333333 L1.28125,25.8333333 C0.573359375,25.8333333 0,26.4113542 0,27.125 L0,29.7083333 C0,30.4219792 0.573359375,31 1.28125,31 L39.71875,31 C40.4266406,31 41,30.4219792 41,29.7083333 L41,27.125 C41,26.4113542 40.4266406,25.8333333 39.71875,25.8333333 Z" id="path-4"></path>
        <filter x="-4.9%" y="-3.2%" width="109.8%" height="112.9%" filterUnits="objectBoundingBox" id="filter-5">
            <feOffset dx="0" dy="1" in="SourceAlpha" result="shadowOffsetOuter1"></feOffset>
            <feGaussianBlur stdDeviation="0.5" in="shadowOffsetOuter1" result="shadowBlurOuter1"></feGaussianBlur>
            <feColorMatrix values="0 0 0 0 0   0 0 0 0 0   0 0 0 0 0  0 0 0 0.1 0" type="matrix" in="shadowBlurOuter1"></feColorMatrix>
        </filter>
    </defs>
    <g id="Page-1" stroke="none" stroke-width="1" fill="none" fill-rule="evenodd">
        <g id="Artboard" transform="translate(-1798.000000, -511.000000)">
            <g id="quotes-copy-2" transform="translate(1798.000000, 511.000000)">
                <mask id="mask-2" fill="white">
                    <use xlink:href="#path-1"></use>
                </mask>
                <use id="Path" fill="#00B356" xlink:href="#path-1"></use>
                <g id="concierge-bell" mask="url(#mask-2)" fill-rule="nonzero">
                    <g transform="translate(12.000000, 15.000000)" id="Shape">
                        <g>
                            <use fill="black" fill-opacity="1" filter="url(#filter-5)" xlink:href="#path-4"></use>
                            <use fill="url(#linearGradient-3)" xlink:href="#path-4"></use>
                        </g>
                    </g>
                </g>
            </g>
        </g>
    </g>
</svg>