<?xml version="1.0" encoding="UTF-8"?>
<svg width="600px" height="600px" viewBox="0 0 600 600" version="1.1" xmlns="http://www.w3.org/2000/svg" xmlns:xlink="http://www.w3.org/1999/xlink">
    <!-- Generator: Sketch 40.3 (33839) - http://www.bohemiancoding.com/sketch -->
    <title>Group 2 Copy 27</title>
    <desc>Created with Sketch.</desc>
    <defs>
        <linearGradient x1="50%" y1="0%" x2="50%" y2="100%" id="linearGradient-1">
            <stop stop-color="#FFFFFF" stop-opacity="0.2" offset="0%"></stop>
            <stop stop-color="#000000" stop-opacity="0.138870018" offset="100%"></stop>
        </linearGradient>
        <linearGradient x1="50%" y1="0%" x2="50%" y2="100%" id="linearGradient-2">
            <stop stop-color="#FFFFFF" offset="0%"></stop>
            <stop stop-color="#F6F6F6" offset="35.2427758%"></stop>
            <stop stop-color="#E5E5E5" offset="100%"></stop>
        </linearGradient>
        <path d="M156.46875,246.9375 C166.78125,243.09375 173.34375,240.46875 181.03125,235.96875 C192.28125,229.5 202.40625,221.15625 210.9375,211.5 C230.0625,190.03125 240,163.59375 240,130.78125 C240,84 236.53125,36 232.40625,23.25 C228.28125,10.3125 219.75,0 203.625,0 L36.28125,0 C20.25,0 11.71875,10.40625 7.59375,23.0625 C3.46875,35.71875 0,83.90625 0,130.6875 C0,163.59375 9.9375,189.9375 28.96875,211.40625 C37.5,221.0625 47.625,229.3125 58.78125,235.78125 C66.46875,240.28125 72.9375,243.09375 83.15625,246.75 C93.375,250.40625 104.0625,253.78125 104.0625,276.5625 L104.0625,364.875 C104.0625,374.90625 101.34375,382.6875 93.65625,388.125 C91.03125,390.09375 87.75,392.15625 80.25,394.21875 C50.71875,402.28125 36.28125,408.84375 34.125,410.34375 C32.25,411.65625 29.90625,413.71875 29.90625,417 C29.90625,417 42.84375,419.90625 120.09375,419.90625 C197.34375,419.90625 210.09375,417 210.09375,417 C210.09375,413.71875 207.75,411.65625 205.78125,410.34375 C203.625,408.84375 189.09375,402.28125 159.46875,394.21875 C151.96875,392.15625 148.03125,390.09375 145.3125,388.125 C137.8125,382.78125 134.0625,375 134.0625,364.96875 L134.0625,276.65625 C134.0625,254.15625 146.15625,250.6875 156.46875,246.9375 L156.46875,246.9375 Z M119.90625,223.40625 C96.09375,223.40625 74.4375,214.03125 58.5,198.75 C55.96875,196.5 53.625,194.0625 51.375,191.53125 C36.75,175.125 30.375,157.125 29.71875,130.78125 C29.0625,104.34375 29.625,62.8125 36.5625,30 L202.5,30 C208.40625,52.5 211.03125,102 209.71875,130.5 C208.40625,159.09375 202.96875,174.84375 188.34375,191.34375 C186.46875,193.40625 184.6875,195.375 182.625,197.34375 C166.59375,213.46875 144.375,223.40625 119.90625,223.40625 L119.90625,223.40625 Z" id="path-3"></path>
        <filter x="-50%" y="-50%" width="200%" height="200%" filterUnits="objectBoundingBox" id="filter-4">
            <feMorphology radius="1" operator="dilate" in="SourceAlpha" result="shadowSpreadOuter1"></feMorphology>
            <feOffset dx="0" dy="2" in="shadowSpreadOuter1" result="shadowOffsetOuter1"></feOffset>
            <feColorMatrix values="0 0 0 0 0   0 0 0 0 0   0 0 0 0 0  0 0 0 0.08 0" type="matrix" in="shadowOffsetOuter1"></feColorMatrix>
        </filter>
        <path d="M195.1875,129.9375 C195.1875,122.90625 195.09375,100.03125 193.96875,80.625 C193.5,72.75 192.84375,65.625 192,60 L48.5625,60 C47.71875,62.8125 46.875,70.875 46.21875,80.625 C45,98.34375 44.25,121.78125 44.8125,130.21875 C45.65625,143.15625 46.21875,149.53125 49.03125,157.78125 C51.9375,166.3125 56.53125,174 62.71875,180.9375 C64.59375,183.09375 66.5625,185.0625 68.71875,186.9375 C82.03125,199.6875 100.125,207.5625 120,207.5625 C140.4375,207.5625 158.90625,199.3125 172.40625,185.90625 C174.09375,184.3125 175.6875,182.625 177.28125,180.9375 C183.46875,174 187.96875,166.40625 190.875,157.875 C193.78125,149.4375 195.1875,139.78125 195.1875,129.9375 L195.1875,129.9375 Z M180,137.8125 C180,142.5 176.34375,145.40625 172.21875,145.40625 C170.71875,145.40625 169.40625,144.9375 168.1875,144.1875 C166.125,142.875 164.90625,140.53125 164.90625,137.90625 L164.90625,113.53125 C164.90625,109.40625 168.28125,106.03125 172.40625,106.03125 C176.53125,106.03125 179.90625,109.40625 179.90625,113.53125 L179.90625,137.8125 L180,137.8125 Z M178.96875,93.5625 C177.84375,95.25 176.15625,96.375 174.1875,96.84375 C172.21875,97.21875 170.15625,96.84375 168.5625,95.8125 C166.875,94.6875 165.75,93 165.28125,91.03125 C164.90625,89.0625 165.28125,87 166.3125,85.40625 C167.4375,83.71875 169.125,82.59375 171.09375,82.125 C173.0625,81.75 175.125,82.125 176.71875,83.15625 C178.40625,84.28125 179.53125,85.96875 180,87.9375 C180.46875,89.8125 180.09375,91.875 178.96875,93.5625 L178.96875,93.5625 Z" id="path-5"></path>
        <filter x="-50%" y="-50%" width="200%" height="200%" filterUnits="objectBoundingBox" id="filter-6">
            <feMorphology radius="1" operator="dilate" in="SourceAlpha" result="shadowSpreadOuter1"></feMorphology>
            <feOffset dx="0" dy="2" in="shadowSpreadOuter1" result="shadowOffsetOuter1"></feOffset>
            <feColorMatrix values="0 0 0 0 0   0 0 0 0 0   0 0 0 0 0  0 0 0 0.08 0" type="matrix" in="shadowOffsetOuter1"></feColorMatrix>
        </filter>
    </defs>
    <g id="Page-1" stroke="none" stroke-width="1" fill="none" fill-rule="evenodd">
        <g id="Group-2-Copy-27">
            <path d="M552.268958,552.268958 C600,504.537813 600,431.458333 600,300 C600,168.541667 600,95.4621875 552.268958,47.7310417 C504.537813,0 431.458333,0 300,0 C168.541667,0 95.4621875,0 47.7310417,47.7310417 C0,95.4621875 0,168.541667 0,300 C0,431.458333 0,504.537813 47.7310417,552.268958 C95.4621875,600 168.541667,600 300,600 C431.458333,600 504.537813,600 552.268958,552.268958 L552.268958,552.268958 Z" id="path" fill="#2BAF92"></path>
            <path d="M552.268958,552.268958 C600,504.537813 600,431.458333 600,300 C600,168.541667 600,95.4621875 552.268958,47.7310417 C504.537813,0 431.458333,0 300,0 C168.541667,0 95.4621875,0 47.7310417,47.7310417 C0,95.4621875 0,168.541667 0,300 C0,431.458333 0,504.537813 47.7310417,552.268958 C95.4621875,600 168.541667,600 300,600 C431.458333,600 504.537813,600 552.268958,552.268958 L552.268958,552.268958 Z" id="path-copy" fill="url(#linearGradient-1)"></path>
            <g id="document" transform="translate(180.000000, 91.000000)">
                <g id="wineglass">
                    <g id="Layer_1">
                        <g id="Group">
                            <g id="Shape">
                                <use fill="black" fill-opacity="1" filter="url(#filter-4)" xlink:href="#path-3"></use>
                                <use fill="url(#linearGradient-2)" fill-rule="evenodd" xlink:href="#path-3"></use>
                            </g>
                            <g id="Shape" opacity="0.5">
                                <use fill="black" fill-opacity="1" filter="url(#filter-6)" xlink:href="#path-5"></use>
                                <use fill="url(#linearGradient-2)" fill-rule="evenodd" xlink:href="#path-5"></use>
                            </g>
                        </g>
                    </g>
                </g>
            </g>
        </g>
    </g>
</svg>