<svg width="320" height="320" viewBox="0 0 320 320" fill="none" xmlns="http://www.w3.org/2000/svg">
<g clip-path="url(#clip0_1019_7257)">
<path d="M160 0C281.326 0 320 38.6737 320 160C320 281.326 281.326 320 160 320C38.6736 320 0 281.326 0 160C0 38.6737 38.6736 0 160 0Z" fill="url(#paint0_linear_1019_7257)"/>
<path d="M160 2C220.573 2 259.85 11.6833 284.083 35.9168C308.317 60.1504 318 99.4272 318 160C318 220.573 308.317 259.85 284.083 284.083C259.85 308.317 220.573 318 160 318C99.4272 318 60.1504 308.317 35.9168 284.083C11.6833 259.85 2 220.573 2 160C2 99.4272 11.6833 60.1504 35.9168 35.9168C60.1504 11.6833 99.4272 2 160 2Z" stroke="#F8FAFC" stroke-opacity="0.2" stroke-width="4"/>
<g clip-path="url(#clip1_1019_7257)">
<path fill-rule="evenodd" clip-rule="evenodd" d="M126.708 239.673C122.257 239.44 119.733 244.4 123.322 247.044C135.864 256.281 154.193 260 180.002 260C240.665 260 260.002 239.455 260.002 175C260.002 135.882 252.879 112.937 233.718 100.943C230.198 98.7397 226.199 102.223 226.977 106.302C229.066 117.248 230 130.07 230 145C230 217.038 208.246 240 140 240C135.357 240 130.929 239.894 126.708 239.673Z" fill="url(#paint1_linear_1019_7257)"/>
<path fill-rule="evenodd" clip-rule="evenodd" d="M220 145C220 80.5454 200.663 60 140 60C79.3368 60 60 80.5454 60 145C60 209.455 79.3368 230 140 230C200.663 230 220 209.455 220 145ZM138.515 183.467L138.542 183.478C138.543 183.479 138.544 183.48 138.544 183.481V183.481C138.544 183.482 138.544 183.483 138.546 183.484L138.555 183.487C138.555 183.487 138.556 183.488 138.557 183.488C139.002 183.723 139.497 183.846 140 183.846C140.501 183.846 140.995 183.724 141.439 183.49C141.442 183.488 141.446 183.487 141.45 183.485V183.485C141.454 183.484 141.458 183.482 141.463 183.48L141.485 183.467L141.575 183.418C142.103 183.126 142.627 182.826 143.147 182.519C149.392 178.808 155.228 174.449 160.558 169.514C169.998 160.713 180 147.642 180 131.539C180 119.527 169.891 110 157.694 110C154.302 109.983 150.949 110.731 147.886 112.189V112.189C143.185 114.425 136.817 114.427 132.116 112.189V112.189C129.053 110.732 125.702 109.984 122.31 110C110.109 110 100 119.527 100 131.539C100 147.638 110.002 160.709 119.442 169.518C124.772 174.453 130.608 178.812 136.853 182.523C137.373 182.829 137.897 183.127 138.425 183.418L138.515 183.467Z" fill="url(#paint2_linear_1019_7257)"/>
<path d="M138.908 174.111C138.908 174.11 138.907 174.109 138.906 174.109L138.886 174.1L138.818 174.063C138.422 173.845 138.03 173.622 137.64 173.392C132.956 170.609 128.579 167.34 124.582 163.638C117.502 157.032 110 147.229 110 135.154C110 126.145 117.582 119 126.732 119C129.276 118.988 131.79 119.549 134.087 120.642C134.505 120.841 134.914 121.057 135.312 121.288C138.073 122.891 141.927 122.891 144.688 121.288C145.087 121.056 145.496 120.84 145.914 120.641C148.212 119.548 150.726 118.987 153.271 119C162.418 119 170 126.145 170 135.154C170 147.232 162.498 157.035 155.418 163.635C151.421 167.337 147.044 170.606 142.36 173.389C141.97 173.62 141.578 173.844 141.182 174.063L141.114 174.1L141.097 174.11C141.094 174.112 141.091 174.113 141.087 174.114V174.114C141.084 174.115 141.082 174.116 141.079 174.118C140.747 174.293 140.376 174.385 140 174.385C139.623 174.385 139.251 174.292 138.918 174.116C138.917 174.116 138.917 174.115 138.916 174.115L138.909 174.113C138.908 174.113 138.908 174.112 138.908 174.111V174.111Z" fill="url(#paint3_linear_1019_7257)"/>
</g>
</g>
<defs>
<linearGradient id="paint0_linear_1019_7257" x1="160" y1="0" x2="160" y2="320" gradientUnits="userSpaceOnUse">
<stop stop-color="#475569"/>
<stop offset="1" stop-color="#1E293B"/>
</linearGradient>
<linearGradient id="paint1_linear_1019_7257" x1="190.809" y1="100.26" x2="190.809" y2="260" gradientUnits="userSpaceOnUse">
<stop stop-color="#2DD4BF"/>
<stop offset="1" stop-color="#0D9488"/>
</linearGradient>
<linearGradient id="paint2_linear_1019_7257" x1="140" y1="60" x2="140" y2="230" gradientUnits="userSpaceOnUse">
<stop stop-color="#7DD3FC"/>
<stop offset="1" stop-color="#0EA5E9"/>
</linearGradient>
<linearGradient id="paint3_linear_1019_7257" x1="140" y1="119" x2="140" y2="174.385" gradientUnits="userSpaceOnUse">
<stop stop-color="#FB7185"/>
<stop offset="1" stop-color="#E11D48"/>
</linearGradient>
<clipPath id="clip0_1019_7257">
<rect width="320" height="320" fill="white"/>
</clipPath>
<clipPath id="clip1_1019_7257">
<rect width="240" height="240" fill="white" transform="translate(40 40)"/>
</clipPath>
</defs>
</svg>
