<?xml version="1.0" encoding="UTF-8"?>
<svg width="64px" height="64px" viewBox="0 0 64 64" version="1.1" xmlns="http://www.w3.org/2000/svg" xmlns:xlink="http://www.w3.org/1999/xlink">
    <!-- Generator: Sketch 55 (78076) - https://sketchapp.com -->
    <title>invitations</title>
    <desc>Created with Sketch.</desc>
    <defs>
        <path d="M32,64 C46.0222222,64 53.8173667,64 58.9086889,58.9086889 C64,53.8173667 64,46.0222222 64,32 C64,17.9777778 64,10.1826333 58.9086889,5.09131111 C53.8173667,0 46.0222222,0 32,0 C17.9777778,0 10.1826333,0 5.09131111,5.09131111 C0,10.1826333 0,17.9777778 0,32 C0,46.0222222 0,53.8173667 5.09131111,58.9086889 C10.1826333,64 17.9777778,64 32,64 Z" id="path-1"></path>
        <linearGradient x1="50%" y1="0%" x2="50%" y2="100%" id="linearGradient-3">
            <stop stop-color="#FDFEFF" offset="0%"></stop>
            <stop stop-color="#FBFCFD" stop-opacity="0.9" offset="100%"></stop>
        </linearGradient>
        <path d="M13.40625,16.4532609 L25.59375,16.4532609 C26.2671094,16.4532609 26.8125,15.9078735 26.8125,15.2345182 L26.8125,14.0157756 C26.8125,13.3424202 26.2671094,12.7970329 25.59375,12.7970329 L13.40625,12.7970329 C12.7328906,12.7970329 12.1875,13.3424202 12.1875,14.0157756 L12.1875,15.2345182 C12.1875,15.9078735 12.7328906,16.4532609 13.40625,16.4532609 Z M12.1875,22.5469741 C12.1875,23.2203295 12.7328906,23.7657168 13.40625,23.7657168 L25.59375,23.7657168 C26.2671094,23.7657168 26.8125,23.2203295 26.8125,22.5469741 L26.8125,21.3282315 C26.8125,20.6548762 26.2671094,20.1094888 25.59375,20.1094888 L13.40625,20.1094888 C12.7328906,20.1094888 12.1875,20.6548762 12.1875,21.3282315 L12.1875,22.5469741 Z M19.5,31.7736178 C18.2492578,31.7736178 16.9985156,31.3881904 15.9305859,30.616574 L3.55271368e-15,19.1085964 L3.55271368e-15,35.343772 C3.55271368e-15,37.3630763 1.63693359,39 3.65625,39 L35.34375,39 C37.3630664,39 39,37.3630763 39,35.343772 L39,19.1085964 L23.0694141,30.616574 C22.0014844,31.3874287 20.7507422,31.7736178 19.5,31.7736178 Z M37.5991992,12.4123673 C36.9250781,11.8837376 36.2859961,11.3863383 35.34375,10.6748973 L35.34375,7.31269095 C35.34375,5.29338671 33.7068164,3.65646298 31.6875,3.65646298 L25.7803711,3.65646298 C25.5488086,3.48888587 25.3332422,3.33197275 25.0917773,3.1567785 C23.8113281,2.22215522 21.2671875,-0.0264249785 19.5,0.00023501705 C17.7328125,-0.0264249785 15.1894336,2.22215522 13.9082227,3.1567785 C13.6667578,3.33197275 13.4511914,3.48888587 13.2196289,3.65646298 L7.3125,3.65646298 C5.29318359,3.65646298 3.65625,5.29338671 3.65625,7.31269095 L3.65625,10.6748973 C2.71400391,11.3855766 2.07492187,11.8837376 1.40080078,12.4123673 C0.516676581,13.1052408 0.000152149378,14.1660897 0,15.2893616 L0,16.1005872 L7.3125,21.3830749 L7.3125,7.31269095 L31.6875,7.31269095 L31.6875,21.3830749 L39,16.1005872 L39,15.2893616 C39,14.166595 38.4835547,13.1055271 37.5991992,12.4123673 Z" id="path-4"></path>
        <filter x="-5.1%" y="-2.6%" width="110.3%" height="110.3%" filterUnits="objectBoundingBox" id="filter-5">
            <feOffset dx="0" dy="1" in="SourceAlpha" result="shadowOffsetOuter1"></feOffset>
            <feGaussianBlur stdDeviation="0.5" in="shadowOffsetOuter1" result="shadowBlurOuter1"></feGaussianBlur>
            <feColorMatrix values="0 0 0 0 0   0 0 0 0 0   0 0 0 0 0  0 0 0 0.1 0" type="matrix" in="shadowBlurOuter1"></feColorMatrix>
        </filter>
    </defs>
    <g id="Page-1" stroke="none" stroke-width="1" fill="none" fill-rule="evenodd">
        <g id="Artboard" transform="translate(-1558.000000, -511.000000)">
            <g id="invitations" transform="translate(1558.000000, 511.000000)">
                <mask id="mask-2" fill="white">
                    <use xlink:href="#path-1"></use>
                </mask>
                <use id="Path" fill="#00B356" xlink:href="#path-1"></use>
                <g id="envelope-open-text" mask="url(#mask-2)" fill-rule="nonzero">
                    <g transform="translate(13.000000, 12.000000)" id="Shape">
                        <g>
                            <use fill="black" fill-opacity="1" filter="url(#filter-5)" xlink:href="#path-4"></use>
                            <use fill="url(#linearGradient-3)" xlink:href="#path-4"></use>
                        </g>
                    </g>
                </g>
            </g>
        </g>
    </g>
</svg>