<?xml version="1.0" encoding="utf-8"?>
<!-- Generator: Adobe Illustrator 20.1.0, SVG Export Plug-In . SVG Version: 6.00 Build 0)  -->
<svg version="1.1" id="Слой_1" xmlns="http://www.w3.org/2000/svg" xmlns:xlink="http://www.w3.org/1999/xlink" x="0px" y="0px"
	 viewBox="0 0 64 64" style="enable-background:new 0 0 64 64;" xml:space="preserve">
<style type="text/css">
	.st0{fill:#00B356;}
	.st1{fill:#FFFFFF;}
</style>
<title>contact</title>
<desc>Created with Sketch.</desc>
<g id="Page-1">
	<g id="Artboard" transform="translate(-826.000000, -430.000000)">
		<g id="contact" transform="translate(826.000000, 430.000000)">
			<g id="Path">
				<path id="path-1_1_" class="st0" d="M32,64c14,0,21.8,0,26.9-5.1S64,46,64,32s0-21.8-5.1-26.9S46,0,32,0S10.2,0,5.1,5.1
					S0,18,0,32s0,21.8,5.1,26.9S18,64,32,64z"/>
			</g>
		</g>
	</g>
</g>
<path class="st1" d="M32,44.6c9,0,16.4-7.3,16.4-16.4S41,11.9,32,11.9s-16.4,7.3-16.4,16.4S23,44.6,32,44.6z M30.3,19.5v-1.3
	c0-0.7,0.6-1.3,1.3-1.3h0.9c0.7,0,1.3,0.6,1.3,1.3v1.3c1.2,0.1,2.4,0.5,3.4,1.2c0.4,0.3,0.5,1,0.1,1.3l-1.3,1.2
	c-0.3,0.3-0.7,0.3-1.1,0.1c-0.4-0.3-0.9-0.4-1.4-0.4h-3.1c-0.7,0-1.3,0.6-1.3,1.4c0,0.6,0.4,1.2,1,1.4l4.9,1.5
	c2,0.6,3.4,2.5,3.4,4.7c0,2.7-2.1,4.8-4.6,4.9v1.3c0,0.7-0.6,1.3-1.3,1.3h-0.9c-0.7,0-1.3-0.6-1.3-1.3v-1.3
	c-1.2-0.1-2.4-0.5-3.4-1.2c-0.4-0.3-0.5-1-0.1-1.3l1.3-1.2c0.3-0.3,0.7-0.3,1.1-0.1c0.4,0.3,0.9,0.4,1.4,0.4h3.1
	c0.7,0,1.3-0.6,1.3-1.4c0-0.6-0.4-1.2-1-1.4L29,29.2c-2-0.6-3.4-2.5-3.4-4.7C25.6,21.8,27.7,19.6,30.3,19.5L30.3,19.5z M49.6,39.6
	h-2.6c-1.5,2-3.5,3.8-5.7,5h5c0.4,0,0.8,0.3,0.8,0.6v1.3c0,0.3-0.3,0.6-0.8,0.6H17.7c-0.4,0-0.8-0.3-0.8-0.6v-1.3
	c0-0.3,0.3-0.6,0.8-0.6h5c-2.2-1.3-4.2-3-5.7-5h-2.5c-1.4,0-2.5,1.1-2.5,2.5v7.6c0,1.4,1.1,2.5,2.5,2.5h35.2c1.4,0,2.5-1.1,2.5-2.5
	v-7.6C52.1,40.7,51,39.6,49.6,39.6z"/>
</svg>
