<svg width="320" height="320" viewBox="0 0 320 320" fill="none" xmlns="http://www.w3.org/2000/svg">
<g clip-path="url(#clip0_818_7190)">
<path d="M160 0C281.326 0 320 38.6737 320 160C320 281.326 281.326 320 160 320C38.6736 320 0 281.326 0 160C0 38.6737 38.6736 0 160 0Z" fill="url(#paint0_linear_818_7190)"/>
<path d="M160 2C220.573 2 259.85 11.6833 284.083 35.9168C308.317 60.1504 318 99.4272 318 160C318 220.573 308.317 259.85 284.083 284.083C259.85 308.317 220.573 318 160 318C99.4272 318 60.1504 308.317 35.9168 284.083C11.6833 259.85 2 220.573 2 160C2 99.4272 11.6833 60.1504 35.9168 35.9168C60.1504 11.6833 99.4272 2 160 2Z" stroke="#0F172A" stroke-opacity="0.2" stroke-width="4"/>
<g clip-path="url(#clip1_818_7190)">
<path fill-rule="evenodd" clip-rule="evenodd" d="M160 50C243.412 50 270 76.5882 270 160C270 230.824 250.831 260.681 193.985 268.08C188.208 268.831 183.225 264.207 183.225 258.381V202.455C183.225 196.933 187.702 192.455 193.225 192.455H198.528C203.59 192.455 207.855 188.672 208.457 183.645L209.681 173.424C210.394 167.472 205.746 162.234 199.752 162.234H193.225C187.702 162.234 183.225 157.757 183.225 152.234V142.94C183.225 134.19 185.481 128.228 197.136 128.228L202.005 128.225C207.526 128.222 212 123.746 212 118.225V109.863C212 104.887 208.331 100.724 203.365 100.413C199.676 100.182 195.168 100 190.34 100C168.909 100 154.238 114.083 154.238 139.948V152.234C154.238 157.757 149.761 162.234 144.238 162.234H140C134.477 162.234 130 166.712 130 172.234V182.455C130 187.978 134.477 192.455 140 192.455H144.238C149.761 192.455 154.238 196.933 154.238 202.455V259.799C154.238 265.383 149.663 269.907 144.086 269.637C134.566 269.177 125.907 268.268 118.048 266.85C112.267 265.807 109.048 259.651 109.617 253.804C109.878 251.12 110 248.19 110 245C110 218.46 101.54 210 75 210C71.8096 210 68.8804 210.122 66.1958 210.383C60.3487 210.952 54.1935 207.733 53.1503 201.952C50.9789 189.918 50 176.005 50 160C50 76.5882 76.5881 50 160 50Z" fill="url(#paint1_linear_818_7190)"/>
<path d="M75 220C93.9572 220 100 226.043 100 245C100 263.957 93.9572 270 75 270C56.0428 270 50 263.957 50 245C50 226.043 56.0428 220 75 220Z" fill="url(#paint2_linear_818_7190)"/>
</g>
</g>
<defs>
<linearGradient id="paint0_linear_818_7190" x1="160" y1="0" x2="160" y2="320" gradientUnits="userSpaceOnUse">
<stop stop-color="#F8FAFC"/>
<stop offset="1" stop-color="#E2E8F0"/>
</linearGradient>
<linearGradient id="paint1_linear_818_7190" x1="160" y1="50" x2="160" y2="269.649" gradientUnits="userSpaceOnUse">
<stop stop-color="#60A5FA"/>
<stop offset="1" stop-color="#2563EB"/>
</linearGradient>
<linearGradient id="paint2_linear_818_7190" x1="75" y1="220" x2="75" y2="270" gradientUnits="userSpaceOnUse">
<stop stop-color="#FB923C"/>
<stop offset="1" stop-color="#EA580C"/>
</linearGradient>
<clipPath id="clip0_818_7190">
<rect width="320" height="320" fill="white"/>
</clipPath>
<clipPath id="clip1_818_7190">
<rect width="240" height="240" fill="white" transform="translate(40 40)"/>
</clipPath>
</defs>
</svg>
