<?xml version="1.0" encoding="UTF-8"?>
<svg width="606px" height="606px" viewBox="0 0 606 606" version="1.1" xmlns="http://www.w3.org/2000/svg" xmlns:xlink="http://www.w3.org/1999/xlink">
    <!-- Generator: Sketch 40.2 (33826) - http://www.bohemiancoding.com/sketch -->
    <title>facebook</title>
    <desc>Created with Sketch.</desc>
    <defs>
        <linearGradient x1="50%" y1="0%" x2="50%" y2="100%" id="linearGradient-1">
            <stop stop-color="#FFFFFF" stop-opacity="0.2" offset="0%"></stop>
            <stop stop-color="#000000" stop-opacity="0.2" offset="100%"></stop>
        </linearGradient>
        <path d="M552.268958,552.268958 C600,504.537813 600,431.458333 600,300 C600,168.541667 600,95.4621875 552.268958,47.7310417 C504.537813,0 431.458333,0 300,0 C168.541667,0 95.4621875,0 47.7310417,47.7310417 C0,95.4621875 0,168.541667 0,300 C0,431.458333 0,504.537813 47.7310417,552.268958 C95.4621875,600 168.541667,600 300,600 C431.458333,600 504.537813,600 552.268958,552.268958 Z" id="path-2"></path>
    </defs>
    <g id="Page-1" stroke="none" stroke-width="1" fill="none" fill-rule="evenodd">
        <g id="facebook" transform="translate(3.000000, 3.000000)">
            <g id="Squircle2-Copy-6">
                <g id="Shape">
                    <use fill="#FFFFFF" xlink:href="#path-2"></use>
                    <use stroke="#000000" stroke-width="4.04" fill="url(#linearGradient-1)" xlink:href="#path-2"></use>
                </g>
            </g>
            <g id="F_icon" opacity="0.9" transform="translate(100.000000, 100.000000)">
                <g id="Layer_1">
                    <path d="M376.960618,398.92973 C389.090347,398.92973 398.926641,389.093436 398.926641,376.960618 L398.926641,22.8756757 C398.926641,10.7413127 389.091892,0.908108108 376.960618,0.908108108 L22.8756757,0.908108108 C10.7413127,0.908108108 0.908108108,10.7413127 0.908108108,22.8756757 L0.908108108,376.960618 C0.908108108,389.091892 10.7397683,398.92973 22.8756757,398.92973 L376.960618,398.92973 L376.960618,398.92973 Z" id="Blue_1_" fill="#3C5A99"></path>
                    <path d="M275.535135,398.92973 L275.535135,244.793822 L327.271042,244.793822 L335.017761,184.724324 L275.535135,184.724324 L275.535135,146.373745 C275.535135,128.982239 280.364479,117.130502 305.303475,117.130502 L337.111969,117.116602 L337.111969,63.3899614 C331.610811,62.6579151 312.728958,61.0223938 290.76139,61.0223938 C244.900386,61.0223938 213.502703,89.0162162 213.502703,140.42471 L213.502703,184.724324 L161.633977,184.724324 L161.633977,244.793822 L213.502703,244.793822 L213.502703,398.92973 L275.535135,398.92973 L275.535135,398.92973 Z" id="f" fill="#FFFFFF"></path>
                </g>
            </g>
        </g>
    </g>
</svg>