<svg width="320" height="320" viewBox="0 0 320 320" fill="none" xmlns="http://www.w3.org/2000/svg">
<g clip-path="url(#clip0_1016_7714)">
<path d="M160 0C281.326 0 320 38.6737 320 160C320 281.326 281.326 320 160 320C38.6736 320 0 281.326 0 160C0 38.6737 38.6736 0 160 0Z" fill="url(#paint0_linear_1016_7714)"/>
<path d="M160 2C220.573 2 259.85 11.6833 284.083 35.9168C308.317 60.1504 318 99.4272 318 160C318 220.573 308.317 259.85 284.083 284.083C259.85 308.317 220.573 318 160 318C99.4272 318 60.1504 308.317 35.9168 284.083C11.6833 259.85 2 220.573 2 160C2 99.4272 11.6833 60.1504 35.9168 35.9168C60.1504 11.6833 99.4272 2 160 2Z" stroke="#F8FAFC" stroke-opacity="0.2" stroke-width="4"/>
<g clip-path="url(#clip1_1016_7714)">
<path d="M127.583 199.15C131.12 197.581 134.263 195.228 137.014 192.483C142.908 186.601 162.554 166.995 196.739 133.271C199.882 130.134 199.882 125.429 196.739 122.292L188.094 113.665C184.951 110.528 180.236 110.528 177.092 113.665L116.582 172.877C113.438 176.406 110.295 184.249 106.365 196.012C105.972 197.581 105.972 199.934 106.758 201.11C107.151 201.894 107.937 202.679 108.723 203.071C110.688 203.855 114.224 205.031 120.118 205.816C129.548 207.384 141.729 208.561 156.66 208.561C171.984 208.561 184.165 207.776 193.202 205.816C199.096 204.639 202.633 203.855 204.597 203.071C206.562 202.287 207.741 199.934 206.562 197.973C205.776 196.012 203.418 194.836 201.454 195.62L199.882 196.797C197.917 197.189 195.167 197.973 192.417 198.365C183.379 199.934 171.984 200.718 157.053 200.718C145.265 200.718 135.442 200.326 127.583 199.15ZM65.1081 153.662C66.6798 139.546 69.0373 125.821 71.7878 112.489C74.9312 97.9797 87.5049 87.3921 102.436 87H236.031C249.784 87 260 97.1954 260 110.528C260 124.252 259.214 139.938 256.857 157.584C254.892 173.661 251.749 189.346 247.819 204.639C243.497 220.325 229.352 231.696 213.242 232.089H87.5049C72.5737 232.481 60.3929 220.717 60 206.208V202.679C61.5717 185.033 63.1434 168.563 65.1081 153.662ZM120.904 182.68C122.475 180.327 124.44 178.367 126.798 176.014L167.662 135.232C169.234 133.664 171.591 133.664 173.163 135.232L174.342 136.409C175.914 137.977 175.914 140.33 174.342 141.898C150.766 165.426 137.014 178.759 133.477 182.288C131.513 184.249 129.155 186.209 126.012 188.17C124.047 189.346 121.69 188.954 120.511 186.993C119.725 185.817 119.725 184.249 120.904 182.68ZM176.699 126.605L181.022 122.292C182.593 120.723 184.951 120.723 186.523 122.292L187.701 123.468C189.273 125.037 189.273 127.39 187.701 128.958L183.379 133.271C181.807 134.84 179.45 134.84 177.878 133.271L176.699 132.095C175.128 130.527 175.128 128.174 176.699 126.605Z" fill="#E2E8F0"/>
</g>
</g>
<defs>
<linearGradient id="paint0_linear_1016_7714" x1="160" y1="0" x2="160" y2="320" gradientUnits="userSpaceOnUse">
<stop stop-color="#475569"/>
<stop offset="1" stop-color="#1E293B"/>
</linearGradient>
<clipPath id="clip0_1016_7714">
<rect width="320" height="320" fill="white"/>
</clipPath>
<clipPath id="clip1_1016_7714">
<rect width="240" height="240" fill="white" transform="translate(40 40)"/>
</clipPath>
</defs>
</svg>
