<?xml version="1.0" encoding="UTF-8"?>
<svg width="606px" height="606px" viewBox="0 0 606 606" version="1.1" xmlns="http://www.w3.org/2000/svg" xmlns:xlink="http://www.w3.org/1999/xlink">
    <title>markerio</title>
    <desc>Created manually.</desc>
    <defs>
        <linearGradient x1="50%" y1="0%" x2="50%" y2="100%" id="linearGradient-1">
            <stop stop-color="#FFFFFF" stop-opacity="0.2" offset="0%"></stop>
            <stop stop-color="#000000" stop-opacity="0.2" offset="100%"></stop>
        </linearGradient>
        <path d="M552.268958,552.268958 C600,504.537813 600,431.458333 600,300 C600,168.541667 600,95.4621875 552.268958,47.7310417 C504.537813,0 431.458333,0 300,0 C168.541667,0 95.4621875,0 47.7310417,47.7310417 C0,95.4621875 0,168.541667 0,300 C0,431.458333 0,504.537813 47.7310417,552.268958 C95.4621875,600 168.541667,600 300,600 C431.458333,600 504.537813,600 552.268958,552.268958 Z" id="path-2"></path>
    </defs>
    <g id="Page-1" stroke="none" stroke-width="1" fill="none" fill-rule="evenodd">
        <g id="oauth" transform="translate(3.000000, 3.000000)">
            <g id="Squircle2-Copy-6">
                <g id="Shape">
                    <use fill="#FFFFFF" xlink:href="#path-2"></use>
                    <use stroke="#000000" stroke-width="4.04" fill="url(#linearGradient-1)" xlink:href="#path-2"></use>
                </g>
            </g>
            <g id="Group" opacity="0.9" transform="translate(101.000000, 151.000000) scale(8, 8)">
                <path fill="#000" d="M17.13 28.63c.9-.42 1.7-.98 2.4-1.68 1.45-1.45 6.5-6.49 15.16-15.1a2 2 0 0 0 .01-2.83l-2.23-2.24a2 2 0 0 0-2.82-.01L14.4 21.85c-.8.93-1.65 2.91-2.57 5.95-.06.42-.1.95.07 1.34a1 1 0 0 0 .54.54c.46.2 1.4.46 2.87.71 2.4.42 5.48.66 9.34.66 3.87 0 6.96-.24 9.35-.66 1.48-.25 2.4-.52 2.87-.7a1 1 0 0 0-.77-1.87l-.51.16c-.5.15-1.15.29-1.93.43-2.28.39-5.25.63-9 .63-2.99 0-5.48-.15-7.53-.41zM1.24 17C1.72 13.4 2.3 9.9 3 6.5A8.26 8.26 0 0 1 10.84 0H44.8c3.48 0 6.1 2.56 6.13 6 .04 3.5-.23 7.5-.83 12a98.63 98.63 0 0 1-2.3 12.03A9.44 9.44 0 0 1 38.95 37H7.01a6.83 6.83 0 0 1-7-7.5c.32-4.53.73-8.7 1.23-12.5zm14.24 7.41c.42-.57.92-1.14 1.48-1.71 1.54-1.55 5.01-5 10.42-10.35a1 1 0 0 1 1.41 0l.3.29a1 1 0 0 1 0 1.42c-6.03 5.97-9.5 9.42-10.41 10.34-.47.46-1.08.95-1.85 1.45a1 1 0 0 1-1.35-1.44zM29.66 10.1l1.15-1.14a1 1 0 0 1 1.4 0l.3.3a1 1 0 0 1 0 1.4l-1.15 1.15a1 1 0 0 1-1.4 0l-.3-.3a1 1 0 0 1 0-1.4z"></path>
            </g>
        </g>
    </g>
</svg>