<svg width="75" height="20" viewBox="0 0 75 20" fill="none" xmlns="http://www.w3.org/2000/svg">
<g id="una 1" clip-path="url(#clip0)">
<g id="Group 19">
<path id="Vector" d="M16.8537 18.6067C16.6377 18.779 16.6322 19.108 16.8742 19.2412C17.5801 19.6299 18.547 19.8861 19.5076 19.9711C19.7424 19.9918 19.938 19.8021 19.9399 19.5664C19.9436 19.1089 19.9522 18.5461 19.9617 17.9186C19.9706 17.3357 19.9803 16.6968 19.9877 16.0345C19.9915 15.6985 19.4919 15.5751 19.3128 15.8594C18.652 16.9077 17.8191 17.8367 16.8537 18.6067Z" fill="url(#paint0_linear)"/>
<path id="Vector_2" d="M3.10837 1.4255C3.33148 1.24594 3.32692 0.90164 3.07206 0.771007C2.30834 0.379556 1.32549 0.12083 0.430687 0.0331437C0.195846 0.0101315 0 0.199913 0 0.435894V3.98262C0 4.318 0.500748 4.43957 0.679161 4.15559C1.33256 3.11561 2.15517 2.19271 3.10837 1.4255Z" fill="url(#paint1_radial)"/>
<path id="Vector_3" d="M10.0001 19.9994C15.523 19.9994 20.0002 15.5219 20.0002 9.99863C20.0002 7.17647 18.8313 4.62734 16.9513 2.80903C16.5809 2.45082 16.0001 2.73323 16.0001 3.2485V9.99863C16.0001 13.3126 13.3138 15.9991 10.0001 15.9991C8.40863 15.9991 6.96188 15.3795 5.88793 14.3683C5.58757 14.0855 5 14.2835 5 14.696V18.1808C5 18.4783 5.15734 18.7557 5.42169 18.8921C6.7935 19.5998 8.35013 19.9994 10.0001 19.9994Z" fill="url(#paint2_radial)"/>
<path id="Vector_4" d="M14.1123 5.63112C14.4126 5.91392 15.0002 5.71594 15.0002 5.30339V1.81862C15.0002 1.52112 14.8429 1.24373 14.5785 1.10734C13.2067 0.399612 11.6501 0 10.0001 0C4.4772 0 0 4.47749 0 10.0008C0 12.8229 1.1689 15.3721 3.04893 17.1904C3.41931 17.5486 4.00005 17.2662 4.00005 16.7509V10.0008C4.00005 6.68681 6.68638 4.00031 10.0001 4.00031C11.5916 4.00031 13.0383 4.61994 14.1123 5.63112Z" fill="url(#paint3_radial)"/>
</g>
<g id="Group 18">
<path id="Vector_5" fill-rule="evenodd" clip-rule="evenodd" d="M38.3954 16.0576C37.0114 16.8451 35.7712 16.8451 35.1014 16.8451C35.0986 16.8451 35.0956 16.8451 35.0925 16.8451C35.0897 16.8451 35.0866 16.8451 35.0836 16.8451C34.414 16.8451 33.1736 16.8451 31.7898 16.0576C31.1816 15.7359 30.6155 15.3155 30.0912 14.7965C28.6971 13.445 28 11.809 28 9.88841V3.42419C28 3.18769 28.1835 2.99173 28.4249 3.00027C29.0484 3.02234 30.1981 3.19485 30.757 4.11748C30.8268 4.23246 30.8538 4.36673 30.8538 4.50043V9.88841C30.8538 11.16 31.2674 12.0223 32.0954 12.8333C32.921 13.6421 33.92 14.0476 35.0925 14.0496C36.265 14.0476 37.264 13.6421 38.0899 12.8333C38.9176 12.0223 39.1945 11.2017 39.3315 9.88841C39.4551 8.64818 39.4652 6.96566 39.3576 4.79084C39.3477 4.59552 39.5745 4.47978 39.7265 4.6065C42.5202 6.93417 42.185 9.88841 42.185 9.88841C42.185 11.809 41.488 13.445 40.0939 14.7965C39.5695 15.3155 39.0034 15.7359 38.3954 16.0576Z" fill="url(#paint4_linear)"/>
<path id="Vector_6" fill-rule="evenodd" clip-rule="evenodd" d="M48.1903 3.90274C49.5741 3.11523 50.8145 3.11523 51.4841 3.11523C51.4871 3.11523 51.4902 3.11523 51.493 3.11523C51.496 3.11523 51.4991 3.11523 51.5019 3.11523C52.1717 3.11523 53.4119 3.11523 54.7959 3.90274C55.4039 4.2245 55.97 4.64486 56.4943 5.16382C57.8887 6.5153 58.5857 8.15134 58.5857 10.0719V16.5361C58.5857 16.7726 58.4022 16.9686 58.1608 16.96C57.5371 16.9379 56.3874 16.7655 55.8285 15.8429C55.759 15.7279 55.732 15.5936 55.732 15.4599V10.0719C55.732 8.70887 55.3181 7.93796 54.4904 7.12701C53.6645 6.31819 52.6655 5.91275 51.493 5.9107C50.3205 5.91275 49.3215 6.31819 48.4958 7.12701C47.6681 7.93796 47.2543 8.68877 47.2543 10.0719V15.2023C47.2543 15.3921 47.0333 15.4977 46.8853 15.3754C44.0635 13.0445 44.4005 10.0719 44.4005 10.0719C44.4005 8.15134 45.0975 6.5153 46.4919 5.16382C47.016 4.64486 47.5821 4.2245 48.1903 3.90274Z" fill="url(#paint5_linear)"/>
<path id="Vector_7" fill-rule="evenodd" clip-rule="evenodd" d="M74.9851 9.85092C74.9945 9.92053 74.9999 9.99414 74.9999 10.0719V16.5361C74.9999 16.7726 74.8164 16.9686 74.575 16.96C73.9128 16.9366 72.6573 16.7435 72.1462 15.6628C72.1469 15.6471 72.1476 15.6315 72.1487 15.6158C70.965 16.4851 69.4945 17.0001 67.9011 17.0001C63.9872 17.0001 60.8145 13.8919 60.8145 10.0577C60.8145 6.22347 63.9872 3.11523 67.9011 3.11523C71.7445 3.11523 74.8737 6.11235 74.9851 9.85092ZM67.9011 14.1928C70.2324 14.1928 72.1227 12.3415 72.1227 10.0577C72.1227 7.7739 70.2324 5.92256 67.9011 5.92256C65.5704 5.92256 63.6802 7.7739 63.6802 10.0577C63.6802 12.3415 65.5704 14.1928 67.9011 14.1928Z" fill="url(#paint6_linear)"/>
</g>
</g>
<defs>
<linearGradient id="paint0_linear" x1="20" y1="15.5" x2="20.0004" y2="20.0021" gradientUnits="userSpaceOnUse">
<stop stop-color="#FB923C"/>
<stop offset="1" stop-color="#EA580C"/>
</linearGradient>
<radialGradient id="paint1_radial" cx="0" cy="0" r="1" gradientUnits="userSpaceOnUse" gradientTransform="translate(0 5.41648) rotate(-90) scale(5.41709 3.58042)">
<stop stop-color="#0EA5E9"/>
<stop offset="1" stop-color="#38BDF8"/>
</radialGradient>
<radialGradient id="paint2_radial" cx="0" cy="0" r="1" gradientUnits="userSpaceOnUse" gradientTransform="translate(12.5001 1.99801) rotate(90) scale(18.0014 14.9996)">
<stop stop-color="#38BDF8"/>
<stop offset="1" stop-color="#0284C7"/>
</radialGradient>
<radialGradient id="paint3_radial" cx="0" cy="0" r="1" gradientUnits="userSpaceOnUse" gradientTransform="translate(10.2814) rotate(90) scale(18.0014 14.9996)">
<stop stop-color="#34D399"/>
<stop offset="1" stop-color="#059669"/>
</radialGradient>
<linearGradient id="paint4_linear" x1="35.0989" y1="2.99753" x2="35.0989" y2="16.8451" gradientUnits="userSpaceOnUse">
<stop stop-color="#FB923C"/>
<stop offset="1" stop-color="#EA580C"/>
</linearGradient>
<linearGradient id="paint5_linear" x1="51.4869" y1="3.11523" x2="51.4869" y2="16.9628" gradientUnits="userSpaceOnUse">
<stop stop-color="#FB923C"/>
<stop offset="1" stop-color="#EA580C"/>
</linearGradient>
<linearGradient id="paint6_linear" x1="67.9072" y1="3.11523" x2="67.9072" y2="17.0001" gradientUnits="userSpaceOnUse">
<stop stop-color="#FB923C"/>
<stop offset="1" stop-color="#EA580C"/>
</linearGradient>
<clipPath id="clip0">
<rect width="75" height="20.0001" fill="white"/>
</clipPath>
</defs>
</svg>
