<svg width="320" height="320" viewBox="0 0 320 320" fill="none" xmlns="http://www.w3.org/2000/svg">
<g clip-path="url(#clip0_816_5685)">
<path d="M160 0C281.326 0 320 38.6737 320 160C320 281.326 281.326 320 160 320C38.6736 320 0 281.326 0 160C0 38.6737 38.6736 0 160 0Z" fill="url(#paint0_linear_816_5685)"/>
<path d="M160 2C220.573 2 259.85 11.6833 284.083 35.9168C308.317 60.1504 318 99.4272 318 160C318 220.573 308.317 259.85 284.083 284.083C259.85 308.317 220.573 318 160 318C99.4272 318 60.1504 308.317 35.9168 284.083C11.6833 259.85 2 220.573 2 160C2 99.4272 11.6833 60.1504 35.9168 35.9168C60.1504 11.6833 99.4272 2 160 2Z" stroke="#0F172A" stroke-opacity="0.2" stroke-width="4"/>
<g clip-path="url(#clip1_816_5685)">
<path fill-rule="evenodd" clip-rule="evenodd" d="M109.999 81C109.999 97.5685 96.5676 111 79.999 111C77.112 111 74.3494 112.718 73.7522 115.542C71.1498 127.852 69.999 142.56 69.999 160C69.999 235.829 91.7529 260 159.999 260C177.228 260 191.494 258.459 203.195 254.936C208.379 253.375 210.454 247.536 210.074 242.135C210.024 241.43 209.999 240.718 209.999 240C209.999 223.431 223.43 210 239.999 210C242.754 210 245.384 208.367 245.982 205.677C248.771 193.122 249.999 178.02 249.999 160C249.999 84.1711 228.245 60 159.999 60C142.695 60 128.38 61.5539 116.651 65.1098C111.379 66.7081 109.361 72.7111 109.87 78.1969C109.955 79.1198 109.999 80.0548 109.999 81ZM119.999 105C114.476 105 109.999 109.477 109.999 115C109.999 120.523 114.476 125 119.999 125H199.999C205.522 125 209.999 120.523 209.999 115C209.999 109.477 205.522 105 199.999 105H119.999ZM109.999 145C109.999 139.477 114.476 135 119.999 135H199.999C205.522 135 209.999 139.477 209.999 145C209.999 150.523 205.522 155 199.999 155H119.999C114.476 155 109.999 150.523 109.999 145ZM119.999 165C114.476 165 109.999 169.477 109.999 175C109.999 180.523 114.476 185 119.999 185H199.999C205.522 185 209.999 180.523 209.999 175C209.999 169.477 205.522 165 199.999 165H119.999ZM109.999 205C109.999 199.477 114.476 195 119.999 195H179.999C185.522 195 189.999 199.477 189.999 205C189.999 210.523 185.522 215 179.999 215H119.999C114.476 215 109.999 210.523 109.999 205Z" fill="url(#paint1_linear_816_5685)"/>
<circle cx="80" cy="80" r="20" fill="url(#paint2_linear_816_5685)"/>
<circle cx="240" cy="240" r="20" fill="url(#paint3_linear_816_5685)"/>
</g>
</g>
<defs>
<linearGradient id="paint0_linear_816_5685" x1="160" y1="0" x2="160" y2="320" gradientUnits="userSpaceOnUse">
<stop stop-color="#F8FAFC"/>
<stop offset="1" stop-color="#E2E8F0"/>
</linearGradient>
<linearGradient id="paint1_linear_816_5685" x1="159.999" y1="60" x2="159.999" y2="260" gradientUnits="userSpaceOnUse">
<stop stop-color="#60A5FA"/>
<stop offset="1" stop-color="#2563EB"/>
</linearGradient>
<linearGradient id="paint2_linear_816_5685" x1="80" y1="60" x2="80" y2="100" gradientUnits="userSpaceOnUse">
<stop stop-color="#FB923C"/>
<stop offset="1" stop-color="#EA580C"/>
</linearGradient>
<linearGradient id="paint3_linear_816_5685" x1="240" y1="220" x2="240" y2="260" gradientUnits="userSpaceOnUse">
<stop stop-color="#2DD4BF"/>
<stop offset="1" stop-color="#0D9488"/>
</linearGradient>
<clipPath id="clip0_816_5685">
<rect width="320" height="320" fill="white"/>
</clipPath>
<clipPath id="clip1_816_5685">
<rect width="240" height="240" fill="white" transform="translate(40 40)"/>
</clipPath>
</defs>
</svg>
