<svg width="48" height="48" viewBox="0 0 48 48" fill="none" xmlns="http://www.w3.org/2000/svg">
<rect width="48" height="48" fill="url(#paint0_linear_221_2491)"/>
<path d="M25.4963 9C24.4211 9 23.1173 9.00021 22.7126 9.28346C22.3079 9.5667 22.1379 10.0619 21.7979 11.0523C21.4112 12.1717 21.1361 13.3334 20.0605 14.001L19.5389 14.2927C18.2148 14.952 16.8663 14.3916 15.546 14.0311C14.8589 13.8422 14.1963 13.7856 13.7902 13.7699C13.5378 13.7601 13.3074 13.8965 13.1771 14.113L10.7102 18.2108C10.5806 18.426 10.5672 18.6918 10.6928 18.9094C10.8817 19.2366 11.2062 19.7418 11.6433 20.2129C12.6846 21.3411 13.9069 22.3412 13.9069 24.0057C13.9069 25.6704 12.6848 26.6703 11.6433 27.7988C11.2062 28.2699 10.8817 28.7752 10.6928 29.1024C10.5672 29.32 10.5806 29.5859 10.7102 29.8011L13.1771 33.8988C13.3074 34.1152 13.5378 34.2516 13.7903 34.2418C14.1964 34.2261 14.8589 34.1695 15.546 33.9805C16.8665 33.6201 18.215 33.0597 19.5391 33.7191L20.0607 34.0109C21.1362 34.6787 21.4113 35.8401 21.7979 36.9595C22.1379 37.95 22.3079 38.4451 22.7126 38.7283C23.1173 39.0117 24.4211 39 25.4963 39" stroke="white" stroke-width="2.25" stroke-linecap="round"/>
<path d="M25.497 29.25C22.5975 29.25 20.2471 26.8995 20.2471 24C20.2471 21.1005 22.5975 18.75 25.497 18.75" stroke="white" stroke-width="2.25" stroke-linecap="round"/>
<path d="M36.3719 13.125L32.9969 16.5H29.9969M35.2469 13.125C35.2469 13.7463 35.7506 14.25 36.3719 14.25C36.9932 14.25 37.4969 13.7463 37.4969 13.125C37.4969 12.5037 36.9932 12 36.3719 12C35.7506 12 35.2469 12.5037 35.2469 13.125Z" stroke="white" stroke-width="2.25" stroke-linecap="round" stroke-linejoin="round"/>
<path d="M36.3719 34.875L32.9969 31.5H29.9969M35.2469 34.875C35.2469 34.2537 35.7506 33.75 36.3719 33.75C36.9932 33.75 37.4969 34.2537 37.4969 34.875C37.4969 35.4963 36.9932 36 36.3719 36C35.7506 36 35.2469 35.4963 35.2469 34.875Z" stroke="white" stroke-width="2.25" stroke-linecap="round" stroke-linejoin="round"/>
<path d="M36.3719 24H29.9969M35.2469 24C35.2469 24.6213 35.7506 25.125 36.3719 25.125C36.9932 25.125 37.4969 24.6213 37.4969 24C37.4969 23.3787 36.9932 22.875 36.3719 22.875C35.7506 22.875 35.2469 23.3787 35.2469 24Z" stroke="white" stroke-width="2.25" stroke-linecap="round" stroke-linejoin="round"/>
<defs>
<linearGradient id="paint0_linear_221_2491" x1="24" y1="0" x2="24" y2="48" gradientUnits="userSpaceOnUse">
<stop stop-color="#71717A"/>
<stop offset="1" stop-color="#52525B"/>
</linearGradient>
</defs>
</svg>
