<svg width="48" height="48" viewBox="0 0 48 48" fill="none" xmlns="http://www.w3.org/2000/svg">
<rect width="48" height="48" fill="url(#paint0_linear_221_2294)"/>
<path d="M9.75 23.5C9.75 16.7825 9.75 13.4237 11.8369 11.3369C13.9237 9.25 17.2825 9.25 24 9.25C30.7175 9.25 34.0763 9.25 36.1632 11.3369C38.25 13.4237 38.25 16.7825 38.25 23.5C38.25 30.2175 38.25 33.5763 36.1632 35.6632C34.0763 37.75 30.7175 37.75 24 37.75C17.2825 37.75 13.9237 37.75 11.8369 35.6632C9.75 33.5763 9.75 30.2175 9.75 23.5Z" stroke="white" stroke-width="2.25"/>
<path d="M9.75 19H38.25" stroke="white" stroke-width="2.25" stroke-linejoin="round"/>
<path d="M25.5 25H31.5" stroke="white" stroke-width="2.25" stroke-linecap="round" stroke-linejoin="round"/>
<path d="M25.5 31H28.5" stroke="white" stroke-width="2.25" stroke-linecap="round" stroke-linejoin="round"/>
<path d="M16.4997 14.5H16.5132" stroke="white" stroke-width="3" stroke-linecap="round" stroke-linejoin="round"/>
<path d="M22.4997 14.5H22.5132" stroke="white" stroke-width="3" stroke-linecap="round" stroke-linejoin="round"/>
<path d="M19.5 19V37.75" stroke="white" stroke-width="2.25" stroke-linecap="round" stroke-linejoin="round"/>
<defs>
<linearGradient id="paint0_linear_221_2294" x1="24" y1="0" x2="24" y2="48" gradientUnits="userSpaceOnUse">
<stop stop-color="#3B82F6"/>
<stop offset="1" stop-color="#5850EC"/>
</linearGradient>
</defs>
</svg>
