<svg width="48" height="48" viewBox="0 0 48 48" fill="none" xmlns="http://www.w3.org/2000/svg">
<rect width="48" height="48" fill="url(#paint0_linear_214_2030)"/>
<g clip-path="url(#clip0_214_2030)">
<path d="M9 24C9 25.9698 9.38799 27.9204 10.1418 29.7403C10.8956 31.5601 12.0005 33.2137 13.3934 34.6066C14.7863 35.9995 16.4399 37.1044 18.2597 37.8582C20.0796 38.612 22.0302 39 24 39C25.9698 39 27.9204 38.612 29.7403 37.8582C31.5601 37.1044 33.2137 35.9995 34.6066 34.6066C35.9995 33.2137 37.1044 31.5601 37.8582 29.7403C38.612 27.9204 39 25.9698 39 24C39 22.0302 38.612 20.0796 37.8582 18.2597C37.1044 16.4399 35.9995 14.7863 34.6066 13.3934C33.2137 12.0005 31.5601 10.8956 29.7403 10.1418C27.9204 9.38799 25.9698 9 24 9C22.0302 9 20.0796 9.38799 18.2597 10.1418C16.4399 10.8956 14.7863 12.0005 13.3934 13.3934C12.0005 14.7863 10.8956 16.4399 10.1418 18.2597C9.38799 20.0796 9 22.0302 9 24Z" stroke="white" stroke-width="2.25" stroke-linecap="round" stroke-linejoin="round"/>
<path d="M22.3333 24C22.3333 24.442 22.5089 24.866 22.8215 25.1785C23.134 25.4911 23.558 25.6667 24 25.6667C24.442 25.6667 24.8659 25.4911 25.1785 25.1785C25.4911 24.866 25.6666 24.442 25.6666 24C25.6666 23.558 25.4911 23.1341 25.1785 22.8215C24.8659 22.5089 24.442 22.3333 24 22.3333C23.558 22.3333 23.134 22.5089 22.8215 22.8215C22.5089 23.1341 22.3333 23.558 22.3333 24Z" stroke="white" stroke-width="2.25" stroke-linecap="round" stroke-linejoin="round"/>
<path d="M26.35 21.65L30.6666 17.3333" stroke="white" stroke-width="2.25" stroke-linecap="round" stroke-linejoin="round"/>
<path d="M15.6667 24C15.6667 21.7899 16.5447 19.6703 18.1075 18.1075C19.6703 16.5447 21.7899 15.6667 24 15.6667" stroke="white" stroke-width="2.25" stroke-linecap="round" stroke-linejoin="round"/>
</g>
<defs>
<linearGradient id="paint0_linear_214_2030" x1="24" y1="0" x2="24" y2="48" gradientUnits="userSpaceOnUse">
<stop stop-color="#71717A"/>
<stop offset="1" stop-color="#52525B"/>
</linearGradient>
<clipPath id="clip0_214_2030">
<rect width="40" height="40" fill="white" transform="translate(4 4)"/>
</clipPath>
</defs>
</svg>
