<svg width="48" height="48" viewBox="0 0 48 48" fill="none" xmlns="http://www.w3.org/2000/svg">
<rect width="48" height="48" fill="url(#paint0_linear_221_2231)"/>
<path d="M30.453 12.6667C31.1087 13.2742 31.8513 14.0338 32.7427 14.9456C35.4142 17.6782 36.75 19.0446 36.75 20.7425C36.75 22.4404 35.4142 23.8066 32.7427 26.5394L23.675 35.8144C23.3326 36.1646 22.9671 36.4764 22.5833 36.75" stroke="white" stroke-width="2.25" stroke-linecap="round"/>
<path d="M9.83331 30.5383C9.83331 34.7514 13.357 38.1667 17.7037 38.1667H30.2962C34.0065 38.1667 35.8614 38.1667 37.014 37.0495C38.1666 35.9324 38.1666 34.1344 38.1666 30.5383C38.1666 29.6777 38.1666 28.9199 38.1508 28.25" stroke="white" stroke-width="2.25" stroke-linecap="round"/>
<path d="M9.83331 17.7037C9.83331 13.9936 9.83331 12.1385 10.9744 10.9859C12.1154 9.83333 13.952 9.83333 17.625 9.83333C21.298 9.83333 23.1345 9.83333 24.2755 10.9859C25.4166 12.1385 25.4166 13.9936 25.4166 17.7037V30.2962C25.4166 34.643 21.9282 38.1667 17.625 38.1667C13.3218 38.1667 9.83331 34.643 9.83331 30.2962V17.7037Z" stroke="white" stroke-width="2.25"/>
<path d="M17.625 31.7917H17.6385" stroke="white" stroke-width="3" stroke-linecap="round" stroke-linejoin="round"/>
<path d="M9.83331 18.3333H25.4166M9.83331 25.4167H25.4166" stroke="white" stroke-width="2.25" stroke-linecap="round" stroke-linejoin="round"/>
<defs>
<linearGradient id="paint0_linear_221_2231" x1="24" y1="0" x2="24" y2="48" gradientUnits="userSpaceOnUse">
<stop stop-color="#71717A"/>
<stop offset="1" stop-color="#52525B"/>
</linearGradient>
</defs>
</svg>
