<svg width="48" height="48" viewBox="0 0 48 48" fill="none" xmlns="http://www.w3.org/2000/svg">
<rect width="48" height="48" fill="url(#paint0_linear_221_2196)"/>
<path d="M18.9645 10.7184L16.4072 11.9004C12.4691 13.7208 10.5 14.631 10.5 16.125C10.5 17.619 12.4691 18.5292 16.4073 20.3496L18.9645 21.5316C21.4428 22.6771 22.6821 23.25 24 23.25C25.3179 23.25 26.5572 22.6771 29.0355 21.5316L31.5927 20.3496C35.5309 18.5292 37.5 17.619 37.5 16.125C37.5 14.631 35.5309 13.7208 31.5927 11.9004L29.0355 10.7184C26.5572 9.57279 25.3179 9 24 9C22.6821 9 21.4428 9.57279 18.9645 10.7184Z" stroke="white" stroke-width="2.25" stroke-linecap="round" stroke-linejoin="round"/>
<path d="M37.182 22.6458C37.394 22.9439 37.5 23.2547 37.5 23.5964C37.5 25.0691 35.5309 25.9664 31.5927 27.7608L29.0355 28.926C26.5572 30.0552 25.3179 30.62 24 30.62C22.6821 30.62 21.4428 30.0552 18.9645 28.926L16.4073 27.7608C12.4691 25.9664 10.5 25.0691 10.5 23.5964C10.5 23.2547 10.606 22.9439 10.818 22.6458" stroke="white" stroke-width="2.25" stroke-linecap="round" stroke-linejoin="round"/>
<path d="M36.565 30.3991C37.1883 30.8956 37.5 31.3905 37.5 31.9764C37.5 33.4492 35.5309 34.3464 31.5927 36.1408L29.0355 37.306C26.5572 38.4354 25.3179 39 24 39C22.6821 39 21.4428 38.4354 18.9645 37.306L16.4073 36.1408C12.4691 34.3464 10.5 33.4492 10.5 31.9764C10.5 31.3905 10.8117 30.8956 11.435 30.3991" stroke="white" stroke-width="2.25" stroke-linecap="round" stroke-linejoin="round"/>
<defs>
<linearGradient id="paint0_linear_221_2196" x1="24" y1="0" x2="24" y2="48" gradientUnits="userSpaceOnUse">
<stop stop-color="#71717A"/>
<stop offset="1" stop-color="#52525B"/>
</linearGradient>
</defs>
</svg>
