<?xml version="1.0" encoding="UTF-8"?>
<svg width="606px" height="606px" viewBox="0 0 606 606" version="1.1" xmlns="http://www.w3.org/2000/svg" xmlns:xlink="http://www.w3.org/1999/xlink">
    <!-- Generator: Sketch 40.2 (33826) - http://www.bohemiancoding.com/sketch -->
    <title>google</title>
    <desc>Created with Sketch.</desc>
    <defs>
        <linearGradient x1="50%" y1="0%" x2="50%" y2="100%" id="linearGradient-1">
            <stop stop-color="#FFFFFF" stop-opacity="0.2" offset="0%"></stop>
            <stop stop-color="#000000" stop-opacity="0.2" offset="100%"></stop>
        </linearGradient>
        <path d="M552.268958,552.268958 C600,504.537813 600,431.458333 600,300 C600,168.541667 600,95.4621875 552.268958,47.7310417 C504.537813,0 431.458333,0 300,0 C168.541667,0 95.4621875,0 47.7310417,47.7310417 C0,95.4621875 0,168.541667 0,300 C0,431.458333 0,504.537813 47.7310417,552.268958 C95.4621875,600 168.541667,600 300,600 C431.458333,600 504.537813,600 552.268958,552.268958 Z" id="path-2"></path>
        <path d="M385.455827,163.35 L362.781955,163.35 L288.411654,163.35 L199.530075,163.35 L199.530075,240.4875 L306.550752,240.4875 C296.574248,289.4925 254.854323,317.625 199.530075,317.625 C134.229323,317.625 81.6259398,264.99 81.6259398,199.65 C81.6259398,134.31 134.229323,81.675 199.530075,81.675 C227.645677,81.675 253.040414,91.6575 272.993421,107.9925 L331.038534,49.9125 C295.667293,19.0575 250.319549,0 199.530075,0 C88.8815789,0 0,88.935 0,199.65 C0,310.365 88.8815789,399.3 199.530075,399.3 C299.295113,399.3 389.990602,326.7 389.990602,199.65 C389.990602,187.8525 388.176692,175.1475 385.455827,163.35 L385.455827,163.35 Z" id="path-3"></path>
        <path d="M385.455827,163.35 L362.781955,163.35 L288.411654,163.35 L199.530075,163.35 L199.530075,240.4875 L306.550752,240.4875 C296.574248,289.4925 254.854323,317.625 199.530075,317.625 C134.229323,317.625 81.6259398,264.99 81.6259398,199.65 C81.6259398,134.31 134.229323,81.675 199.530075,81.675 C227.645677,81.675 253.040414,91.6575 272.993421,107.9925 L331.038534,49.9125 C295.667293,19.0575 250.319549,0 199.530075,0 C88.8815789,0 0,88.935 0,199.65 C0,310.365 88.8815789,399.3 199.530075,399.3 C299.295113,399.3 389.990602,326.7 389.990602,199.65 C389.990602,187.8525 388.176692,175.1475 385.455827,163.35 L385.455827,163.35 Z" id="path-5"></path>
        <path d="M385.455827,163.35 L362.781955,163.35 L288.411654,163.35 L199.530075,163.35 L199.530075,240.4875 L306.550752,240.4875 C296.574248,289.4925 254.854323,317.625 199.530075,317.625 C134.229323,317.625 81.6259398,264.99 81.6259398,199.65 C81.6259398,134.31 134.229323,81.675 199.530075,81.675 C227.645677,81.675 253.040414,91.6575 272.993421,107.9925 L331.038534,49.9125 C295.667293,19.0575 250.319549,0 199.530075,0 C88.8815789,0 0,88.935 0,199.65 C0,310.365 88.8815789,399.3 199.530075,399.3 C299.295113,399.3 389.990602,326.7 389.990602,199.65 C389.990602,187.8525 388.176692,175.1475 385.455827,163.35 L385.455827,163.35 Z" id="path-7"></path>
        <path d="M385.455827,163.35 L362.781955,163.35 L288.411654,163.35 L199.530075,163.35 L199.530075,240.4875 L306.550752,240.4875 C296.574248,289.4925 254.854323,317.625 199.530075,317.625 C134.229323,317.625 81.6259398,264.99 81.6259398,199.65 C81.6259398,134.31 134.229323,81.675 199.530075,81.675 C227.645677,81.675 253.040414,91.6575 272.993421,107.9925 L331.038534,49.9125 C295.667293,19.0575 250.319549,0 199.530075,0 C88.8815789,0 0,88.935 0,199.65 C0,310.365 88.8815789,399.3 199.530075,399.3 C299.295113,399.3 389.990602,326.7 389.990602,199.65 C389.990602,187.8525 388.176692,175.1475 385.455827,163.35 L385.455827,163.35 Z" id="path-9"></path>
    </defs>
    <g id="Page-1" stroke="none" stroke-width="1" fill="none" fill-rule="evenodd">
        <g id="google" transform="translate(3.000000, 3.000000)">
            <g id="Squircle2-Copy-6">
                <g id="Shape">
                    <use fill="#FFFFFF" xlink:href="#path-2"></use>
                    <use stroke="#000000" stroke-width="4.04" fill="url(#linearGradient-1)" xlink:href="#path-2"></use>
                </g>
            </g>
            <g id="Google_-G-_Logo" opacity="0.9" transform="translate(105.000000, 100.000000)">
                <g id="Group">
                    <g id="Clipped">
                        <mask id="mask-4" fill="white">
                            <use xlink:href="#path-3"></use>
                        </mask>
                        <g id="SVGID_1_"></g>
                        <polygon id="Shape" fill="#FBBC05" mask="url(#mask-4)" points="-18.1390977 317.625 -18.1390977 81.675 136.043233 199.65"></polygon>
                    </g>
                    <g id="Clipped">
                        <mask id="mask-6" fill="white">
                            <use xlink:href="#path-5"></use>
                        </mask>
                        <g id="SVGID_1_"></g>
                        <polygon id="Shape" fill="#EA4335" mask="url(#mask-6)" points="-18.1390977 81.675 136.043233 199.65 199.530075 144.2925 417.199248 108.9 417.199248 -18.15 -18.1390977 -18.15"></polygon>
                    </g>
                    <g id="Clipped">
                        <mask id="mask-8" fill="white">
                            <use xlink:href="#path-7"></use>
                        </mask>
                        <g id="SVGID_1_"></g>
                        <polygon id="Shape" fill="#34A853" mask="url(#mask-8)" points="-18.1390977 317.625 253.947368 108.9 325.596805 117.975 417.199248 -18.15 417.199248 417.45 -18.1390977 417.45"></polygon>
                    </g>
                    <g id="Clipped">
                        <mask id="mask-10" fill="white">
                            <use xlink:href="#path-9"></use>
                        </mask>
                        <g id="SVGID_1_"></g>
                        <polygon id="Shape" fill="#4285F4" mask="url(#mask-10)" points="417.199248 417.45 136.043233 199.65 99.7650376 172.425 417.199248 81.675"></polygon>
                    </g>
                </g>
            </g>
        </g>
    </g>
</svg>