<?xml version="1.0"?>
<svg width="600" height="600" xmlns="http://www.w3.org/2000/svg" xmlns:svg="http://www.w3.org/2000/svg">
 <!-- Generator: Sketch 40.3 (33839) - http://www.bohemiancoding.com/sketch -->
 <title>Group 2 Copy 6</title>
 <desc>Created with Sketch.</desc>
 <defs>
  <linearGradient id="linearGradient-1" y2="100%" x2="50%" y1="0%" x1="50%">
   <stop offset="0%" stop-opacity="0.2" stop-color="#FFFFFF"/>
   <stop offset="100%" stop-opacity="0.13887" stop-color="#000000"/>
  </linearGradient>
  <path id="path-2" d="m316.42857,199.375c0,-16.78571 8.30357,-10.625 13.57143,-42.58929c2.05357,-12.58928 3.75,-4.19642 8.125,-24.375c2.32143,-10.53571 -1.60714,-11.33928 -1.07143,-16.33928c0.44643,-5 0.89286,-9.55357 1.78572,-19.82143c1.07142,-12.85714 -10.35715,-46.42857 -51.25,-46.42857c-40.89286,0 -52.32143,33.57143 -51.25,46.42857c0.80357,10.35714 1.33928,14.82143 1.78571,19.82143c0.44643,5 -3.39286,5.80357 -1.07143,16.33928c4.375,20.17858 6.07143,11.69643 8.125,24.375c5.26786,31.96429 13.48214,25.89286 13.48214,42.58929c0,11.96429 2.76786,16.96429 -13.30357,24.55357c4.82143,1.69643 10.44643,3.75 17.23215,6.33929c48.57142,18.48214 47.41071,36.42857 48.66071,44.91071c0.89286,5.80357 1.33929,52.05357 1.51786,68.57143l82.23214,0c1.74423,0 5,-2.29796 4.99234,-6.12007c-0.03516,-17.55366 -0.23181,-67.25562 -1.33163,-74.14779c-0.98214,-6.60714 -9.82142,-15.35714 -47.5,-29.73214c-36.96428,-14.01786 -34.73214,-8.39286 -34.73214,-34.375z"/>
  <path id="path-5" d="m290,316.60714c-0.17857,-16.60714 -0.625,-35.71428 -1.51786,-41.42857c-1.33928,-8.48214 -12.76785,-19.82143 -61.25,-38.30357c-6.69643,-2.5 -12.32143,-4.55357 -17.23214,-6.33929c-29.73214,-10.53571 -27.58929,-14.01785 -27.58929,-42.85714c0,-21.69643 10.71429,-7.58928 17.5,-48.75c2.67858,-16.25 4.82143,-5.44643 10.44643,-31.42857c3.03572,-13.57143 -2.05357,-14.64286 -1.42857,-21.16071c0.625,-6.51786 1.25,-12.32143 2.32143,-25.625c1.42857,-16.51786 -13.30357,-59.91072 -66.16071,-59.91072c-52.85715,0 -67.5,43.30357 -66.16072,59.91072c1.07143,13.30357 1.69643,19.10714 2.41072,25.625c0.625,6.51785 -4.46429,7.5 -1.42858,21.16071c5.71429,25.98214 7.85715,15.17857 10.53572,31.42857c6.78571,41.16072 17.41071,27.05357 17.41071,48.75c0,33.57143 2.94643,31.07143 -44.82143,49.19643c-48.48214,18.48214 -59.91071,29.82143 -61.25,38.30357c-1.35479,8.19649 -1.68172,43.42562 -1.76062,59.95108c-0.02509,5.25631 4.76515,8.62035 6.97491,8.62035l138.08929,0l145.08928,0c0,0 0,-12.58929 -0.17857,-27.14286z"/>
 </defs>
 <g class="layer">
  <title>Layer 1</title>
  <path fill="#F6A623" id="path" d="m552.26896,552.26896c47.73104,-47.73115 47.73104,-120.81063 47.73104,-252.26896c0,-131.45833 0,-204.53781 -47.73104,-252.26896c-47.73115,-47.73104 -120.81063,-47.73104 -252.26896,-47.73104c-131.45833,0 -204.53781,0 -252.26896,47.73104c-47.73104,47.73115 -47.73104,120.81063 -47.73104,252.26896c0,131.45833 0,204.53781 47.73104,252.26896c47.73115,47.73104 120.81063,47.73104 252.26896,47.73104c131.45833,0 204.53781,0 252.26896,-47.73104l0,0z"/>
  <path fill="url(#linearGradient-1)" id="path-copy" d="m554.63933,552.26896c47.73104,-47.73115 47.73104,-120.81063 47.73104,-252.26896c0,-131.45833 0,-204.53781 -47.73104,-252.26896c-47.73115,-47.73104 -120.81063,-47.73104 -252.26896,-47.73104c-131.45833,0 -204.53781,0 -252.26896,47.73104c-47.73104,47.73115 -47.73104,120.81063 -47.73104,252.26896c0,131.45833 0,204.53781 47.73104,252.26896c47.73115,47.73104 120.81063,47.73104 252.26896,47.73104c131.45833,0 204.53781,0 252.26896,-47.73104l0,0z"/>
  <g transform="matrix(0.7341109822450476,0,0,0.6230403302368076,287.98172811028,306.54542883995487) " id="svg_10">
   <path id="svg_11" fill="#fff" d="m19.57931,395.292143l38.179373,-151.423834l-38.179373,-43.263953l-50.90583,-21.631976l50.90583,216.319763zm50.90583,-216.319763l50.90583,-216.319763l-50.90583,21.631976l-38.179373,43.263953l38.179373,151.423834zm63.632288,-341.379626q-0.795404,-1.351999 -1.590807,-2.027998q-3.977018,-2.703997 -38.179373,-2.703997q-27.839126,0 -66.4162,6.421993q-2.783913,0.675999 -8.351738,0.675999t-8.351738,-0.675999q-38.577074,-6.421993 -66.4162,-6.421993q-34.202355,0 -38.179373,2.703997q-0.795404,0.675999 -1.590807,2.027998q0.795404,6.083993 1.590807,9.12599q0.795404,1.013999 2.982763,2.196998t2.982763,3.548996q0.795404,1.351999 2.982763,6.928992t2.783913,6.928992t2.982763,5.745994t3.380465,5.745994t3.579316,4.731995t4.772422,4.562995t5.567825,3.210996t6.959781,2.703997t8.152887,1.351999t9.743694,0.675999q14.317265,0 23.464406,-4.224995t12.925308,-10.139989t5.766676,-11.660987t4.573571,-9.970989t6.959781,-4.224995l4.772422,0q4.37472,0 6.959781,4.224995t4.573571,9.970989t5.766676,11.660987t12.925308,10.139989t23.464406,4.224995q5.170123,0 9.743694,-0.675999t8.152887,-1.351999t6.959781,-2.703997t5.567825,-3.210996t4.772422,-4.562995t3.579316,-4.731995t3.380465,-5.745994t2.982763,-5.745994t2.783913,-6.928992t2.982763,-6.928992q0.795404,-2.365997 2.982763,-3.548996t2.982763,-2.196998q0.795404,-3.041997 1.590807,-9.12599zm165.443948,297.101675q0,40.897955 -29.032231,64.21993t-77.154149,23.321974l-347.591371,0q-48.121917,0 -77.154149,-23.321974t-29.032231,-64.21993q0,-20.617977 1.789658,-39.883956t7.556334,-42.418954t14.913817,-41.742954t25.254064,-34.982962t37.185118,-25.180972l-35.793162,-74.359919l85.108185,0q-8.74944,-21.631976 -8.74944,-43.263953q0,-4.055996 0.795404,-10.815988q-77.154149,-13.519985 -77.154149,-32.447964q0,-19.265979 83.517377,-33.461963q6.760931,-20.955977 20.481643,-45.29195t28.037977,-38.531958q12.726458,-12.505986 30.225337,-12.505986q11.931054,0 33.406951,10.477989t33.406951,10.477989t33.406951,-10.477989t33.406951,-10.477989q17.498879,0 30.225337,12.505986q14.317265,14.195984 28.037977,38.531958t20.481643,45.29195q83.517377,14.195984 83.517377,33.461963q0,18.927979 -77.154149,32.447964q2.783913,27.37797 -7.954036,54.079941l85.108185,0l-32.611547,76.049917q25.055213,11.153988 42.752943,32.616964t26.049468,48.502947t11.533352,51.206944t3.181614,50.192945z"/>
  </g>
  <g id="svg_7"/>
 </g>
</svg>