<?xml version="1.0" encoding="UTF-8"?>
<svg width="64px" height="65px" viewBox="0 0 64 65" version="1.1" xmlns="http://www.w3.org/2000/svg" xmlns:xlink="http://www.w3.org/1999/xlink">
    <!-- Generator: Sketch 55 (78076) - https://sketchapp.com -->
    <title>plyr copy</title>
    <desc>Created with Sketch.</desc>
    <defs>
        <path d="M32,64 C46.0222222,64 53.8173667,64 58.9086889,58.9086889 C64,53.8173667 64,46.0222222 64,32 C64,17.9777778 64,10.1826333 58.9086889,5.09131111 C53.8173667,0 46.0222222,0 32,0 C17.9777778,0 10.1826333,0 5.09131111,5.09131111 C0,10.1826333 0,17.9777778 0,32 C0,46.0222222 0,53.8173667 5.09131111,58.9086889 C10.1826333,64 17.9777778,64 32,64 Z" id="path-1"></path>
    </defs>
    <g id="Page-1" stroke="none" stroke-width="1" fill="none" fill-rule="evenodd">
        <g id="Artboard" transform="translate(-421.000000, -768.000000)">
            <g id="plyr-copy" transform="translate(421.000000, 768.163247)">
                <mask id="mask-2" fill="white">
                    <use xlink:href="#path-1"></use>
                </mask>
                <use id="Path" fill="#E3EBEE" xlink:href="#path-1"></use>
                <g id="logo-copy-2" mask="url(#mask-2)" fill-rule="nonzero">
                    <g transform="translate(10.000000, 9.836753)" id="Shape">
                        <path d="M43,21.6450336 C43,29.3207675 39.1148713,36.0651364 33.2478551,39.9672353 C29.8817922,42.1993003 25.8551001,43.5 21.5452813,43.5 C21.3879885,43.5 21.2464251,43.5 21.0891325,43.5 C20.9475691,43.5 20.7902764,43.5 20.648713,43.483942 C20.5386083,43.483942 20.4285033,43.4678839 20.3183985,43.4678839 C20.1925644,43.4678839 20.0667302,43.451826 19.940896,43.451826 C19.815062,43.4357679 19.6892279,43.4357679 19.5633937,43.4197099 C19.3903718,43.4036519 19.2802669,43.4036519 19.1544327,43.3875938 C18.9814109,43.3715359 18.808389,43.3394198 18.635367,43.3233618 C18.5567207,43.3073037 18.4623451,43.3073037 18.3836988,43.2912458 C18.2578646,43.2751877 18.1163012,43.2430717 17.9904671,43.2270136 C17.7545281,43.1788396 17.5185891,43.1467235 17.2983794,43.0985495 C17.2197331,43.0824915 17.1410868,43.0664334 17.0624405,43.0503755 C16.9523355,43.0182594 16.8422308,43.0022014 16.7321258,42.9700854 C16.5905624,42.9379693 16.4647283,42.9219113 16.3546235,42.8897953 C16.1344138,42.8416211 15.914204,42.7773891 15.6782649,42.7131569 C15.5838894,42.6810409 15.4895138,42.6649829 15.3951383,42.6328668 C15.1591992,42.5525767 14.907531,42.4883447 14.6715921,42.3919965 C14.5614871,42.3598805 14.4513823,42.3117064 14.3412774,42.2795904 C14.199714,42.2314163 14.0896091,42.1993003 13.9795043,42.1511262 C13.8851287,42.1190102 13.7907531,42.0708361 13.6963775,42.03872 C13.5390848,41.9744881 13.3817922,41.9102559 13.2402288,41.8460239 C13.1458532,41.7978497 13.0514776,41.7657338 12.957102,41.7175596 C12.8312679,41.6693856 12.721163,41.6212116 12.6110582,41.5569794 C12.5009533,41.5088054 12.3908484,41.4445733 12.2650143,41.3963992 C12.0605338,41.3000512 11.8403241,41.187645 11.6358437,41.0752388 C11.3999047,40.9467747 11.1639657,40.8183106 10.943756,40.6898464 C10.8799969,40.6526511 10.8162378,40.6154559 10.7555331,40.5782606 C10.100708,40.0885875 10.0228126,39.7824092 10,39.1241641 C10,34.6230143 10,31.2087108 10,28.8812536 C10,28.4122007 10.4891667,28.4326608 10.775007,28.884394 C13.0491635,32.4784009 17.0162758,34.8607847 21.5295519,34.8607847 C25.0529075,34.8607847 28.2616777,33.3995049 30.5738798,31.0389757 C32.8860819,28.6784467 34.3174452,25.4186684 34.3174452,21.8056138 C34.3174452,14.5516041 34.3174452,9.11109676 34.3174452,5.48409191 C34.332286,4.56791316 34.3396733,4.12346055 35.3877375,4.89595175 C40.0318951,8.90796395 43,14.9220557 43,21.6450336 Z" fill="#2085FD"></path>
                        <path d="M33,4.38684425 C33,8.88923441 33,12.306166 33,14.636672 C33,15.1947191 32.4289186,15.1798792 32.0868099,14.6556234 C31.6186346,13.9381804 31.081312,13.273705 30.480916,12.668415 C28.1665076,10.2992444 24.9704199,8.83261505 21.427958,8.83261505 C14.3587786,8.83261505 8.6278626,14.6991325 8.6278626,21.9355787 C8.6278626,29.1024493 8.6278626,34.4776024 8.6278626,38.0610378 C8.59768609,38.9286472 8.60382944,39.529019 7.18391553,38.3150164 C2.77185124,34.2980365 0,28.4401434 0,21.9355787 C0,14.7313662 3.38501909,8.34911085 8.6278626,4.35214286 C12.2175573,1.61228577 16.6574427,0.000605137845 21.4751909,0.000605137845 C25.4104111,-0.0292343658 29.0757841,1.04585469 32.2464857,2.91901386 C32.7810106,3.29484214 33,3.50390027 33,4.38684425 Z" fill="#00B356"></path>
                        <path d="M43,30.8461066 C43,35.7730113 43,39.5238903 43,42.0987435 C43,43.5081235 43,43.5081235 41.6329671,43.4986103 C38.5718112,43.3897986 36.5151169,42.3537792 35.1110898,40.7118822 C35.056601,40.6481619 34.986634,40.5230207 35.0022103,40.3921585 C35.0143036,40.2905594 35.0996229,40.1762575 35.1453304,40.1437192 C38.0874849,38.04925 40.5815159,35.081962 42.4193949,30.8518268 C42.6209097,30.3880126 43,30.3793982 43,30.8461066 Z" fill="#FF3B38"></path>
                        <path d="M0,1.39982144 C9.09545291e-17,3.97355322 9.87223601e-17,7.7242481 2.3303493e-17,12.6519061 C1.62610087e-17,13.1120423 0.350425157,13.1184105 0.543290478,12.6566353 C2.09122835,8.95042607 4.41364739,5.70812144 7.90525974,3.16921313 C7.94228176,3.14229276 8.00082491,3.0654624 7.99999119,2.98575968 C7.99924397,2.91432542 7.94296338,2.83995881 7.90994932,2.80745442 C6.22307556,1.1466232 4.10430101,0.103862356 1.34528385,0.00115463669 C0,-0.00720977473 0,-0.00720977473 0,1.39982144 Z" fill="#2085FD"></path>
                    </g>
                </g>
            </g>
        </g>
    </g>
</svg>