<svg width="80" height="80" viewBox="0 0 80 80" fill="none" xmlns="http://www.w3.org/2000/svg">
<rect width="80" height="80" fill="url(#paint0_linear_946_3428)"/>
<path d="M16 60C16 57.7909 17.7909 56 20 56H60C62.2091 56 64 57.7909 64 60C64 62.2091 62.2091 64 60 64H20C17.7909 64 16 62.2091 16 60Z" fill="black" fill-opacity="0.2"/>
<path d="M36.2945 43.2601C36.6563 44.0965 36.8372 44.7006 36.8372 45.0724C36.8372 45.9553 36.0895 46.6988 34.5943 47.3029C33.8225 47.6282 33.1955 47.7909 32.7132 47.7909C32.2549 47.7909 31.8691 47.6863 31.5555 47.4772C31.2661 47.2449 31.0491 47.0125 30.9044 46.7802C30.6632 46.3387 29.7226 44.2359 28.0827 40.4718L26.9612 40.5416H22.4031V44.4799C22.4031 45.0143 22.379 45.4209 22.3307 45.6997C22.3066 45.9553 22.1981 46.2574 22.0052 46.6059C21.6675 47.2332 20.727 47.5469 19.1835 47.5469C17.4953 47.5469 16.5065 47.1171 16.2171 46.2574C16.0724 45.8624 16 45.2583 16 44.445V25.1019C16 24.5675 16.0121 24.1725 16.0362 23.9169C16.0844 23.6381 16.205 23.3244 16.3979 22.9759C16.7356 22.3485 17.6761 22.0349 19.2196 22.0349H27.0336C29.1559 22.0349 31.2179 22.7784 33.2196 24.2654C34.1843 24.9857 34.9802 25.9616 35.6072 27.193C36.2342 28.4245 36.5478 29.7954 36.5478 31.3056C36.5478 33.9312 35.6434 36.092 33.8346 37.7882C34.3652 39.0197 35.1852 40.8436 36.2945 43.2601ZM22.4031 34.3727H27.0336C27.733 34.3727 28.4324 34.1171 29.1318 33.6059C29.8312 33.0947 30.1809 32.328 30.1809 31.3056C30.1809 30.2833 29.8312 29.5165 29.1318 29.0054C28.4324 28.471 27.7089 28.2038 26.9612 28.2038H22.4031V34.3727Z" fill="black" fill-opacity="0.2"/>
<path d="M57.9587 22.9759C58.1998 22.6041 58.5495 22.3485 59.0078 22.2091C59.466 22.0697 60.0327 22 60.708 22C61.4074 22 61.9621 22.0581 62.3721 22.1743C62.7821 22.2904 63.0956 22.4298 63.3127 22.5925C63.5297 22.7551 63.6865 22.9991 63.7829 23.3244C63.9276 23.7194 64 24.3235 64 25.1367V35.6622C64 38.7292 63.0112 41.5174 61.0336 44.0268C60.0689 45.2118 58.8269 46.1761 57.3075 46.9196C55.7881 47.6399 54.0999 48 52.2429 48C50.41 48 48.7339 47.6282 47.2145 46.8847C45.7192 46.1412 44.5013 45.1653 43.5608 43.9571C41.6073 41.4942 40.6305 38.706 40.6305 35.5925V25.1019C40.6305 24.5442 40.6426 24.1376 40.6667 23.882C40.7149 23.6032 40.8355 23.2895 41.0285 22.941C41.2214 22.5925 41.547 22.3485 42.0052 22.2091C42.4634 22.0697 43.0784 22 43.8502 22C44.6219 22 45.2369 22.0697 45.6951 22.2091C46.1533 22.3485 46.4669 22.5925 46.6357 22.941C46.9251 23.4754 47.0698 24.2073 47.0698 25.1367V35.5925C47.0698 37.0098 47.4316 38.3575 48.1551 39.6354C48.5168 40.286 49.0595 40.8088 49.783 41.2038C50.5065 41.5987 51.3626 41.7962 52.3514 41.7962C54.112 41.7962 55.4264 41.1689 56.2946 39.9142C57.1628 38.6595 57.5969 37.2073 57.5969 35.5576V24.8928C57.5969 23.9866 57.7175 23.3476 57.9587 22.9759Z" fill="black" fill-opacity="0.2"/>
<rect x="16" y="55" width="48" height="8" rx="4" fill="url(#paint1_linear_946_3428)"/>
<path d="M36.2945 42.2601C36.6563 43.0965 36.8372 43.7006 36.8372 44.0724C36.8372 44.9553 36.0895 45.6988 34.5943 46.3029C33.8225 46.6282 33.1955 46.7909 32.7132 46.7909C32.2549 46.7909 31.8691 46.6863 31.5555 46.4772C31.2661 46.2449 31.0491 46.0125 30.9044 45.7802C30.6632 45.3387 29.7226 43.2359 28.0827 39.4718L26.9612 39.5416H22.4031V43.4799C22.4031 44.0143 22.379 44.4209 22.3307 44.6997C22.3066 44.9553 22.1981 45.2574 22.0052 45.6059C21.6675 46.2332 20.727 46.5469 19.1835 46.5469C17.4953 46.5469 16.5065 46.1171 16.2171 45.2574C16.0724 44.8624 16 44.2583 16 43.445V24.1019C16 23.5675 16.0121 23.1725 16.0362 22.9169C16.0844 22.6381 16.205 22.3244 16.3979 21.9759C16.7356 21.3485 17.6761 21.0349 19.2196 21.0349H27.0336C29.1559 21.0349 31.2179 21.7784 33.2196 23.2654C34.1843 23.9857 34.9802 24.9616 35.6072 26.193C36.2342 27.4245 36.5478 28.7954 36.5478 30.3056C36.5478 32.9312 35.6434 35.092 33.8346 36.7882C34.3652 38.0197 35.1852 39.8436 36.2945 42.2601ZM22.4031 33.3727H27.0336C27.733 33.3727 28.4324 33.1171 29.1318 32.6059C29.8312 32.0947 30.1809 31.328 30.1809 30.3056C30.1809 29.2833 29.8312 28.5165 29.1318 28.0054C28.4324 27.471 27.7089 27.2038 26.9612 27.2038H22.4031V33.3727Z" fill="url(#paint2_linear_946_3428)"/>
<path d="M57.9587 21.9759C58.1998 21.6041 58.5495 21.3485 59.0078 21.2091C59.466 21.0697 60.0327 21 60.708 21C61.4074 21 61.9621 21.0581 62.3721 21.1743C62.7821 21.2904 63.0956 21.4298 63.3127 21.5925C63.5297 21.7551 63.6865 21.9991 63.7829 22.3244C63.9276 22.7194 64 23.3235 64 24.1367V34.6622C64 37.7292 63.0112 40.5174 61.0336 43.0268C60.0689 44.2118 58.8269 45.1761 57.3075 45.9196C55.7881 46.6399 54.0999 47 52.2429 47C50.41 47 48.7339 46.6282 47.2145 45.8847C45.7192 45.1412 44.5013 44.1653 43.5608 42.9571C41.6073 40.4942 40.6305 37.706 40.6305 34.5925V24.1019C40.6305 23.5442 40.6426 23.1376 40.6667 22.882C40.7149 22.6032 40.8355 22.2895 41.0285 21.941C41.2214 21.5925 41.547 21.3485 42.0052 21.2091C42.4634 21.0697 43.0784 21 43.8502 21C44.6219 21 45.2369 21.0697 45.6951 21.2091C46.1533 21.3485 46.4669 21.5925 46.6357 21.941C46.9251 22.4754 47.0698 23.2073 47.0698 24.1367V34.5925C47.0698 36.0098 47.4316 37.3575 48.1551 38.6354C48.5168 39.286 49.0595 39.8088 49.783 40.2038C50.5065 40.5987 51.3626 40.7962 52.3514 40.7962C54.112 40.7962 55.4264 40.1689 56.2946 38.9142C57.1628 37.6595 57.5969 36.2073 57.5969 34.5576V23.8928C57.5969 22.9866 57.7175 22.3476 57.9587 21.9759Z" fill="url(#paint3_linear_946_3428)"/>
<defs>
<linearGradient id="paint0_linear_946_3428" x1="40" y1="0" x2="40" y2="80" gradientUnits="userSpaceOnUse">
<stop stop-color="#0891B2"/>
<stop offset="1" stop-color="#155E75"/>
</linearGradient>
<linearGradient id="paint1_linear_946_3428" x1="40" y1="55" x2="40" y2="63" gradientUnits="userSpaceOnUse">
<stop stop-color="#FDE68A"/>
<stop offset="1" stop-color="#D97706"/>
</linearGradient>
<linearGradient id="paint2_linear_946_3428" x1="40" y1="21" x2="40" y2="47" gradientUnits="userSpaceOnUse">
<stop stop-color="#F9FAFB"/>
<stop offset="1" stop-color="#9CA3AF"/>
</linearGradient>
<linearGradient id="paint3_linear_946_3428" x1="40" y1="21" x2="40" y2="47" gradientUnits="userSpaceOnUse">
<stop stop-color="#F9FAFB"/>
<stop offset="1" stop-color="#9CA3AF"/>
</linearGradient>
</defs>
</svg>
