<?xml version="1.0" encoding="UTF-8"?>
<svg width="606px" height="606px" viewBox="0 0 606 606" version="1.1" xmlns="http://www.w3.org/2000/svg" xmlns:xlink="http://www.w3.org/1999/xlink">
    <title>Drupal</title>
    <desc>Created with Sketch.</desc>
    <defs>
        <linearGradient x1="50%" y1="0%" x2="50%" y2="100%" id="linearGradient-1">
            <stop stop-color="#FFFFFF" stop-opacity="0.2" offset="0%"></stop>
            <stop stop-color="#000000" stop-opacity="0.2" offset="100%"></stop>
        </linearGradient>
        <path d="M552.268958,552.268958 C600,504.537813 600,431.458333 600,300 C600,168.541667 600,95.4621875 552.268958,47.7310417 C504.537813,0 431.458333,0 300,0 C168.541667,0 95.4621875,0 47.7310417,47.7310417 C0,95.4621875 0,168.541667 0,300 C0,431.458333 0,504.537813 47.7310417,552.268958 C95.4621875,600 168.541667,600 300,600 C431.458333,600 504.537813,600 552.268958,552.268958 Z" id="path-2"></path>
    </defs>
    <g id="Page-1" stroke="none" stroke-width="1" fill="none" fill-rule="evenodd">
        <g id="linkedin" transform="translate(3.000000, 3.000000)">
            <g id="Squircle2-Copy-7">
                <g id="Shape">
                    <use fill="#0678be" xlink:href="#path-2"></use>
                </g>
            </g>
            <g id="In-White-0p5in-R" opacity="0.9" transform="translate(75.000000, 20.000000)" fill="#FFFFFF">
                <g id="Group-5">
                    <path fill="#FFFFFF" d="M319.5 114.7c-22.2-14-43.5-19.5-64.7-33.5-13-8.8-31.3-30-46.5-48.3-2.7 29.3-11.5 41.2-22 49.5-21.3 17-34.8 22.2-53.5 32.3C117 123 32 181.5 32 290.5 32 399.7 123.8 480 225.8 480 327.5 480 416 406 416 294c0-112.3-83-171-96.5-179.3zm2.5 325.6c-20.1 20.1-90.1 28.7-116.7 4.2-4.8-4.8.3-12 6.5-12 0 0 17 13.3 51.5 13.3 27 0 46-7.7 54.5-14 6.1-4.6 8.4 4.3 4.2 8.5zm-54.5-52.6c8.7-3.6 29-3.8 36.8 1.3 4.1 2.8 16.1 18.8 6.2 23.7-8.4 4.2-1.2-15.7-26.5-15.7-14.7 0-19.5 5.2-26.7 11-7 6-9.8 8-12.2 4.7-6-8.2 15.9-22.3 22.4-25zM360 405c-15.2-1-45.5-48.8-65-49.5-30.9-.9-104.1 80.7-161.3 42-38.8-26.6-14.6-104.8 51.8-105.2 49.5-.5 83.8 49 108.5 48.5 21.3-.3 61.8-41.8 81.8-41.8 48.7 0 23.3 109.3-15.8 106z"></path>
                </g>
            </g>
        </g>
    </g>
</svg>
