<svg width="320" height="320" viewBox="0 0 320 320" fill="none" xmlns="http://www.w3.org/2000/svg">
<g clip-path="url(#clip0_937_7103)">
<path d="M160 0C281.326 0 320 38.6737 320 160C320 281.326 281.326 320 160 320C38.6736 320 0 281.326 0 160C0 38.6737 38.6736 0 160 0Z" fill="url(#paint0_linear_937_7103)"/>
<path d="M160 2C220.573 2 259.85 11.6833 284.083 35.9168C308.317 60.1504 318 99.4272 318 160C318 220.573 308.317 259.85 284.083 284.083C259.85 308.317 220.573 318 160 318C99.4272 318 60.1504 308.317 35.9168 284.083C11.6833 259.85 2 220.573 2 160C2 99.4272 11.6833 60.1504 35.9168 35.9168C60.1504 11.6833 99.4272 2 160 2Z" stroke="#F8FAFC" stroke-opacity="0.2" stroke-width="4"/>
<g clip-path="url(#clip1_937_7103)">
<path fill-rule="evenodd" clip-rule="evenodd" d="M135 50C170.471 50 191.812 56.611 203.42 74.229C205.111 76.7944 203.072 80 200 80V80C148.255 80 126.579 94.0693 121.324 135.855C121.012 138.331 118.978 140.257 116.488 140.428C91.0613 142.178 75.8368 149.457 67.7101 165.37C65.5452 169.61 59.344 169.921 58.2702 165.283C56.0034 155.494 55 143.819 55 130C55 69.3368 74.3368 50 135 50Z" fill="url(#paint1_linear_937_7103)"/>
<path fill-rule="evenodd" clip-rule="evenodd" d="M270 160C270 106.92 253.08 90 200 90C156.6 90 137.374 101.311 131.805 134.452C131.311 137.392 133.646 140.006 136.626 140.095C184.499 141.517 200 159.194 200 210C200 216.93 199.712 223.243 199.092 228.983C199.034 229.525 199.455 230 200 230V230C253.08 230 270 213.08 270 160Z" fill="url(#paint2_linear_937_7103)"/>
<path d="M130 150C175.497 150 190 164.503 190 210C190 255.497 175.497 270 130 270C84.5026 270 70 255.497 70 210C70 164.503 84.5026 150 130 150Z" fill="url(#paint3_linear_937_7103)"/>
</g>
</g>
<defs>
<linearGradient id="paint0_linear_937_7103" x1="160" y1="0" x2="160" y2="320" gradientUnits="userSpaceOnUse">
<stop stop-color="#475569"/>
<stop offset="1" stop-color="#1E293B"/>
</linearGradient>
<linearGradient id="paint1_linear_937_7103" x1="129.516" y1="50" x2="129.516" y2="168.656" gradientUnits="userSpaceOnUse">
<stop stop-color="#60A5FA"/>
<stop offset="1" stop-color="#2563EB"/>
</linearGradient>
<linearGradient id="paint2_linear_937_7103" x1="200.869" y1="90" x2="200.869" y2="230" gradientUnits="userSpaceOnUse">
<stop stop-color="#34D399"/>
<stop offset="1" stop-color="#059669"/>
</linearGradient>
<linearGradient id="paint3_linear_937_7103" x1="130" y1="150" x2="130" y2="270" gradientUnits="userSpaceOnUse">
<stop stop-color="#FB7185"/>
<stop offset="1" stop-color="#E11D48"/>
</linearGradient>
<clipPath id="clip0_937_7103">
<rect width="320" height="320" fill="white"/>
</clipPath>
<clipPath id="clip1_937_7103">
<rect width="240" height="240" fill="white" transform="translate(40 40)"/>
</clipPath>
</defs>
</svg>
