<svg width="40" height="40" viewBox="0 0 40 40" fill="none" xmlns="http://www.w3.org/2000/svg">
<path fill-rule="evenodd" clip-rule="evenodd" d="M14.0352 8.7193C14.0352 8.13795 14.5064 7.66667 15.0878 7.66667H20.0001C20.5814 7.66667 21.0527 8.13795 21.0527 8.7193V12.579H27.3685C28.2991 12.579 29.1916 12.9486 29.8496 13.6067C30.5076 14.2647 30.8773 15.1571 30.8773 16.0877V19.9474H32.2808C32.8621 19.9474 33.3334 20.4187 33.3334 21C33.3334 21.5814 32.8621 22.0527 32.2808 22.0527H30.8773V25.9123C30.8773 26.8429 30.5076 27.7354 29.8496 28.3934C29.1916 29.0514 28.2991 29.4211 27.3685 29.4211H15.5238L10.9198 34.0251C10.6188 34.3261 10.166 34.4162 9.7727 34.2532C9.37935 34.0903 9.12289 33.7065 9.12289 33.2807V22.0527H7.71938C7.13803 22.0527 6.66675 21.5814 6.66675 21C6.66675 20.4187 7.13803 19.9474 7.71938 19.9474H9.12289V16.0877C9.12289 15.1571 9.49256 14.2647 10.1506 13.6067C10.8086 12.9486 11.7011 12.579 12.6317 12.579H18.9474V9.77194H15.0878C14.5064 9.77194 14.0352 9.30066 14.0352 8.7193ZM12.6317 14.6842C12.2594 14.6842 11.9024 14.8321 11.6392 15.0953C11.376 15.3585 11.2282 15.7155 11.2282 16.0877V30.7395L14.3435 27.6241C14.5409 27.4267 14.8086 27.3158 15.0878 27.3158H27.3685C27.7407 27.3158 28.0977 27.1679 28.3609 26.9047C28.6241 26.6415 28.772 26.2845 28.772 25.9123V16.0877C28.772 15.7155 28.6241 15.3585 28.3609 15.0953C28.0977 14.8321 27.7407 14.6842 27.3685 14.6842H12.6317ZM16.3159 18.7193C16.8972 18.7193 17.3685 19.1906 17.3685 19.7719V22.2281C17.3685 22.8094 16.8972 23.2807 16.3159 23.2807C15.7345 23.2807 15.2632 22.8094 15.2632 22.2281V19.7719C15.2632 19.1906 15.7345 18.7193 16.3159 18.7193ZM23.6843 18.7193C24.2656 18.7193 24.7369 19.1906 24.7369 19.7719V22.2281C24.7369 22.8094 24.2656 23.2807 23.6843 23.2807C23.1029 23.2807 22.6317 22.8094 22.6317 22.2281V19.7719C22.6317 19.1906 23.1029 18.7193 23.6843 18.7193Z" fill="black" fill-opacity="0.2"/>
<path fill-rule="evenodd" clip-rule="evenodd" d="M14.0352 7.7193C14.0352 7.13795 14.5064 6.66667 15.0878 6.66667H20.0001C20.5814 6.66667 21.0527 7.13795 21.0527 7.7193V11.579H27.3685C28.2991 11.579 29.1916 11.9486 29.8496 12.6067C30.5076 13.2647 30.8773 14.1571 30.8773 15.0877V18.9474H32.2808C32.8621 18.9474 33.3334 19.4187 33.3334 20C33.3334 20.5814 32.8621 21.0527 32.2808 21.0527H30.8773V24.9123C30.8773 25.8429 30.5076 26.7354 29.8496 27.3934C29.1916 28.0514 28.2991 28.4211 27.3685 28.4211H15.5238L10.9198 33.0251C10.6188 33.3261 10.166 33.4162 9.7727 33.2532C9.37935 33.0903 9.12289 32.7065 9.12289 32.2807V21.0527H7.71938C7.13803 21.0527 6.66675 20.5814 6.66675 20C6.66675 19.4187 7.13803 18.9474 7.71938 18.9474H9.12289V15.0877C9.12289 14.1571 9.49256 13.2647 10.1506 12.6067C10.8086 11.9486 11.7011 11.579 12.6317 11.579H18.9474V8.77194H15.0878C14.5064 8.77194 14.0352 8.30066 14.0352 7.7193ZM12.6317 13.6842C12.2594 13.6842 11.9024 13.8321 11.6392 14.0953C11.376 14.3585 11.2282 14.7155 11.2282 15.0877V29.7395L14.3435 26.6241C14.5409 26.4267 14.8086 26.3158 15.0878 26.3158H27.3685C27.7407 26.3158 28.0977 26.1679 28.3609 25.9047C28.6241 25.6415 28.772 25.2845 28.772 24.9123V15.0877C28.772 14.7155 28.6241 14.3585 28.3609 14.0953C28.0977 13.8321 27.7407 13.6842 27.3685 13.6842H12.6317ZM16.3159 17.7193C16.8972 17.7193 17.3685 18.1906 17.3685 18.7719V21.2281C17.3685 21.8094 16.8972 22.2807 16.3159 22.2807C15.7345 22.2807 15.2632 21.8094 15.2632 21.2281V18.7719C15.2632 18.1906 15.7345 17.7193 16.3159 17.7193ZM23.6843 17.7193C24.2656 17.7193 24.7369 18.1906 24.7369 18.7719V21.2281C24.7369 21.8094 24.2656 22.2807 23.6843 22.2807C23.1029 22.2807 22.6317 21.8094 22.6317 21.2281V18.7719C22.6317 18.1906 23.1029 17.7193 23.6843 17.7193Z" fill="url(#paint1_linear_1640_8256)"/>
<defs>
<linearGradient id="paint0_linear_1640_8256" x1="20" y1="0" x2="20" y2="40" gradientUnits="userSpaceOnUse">
<stop stop-color="#6B7280"/>
<stop offset="1" stop-color="#1F2937"/>
</linearGradient>
<linearGradient id="paint1_linear_1640_8256" x1="20.0001" y1="6.66667" x2="20.0001" y2="33.3334" gradientUnits="userSpaceOnUse">
<stop stop-color="#F9FAFB"/>
<stop offset="1" stop-color="#9CA3AF"/>
</linearGradient>
</defs>
</svg>
