<svg width="320" height="320" viewBox="0 0 320 320" fill="none" xmlns="http://www.w3.org/2000/svg">
<g clip-path="url(#clip0_887_10401)">
<path d="M160 0C281.326 0 320 38.6737 320 160C320 281.326 281.326 320 160 320C38.6736 320 0 281.326 0 160C0 38.6737 38.6736 0 160 0Z" fill="url(#paint0_linear_887_10401)"/>
<path d="M160 2C220.573 2 259.85 11.6833 284.083 35.9168C308.317 60.1504 318 99.4272 318 160C318 220.573 308.317 259.85 284.083 284.083C259.85 308.317 220.573 318 160 318C99.4272 318 60.1504 308.317 35.9168 284.083C11.6833 259.85 2 220.573 2 160C2 99.4272 11.6833 60.1504 35.9168 35.9168C60.1504 11.6833 99.4272 2 160 2Z" stroke="#F8FAFC" stroke-opacity="0.2" stroke-width="4"/>
<g clip-path="url(#clip1_887_10401)">
<path fill-rule="evenodd" clip-rule="evenodd" d="M110 60C131.249 60 144.385 63.796 151.828 73.8074C153.495 76.0505 153.612 79.0028 152.904 81.7066C150.885 89.4118 150 98.7601 150 110C150 112.683 150.05 115.258 150.155 117.729C150.362 122.636 147.188 127.049 142.904 129.452C134.852 133.968 128.767 141.576 126.258 150.667C124.939 155.445 121.364 159.664 116.412 159.872C114.361 159.958 112.225 160 110 160C72.0855 160 60 147.914 60 110C60 72.0855 72.0855 60 110 60Z" fill="url(#paint1_linear_887_10401)"/>
<path fill-rule="evenodd" clip-rule="evenodd" d="M210 60C247.914 60 260 72.0855 260 110C260 131.249 256.204 144.385 246.193 151.828C243.95 153.495 240.997 153.612 238.293 152.904C230.588 150.885 221.24 150 210 150C207.317 150 204.742 150.05 202.271 150.155C197.364 150.362 192.951 147.188 190.548 142.904C186.032 134.852 178.424 128.767 169.333 126.258C164.555 124.939 160.336 121.364 160.128 116.412C160.042 114.361 160 112.225 160 110C160 72.0855 172.086 60 210 60Z" fill="url(#paint2_linear_887_10401)"/>
<path fill-rule="evenodd" clip-rule="evenodd" d="M177.096 190.548C172.812 192.951 169.638 197.364 169.845 202.271C169.95 204.742 170 207.317 170 210C170 221.24 169.115 230.588 167.096 238.293C166.388 240.997 166.505 243.95 168.172 246.193C175.615 256.204 188.751 260 210 260C247.915 260 260 247.914 260 210C260 172.086 247.915 160 210 160C207.775 160 205.639 160.042 203.589 160.128C198.636 160.335 195.061 164.555 193.742 169.333C191.233 178.424 185.148 186.032 177.096 190.548Z" fill="url(#paint3_linear_887_10401)"/>
<path fill-rule="evenodd" clip-rule="evenodd" d="M129.452 177.096C127.049 172.812 122.636 169.638 117.729 169.845C115.258 169.95 112.683 170 110 170C98.7601 170 89.4118 169.115 81.7066 167.096C79.0028 166.388 76.0505 166.505 73.8074 168.172C63.796 175.615 60 188.751 60 210C60 247.915 72.0855 260 110 260C147.914 260 160 247.915 160 210C160 207.775 159.958 205.639 159.872 203.589C159.664 198.636 155.445 195.061 150.667 193.742C141.576 191.233 133.968 185.148 129.452 177.096Z" fill="url(#paint4_linear_887_10401)"/>
<circle cx="160" cy="160" r="25" fill="url(#paint5_linear_887_10401)"/>
</g>
</g>
<defs>
<linearGradient id="paint0_linear_887_10401" x1="160" y1="0" x2="160" y2="320" gradientUnits="userSpaceOnUse">
<stop stop-color="#475569"/>
<stop offset="1" stop-color="#1E293B"/>
</linearGradient>
<linearGradient id="paint1_linear_887_10401" x1="106.657" y1="60" x2="106.657" y2="160" gradientUnits="userSpaceOnUse">
<stop stop-color="#FACC15"/>
<stop offset="1" stop-color="#CA8A04"/>
</linearGradient>
<linearGradient id="paint2_linear_887_10401" x1="210" y1="60" x2="210" y2="153.315" gradientUnits="userSpaceOnUse">
<stop stop-color="#7DD3FC"/>
<stop offset="1" stop-color="#0EA5E9"/>
</linearGradient>
<linearGradient id="paint3_linear_887_10401" x1="213.343" y1="160" x2="213.343" y2="260" gradientUnits="userSpaceOnUse">
<stop stop-color="#2DD4BF"/>
<stop offset="1" stop-color="#0D9488"/>
</linearGradient>
<linearGradient id="paint4_linear_887_10401" x1="110" y1="166.686" x2="110" y2="260" gradientUnits="userSpaceOnUse">
<stop stop-color="#FB7185"/>
<stop offset="1" stop-color="#E11D48"/>
</linearGradient>
<linearGradient id="paint5_linear_887_10401" x1="160" y1="135" x2="160" y2="185" gradientUnits="userSpaceOnUse">
<stop stop-color="#FB923C"/>
<stop offset="1" stop-color="#EA580C"/>
</linearGradient>
<clipPath id="clip0_887_10401">
<rect width="320" height="320" fill="white"/>
</clipPath>
<clipPath id="clip1_887_10401">
<rect width="240" height="240" fill="white" transform="translate(40 40)"/>
</clipPath>
</defs>
</svg>
