<svg width="80" height="80" viewBox="0 0 80 80" fill="none" xmlns="http://www.w3.org/2000/svg">
<rect width="80" height="80" fill="url(#paint0_linear_961_1833)"/>
<path d="M18 48.8V46.0978C18 45.8026 18.3529 45.6414 18.5865 45.8219C20.97 47.6637 23.8266 48.363 26.9326 48.6857C27.9319 48.7895 29.019 48.859 30.1958 48.9056C30.7033 48.9257 31.11 49.3199 31.1976 49.8201C31.3123 50.4749 31.4936 51.0045 31.7801 51.4721C32.2166 52.1844 32.8155 52.7833 33.5279 53.2199C34.8009 54 36.5341 54 40 54C43.4659 54 45.1991 54 46.4721 53.2199C47.1845 52.7833 47.7834 52.1844 48.2199 51.4721C48.5064 51.0045 48.6877 50.4749 48.8024 49.8201C48.89 49.3199 49.2967 48.9257 49.8042 48.9056C50.981 48.859 52.0682 48.7895 53.0675 48.6857C56.1735 48.363 59.03 47.6637 61.4134 45.822C61.647 45.6415 62 45.8027 62 46.098V48.8C62 55.9653 62 59.5481 58.9677 61.774C55.9353 64 51.055 64 41.2941 64H38.7059C28.945 64 24.0646 64 21.0323 61.774C18 59.5481 18 55.9653 18 48.8Z" fill="black" fill-opacity="0.2"/>
<path d="M48.9989 43.8989C49.0007 44.4635 49.4683 44.9182 50.0323 44.8928C54.3093 44.7003 57.0198 44.162 58.9677 42.6568C61.0112 41.0778 61.6776 38.8502 61.8949 35.2568C61.6777 31.8427 61.0113 29.7262 58.9677 28.226C55.9353 26 51.055 26 41.2941 26H38.7059C28.945 26 24.0646 26 21.0323 28.226C18.9888 29.7261 18.3224 31.8424 18.1051 35.256C18.3224 38.8498 18.9887 41.0777 21.0324 42.6568C22.9802 44.162 25.6908 44.7003 29.9677 44.8928C30.5317 44.9182 30.9993 44.4635 31.0011 43.8989C31.0098 41.1516 31.0874 39.6584 31.7801 38.5279C32.2166 37.8156 32.8155 37.2167 33.5279 36.7801C34.8009 36 36.5341 36 40 36C43.4659 36 45.1991 36 46.4721 36.7801C47.1845 37.2167 47.7834 37.8156 48.2199 38.5279C48.9126 39.6584 48.9902 41.1516 48.9989 43.8989Z" fill="black" fill-opacity="0.2"/>
<path d="M34 45C34 42.6893 34 41.534 34.5201 40.6853C34.8111 40.2104 35.2104 39.8111 35.6852 39.5201C36.5339 39 37.6894 39 40 39C42.3106 39 43.466 39 44.3147 39.5201C44.7896 39.8111 45.1889 40.2104 45.4799 40.6853C46 41.534 46 42.6893 46 45C46 47.3107 46 48.466 45.4799 49.3147C45.1889 49.7896 44.7896 50.1889 44.3147 50.4799C43.466 51 42.3106 51 40 51C37.6894 51 36.5339 51 35.6852 50.4799C35.2104 50.1889 34.8111 49.7896 34.5201 49.3147C34 48.466 34 47.3107 34 45Z" fill="black" fill-opacity="0.2"/>
<path d="M31.7801 16.6853C31 17.534 31 18.6893 31 21C31 21.0159 31 21.0318 31 21.0476C31 21.6078 31.4635 22.0533 32.0235 22.0413C33.9561 22 36.1657 22 38.7059 22H41.2941C43.8343 22 46.0439 22 47.9765 22.0413C48.5365 22.0533 49 21.6078 49 21.0476C49 21.0318 49 21.0159 49 21C49 18.6893 49 17.534 48.2199 16.6853C47.7834 16.2104 47.1845 15.8111 46.4721 15.5201C45.1991 15 43.4659 15 40 15C36.5341 15 34.8009 15 33.5279 15.5201C32.8155 15.8111 32.2166 16.2104 31.7801 16.6853Z" fill="black" fill-opacity="0.2"/>
<path fill-rule="evenodd" clip-rule="evenodd" d="M18 47.8V45.0978C18 44.8026 18.3529 44.6414 18.5865 44.8219C20.97 46.6637 23.8266 47.363 26.9326 47.6857C27.9319 47.7895 29.019 47.859 30.1958 47.9056C30.7033 47.9257 31.11 48.3199 31.1976 48.8201C31.3123 49.4749 31.4936 50.0045 31.7801 50.4721C32.2166 51.1844 32.8155 51.7833 33.5279 52.2199C34.8009 53 36.5341 53 40 53C43.4659 53 45.1991 53 46.4721 52.2199C47.1845 51.7833 47.7834 51.1844 48.2199 50.4721C48.5064 50.0045 48.6877 49.4749 48.8024 48.8201C48.89 48.3199 49.2967 47.9257 49.8042 47.9056C50.981 47.859 52.0682 47.7895 53.0675 47.6857C56.1735 47.363 59.03 46.6637 61.4134 44.822C61.647 44.6415 62 44.8027 62 45.098V47.8C62 54.9653 62 58.5481 58.9677 60.774C55.9353 63 51.055 63 41.2941 63H38.7059C28.945 63 24.0646 63 21.0323 60.774C18 58.5481 18 54.9653 18 47.8ZM48.9989 42.8989C49.0007 43.4635 49.4683 43.9182 50.0323 43.8928C54.3093 43.7003 57.0198 43.162 58.9677 41.6568C61.0112 40.0778 61.6776 37.8502 61.8949 34.2568C61.6777 30.8427 61.0113 28.7262 58.9677 27.226C55.9353 25 51.055 25 41.2941 25H38.7059C28.945 25 24.0646 25 21.0323 27.226C18.9888 28.7261 18.3224 30.8424 18.1051 34.256C18.3224 37.8498 18.9887 40.0777 21.0324 41.6568C22.9802 43.162 25.6908 43.7003 29.9677 43.8928C30.5317 43.9182 30.9993 43.4635 31.0011 42.8989C31.0098 40.1516 31.0874 38.6584 31.7801 37.5279C32.2166 36.8156 32.8155 36.2167 33.5279 35.7801C34.8009 35 36.5341 35 40 35C43.4659 35 45.1991 35 46.4721 35.7801C47.1845 36.2167 47.7834 36.8156 48.2199 37.5279C48.9126 38.6584 48.9902 40.1516 48.9989 42.8989Z" fill="url(#paint1_linear_961_1833)"/>
<path d="M34 44C34 41.6893 34 40.534 34.52 39.6853C34.811 39.2104 35.2103 38.8111 35.6852 38.5201C36.5339 38 37.6894 38 40 38C42.3106 38 43.466 38 44.3147 38.5201C44.7896 38.8111 45.1889 39.2104 45.4799 39.6853C46 40.534 46 41.6893 46 44C46 46.3107 46 47.466 45.4799 48.3147C45.1889 48.7896 44.7896 49.1889 44.3147 49.4799C43.466 50 42.3106 50 40 50C37.6894 50 36.5339 50 35.6852 49.4799C35.2103 49.1889 34.811 48.7896 34.52 48.3147C34 47.466 34 46.3107 34 44Z" fill="url(#paint2_linear_961_1833)"/>
<path fill-rule="evenodd" clip-rule="evenodd" d="M31.7801 15.6853C31 16.534 31 17.6893 31 20C31 20.5863 31.485 21.0526 32.0711 21.0403C33.9924 21 36.1866 21 38.7059 21H41.2941C43.8134 21 46.0076 21 47.9289 21.0403C48.515 21.0526 49 20.5863 49 20C49 17.6893 49 16.534 48.2199 15.6853C47.7834 15.2104 47.1845 14.8111 46.4721 14.5201C45.1991 14 43.4659 14 40 14C36.5341 14 34.8009 14 33.5279 14.5201C32.8155 14.8111 32.2166 15.2104 31.7801 15.6853Z" fill="url(#paint3_linear_961_1833)"/>
<defs>
<linearGradient id="paint0_linear_961_1833" x1="40" y1="0" x2="40" y2="80" gradientUnits="userSpaceOnUse">
<stop stop-color="#DB2777"/>
<stop offset="1" stop-color="#881337"/>
</linearGradient>
<linearGradient id="paint1_linear_961_1833" x1="40" y1="25" x2="40" y2="63" gradientUnits="userSpaceOnUse">
<stop stop-color="#F9FAFB"/>
<stop offset="1" stop-color="#9CA3AF"/>
</linearGradient>
<linearGradient id="paint2_linear_961_1833" x1="40" y1="38" x2="40" y2="50" gradientUnits="userSpaceOnUse">
<stop stop-color="#FDE68A"/>
<stop offset="1" stop-color="#D97706"/>
</linearGradient>
<linearGradient id="paint3_linear_961_1833" x1="40" y1="14" x2="40" y2="21.0405" gradientUnits="userSpaceOnUse">
<stop stop-color="#F9FAFB"/>
<stop offset="1" stop-color="#9CA3AF"/>
</linearGradient>
</defs>
</svg>
