<svg width="320" height="320" viewBox="0 0 320 320" fill="none" xmlns="http://www.w3.org/2000/svg">
<g clip-path="url(#clip0_848_6213)">
<path d="M160 0C281.326 0 320 38.6737 320 160C320 281.326 281.326 320 160 320C38.6736 320 0 281.326 0 160C0 38.6737 38.6736 0 160 0Z" fill="url(#paint0_linear_848_6213)"/>
<path d="M160 2C220.573 2 259.85 11.6833 284.083 35.9168C308.317 60.1504 318 99.4272 318 160C318 220.573 308.317 259.85 284.083 284.083C259.85 308.317 220.573 318 160 318C99.4272 318 60.1504 308.317 35.9168 284.083C11.6833 259.85 2 220.573 2 160C2 99.4272 11.6833 60.1504 35.9168 35.9168C60.1504 11.6833 99.4272 2 160 2Z" stroke="#F8FAFC" stroke-opacity="0.2" stroke-width="4"/>
<g clip-path="url(#clip1_848_6213)">
<path d="M98.4473 143.769C98.5537 143.849 98.6656 143.937 98.7829 144.033C99.1523 144.336 99.4801 144.685 99.7843 145.054C101.087 146.631 102.35 148.221 103.574 149.824C104.974 151.582 106.357 153.372 107.725 155.195C108.115 155.781 108.311 156.285 108.311 156.709C108.311 157.164 108.115 157.539 107.725 157.832C107.367 158.092 106.862 158.255 106.211 158.32C104.258 158.418 102.305 158.548 100.352 158.711C98.3984 158.841 96.4453 159.036 94.4922 159.296H94.0039C92.7344 159.296 92.0996 158.694 92.0996 157.49V157.05C92.0996 156.92 92.1322 156.774 92.1973 156.611C92.8158 154.658 93.418 152.754 94.0039 150.898C94.6224 149.01 95.2572 147.106 95.9082 145.185C96.2337 144.046 96.8034 143.476 97.6172 143.476C97.9102 143.476 98.1868 143.574 98.4473 143.769Z" fill="url(#paint1_linear_848_6213)"/>
<path fill-rule="evenodd" clip-rule="evenodd" d="M155 80.1372C155 74.5714 150.418 70.0591 144.856 70.2666C73.3331 72.9356 50 96.0674 50 160C50 223.932 73.3331 247.064 144.856 249.733C150.418 249.94 155 245.428 155 239.862V80.1372ZM74.8145 169.453C75.1074 170.006 75.5306 170.283 76.084 170.283H76.7188C77.5 170.283 77.8906 170.787 77.8906 171.796C77.8906 171.992 77.8743 172.203 77.8418 172.431C77.8092 172.627 77.7604 172.854 77.6953 173.115C77.5 173.766 77.3047 174.433 77.1094 175.117C76.9466 175.8 76.7839 176.468 76.6211 177.119C76.556 177.379 76.5072 177.623 76.4746 177.851C76.4421 178.079 76.4258 178.291 76.4258 178.486C76.4258 179.43 76.7025 180.195 77.2559 180.781C77.8418 181.367 78.6882 181.709 79.7949 181.806L81.3086 182.002H82.0898C84.1081 182.002 85.4102 180.927 85.9961 178.779L88.1934 170.722C88.5514 169.355 89.4303 168.606 90.8301 168.476C94.7363 168.086 98.6263 167.76 102.5 167.5C106.406 167.207 110.345 166.979 114.316 166.816C115.553 166.816 116.546 167.337 117.295 168.379C118.923 170.494 120.518 172.627 122.08 174.775C123.675 176.923 125.254 179.104 126.816 181.318C127.272 181.904 127.744 182.36 128.232 182.685C128.753 183.043 129.307 183.222 129.893 183.222C130.316 183.222 130.723 183.141 131.113 182.978C131.536 182.815 131.976 182.588 132.432 182.295L134.287 180.976C135.622 180.097 136.289 179.072 136.289 177.9C136.289 177.119 135.996 176.289 135.41 175.41L130.186 168.281C129.73 167.565 129.502 166.865 129.502 166.181C129.502 165.986 129.518 165.791 129.551 165.595C129.583 165.4 129.632 165.172 129.697 164.912L130.625 162.177C130.723 161.917 130.771 161.657 130.771 161.396C130.804 161.136 130.82 160.908 130.82 160.713C130.82 159.769 130.495 159.036 129.844 158.515C129.225 157.962 128.346 157.685 127.207 157.685H124.424C123.773 157.685 123.203 157.571 122.715 157.343C122.259 157.083 121.82 156.709 121.396 156.22C118.564 152.379 116.139 149.108 114.121 146.406C112.103 143.671 110.329 141.344 108.799 139.423C107.269 137.503 105.885 135.924 104.648 134.687C103.411 133.45 102.158 132.392 100.889 131.513C99.9447 130.895 98.9844 130.586 98.0078 130.586C97.2591 130.586 96.4941 130.699 95.7129 130.927C94.9642 131.123 94.248 131.399 93.5645 131.757C92.9134 132.083 92.3275 132.457 91.8066 132.88C91.2858 133.304 90.8789 133.711 90.5859 134.101C89.9023 135.045 89.2839 136.087 88.7305 137.226C88.2096 138.366 87.7376 139.521 87.3145 140.693C86.9238 141.865 86.5495 143.053 86.1914 144.257C85.8659 145.429 85.5404 146.536 85.2148 147.578C84.5964 149.433 84.0104 151.305 83.457 153.193C82.9036 155.081 82.3503 156.953 81.7969 158.808C81.6016 159.492 81.2923 160.029 80.8691 160.42C80.446 160.778 79.86 161.005 79.1113 161.103L77.9883 161.201C75.7747 161.591 74.6191 162.959 74.5215 165.302C74.4564 165.921 74.4238 166.344 74.4238 166.572V167.109C74.4238 168.118 74.554 168.899 74.8145 169.453Z" fill="url(#paint2_linear_848_6213)"/>
<path fill-rule="evenodd" clip-rule="evenodd" d="M165 239.862C165 245.428 169.582 249.94 175.144 249.733C246.667 247.064 270 223.932 270 160C270 96.0675 246.667 72.9356 175.144 70.2667C169.582 70.0591 165 74.5713 165 80.1372V239.862ZM191.816 158.22C190.677 158.22 189.766 157.96 189.082 157.439C188.431 156.886 188.105 156.104 188.105 155.095C188.105 154.9 188.122 154.705 188.154 154.509C188.219 154.282 188.285 154.037 188.35 153.777L188.643 152.703C189.131 150.457 190.563 149.285 192.939 149.187C195.348 149.122 197.741 149.073 200.117 149.041C202.493 149.008 204.87 148.992 207.246 148.992H210.469C211.543 148.992 212.601 149.024 213.643 149.089C214.847 149.089 215.872 148.666 216.719 147.82L219.551 144.793C220.039 144.304 220.381 143.816 220.576 143.328C220.804 142.839 220.918 142.367 220.918 141.912C220.918 141.293 220.69 140.772 220.234 140.349C219.811 139.926 219.176 139.682 218.33 139.617C212.796 139.617 208.109 139.649 204.268 139.714C200.459 139.78 197.546 139.812 195.527 139.812C193.053 139.812 191.816 138.77 191.816 136.687C191.816 136.492 191.833 136.28 191.865 136.052C191.898 135.824 191.947 135.58 192.012 135.32L192.305 134.295C192.826 131.951 194.307 130.779 196.748 130.779L204.268 130.584C206.774 130.518 209.297 130.486 211.836 130.486C214.277 130.486 216.458 130.518 218.379 130.584C220.299 130.616 222.025 130.73 223.555 130.925C225.117 131.121 226.517 131.397 227.754 131.755C228.991 132.114 230.179 132.602 231.318 133.22C232.132 133.676 232.734 134.116 233.125 134.539C233.548 134.929 233.89 135.352 234.15 135.808C234.313 136.101 234.443 136.41 234.541 136.736C234.671 137.029 234.736 137.387 234.736 137.81C234.736 138.429 234.606 139.063 234.346 139.714C234.053 140.528 233.613 141.358 233.027 142.205C232.474 143.051 231.839 143.881 231.123 144.695C230.439 145.476 229.723 146.241 228.975 146.99C228.258 147.739 227.607 148.438 227.021 149.089C226.956 149.155 226.924 149.252 226.924 149.382C226.924 149.708 227.184 149.968 227.705 150.164C228.226 150.326 228.926 150.44 229.805 150.505C232.181 150.701 234.525 150.929 236.836 151.189C239.147 151.417 241.475 151.694 243.818 152.019C244.827 152.117 245.609 152.426 246.162 152.947C246.748 153.435 247.041 154.086 247.041 154.9C247.041 155.519 246.862 156.186 246.504 156.902L246.348 157.213C246.257 157.396 246.181 157.574 246.121 157.769C246.05 157.996 245.967 158.232 245.855 158.442C244.947 160.15 243.633 161.004 241.914 161.004C241.816 161.004 241.702 160.987 241.572 160.955C241.286 160.883 240.986 160.885 240.694 160.844C238.987 160.609 237.116 160.402 235.078 160.222C232.897 159.994 230.749 159.799 228.633 159.636C226.549 159.474 224.629 159.343 222.871 159.246C221.146 159.148 219.827 159.099 218.916 159.099C217.907 159.099 217.012 159.506 216.23 160.32C214.896 161.752 213.675 163.119 212.568 164.421C211.494 165.691 210.387 167.123 209.248 168.718C208.923 169.174 208.662 169.597 208.467 169.988C208.304 170.379 208.223 170.785 208.223 171.209C208.223 171.892 208.483 172.494 209.004 173.015C209.557 173.504 210.306 173.796 211.25 173.894C214.049 174.252 216.93 174.464 219.893 174.529C222.887 174.561 225.964 174.578 229.121 174.578C230.033 174.578 230.96 174.561 231.904 174.529C232.848 174.496 233.792 174.448 234.736 174.382C237.275 174.187 238.545 173.357 238.545 171.892C238.545 171.241 238.805 170.72 239.326 170.33C239.88 169.907 240.677 169.695 241.719 169.695C242.435 169.695 243.346 169.825 244.453 170.086C245.56 170.313 246.618 170.671 247.627 171.16C248.636 171.648 249.499 172.25 250.215 172.966C250.964 173.683 251.338 174.496 251.338 175.408C251.338 176.124 251.126 176.824 250.703 177.507C250.28 178.191 249.727 178.826 249.043 179.412C248.359 179.965 247.611 180.453 246.797 180.877C245.983 181.267 245.186 181.544 244.404 181.707C241.605 182.293 238.333 182.748 234.59 183.074C230.879 183.432 227.087 183.611 223.213 183.611C220.186 183.611 217.288 183.513 214.521 183.318C211.755 183.155 209.297 182.911 207.148 182.586C205.977 182.423 204.788 182.227 203.584 182C202.38 181.739 201.257 181.365 200.215 180.877C199.206 180.388 198.327 179.737 197.578 178.923C196.903 178.19 196.44 177.245 196.188 176.089C196.133 175.832 196.148 175.56 196.064 175.31C196.032 175.213 196.016 175.082 196.016 174.92C196.016 173.91 196.276 172.804 196.797 171.599C197.318 170.362 197.985 169.125 198.799 167.888C199.613 166.651 200.492 165.447 201.436 164.275C202.412 163.071 203.34 161.98 204.219 161.004C204.772 160.352 205.049 159.783 205.049 159.295C205.049 158.904 204.854 158.595 204.463 158.367C204.072 158.106 203.519 157.976 202.803 157.976L191.816 158.22Z" fill="url(#paint3_linear_848_6213)"/>
</g>
</g>
<defs>
<linearGradient id="paint0_linear_848_6213" x1="160" y1="0" x2="160" y2="320" gradientUnits="userSpaceOnUse">
<stop stop-color="#475569"/>
<stop offset="1" stop-color="#1E293B"/>
</linearGradient>
<linearGradient id="paint1_linear_848_6213" x1="102.5" y1="70.2598" x2="102.5" y2="249.74" gradientUnits="userSpaceOnUse">
<stop stop-color="#2DD4BF"/>
<stop offset="1" stop-color="#0D9488"/>
</linearGradient>
<linearGradient id="paint2_linear_848_6213" x1="102.5" y1="70.2598" x2="102.5" y2="249.74" gradientUnits="userSpaceOnUse">
<stop stop-color="#2DD4BF"/>
<stop offset="1" stop-color="#0D9488"/>
</linearGradient>
<linearGradient id="paint3_linear_848_6213" x1="217.5" y1="70.2598" x2="217.5" y2="249.74" gradientUnits="userSpaceOnUse">
<stop stop-color="#7DD3FC"/>
<stop offset="1" stop-color="#0EA5E9"/>
</linearGradient>
<clipPath id="clip0_848_6213">
<rect width="320" height="320" fill="white"/>
</clipPath>
<clipPath id="clip1_848_6213">
<rect width="240" height="240" fill="white" transform="translate(40 40)"/>
</clipPath>
</defs>
</svg>
