<?xml version="1.0"?>
<svg width="600" height="600" xmlns="http://www.w3.org/2000/svg" xmlns:svg="http://www.w3.org/2000/svg" xmlns:xlink="http://www.w3.org/1999/xlink">
 <!-- Generator: Sketch 40.3 (33839) - http://www.bohemiancoding.com/sketch -->
 <title>Group 2 Copy 4</title>
 <desc>Created with Sketch.</desc>
 <defs>
  <linearGradient id="linearGradient-1" y2="100%" x2="50%" y1="0%" x1="50%">
   <stop offset="0%" stop-opacity="0.2" stop-color="#FFFFFF"/>
   <stop offset="100%" stop-opacity="0.13887" stop-color="#000000"/>
  </linearGradient>
  <path id="path-2" d="m285,135.71429c22.47768,0 40.71429,-18.23661 40.71429,-40.71429c0,-22.47768 -18.23661,-40.71429 -40.71429,-40.71429c-22.47768,0 -40.71429,18.23661 -40.71429,40.71429c0,22.47768 18.23661,40.71429 40.71429,40.71429l0,0z"/>
  <path id="path-5" d="m356.25,0l-332.5,0c-13.23214,0 -23.75,10.77232 -23.75,24.00446l0,277.70536c0,13.23214 10.51786,24.00447 23.75,24.00447l332.5,0c13.23214,0 23.75,-10.77233 23.75,-24.00447l0,-277.70536c0,-13.23214 -10.51786,-24.00446 -23.75,-24.00446l0,0zm-87.45089,167.69196c-2.54465,-2.96875 -6.44643,-5.25892 -10.85715,-5.25892c-4.32589,0 -7.37946,2.03571 -10.85714,4.83482l-15.86161,13.40178c-3.30803,2.375 -5.9375,3.98661 -9.75446,3.98661c-3.64732,0 -6.95536,-1.35714 -9.33036,-3.47768c-0.84821,-0.76339 -2.375,-2.20536 -3.64732,-3.47768l-45.63393,-49.36607c-3.39285,-3.90178 -8.48214,-6.36161 -14.16518,-6.36161c-5.68303,0 -10.94196,2.79911 -14.25,6.61608l-107.2991,129.4375l0,-220.95983c0.84821,-5.76785 5.34375,-9.9241 11.1116,-9.9241l303.40625,0c5.85268,0 10.60268,4.32589 10.94197,10.17857l0.25446,220.875l-84.05803,-90.50447l0,0z"/>
  <symbol viewBox="0 0 1792 1792" id="svg_23" xmlns="http://www.w3.org/2000/svg">
   <path id="svg_26" d="m1703,478q40,57 18,129l-275,906q-19,64 -76.5,107.5t-122.5,43.5l-923,0q-77,0 -148.5,-53.5t-99.5,-131.5q-24,-67 -2,-127q0,-4 3,-27t4,-37q1,-8 -3,-21.5t-3,-19.5q2,-11 8,-21t16.5,-23.5t16.5,-23.5q23,-38 45,-91.5t30,-91.5q3,-10 0.5,-30t-0.5,-28q3,-11 17,-28t17,-23q21,-36 42,-92t25,-90q1,-9 -2.5,-32t0.5,-28q4,-13 22,-30.5t22,-22.5q19,-26 42.5,-84.5t27.5,-96.5q1,-8 -3,-25.5t-2,-26.5q2,-8 9,-18t18,-23t17,-21q8,-12 16.5,-30.5t15,-35t16,-36t19.5,-32t26.5,-23.5t36,-11.5t47.5,5.5l-1,3q38,-9 51,-9l761,0q74,0 114,56t18,130l-274,906q-36,119 -71.5,153.5t-128.5,34.5l-869,0q-27,0 -38,15q-11,16 -1,43q24,70 144,70l923,0q29,0 56,-15.5t35,-41.5l300,-987q7,-22 5,-57q38,15 59,43zm-1064,2q-4,13 2,22.5t20,9.5l608,0q13,0 25.5,-9.5t16.5,-22.5l21,-64q4,-13 -2,-22.5t-20,-9.5l-608,0q-13,0 -25.5,9.5t-16.5,22.5l-21,64zm-83,256q-4,13 2,22.5t20,9.5l608,0q13,0 25.5,-9.5t16.5,-22.5l21,-64q4,-13 -2,-22.5t-20,-9.5l-608,0q-13,0 -25.5,9.5t-16.5,22.5l-21,64z" fill="#fff"/>
  </symbol>
 </defs>
 <g class="layer">
  <title>Layer 1</title>
  <path fill="#2BAF92" id="path" d="m552.26896,552.26896c47.73104,-47.73115 47.73104,-120.81063 47.73104,-252.26896c0,-131.45833 0,-204.53781 -47.73104,-252.26896c-47.73115,-47.73104 -120.81063,-47.73104 -252.26896,-47.73104c-131.45833,0 -204.53781,0 -252.26896,47.73104c-47.73104,47.73115 -47.73104,120.81063 -47.73104,252.26896c0,131.45833 0,204.53781 47.73104,252.26896c47.73115,47.73104 120.81063,47.73104 252.26896,47.73104c131.45833,0 204.53781,0 252.26896,-47.73104l0,0z"/>
  <path fill="url(#linearGradient-1)" id="path-copy" d="m552.26896,552.26896c47.73104,-47.73115 47.73104,-120.81063 47.73104,-252.26896c0,-131.45833 0,-204.53781 -47.73104,-252.26896c-47.73115,-47.73104 -120.81063,-47.73104 -252.26896,-47.73104c-131.45833,0 -204.53781,0 -252.26896,47.73104c-47.73104,47.73115 -47.73104,120.81063 -47.73104,252.26896c0,131.45833 0,204.53781 47.73104,252.26896c47.73115,47.73104 120.81063,47.73104 252.26896,47.73104c131.45833,0 204.53781,0 252.26896,-47.73104l0,0z"/>
  <g id="svg_8"/>
  <g id="svg_25"/>
  <use id="svg_24" xlink:href="#svg_23" transform="matrix(0.4901371928921887,0,0,0.5578984094659692,-266.0896318884011,-224.68979732420604) " y="626.10398" x="841.626752"/>
 </g>
</svg>