<?xml version="1.0"?>
<svg width="64" height="64" xmlns="http://www.w3.org/2000/svg" xmlns:svg="http://www.w3.org/2000/svg" xmlns:xlink="http://www.w3.org/1999/xlink">
 <!-- Generator: Sketch 54.1 (76490) - https://sketchapp.com -->
 <title>accounts copy</title>
 <desc>Created with Sketch.</desc>
 <defs>
  <path id="path-1" d="m32,64c14.02222,0 21.81737,0 26.90869,-5.09131c5.09131,-5.09132 5.09131,-12.88647 5.09131,-26.90869c0,-14.02222 0,-21.81737 -5.09131,-26.90869c-5.09132,-5.09131 -12.88647,-5.09131 -26.90869,-5.09131c-14.02222,0 -21.81737,0 -26.90869,5.09131c-5.09131,5.09132 -5.09131,12.88647 -5.09131,26.90869c0,14.02222 0,21.81737 5.09131,26.90869c5.09132,5.09131 12.88647,5.09131 26.90869,5.09131z"/>
  <linearGradient id="linearGradient-3" y2="100%" x2="50%" y1="0%" x1="50%">
   <stop offset="0%" stop-color="#FDFEFF"/>
   <stop offset="100%" stop-opacity="0.9" stop-color="#FBFCFD"/>
  </linearGradient>
  <path id="path-4" d="m35.45972,6.35419c0.3757,0.14474 0.77986,0.23118 1.20695,0.23118c1.84097,0 3.33333,-1.47417 3.33333,-3.29269c0,-1.81852 -1.49236,-3.29268 -3.33333,-3.29268c-1.84098,0 -3.33334,1.47416 -3.33334,3.29268c0,0.1667 0.0257,0.32653 0.04931,0.48636l-6.62083,5.23194c-0.375,-0.14475 -0.77987,-0.23118 -1.20695,-0.23118c-0.42708,0 -0.83125,0.08643 -1.20694,0.23118l-6.61945,-5.23125c0.02431,-0.15984 0.04931,-0.32035 0.04931,-0.48705c0,-1.81852 -1.49236,-3.29268 -3.33334,-3.29268c-1.84097,0 -3.33333,1.47416 -3.33333,3.29268c0,0.29291 0.05139,0.57211 0.12361,0.84238l-7.04861,6.96265c-0.27361,-0.07134 -0.55625,-0.1221 -0.85278,-0.1221c-1.84097,0 -3.33333,1.47416 -3.33333,3.29268c0,1.81852 1.49236,3.29269 3.33333,3.29269c1.84098,0 3.33334,-1.47417 3.33334,-3.29269c0,-0.29291 -0.05139,-0.5721 -0.12361,-0.84238l7.04861,-6.96265c0.27361,0.07134 0.55625,0.12211 0.85277,0.12211c0.42709,0 0.83125,-0.08644 1.20695,-0.23118l6.62083,5.23194c-0.0243,0.15983 -0.0493,0.32035 -0.0493,0.48704c0,1.81852 1.49236,3.29268 3.33333,3.29268c1.84097,0 3.33333,-1.47416 3.33333,-3.29268c0,-0.16669 -0.02569,-0.32652 -0.0493,-0.48636l6.61944,-5.23262zm-7.68194,15.59703l-4.44445,0c-0.61389,0 -1.11111,0.49116 -1.11111,1.09756l0,10.97561c0,0.6064 0.49722,1.09756 1.11111,1.09756l4.44445,0c0.61389,0 1.11111,-0.49116 1.11111,-1.09756l0,-10.97561c0,-0.6064 -0.49722,-1.09756 -1.11111,-1.09756zm11.11111,-8.78049l-4.44445,0c-0.61388,0 -1.11111,0.49116 -1.11111,1.09756l0,19.7561c0,0.6064 0.49723,1.09756 1.11111,1.09756l4.44445,0c0.61389,0 1.11111,-0.49116 1.11111,-1.09756l0,-19.7561c0,-0.6064 -0.49722,-1.09756 -1.11111,-1.09756zm-22.22222,0l-4.44445,0c-0.61389,0 -1.11111,0.49116 -1.11111,1.09756l0,19.7561c0,0.6064 0.49722,1.09756 1.11111,1.09756l4.44445,0c0.61389,0 1.11111,-0.49116 1.11111,-1.09756l0,-19.7561c0,-0.6064 -0.49722,-1.09756 -1.11111,-1.09756zm-11.11111,10.97561l-4.44445,0c-0.61389,0 -1.11111,0.49116 -1.11111,1.09756l0,8.78049c0,0.6064 0.49722,1.09756 1.11111,1.09756l4.44445,0c0.61388,0 1.11111,-0.49116 1.11111,-1.09756l0,-8.78049c0,-0.6064 -0.49723,-1.09756 -1.11111,-1.09756z"/>
  <filter id="filter-5" filterUnits="objectBoundingBox" height="111.4%" width="110.0%" y="-2.8%" x="-5.0%">
   <feGaussianBlur stdDeviation="0.5"/>
  </filter>
  <symbol id="svg_10" height="512" width="640" xmlns="http://www.w3.org/2000/svg">
   <rect fill="none" y="0" x="0" height="100%" width="100%" id="svg_9"/>
   <g class="currentLayer">
    <title>Layer 1</title>
    <path class="selected" id="svg_8" d="m608,0l-448,0a32,32 0 0 0 -32,32l0,96l160,0l0,-64l192,0l0,320l128,0a32,32 0 0 0 32,-32l0,-320a32,32 0 0 0 -32,-32zm-376,103a9,9 0 0 1 -9,9l-30,0a9,9 0 0 1 -9,-9l0,-30a9,9 0 0 1 9,-9l30,0a9,9 0 0 1 9,9l0,30zm352,178a9,9 0 0 1 -9,9l-30,0a9,9 0 0 1 -9,-9l0,-30a9,9 0 0 1 9,-9l30,0a9,9 0 0 1 9,9l0,30zm0,-104a9,9 0 0 1 -9,9l-30,0a9,9 0 0 1 -9,-9l0,-30a9,9 0 0 1 9,-9l30,0a9,9 0 0 1 9,9l0,30zm0,-104a9,9 0 0 1 -9,9l-30,0a9,9 0 0 1 -9,-9l0,0a9,9 0 0 1 9,-9l30,0a9,9 0 0 1 9,9zm-168,57l-384,0a32,32 0 0 0 -32,32l0,288a32,32 0 0 0 32,32l384,0a32,32 0 0 0 32,-32l0,-258a32,32 0 0 0 -32,-32l0,-30zm-320,64a32,32 0 1 1 -32,32a32,32 0 0 1 32,-32zm608,160l-640,0l0,-32l64,-64l32,32l128,-128l96,96l320,96z" fill="#ffffff"/>
   </g>
  </symbol>
 </defs>
 <g class="layer">
  <title>Layer 1</title>
  <g fill-rule="evenodd" fill="none" id="Page-1">
   <g id="accounts-copy">
    <mask transform="translate(-0.25,0) translate(-0.25,0) translate(-0.25,0) translate(0,-0.25) translate(0,0.25) translate(0,0.25) translate(0,0.25) translate(0,0.25) translate(0,0.25) translate(0,0.25) translate(0,0.25) translate(-0.25,0) translate(2.5,0) translate(-1,-1.5) translate(0,-0.25) translate(0.25,0) translate(0,-0.5) translate(0,-0.5) translate(0,0.5) translate(0,0.5) translate(0,0.5) translate(0.5,0) translate(-1,0) " id="mask-2">
     <use id="svg_1" xlink:href="#path-1"/>
    </mask>
    <use x="0.25" y="0.25" xlink:href="#path-1" fill="#FF3B38" id="Path"/>
    <g fill-rule="nonzero" mask="url(#mask-2)" id="analytics">
     <g id="Shape">
      <g id="svg_2">
       <use id="svg_3" x="12.25" y="14.25" xlink:href="#path-4" filter="url(#filter-5)" fill="black"/>
       <use id="svg_4" x="12.25" y="14.25" xlink:href="#path-4" fill="url(#linearGradient-3)"/>
      </g>
     </g>
    </g>
   </g>
  </g>
  <g id="svg_7"/>
  <use x="0" y="13.134549" transform="matrix(0.07752267129216593,0,0,0.07613508303671246,7.645355001091956,13.392754439005335) " xlink:href="#svg_10" id="svg_11"/>
  <g id="svg_12"/>
 </g>
</svg>