<svg width="320" height="320" viewBox="0 0 320 320" fill="none" xmlns="http://www.w3.org/2000/svg">
<g clip-path="url(#clip0_1014_7683)">
<path d="M160 0C281.326 0 320 38.6737 320 160C320 281.326 281.326 320 160 320C38.6736 320 0 281.326 0 160C0 38.6737 38.6736 0 160 0Z" fill="url(#paint0_linear_1014_7683)"/>
<path d="M160 2C220.573 2 259.85 11.6833 284.083 35.9168C308.317 60.1504 318 99.4272 318 160C318 220.573 308.317 259.85 284.083 284.083C259.85 308.317 220.573 318 160 318C99.4272 318 60.1504 308.317 35.9168 284.083C11.6833 259.85 2 220.573 2 160C2 99.4272 11.6833 60.1504 35.9168 35.9168C60.1504 11.6833 99.4272 2 160 2Z" stroke="#F8FAFC" stroke-opacity="0.2" stroke-width="4"/>
<g clip-path="url(#clip1_1014_7683)">
<path fill-rule="evenodd" clip-rule="evenodd" d="M110 160C110 137.251 102.749 130 80 130C57.2513 130 50 137.251 50 160C50 182.749 57.2513 190 80 190C102.749 190 110 182.749 110 160ZM99.9775 146.881C103.284 150.187 101.176 154.403 91.2569 164.322C86.8797 168.699 83.6132 171.555 81.0453 173.096C80.9517 173.152 80.858 173.209 80.764 173.266C79.8502 173.819 78.9165 174.384 77.8739 174.586C75.1534 175.114 71.75 172.856 66.0646 167.17C58.3498 159.455 56.9446 155.942 60.2509 152.636C63.5573 149.33 67.0704 150.735 74.7852 158.45C76.1724 159.837 78.4651 159.808 79.8163 158.386C80.6479 157.51 81.5538 156.584 82.5363 155.601C92.4554 145.682 96.6711 143.574 99.9775 146.881Z" fill="url(#paint1_linear_1014_7683)"/>
<path d="M95 65C113.957 65 120 71.0428 120 90C120 108.957 113.957 115 95 115C76.0428 115 70 108.957 70 90C70 71.0428 76.0428 65 95 65Z" fill="url(#paint2_linear_1014_7683)"/>
<path d="M195 133C251.872 133 270 139.043 270 158C270 176.957 251.872 183 195 183C138.128 183 120 176.957 120 158C120 139.043 138.128 133 195 133Z" fill="url(#paint3_linear_1014_7683)"/>
<path d="M190 70C235.497 70 250 74.8342 250 90C250 105.166 235.497 110 190 110C144.503 110 130 105.166 130 90C130 74.8342 144.503 70 190 70Z" fill="url(#paint4_linear_1014_7683)"/>
<path d="M190 210C235.497 210 250 214.834 250 230C250 245.166 235.497 250 190 250C144.503 250 130 245.166 130 230C130 214.834 144.503 210 190 210Z" fill="url(#paint5_linear_1014_7683)"/>
<path d="M95 205C113.957 205 120 211.043 120 230C120 248.957 113.957 255 95 255C76.0428 255 70 248.957 70 230C70 211.043 76.0428 205 95 205Z" fill="url(#paint6_linear_1014_7683)"/>
</g>
</g>
<defs>
<linearGradient id="paint0_linear_1014_7683" x1="160" y1="0" x2="160" y2="320" gradientUnits="userSpaceOnUse">
<stop stop-color="#475569"/>
<stop offset="1" stop-color="#1E293B"/>
</linearGradient>
<linearGradient id="paint1_linear_1014_7683" x1="80" y1="130" x2="80" y2="190" gradientUnits="userSpaceOnUse">
<stop stop-color="#60A5FA"/>
<stop offset="1" stop-color="#2563EB"/>
</linearGradient>
<linearGradient id="paint2_linear_1014_7683" x1="95" y1="65" x2="95" y2="115" gradientUnits="userSpaceOnUse">
<stop stop-color="#FB7185"/>
<stop offset="1" stop-color="#E11D48"/>
</linearGradient>
<linearGradient id="paint3_linear_1014_7683" x1="195" y1="133" x2="195" y2="183" gradientUnits="userSpaceOnUse">
<stop stop-color="#FB923C"/>
<stop offset="1" stop-color="#EA580C"/>
</linearGradient>
<linearGradient id="paint4_linear_1014_7683" x1="190" y1="70" x2="190" y2="110" gradientUnits="userSpaceOnUse">
<stop stop-color="#FB923C"/>
<stop offset="1" stop-color="#EA580C"/>
</linearGradient>
<linearGradient id="paint5_linear_1014_7683" x1="190" y1="210" x2="190" y2="250" gradientUnits="userSpaceOnUse">
<stop stop-color="#FB923C"/>
<stop offset="1" stop-color="#EA580C"/>
</linearGradient>
<linearGradient id="paint6_linear_1014_7683" x1="95" y1="205" x2="95" y2="255" gradientUnits="userSpaceOnUse">
<stop stop-color="#34D399"/>
<stop offset="1" stop-color="#059669"/>
</linearGradient>
<clipPath id="clip0_1014_7683">
<rect width="320" height="320" fill="white"/>
</clipPath>
<clipPath id="clip1_1014_7683">
<rect width="240" height="240" fill="white" transform="translate(40 40)"/>
</clipPath>
</defs>
</svg>
