<svg width="40" height="40" viewBox="0 0 40 40" fill="none" xmlns="http://www.w3.org/2000/svg">
<rect width="40" height="40" rx="20" fill="#1F2937"/>
<path d="M7.00024 20C7.00024 15.774 9.01676 12.0189 12.1401 9.64452C12.3193 9.50826 12.5717 9.63893 12.5717 9.86409V20.7699C12.5717 20.9059 12.4731 21.0214 12.34 21.0496C10.5158 21.436 9.02128 22.715 8.33491 24.408C8.2345 24.6557 7.86449 24.6783 7.77348 24.427C7.27308 23.0452 7.00024 21.5545 7.00024 20Z" fill="#D1D5DB"/>
<path d="M20.0002 12.5714C18.0464 12.5714 16.2688 13.3257 14.9427 14.559C14.7547 14.7337 14.4288 14.6064 14.4288 14.3497V8.4271C14.4288 8.31956 14.4906 8.22138 14.5884 8.17656C16.2361 7.42113 18.069 7 20.0002 7C21.5547 7 23.0455 7.27284 24.4272 7.77324C24.6785 7.86424 24.6559 8.23425 24.4082 8.33466C22.7062 9.02469 21.4226 10.5316 21.0437 12.369C21.0131 12.5174 20.8751 12.6208 20.7242 12.6063C20.486 12.5832 20.2445 12.5714 20.0002 12.5714Z" fill="#D1D5DB"/>
<path d="M27.4288 30.1359C27.4288 30.3611 27.6812 30.4917 27.8604 30.3555C30.9837 27.9811 33.0002 24.226 33.0002 20C33.0002 18.4455 32.7274 16.9548 32.227 15.573C32.136 15.3217 31.766 15.3443 31.6656 15.592C30.9792 17.285 29.4846 18.564 27.6605 18.9504C27.5274 18.9786 27.4288 19.0941 27.4288 19.2301V30.1359Z" fill="#D1D5DB"/>
<path d="M25.5717 31.5729C25.5717 31.6804 25.5099 31.7786 25.4121 31.8234C23.7644 32.5789 21.9315 33 20.0002 33C18.4458 33 16.955 32.7272 15.5733 32.2268C15.322 32.1358 15.3446 31.7658 15.5923 31.6653C17.2943 30.9753 18.5779 29.4684 18.9568 27.631C18.9874 27.4826 19.1254 27.3792 19.2762 27.3937C19.5145 27.4168 19.756 27.4286 20.0002 27.4286C21.954 27.4286 23.7317 26.6743 25.0578 25.441C25.2458 25.2663 25.5717 25.3936 25.5717 25.6503V31.5729Z" fill="#D1D5DB"/>
<path d="M30.2145 13.5C30.2145 15.5513 28.5516 17.2143 26.5002 17.2143C24.4489 17.2143 22.786 15.5513 22.786 13.5C22.786 11.4487 24.4489 9.78571 26.5002 9.78571C28.5516 9.78571 30.2145 11.4487 30.2145 13.5Z" fill="#D1D5DB"/>
<path d="M13.5002 30.2143C15.5516 30.2143 17.2145 28.5513 17.2145 26.5C17.2145 24.4487 15.5516 22.7857 13.5002 22.7857C11.4489 22.7857 9.78596 24.4487 9.78596 26.5C9.78596 28.5513 11.4489 30.2143 13.5002 30.2143Z" fill="#D1D5DB"/>
</svg>
