<svg width="24" height="24" viewBox="0 0 24 24" fill="none" xmlns="http://www.w3.org/2000/svg">
<g opacity="0.7">
<path d="M11.9982 14.8412L14.0821 15.9356C14.4883 16.1497 14.9615 15.8036 14.8844 15.3524L14.4863 13.0324L16.172 11.3907C16.5011 11.0716 16.319 10.5134 15.8658 10.4483L13.5359 10.1102L12.4944 7.99832C12.2913 7.58715 11.7051 7.58715 11.503 7.99832L10.4616 10.1102L8.13162 10.4483C7.67843 10.5144 7.49635 11.0716 7.82549 11.3907L9.51119 13.0324L9.11202 15.3534C9.03499 15.8046 9.50819 16.1487 9.91436 15.9366L11.9982 14.8422" stroke="white" stroke-width="1.5" stroke-linecap="round" stroke-linejoin="round"/>
<path d="M18.3668 5.65139C21.9433 9.22788 21.8822 15.0633 18.1837 18.5628C14.7693 21.7931 9.23096 21.7931 5.81654 18.5628C2.118 15.0633 2.05697 9.22788 5.63346 5.65139C9.14992 2.13492 14.8503 2.13492 18.3668 5.65139" stroke="white" stroke-width="1.5" stroke-linecap="round" stroke-linejoin="round"/>
</g>
</svg>
