<svg width="40" height="40" viewBox="0 0 40 40" fill="none" xmlns="http://www.w3.org/2000/svg">
<path fill-rule="evenodd" clip-rule="evenodd" d="M13.5237 9.76191C13.5237 9.13072 14.0354 8.61905 14.6665 8.61905H19.9999C20.6311 8.61905 21.1427 9.13072 21.1427 9.76191V13.9524H27.9999C30.1038 13.9524 31.8094 15.658 31.8094 17.7619V21.9524H33.3332C33.9644 21.9524 34.4761 22.4641 34.4761 23.0952C34.4761 23.7264 33.9644 24.2381 33.3332 24.2381H31.8094V28.4286C31.8094 30.5325 30.1038 32.2381 27.9999 32.2381H11.9999C9.89593 32.2381 8.19035 30.5325 8.19035 28.4286V24.2381H6.66654C6.03536 24.2381 5.52368 23.7264 5.52368 23.0952C5.52368 22.4641 6.03536 21.9524 6.66654 21.9524H8.19035V17.7619C8.19035 15.658 9.89593 13.9524 11.9999 13.9524H18.857V10.9048H14.6665C14.0354 10.9048 13.5237 10.3931 13.5237 9.76191ZM11.9999 16.2381C11.1583 16.2381 10.4761 16.9203 10.4761 17.7619V28.4286C10.4761 29.2701 11.1583 29.9524 11.9999 29.9524H27.9999C28.8414 29.9524 29.5237 29.2701 29.5237 28.4286V17.7619C29.5237 16.9203 28.8414 16.2381 27.9999 16.2381H11.9999ZM15.9999 20.619C16.6311 20.619 17.1427 21.1307 17.1427 21.7619V24.4286C17.1427 25.0598 16.6311 25.5714 15.9999 25.5714C15.3687 25.5714 14.857 25.0598 14.857 24.4286V21.7619C14.857 21.1307 15.3687 20.619 15.9999 20.619ZM23.9999 20.619C24.6311 20.619 25.1427 21.1307 25.1427 21.7619V24.4286C25.1427 25.0598 24.6311 25.5714 23.9999 25.5714C23.3687 25.5714 22.857 25.0598 22.857 24.4286V21.7619C22.857 21.1307 23.3687 20.619 23.9999 20.619Z" fill="black" fill-opacity="0.2"/>
<path fill-rule="evenodd" clip-rule="evenodd" d="M13.5237 8.76191C13.5237 8.13072 14.0354 7.61905 14.6665 7.61905H19.9999C20.6311 7.61905 21.1427 8.13072 21.1427 8.76191V12.9524H27.9999C30.1038 12.9524 31.8094 14.658 31.8094 16.7619V20.9524H33.3332C33.9644 20.9524 34.4761 21.4641 34.4761 22.0952C34.4761 22.7264 33.9644 23.2381 33.3332 23.2381H31.8094V27.4286C31.8094 29.5325 30.1038 31.2381 27.9999 31.2381H11.9999C9.89593 31.2381 8.19035 29.5325 8.19035 27.4286V23.2381H6.66654C6.03536 23.2381 5.52368 22.7264 5.52368 22.0952C5.52368 21.4641 6.03536 20.9524 6.66654 20.9524H8.19035V16.7619C8.19035 14.658 9.89593 12.9524 11.9999 12.9524H18.857V9.90476H14.6665C14.0354 9.90476 13.5237 9.39309 13.5237 8.76191ZM11.9999 15.2381C11.1583 15.2381 10.4761 15.9203 10.4761 16.7619V27.4286C10.4761 28.2701 11.1583 28.9524 11.9999 28.9524H27.9999C28.8414 28.9524 29.5237 28.2701 29.5237 27.4286V16.7619C29.5237 15.9203 28.8414 15.2381 27.9999 15.2381H11.9999ZM15.9999 19.619C16.6311 19.619 17.1427 20.1307 17.1427 20.7619V23.4286C17.1427 24.0598 16.6311 24.5714 15.9999 24.5714C15.3687 24.5714 14.857 24.0598 14.857 23.4286V20.7619C14.857 20.1307 15.3687 19.619 15.9999 19.619ZM23.9999 19.619C24.6311 19.619 25.1427 20.1307 25.1427 20.7619V23.4286C25.1427 24.0598 24.6311 24.5714 23.9999 24.5714C23.3687 24.5714 22.857 24.0598 22.857 23.4286V20.7619C22.857 20.1307 23.3687 19.619 23.9999 19.619Z" fill="url(#paint1_linear_1640_8278)"/>
<defs>
<linearGradient id="paint0_linear_1640_8278" x1="20" y1="0" x2="20" y2="40" gradientUnits="userSpaceOnUse">
<stop stop-color="#6B7280"/>
<stop offset="1" stop-color="#1F2937"/>
</linearGradient>
<linearGradient id="paint1_linear_1640_8278" x1="19.9999" y1="7.61905" x2="19.9999" y2="31.2381" gradientUnits="userSpaceOnUse">
<stop stop-color="#F9FAFB"/>
<stop offset="1" stop-color="#9CA3AF"/>
</linearGradient>
</defs>
</svg>
