<svg width="40" height="40" viewBox="0 0 40 40" fill="none" xmlns="http://www.w3.org/2000/svg">
<path fill-rule="evenodd" clip-rule="evenodd" d="M8.63151 8C9.22947 8 9.71422 8.48943 9.71422 9.09317L9.71422 10.5507H12.6014V9.09317C12.6014 8.48943 13.0862 8 13.6841 8C14.2821 8 14.7668 8.48943 14.7668 9.09317V10.8181C14.9774 10.9287 15.172 11.0719 15.3429 11.2445C15.7829 11.6886 16.03 12.2911 16.03 12.9193V14.1946C16.03 15.161 15.6498 16.0879 14.9729 16.7712C14.2961 17.4546 13.3782 17.8385 12.421 17.8385H12.2405V27.5859C12.2405 28.4799 12.5922 29.3372 13.2183 29.9693C13.8444 30.6014 14.6935 30.9565 15.5789 30.9565C16.4643 30.9565 17.3134 30.6014 17.9394 29.9693C18.5655 29.3372 18.9172 28.4799 18.9172 27.5859V13.5569C18.9172 12.0831 19.4971 10.6697 20.5292 9.62759C21.5614 8.58546 22.9613 8 24.421 8C25.8807 8 27.2806 8.58546 28.3127 9.62759C29.3449 10.6697 29.9247 12.0831 29.9247 13.5569V23.3043H30.1052C31.0624 23.3043 31.9803 23.6883 32.6572 24.3716C33.334 25.055 33.7142 25.9818 33.7142 26.9482V28.2236C33.7142 28.8518 33.4671 29.4542 33.0271 29.8984C32.8562 30.071 32.6616 30.2142 32.4511 30.3248L32.4511 32.0497C32.4511 32.6534 31.9663 33.1429 31.3684 33.1429C30.7704 33.1429 30.2856 32.6534 30.2856 32.0497L30.2856 30.5921H27.3984V32.0497C27.3984 32.6534 26.9137 33.1429 26.3157 33.1429C25.7178 33.1429 25.233 32.6534 25.233 32.0497V30.3248C25.0225 30.2142 24.8279 30.071 24.6569 29.8984C24.217 29.4542 23.9699 28.8518 23.9699 28.2236V26.9482C23.9699 25.9818 24.3501 25.055 25.0269 24.3716C25.7037 23.6883 26.6217 23.3043 27.5789 23.3043H27.7593V13.5569C27.7593 12.663 27.4076 11.8057 26.7816 11.1736C26.1555 10.5415 25.3064 10.1863 24.421 10.1863C23.5356 10.1863 22.6865 10.5415 22.0604 11.1736C21.4344 11.8057 21.0826 12.663 21.0826 13.5569V27.5859C21.0826 29.0597 20.5028 30.4731 19.4706 31.5153C18.4385 32.5574 17.0386 33.1429 15.5789 33.1429C14.1192 33.1429 12.7193 32.5574 11.6871 31.5153C10.655 30.4731 10.0751 29.0597 10.0751 27.5859V17.8385H9.89467C8.93749 17.8385 8.01953 17.4546 7.3427 16.7712C6.66588 16.0879 6.28564 15.161 6.28564 14.1946V12.9193C6.28564 12.2911 6.5328 11.6886 6.97273 11.2445C7.14366 11.0719 7.33825 10.9287 7.5488 10.8181L7.5488 9.09317C7.5488 8.48943 8.03355 8 8.63151 8ZM12.421 15.6522C12.8039 15.6522 13.171 15.4986 13.4418 15.2253C13.7125 14.9519 13.8646 14.5812 13.8646 14.1946V12.9193C13.8646 12.8709 13.8456 12.8246 13.8117 12.7904C13.7779 12.7563 13.732 12.7371 13.6841 12.7371H8.63151C8.58365 12.7371 8.53775 12.7563 8.50391 12.7904C8.47007 12.8246 8.45106 12.8709 8.45106 12.9193V14.1946C8.45106 14.5812 8.60315 14.9519 8.87388 15.2253C9.14461 15.4986 9.5118 15.6522 9.89467 15.6522H12.421ZM27.5789 25.4907C27.196 25.4907 26.8288 25.6442 26.5581 25.9176C26.2874 26.1909 26.1353 26.5617 26.1353 26.9482V28.2236C26.1353 28.2719 26.1543 28.3183 26.1881 28.3524C26.222 28.3866 26.2679 28.4058 26.3157 28.4058H31.3684C31.4162 28.4058 31.4621 28.3866 31.4959 28.3524C31.5298 28.3183 31.5488 28.2719 31.5488 28.2236V26.9482C31.5488 26.5617 31.3967 26.1909 31.126 25.9176C30.8552 25.6442 30.4881 25.4907 30.1052 25.4907H27.5789Z" fill="black" fill-opacity="0.2"/>
<path fill-rule="evenodd" clip-rule="evenodd" d="M8.63151 7.42857C9.22947 7.42857 9.71422 7.918 9.71422 8.52174L9.71422 9.9793H12.6014V8.52174C12.6014 7.918 13.0862 7.42857 13.6841 7.42857C14.2821 7.42857 14.7668 7.918 14.7668 8.52174V10.2467C14.9774 10.3572 15.172 10.5004 15.3429 10.673C15.7829 11.1172 16.03 11.7197 16.03 12.3478V13.6232C16.03 14.5896 15.6498 15.5164 14.9729 16.1998C14.2961 16.8832 13.3782 17.2671 12.421 17.2671H12.2405V27.0145C12.2405 27.9084 12.5922 28.7658 13.2183 29.3979C13.8444 30.03 14.6935 30.3851 15.5789 30.3851C16.4643 30.3851 17.3134 30.03 17.9394 29.3979C18.5655 28.7658 18.9172 27.9084 18.9172 27.0145V12.9855C18.9172 11.5117 19.4971 10.0983 20.5292 9.05616C21.5614 8.01403 22.9613 7.42857 24.421 7.42857C25.8807 7.42857 27.2806 8.01403 28.3127 9.05616C29.3449 10.0983 29.9247 11.5117 29.9247 12.9855V22.7329H30.1052C31.0624 22.7329 31.9803 23.1168 32.6572 23.8002C33.334 24.4836 33.7142 25.4104 33.7142 26.3768V27.6522C33.7142 28.2803 33.4671 28.8828 33.0271 29.327C32.8562 29.4996 32.6616 29.6428 32.4511 29.7533L32.4511 31.4783C32.4511 32.082 31.9663 32.5714 31.3684 32.5714C30.7704 32.5714 30.2856 32.082 30.2856 31.4783L30.2856 30.0207H27.3984V31.4783C27.3984 32.082 26.9137 32.5714 26.3157 32.5714C25.7178 32.5714 25.233 32.082 25.233 31.4783V29.7534C25.0225 29.6428 24.8279 29.4996 24.6569 29.327C24.217 28.8828 23.9699 28.2803 23.9699 27.6522V26.3768C23.9699 25.4104 24.3501 24.4836 25.0269 23.8002C25.7037 23.1168 26.6217 22.7329 27.5789 22.7329H27.7593V12.9855C27.7593 12.0916 27.4076 11.2342 26.7816 10.6021C26.1555 9.97002 25.3064 9.61491 24.421 9.61491C23.5356 9.61491 22.6865 9.97002 22.0604 10.6021C21.4344 11.2342 21.0826 12.0916 21.0826 12.9855V27.0145C21.0826 28.4883 20.5028 29.9017 19.4706 30.9438C18.4385 31.986 17.0386 32.5714 15.5789 32.5714C14.1192 32.5714 12.7193 31.986 11.6871 30.9438C10.655 29.9017 10.0751 28.4883 10.0751 27.0145V17.2671H9.89467C8.93749 17.2671 8.01953 16.8832 7.3427 16.1998C6.66588 15.5164 6.28564 14.5896 6.28564 13.6232V12.3478C6.28564 11.7197 6.5328 11.1172 6.97273 10.673C7.14366 10.5004 7.33825 10.3572 7.5488 10.2467L7.5488 8.52174C7.5488 7.918 8.03355 7.42857 8.63151 7.42857ZM12.421 15.0807C12.8039 15.0807 13.171 14.9272 13.4418 14.6538C13.7125 14.3805 13.8646 14.0098 13.8646 13.6232V12.3478C13.8646 12.2995 13.8456 12.2532 13.8117 12.219C13.7779 12.1848 13.732 12.1656 13.6841 12.1656H8.63151C8.58365 12.1656 8.53775 12.1848 8.50391 12.219C8.47007 12.2532 8.45106 12.2995 8.45106 12.3478V13.6232C8.45106 14.0098 8.60315 14.3805 8.87388 14.6538C9.14461 14.9272 9.5118 15.0807 9.89467 15.0807H12.421ZM27.5789 24.9193C27.196 24.9193 26.8288 25.0728 26.5581 25.3462C26.2874 25.6195 26.1353 25.9902 26.1353 26.3768V27.6522C26.1353 27.7005 26.1543 27.7468 26.1881 27.781C26.222 27.8152 26.2679 27.8344 26.3157 27.8344H31.3684C31.4162 27.8344 31.4621 27.8152 31.4959 27.781C31.5298 27.7468 31.5488 27.7005 31.5488 27.6522V26.3768C31.5488 25.9902 31.3967 25.6195 31.126 25.3462C30.8552 25.0728 30.4881 24.9193 30.1052 24.9193H27.5789Z" fill="url(#paint1_linear_830_8408)"/>
<defs>
<linearGradient id="paint0_linear_830_8408" x1="20" y1="0" x2="20" y2="40" gradientUnits="userSpaceOnUse">
<stop stop-color="#6B7280"/>
<stop offset="1" stop-color="#1F2937"/>
</linearGradient>
<linearGradient id="paint1_linear_830_8408" x1="19.9999" y1="7.42857" x2="19.9999" y2="32.5714" gradientUnits="userSpaceOnUse">
<stop stop-color="#F9FAFB"/>
<stop offset="1" stop-color="#9CA3AF"/>
</linearGradient>
</defs>
</svg>
