<svg width="26" height="26" viewBox="0 0 26 26" fill="none" xmlns="http://www.w3.org/2000/svg">
<g id="Group 25">
<path id="Vector" d="M17.7076 8.29252C17.8006 8.38539 17.8744 8.49568 17.9247 8.61708C17.975 8.73848 18.0009 8.8686 18.0009 9.00002C18.0009 9.13143 17.975 9.26156 17.9247 9.38296C17.8744 9.50436 17.8006 9.61465 17.7076 9.70752L9.70761 17.7075C9.6147 17.8004 9.5044 17.8741 9.38301 17.9244C9.26162 17.9747 9.13151 18.0006 9.00011 18.0006C8.86872 18.0006 8.73861 17.9747 8.61722 17.9244C8.49582 17.8741 8.38552 17.8004 8.29261 17.7075C8.1997 17.6146 8.126 17.5043 8.07572 17.3829C8.02544 17.2615 7.99956 17.1314 7.99956 17C7.99956 16.8686 8.02544 16.7385 8.07572 16.6171C8.126 16.4957 8.1997 16.3854 8.29261 16.2925L16.2926 8.29252C16.3855 8.19954 16.4958 8.12578 16.6172 8.07546C16.7386 8.02513 16.8687 7.99923 17.0001 7.99923C17.1315 7.99923 17.2617 8.02513 17.3831 8.07546C17.5045 8.12578 17.6147 8.19954 17.7076 8.29252ZM23.9501 2.05002C23.3001 1.39993 22.5284 0.884251 21.6791 0.532423C20.8297 0.180596 19.9194 -0.000488281 19.0001 -0.000488281C18.0808 -0.000488281 17.1705 0.180596 16.3212 0.532423C15.4718 0.884251 14.7001 1.39993 14.0501 2.05002L10.2926 5.80627C10.105 5.99391 9.99956 6.2484 9.99956 6.51377C9.99956 6.77913 10.105 7.03363 10.2926 7.22127C10.4803 7.40891 10.7347 7.51432 11.0001 7.51432C11.2655 7.51432 11.52 7.40891 11.7076 7.22127L15.4651 3.47127C16.4062 2.55083 17.6723 2.03866 18.9887 2.04591C20.3051 2.05316 21.5655 2.57924 22.4964 3.50999C23.4273 4.44074 23.9536 5.70105 23.9611 7.01742C23.9686 8.33379 23.4566 9.6 22.5364 10.5413L18.7776 14.2988C18.59 14.4862 18.4845 14.7406 18.4844 15.0058C18.4843 15.2711 18.5895 15.5255 18.777 15.7131C18.9645 15.9008 19.2188 16.0063 19.484 16.0064C19.7493 16.0065 20.0037 15.9012 20.1914 15.7138L23.9501 11.95C24.6002 11.3 25.1159 10.5283 25.4677 9.67897C25.8195 8.82964 26.0006 7.91933 26.0006 7.00002C26.0006 6.0807 25.8195 5.17039 25.4677 4.32107C25.1159 3.47174 24.6002 2.70004 23.9501 2.05002ZM14.2926 18.7775L10.5351 22.535C10.0727 23.0078 9.52111 23.3842 8.91226 23.6423C8.3034 23.9004 7.64939 24.0352 6.98808 24.0389C6.32677 24.0425 5.67131 23.9149 5.05965 23.6635C4.44799 23.4121 3.89228 23.0418 3.4247 22.5742C2.95712 22.1065 2.58695 21.5507 2.33564 20.939C2.08433 20.3273 1.95687 19.6718 1.96062 19.0105C1.96438 18.3492 2.09929 17.6952 2.35754 17.0864C2.61579 16.4776 2.99225 15.9261 3.46511 15.4638L7.22136 11.7075C7.409 11.5199 7.51442 11.2654 7.51442 11C7.51442 10.7347 7.409 10.4802 7.22136 10.2925C7.03372 10.1049 6.77923 9.99946 6.51386 9.99946C6.2485 9.99946 5.994 10.1049 5.80636 10.2925L2.05011 14.05C0.737292 15.3628 -0.000244141 17.1434 -0.000244141 19C-0.000244141 20.8566 0.737292 22.6372 2.05011 23.95C3.36294 25.2628 5.1435 26.0004 7.00011 26.0004C8.85672 26.0004 10.6373 25.2628 11.9501 23.95L15.7076 20.1913C15.8951 20.0036 16.0003 19.7492 16.0002 19.484C16.0001 19.2187 15.8946 18.9644 15.707 18.7769C15.5193 18.5894 15.2649 18.4842 14.9997 18.4843C14.7344 18.4844 14.4801 18.5899 14.2926 18.7775Z" fill="url(#paint0_linear_905_2576)"/>
</g>
<defs>
<linearGradient id="paint0_linear_905_2576" x1="13.0002" y1="-0.000488281" x2="13.0002" y2="26.0004" gradientUnits="userSpaceOnUse">
<stop stop-color="#F3F4F6"/>
<stop offset="1" stop-color="#9CA3AF"/>
</linearGradient>
</defs>
</svg>
