<svg width="40" height="40" viewBox="0 0 40 40" fill="none" xmlns="http://www.w3.org/2000/svg">
<path d="M25.2856 18.5714H31.2856C31.8161 18.5714 32.3248 18.3607 32.6999 17.9856C33.0749 17.6106 33.2856 17.1019 33.2856 16.5714V10.5714C33.2856 10.041 33.0749 9.53229 32.6999 9.15721C32.3248 8.78214 31.8161 8.57143 31.2856 8.57143H25.2856C24.7552 8.57143 24.2465 8.78214 23.8714 9.15721C23.4964 9.53229 23.2856 10.041 23.2856 10.5714V12.5714H21.2856C20.49 12.5714 19.7269 12.8875 19.1643 13.4501C18.6017 14.0127 18.2856 14.7758 18.2856 15.5714V19.5714H14.2856V18.5714C14.2856 18.041 14.0749 17.5323 13.6999 17.1572C13.3248 16.7821 12.8161 16.5714 12.2856 16.5714H8.28564C7.75521 16.5714 7.2465 16.7821 6.87143 17.1572C6.49636 17.5323 6.28564 18.041 6.28564 18.5714V22.5714C6.28564 23.1019 6.49636 23.6106 6.87143 23.9856C7.2465 24.3607 7.75521 24.5714 8.28564 24.5714H12.2856C12.8161 24.5714 13.3248 24.3607 13.6999 23.9856C14.0749 23.6106 14.2856 23.1019 14.2856 22.5714V21.5714H18.2856V25.5714C18.2856 26.3671 18.6017 27.1301 19.1643 27.6927C19.7269 28.2554 20.49 28.5714 21.2856 28.5714H23.2856V30.5714C23.2856 31.1019 23.4964 31.6106 23.8714 31.9856C24.2465 32.3607 24.7552 32.5714 25.2856 32.5714H31.2856C31.8161 32.5714 32.3248 32.3607 32.6999 31.9856C33.0749 31.6106 33.2856 31.1019 33.2856 30.5714V24.5714C33.2856 24.041 33.0749 23.5323 32.6999 23.1572C32.3248 22.7821 31.8161 22.5714 31.2856 22.5714H25.2856C24.7552 22.5714 24.2465 22.7821 23.8714 23.1572C23.4964 23.5323 23.2856 24.041 23.2856 24.5714V26.5714H21.2856C21.0204 26.5714 20.7661 26.4661 20.5785 26.2785C20.391 26.091 20.2856 25.8366 20.2856 25.5714V15.5714C20.2856 15.3062 20.391 15.0519 20.5785 14.8643C20.7661 14.6768 21.0204 14.5714 21.2856 14.5714H23.2856V16.5714C23.2856 17.1019 23.4964 17.6106 23.8714 17.9856C24.2465 18.3607 24.7552 18.5714 25.2856 18.5714ZM12.2856 22.5714H8.28564V18.5714H12.2856V22.5714ZM25.2856 24.5714H31.2856V30.5714H25.2856V24.5714ZM25.2856 10.5714H31.2856V16.5714H25.2856V10.5714Z" fill="black" fill-opacity="0.2"/>
<path d="M25.2856 18H31.2856C31.8161 18 32.3248 17.7893 32.6999 17.4142C33.0749 17.0391 33.2856 16.5304 33.2856 16V10C33.2856 9.46957 33.0749 8.96086 32.6999 8.58579C32.3248 8.21071 31.8161 8 31.2856 8H25.2856C24.7552 8 24.2465 8.21071 23.8714 8.58579C23.4964 8.96086 23.2856 9.46957 23.2856 10V12H21.2856C20.49 12 19.7269 12.3161 19.1643 12.8787C18.6017 13.4413 18.2856 14.2044 18.2856 15V19H14.2856V18C14.2856 17.4696 14.0749 16.9609 13.6999 16.5858C13.3248 16.2107 12.8161 16 12.2856 16H8.28564C7.75521 16 7.2465 16.2107 6.87143 16.5858C6.49636 16.9609 6.28564 17.4696 6.28564 18V22C6.28564 22.5304 6.49636 23.0391 6.87143 23.4142C7.2465 23.7893 7.75521 24 8.28564 24H12.2856C12.8161 24 13.3248 23.7893 13.6999 23.4142C14.0749 23.0391 14.2856 22.5304 14.2856 22V21H18.2856V25C18.2856 25.7956 18.6017 26.5587 19.1643 27.1213C19.7269 27.6839 20.49 28 21.2856 28H23.2856V30C23.2856 30.5304 23.4964 31.0391 23.8714 31.4142C24.2465 31.7893 24.7552 32 25.2856 32H31.2856C31.8161 32 32.3248 31.7893 32.6999 31.4142C33.0749 31.0391 33.2856 30.5304 33.2856 30V24C33.2856 23.4696 33.0749 22.9609 32.6999 22.5858C32.3248 22.2107 31.8161 22 31.2856 22H25.2856C24.7552 22 24.2465 22.2107 23.8714 22.5858C23.4964 22.9609 23.2856 23.4696 23.2856 24V26H21.2856C21.0204 26 20.7661 25.8946 20.5785 25.7071C20.391 25.5196 20.2856 25.2652 20.2856 25V15C20.2856 14.7348 20.391 14.4804 20.5785 14.2929C20.7661 14.1054 21.0204 14 21.2856 14H23.2856V16C23.2856 16.5304 23.4964 17.0391 23.8714 17.4142C24.2465 17.7893 24.7552 18 25.2856 18ZM12.2856 22H8.28564V18H12.2856V22ZM25.2856 24H31.2856V30H25.2856V24ZM25.2856 10H31.2856V16H25.2856V10Z" fill="url(#paint1_linear_834_8427)"/>
<defs>
<linearGradient id="paint0_linear_834_8427" x1="20" y1="0" x2="20" y2="40" gradientUnits="userSpaceOnUse">
<stop stop-color="#6B7280"/>
<stop offset="1" stop-color="#1F2937"/>
</linearGradient>
<linearGradient id="paint1_linear_834_8427" x1="19.7856" y1="8" x2="19.7856" y2="32" gradientUnits="userSpaceOnUse">
<stop stop-color="#F9FAFB"/>
<stop offset="1" stop-color="#9CA3AF"/>
</linearGradient>
</defs>
</svg>
