<svg width="40" height="40" viewBox="0 0 40 40" fill="none" xmlns="http://www.w3.org/2000/svg">
<path fill-rule="evenodd" clip-rule="evenodd" d="M17.013 7.21103C17.7274 6.4966 18.6964 6.09524 19.7067 6.09524H20.2934C21.3037 6.09524 22.2727 6.4966 22.9871 7.21103C23.7015 7.92545 24.1029 8.89442 24.1029 9.90477L24.1029 10.1436C24.1029 10.1439 24.1029 10.1442 24.1029 10.1444C24.1033 10.4114 24.1738 10.6735 24.3074 10.9046C24.4412 11.136 24.6334 11.3281 24.8648 11.4617L24.8678 11.4634L25.4381 11.795C25.4386 11.7953 25.439 11.7955 25.4395 11.7958C25.6708 11.929 25.9331 11.9992 26.2 11.9992C26.4675 11.9992 26.7303 11.9288 26.9619 11.795C26.973 11.7886 26.9842 11.7824 26.9956 11.7764L27.1803 11.6779C28.0507 11.182 29.0817 11.0489 30.0499 11.3078C31.0248 11.5685 31.8565 12.2054 32.3623 13.0786L32.6567 13.587C33.1609 14.4612 33.2977 15.4997 33.037 16.4747C32.7772 17.4465 32.1435 18.276 31.2745 18.7822L31.0814 18.8981L31.0648 18.9078C30.8322 19.0421 30.6393 19.2354 30.5055 19.4682C30.3717 19.701 30.3018 19.965 30.3029 20.2336L30.3029 20.2381L30.3029 20.9048L30.3029 20.9093C30.3018 21.1778 30.3717 21.4418 30.5055 21.6746C30.6366 21.9027 30.8244 22.0928 31.0505 22.2267L31.2312 22.323C31.243 22.3293 31.2546 22.3358 31.2662 22.3425C32.1395 22.8483 32.7763 23.68 33.037 24.6549C33.2972 25.6279 33.1615 26.6643 32.6596 27.5374L32.3688 28.0529L32.3623 28.0642C31.8565 28.9375 31.0248 29.5744 30.0499 29.8351C29.0817 30.094 28.0507 29.9608 27.1803 29.465L26.9956 29.3665C26.9843 29.3605 26.973 29.3543 26.9619 29.3478C26.7303 29.2141 26.4675 29.1437 26.2 29.1437C25.9331 29.1437 25.6708 29.2138 25.4394 29.3471C25.439 29.3473 25.4386 29.3476 25.4381 29.3478L24.8678 29.6794L24.8648 29.6812C24.6334 29.8148 24.4412 30.0069 24.3074 30.2383C24.1738 30.4694 24.1033 30.7315 24.1029 30.9984C24.1029 30.9987 24.1029 30.999 24.1029 30.9993L24.1029 31.2381C24.1029 32.2484 23.7015 33.2174 22.9871 33.9318C22.2727 34.6463 21.3037 35.0476 20.2934 35.0476H19.7067C18.6964 35.0476 17.7274 34.6463 17.013 33.9318C16.2985 33.2174 15.8972 32.2484 15.8972 31.2381L15.8972 30.9993C15.8972 30.9991 15.8972 30.9994 15.8972 30.9993C15.8968 30.7322 15.8263 30.4695 15.6926 30.2383C15.5589 30.0069 15.3667 29.8148 15.1353 29.6812L15.1323 29.6794L14.5619 29.3478C14.5615 29.3476 14.5611 29.3474 14.5607 29.3471C14.3293 29.2138 14.067 29.1437 13.8 29.1437C13.5326 29.1437 13.2698 29.2141 13.0381 29.3478C13.027 29.3543 13.0158 29.3605 13.0045 29.3665L12.8198 29.465C11.9494 29.9608 10.9184 30.094 9.95015 29.8351C8.97523 29.5744 8.14358 28.9375 7.63776 28.0642L7.34342 27.5558C6.83916 26.6817 6.70236 25.6431 6.96305 24.6682C7.22292 23.6964 7.8566 22.8669 8.72561 22.3606L8.91871 22.2448L8.93529 22.235C9.16783 22.1008 9.36076 21.9074 9.49456 21.6746C9.62835 21.4418 9.69826 21.1778 9.69719 20.9093L9.69718 20.9048V20.2287C9.69507 19.9638 9.62393 19.704 9.49077 19.475C9.3571 19.2451 9.1656 19.0541 8.9353 18.9212C8.91404 18.9089 8.89319 18.896 8.87276 18.8823L8.70006 18.7672C7.84418 18.2596 7.22037 17.4369 6.96305 16.4747C6.70236 15.4997 6.83916 14.4612 7.34342 13.587L7.63765 13.0788C8.14346 12.2056 8.97523 11.5685 9.95015 11.3078C10.9184 11.0489 11.9494 11.182 12.8198 11.6779L13.0045 11.7764C13.0158 11.7824 13.027 11.7886 13.0381 11.795C13.2698 11.9288 13.5326 11.9992 13.8 11.9992C14.067 11.9992 14.3293 11.929 14.5607 11.7957C14.5611 11.7955 14.5615 11.7953 14.5619 11.795L15.1353 11.4617C15.3667 11.3281 15.5589 11.136 15.6926 10.9046C15.8263 10.6734 15.8968 10.4111 15.8972 10.1441C15.8972 10.1439 15.8972 10.1442 15.8972 10.1441V9.90477C15.8972 8.89442 16.2985 7.92545 17.013 7.21103ZM19.7067 8.38096C19.3026 8.38096 18.915 8.5415 18.6292 8.82727C18.3434 9.11304 18.1829 9.50063 18.1829 9.90477L18.1829 10.1459C18.1822 10.814 18.0059 11.4701 17.6715 12.0485C17.3375 12.6263 16.8576 13.1063 16.2797 13.4403C16.2792 13.4406 16.2787 13.4409 16.2781 13.4412L15.7048 13.7745C15.1257 14.1089 14.4688 14.2849 13.8 14.2849C13.1383 14.2849 12.4881 14.1125 11.9134 13.7849L11.7289 13.6865C11.7177 13.6805 11.7066 13.6744 11.6956 13.6681C11.346 13.4664 10.9306 13.4116 10.5406 13.5159C10.1507 13.6202 9.8181 13.8748 9.61577 14.224L9.32333 14.7292C9.32319 14.7294 9.32305 14.7296 9.32291 14.7299C9.12155 15.0794 9.06698 15.4945 9.17118 15.8842C9.27546 16.2742 9.53022 16.6068 9.87952 16.8092C9.90029 16.8212 9.92068 16.8339 9.94065 16.8472L10.1127 16.9619C10.6731 17.2933 11.1393 17.7629 11.4668 18.3261C11.8009 18.9009 11.9789 19.5531 11.9829 20.2179L11.9829 20.2248L11.9829 20.9027C11.9851 21.5731 11.8104 22.2323 11.4763 22.8136C11.1436 23.3926 10.6645 23.8739 10.0872 24.2093L9.8947 24.3248L9.87952 24.3337C9.53021 24.536 9.27546 24.8687 9.17118 25.2587C9.06699 25.6483 9.12154 26.0634 9.32287 26.4129C9.32302 26.4132 9.32318 26.4134 9.32333 26.4137L9.61565 26.9186C9.61569 26.9187 9.61561 26.9186 9.61565 26.9186C9.81798 27.2678 10.1507 27.5227 10.5406 27.627C10.9306 27.7312 11.346 27.6765 11.6956 27.4748C11.7066 27.4685 11.7177 27.4623 11.7289 27.4564L11.9134 27.358C12.4881 27.0304 13.1383 26.858 13.8 26.858C14.4688 26.858 15.1257 27.034 15.7048 27.3684L15.7078 27.3701L16.2781 27.7017C16.2787 27.702 16.2792 27.7023 16.2798 27.7027C16.8576 28.0366 17.3375 28.5166 17.6715 29.0944C18.0059 29.6728 18.1822 30.3289 18.1829 30.9969L18.1829 30.9981L18.1829 31.2381C18.1829 31.6422 18.3434 32.0298 18.6292 32.3156C18.915 32.6014 19.3026 32.7619 19.7067 32.7619H20.2934C20.6975 32.7619 21.0851 32.6014 21.3709 32.3156C21.6566 32.0298 21.8172 31.6422 21.8172 31.2381L21.8172 30.9969C21.8179 30.3289 21.9942 29.6728 22.3285 29.0944C22.6625 28.5166 23.1424 28.0367 23.7201 27.7028C23.7207 27.7024 23.7213 27.702 23.7219 27.7017L24.2923 27.3701L24.2953 27.3684C24.8744 27.034 25.5313 26.858 26.2 26.858C26.8618 26.858 27.512 27.0304 28.0867 27.3579L28.2712 27.4564C28.2824 27.4623 28.2934 27.4685 28.3044 27.4748C28.6541 27.6765 29.0695 27.7312 29.4595 27.627C29.8476 27.5232 30.179 27.2703 30.3816 26.9234L30.6713 26.4099L30.6767 26.4004C30.8785 26.0507 30.9332 25.6353 30.8289 25.2453C30.7261 24.8609 30.4771 24.5322 30.1354 24.3291L29.9556 24.2332C29.9442 24.2271 29.933 24.2209 29.922 24.2145C29.3406 23.8789 28.8583 23.3956 28.5238 22.8136C28.1897 22.2323 28.0149 21.5731 28.0172 20.9026V20.2403C28.0149 19.5698 28.1897 18.9106 28.5238 18.3293C28.8565 17.7503 29.3356 17.269 29.9129 16.9336L30.1054 16.8181L30.1206 16.8092C30.4699 16.6068 30.7246 16.2742 30.8289 15.8842C30.9331 15.4945 30.8785 15.0795 30.6772 14.73C30.6771 14.7297 30.6769 14.7294 30.6767 14.7292L30.3844 14.2242C30.3844 14.2242 30.3845 14.2243 30.3844 14.2242C30.1821 13.875 29.8494 13.6202 29.4595 13.5159C29.0695 13.4116 28.6541 13.4664 28.3044 13.6681C28.2934 13.6744 28.2824 13.6805 28.2712 13.6865L28.0867 13.7849C27.512 14.1125 26.8618 14.2849 26.2 14.2849C25.5313 14.2849 24.8744 14.1089 24.2953 13.7745L24.2923 13.7728L23.7219 13.4412C23.7214 13.4408 23.7208 13.4405 23.7202 13.4402C23.1424 13.1062 22.6625 12.6263 22.3285 12.0485C21.9942 11.4701 21.8179 10.814 21.8172 10.1459L21.8172 9.90477C21.8172 9.50063 21.6566 9.11304 21.3709 8.82727C21.0851 8.5415 20.6975 8.38096 20.2934 8.38096H19.7067ZM20 17.7143C18.4221 17.7143 17.1429 18.9935 17.1429 20.5714C17.1429 22.1494 18.4221 23.4286 20 23.4286C21.578 23.4286 22.8572 22.1494 22.8572 20.5714C22.8572 18.9935 21.578 17.7143 20 17.7143ZM14.8572 20.5714C14.8572 17.7311 17.1597 15.4286 20 15.4286C22.8404 15.4286 25.1429 17.7311 25.1429 20.5714C25.1429 23.4118 22.8404 25.7143 20 25.7143C17.1597 25.7143 14.8572 23.4118 14.8572 20.5714Z" fill="black" fill-opacity="0.2"/>
<path fill-rule="evenodd" clip-rule="evenodd" d="M17.013 6.63959C17.7274 5.92517 18.6964 5.52381 19.7067 5.52381H20.2934C21.3037 5.52381 22.2727 5.92517 22.9871 6.63959C23.7015 7.35402 24.1029 8.32299 24.1029 9.33334L24.1029 9.57216C24.1029 9.57244 24.1029 9.57272 24.1029 9.573C24.1033 9.83993 24.1738 10.1021 24.3074 10.3332C24.4412 10.5645 24.6334 10.7566 24.8648 10.8903L24.8678 10.892L25.4381 11.2236C25.4386 11.2238 25.439 11.2241 25.4395 11.2244C25.6708 11.3576 25.9331 11.4277 26.2 11.4277C26.4675 11.4277 26.7303 11.3573 26.9619 11.2236C26.973 11.2172 26.9842 11.211 26.9956 11.2049L27.1803 11.1064C28.0507 10.6106 29.0817 10.4774 30.0499 10.7363C31.0248 10.997 31.8565 11.6339 32.3623 12.5072L32.6567 13.0156C33.1609 13.8898 33.2977 14.9283 33.037 15.9032C32.7772 16.8751 32.1435 17.7045 31.2745 18.2108L31.0814 18.3267L31.0648 18.3364C30.8322 18.4707 30.6393 18.664 30.5055 18.8968C30.3717 19.1296 30.3018 19.3936 30.3029 19.6621L30.3029 19.6667L30.3029 20.3333L30.3029 20.3379C30.3018 20.6064 30.3717 20.8704 30.5055 21.1032C30.6366 21.3312 30.8244 21.5214 31.0505 21.6552L31.2312 21.7516C31.243 21.7579 31.2546 21.7644 31.2662 21.7711C32.1395 22.2769 32.7763 23.1085 33.037 24.0834C33.2972 25.0565 33.1615 26.0928 32.6596 26.9659L32.3688 27.4815L32.3623 27.4928C31.8565 28.3661 31.0248 29.003 30.0499 29.2637C29.0817 29.5226 28.0507 29.3894 27.1803 28.8936L26.9956 28.7951C26.9843 28.789 26.973 28.7828 26.9619 28.7764C26.7303 28.6427 26.4675 28.5723 26.2 28.5723C25.9331 28.5723 25.6708 28.6424 25.4394 28.7757C25.439 28.7759 25.4386 28.7762 25.4381 28.7764L24.8678 29.108L24.8648 29.1097C24.6334 29.2434 24.4412 29.4355 24.3074 29.6668C24.1738 29.8979 24.1033 30.1601 24.1029 30.427C24.1029 30.4273 24.1029 30.4276 24.1029 30.4278L24.1029 30.6667C24.1029 31.677 23.7015 32.646 22.9871 33.3604C22.2727 34.0748 21.3037 34.4762 20.2934 34.4762H19.7067C18.6964 34.4762 17.7274 34.0748 17.013 33.3604C16.2985 32.646 15.8972 31.677 15.8972 30.6667L15.8972 30.4278C15.8972 30.4277 15.8972 30.428 15.8972 30.4278C15.8968 30.1608 15.8263 29.898 15.6926 29.6668C15.5589 29.4355 15.3667 29.2434 15.1353 29.1097L15.1323 29.108L14.5619 28.7764C14.5615 28.7762 14.5611 28.7759 14.5607 28.7757C14.3293 28.6424 14.067 28.5723 13.8 28.5723C13.5326 28.5723 13.2698 28.6427 13.0381 28.7764C13.027 28.7828 13.0158 28.789 13.0045 28.7951L12.8198 28.8936C11.9494 29.3894 10.9184 29.5226 9.95015 29.2637C8.97523 29.003 8.14358 28.3661 7.63776 27.4928L7.34342 26.9844C6.83916 26.1102 6.70236 25.0717 6.96305 24.0968C7.22292 23.1249 7.8566 22.2955 8.72561 21.7892L8.91871 21.6733L8.93529 21.6636C9.16783 21.5293 9.36076 21.336 9.49456 21.1032C9.62835 20.8704 9.69826 20.6064 9.69719 20.3379L9.69718 20.3333V19.6573C9.69507 19.3924 9.62393 19.1326 9.49077 18.9035C9.3571 18.6736 9.1656 18.4827 8.9353 18.3498C8.91404 18.3375 8.89319 18.3245 8.87276 18.3109L8.70006 18.1958C7.84418 17.6882 7.22037 16.8655 6.96305 15.9032C6.70236 14.9283 6.83916 13.8898 7.34342 13.0156L7.63765 12.5074C8.14346 11.6341 8.97523 10.997 9.95015 10.7363C10.9184 10.4774 11.9494 10.6106 12.8198 11.1064L13.0045 11.2049C13.0158 11.211 13.027 11.2172 13.0381 11.2236C13.2698 11.3573 13.5326 11.4277 13.8 11.4277C14.067 11.4277 14.3293 11.3576 14.5607 11.2243C14.5611 11.2241 14.5615 11.2238 14.5619 11.2236L15.1353 10.8903C15.3667 10.7566 15.5589 10.5645 15.6926 10.3332C15.8263 10.102 15.8968 9.83969 15.8972 9.57263C15.8972 9.57247 15.8972 9.57278 15.8972 9.57263V9.33334C15.8972 8.32299 16.2985 7.35402 17.013 6.63959ZM19.7067 7.80953C19.3026 7.80953 18.915 7.97007 18.6292 8.25584C18.3434 8.54161 18.1829 8.9292 18.1829 9.33334L18.1829 9.57451C18.1822 10.2426 18.0059 10.8987 17.6715 11.4771C17.3375 12.0549 16.8576 12.5348 16.2797 12.8688C16.2792 12.8691 16.2787 12.8694 16.2781 12.8697L15.7048 13.2031C15.1257 13.5374 14.4688 13.7135 13.8 13.7135C13.1383 13.7135 12.4881 13.5411 11.9134 13.2135L11.7289 13.1151C11.7177 13.1091 11.7066 13.103 11.6956 13.0966C11.346 12.8949 10.9306 12.8402 10.5406 12.9445C10.1507 13.0487 9.8181 13.3034 9.61577 13.6526L9.32333 14.1577C9.32319 14.158 9.32305 14.1582 9.32291 14.1585C9.12155 14.508 9.06698 14.9231 9.17118 15.3128C9.27546 15.7027 9.53022 16.0354 9.87952 16.2377C9.90029 16.2498 9.92068 16.2624 9.94065 16.2758L10.1127 16.3905C10.6731 16.7219 11.1393 17.1915 11.4668 17.7547C11.8009 18.3294 11.9789 18.9816 11.9829 19.6464L11.9829 19.6533L11.9829 20.3313C11.9851 21.0017 11.8104 21.6608 11.4763 22.2421C11.1436 22.8211 10.6645 23.3024 10.0872 23.6378L9.8947 23.7533L9.87952 23.7623C9.53021 23.9646 9.27546 24.2973 9.17118 24.6872C9.06699 25.0769 9.12154 25.492 9.32287 25.8415C9.32302 25.8417 9.32318 25.842 9.32333 25.8423L9.61565 26.3472C9.61569 26.3473 9.61561 26.3471 9.61565 26.3472C9.81798 26.6964 10.1507 26.9513 10.5406 27.0555C10.9306 27.1598 11.346 27.1051 11.6956 26.9034C11.7066 26.897 11.7177 26.8909 11.7289 26.8849L11.9134 26.7865C12.4881 26.4589 13.1383 26.2865 13.8 26.2865C14.4688 26.2865 15.1257 26.4626 15.7048 26.7969L15.7078 26.7987L16.2781 27.1303C16.2787 27.1306 16.2792 27.1309 16.2798 27.1312C16.8576 27.4652 17.3375 27.9451 17.6715 28.5229C18.0059 29.1013 18.1822 29.7574 18.1829 30.4255L18.1829 30.4267L18.1829 30.6667C18.1829 31.0708 18.3434 31.4584 18.6292 31.7442C18.915 32.0299 19.3026 32.1905 19.7067 32.1905H20.2934C20.6975 32.1905 21.0851 32.0299 21.3709 31.7442C21.6566 31.4584 21.8172 31.0708 21.8172 30.6667L21.8172 30.4255C21.8179 29.7574 21.9942 29.1013 22.3285 28.5229C22.6625 27.9452 23.1424 27.4653 23.7201 27.1313C23.7207 27.131 23.7213 27.1306 23.7219 27.1303L24.2923 26.7987L24.2953 26.7969C24.8744 26.4626 25.5313 26.2865 26.2 26.2865C26.8618 26.2865 27.512 26.4589 28.0867 26.7865L28.2712 26.8849C28.2824 26.8909 28.2934 26.897 28.3044 26.9034C28.6541 27.1051 29.0695 27.1598 29.4595 27.0555C29.8476 26.9517 30.179 26.6988 30.3816 26.352L30.6713 25.8385L30.6767 25.8289C30.8785 25.4793 30.9332 25.0639 30.8289 24.6739C30.7261 24.2895 30.4771 23.9607 30.1354 23.7577L29.9556 23.6617C29.9442 23.6557 29.933 23.6495 29.922 23.6431C29.3406 23.3074 28.8583 22.8242 28.5238 22.2421C28.1897 21.6608 28.0149 21.0016 28.0172 20.3312V19.6688C28.0149 18.9984 28.1897 18.3392 28.5238 17.7579C28.8565 17.1789 29.3356 16.6976 29.9129 16.3622L30.1054 16.2467L30.1206 16.2377C30.4699 16.0354 30.7246 15.7027 30.8289 15.3128C30.9331 14.9231 30.8785 14.508 30.6772 14.1585C30.6771 14.1583 30.6769 14.158 30.6767 14.1577L30.3844 13.6528C30.3844 13.6527 30.3845 13.6529 30.3844 13.6528C30.1821 13.3036 29.8494 13.0487 29.4595 12.9445C29.0695 12.8402 28.6541 12.8949 28.3044 13.0966C28.2934 13.103 28.2824 13.1091 28.2712 13.1151L28.0867 13.2135C27.512 13.5411 26.8618 13.7135 26.2 13.7135C25.5313 13.7135 24.8744 13.5374 24.2953 13.2031L24.2923 13.2013L23.7219 12.8697C23.7214 12.8694 23.7208 12.8691 23.7202 12.8688C23.1424 12.5348 22.6625 12.0549 22.3285 11.4771C21.9942 10.8987 21.8179 10.2426 21.8172 9.57451L21.8172 9.33334C21.8172 8.9292 21.6566 8.54161 21.3709 8.25584C21.0851 7.97007 20.6975 7.80953 20.2934 7.80953H19.7067ZM20 17.1429C18.4221 17.1429 17.1429 18.422 17.1429 20C17.1429 21.578 18.4221 22.8571 20 22.8571C21.578 22.8571 22.8572 21.578 22.8572 20C22.8572 18.422 21.578 17.1429 20 17.1429ZM14.8572 20C14.8572 17.1597 17.1597 14.8571 20 14.8571C22.8404 14.8571 25.1429 17.1597 25.1429 20C25.1429 22.8403 22.8404 25.1429 20 25.1429C17.1597 25.1429 14.8572 22.8403 14.8572 20Z" fill="url(#paint1_linear_830_8340)"/>
<defs>
<linearGradient id="paint0_linear_830_8340" x1="20" y1="0" x2="20" y2="40" gradientUnits="userSpaceOnUse">
<stop stop-color="#6B7280"/>
<stop offset="1" stop-color="#1F2937"/>
</linearGradient>
<linearGradient id="paint1_linear_830_8340" x1="20" y1="5.52381" x2="20" y2="34.4762" gradientUnits="userSpaceOnUse">
<stop stop-color="#F9FAFB"/>
<stop offset="1" stop-color="#9CA3AF"/>
</linearGradient>
</defs>
</svg>
