<svg width="48" height="48" viewBox="0 0 48 48" fill="none" xmlns="http://www.w3.org/2000/svg">
<rect width="48" height="48" rx="24" fill="#374151"/>
<g clip-path="url(#clip0_57_2065)">
<path d="M20 28L28 20" stroke="white" stroke-width="2" stroke-linecap="round" stroke-linejoin="round"/>
<path d="M22.6667 16L23.2841 15.2853C24.5345 14.0351 26.2303 13.3328 27.9986 13.3329C29.7668 13.333 31.4625 14.0356 32.7127 15.286C33.963 16.5364 34.6653 18.2322 34.6652 20.0005C34.665 21.7687 33.9625 23.4644 32.7121 24.7147L32.0001 25.3333" stroke="white" stroke-width="2" stroke-linecap="round" stroke-linejoin="round"/>
<path d="M25.3334 32L24.8041 32.712C23.5391 33.9629 21.8318 34.6645 20.0528 34.6645C18.2737 34.6645 16.5664 33.9629 15.3014 32.712C14.6779 32.0955 14.1829 31.3614 13.8451 30.5522C13.5072 29.743 13.3333 28.8749 13.3333 27.998C13.3333 27.1211 13.5072 26.253 13.8451 25.4438C14.1829 24.6346 14.6779 23.9005 15.3014 23.284L16.0001 22.6667" stroke="white" stroke-width="2" stroke-linecap="round" stroke-linejoin="round"/>
</g>
<defs>
<clipPath id="clip0_57_2065">
<rect width="32" height="32" fill="white" transform="translate(8 8)"/>
</clipPath>
</defs>
</svg>
