<svg width="32" height="32" viewBox="0 0 32 32" fill="none" xmlns="http://www.w3.org/2000/svg">
<g clip-path="url(#clip0_57_2066)">
<path d="M12 20L20 12" stroke="currentColor" stroke-width="2" stroke-linecap="round" stroke-linejoin="round"/>
<path d="M14.6667 7.99999L15.2841 7.28532C16.5345 6.03509 18.2303 5.33279 19.9986 5.33292C21.7668 5.33304 23.4625 6.03558 24.7127 7.28599C25.963 8.5364 26.6653 10.2322 26.6652 12.0005C26.665 13.7687 25.9625 15.4644 24.7121 16.7147L24.0001 17.3333" stroke="currentColor" stroke-width="2" stroke-linecap="round" stroke-linejoin="round"/>
<path d="M17.3334 24L16.8041 24.712C15.5391 25.9629 13.8318 26.6645 12.0528 26.6645C10.2737 26.6645 8.56644 25.9629 7.30144 24.712C6.67792 24.0955 6.1829 23.3614 5.84506 22.5522C5.50721 21.743 5.33325 20.8749 5.33325 19.998C5.33325 19.1211 5.50721 18.253 5.84506 17.4438C6.1829 16.6346 6.67792 15.9005 7.30144 15.284L8.00011 14.6667" stroke="currentColor" stroke-width="2" stroke-linecap="round" stroke-linejoin="round"/>
</g>
<defs>
<clipPath id="clip0_57_2066">
<rect width="32" height="32" fill="currentColor"/>
</clipPath>
</defs>
</svg>
