<svg width="28" height="28" viewBox="0 0 28 28" fill="none" xmlns="http://www.w3.org/2000/svg">
<path d="M23.9748 12.5259L17.7403 10.2597L15.4741 4.02521C15.3624 3.7243 15.1613 3.46477 14.8978 3.2815C14.6343 3.09823 14.321 3 14 3C13.679 3 13.3657 3.09823 13.1022 3.2815C12.8387 3.46477 12.6376 3.7243 12.5259 4.02521L10.2597 10.2597L4.02521 12.5259C3.7243 12.6376 3.46477 12.8387 3.2815 13.1022C3.09823 13.3657 3 13.679 3 14C3 14.321 3.09823 14.6343 3.2815 14.8978C3.46477 15.1613 3.7243 15.3624 4.02521 15.4741L10.2597 17.7413L12.5259 23.9748C12.6376 24.2757 12.8387 24.5352 13.1022 24.7185C13.3657 24.9018 13.679 25 14 25C14.321 25 14.6343 24.9018 14.8978 24.7185C15.1613 24.5352 15.3624 24.2757 15.4741 23.9748L17.7413 17.7403L23.9748 15.4741C24.2757 15.3624 24.5352 15.1613 24.7185 14.8978C24.9018 14.6343 25 14.321 25 14C25 13.679 24.9018 13.3657 24.7185 13.1022C24.5352 12.8387 24.2757 12.6376 23.9748 12.5259ZM16.8578 16.3881C16.75 16.4273 16.652 16.4897 16.5709 16.5709C16.4897 16.652 16.4273 16.75 16.3881 16.8578L14 23.4245L11.6119 16.8578C11.5727 16.75 11.5103 16.652 11.4291 16.5709C11.348 16.4897 11.25 16.4273 11.1422 16.3881L4.57555 14L11.1422 11.6119C11.25 11.5727 11.348 11.5103 11.4291 11.4291C11.5103 11.348 11.5727 11.25 11.6119 11.1422L14 4.57555L16.3881 11.1422C16.4273 11.25 16.4897 11.348 16.5709 11.4291C16.652 11.5103 16.75 11.5727 16.8578 11.6119L23.4245 14L16.8578 16.3881Z" fill="currentColor"/>
</svg>
