<svg width="32" height="32" viewBox="0 0 32 32" fill="none" xmlns="http://www.w3.org/2000/svg">
<path d="M3.33337 16C3.33337 10.0289 3.33337 7.04333 5.18836 5.18833C7.04336 3.33334 10.0289 3.33334 16 3.33334C21.9711 3.33334 24.9567 3.33334 26.8118 5.18833C28.6667 7.04333 28.6667 10.0289 28.6667 16C28.6667 21.9711 28.6667 24.9567 26.8118 26.8117C24.9567 28.6667 21.9711 28.6667 16 28.6667C10.0289 28.6667 7.04336 28.6667 5.18836 26.8117C3.33337 24.9567 3.33337 21.9711 3.33337 16Z" stroke="currentColor" stroke-width="2" stroke-linejoin="round"/>
<path d="M11.3334 13.3333C10.2288 13.3333 9.33337 12.4379 9.33337 11.3333C9.33337 10.2288 10.2288 9.33334 11.3334 9.33334C12.4379 9.33334 13.3334 10.2288 13.3334 11.3333C13.3334 12.4379 12.4379 13.3333 11.3334 13.3333Z" stroke="currentColor" stroke-width="2"/>
<path d="M20.6666 22.6667C21.7712 22.6667 22.6666 21.7712 22.6666 20.6667C22.6666 19.5621 21.7712 18.6667 20.6666 18.6667C19.5621 18.6667 18.6666 19.5621 18.6666 20.6667C18.6666 21.7712 19.5621 22.6667 20.6666 22.6667Z" stroke="currentColor" stroke-width="2"/>
<path d="M13.3334 11.3333H22.6667" stroke="currentColor" stroke-width="2" stroke-linecap="round"/>
<path d="M18.6667 20.6667H9.33337" stroke="currentColor" stroke-width="2" stroke-linecap="round"/>
</svg>
