<svg width="32" height="32" viewBox="0 0 32 32" fill="none" xmlns="http://www.w3.org/2000/svg">
<g clip-path="url(#clip0_57_2060)">
<path d="M4 16C4 17.5759 4.31039 19.1363 4.91345 20.5922C5.5165 22.0481 6.40042 23.371 7.51472 24.4853C8.62902 25.5996 9.95189 26.4835 11.4078 27.0866C12.8637 27.6896 14.4241 28 16 28C17.5759 28 19.1363 27.6896 20.5922 27.0866C22.0481 26.4835 23.371 25.5996 24.4853 24.4853C25.5996 23.371 26.4835 22.0481 27.0866 20.5922C27.6896 19.1363 28 17.5759 28 16C28 12.8174 26.7357 9.76516 24.4853 7.51472C22.2348 5.26428 19.1826 4 16 4C12.8174 4 9.76516 5.26428 7.51472 7.51472C5.26428 9.76516 4 12.8174 4 16Z" stroke="#E5E7EB" stroke-width="2" stroke-linecap="round" stroke-linejoin="round"/>
<path d="M16 21.3333V21.3467" stroke="#E5E7EB" stroke-width="2" stroke-linecap="round" stroke-linejoin="round"/>
<path d="M16 17.3333C16.5997 17.3351 17.1824 17.1348 17.6542 16.7646C18.126 16.3944 18.4592 15.876 18.6001 15.2931C18.7409 14.7102 18.6812 14.0968 18.4306 13.5521C18.1799 13.0073 17.753 12.5629 17.2187 12.2907C16.6882 12.0189 16.0815 11.9347 15.4971 12.0516C14.9127 12.1685 14.385 12.4798 14 12.9347" stroke="#E5E7EB" stroke-width="2" stroke-linecap="round" stroke-linejoin="round"/>
</g>
<defs>
<clipPath id="clip0_57_2060">
<rect width="32" height="32" fill="white"/>
</clipPath>
</defs>
</svg>
