<svg width="24" height="24" viewBox="0 0 24 24" fill="none" xmlns="http://www.w3.org/2000/svg">
<g opacity="0.7">
<path d="M8 20.064V11C8 9.895 8.895 9 10 9H20.487" stroke="white" stroke-width="1.5" stroke-linecap="round" stroke-linejoin="round"/>
<path d="M8 14H20.776" stroke="white" stroke-width="1.5" stroke-linecap="round" stroke-linejoin="round"/>
<path d="M11.0049 11.49C11.0019 11.49 10.9999 11.492 10.9999 11.495C10.9999 11.498 11.0019 11.5 11.0049 11.5C11.0079 11.5 11.0099 11.498 11.0099 11.495C11.0099 11.492 11.0079 11.49 11.0049 11.49" stroke="white" stroke-width="1.5" stroke-linecap="round" stroke-linejoin="round"/>
<path d="M13.5479 11.49C13.5449 11.49 13.5429 11.492 13.5429 11.495C13.5429 11.498 13.5449 11.5 13.5479 11.5C13.5509 11.5 13.5529 11.498 13.5529 11.495C13.5529 11.492 13.5509 11.49 13.5479 11.49" stroke="white" stroke-width="1.5" stroke-linecap="round" stroke-linejoin="round"/>
<path fill-rule="evenodd" clip-rule="evenodd" d="M12 21V21C16.971 21 21 16.971 21 12V12C21 7.029 16.971 3 12 3V3C7.029 3 3 7.029 3 12V12C3 16.971 7.029 21 12 21Z" stroke="white" stroke-width="1.5" stroke-linecap="round" stroke-linejoin="round"/>
<path d="M16.0879 11.49C16.0849 11.49 16.0829 11.492 16.0829 11.495C16.0829 11.498 16.0849 11.5 16.0879 11.5C16.0909 11.5 16.0929 11.498 16.0929 11.495C16.0929 11.492 16.0899 11.49 16.0879 11.49" stroke="white" stroke-width="1.5" stroke-linecap="round" stroke-linejoin="round"/>
</g>
</svg>
