<svg width="48" height="48" viewBox="0 0 48 48" fill="none" xmlns="http://www.w3.org/2000/svg">
<rect width="48" height="48" rx="24" fill="#374151"/>
<path d="M11.3333 24C11.3333 18.0289 11.3333 15.0433 13.1882 13.1883C15.0432 11.3333 18.0288 11.3333 23.9999 11.3333C29.971 11.3333 32.9566 11.3333 34.8117 13.1883C36.6666 15.0433 36.6666 18.0289 36.6666 24C36.6666 29.9711 36.6666 32.9567 34.8117 34.8117C32.9566 36.6667 29.971 36.6667 23.9999 36.6667C18.0288 36.6667 15.0432 36.6667 13.1882 34.8117C11.3333 32.9567 11.3333 29.9711 11.3333 24Z" stroke="#E5E7EB" stroke-width="2" stroke-linejoin="round"/>
<path d="M19.3333 21.3333C18.2287 21.3333 17.3333 20.4379 17.3333 19.3333C17.3333 18.2288 18.2287 17.3333 19.3333 17.3333C20.4378 17.3333 21.3333 18.2288 21.3333 19.3333C21.3333 20.4379 20.4378 21.3333 19.3333 21.3333Z" stroke="#E5E7EB" stroke-width="2"/>
<path d="M28.6667 30.6667C29.7713 30.6667 30.6667 29.7712 30.6667 28.6667C30.6667 27.5621 29.7713 26.6667 28.6667 26.6667C27.5622 26.6667 26.6667 27.5621 26.6667 28.6667C26.6667 29.7712 27.5622 30.6667 28.6667 30.6667Z" stroke="#E5E7EB" stroke-width="2"/>
<path d="M21.3333 19.3333H30.6666" stroke="#E5E7EB" stroke-width="2" stroke-linecap="round"/>
<path d="M26.6666 28.6667H17.3333" stroke="#E5E7EB" stroke-width="2" stroke-linecap="round"/>
</svg>
