<svg width="320" height="320" viewBox="0 0 320 320" fill="none" xmlns="http://www.w3.org/2000/svg">
<g clip-path="url(#clip0_922_6563)">
<path d="M160 0C281.326 0 320 38.6737 320 160C320 281.326 281.326 320 160 320C38.6736 320 0 281.326 0 160C0 38.6737 38.6736 0 160 0Z" fill="url(#paint0_linear_922_6563)"/>
<g clip-path="url(#clip1_922_6563)">
<g opacity="0.8">
<path d="M184.186 115.515C186.944 115.32 189.093 112.972 188.88 110.215C185.678 68.7213 167.202 55 119.401 55C66.3211 55 49.4014 71.9197 49.4014 125C49.4014 178.08 62.3211 195 115.401 195C118 195 120 193 120 190.397C120.045 169.553 122.402 157.624 127.975 145.705C129.779 141.848 127.013 136.816 122.766 137.117C122.155 137.16 121.546 137.204 120.937 137.25C115.979 137.583 111 138 106 138.5C104.208 138.667 103.083 139.625 102.625 141.375L99.8123 151.688C99.0623 154.438 97.3956 155.813 94.8123 155.812H93.8123L91.8748 155.562C90.4581 155.437 89.3748 155 88.6248 154.25C87.9164 153.5 87.5623 152.521 87.5623 151.312C87.5623 151.062 87.5831 150.792 87.6248 150.5C87.6664 150.208 87.7289 149.896 87.8123 149.562C88.0206 148.729 88.2289 147.875 88.4373 147C88.6873 146.125 88.9373 145.271 89.1873 144.438C89.2706 144.104 89.3331 143.812 89.3748 143.562C89.4164 143.271 89.4373 143 89.4373 142.75C89.4373 141.458 88.9373 140.813 87.9373 140.812H87.1248C86.4164 140.812 85.8748 140.458 85.4998 139.75C85.1664 139.042 84.9998 138.042 84.9998 136.75V136.062C84.9998 135.771 85.0414 135.229 85.1248 134.438C85.2498 131.438 86.7289 129.687 89.5623 129.188L90.9998 129.062C91.9581 128.938 92.7081 128.646 93.2498 128.188C93.7914 127.688 94.1873 127 94.4373 126.125C95.1456 123.75 95.8539 121.354 96.5623 118.938C97.2706 116.521 98.0206 114.125 98.8123 111.75C99.2289 110.417 99.6456 109 100.062 107.5C100.521 105.958 101 104.438 101.5 102.938C102.041 101.438 102.646 99.9583 103.312 98.5C104.021 97.0417 104.812 95.7083 105.687 94.5C106.062 94 106.583 93.4792 107.25 92.9375C107.916 92.3958 108.666 91.9167 109.5 91.5C110.375 91.0417 111.291 90.6875 112.25 90.4375C113.25 90.1458 114.229 90 115.187 90C116.437 90 117.666 90.3958 118.875 91.1875C120.5 92.3125 122.104 93.6667 123.687 95.25C125.271 96.8333 127.041 98.8542 129 101.312C130.958 103.771 133.229 106.75 135.812 110.25C138.396 113.708 141.5 117.896 145.125 122.812C145.666 123.438 146.229 123.917 146.812 124.25C147.317 124.486 147.898 124.384 148.391 124.124C157.589 119.277 169.362 116.566 184.186 115.515Z" fill="url(#paint1_linear_922_6563)"/>
<path d="M117.104 108.088C116.952 107.905 116.786 107.732 116.606 107.575C116.295 107.303 116.01 107.07 115.75 106.875C115.416 106.625 115.062 106.5 114.687 106.5C113.646 106.5 112.916 107.229 112.5 108.688C111.666 111.146 110.854 113.583 110.062 116C109.312 118.375 108.541 120.812 107.75 123.312C107.666 123.521 107.625 123.708 107.625 123.875V124.438C107.625 125.979 108.437 126.75 110.062 126.75H110.687C113.187 126.417 115.687 126.167 118.187 126C120.687 125.792 123.187 125.625 125.687 125.5C126.521 125.417 127.166 125.208 127.625 124.875C128.125 124.5 128.375 124.021 128.375 123.438C128.375 122.896 128.125 122.25 127.625 121.5C125.875 119.167 124.104 116.875 122.312 114.625C120.634 112.427 118.898 110.248 117.104 108.088Z" fill="url(#paint2_linear_922_6563)"/>
</g>
<path fill-rule="evenodd" clip-rule="evenodd" d="M270 195C270 141.92 253.08 125 200 125C146.92 125 130 141.92 130 195C130 248.08 146.92 265 200 265C253.08 265 270 248.08 270 195ZM189.562 178.312C190.521 178.146 191.167 178.062 191.5 178.062C193.208 178.062 194.062 179.083 194.062 181.125C194.062 182.583 194.083 184 194.125 185.375C194.167 186.75 194.229 188.021 194.312 189.188C194.562 196.396 195.125 203.562 196 210.688C196.875 217.771 197.896 224.896 199.062 232.062C199.271 233.396 199.708 234.396 200.375 235.062C201.042 235.771 201.917 236.125 203 236.125C203.708 236.125 204.438 236 205.188 235.75L208 234.875C210.583 233.917 211.875 232.292 211.875 230V229.375C211.875 229.167 211.833 228.958 211.75 228.75C210.833 222.75 209.979 216.812 209.188 210.938C208.438 205.062 207.875 199.125 207.5 193.125C207.375 191.375 207.229 189.625 207.062 187.875C206.938 186.125 206.875 184.375 206.875 182.625V180.312C206.917 179.479 207 178.667 207.125 177.875C207.25 177.042 207.521 176.354 207.938 175.812C208.354 175.229 208.979 174.812 209.812 174.562C211.812 173.979 214.167 173.458 216.875 173C219.583 172.5 222.125 172.083 224.5 171.75C225.417 171.667 226.167 171.438 226.75 171.062C227.333 170.688 227.792 170.208 228.125 169.625C228.458 169.042 228.688 168.396 228.812 167.688C228.938 166.938 229 166.167 229 165.375C229 163.833 228.646 162.646 227.938 161.812C227.271 160.938 226.271 160.5 224.938 160.5C223.854 160.5 222.646 160.583 221.312 160.75C220.021 160.917 218.667 161.125 217.25 161.375C215.875 161.625 214.5 161.917 213.125 162.25C211.75 162.542 210.479 162.854 209.312 163.188C208.229 163.521 207.25 163.792 206.375 164C205.5 164.167 204.521 164.354 203.438 164.562C198.521 165.479 193.646 166.354 188.812 167.188C183.979 168.021 179.125 168.812 174.25 169.562C173.292 169.729 172.5 170.042 171.875 170.5C171.25 170.958 170.75 171.521 170.375 172.188C170 172.812 169.75 173.521 169.625 174.312C169.458 175.062 169.375 175.833 169.375 176.625C169.375 179.542 170.771 181 173.562 181C173.854 181 174.458 180.938 175.375 180.812C176.25 180.646 177.292 180.458 178.5 180.25C179.708 180.042 181 179.812 182.375 179.562C183.75 179.271 185.062 179.021 186.312 178.812C187.562 178.604 188.646 178.438 189.562 178.312Z" fill="url(#paint3_linear_922_6563)"/>
</g>
</g>
<defs>
<linearGradient id="paint0_linear_922_6563" x1="160" y1="0" x2="160" y2="320" gradientUnits="userSpaceOnUse">
<stop stop-color="#FB7185"/>
<stop offset="1" stop-color="#E11D48"/>
</linearGradient>
<linearGradient id="paint1_linear_922_6563" x1="119.148" y1="55" x2="119.148" y2="195" gradientUnits="userSpaceOnUse">
<stop stop-color="white"/>
<stop offset="1" stop-color="#FECDD3"/>
</linearGradient>
<linearGradient id="paint2_linear_922_6563" x1="119.148" y1="55" x2="119.148" y2="195" gradientUnits="userSpaceOnUse">
<stop stop-color="white"/>
<stop offset="1" stop-color="#FECDD3"/>
</linearGradient>
<linearGradient id="paint3_linear_922_6563" x1="200" y1="125" x2="200" y2="265" gradientUnits="userSpaceOnUse">
<stop stop-color="white"/>
<stop offset="1" stop-color="#FECDD3"/>
</linearGradient>
<clipPath id="clip0_922_6563">
<rect width="320" height="320" fill="white"/>
</clipPath>
<clipPath id="clip1_922_6563">
<rect width="240" height="240" fill="white" transform="translate(40 40)"/>
</clipPath>
</defs>
</svg>
