<svg width="80" height="80" viewBox="0 0 80 80" fill="none" xmlns="http://www.w3.org/2000/svg">
<rect width="80" height="80" fill="url(#paint0_linear_944_2123)"/>
<path d="M16.3431 17.3431C14 19.6863 14 23.4575 14 31V51C14 58.5425 14 62.3137 16.3431 64.6569C18.6863 67 22.4575 67 30 67H50C50.0945 67 50.1884 67 50.2818 67C52.4797 66.9999 53.5186 64.4181 51.9645 62.8639C51.2466 62.1461 50.173 61.9443 49.201 62.2372C47.5544 62.7333 45.8084 63 44 63C34.0589 63 26 54.9411 26 45C26 35.0589 34.0589 27 44 27C53.9411 27 62 35.0589 62 45C62 46.8084 61.7333 48.5544 61.2372 50.201C60.9443 51.173 61.1461 52.2466 61.8639 52.9645C63.4181 54.5186 65.9999 53.4797 66 51.2818C66 51.1884 66 51.0945 66 51V31C66 23.4575 66 19.6863 63.6569 17.3431C61.3137 15 57.5425 15 50 15H30C22.4575 15 18.6863 15 16.3431 17.3431Z" fill="black" fill-opacity="0.2"/>
<path fill-rule="evenodd" clip-rule="evenodd" d="M51.5495 56.7921C49.3712 58.1896 46.7802 59 44 59C36.268 59 30 52.732 30 45C30 37.268 36.268 31 44 31C51.732 31 58 37.268 58 45C58 47.7802 57.1896 50.3712 55.7921 52.5495L62.8492 59.6066C64.0208 60.7782 64.0208 62.6777 62.8492 63.8492C61.6777 65.0208 59.7782 65.0208 58.6066 63.8492L51.5495 56.7921ZM52 45C52 49.4183 48.4183 53 44 53C39.5817 53 36 49.4183 36 45C36 40.5817 39.5817 37 44 37C48.4183 37 52 40.5817 52 45Z" fill="black" fill-opacity="0.2"/>
<path fill-rule="evenodd" clip-rule="evenodd" d="M16.3431 16.3431C14 18.6863 14 22.4575 14 30V50C14 57.5425 14 61.3137 16.3431 63.6569C18.6863 66 22.4575 66 30 66H50C50.0945 66 50.1884 66 50.2818 66C52.4797 65.9999 53.5186 63.4181 51.9645 61.8639V61.8639C51.2466 61.1461 50.173 60.9443 49.201 61.2372C47.5544 61.7333 45.8084 62 44 62C34.0589 62 26 53.9411 26 44C26 34.0589 34.0589 26 44 26C53.9411 26 62 34.0589 62 44C62 45.8084 61.7333 47.5544 61.2372 49.201C60.9443 50.173 61.1461 51.2466 61.8639 51.9645V51.9645C63.4181 53.5186 65.9999 52.4797 66 50.2818C66 50.1884 66 50.0945 66 50V30C66 22.4575 66 18.6863 63.6569 16.3431C61.3137 14 57.5425 14 50 14H30C22.4575 14 18.6863 14 16.3431 16.3431Z" fill="url(#paint1_linear_944_2123)"/>
<path fill-rule="evenodd" clip-rule="evenodd" d="M51.5495 55.7921C49.3712 57.1896 46.7802 58 44 58C36.268 58 30 51.732 30 44C30 36.268 36.268 30 44 30C51.732 30 58 36.268 58 44C58 46.7802 57.1896 49.3712 55.7921 51.5495L62.8492 58.6066C64.0208 59.7782 64.0208 61.6777 62.8492 62.8492C61.6777 64.0208 59.7782 64.0208 58.6066 62.8492L51.5495 55.7921ZM52 44C52 48.4183 48.4183 52 44 52C39.5817 52 36 48.4183 36 44C36 39.5817 39.5817 36 44 36C48.4183 36 52 39.5817 52 44Z" fill="url(#paint2_linear_944_2123)"/>
<defs>
<linearGradient id="paint0_linear_944_2123" x1="40" y1="0" x2="40" y2="80" gradientUnits="userSpaceOnUse">
<stop stop-color="#6B7280"/>
<stop offset="1" stop-color="#1F2937"/>
</linearGradient>
<linearGradient id="paint1_linear_944_2123" x1="40" y1="14" x2="40" y2="66" gradientUnits="userSpaceOnUse">
<stop stop-color="#F9FAFB"/>
<stop offset="1" stop-color="#9CA3AF"/>
</linearGradient>
<linearGradient id="paint2_linear_944_2123" x1="46.864" y1="30" x2="46.864" y2="63.7279" gradientUnits="userSpaceOnUse">
<stop stop-color="#FCD34D"/>
<stop offset="1" stop-color="#EA580C"/>
</linearGradient>
</defs>
</svg>
