<svg width="48" height="48" viewBox="0 0 48 48" fill="none" xmlns="http://www.w3.org/2000/svg">
<rect width="48" height="48" fill="url(#paint0_linear_221_2491)"/>
<path d="M9.75 24C9.75 17.2825 9.75 13.9237 11.8369 11.8369C13.9237 9.75 17.2825 9.75 24 9.75C30.7175 9.75 34.0763 9.75 36.1632 11.8369C38.25 13.9237 38.25 17.2825 38.25 24C38.25 30.7175 38.25 34.0763 36.1632 36.1632C34.0763 38.25 30.7175 38.25 24 38.25C17.2825 38.25 13.9237 38.25 11.8369 36.1632C9.75 34.0763 9.75 30.7175 9.75 24Z" stroke="white" stroke-width="2.25"/>
<path d="M15 26.25L17.25 19.5L20.0625 26.25M15 26.25L14.25 28.5M15 26.25H20.0625M20.0625 26.25L21 28.5" stroke="white" stroke-width="2.25" stroke-linecap="round" stroke-linejoin="round"/>
<path d="M24.75 24V20.55C24.75 20.2708 24.75 20.1312 24.7867 20.0182C24.8608 19.7899 25.0399 19.6109 25.2682 19.5367C25.3812 19.5 25.5208 19.5 25.8 19.5H27.75C28.9926 19.5 30 20.5074 30 21.75C30 22.9926 28.9926 24 27.75 24H24.75ZM24.75 24V28.5" stroke="white" stroke-width="2.25" stroke-linecap="round" stroke-linejoin="round"/>
<path d="M33.75 19.5V28.5" stroke="white" stroke-width="2.25" stroke-linecap="round" stroke-linejoin="round"/>
<defs>
<linearGradient id="paint0_linear_221_2491" x1="24" y1="0" x2="24" y2="48" gradientUnits="userSpaceOnUse">
<stop stop-color="#71717A"/>
<stop offset="1" stop-color="#52525B"/>
</linearGradient>
</defs>
</svg>
