<svg width="320" height="320" viewBox="0 0 320 320" fill="none" xmlns="http://www.w3.org/2000/svg">
<g clip-path="url(#clip0_1023_7288)">
<path d="M160 0C281.326 0 320 38.6737 320 160C320 281.326 281.326 320 160 320C38.6736 320 0 281.326 0 160C0 38.6737 38.6736 0 160 0Z" fill="url(#paint0_linear_1023_7288)"/>
<path d="M160 2C220.573 2 259.85 11.6833 284.083 35.9168C308.317 60.1504 318 99.4272 318 160C318 220.573 308.317 259.85 284.083 284.083C259.85 308.317 220.573 318 160 318C99.4272 318 60.1504 308.317 35.9168 284.083C11.6833 259.85 2 220.573 2 160C2 99.4272 11.6833 60.1504 35.9168 35.9168C60.1504 11.6833 99.4272 2 160 2Z" stroke="#F8FAFC" stroke-opacity="0.2" stroke-width="4"/>
<g clip-path="url(#clip1_1023_7288)">
<path fill-rule="evenodd" clip-rule="evenodd" d="M260 160C260 84.1711 235.829 60 160 60C84.171 60 60 84.1711 60 160C60 235.829 84.171 260 160 260C235.829 260 260 235.829 260 160ZM224.768 118.164C240.362 133.758 234.397 149.665 200.089 183.974C185.282 198.781 173.902 208.309 164.496 213.102C150.934 222.61 137.193 216.558 112.506 191.871C84.4356 163.801 80.4589 149.882 96.0536 134.287C110.093 120.248 122.774 122.071 145.644 143.055C149.431 146.529 155.324 146.476 158.958 142.843C193.266 108.534 209.173 102.569 224.768 118.164Z" fill="url(#paint1_linear_1023_7288)"/>
<path fill-rule="evenodd" clip-rule="evenodd" d="M192.862 174.419C220.932 146.349 226.897 134.419 217.541 125.062C208.184 115.705 196.253 121.67 168.183 149.741C165.407 152.517 162.847 155.135 160.497 157.609C156.405 161.914 149.449 162.001 145.249 157.801V157.801C123.417 135.969 113.475 131.992 104.118 141.349C94.7611 150.706 98.7378 160.648 120.57 182.48C138.106 200.016 147.971 206.033 156.023 202.873C156.507 202.684 156.993 202.498 157.487 202.335C165.574 199.672 176.464 190.818 192.862 174.419Z" fill="url(#paint2_linear_1023_7288)"/>
</g>
</g>
<defs>
<linearGradient id="paint0_linear_1023_7288" x1="160" y1="0" x2="160" y2="320" gradientUnits="userSpaceOnUse">
<stop stop-color="#475569"/>
<stop offset="1" stop-color="#1E293B"/>
</linearGradient>
<linearGradient id="paint1_linear_1023_7288" x1="160" y1="60" x2="160" y2="260" gradientUnits="userSpaceOnUse">
<stop stop-color="#2DD4BF"/>
<stop offset="1" stop-color="#0D9488"/>
</linearGradient>
<linearGradient id="paint2_linear_1023_7288" x1="160.512" y1="120.952" x2="160.512" y2="203.678" gradientUnits="userSpaceOnUse">
<stop stop-color="#FB923C"/>
<stop offset="1" stop-color="#EA580C"/>
</linearGradient>
<clipPath id="clip0_1023_7288">
<rect width="320" height="320" fill="white"/>
</clipPath>
<clipPath id="clip1_1023_7288">
<rect width="240" height="240" fill="white" transform="translate(40 40)"/>
</clipPath>
</defs>
</svg>
