<?xml version="1.0" encoding="utf-8"?>
<!-- Generator: Adobe Illustrator 20.1.0, SVG Export Plug-In . SVG Version: 6.00 Build 0)  -->
<svg version="1.1" id="Слой_1" xmlns="http://www.w3.org/2000/svg" xmlns:xlink="http://www.w3.org/1999/xlink" x="0px" y="0px"
	 viewBox="0 0 64 64" style="enable-background:new 0 0 64 64;" xml:space="preserve">
<style type="text/css">
	.st0{fill:#738088;}
	.st1{fill:#FFFFFF;}
</style>
<title>developer</title>
<desc>Created with Sketch.</desc>
<g id="Page-1">
	<g id="Artboard" transform="translate(-340.000000, -184.000000)">
		<g id="developer" transform="translate(340.000000, 184.000000)">
			<g id="Path">
				<path id="path-1_1_" class="st0" d="M32,64c14,0,21.8,0,26.9-5.1C64,53.8,64,46,64,32s0-21.8-5.1-26.9C53.8,0,46,0,32,0
					S10.2,0,5.1,5.1C0,10.2,0,18,0,32s0,21.8,5.1,26.9C10.2,64,18,64,32,64z"/>
			</g>
		</g>
	</g>
</g>
<g>
	<path class="st1" d="M39.4,8.1C30.4,8.1,23,15.5,23,24.6c0,3.7,1.3,7.2,3.4,10L23,37.9c0,0,0,0-0.1,0.1c-0.3-0.1-0.6-0.1-0.8-0.1
		c-1.1,0-2.1,0.4-2.9,1.2L9.3,49c-0.8,0.8-1.2,1.8-1.2,2.9s0.4,2.1,1.2,2.9c0.8,0.8,1.8,1.2,2.9,1.2s2.1-0.4,2.9-1.2l9.9-9.9
		c0.8-0.8,1.2-1.8,1.2-2.9c0-0.3,0-0.6-0.1-0.8c0,0,0,0,0.1-0.1l3.3-3.3c2.8,2.1,6.2,3.4,10,3.4c9.1,0,16.5-7.4,16.5-16.5
		S48.5,8.1,39.4,8.1z M13.9,53.6c-0.5,0.5-1.1,0.7-1.8,0.7c-0.7,0-1.3-0.3-1.8-0.7c-0.5-0.5-0.7-1.1-0.7-1.8s0.3-1.3,0.7-1.8l9-9
		l3.6,3.6L13.9,53.6z M24,43.6L20.4,40c0.5-0.4,1.1-0.6,1.6-0.6c0.6,0,1.3,0.2,1.8,0.7c0.5,0.5,0.7,1.1,0.7,1.8
		C24.6,42.5,24.4,43.1,24,43.6z M25.4,39.6c-0.1-0.2-0.3-0.4-0.4-0.5c-0.2-0.2-0.3-0.3-0.5-0.4l2.9-2.9c0.3,0.3,0.6,0.7,1,1
		L25.4,39.6z M39.4,39.5c-8.2,0-14.9-6.7-14.9-14.9S31.2,9.6,39.4,9.6s14.9,6.7,14.9,14.9S47.7,39.5,39.4,39.5z"/>
	<path class="st1" d="M39.4,11.4c-7.3,0-13.2,5.9-13.2,13.2s5.9,13.2,13.2,13.2s13.2-5.9,13.2-13.2S46.7,11.4,39.4,11.4z M39.4,36.2
		c-6.4,0-11.6-5.2-11.6-11.6S33,12.9,39.4,12.9s11.6,5.2,11.6,11.6S45.9,36.2,39.4,36.2z"/>
	<path class="st1" d="M44.8,16.3c-0.4-0.2-0.8-0.1-1.1,0.2c-0.2,0.4-0.1,0.8,0.2,1.1c2.4,1.5,3.8,4.2,3.8,7c0,1.9-0.7,3.8-1.9,5.3
		c-0.3,0.3-0.2,0.8,0.1,1.1c0.1,0.1,0.3,0.2,0.5,0.2c0.2,0,0.4-0.1,0.6-0.3c1.5-1.8,2.3-4,2.3-6.3C49.3,21.2,47.6,18.1,44.8,16.3z"
		/>
	<path class="st1" d="M41.2,14.8c-0.6-0.1-1.2-0.2-1.8-0.2c-0.4,0-0.8,0.3-0.8,0.8s0.3,0.8,0.8,0.8c0.5,0,1,0,1.5,0.1
		c0,0,0.1,0,0.1,0c0.4,0,0.7-0.3,0.8-0.6C41.9,15.3,41.7,14.9,41.2,14.8z"/>
</g>
</svg>
