<svg width="80" height="80" viewBox="0 0 80 80" fill="none" xmlns="http://www.w3.org/2000/svg">
<rect width="80" height="80" fill="url(#paint0_linear_944_3463)"/>
<path d="M44.2 55.6C44.2 55.0083 43.6321 54.5373 43.0546 54.6658C42.0713 54.8846 41.0491 55 39.9999 55C32.2679 55 26 48.732 26 41C26 33.268 32.2679 27 39.9999 27C41.0491 27 42.0713 27.1154 43.0546 27.3342C43.6321 27.4627 44.2 26.9917 44.2 26.4C44.2 24.0988 44.9773 21.9791 46.2837 20.2892C46.7435 19.6944 46.9416 18.9185 46.7056 18.2046L46.5362 17.6924C45.9506 15.9103 45.6578 15.0193 44.9607 14.5097C44.2639 14 43.3381 14 41.4863 14H38.5135C36.6621 14 35.7362 14 35.0392 14.5097C34.3422 15.0193 34.0494 15.9103 33.4639 17.6924L32.5734 20.3853C32.1657 21.4615 31.4292 22.3771 30.4716 22.9981L29.5733 23.5229C28.4566 24.1038 27.1735 24.2658 25.9506 23.9802L22.6966 23.0522C20.7811 22.5018 19.8233 22.2267 18.9764 22.5754C18.1296 22.9241 17.6318 23.7988 16.6364 25.5479L15.3202 27.8607C14.3871 29.5003 13.9205 30.3201 14.0111 31.1927C14.1016 32.0654 14.7263 32.7688 15.9754 34.1752L18.7248 37.2875C19.3968 38.1488 19.8739 39.65 19.8739 40.9997C19.8739 42.35 19.3969 43.8506 18.7249 44.7122L15.9754 47.8245L15.9741 47.8259C14.7258 49.2317 14.1016 49.9346 14.0111 50.8072C13.9205 51.6798 14.3871 52.4996 15.3201 54.1389L16.6369 56.4528C17.632 58.2012 18.1297 59.0757 18.9764 59.4243C19.8233 59.7731 20.7811 59.498 22.6967 58.9474L25.9505 58.0194C27.1736 57.7338 28.457 57.8961 29.5737 58.4771L30.472 59.002C31.4293 59.623 32.1657 60.5383 32.5733 61.6145L33.4639 64.3078C34.0494 66.0898 34.3422 66.9807 35.0392 67.4905C35.7362 68 36.6621 68 38.5135 68H41.4863C43.3381 68 44.2639 68 44.9607 67.4905C45.6578 66.9807 45.9506 66.0898 46.5362 64.3078L46.7056 63.7956C46.9417 63.0817 46.7436 62.3057 46.2837 61.7108C44.9773 60.0209 44.2 57.9012 44.2 55.6Z" fill="black" fill-opacity="0.2"/>
<path d="M67 41C67 44.3137 64.3137 47 61 47C57.6863 47 55 44.3137 55 41C55 37.6863 57.6863 35 61 35C64.3137 35 67 37.6863 67 41Z" fill="black" fill-opacity="0.2"/>
<path d="M61 27C61 30.3137 58.3137 33 55 33C51.6863 33 49 30.3137 49 27C49 23.6863 51.6863 21 55 21C58.3137 21 61 23.6863 61 27Z" fill="black" fill-opacity="0.2"/>
<path d="M61 55C61 58.3137 58.3137 61 55 61C51.6863 61 49 58.3137 49 55C49 51.6863 51.6863 49 55 49C58.3137 49 61 51.6863 61 55Z" fill="black" fill-opacity="0.2"/>
<path d="M50 41C50 46.5228 45.5228 51 40 51C34.4772 51 30 46.5228 30 41C30 35.4772 34.4772 31 40 31C45.5228 31 50 35.4772 50 41Z" fill="black" fill-opacity="0.2"/>
<path d="M44.2 54.6C44.2 54.0083 43.6321 53.5373 43.0546 53.6658C42.0713 53.8846 41.0491 54 39.9999 54C32.2679 54 26 47.732 26 40C26 32.268 32.2679 26 39.9999 26C41.0491 26 42.0713 26.1154 43.0546 26.3342C43.6321 26.4627 44.2 25.9917 44.2 25.4C44.2 23.0988 44.9773 20.9791 46.2837 19.2892C46.7435 18.6944 46.9416 17.9185 46.7056 17.2046L46.5362 16.6924C45.9506 14.9103 45.6578 14.0193 44.9607 13.5097C44.2639 13 43.3381 13 41.4863 13H38.5135C36.6621 13 35.7362 13 35.0392 13.5097C34.3422 14.0193 34.0494 14.9103 33.4639 16.6924L32.5734 19.3853C32.1657 20.4615 31.4292 21.3771 30.4716 21.9981L29.5733 22.5229C28.4566 23.1038 27.1735 23.2658 25.9506 22.9802L22.6966 22.0522C20.7811 21.5018 19.8233 21.2267 18.9764 21.5754C18.1296 21.9241 17.6318 22.7988 16.6364 24.5479L15.3202 26.8607C14.3871 28.5003 13.9205 29.3201 14.0111 30.1927C14.1016 31.0654 14.7263 31.7688 15.9754 33.1752L18.7248 36.2875C19.3968 37.1488 19.8739 38.65 19.8739 39.9997C19.8739 41.35 19.3969 42.8506 18.7249 43.7122L15.9754 46.8245L15.9741 46.8259C14.7258 48.2317 14.1016 48.9346 14.0111 49.8072C13.9205 50.6798 14.3871 51.4996 15.3201 53.1389L16.6369 55.4528C17.632 57.2012 18.1297 58.0757 18.9764 58.4243C19.8233 58.7731 20.7811 58.498 22.6967 57.9474L25.9505 57.0194C27.1736 56.7338 28.457 56.8961 29.5737 57.4771L30.472 58.002C31.4293 58.623 32.1657 59.5383 32.5733 60.6145L33.4639 63.3078C34.0494 65.0898 34.3422 65.9807 35.0392 66.4905C35.7362 67 36.6621 67 38.5135 67H41.4863C43.3381 67 44.2639 67 44.9607 66.4905C45.6578 65.9807 45.9506 65.0898 46.5362 63.3078L46.7056 62.7956C46.9417 62.0817 46.7436 61.3057 46.2837 60.7108C44.9773 59.0209 44.2 56.9012 44.2 54.6Z" fill="url(#paint1_linear_944_3463)"/>
<circle cx="61" cy="40" r="6" fill="url(#paint2_linear_944_3463)"/>
<circle cx="55" cy="26" r="6" fill="url(#paint3_linear_944_3463)"/>
<circle cx="55" cy="54" r="6" fill="url(#paint4_linear_944_3463)"/>
<circle cx="40" cy="40" r="10" fill="url(#paint5_linear_944_3463)"/>
<defs>
<linearGradient id="paint0_linear_944_3463" x1="40" y1="0" x2="40" y2="80" gradientUnits="userSpaceOnUse">
<stop stop-color="#6B7280"/>
<stop offset="1" stop-color="#1F2937"/>
</linearGradient>
<linearGradient id="paint1_linear_944_3463" x1="30.5451" y1="13" x2="30.5451" y2="67" gradientUnits="userSpaceOnUse">
<stop stop-color="#F9FAFB"/>
<stop offset="1" stop-color="#9CA3AF"/>
</linearGradient>
<linearGradient id="paint2_linear_944_3463" x1="61" y1="34" x2="61" y2="46" gradientUnits="userSpaceOnUse">
<stop stop-color="#FDE68A"/>
<stop offset="1" stop-color="#D97706"/>
</linearGradient>
<linearGradient id="paint3_linear_944_3463" x1="55" y1="20" x2="55" y2="32" gradientUnits="userSpaceOnUse">
<stop stop-color="#FDE68A"/>
<stop offset="1" stop-color="#D97706"/>
</linearGradient>
<linearGradient id="paint4_linear_944_3463" x1="55" y1="48" x2="55" y2="60" gradientUnits="userSpaceOnUse">
<stop stop-color="#FDE68A"/>
<stop offset="1" stop-color="#D97706"/>
</linearGradient>
<linearGradient id="paint5_linear_944_3463" x1="40" y1="30" x2="40" y2="50" gradientUnits="userSpaceOnUse">
<stop stop-color="#F9FAFB"/>
<stop offset="1" stop-color="#9CA3AF"/>
</linearGradient>
</defs>
</svg>
