<svg width="48" height="48" viewBox="0 0 48 48" fill="none" xmlns="http://www.w3.org/2000/svg">
<rect width="48" height="48" fill="url(#paint0_linear_221_2510)"/>
<path d="M23.9973 9C19.4856 9 16.5603 12.0285 13.1006 13.1323C11.6938 13.5812 10.9905 13.8056 10.7058 14.122C10.4211 14.4383 10.3378 14.9006 10.1711 15.8252C8.38715 25.719 12.2864 34.866 21.5855 38.4263C22.5846 38.8088 23.0841 39 24.0023 39C24.9203 39 25.4199 38.8088 26.4189 38.4263C35.7174 34.8659 39.6129 25.719 37.8285 15.8252C37.6617 14.9005 37.5783 14.4381 37.2936 14.1217C37.0089 13.8054 36.3056 13.5811 34.8989 13.1325C31.4378 12.0287 28.5092 9 23.9973 9Z" stroke="white" stroke-width="2.25" stroke-linecap="round" stroke-linejoin="round"/>
<path d="M21 24.75C21 24.75 21.75 24.75 22.5 26.25C22.5 26.25 24.8823 22.5 27 21.75" stroke="white" stroke-width="2.25" stroke-linecap="round" stroke-linejoin="round"/>
<path d="M31.5 24C31.5 28.1421 28.1421 31.5 24 31.5C19.8579 31.5 16.5 28.1421 16.5 24C16.5 19.8579 19.8579 16.5 24 16.5C28.1421 16.5 31.5 19.8579 31.5 24Z" stroke="white" stroke-width="2.25" stroke-linecap="round"/>
<defs>
<linearGradient id="paint0_linear_221_2510" x1="24" y1="0" x2="24" y2="48" gradientUnits="userSpaceOnUse">
<stop stop-color="#71717A"/>
<stop offset="1" stop-color="#52525B"/>
</linearGradient>
</defs>
</svg>
