<svg width="80" height="80" viewBox="0 0 80 80" fill="none" xmlns="http://www.w3.org/2000/svg">
<rect width="80" height="80" fill="url(#paint0_linear_830_6375)"/>
<path d="M17.8076 63.1925C14 59.3847 14 53.2564 14 41C14 39.342 15.3443 38 17.0024 38H29C31.2091 38 33 39.7909 33 42V62.8937C33 65.13 31.1645 66.9536 28.9321 66.8202C23.6167 66.5026 20.239 65.6238 17.8076 63.1925Z" fill="black" fill-opacity="0.2"/>
<path d="M37 63.9977C37 65.6557 38.3419 67 40 67C52.2563 67 58.3847 67 62.1925 63.1925C66 59.3847 66 53.2564 66 41C66 39.342 64.6557 38 62.9977 38H41C38.7909 38 37 39.7909 37 42V63.9977Z" fill="black" fill-opacity="0.2"/>
<path d="M61.8937 34C64.13 34 65.9536 32.1645 65.8202 29.9321C65.5026 24.6167 64.6238 21.239 62.1925 18.8076C58.3847 15 52.2564 15 40 15C27.7434 15 21.6152 15 17.8076 18.8076C15.3762 21.239 14.4974 24.6167 14.1797 29.9321C14.0463 32.1645 15.8699 34 18.1063 34H61.8937Z" fill="black" fill-opacity="0.2"/>
<path d="M17.8076 62.1925C14 58.3847 14 52.2564 14 40C14 38.342 15.3443 37 17.0024 37H29C31.2091 37 33 38.7909 33 41V61.8937C33 64.13 31.1645 65.9536 28.9321 65.8202C23.6167 65.5026 20.239 64.6238 17.8076 62.1925Z" fill="url(#paint1_linear_830_6375)"/>
<path d="M37 62.9977C37 64.6557 38.3419 66 40 66C52.2563 66 58.3847 66 62.1925 62.1925C66 58.3847 66 52.2564 66 40C66 38.342 64.6557 37 62.9977 37H41C38.7909 37 37 38.7909 37 41V62.9977Z" fill="url(#paint2_linear_830_6375)"/>
<path d="M61.8937 33C64.13 33 65.9536 31.1645 65.8202 28.9321C65.5026 23.6167 64.6238 20.239 62.1925 17.8076C58.3847 14 52.2564 14 40 14C27.7434 14 21.6152 14 17.8076 17.8076C15.3762 20.239 14.4974 23.6167 14.1797 28.9321C14.0463 31.1645 15.8699 33 18.1063 33H61.8937Z" fill="url(#paint3_linear_830_6375)"/>
<defs>
<linearGradient id="paint0_linear_830_6375" x1="40" y1="0" x2="40" y2="80" gradientUnits="userSpaceOnUse">
<stop stop-color="#0284C7"/>
<stop offset="1" stop-color="#0C4A6E"/>
</linearGradient>
<linearGradient id="paint1_linear_830_6375" x1="40" y1="37" x2="40" y2="66" gradientUnits="userSpaceOnUse">
<stop stop-color="#F9FAFB"/>
<stop offset="1" stop-color="#9CA3AF"/>
</linearGradient>
<linearGradient id="paint2_linear_830_6375" x1="40" y1="37" x2="40" y2="66" gradientUnits="userSpaceOnUse">
<stop stop-color="#F9FAFB"/>
<stop offset="1" stop-color="#9CA3AF"/>
</linearGradient>
<linearGradient id="paint3_linear_830_6375" x1="40" y1="14" x2="40" y2="33" gradientUnits="userSpaceOnUse">
<stop stop-color="#FDE68A"/>
<stop offset="1" stop-color="#D97706"/>
</linearGradient>
</defs>
</svg>
