<?xml version="1.0" encoding="UTF-8"?>
<svg width="130px" height="130px" viewBox="0 0 130 130" version="1.1" xmlns="http://www.w3.org/2000/svg" xmlns:xlink="http://www.w3.org/1999/xlink">
    <!-- Generator: Sketch 40.3 (33839) - http://www.bohemiancoding.com/sketch -->
    <title>pages</title>
    <desc>Created with Sketch.</desc>
    <defs>
        <path d="M64,0 C111.3344,0 128,16.6656 128,64 C128,111.3344 111.3344,128 64,128 C16.6656,128 0,111.3344 0,64 C0,16.6656 16.6656,0 64,0 L64,0 Z" id="path-1"></path>
        <mask id="mask-2" maskContentUnits="userSpaceOnUse" maskUnits="objectBoundingBox" x="-1" y="-1" width="130" height="130">
            <rect x="-1" y="-1" width="130" height="130" fill="white"></rect>
            <use xlink:href="#path-1" fill="black"></use>
        </mask>
        <linearGradient x1="50%" y1="0%" x2="50%" y2="100%" id="linearGradient-3">
            <stop stop-color="#FFFFFF" stop-opacity="0.2" offset="0%"></stop>
            <stop stop-color="#000000" stop-opacity="0.2" offset="100%"></stop>
        </linearGradient>
        <path d="M128,64 C128,111.3344 111.3344,128 64,128 C16.6656,128 0,111.3344 0,64 C0,16.6656 16.6656,0 64,0 C111.3344,0 128,16.6656 128,64 Z" id="path-4"></path>
        <mask id="mask-5" maskContentUnits="userSpaceOnUse" maskUnits="objectBoundingBox" x="-1" y="-1" width="130" height="130">
            <rect x="-1" y="-1" width="130" height="130" fill="white"></rect>
            <use xlink:href="#path-4" fill="black"></use>
        </mask>
    </defs>
    <g id="Page-1" stroke="none" stroke-width="1" fill="none" fill-rule="evenodd">
        <g id="pages" transform="translate(1.000000, 1.000000)">
            <g id="Shape">
                <use fill="#B7F5E7" fill-rule="evenodd" xlink:href="#path-1"></use>
                <use stroke-opacity="0.3" stroke="#000000" mask="url(#mask-2)" stroke-width="2" xlink:href="#path-1"></use>
            </g>
            <g id="Group" transform="translate(24.000000, 28.000000)" stroke="#34495E" stroke-width="2">
                <rect id="Rectangle-path" fill="#BEEFBB" x="0" y="22.8571429" width="57.1428571" height="49.5238095" stroke-linecap="round" stroke-linejoin="round"></rect>
                <rect id="Rectangle-path" fill="#A2DED0" x="11.4285714" y="11.4285714" width="57.1428571" height="49.5238095" stroke-linecap="round" stroke-linejoin="round"></rect>
                <rect id="Rectangle-path" fill="#82CEF9" x="22.8571429" y="0" width="57.1428571" height="49.5238095" stroke-linecap="round" stroke-linejoin="round"></rect>
            </g>
            <g id="Group">
                <g id="Shape-Copy">
                    <use fill="url(#linearGradient-3)" fill-rule="evenodd" xlink:href="#path-4"></use>
                    <use stroke-opacity="0.5" stroke="#000000" mask="url(#mask-5)" stroke-width="2" xlink:href="#path-4"></use>
                </g>
            </g>
        </g>
    </g>
</svg>