<svg width="320" height="320" viewBox="0 0 320 320" fill="none" xmlns="http://www.w3.org/2000/svg">
<g clip-path="url(#clip0_910_6107)">
<path d="M160 0C281.326 0 320 38.6737 320 160C320 281.326 281.326 320 160 320C38.6736 320 0 281.326 0 160C0 38.6737 38.6736 0 160 0Z" fill="url(#paint0_linear_910_6107)"/>
<g opacity="0.8">
<path fill-rule="evenodd" clip-rule="evenodd" d="M85.6454 166.2C82.9605 165.32 79.9953 165.384 77.5976 166.879C65.0031 174.73 60 186.633 60 203.883C60 241.797 84.171 253.883 160 253.883C235.829 253.883 260 241.797 260 203.883C260 186.633 254.997 174.73 242.402 166.879C240.005 165.384 237.04 165.32 234.355 166.2C217.261 171.8 193.106 174.085 160 174.085C126.894 174.085 102.739 171.8 85.6454 166.2ZM122 203C122 211.284 115.284 218 107 218C98.7157 218 92 211.284 92 203C92 194.716 98.7157 188 107 188C115.284 188 122 194.716 122 203ZM142 218C150.284 218 157 211.284 157 203C157 194.716 150.284 188 142 188C133.716 188 127 194.716 127 203C127 211.284 133.716 218 142 218ZM192 203C192 211.284 185.284 218 177 218C168.716 218 162 211.284 162 203C162 194.716 168.716 188 177 188C185.284 188 192 194.716 192 203ZM212 218C220.284 218 227 211.284 227 203C227 194.716 220.284 188 212 188C203.716 188 197 194.716 197 203C197 211.284 203.716 218 212 218Z" fill="url(#paint1_linear_910_6107)"/>
</g>
<path fill-rule="evenodd" clip-rule="evenodd" d="M260 115C260 77.0855 235.829 65 160 65C84.171 65 60 77.0855 60 115C60 152.914 84.171 165 160 165C235.829 165 260 152.914 260 115ZM107 100C98.7157 100 92 106.716 92 115C92 123.284 98.7157 130 107 130H212C220.284 130 227 123.284 227 115C227 106.716 220.284 100 212 100H107Z" fill="url(#paint2_linear_910_6107)"/>
</g>
<defs>
<linearGradient id="paint0_linear_910_6107" x1="160" y1="0" x2="160" y2="320" gradientUnits="userSpaceOnUse">
<stop stop-color="#60A5FA"/>
<stop offset="1" stop-color="#2563EB"/>
</linearGradient>
<linearGradient id="paint1_linear_910_6107" x1="160" y1="165.627" x2="160" y2="253.883" gradientUnits="userSpaceOnUse">
<stop stop-color="white"/>
<stop offset="1" stop-color="#BFDBFE"/>
</linearGradient>
<linearGradient id="paint2_linear_910_6107" x1="160" y1="65" x2="160" y2="165" gradientUnits="userSpaceOnUse">
<stop stop-color="white"/>
<stop offset="1" stop-color="#BFDBFE"/>
</linearGradient>
<clipPath id="clip0_910_6107">
<rect width="320" height="320" fill="white"/>
</clipPath>
</defs>
</svg>
