<svg width="81" height="80" viewBox="0 0 81 80" fill="none" xmlns="http://www.w3.org/2000/svg">
<rect width="80" height="80" transform="translate(0.5)" fill="url(#paint0_linear_672_2019)"/>
<g filter="url(#filter0_d_672_2019)">
<mask id="path-1-inside-1_672_2019" fill="white">
<path fill-rule="evenodd" clip-rule="evenodd" d="M20.2152 47.2C19.6601 46.6338 18.889 46.211 18.1411 46.4742C17.841 46.5798 17.5665 46.7089 17.3088 46.8668C16.5173 47.3518 15.8519 48.0173 15.3668 48.8088C14.5 50.2233 14.5 52.149 14.5 56C14.5 59.851 14.5 61.7768 15.3668 63.1913C15.8519 63.9828 16.5173 64.6483 17.3088 65.1333C18.7234 66 20.6489 66 24.5 66C28.3511 66 30.2766 66 31.6912 65.1333C32.4827 64.6483 33.1481 63.9828 33.6332 63.1913C33.7911 62.9336 33.9202 62.659 34.0258 62.3589C34.289 61.611 33.8662 60.8398 33.3 60.2848C32.1892 59.1959 31.5 57.6784 31.5 56C31.5 54.3215 32.1892 52.8041 33.3 51.7151C33.8661 51.1601 34.289 50.3889 34.0258 49.641C33.9202 49.341 33.791 49.0664 33.6332 48.8088C33.1481 48.0173 32.4827 47.3518 31.6912 46.8668C31.4335 46.7089 31.159 46.5798 30.8589 46.4742C30.111 46.211 29.3399 46.6338 28.7848 47.2C27.6959 48.3108 26.1784 49 24.5 49C22.8216 49 21.3041 48.3108 20.2152 47.2Z"/>
</mask>
<path fill-rule="evenodd" clip-rule="evenodd" d="M20.2152 47.2C19.6601 46.6338 18.889 46.211 18.1411 46.4742C17.841 46.5798 17.5665 46.7089 17.3088 46.8668C16.5173 47.3518 15.8519 48.0173 15.3668 48.8088C14.5 50.2233 14.5 52.149 14.5 56C14.5 59.851 14.5 61.7768 15.3668 63.1913C15.8519 63.9828 16.5173 64.6483 17.3088 65.1333C18.7234 66 20.6489 66 24.5 66C28.3511 66 30.2766 66 31.6912 65.1333C32.4827 64.6483 33.1481 63.9828 33.6332 63.1913C33.7911 62.9336 33.9202 62.659 34.0258 62.3589C34.289 61.611 33.8662 60.8398 33.3 60.2848C32.1892 59.1959 31.5 57.6784 31.5 56C31.5 54.3215 32.1892 52.8041 33.3 51.7151C33.8661 51.1601 34.289 50.3889 34.0258 49.641C33.9202 49.341 33.791 49.0664 33.6332 48.8088C33.1481 48.0173 32.4827 47.3518 31.6912 46.8668C31.4335 46.7089 31.159 46.5798 30.8589 46.4742C30.111 46.211 29.3399 46.6338 28.7848 47.2C27.6959 48.3108 26.1784 49 24.5 49C22.8216 49 21.3041 48.3108 20.2152 47.2Z" fill="url(#paint1_linear_672_2019)"/>
<path d="M17.3088 46.8668L16.7864 46.0141L16.7864 46.0141L17.3088 46.8668ZM15.3668 48.8088L16.2195 49.3313L16.2195 49.3312L15.3668 48.8088ZM15.3668 63.1913L16.2195 62.6688L16.2195 62.6687L15.3668 63.1913ZM17.3088 65.1333L16.7864 65.9859L16.7864 65.9859L17.3088 65.1333ZM31.6912 65.1333L32.2136 65.9859L32.2136 65.9859L31.6912 65.1333ZM33.6332 63.1913L32.7805 62.6687L32.7805 62.6688L33.6332 63.1913ZM33.6332 48.8088L32.7805 49.3312L32.7805 49.3313L33.6332 48.8088ZM31.6912 46.8668L32.2136 46.0141L32.2136 46.0141L31.6912 46.8668ZM33.3 51.7151L34 52.4292L33.3 51.7151ZM34.0258 49.641L33.0825 49.973L34.0258 49.641ZM28.7848 47.2L28.0707 46.4999L28.7848 47.2ZM34.0258 62.3589L33.0825 62.0269L34.0258 62.3589ZM33.3 60.2848L32.5999 60.9989L33.3 60.2848ZM20.2152 47.2L19.5011 47.9L20.2152 47.2ZM17.8092 45.5309C17.4472 45.6583 17.1082 45.8169 16.7864 46.0141L17.8313 47.7194C18.0247 47.6009 18.2348 47.5013 18.473 47.4175L17.8092 45.5309ZM16.7864 46.0141C15.8603 46.5816 15.0817 47.3602 14.5142 48.2863L16.2195 49.3312C16.622 48.6743 17.1744 48.1219 17.8313 47.7194L16.7864 46.0141ZM14.5142 48.2862C13.9683 49.177 13.7282 50.1832 13.6128 51.396C13.4989 52.594 13.5 54.0939 13.5 56H15.5C15.5 54.0551 15.5011 52.6667 15.6039 51.5853C15.7053 50.5189 15.8985 49.855 16.2195 49.3313L14.5142 48.2862ZM13.5 56C13.5 57.9061 13.4989 59.406 13.6128 60.604C13.7282 61.8168 13.9683 62.823 14.5142 63.7138L16.2195 62.6687C15.8985 62.145 15.7053 61.4811 15.6039 60.4147C15.5011 59.3334 15.5 57.9449 15.5 56H13.5ZM14.5142 63.7137C15.0817 64.6398 15.8603 65.4184 16.7864 65.9859L17.8313 64.2806C17.1744 63.8781 16.622 63.3257 16.2195 62.6688L14.5142 63.7137ZM16.7864 65.9859C17.6771 66.5317 18.6833 66.7719 19.8961 66.8872C21.094 67.0011 22.5938 67 24.5 67V65C22.5551 65 21.1666 64.9989 20.0853 64.8961C19.0189 64.7948 18.355 64.6015 17.8313 64.2806L16.7864 65.9859ZM24.5 67C26.4062 67 27.906 67.0011 29.1039 66.8872C30.3167 66.7719 31.3229 66.5317 32.2136 65.9859L31.1687 64.2806C30.645 64.6015 29.9811 64.7948 28.9147 64.8961C27.8334 64.9989 26.4449 65 24.5 65V67ZM32.2136 65.9859C33.1397 65.4184 33.9183 64.6398 34.4858 63.7137L32.7805 62.6688C32.378 63.3257 31.8256 63.8781 31.1687 64.2806L32.2136 65.9859ZM34.4858 63.7138C34.6831 63.3919 34.8417 63.0528 34.9691 62.6908L33.0825 62.0269C32.9987 62.2652 32.8991 62.4753 32.7805 62.6687L34.4858 63.7138ZM34 59.5707C33.0732 58.6621 32.5 57.3989 32.5 56H30.5C30.5 57.9579 31.3052 59.7296 32.5999 60.9989L34 59.5707ZM32.5 56C32.5 54.6011 33.0732 53.3378 34 52.4292L32.5999 51.001C31.3052 52.2703 30.5 54.042 30.5 56H32.5ZM34.9691 49.3091C34.8417 48.9471 34.683 48.6081 34.4858 48.2862L32.7805 49.3313C32.8991 49.5247 32.9986 49.7348 33.0825 49.973L34.9691 49.3091ZM34.4858 48.2863C33.9183 47.3602 33.1397 46.5816 32.2136 46.0141L31.1687 47.7194C31.8256 48.1219 32.378 48.6743 32.7805 49.3312L34.4858 48.2863ZM32.2136 46.0141C31.8918 45.8169 31.5528 45.6583 31.1908 45.5309L30.527 47.4175C30.7652 47.5013 30.9753 47.6009 31.1687 47.7194L32.2136 46.0141ZM28.0707 46.4999C27.1621 47.4268 25.8989 48 24.5 48V50C26.4579 50 28.2296 49.1948 29.4989 47.9L28.0707 46.4999ZM24.5 48C23.1011 48 21.8379 47.4268 20.9293 46.4999L19.5011 47.9C20.7704 49.1948 22.5421 50 24.5 50V48ZM34 52.4292C34.6477 51.7943 35.4324 50.6256 34.9691 49.3091L33.0825 49.973C33.1158 50.0678 33.1209 50.192 33.0466 50.3761C32.968 50.5707 32.8141 50.7911 32.5999 51.001L34 52.4292ZM31.1908 45.5309C29.8743 45.0676 28.7057 45.8523 28.0707 46.4999L29.4989 47.9C29.7089 47.6859 29.9292 47.532 30.1239 47.4534C30.308 47.3791 30.4322 47.3841 30.527 47.4175L31.1908 45.5309ZM34.9691 62.6908C35.4324 61.3743 34.6477 60.2057 34 59.5707L32.5999 60.9989C32.8141 61.2088 32.968 61.4292 33.0466 61.6239C33.1209 61.8079 33.1159 61.9321 33.0825 62.0269L34.9691 62.6908ZM18.473 47.4175C18.5678 47.3841 18.692 47.3791 18.8761 47.4534C19.0708 47.532 19.2911 47.6859 19.5011 47.9L20.9293 46.4999C20.2943 45.8523 19.1257 45.0676 17.8092 45.5309L18.473 47.4175Z" fill="url(#paint2_linear_672_2019)" mask="url(#path-1-inside-1_672_2019)"/>
</g>
<g filter="url(#filter1_d_672_2019)">
<mask id="path-3-inside-2_672_2019" fill="white">
<path fill-rule="evenodd" clip-rule="evenodd" d="M49.3089 46.8667C49.5665 46.7088 49.841 46.5797 50.1411 46.4741C50.889 46.2109 51.6601 46.6338 52.2152 47.1999C53.3041 48.3107 54.8216 48.9999 56.5 48.9999C58.1784 48.9999 59.6959 48.3107 60.7848 47.1999C61.3399 46.6337 62.111 46.2109 62.8589 46.4741C63.159 46.5797 63.4336 46.7088 63.6912 46.8667C64.4827 47.3517 65.1482 48.0172 65.6332 48.8087C66.5001 50.2232 66.5001 52.1489 66.5001 55.9999C66.5001 59.8509 66.5001 61.7767 65.6332 63.1912C65.1482 63.9827 64.4827 64.6482 63.6912 65.1332C62.2767 65.9999 60.3512 65.9999 56.5001 65.9999C52.649 65.9999 50.7234 65.9999 49.3089 65.1332C48.5174 64.6482 47.8519 63.9827 47.3669 63.1912C47.209 62.9335 47.0798 62.6589 46.9742 62.3587C46.7111 61.6108 47.1339 60.8397 47.7 60.2847C48.8108 59.1957 49.5 57.6783 49.5 55.9999C49.5 54.3215 48.8108 52.804 47.7 51.7151C47.1339 51.1601 46.7111 50.3889 46.9743 49.641C47.0799 49.3409 47.209 49.0663 47.3669 48.8087C47.8519 48.0172 48.5174 47.3517 49.3089 46.8667Z"/>
</mask>
<path fill-rule="evenodd" clip-rule="evenodd" d="M49.3089 46.8667C49.5665 46.7088 49.841 46.5797 50.1411 46.4741C50.889 46.2109 51.6601 46.6338 52.2152 47.1999C53.3041 48.3107 54.8216 48.9999 56.5 48.9999C58.1784 48.9999 59.6959 48.3107 60.7848 47.1999C61.3399 46.6337 62.111 46.2109 62.8589 46.4741C63.159 46.5797 63.4336 46.7088 63.6912 46.8667C64.4827 47.3517 65.1482 48.0172 65.6332 48.8087C66.5001 50.2232 66.5001 52.1489 66.5001 55.9999C66.5001 59.8509 66.5001 61.7767 65.6332 63.1912C65.1482 63.9827 64.4827 64.6482 63.6912 65.1332C62.2767 65.9999 60.3512 65.9999 56.5001 65.9999C52.649 65.9999 50.7234 65.9999 49.3089 65.1332C48.5174 64.6482 47.8519 63.9827 47.3669 63.1912C47.209 62.9335 47.0798 62.6589 46.9742 62.3587C46.7111 61.6108 47.1339 60.8397 47.7 60.2847C48.8108 59.1957 49.5 57.6783 49.5 55.9999C49.5 54.3215 48.8108 52.804 47.7 51.7151C47.1339 51.1601 46.7111 50.3889 46.9743 49.641C47.0799 49.3409 47.209 49.0663 47.3669 48.8087C47.8519 48.0172 48.5174 47.3517 49.3089 46.8667Z" fill="url(#paint3_linear_672_2019)"/>
<path d="M49.3089 46.8667L48.7864 46.014L48.7864 46.014L49.3089 46.8667ZM63.6912 46.8667L64.2137 46.014L64.2137 46.014L63.6912 46.8667ZM65.6332 48.8087L64.7806 49.3312L64.7806 49.3312L65.6332 48.8087ZM65.6332 63.1912L64.7806 62.6687L64.7806 62.6687L65.6332 63.1912ZM63.6912 65.1332L64.2137 65.9858L64.2137 65.9858L63.6912 65.1332ZM49.3089 65.1332L48.7864 65.9858L48.7864 65.9858L49.3089 65.1332ZM47.3669 63.1912L48.2195 62.6687L48.2195 62.6687L47.3669 63.1912ZM47.3669 48.8087L48.2195 49.3312L48.2195 49.3312L47.3669 48.8087ZM46.9742 62.3587L46.0309 62.6906L46.9742 62.3587ZM62.8589 46.4741L62.527 47.4174L62.8589 46.4741ZM52.2152 47.1999L51.5011 47.9L52.2152 47.1999ZM49.8091 45.5308C49.4472 45.6582 49.1082 45.8168 48.7864 46.014L49.8314 47.7193C50.0248 47.6008 50.2349 47.5012 50.4731 47.4174L49.8091 45.5308ZM56.5 47.9999C55.1011 47.9999 53.8379 47.4267 52.9293 46.4999L51.5011 47.9C52.7704 49.1947 54.5421 49.9999 56.5 49.9999V47.9999ZM60.0708 46.4998C59.1621 47.4267 57.8989 47.9999 56.5 47.9999V49.9999C58.458 49.9999 60.2297 49.1947 61.4989 47.8999L60.0708 46.4998ZM64.2137 46.014C63.8919 45.8168 63.5528 45.6581 63.1908 45.5308L62.527 47.4174C62.7652 47.5012 62.9753 47.6008 63.1688 47.7193L64.2137 46.014ZM66.4859 48.2862C65.9184 47.3601 65.1398 46.5815 64.2137 46.014L63.1688 47.7193C63.8257 48.1218 64.378 48.6742 64.7806 49.3312L66.4859 48.2862ZM67.5001 55.9999C67.5001 54.0938 67.5011 52.5939 67.3872 51.3959C67.2719 50.1831 67.0318 49.1769 66.4859 48.2862L64.7806 49.3312C65.1015 49.8549 65.2948 50.5188 65.3962 51.5852C65.499 52.6666 65.5001 54.055 65.5001 55.9999H67.5001ZM66.4859 63.7137C67.0318 62.8229 67.2719 61.8167 67.3872 60.6039C67.5011 59.4059 67.5001 57.906 67.5001 55.9999H65.5001C65.5001 57.9448 65.499 59.3333 65.3962 60.4146C65.2948 61.481 65.1015 62.1449 64.7806 62.6687L66.4859 63.7137ZM64.2137 65.9858C65.1398 65.4183 65.9184 64.6397 66.4859 63.7137L64.7806 62.6687C64.378 63.3256 63.8257 63.878 63.1688 64.2805L64.2137 65.9858ZM56.5001 66.9999C58.4062 66.9999 59.9061 67.001 61.104 66.8871C62.3168 66.7718 63.3229 66.5316 64.2137 65.9858L63.1688 64.2805C62.645 64.6014 61.9811 64.7947 60.9147 64.8961C59.8334 64.9989 58.445 64.9999 56.5001 64.9999V66.9999ZM48.7864 65.9858C49.6772 66.5316 50.6833 66.7718 51.8961 66.8871C53.094 67.001 54.5939 66.9999 56.5001 66.9999V64.9999C54.5551 64.9999 53.1667 64.9989 52.0854 64.8961C51.019 64.7947 50.3551 64.6014 49.8314 64.2805L48.7864 65.9858ZM46.5142 63.7137C47.0817 64.6397 47.8603 65.4183 48.7864 65.9858L49.8314 64.2805C49.1744 63.878 48.6221 63.3256 48.2195 62.6687L46.5142 63.7137ZM46.0309 62.6906C46.1583 63.0527 46.317 63.3918 46.5142 63.7137L48.2195 62.6687C48.101 62.4752 48.0014 62.265 47.9175 62.0268L46.0309 62.6906ZM48.5 55.9999C48.5 57.3988 47.9268 58.662 47 59.5706L48.4001 60.9988C49.6948 59.7295 50.5 57.9578 50.5 55.9999H48.5ZM47 52.4292C47.9268 53.3378 48.5 54.601 48.5 55.9999H50.5C50.5 54.042 49.6948 52.2703 48.4001 51.001L47 52.4292ZM46.5142 48.2862C46.317 48.608 46.1583 48.9471 46.031 49.3091L47.9176 49.973C48.0014 49.7347 48.101 49.5246 48.2195 49.3312L46.5142 48.2862ZM48.7864 46.014C47.8603 46.5815 47.0817 47.3601 46.5142 48.2862L48.2195 49.3312C48.6221 48.6742 49.1744 48.1218 49.8314 47.7193L48.7864 46.014ZM48.4001 51.001C48.186 50.7911 48.032 50.5707 47.9534 50.376C47.8791 50.192 47.8842 50.0678 47.9176 49.973L46.031 49.3091C45.5677 50.6256 46.3523 51.7942 47 52.4292L48.4001 51.001ZM47.9175 62.0268C47.8842 61.932 47.8791 61.8078 47.9534 61.6237C48.032 61.4291 48.1859 61.2087 48.4001 60.9988L47 59.5706C46.3523 60.2055 45.5677 61.3741 46.0309 62.6906L47.9175 62.0268ZM61.4989 47.8999C61.7089 47.6858 61.9293 47.5319 62.1239 47.4533C62.308 47.379 62.4322 47.384 62.527 47.4174L63.1908 45.5308C61.8743 45.0675 60.7057 45.8522 60.0708 46.4998L61.4989 47.8999ZM50.4731 47.4174C50.5678 47.3841 50.692 47.379 50.8761 47.4533C51.0708 47.5319 51.2911 47.6858 51.5011 47.9L52.9293 46.4999C52.2943 45.8522 51.1257 45.0675 49.8091 45.5308L50.4731 47.4174Z" fill="url(#paint4_linear_672_2019)" mask="url(#path-3-inside-2_672_2019)"/>
</g>
<g filter="url(#filter2_d_672_2019)">
<mask id="path-5-inside-3_672_2019" fill="white">
<path fill-rule="evenodd" clip-rule="evenodd" d="M14.5 24C14.5 20.1489 14.5 18.2234 15.3668 16.8088C15.8519 16.0173 16.5173 15.3519 17.3088 14.8668C18.7234 14 20.6489 14 24.5 14C28.3511 14 30.2766 14 31.6912 14.8668C32.4827 15.3519 33.1481 16.0173 33.6332 16.8088C33.791 17.0664 33.9202 17.341 34.0258 17.6411C34.289 18.389 33.8661 19.1601 33.3 19.7152C32.1892 20.8041 31.5 22.3216 31.5 24C31.5 25.6784 32.1892 27.1959 33.3 28.2848C33.8661 28.8399 34.289 29.611 34.0258 30.3589C33.9202 30.659 33.791 30.9336 33.6332 31.1912C33.1481 31.9827 32.4827 32.6481 31.6912 33.1332C31.4336 33.291 31.159 33.4202 30.8589 33.5258C30.111 33.789 29.3399 33.3661 28.7848 32.8C27.6959 31.6892 26.1784 31 24.5 31C22.8216 31 21.3041 31.6892 20.2152 32.8C19.6601 33.3661 18.889 33.789 18.1411 33.5258C17.841 33.4202 17.5664 33.291 17.3088 33.1332C16.5173 32.6481 15.8519 31.9827 15.3668 31.1912C14.5 29.7766 14.5 27.8511 14.5 24Z"/>
</mask>
<path fill-rule="evenodd" clip-rule="evenodd" d="M14.5 24C14.5 20.1489 14.5 18.2234 15.3668 16.8088C15.8519 16.0173 16.5173 15.3519 17.3088 14.8668C18.7234 14 20.6489 14 24.5 14C28.3511 14 30.2766 14 31.6912 14.8668C32.4827 15.3519 33.1481 16.0173 33.6332 16.8088C33.791 17.0664 33.9202 17.341 34.0258 17.6411C34.289 18.389 33.8661 19.1601 33.3 19.7152C32.1892 20.8041 31.5 22.3216 31.5 24C31.5 25.6784 32.1892 27.1959 33.3 28.2848C33.8661 28.8399 34.289 29.611 34.0258 30.3589C33.9202 30.659 33.791 30.9336 33.6332 31.1912C33.1481 31.9827 32.4827 32.6481 31.6912 33.1332C31.4336 33.291 31.159 33.4202 30.8589 33.5258C30.111 33.789 29.3399 33.3661 28.7848 32.8C27.6959 31.6892 26.1784 31 24.5 31C22.8216 31 21.3041 31.6892 20.2152 32.8C19.6601 33.3661 18.889 33.789 18.1411 33.5258C17.841 33.4202 17.5664 33.291 17.3088 33.1332C16.5173 32.6481 15.8519 31.9827 15.3668 31.1912C14.5 29.7766 14.5 27.8511 14.5 24Z" fill="url(#paint5_linear_672_2019)"/>
<path d="M15.3668 16.8088L16.2195 17.3313L16.2195 17.3313L15.3668 16.8088ZM17.3088 14.8668L17.8313 15.7195L17.8313 15.7195L17.3088 14.8668ZM31.6912 14.8668L31.1687 15.7195L31.1687 15.7195L31.6912 14.8668ZM33.6332 16.8088L32.7805 17.3313L32.7805 17.3313L33.6332 16.8088ZM33.6332 31.1912L32.7805 30.6687L32.7805 30.6687L33.6332 31.1912ZM31.6912 33.1332L31.1687 32.2805L31.1687 32.2805L31.6912 33.1332ZM17.3088 33.1332L17.8313 32.2805L17.8313 32.2805L17.3088 33.1332ZM15.3668 31.1912L16.2195 30.6687L16.2195 30.6687L15.3668 31.1912ZM20.2152 32.8L20.9293 33.5L20.2152 32.8ZM33.3 28.2848L34 27.5707L33.3 28.2848ZM34.0258 30.3589L33.0825 30.027L34.0258 30.3589ZM30.8589 33.5258L31.1909 34.469L30.8589 33.5258ZM28.7848 32.8L29.4989 32.0999L28.7848 32.8ZM34.0258 17.6411L34.969 17.3091L34.0258 17.6411ZM33.3 19.7152L34 20.4293L33.3 19.7152ZM14.5142 16.2863C13.9683 17.1771 13.7282 18.1833 13.6128 19.396C13.4989 20.594 13.5 22.0938 13.5 24H15.5C15.5 22.0551 15.5011 20.6666 15.6039 19.5854C15.7053 18.519 15.8985 17.8551 16.2195 17.3313L14.5142 16.2863ZM16.7863 14.0142C15.8603 14.5817 15.0817 15.3603 14.5142 16.2863L16.2195 17.3313C16.622 16.6744 17.1744 16.122 17.8313 15.7195L16.7863 14.0142ZM24.5 13C22.5938 13 21.094 12.9989 19.896 13.1128C18.6833 13.2282 17.6771 13.4683 16.7863 14.0142L17.8313 15.7195C18.3551 15.3985 19.019 15.2053 20.0854 15.1039C21.1666 15.0011 22.5551 15 24.5 15V13ZM32.2137 14.0142C31.3229 13.4683 30.3167 13.2282 29.104 13.1128C27.906 12.9989 26.4062 13 24.5 13V15C26.4449 15 27.8334 15.0011 28.9146 15.1039C29.981 15.2053 30.6449 15.3985 31.1687 15.7195L32.2137 14.0142ZM34.4858 16.2863C33.9183 15.3603 33.1397 14.5817 32.2137 14.0142L31.1687 15.7195C31.8256 16.122 32.378 16.6744 32.7805 17.3313L34.4858 16.2863ZM34.969 17.3091C34.8417 16.9472 34.683 16.6081 34.4858 16.2863L32.7805 17.3313C32.8991 17.5247 32.9986 17.7349 33.0825 17.973L34.969 17.3091ZM32.5 24C32.5 22.6011 33.0732 21.3379 34 20.4293L32.5999 19.0011C31.3052 20.2704 30.5 22.0421 30.5 24H32.5ZM34 27.5707C33.0732 26.6621 32.5 25.3989 32.5 24H30.5C30.5 25.9579 31.3052 27.7296 32.5999 28.9989L34 27.5707ZM34.4858 31.7137C34.683 31.3919 34.8417 31.0528 34.969 30.6909L33.0825 30.027C32.9986 30.2651 32.8991 30.4753 32.7805 30.6687L34.4858 31.7137ZM32.2137 33.9858C33.1397 33.4183 33.9183 32.6397 34.4858 31.7137L32.7805 30.6687C32.378 31.3256 31.8256 31.878 31.1687 32.2805L32.2137 33.9858ZM31.1909 34.469C31.5528 34.3417 31.8919 34.183 32.2137 33.9858L31.1687 32.2805C30.9753 32.3991 30.7651 32.4986 30.527 32.5825L31.1909 34.469ZM24.5 32C25.8989 32 27.1621 32.5732 28.0707 33.5L29.4989 32.0999C28.2296 30.8052 26.4579 30 24.5 30V32ZM20.9293 33.5C21.8379 32.5732 23.1011 32 24.5 32V30C22.5421 30 20.7704 30.8052 19.5011 32.0999L20.9293 33.5ZM16.7863 33.9858C17.1081 34.183 17.4472 34.3417 17.8091 34.469L18.473 32.5825C18.2349 32.4986 18.0247 32.3991 17.8313 32.2805L16.7863 33.9858ZM14.5142 31.7137C15.0817 32.6397 15.8603 33.4183 16.7863 33.9858L17.8313 32.2805C17.1744 31.878 16.622 31.3256 16.2195 30.6687L14.5142 31.7137ZM13.5 24C13.5 25.9062 13.4989 27.406 13.6128 28.604C13.7282 29.8167 13.9683 30.8229 14.5142 31.7137L16.2195 30.6687C15.8985 30.1449 15.7053 29.481 15.6039 28.4146C15.5011 27.3334 15.5 25.9449 15.5 24H13.5ZM19.5011 32.0999C19.2911 32.3141 19.0707 32.468 18.8761 32.5466C18.692 32.6209 18.5678 32.6158 18.473 32.5825L17.8091 34.469C19.1256 34.9324 20.2943 34.1477 20.9293 33.5L19.5011 32.0999ZM32.5999 28.9989C32.8141 29.2089 32.968 29.4293 33.0466 29.6239C33.1209 29.808 33.1158 29.9322 33.0825 30.027L34.969 30.6909C35.4324 29.3744 34.6477 28.2057 34 27.5707L32.5999 28.9989ZM30.527 32.5825C30.4322 32.6158 30.308 32.6209 30.1239 32.5466C29.9293 32.468 29.7089 32.3141 29.4989 32.0999L28.0707 33.5C28.7057 34.1477 29.8744 34.9324 31.1909 34.469L30.527 32.5825ZM33.0825 17.973C33.1158 18.0678 33.1209 18.192 33.0466 18.3761C32.968 18.5707 32.8141 18.7911 32.5999 19.0011L34 20.4293C34.6477 19.7943 35.4324 18.6256 34.969 17.3091L33.0825 17.973Z" fill="url(#paint6_linear_672_2019)" mask="url(#path-5-inside-3_672_2019)"/>
</g>
<g filter="url(#filter3_d_672_2019)">
<mask id="path-7-inside-4_672_2019" fill="white">
<path fill-rule="evenodd" clip-rule="evenodd" d="M49.5 24C49.5 22.3216 48.8108 20.8041 47.7 19.7152C47.1339 19.1601 46.711 18.389 46.9742 17.6411C47.0799 17.341 47.209 17.0664 47.3668 16.8088C47.8519 16.0173 48.5173 15.3519 49.3088 14.8668C50.7234 14 52.6489 14 56.5 14C60.3511 14 62.2767 14 63.6912 14.8668C64.4827 15.3519 65.1482 16.0173 65.6332 16.8088C66.5 18.2234 66.5 20.1489 66.5 24C66.5 27.8511 66.5 29.7766 65.6332 31.1912C65.1482 31.9827 64.4827 32.6481 63.6912 33.1332C63.4336 33.291 63.159 33.4202 62.8589 33.5258C62.1111 33.789 61.3399 33.3661 60.7848 32.8C59.6959 31.6892 58.1784 31 56.5 31C54.8216 31 53.3041 31.6892 52.2152 32.8C51.6601 33.3661 50.889 33.789 50.1411 33.5258C49.841 33.4202 49.5665 33.291 49.3088 33.1332C48.5173 32.6481 47.8519 31.9827 47.3668 31.1912C47.209 30.9336 47.0799 30.659 46.9742 30.3589C46.711 29.611 47.1339 28.8399 47.7 28.2848C48.8108 27.1959 49.5 25.6784 49.5 24Z"/>
</mask>
<path fill-rule="evenodd" clip-rule="evenodd" d="M49.5 24C49.5 22.3216 48.8108 20.8041 47.7 19.7152C47.1339 19.1601 46.711 18.389 46.9742 17.6411C47.0799 17.341 47.209 17.0664 47.3668 16.8088C47.8519 16.0173 48.5173 15.3519 49.3088 14.8668C50.7234 14 52.6489 14 56.5 14C60.3511 14 62.2767 14 63.6912 14.8668C64.4827 15.3519 65.1482 16.0173 65.6332 16.8088C66.5 18.2234 66.5 20.1489 66.5 24C66.5 27.8511 66.5 29.7766 65.6332 31.1912C65.1482 31.9827 64.4827 32.6481 63.6912 33.1332C63.4336 33.291 63.159 33.4202 62.8589 33.5258C62.1111 33.789 61.3399 33.3661 60.7848 32.8C59.6959 31.6892 58.1784 31 56.5 31C54.8216 31 53.3041 31.6892 52.2152 32.8C51.6601 33.3661 50.889 33.789 50.1411 33.5258C49.841 33.4202 49.5665 33.291 49.3088 33.1332C48.5173 32.6481 47.8519 31.9827 47.3668 31.1912C47.209 30.9336 47.0799 30.659 46.9742 30.3589C46.711 29.611 47.1339 28.8399 47.7 28.2848C48.8108 27.1959 49.5 25.6784 49.5 24Z" fill="url(#paint7_linear_672_2019)"/>
<path d="M47.3668 16.8088L48.2195 17.3313L48.2195 17.3313L47.3668 16.8088ZM49.3088 14.8668L49.8313 15.7195L49.8313 15.7195L49.3088 14.8668ZM63.6912 14.8668L63.1687 15.7195L63.1687 15.7195L63.6912 14.8668ZM65.6332 16.8088L64.7805 17.3313L64.7805 17.3313L65.6332 16.8088ZM65.6332 31.1912L64.7805 30.6687L64.7805 30.6687L65.6332 31.1912ZM63.6912 33.1332L63.1687 32.2805L63.1687 32.2805L63.6912 33.1332ZM49.3088 33.1332L49.8313 32.2805L49.8313 32.2805L49.3088 33.1332ZM47.3668 31.1912L48.2195 30.6687L48.2195 30.6687L47.3668 31.1912ZM52.2152 32.8L51.5011 32.0999L52.2152 32.8ZM50.1411 33.5258L50.4731 32.5825L50.1411 33.5258ZM62.8589 33.5258L62.527 32.5825L62.8589 33.5258ZM60.7848 32.8L61.4989 32.0999L60.7848 32.8ZM47 20.4293C47.9268 21.3379 48.5 22.6011 48.5 24H50.5C50.5 22.0421 49.6948 20.2704 48.4001 19.0011L47 20.4293ZM46.5142 16.2863C46.317 16.6081 46.1583 16.9472 46.031 17.3091L47.9175 17.9731C48.0014 17.7349 48.1009 17.5247 48.2195 17.3313L46.5142 16.2863ZM48.7863 14.0142C47.8603 14.5817 47.0817 15.3603 46.5142 16.2863L48.2195 17.3313C48.622 16.6744 49.1744 16.122 49.8313 15.7195L48.7863 14.0142ZM56.5 13C54.5938 13 53.094 12.9989 51.8961 13.1128C50.6833 13.2282 49.6771 13.4683 48.7863 14.0142L49.8313 15.7195C50.3551 15.3985 51.019 15.2053 52.0854 15.1039C53.1666 15.0011 54.5551 15 56.5 15V13ZM64.2137 14.0142C63.3229 13.4683 62.3168 13.2282 61.104 13.1128C59.9061 12.9989 58.4062 13 56.5 13V15C58.4449 15 59.8334 15.0011 60.9147 15.1039C61.9811 15.2053 62.645 15.3985 63.1687 15.7195L64.2137 14.0142ZM66.4858 16.2863C65.9183 15.3603 65.1397 14.5817 64.2137 14.0142L63.1687 15.7195C63.8256 16.122 64.378 16.6744 64.7805 17.3313L66.4858 16.2863ZM67.5 24C67.5 22.0938 67.5011 20.594 67.3872 19.396C67.2719 18.1833 67.0317 17.1771 66.4858 16.2863L64.7805 17.3313C65.1015 17.8551 65.2948 18.519 65.3962 19.5854C65.499 20.6666 65.5 22.0551 65.5 24H67.5ZM66.4858 31.7137C67.0317 30.8229 67.2719 29.8167 67.3872 28.604C67.5011 27.406 67.5 25.9062 67.5 24H65.5C65.5 25.9449 65.499 27.3334 65.3962 28.4146C65.2948 29.481 65.1015 30.1449 64.7805 30.6687L66.4858 31.7137ZM64.2137 33.9858C65.1397 33.4183 65.9183 32.6397 66.4858 31.7137L64.7805 30.6687C64.378 31.3256 63.8256 31.878 63.1687 32.2805L64.2137 33.9858ZM63.1909 34.4691C63.5529 34.3417 63.8919 34.183 64.2137 33.9858L63.1687 32.2805C62.9753 32.3991 62.7652 32.4986 62.527 32.5825L63.1909 34.4691ZM56.5 32C57.8989 32 59.1621 32.5732 60.0707 33.5L61.4989 32.0999C60.2297 30.8052 58.458 30 56.5 30V32ZM52.9293 33.5C53.8379 32.5732 55.1011 32 56.5 32V30C54.5421 30 52.7704 30.8052 51.5011 32.0999L52.9293 33.5ZM48.7863 33.9858C49.1082 34.183 49.4472 34.3417 49.8091 34.469L50.4731 32.5825C50.2349 32.4986 50.0248 32.3991 49.8313 32.2805L48.7863 33.9858ZM46.5142 31.7137C47.0817 32.6397 47.8603 33.4183 48.7863 33.9858L49.8313 32.2805C49.1744 31.878 48.622 31.3256 48.2195 30.6687L46.5142 31.7137ZM46.031 30.6909C46.1583 31.0528 46.317 31.3919 46.5142 31.7137L48.2195 30.6687C48.1009 30.4753 48.0014 30.2651 47.9175 30.0269L46.031 30.6909ZM48.5 24C48.5 25.3989 47.9268 26.6621 47 27.5707L48.4001 28.9989C49.6948 27.7296 50.5 25.9579 50.5 24H48.5ZM51.5011 32.0999C51.2911 32.3141 51.0708 32.468 50.8761 32.5466C50.692 32.6209 50.5678 32.6158 50.4731 32.5825L49.8091 34.469C51.1257 34.9324 52.2943 34.1477 52.9293 33.5L51.5011 32.0999ZM47.9175 30.0269C47.8842 29.9322 47.8791 29.808 47.9534 29.6239C48.032 29.4293 48.1859 29.2089 48.4001 28.9989L47 27.5707C46.3523 28.2057 45.5676 29.3743 46.031 30.6909L47.9175 30.0269ZM62.527 32.5825C62.4322 32.6158 62.308 32.6209 62.1239 32.5466C61.9293 32.468 61.7089 32.3141 61.4989 32.0999L60.0707 33.5C60.7057 34.1477 61.8744 34.9324 63.1909 34.4691L62.527 32.5825ZM48.4001 19.0011C48.1859 18.7911 48.032 18.5707 47.9534 18.3761C47.8791 18.192 47.8842 18.0678 47.9175 17.9731L46.031 17.3091C45.5676 18.6257 46.3523 19.7943 47 20.4293L48.4001 19.0011Z" fill="url(#paint8_linear_672_2019)" mask="url(#path-7-inside-4_672_2019)"/>
</g>
<g filter="url(#filter4_d_672_2019)">
<rect x="22.5" y="35" width="4" height="10" rx="2" fill="url(#paint9_linear_672_2019)"/>
<rect x="23" y="35.5" width="3" height="9" rx="1.5" stroke="url(#paint10_linear_672_2019)"/>
</g>
<g filter="url(#filter5_d_672_2019)">
<rect x="54.5" y="35" width="4" height="10" rx="2" fill="url(#paint11_linear_672_2019)"/>
<rect x="55" y="35.5" width="3" height="9" rx="1.5" stroke="url(#paint12_linear_672_2019)"/>
</g>
<g filter="url(#filter6_d_672_2019)">
<rect x="35.5" y="22" width="10" height="4" rx="2" fill="url(#paint13_linear_672_2019)"/>
<rect x="36" y="22.5" width="9" height="3" rx="1.5" stroke="url(#paint14_linear_672_2019)"/>
</g>
<g filter="url(#filter7_d_672_2019)">
<rect x="35.5" y="54" width="10" height="4" rx="2" fill="url(#paint15_linear_672_2019)"/>
<rect x="36" y="54.5" width="9" height="3" rx="1.5" stroke="url(#paint16_linear_672_2019)"/>
</g>
<defs>
<filter id="filter0_d_672_2019" x="12.5" y="45.3941" width="23.6058" height="23.6059" filterUnits="userSpaceOnUse" color-interpolation-filters="sRGB">
<feFlood flood-opacity="0" result="BackgroundImageFix"/>
<feColorMatrix in="SourceAlpha" type="matrix" values="0 0 0 0 0 0 0 0 0 0 0 0 0 0 0 0 0 0 127 0" result="hardAlpha"/>
<feOffset dy="1"/>
<feGaussianBlur stdDeviation="1"/>
<feComposite in2="hardAlpha" operator="out"/>
<feColorMatrix type="matrix" values="0 0 0 0 0 0 0 0 0 0 0 0 0 0 0 0 0 0 0.5 0"/>
<feBlend mode="normal" in2="BackgroundImageFix" result="effect1_dropShadow_672_2019"/>
<feBlend mode="normal" in="SourceGraphic" in2="effect1_dropShadow_672_2019" result="shape"/>
</filter>
<filter id="filter1_d_672_2019" x="44.8942" y="45.394" width="23.6058" height="23.6059" filterUnits="userSpaceOnUse" color-interpolation-filters="sRGB">
<feFlood flood-opacity="0" result="BackgroundImageFix"/>
<feColorMatrix in="SourceAlpha" type="matrix" values="0 0 0 0 0 0 0 0 0 0 0 0 0 0 0 0 0 0 127 0" result="hardAlpha"/>
<feOffset dy="1"/>
<feGaussianBlur stdDeviation="1"/>
<feComposite in2="hardAlpha" operator="out"/>
<feColorMatrix type="matrix" values="0 0 0 0 0 0 0 0 0 0 0 0 0 0 0 0 0 0 0.5 0"/>
<feBlend mode="normal" in2="BackgroundImageFix" result="effect1_dropShadow_672_2019"/>
<feBlend mode="normal" in="SourceGraphic" in2="effect1_dropShadow_672_2019" result="shape"/>
</filter>
<filter id="filter2_d_672_2019" x="12.5" y="13" width="23.6058" height="23.6059" filterUnits="userSpaceOnUse" color-interpolation-filters="sRGB">
<feFlood flood-opacity="0" result="BackgroundImageFix"/>
<feColorMatrix in="SourceAlpha" type="matrix" values="0 0 0 0 0 0 0 0 0 0 0 0 0 0 0 0 0 0 127 0" result="hardAlpha"/>
<feOffset dy="1"/>
<feGaussianBlur stdDeviation="1"/>
<feComposite in2="hardAlpha" operator="out"/>
<feColorMatrix type="matrix" values="0 0 0 0 0 0 0 0 0 0 0 0 0 0 0 0 0 0 0.5 0"/>
<feBlend mode="normal" in2="BackgroundImageFix" result="effect1_dropShadow_672_2019"/>
<feBlend mode="normal" in="SourceGraphic" in2="effect1_dropShadow_672_2019" result="shape"/>
</filter>
<filter id="filter3_d_672_2019" x="44.8942" y="13" width="23.6058" height="23.6059" filterUnits="userSpaceOnUse" color-interpolation-filters="sRGB">
<feFlood flood-opacity="0" result="BackgroundImageFix"/>
<feColorMatrix in="SourceAlpha" type="matrix" values="0 0 0 0 0 0 0 0 0 0 0 0 0 0 0 0 0 0 127 0" result="hardAlpha"/>
<feOffset dy="1"/>
<feGaussianBlur stdDeviation="1"/>
<feComposite in2="hardAlpha" operator="out"/>
<feColorMatrix type="matrix" values="0 0 0 0 0 0 0 0 0 0 0 0 0 0 0 0 0 0 0.5 0"/>
<feBlend mode="normal" in2="BackgroundImageFix" result="effect1_dropShadow_672_2019"/>
<feBlend mode="normal" in="SourceGraphic" in2="effect1_dropShadow_672_2019" result="shape"/>
</filter>
<filter id="filter4_d_672_2019" x="20.5" y="34" width="8" height="14" filterUnits="userSpaceOnUse" color-interpolation-filters="sRGB">
<feFlood flood-opacity="0" result="BackgroundImageFix"/>
<feColorMatrix in="SourceAlpha" type="matrix" values="0 0 0 0 0 0 0 0 0 0 0 0 0 0 0 0 0 0 127 0" result="hardAlpha"/>
<feOffset dy="1"/>
<feGaussianBlur stdDeviation="1"/>
<feComposite in2="hardAlpha" operator="out"/>
<feColorMatrix type="matrix" values="0 0 0 0 0 0 0 0 0 0 0 0 0 0 0 0 0 0 0.5 0"/>
<feBlend mode="normal" in2="BackgroundImageFix" result="effect1_dropShadow_672_2019"/>
<feBlend mode="normal" in="SourceGraphic" in2="effect1_dropShadow_672_2019" result="shape"/>
</filter>
<filter id="filter5_d_672_2019" x="52.5" y="34" width="8" height="14" filterUnits="userSpaceOnUse" color-interpolation-filters="sRGB">
<feFlood flood-opacity="0" result="BackgroundImageFix"/>
<feColorMatrix in="SourceAlpha" type="matrix" values="0 0 0 0 0 0 0 0 0 0 0 0 0 0 0 0 0 0 127 0" result="hardAlpha"/>
<feOffset dy="1"/>
<feGaussianBlur stdDeviation="1"/>
<feComposite in2="hardAlpha" operator="out"/>
<feColorMatrix type="matrix" values="0 0 0 0 0 0 0 0 0 0 0 0 0 0 0 0 0 0 0.5 0"/>
<feBlend mode="normal" in2="BackgroundImageFix" result="effect1_dropShadow_672_2019"/>
<feBlend mode="normal" in="SourceGraphic" in2="effect1_dropShadow_672_2019" result="shape"/>
</filter>
<filter id="filter6_d_672_2019" x="33.5" y="21" width="14" height="8" filterUnits="userSpaceOnUse" color-interpolation-filters="sRGB">
<feFlood flood-opacity="0" result="BackgroundImageFix"/>
<feColorMatrix in="SourceAlpha" type="matrix" values="0 0 0 0 0 0 0 0 0 0 0 0 0 0 0 0 0 0 127 0" result="hardAlpha"/>
<feOffset dy="1"/>
<feGaussianBlur stdDeviation="1"/>
<feComposite in2="hardAlpha" operator="out"/>
<feColorMatrix type="matrix" values="0 0 0 0 0 0 0 0 0 0 0 0 0 0 0 0 0 0 0.5 0"/>
<feBlend mode="normal" in2="BackgroundImageFix" result="effect1_dropShadow_672_2019"/>
<feBlend mode="normal" in="SourceGraphic" in2="effect1_dropShadow_672_2019" result="shape"/>
</filter>
<filter id="filter7_d_672_2019" x="33.5" y="53" width="14" height="8" filterUnits="userSpaceOnUse" color-interpolation-filters="sRGB">
<feFlood flood-opacity="0" result="BackgroundImageFix"/>
<feColorMatrix in="SourceAlpha" type="matrix" values="0 0 0 0 0 0 0 0 0 0 0 0 0 0 0 0 0 0 127 0" result="hardAlpha"/>
<feOffset dy="1"/>
<feGaussianBlur stdDeviation="1"/>
<feComposite in2="hardAlpha" operator="out"/>
<feColorMatrix type="matrix" values="0 0 0 0 0 0 0 0 0 0 0 0 0 0 0 0 0 0 0.5 0"/>
<feBlend mode="normal" in2="BackgroundImageFix" result="effect1_dropShadow_672_2019"/>
<feBlend mode="normal" in="SourceGraphic" in2="effect1_dropShadow_672_2019" result="shape"/>
</filter>
<linearGradient id="paint0_linear_672_2019" x1="40" y1="0" x2="40" y2="80" gradientUnits="userSpaceOnUse">
<stop stop-color="#0284C7"/>
<stop offset="1" stop-color="#0C4A6E"/>
</linearGradient>
<linearGradient id="paint1_linear_672_2019" x1="24.3029" y1="46.3941" x2="24.3029" y2="66" gradientUnits="userSpaceOnUse">
<stop stop-color="#F3F4F6"/>
<stop offset="1" stop-color="#9CA3AF"/>
</linearGradient>
<linearGradient id="paint2_linear_672_2019" x1="24.3029" y1="46.3941" x2="24.3029" y2="66" gradientUnits="userSpaceOnUse">
<stop stop-color="white" stop-opacity="0.8"/>
<stop offset="1" stop-color="white" stop-opacity="0"/>
</linearGradient>
<linearGradient id="paint3_linear_672_2019" x1="56.6971" y1="46.394" x2="56.6971" y2="65.9999" gradientUnits="userSpaceOnUse">
<stop stop-color="#F3F4F6"/>
<stop offset="1" stop-color="#9CA3AF"/>
</linearGradient>
<linearGradient id="paint4_linear_672_2019" x1="56.6971" y1="46.394" x2="56.6971" y2="65.9999" gradientUnits="userSpaceOnUse">
<stop stop-color="white" stop-opacity="0.8"/>
<stop offset="1" stop-color="white" stop-opacity="0"/>
</linearGradient>
<linearGradient id="paint5_linear_672_2019" x1="24.3029" y1="14" x2="24.3029" y2="33.6058" gradientUnits="userSpaceOnUse">
<stop stop-color="#F3F4F6"/>
<stop offset="1" stop-color="#9CA3AF"/>
</linearGradient>
<linearGradient id="paint6_linear_672_2019" x1="24.3029" y1="14" x2="24.3029" y2="33.6058" gradientUnits="userSpaceOnUse">
<stop stop-color="white" stop-opacity="0.8"/>
<stop offset="1" stop-color="white" stop-opacity="0"/>
</linearGradient>
<linearGradient id="paint7_linear_672_2019" x1="56.6971" y1="14" x2="56.6971" y2="33.6058" gradientUnits="userSpaceOnUse">
<stop stop-color="#F3F4F6"/>
<stop offset="1" stop-color="#9CA3AF"/>
</linearGradient>
<linearGradient id="paint8_linear_672_2019" x1="56.6971" y1="14" x2="56.6971" y2="33.6058" gradientUnits="userSpaceOnUse">
<stop stop-color="white" stop-opacity="0.8"/>
<stop offset="1" stop-color="white" stop-opacity="0"/>
</linearGradient>
<linearGradient id="paint9_linear_672_2019" x1="24.5" y1="35" x2="24.5" y2="45" gradientUnits="userSpaceOnUse">
<stop stop-color="#FDE68A"/>
<stop offset="1" stop-color="#D97706"/>
</linearGradient>
<linearGradient id="paint10_linear_672_2019" x1="24.5" y1="35" x2="24.5" y2="45" gradientUnits="userSpaceOnUse">
<stop stop-color="white" stop-opacity="0.8"/>
<stop offset="1" stop-color="white" stop-opacity="0"/>
</linearGradient>
<linearGradient id="paint11_linear_672_2019" x1="56.5" y1="35" x2="56.5" y2="45" gradientUnits="userSpaceOnUse">
<stop stop-color="#FDE68A"/>
<stop offset="1" stop-color="#D97706"/>
</linearGradient>
<linearGradient id="paint12_linear_672_2019" x1="56.5" y1="35" x2="56.5" y2="45" gradientUnits="userSpaceOnUse">
<stop stop-color="white" stop-opacity="0.8"/>
<stop offset="1" stop-color="white" stop-opacity="0"/>
</linearGradient>
<linearGradient id="paint13_linear_672_2019" x1="40.5" y1="22" x2="40.5" y2="26" gradientUnits="userSpaceOnUse">
<stop stop-color="#FDE68A"/>
<stop offset="1" stop-color="#D97706"/>
</linearGradient>
<linearGradient id="paint14_linear_672_2019" x1="40.5" y1="22" x2="40.5" y2="26" gradientUnits="userSpaceOnUse">
<stop stop-color="white" stop-opacity="0.8"/>
<stop offset="1" stop-color="white" stop-opacity="0"/>
</linearGradient>
<linearGradient id="paint15_linear_672_2019" x1="40.5" y1="54" x2="40.5" y2="58" gradientUnits="userSpaceOnUse">
<stop stop-color="#FDE68A"/>
<stop offset="1" stop-color="#D97706"/>
</linearGradient>
<linearGradient id="paint16_linear_672_2019" x1="40.5" y1="54" x2="40.5" y2="58" gradientUnits="userSpaceOnUse">
<stop stop-color="white" stop-opacity="0.8"/>
<stop offset="1" stop-color="white" stop-opacity="0"/>
</linearGradient>
</defs>
</svg>
