<svg width="48" height="48" viewBox="0 0 48 48" fill="none" xmlns="http://www.w3.org/2000/svg">
<rect width="48" height="48" fill="url(#paint0_linear_221_2326)"/>
<path d="M18.75 32.5C21.4703 29.5695 26.5005 29.4314 29.25 32.5M26.9109 23.5C26.9109 25.1569 25.6032 26.5 23.9901 26.5C22.377 26.5 21.0693 25.1569 21.0693 23.5C21.0693 21.8431 22.377 20.5 23.9901 20.5C25.6032 20.5 26.9109 21.8431 26.9109 23.5Z" stroke="white" stroke-width="2.25" stroke-linecap="round"/>
<path d="M20.25 11.5029C16.2834 11.5177 14.1615 11.6564 12.7877 12.9579C11.25 14.4147 11.25 16.7593 11.25 21.4486V28.5538C11.25 33.2431 11.25 35.5876 12.7877 37.0444C14.3254 38.5012 16.8003 38.5012 21.75 38.5012H26.25C31.1997 38.5012 33.6745 38.5012 35.2123 37.0444C36.75 35.5876 36.75 33.2431 36.75 28.5538V21.4486C36.75 16.7593 36.75 14.4147 35.2123 12.9579C33.8385 11.6564 31.7166 11.5177 27.75 11.5029" stroke="white" stroke-width="2.25" stroke-linecap="round" stroke-linejoin="round"/>
<path d="M20.6582 10.9474C20.8021 10.3252 20.8741 10.0141 21.0123 9.76006C21.3343 9.16819 21.9282 8.73322 22.6371 8.57005C22.9414 8.5 23.2944 8.5 24 8.5C24.7056 8.5 25.0585 8.5 25.3629 8.57005C26.0718 8.73322 26.6656 9.16817 26.9877 9.76006C27.1258 10.0141 27.1978 10.3252 27.3417 10.9474L27.4666 11.4876C27.7219 12.5912 27.8496 13.1429 27.657 13.5674C27.5323 13.8423 27.3198 14.0776 27.0465 14.2437C26.6244 14.5 25.9986 14.5 24.7471 14.5H23.2528C22.0014 14.5 21.3756 14.5 20.9535 14.2437C20.6802 14.0776 20.4676 13.8423 20.343 13.5674C20.1504 13.1429 20.278 12.5912 20.5333 11.4876L20.6582 10.9474Z" stroke="white" stroke-width="2.25"/>
<defs>
<linearGradient id="paint0_linear_221_2326" x1="24" y1="0" x2="24" y2="48" gradientUnits="userSpaceOnUse">
<stop stop-color="#3B82F6"/>
<stop offset="1" stop-color="#5850EC"/>
</linearGradient>
</defs>
</svg>
