<svg width="81" height="80" viewBox="0 0 81 80" fill="none" xmlns="http://www.w3.org/2000/svg">
<rect width="80" height="80" transform="translate(0.5)" fill="url(#paint0_linear_773_6855)"/>
<g filter="url(#filter0_dd_773_6855)">
<path d="M21.8351 45.751C21.3491 45.3756 20.7566 45.1129 20.1516 45.2183C19.4208 45.3457 18.8301 45.5474 18.3088 45.8668C17.5173 46.3518 16.8519 47.0173 16.3668 47.8088C15.5 49.2233 15.5 51.149 15.5 55C15.5 58.851 15.5 60.7768 16.3668 62.1913C16.8519 62.9828 17.5173 63.6483 18.3088 64.1333C19.7234 65 21.6489 65 25.5 65C29.3511 65 31.2766 65 32.6912 64.1333C33.4827 63.6483 34.1481 62.9828 34.6332 62.1913C34.9526 61.67 35.1543 61.0794 35.2817 60.3485C35.3871 59.7435 35.1245 59.1509 34.749 58.665C33.9659 57.6513 33.5 56.3801 33.5 55C33.5 53.62 33.9659 52.3488 34.749 51.3351C35.1245 50.8491 35.3871 50.2565 35.2817 49.6516C35.1543 48.9207 34.9526 48.33 34.6332 47.8088C34.1481 47.0173 33.4827 46.3518 32.6912 45.8668C32.1699 45.5474 31.5792 45.3457 30.8484 45.2183C30.2434 45.1129 29.6509 45.3756 29.1649 45.751C28.1512 46.5341 26.88 47 25.5 47C24.12 47 22.8488 46.5341 21.8351 45.751Z" fill="url(#paint1_linear_773_6855)"/>
<path d="M48.3088 45.8667C48.8301 45.5473 49.4207 45.3456 50.1514 45.2182C50.7564 45.1128 51.349 45.3755 51.835 45.7509C52.8487 46.5341 54.1199 47 55.5 47C56.8801 47 58.1513 46.5341 59.165 45.7509C59.651 45.3755 60.2436 45.1128 60.8486 45.2182C61.5793 45.3456 62.17 45.5473 62.6912 45.8667C63.4827 46.3517 64.1482 47.0172 64.6332 47.8087C65.5 49.2232 65.5 51.1489 65.5 54.9999C65.5 58.8509 65.5 60.7767 64.6332 62.1912C64.1482 62.9827 63.4827 63.6482 62.6912 64.1332C61.2767 64.9999 59.3511 64.9999 55.5 64.9999C51.6489 64.9999 49.7234 64.9999 48.3088 64.1332C47.5173 63.6482 46.8519 62.9827 46.3668 62.1912C46.0474 61.6699 45.8457 61.0793 45.7183 60.3484C45.6129 59.7435 45.8756 59.1509 46.251 58.6649C47.0341 57.6513 47.4999 56.3801 47.4999 55C47.4999 53.62 47.034 52.3488 46.2509 51.3351C45.8755 50.8492 45.6129 50.2566 45.7183 49.6517C45.8457 48.9207 46.0474 48.33 46.3668 47.8087C46.8519 47.0172 47.5173 46.3517 48.3088 45.8667Z" fill="url(#paint2_linear_773_6855)"/>
<path d="M15.5 25C15.5 21.1489 15.5 19.2233 16.3668 17.8088C16.8519 17.0173 17.5173 16.3519 18.3088 15.8668C19.7233 15 21.6489 15 25.5 15C29.3511 15 31.2766 15 32.6912 15.8668C33.4827 16.3519 34.1481 17.0173 34.6332 17.8088C34.9526 18.3301 35.1543 18.9207 35.2817 19.6515C35.3871 20.2565 35.1245 20.8491 34.749 21.3351C33.9659 22.3487 33.5 23.62 33.5 25C33.5 26.38 33.9659 27.6513 34.749 28.6649C35.1245 29.1509 35.3871 29.7435 35.2817 30.3485C35.1543 31.0793 34.9526 31.6699 34.6332 32.1912C34.1481 32.9827 33.4827 33.6481 32.6912 34.1332C32.1699 34.4526 31.5793 34.6543 30.8485 34.7817C30.2435 34.8871 29.6509 34.6245 29.1649 34.249C28.1513 33.4659 26.88 33 25.5 33C24.12 33 22.8487 33.4659 21.8351 34.249C21.3491 34.6245 20.7565 34.8871 20.1515 34.7817C19.4207 34.6543 18.8301 34.4526 18.3088 34.1332C17.5173 33.6481 16.8519 32.9827 16.3668 32.1912C15.5 30.7766 15.5 28.8511 15.5 25Z" fill="url(#paint3_linear_773_6855)"/>
<path d="M47.4999 25C47.4999 23.62 47.034 22.3488 46.2509 21.3351C45.8755 20.8491 45.6128 20.2565 45.7183 19.6516C45.8457 18.9208 46.0474 18.3301 46.3668 17.8088C46.8518 17.0173 47.5173 16.3519 48.3088 15.8668C49.7233 15 51.6489 15 55.5 15C59.3511 15 61.2766 15 62.6912 15.8668C63.4827 16.3519 64.1481 17.0173 64.6332 17.8088C65.5 19.2234 65.5 21.1489 65.5 25C65.5 28.8511 65.5 30.7766 64.6332 32.1912C64.1481 32.9827 63.4827 33.6481 62.6912 34.1332C62.1699 34.4526 61.5793 34.6543 60.8485 34.7817C60.2435 34.8871 59.6509 34.6245 59.1649 34.249C58.1513 33.4659 56.88 33 55.5 33C54.12 33 52.8487 33.4659 51.8351 34.249C51.3491 34.6245 50.7565 34.8871 50.1515 34.7817C49.4207 34.6543 48.8301 34.4526 48.3088 34.1332C47.5173 33.6481 46.8518 32.9827 46.3668 32.1912C46.0474 31.6699 45.8457 31.0792 45.7183 30.3484C45.6128 29.7435 45.8755 29.1509 46.2509 28.6649C47.034 27.6512 47.4999 26.38 47.4999 25Z" fill="url(#paint4_linear_773_6855)"/>
<rect x="22.5" y="36" width="6" height="8" rx="3" fill="url(#paint5_linear_773_6855)"/>
<rect x="52.5" y="36" width="6" height="8" rx="3" fill="url(#paint6_linear_773_6855)"/>
<rect x="36.5" y="22" width="8" height="6" rx="3" fill="url(#paint7_linear_773_6855)"/>
<rect x="36.5" y="52" width="8" height="6" rx="3" fill="url(#paint8_linear_773_6855)"/>
</g>
<defs>
<filter id="filter0_dd_773_6855" x="10.5" y="12" width="60" height="60" filterUnits="userSpaceOnUse" color-interpolation-filters="sRGB">
<feFlood flood-opacity="0" result="BackgroundImageFix"/>
<feColorMatrix in="SourceAlpha" type="matrix" values="0 0 0 0 0 0 0 0 0 0 0 0 0 0 0 0 0 0 127 0" result="hardAlpha"/>
<feOffset dy="1"/>
<feComposite in2="hardAlpha" operator="out"/>
<feColorMatrix type="matrix" values="0 0 0 0 0 0 0 0 0 0 0 0 0 0 0 0 0 0 0.2 0"/>
<feBlend mode="normal" in2="BackgroundImageFix" result="effect1_dropShadow_773_6855"/>
<feColorMatrix in="SourceAlpha" type="matrix" values="0 0 0 0 0 0 0 0 0 0 0 0 0 0 0 0 0 0 127 0" result="hardAlpha"/>
<feOffset dy="2"/>
<feGaussianBlur stdDeviation="1"/>
<feComposite in2="hardAlpha" operator="out"/>
<feColorMatrix type="matrix" values="0 0 0 0 0 0 0 0 0 0 0 0 0 0 0 0 0 0 0.2 0"/>
<feBlend mode="normal" in2="effect1_dropShadow_773_6855" result="effect2_dropShadow_773_6855"/>
<feBlend mode="normal" in="SourceGraphic" in2="effect2_dropShadow_773_6855" result="shape"/>
</filter>
<linearGradient id="paint0_linear_773_6855" x1="40" y1="0" x2="40" y2="80" gradientUnits="userSpaceOnUse">
<stop stop-color="#0369A1"/>
<stop offset="1" stop-color="#1E3A8A"/>
</linearGradient>
<linearGradient id="paint1_linear_773_6855" x1="25.4026" y1="45.1949" x2="25.4026" y2="65" gradientUnits="userSpaceOnUse">
<stop stop-color="#F3F4F6"/>
<stop offset="1" stop-color="#9CA3AF"/>
</linearGradient>
<linearGradient id="paint2_linear_773_6855" x1="55.5974" y1="45.1948" x2="55.5974" y2="64.9999" gradientUnits="userSpaceOnUse">
<stop stop-color="#F3F4F6"/>
<stop offset="1" stop-color="#9CA3AF"/>
</linearGradient>
<linearGradient id="paint3_linear_773_6855" x1="25.4026" y1="15" x2="25.4026" y2="34.8052" gradientUnits="userSpaceOnUse">
<stop stop-color="#F3F4F6"/>
<stop offset="1" stop-color="#9CA3AF"/>
</linearGradient>
<linearGradient id="paint4_linear_773_6855" x1="55.5974" y1="15" x2="55.5974" y2="34.8052" gradientUnits="userSpaceOnUse">
<stop stop-color="#F3F4F6"/>
<stop offset="1" stop-color="#9CA3AF"/>
</linearGradient>
<linearGradient id="paint5_linear_773_6855" x1="25.5" y1="36" x2="25.5" y2="44" gradientUnits="userSpaceOnUse">
<stop stop-color="#FDE68A"/>
<stop offset="1" stop-color="#D97706"/>
</linearGradient>
<linearGradient id="paint6_linear_773_6855" x1="55.5" y1="36" x2="55.5" y2="44" gradientUnits="userSpaceOnUse">
<stop stop-color="#FDE68A"/>
<stop offset="1" stop-color="#D97706"/>
</linearGradient>
<linearGradient id="paint7_linear_773_6855" x1="40.5" y1="22" x2="40.5" y2="28" gradientUnits="userSpaceOnUse">
<stop stop-color="#FDE68A"/>
<stop offset="1" stop-color="#D97706"/>
</linearGradient>
<linearGradient id="paint8_linear_773_6855" x1="40.5" y1="52" x2="40.5" y2="58" gradientUnits="userSpaceOnUse">
<stop stop-color="#FDE68A"/>
<stop offset="1" stop-color="#D97706"/>
</linearGradient>
</defs>
</svg>
