<svg width="80" height="80" viewBox="0 0 80 80" fill="none" xmlns="http://www.w3.org/2000/svg">
<rect width="80" height="80" fill="url(#paint0_linear_830_7608)"/>
<g filter="url(#filter0_dd_830_7608)">
<rect x="17" y="15" width="46" height="14" rx="7" fill="url(#paint1_linear_830_7608)"/>
<path fill-rule="evenodd" clip-rule="evenodd" d="M24 33C20.134 33 17 36.134 17 40C17 43.866 20.134 47 24 47H56C59.866 47 63 43.866 63 40C63 36.134 59.866 33 56 33H24ZM29 37C27.3431 37 26 38.3431 26 40C26 41.6569 27.3431 43 29 43C30.6569 43 32 41.6569 32 40C32 38.3431 30.6569 37 29 37ZM37 40C37 38.3431 38.3431 37 40 37C41.6569 37 43 38.3431 43 40C43 41.6569 41.6569 43 40 43C38.3431 43 37 41.6569 37 40ZM51 37C49.3431 37 48 38.3431 48 40C48 41.6569 49.3431 43 51 43C52.6569 43 54 41.6569 54 40C54 38.3431 52.6569 37 51 37Z" fill="url(#paint2_linear_830_7608)"/>
<rect x="17" y="51" width="46" height="14" rx="7" fill="url(#paint3_linear_830_7608)"/>
</g>
<defs>
<filter id="filter0_dd_830_7608" x="8" y="10" width="64" height="64" filterUnits="userSpaceOnUse" color-interpolation-filters="sRGB">
<feFlood flood-opacity="0" result="BackgroundImageFix"/>
<feColorMatrix in="SourceAlpha" type="matrix" values="0 0 0 0 0 0 0 0 0 0 0 0 0 0 0 0 0 0 127 0" result="hardAlpha"/>
<feOffset dy="1"/>
<feComposite in2="hardAlpha" operator="out"/>
<feColorMatrix type="matrix" values="0 0 0 0 0 0 0 0 0 0 0 0 0 0 0 0 0 0 0.25 0"/>
<feBlend mode="normal" in2="BackgroundImageFix" result="effect1_dropShadow_830_7608"/>
<feColorMatrix in="SourceAlpha" type="matrix" values="0 0 0 0 0 0 0 0 0 0 0 0 0 0 0 0 0 0 127 0" result="hardAlpha"/>
<feOffset dy="2"/>
<feGaussianBlur stdDeviation="2"/>
<feComposite in2="hardAlpha" operator="out"/>
<feColorMatrix type="matrix" values="0 0 0 0 0 0 0 0 0 0 0 0 0 0 0 0 0 0 0.25 0"/>
<feBlend mode="normal" in2="effect1_dropShadow_830_7608" result="effect2_dropShadow_830_7608"/>
<feBlend mode="normal" in="SourceGraphic" in2="effect2_dropShadow_830_7608" result="shape"/>
</filter>
<linearGradient id="paint0_linear_830_7608" x1="40" y1="0" x2="40" y2="80" gradientUnits="userSpaceOnUse">
<stop stop-color="#0369A1"/>
<stop offset="1" stop-color="#1E3A8A"/>
</linearGradient>
<linearGradient id="paint1_linear_830_7608" x1="40" y1="15" x2="40" y2="29" gradientUnits="userSpaceOnUse">
<stop stop-color="#F3F4F6"/>
<stop offset="1" stop-color="#9CA3AF"/>
</linearGradient>
<linearGradient id="paint2_linear_830_7608" x1="40" y1="33" x2="40" y2="47" gradientUnits="userSpaceOnUse">
<stop stop-color="#F3F4F6"/>
<stop offset="1" stop-color="#9CA3AF"/>
</linearGradient>
<linearGradient id="paint3_linear_830_7608" x1="40" y1="51" x2="40" y2="65" gradientUnits="userSpaceOnUse">
<stop stop-color="#FDE68A"/>
<stop offset="1" stop-color="#D97706"/>
</linearGradient>
</defs>
</svg>
