<?xml version="1.0" encoding="UTF-8"?>
<svg width="130px" height="130px" viewBox="0 0 130 130" version="1.1" xmlns="http://www.w3.org/2000/svg" xmlns:xlink="http://www.w3.org/1999/xlink">
    <!-- Generator: Sketch 40.3 (33839) - http://www.bohemiancoding.com/sketch -->
    <title>nav</title>
    <desc>Created with Sketch.</desc>
    <defs>
        <path d="M64,0 C111.3344,0 128,16.6656 128,64 C128,111.3344 111.3344,128 64,128 C16.6656,128 0,111.3344 0,64 C0,16.6656 16.6656,0 64,0 L64,0 Z" id="path-1"></path>
        <mask id="mask-2" maskContentUnits="userSpaceOnUse" maskUnits="objectBoundingBox" x="-1" y="-1" width="130" height="130">
            <rect x="-1" y="-1" width="130" height="130" fill="white"></rect>
            <use xlink:href="#path-1" fill="black"></use>
        </mask>
        <linearGradient x1="50%" y1="0%" x2="50%" y2="100%" id="linearGradient-3">
            <stop stop-color="#FFFFFF" stop-opacity="0.2" offset="0%"></stop>
            <stop stop-color="#000000" stop-opacity="0.2" offset="100%"></stop>
        </linearGradient>
        <path d="M128,64 C128,111.3344 111.3344,128 64,128 C16.6656,128 0,111.3344 0,64 C0,16.6656 16.6656,0 64,0 C111.3344,0 128,16.6656 128,64 Z" id="path-4"></path>
        <mask id="mask-5" maskContentUnits="userSpaceOnUse" maskUnits="objectBoundingBox" x="-1" y="-1" width="130" height="130">
            <rect x="-1" y="-1" width="130" height="130" fill="white"></rect>
            <use xlink:href="#path-4" fill="black"></use>
        </mask>
    </defs>
    <g id="Page-1" stroke="none" stroke-width="1" fill="none" fill-rule="evenodd">
        <g id="nav" transform="translate(1.000000, 1.000000)">
            <g id="Shape">
                <use fill="#B7F5E7" fill-rule="evenodd" xlink:href="#path-1"></use>
                <use stroke-opacity="0.3" stroke="#000000" mask="url(#mask-2)" stroke-width="2" xlink:href="#path-1"></use>
            </g>
            <g id="Group" transform="translate(31.000000, 26.000000)" stroke-width="2">
                <path d="M33.0782609,0 C34.0173913,0 34.7826087,0.765217391 34.7826087,1.70434783 L34.7826087,80 L31.3043478,80 L31.3043478,1.77391304 C31.3043478,0.8 32.1043478,0 33.0782609,0 L33.0782609,0 Z" id="Shape" stroke="#AE7C5B" fill="#AE7C5B"></path>
                <polygon id="Shape" stroke="#C18D6A" fill="#F6C4A3" points="66.0869565 15.6521739 59.1304348 24.3478261 6.95652174 24.3478261 6.95652174 6.95652174 59.1304348 6.95652174" stroke-linecap="round" stroke-linejoin="round"></polygon>
                <polygon id="Shape" stroke="#CB9673" fill="#F6C4A3" points="0 43.4782609 6.95652174 34.7826087 59.1304348 34.7826087 59.1304348 52.173913 6.95652174 52.173913" stroke-linecap="round" stroke-linejoin="round"></polygon>
            </g>
            <g id="Group">
                <g id="Shape-Copy">
                    <use fill="url(#linearGradient-3)" fill-rule="evenodd" xlink:href="#path-4"></use>
                    <use stroke-opacity="0.5" stroke="#000000" mask="url(#mask-5)" stroke-width="2" xlink:href="#path-4"></use>
                </g>
            </g>
        </g>
    </g>
</svg>