<svg width="96" height="96" viewBox="0 0 96 96" fill="none" xmlns="http://www.w3.org/2000/svg">
<g clip-path="url(#clip0_69_695)">
<path d="M80 0H16C7.16344 0 0 7.16344 0 16V80C0 88.8366 7.16344 96 16 96H80C88.8366 96 96 88.8366 96 80V16C96 7.16344 88.8366 0 80 0Z" fill="url(#paint0_linear_69_695)"/>
<path d="M43 20.5C42.337 20.5 41.701 20.7634 41.2322 21.2322C40.7634 21.701 40.5 22.337 40.5 23V28H15.5C14.1739 28 12.9021 28.5268 11.9645 29.4644C11.0268 30.4022 10.5 31.674 10.5 33V63C10.5 64.326 11.0268 65.5978 11.9645 66.5356C12.9021 67.4732 14.1739 68 15.5 68H40.5V73C40.5 73.663 40.7634 74.299 41.2322 74.7678C41.701 75.2366 42.337 75.5 43 75.5C43.663 75.5 44.299 75.2366 44.7678 74.7678C45.2366 74.299 45.5 73.663 45.5 73V23C45.5 22.337 45.2366 21.701 44.7678 21.2322C44.299 20.7634 43.663 20.5 43 20.5ZM15.5 63V33H40.5V63H15.5ZM85.5 33V63C85.5 64.326 84.9732 65.5978 84.0356 66.5356C83.0978 67.4732 81.826 68 80.5 68H53C52.337 68 51.701 67.7366 51.2322 67.2678C50.7634 66.799 50.5 66.163 50.5 65.5C50.5 64.837 50.7634 64.201 51.2322 63.7322C51.701 63.2634 52.337 63 53 63H80.5V33H53C52.337 33 51.701 32.7366 51.2322 32.2678C50.7634 31.799 50.5 31.163 50.5 30.5C50.5 29.837 50.7634 29.201 51.2322 28.7322C51.701 28.2634 52.337 28 53 28H80.5C81.826 28 83.0978 28.5268 84.0356 29.4644C84.9732 30.4022 85.5 31.674 85.5 33ZM35.5 43C35.5 43.663 35.2366 44.299 34.7678 44.7678C34.299 45.2366 33.663 45.5 33 45.5H30.5V53C30.5 53.663 30.2366 54.299 29.7678 54.7678C29.299 55.2366 28.663 55.5 28 55.5C27.337 55.5 26.701 55.2366 26.2322 54.7678C25.7634 54.299 25.5 53.663 25.5 53V45.5H23C22.337 45.5 21.701 45.2366 21.2322 44.7678C20.7634 44.299 20.5 43.663 20.5 43C20.5 42.337 20.7634 41.701 21.2322 41.2322C21.701 40.7634 22.337 40.5 23 40.5H33C33.663 40.5 34.299 40.7634 34.7678 41.2322C35.2366 41.701 35.5 42.337 35.5 43Z" fill="white"/>
</g>
<defs>
<linearGradient id="paint0_linear_69_695" x1="48" y1="0" x2="48" y2="96" gradientUnits="userSpaceOnUse">
<stop stop-color="#3B82F6"/>
<stop offset="1" stop-color="#2563EB"/>
</linearGradient>
<clipPath id="clip0_69_695">
<rect width="96" height="96" fill="white"/>
</clipPath>
</defs>
</svg>
