<svg width="48" height="48" viewBox="0 0 48 48" fill="none" xmlns="http://www.w3.org/2000/svg">
<rect width="48" height="48" fill="url(#paint0_linear_221_2321)"/>
<path d="M16.5 8.5C12.3579 8.5 9 11.8579 9 16C9 18.7761 10.5082 21.1999 12.75 22.4967V32.2646C12.75 33.4909 12.75 34.1041 12.9784 34.6553C13.2067 35.2067 13.6403 35.6403 14.5074 36.5074L16.5 38.5L19.6623 35.3377C19.8081 35.1919 19.8811 35.1188 19.9416 35.0398C20.1005 34.832 20.2022 34.5864 20.2368 34.327C20.25 34.2283 20.25 34.1251 20.25 33.9188C20.25 33.7519 20.25 33.6685 20.2411 33.5873C20.218 33.3746 20.1495 33.1695 20.0405 32.9854C19.9989 32.9152 19.9489 32.8484 19.8487 32.7149L18 30.25L19.05 28.85C19.6447 28.057 19.9421 27.6606 20.0961 27.1987C20.25 26.7369 20.25 26.2413 20.25 25.2501V22.4967C22.4918 21.1999 24 18.7761 24 16C24 11.8579 20.6421 8.5 16.5 8.5Z" stroke="white" stroke-width="2.25" stroke-linejoin="round"/>
<path d="M16.5 16H16.5135" stroke="white" stroke-width="3" stroke-linecap="round" stroke-linejoin="round"/>
<path d="M25.5 26.5H34.5C35.8979 26.5 36.5967 26.5 37.1481 26.7283C37.8831 27.0328 38.4672 27.6169 38.7717 28.3519C39 28.9033 39 29.6021 39 31C39 32.3979 39 33.0967 38.7717 33.6481C38.4672 34.3831 37.8831 34.9672 37.1481 35.2717C36.5967 35.5 35.8979 35.5 34.5 35.5H25.5" stroke="white" stroke-width="2.25" stroke-linecap="round"/>
<path d="M28.5 13H34.5C35.8979 13 36.5967 13 37.1481 13.2284C37.8831 13.5328 38.4672 14.1169 38.7717 14.8519C39 15.4033 39 16.1022 39 17.5C39 18.8978 39 19.5967 38.7717 20.1481C38.4672 20.8831 37.8831 21.4672 37.1481 21.7717C36.5967 22 35.8979 22 34.5 22H28.5" stroke="white" stroke-width="2.25" stroke-linecap="round"/>
<defs>
<linearGradient id="paint0_linear_221_2321" x1="24" y1="0" x2="24" y2="48" gradientUnits="userSpaceOnUse">
<stop stop-color="#3B82F6"/>
<stop offset="1" stop-color="#5850EC"/>
</linearGradient>
</defs>
</svg>
