<svg width="81" height="80" viewBox="0 0 81 80" fill="none" xmlns="http://www.w3.org/2000/svg">
<rect width="80" height="80" transform="translate(0.5)" fill="url(#paint0_linear_686_833)"/>
<g filter="url(#filter0_d_686_833)">
<path d="M44.5 28C44.5 31.0704 43.1504 33.9495 41.4406 36.434C40.7158 37.4871 41.4251 39 42.7035 39H59.5C63.366 39 66.5 35.866 66.5 32C66.5 28.134 63.366 25 59.5 25H46.8876C45.6427 25 44.5768 26.1384 44.517 27.3818C44.5071 27.5869 44.5 27.793 44.5 28Z" fill="url(#paint1_linear_686_833)"/>
<path d="M41.8524 36.7174C43.5888 34.1945 45 31.2151 45 28C45 27.8041 45.0067 27.6068 45.0164 27.4058C45.065 26.3951 45.9421 25.5 46.8876 25.5H59.5C63.0898 25.5 66 28.4101 66 32C66 35.5899 63.0898 38.5 59.5 38.5H42.7035C41.8755 38.5 41.3284 37.4788 41.8524 36.7174Z" stroke="url(#paint2_linear_686_833)"/>
</g>
<g filter="url(#filter1_d_686_833)">
<path d="M39.8376 58.5C38.794 58.5 37.958 57.6891 37.7098 56.6754C37.6509 56.4346 37.5813 56.2017 37.5 56C36.9182 54.5577 35.5333 53.6111 35 52.9C34.4666 52.1889 34.4405 51.2467 34.9739 50.5356C36.0048 49.161 36.9173 48.5938 37.5 47C37.5731 46.7999 37.6365 46.6084 37.6912 46.423C37.9981 45.3816 38.8482 44.5 39.9338 44.5C44.6285 44.5 56.4244 44.5 59.5 44.5C63.366 44.5 66.5 47.634 66.5 51.5C66.5 55.366 63.366 58.5 59.5 58.5C56.4018 58.5 44.4592 58.5 39.8376 58.5Z" fill="url(#paint3_linear_686_833)"/>
<path d="M35.3739 50.8356L35.3739 50.8356C35.6994 50.4016 35.9949 50.0711 36.2881 49.7432C36.4539 49.5578 36.6189 49.3732 36.7882 49.1711C37.2427 48.6289 37.6526 48.0389 37.9696 47.1717C38.0461 46.9624 38.1129 46.7608 38.1708 46.5644C38.4386 45.6555 39.1434 45 39.9338 45H39.9614H39.9892H40.0171H40.0452H40.0734H40.1018H40.1303H40.159H40.1879H40.2169H40.2461H40.2754H40.3049H40.3345H40.3643H40.3943H40.4244H40.4546H40.485H40.5156H40.5462H40.5771H40.6081H40.6392H40.6705H40.7019H40.7335H40.7652H40.797H40.829H40.8612H40.8934H40.9259H40.9584H40.9911H41.0239H41.0569H41.09H41.1233H41.1566H41.1901H41.2238H41.2576H41.2915H41.3255H41.3597H41.394H41.4284H41.463H41.4977H41.5325H41.5674H41.6025H41.6377H41.673H41.7084H41.744H41.7797H41.8155H41.8514H41.8874H41.9236H41.9599H41.9963H42.0328H42.0695H42.1062H42.1431H42.1801H42.2172H42.2544H42.2917H42.3291H42.3667H42.4043H42.4421H42.4799H42.5179H42.556H42.5942H42.6325H42.6709H42.7094H42.748H42.7868H42.8256H42.8645H42.9035H42.9426H42.9819H43.0212H43.0606H43.1001H43.1397H43.1794H43.2192H43.2591H43.2991H43.3392H43.3794H43.4197H43.46H43.5005H43.541H43.5817H43.6224H43.6632H43.7041H43.7451H43.7861H43.8273H43.8685H43.9098H43.9512H43.9927H44.0343H44.0759H44.1176H44.1594H44.2013H44.2433H44.2853H44.3274H44.3696H44.4119H44.4542H44.4966H44.5391H44.5817H44.6243H44.667H44.7097H44.7526H44.7955H44.8384H44.8815H44.9246H44.9678H45.011H45.0543H45.0977H45.1411H45.1846H45.2281H45.2717H45.3154H45.3591H45.4029H45.4468H45.4907H45.5346H45.5786H45.6227H45.6668H45.711H45.7552H45.7995H45.8439H45.8882H45.9327H45.9772H46.0217H46.0663H46.1109H46.1556H46.2003H46.2451H46.2899H46.3347H46.3796H46.4246H46.4696H46.5146H46.5596H46.6047H46.6499H46.6951H46.7403H46.7855H46.8308H46.8761H46.9215H46.9669H47.0123H47.0578H47.1033H47.1488H47.1943H47.2399H47.2855H47.3312H47.3768H47.4225H47.4682H47.514H47.5597H47.6055H47.6513H47.6972H47.743H47.7889H47.8348H47.8807H47.9267H47.9726H48.0186H48.0646H48.1106H48.1566H48.2027H48.2487H48.2948H48.3409H48.387H48.4331H48.4792H48.5253H48.5714H48.6176H48.6637H48.7098H48.756H48.8022H48.8483H48.8945H48.9407H48.9869H49.0331H49.0792H49.1254H49.1716H49.2178H49.264H49.3101H49.3563H49.4025H49.4487H49.4948H49.541H49.5871H49.6333H49.6794H49.7255H49.7716H49.8178H49.8638H49.9099H49.956H50.0021H50.0481H50.0941H50.1402H50.1862H50.2321H50.2781H50.3241H50.37H50.4159H50.4618H50.5077H50.5535H50.5993H50.6452H50.6909H50.7367H50.7824H50.8281H50.8738H50.9195H50.9651H51.0107H51.0563H51.1018H51.1473H51.1928H51.2382H51.2836H51.329H51.3744H51.4197H51.4649H51.5102H51.5554H51.6005H51.6457H51.6908H51.7358H51.7808H51.8258H51.8707H51.9156H51.9604H52.0052H52.05H52.0947H52.1393H52.1839H52.2285H52.273H52.3175H52.3619H52.4063H52.4506H52.4948H52.539H52.5832H52.6273H52.6713H52.7153H52.7593H52.8032H52.847H52.8907H52.9345H52.9781H53.0217H53.0652H53.1087H53.1521H53.1954H53.2387H53.2819H53.325H53.3681H53.4111H53.4541H53.497H53.5398H53.5825H53.6252H53.6678H53.7103H53.7527H53.7951H53.8374H53.8797H53.9218H53.9639H54.0059H54.0478H54.0897H54.1315H54.1731H54.2148H54.2563H54.2977H54.3391H54.3804H54.4216H54.4627H54.5037H54.5447H54.5855H54.6263H54.667H54.7076H54.7481H54.7885H54.8288H54.8691H54.9092H54.9493H54.9892H55.0291H55.0689H55.1085H55.1481H55.1876H55.227H55.2662H55.3054H55.3445H55.3835H55.4224H55.4612H55.4998H55.5384H55.5769H55.6152H55.6535H55.6917H55.7297H55.7676H55.8055H55.8432H55.8808H55.9183H55.9557H55.993H56.0301H56.0672H56.1041H56.1409H56.1776H56.2142H56.2507H56.2871H56.3233H56.3594H56.3954H56.4313H56.4671H56.5027H56.5382H56.5736H56.6089H56.644H56.679H56.7139H56.7487H56.7833H56.8178H56.8522H56.8864H56.9206H56.9546H56.9884H57.0221H57.0557H57.0892H57.1225H57.1557H57.1888H57.2217H57.2544H57.2871H57.3196H57.3519H57.3842H57.4162H57.4482H57.48H57.5116H57.5431H57.5745H57.6057H57.6368H57.6677H57.6985H57.7291H57.7596H57.79H57.8202H57.8502H57.8801H57.9098H57.9394H57.9688H57.9981H58.0272H58.0561H58.0849H58.1136H58.1421H58.1704H58.1986H58.2266H58.2544H58.2821H58.3096H58.337H58.3642H58.3912H58.4181H58.4448H58.4713H58.4977H58.5239H58.55H58.5758H58.6015H58.627H58.6524H58.6776H58.7026H58.7274H58.7521H58.7766H58.8009H58.825H58.849H58.8727H58.8964H58.9198H58.943H58.9661H58.989H59.0117H59.0342H59.0565H59.0787H59.1006H59.1224H59.144H59.1654H59.1866H59.2076H59.2285H59.2491H59.2696H59.2899H59.3099H59.3298H59.3495H59.369H59.3883H59.4074H59.4263H59.4451H59.4636H59.4819H59.5C63.0899 45 66 47.9101 66 51.5C66 55.0899 63.0899 58 59.5 58H59.4818H59.4633H59.4447H59.4258H59.4067H59.3875H59.368H59.3484H59.3285H59.3085H59.2882H59.2678H59.2472H59.2264H59.2054H59.1841H59.1628H59.1412H59.1194H59.0974H59.0753H59.0529H59.0304H59.0077H58.9848H58.9617H58.9385H58.915H58.8914H58.8676H58.8436H58.8194H58.7951H58.7705H58.7458H58.7209H58.6959H58.6706H58.6452H58.6196H58.5939H58.568H58.5418H58.5156H58.4891H58.4625H58.4357H58.4088H58.3816H58.3544H58.3269H58.2993H58.2715H58.2435H58.2154H58.1872H58.1587H58.1301H58.1014H58.0724H58.0434H58.0141H57.9847H57.9552H57.9255H57.8956H57.8656H57.8354H57.8051H57.7746H57.744H57.7132H57.6823H57.6512H57.62H57.5886H57.5571H57.5254H57.4936H57.4616H57.4295H57.3973H57.3649H57.3323H57.2997H57.2668H57.2339H57.2008H57.1675H57.1342H57.1006H57.067H57.0332H56.9993H56.9652H56.931H56.8967H56.8623H56.8277H56.7929H56.7581H56.7231H56.688H56.6528H56.6174H56.5819H56.5463H56.5106H56.4747H56.4387H56.4026H56.3664H56.33H56.2936H56.257H56.2202H56.1834H56.1465H56.1094H56.0722H56.0349H55.9975H55.96H55.9223H55.8846H55.8467H55.8087H55.7706H55.7324H55.6941H55.6557H55.6172H55.5785H55.5398H55.501H55.462H55.423H55.3838H55.3445H55.3052H55.2657H55.2262H55.1865H55.1467H55.1069H55.0669H55.0269H54.9867H54.9465H54.9061H54.8657H54.8251H54.7845H54.7438H54.703H54.6621H54.6211H54.5801H54.5389H54.4976H54.4563H54.4149H54.3734H54.3318H54.2901H54.2484H54.2065H54.1646H54.1226H54.0805H54.0383H53.9961H53.9538H53.9114H53.8689H53.8263H53.7837H53.741H53.6982H53.6554H53.6125H53.5695H53.5264H53.4833H53.4401H53.3968H53.3535H53.3101H53.2666H53.223H53.1794H53.1358H53.092H53.0482H53.0044H52.9605H52.9165H52.8724H52.8284H52.7842H52.74H52.6957H52.6514H52.607H52.5625H52.5181H52.4735H52.4289H52.3843H52.3395H52.2948H52.25H52.2051H52.1602H52.1153H52.0703H52.0252H51.9801H51.935H51.8898H51.8446H51.7993H51.754H51.7087H51.6633H51.6179H51.5724H51.5269H51.4814H51.4358H51.3902H51.3445H51.2988H51.2531H51.2073H51.1616H51.1157H51.0699H51.024H50.9781H50.9322H50.8862H50.8402H50.7942H50.7481H50.702H50.656H50.6098H50.5637H50.5175H50.4713H50.4251H50.3789H50.3326H50.2864H50.2401H50.1938H50.1474H50.1011H50.0548H50.0084H49.962H49.9156H49.8692H49.8228H49.7764H49.7299H49.6835H49.637H49.5905H49.5441H49.4976H49.4511H49.4046H49.3581H49.3116H49.2651H49.2186H49.1721H49.1256H49.0791H49.0326H48.9861H48.9396H48.8931H48.8466H48.8001H48.7536H48.7071H48.6607H48.6142H48.5677H48.5213H48.4748H48.4284H48.382H48.3356H48.2892H48.2428H48.1964H48.1501H48.1037H48.0574H48.0111H47.9648H47.9185H47.8723H47.826H47.7798H47.7336H47.6874H47.6413H47.5952H47.5491H47.503H47.4569H47.4109H47.3649H47.3189H47.273H47.2271H47.1812H47.1353H47.0895H47.0437H46.9979H46.9522H46.9065H46.8608H46.8152H46.7696H46.7241H46.6786H46.6331H46.5876H46.5422H46.4969H46.4516H46.4063H46.3611H46.3159H46.2707H46.2256H46.1806H46.1356H46.0906H46.0457H46.0008H45.956H45.9112H45.8665H45.8218H45.7772H45.7327H45.6882H45.6437H45.5993H45.555H45.5107H45.4664H45.4223H45.3782H45.3341H45.2901H45.2462H45.2023H45.1585H45.1147H45.0711H45.0274H44.9839H44.9404H44.897H44.8536H44.8103H44.7671H44.724H44.6809H44.6379H44.5949H44.5521H44.5093H44.4665H44.4239H44.3813H44.3388H44.2964H44.2541H44.2118H44.1696H44.1275H44.0855H44.0436H44.0017H43.9599H43.9182H43.8766H43.8351H43.7936H43.7523H43.711H43.6698H43.6287H43.5877H43.5468H43.506H43.4652H43.4246H43.384H43.3436H43.3032H43.2629H43.2228H43.1827H43.1427H43.1028H43.063H43.0234H42.9838H42.9443H42.9049H42.8656H42.8264H42.7873H42.7484H42.7095H42.6707H42.6321H42.5935H42.5551H42.5167H42.4785H42.4404H42.4024H42.3645H42.3267H42.289H42.2515H42.214H42.1767H42.1395H42.1024H42.0654H42.0286H41.9918H41.9552H41.9187H41.8823H41.846H41.8099H41.7739H41.738H41.7022H41.6666H41.6311H41.5957H41.5604H41.5253H41.4902H41.4554H41.4206H41.386H41.3515H41.3171H41.2829H41.2488H41.2149H41.1811H41.1474H41.1138H41.0804H41.0471H41.014H40.981H40.9482H40.9154H40.8829H40.8504H40.8182H40.786H40.754H40.7222H40.6904H40.6589H40.6275H40.5962H40.5651H40.5341H40.5033H40.4726H40.4421H40.4118H40.3815H40.3515H40.3216H40.2918H40.2623H40.2328H40.2035H40.1744H40.1455H40.1167H40.088H40.0596H40.0312H40.0031H39.9751H39.9473H39.9196H39.8921H39.8648H39.8376C39.0743 58 38.4017 57.399 38.1955 56.5565C38.1332 56.302 38.057 56.0443 37.9637 55.813C37.6371 55.0033 37.0932 54.3511 36.5925 53.8295C36.4097 53.6391 36.2248 53.4584 36.058 53.2954C35.9977 53.2364 35.9398 53.1798 35.8851 53.1258C35.6703 52.9137 35.5084 52.7446 35.4 52.6C34.992 52.0561 34.9817 51.3585 35.3739 50.8356ZM34.974 50.5356L34.9739 50.5356L34.974 50.5356Z" stroke="url(#paint4_linear_686_833)"/>
</g>
<g filter="url(#filter2_d_686_833)">
<mask id="path-5-inside-1_686_833" fill="white">
<path fill-rule="evenodd" clip-rule="evenodd" d="M14.5 27C14.5 19.8203 20.3203 14 27.5 14C34.6796 14 40.5 19.8203 40.5 27C40.5 31.3988 38.3153 35.2874 34.9717 37.6397C34.3878 38.0505 34 38.7005 34 39.4145V43.0334C34 44.7515 34 45.6105 33.7332 46.4111C33.4662 47.2116 32.9509 47.8988 31.92 49.2734L31 50.5C30.4667 51.2111 30.4667 52.1889 31 52.9L33.3045 55.9726L33.3079 55.9772C33.4791 56.2055 33.5652 56.3205 33.6368 56.4414C33.8258 56.7604 33.9444 57.1161 33.9847 57.4847C34 57.6254 34 57.77 34 58.0593C34 58.4168 34 58.5957 33.9771 58.7668C33.9173 59.2163 33.7408 59.6422 33.4654 60.0023C33.3607 60.1393 33.234 60.266 32.9813 60.5187L28.9142 64.5858C28.1332 65.3668 26.8668 65.3669 26.0858 64.5858L24.0461 62.5462L24.0451 62.5451C22.5428 61.0428 21.7916 60.2915 21.3958 59.3359C21 58.3804 21 57.3176 21 55.1921V39.4145C21 38.7005 20.6122 38.0505 20.0283 37.6397C16.6847 35.2874 14.5 31.3988 14.5 27ZM27.5 31C29.7091 31 31.5 29.2091 31.5 27C31.5 24.7909 29.7091 23 27.5 23C25.2909 23 23.5 24.7909 23.5 27C23.5 29.2091 25.2909 31 27.5 31Z"/>
</mask>
<path fill-rule="evenodd" clip-rule="evenodd" d="M14.5 27C14.5 19.8203 20.3203 14 27.5 14C34.6796 14 40.5 19.8203 40.5 27C40.5 31.3988 38.3153 35.2874 34.9717 37.6397C34.3878 38.0505 34 38.7005 34 39.4145V43.0334C34 44.7515 34 45.6105 33.7332 46.4111C33.4662 47.2116 32.9509 47.8988 31.92 49.2734L31 50.5C30.4667 51.2111 30.4667 52.1889 31 52.9L33.3045 55.9726L33.3079 55.9772C33.4791 56.2055 33.5652 56.3205 33.6368 56.4414C33.8258 56.7604 33.9444 57.1161 33.9847 57.4847C34 57.6254 34 57.77 34 58.0593C34 58.4168 34 58.5957 33.9771 58.7668C33.9173 59.2163 33.7408 59.6422 33.4654 60.0023C33.3607 60.1393 33.234 60.266 32.9813 60.5187L28.9142 64.5858C28.1332 65.3668 26.8668 65.3669 26.0858 64.5858L24.0461 62.5462L24.0451 62.5451C22.5428 61.0428 21.7916 60.2915 21.3958 59.3359C21 58.3804 21 57.3176 21 55.1921V39.4145C21 38.7005 20.6122 38.0505 20.0283 37.6397C16.6847 35.2874 14.5 31.3988 14.5 27ZM27.5 31C29.7091 31 31.5 29.2091 31.5 27C31.5 24.7909 29.7091 23 27.5 23C25.2909 23 23.5 24.7909 23.5 27C23.5 29.2091 25.2909 31 27.5 31Z" fill="url(#paint5_linear_686_833)"/>
<path d="M33.7332 46.4111L34.6819 46.7275L34.682 46.7272L33.7332 46.4111ZM31.92 49.2734L32.72 49.8734L32.72 49.8734L31.92 49.2734ZM33.3045 55.9726L34.105 55.3732L34.1045 55.3726L33.3045 55.9726ZM33.3079 55.9772L32.5075 56.5765L32.5077 56.5769L33.3079 55.9772ZM33.6368 56.4414L32.7762 56.9507L32.7765 56.9511L33.6368 56.4414ZM33.9847 57.4847L34.9788 57.3763L34.9787 57.3761L33.9847 57.4847ZM33.9771 58.7668L32.9859 58.6343L32.9859 58.6349L33.9771 58.7668ZM33.4654 60.0023L34.2598 60.6098L34.2598 60.6097L33.4654 60.0023ZM32.9813 60.5187L32.2742 59.8116L32.9813 60.5187ZM24.0461 62.5462L23.337 63.2513L23.339 63.2533L24.0461 62.5462ZM24.0451 62.5451L24.7542 61.84L24.7522 61.8381L24.0451 62.5451ZM21.3958 59.3359L22.3197 58.9533L22.3197 58.9532L21.3958 59.3359ZM20.0283 37.6397L20.6037 36.8218L20.0283 37.6397ZM28.9142 64.5858L28.2071 63.8787L28.9142 64.5858ZM26.0858 64.5858L25.3787 65.2929L26.0858 64.5858ZM31 50.5L31.8 51.1L31 50.5ZM31 52.9L31.8 52.3L31 52.9ZM34.9717 37.6397L35.5471 38.4575L34.9717 37.6397ZM27.5 13C19.768 13 13.5 19.268 13.5 27H15.5C15.5 20.3726 20.8726 15 27.5 15V13ZM41.5 27C41.5 19.268 35.2319 13 27.5 13V15C34.1274 15 39.5 20.3726 39.5 27H41.5ZM35.5471 38.4575C39.1455 35.926 41.5 31.738 41.5 27H39.5C39.5 31.0596 37.4851 34.6487 34.3963 36.8218L35.5471 38.4575ZM35 43.0334V39.4145H33V43.0334H35ZM34.682 46.7272C35.0118 45.7373 35 44.687 35 43.0334H33C33 44.816 32.9882 45.4838 32.7845 46.0949L34.682 46.7272ZM32.72 49.8734C33.7122 48.5504 34.3517 47.7173 34.6819 46.7275L32.7846 46.0947C32.5807 46.7059 32.1896 47.2472 31.12 48.6734L32.72 49.8734ZM31.8 51.1L32.72 49.8734L31.12 48.6734L30.2001 49.9L31.8 51.1ZM34.1045 55.3726L31.8 52.3L30.2 53.5L32.5045 56.5726L34.1045 55.3726ZM34.1084 55.3778L34.105 55.3732L32.504 56.5719L32.5075 56.5765L34.1084 55.3778ZM34.4973 55.932C34.3917 55.7535 34.2666 55.5889 34.1082 55.3775L32.5077 56.5769C32.6915 56.8221 32.7388 56.8874 32.7762 56.9507L34.4973 55.932ZM34.9787 57.3761C34.923 56.8658 34.7588 56.3734 34.4971 55.9316L32.7765 56.9511C32.8928 57.1474 32.9658 57.3663 32.9906 57.5934L34.9787 57.3761ZM35 58.0593C35 57.7911 35.0014 57.5835 34.9788 57.3763L32.9906 57.5931C32.9986 57.6673 33 57.7488 33 58.0593H35ZM34.9683 58.8993C35.0021 58.6469 35 58.3903 35 58.0593H33C33 58.4434 32.9979 58.5445 32.9859 58.6343L34.9683 58.8993ZM34.2598 60.6097C34.641 60.1112 34.8855 59.5215 34.9684 58.8987L32.9859 58.6349C32.9491 58.9112 32.8406 59.1732 32.671 59.3949L34.2598 60.6097ZM33.6884 61.2258C33.9224 60.9918 34.1053 60.8118 34.2598 60.6098L32.6711 59.3949C32.616 59.4669 32.5457 59.5401 32.2742 59.8116L33.6884 61.2258ZM29.6213 65.2929L33.6884 61.2258L32.2742 59.8116L28.2071 63.8787L29.6213 65.2929ZM23.339 63.2533L25.3787 65.2929L26.7929 63.8787L24.7532 61.839L23.339 63.2533ZM23.336 63.2503L23.337 63.2513L24.7552 61.841L24.7542 61.84L23.336 63.2503ZM20.4719 59.7186C20.9615 60.9006 21.8933 61.8075 23.3379 63.2522L24.7522 61.8381C23.1922 60.278 22.6216 59.6823 22.3197 58.9533L20.4719 59.7186ZM20 55.1921C20 57.2359 19.9823 58.5366 20.472 59.7187L22.3197 58.9532C22.0177 58.2242 22 57.3992 22 55.1921H20ZM20 39.4145V55.1921H22V39.4145H20ZM13.5 27C13.5 31.738 15.8545 35.926 19.4529 38.4575L20.6037 36.8218C17.5149 34.6487 15.5 31.0596 15.5 27H13.5ZM30.5 27C30.5 28.6569 29.1569 30 27.5 30V32C30.2614 32 32.5 29.7614 32.5 27H30.5ZM27.5 24C29.1569 24 30.5 25.3431 30.5 27H32.5C32.5 24.2386 30.2614 22 27.5 22V24ZM24.5 27C24.5 25.3431 25.8431 24 27.5 24V22C24.7386 22 22.5 24.2386 22.5 27H24.5ZM27.5 30C25.8431 30 24.5 28.6569 24.5 27H22.5C22.5 29.7614 24.7386 32 27.5 32V30ZM22 39.4145C22 38.3282 21.4131 37.3912 20.6037 36.8218L19.4529 38.4575C19.8113 38.7097 20 39.0728 20 39.4145H22ZM28.2071 63.8787C27.8166 64.2692 27.1834 64.2692 26.7929 63.8787L25.3787 65.2929C26.5503 66.4645 28.4497 66.4645 29.6213 65.2929L28.2071 63.8787ZM30.2001 49.9C29.4 50.9666 29.4 52.4333 30.2 53.5L31.8 52.3C31.5334 51.9445 31.5334 51.4556 31.8 51.1L30.2001 49.9ZM34.3963 36.8218C33.5869 37.3912 33 38.3282 33 39.4145H35C35 39.0728 35.1887 38.7097 35.5471 38.4575L34.3963 36.8218Z" fill="url(#paint6_linear_686_833)" mask="url(#path-5-inside-1_686_833)"/>
</g>
<defs>
<filter id="filter0_d_686_833" x="39.15" y="24" width="29.35" height="18" filterUnits="userSpaceOnUse" color-interpolation-filters="sRGB">
<feFlood flood-opacity="0" result="BackgroundImageFix"/>
<feColorMatrix in="SourceAlpha" type="matrix" values="0 0 0 0 0 0 0 0 0 0 0 0 0 0 0 0 0 0 127 0" result="hardAlpha"/>
<feOffset dy="1"/>
<feGaussianBlur stdDeviation="1"/>
<feComposite in2="hardAlpha" operator="out"/>
<feColorMatrix type="matrix" values="0 0 0 0 0 0 0 0 0 0 0 0 0 0 0 0 0 0 0.5 0"/>
<feBlend mode="normal" in2="BackgroundImageFix" result="effect1_dropShadow_686_833"/>
<feBlend mode="normal" in="SourceGraphic" in2="effect1_dropShadow_686_833" result="shape"/>
</filter>
<filter id="filter1_d_686_833" x="32.5867" y="43.5" width="35.9133" height="18" filterUnits="userSpaceOnUse" color-interpolation-filters="sRGB">
<feFlood flood-opacity="0" result="BackgroundImageFix"/>
<feColorMatrix in="SourceAlpha" type="matrix" values="0 0 0 0 0 0 0 0 0 0 0 0 0 0 0 0 0 0 127 0" result="hardAlpha"/>
<feOffset dy="1"/>
<feGaussianBlur stdDeviation="1"/>
<feComposite in2="hardAlpha" operator="out"/>
<feColorMatrix type="matrix" values="0 0 0 0 0 0 0 0 0 0 0 0 0 0 0 0 0 0 0.5 0"/>
<feBlend mode="normal" in2="BackgroundImageFix" result="effect1_dropShadow_686_833"/>
<feBlend mode="normal" in="SourceGraphic" in2="effect1_dropShadow_686_833" result="shape"/>
</filter>
<filter id="filter2_d_686_833" x="12.5" y="13" width="30" height="55.1716" filterUnits="userSpaceOnUse" color-interpolation-filters="sRGB">
<feFlood flood-opacity="0" result="BackgroundImageFix"/>
<feColorMatrix in="SourceAlpha" type="matrix" values="0 0 0 0 0 0 0 0 0 0 0 0 0 0 0 0 0 0 127 0" result="hardAlpha"/>
<feOffset dy="1"/>
<feGaussianBlur stdDeviation="1"/>
<feComposite in2="hardAlpha" operator="out"/>
<feColorMatrix type="matrix" values="0 0 0 0 0 0 0 0 0 0 0 0 0 0 0 0 0 0 0.5 0"/>
<feBlend mode="normal" in2="BackgroundImageFix" result="effect1_dropShadow_686_833"/>
<feBlend mode="normal" in="SourceGraphic" in2="effect1_dropShadow_686_833" result="shape"/>
</filter>
<linearGradient id="paint0_linear_686_833" x1="40" y1="0" x2="40" y2="80" gradientUnits="userSpaceOnUse">
<stop stop-color="#0284C7"/>
<stop offset="1" stop-color="#0C4A6E"/>
</linearGradient>
<linearGradient id="paint1_linear_686_833" x1="52.9806" y1="25" x2="52.9806" y2="39" gradientUnits="userSpaceOnUse">
<stop stop-color="#F3F4F6"/>
<stop offset="1" stop-color="#9CA3AF"/>
</linearGradient>
<linearGradient id="paint2_linear_686_833" x1="52.9806" y1="25" x2="52.9806" y2="39" gradientUnits="userSpaceOnUse">
<stop stop-color="white" stop-opacity="0.8"/>
<stop offset="1" stop-color="white" stop-opacity="0"/>
</linearGradient>
<linearGradient id="paint3_linear_686_833" x1="50.5433" y1="44.5" x2="50.5433" y2="58.5" gradientUnits="userSpaceOnUse">
<stop stop-color="#F3F4F6"/>
<stop offset="1" stop-color="#9CA3AF"/>
</linearGradient>
<linearGradient id="paint4_linear_686_833" x1="50.5433" y1="44.5" x2="50.5433" y2="58.5" gradientUnits="userSpaceOnUse">
<stop stop-color="white" stop-opacity="0.8"/>
<stop offset="1" stop-color="white" stop-opacity="0"/>
</linearGradient>
<linearGradient id="paint5_linear_686_833" x1="27.5" y1="14" x2="27.5" y2="65.1716" gradientUnits="userSpaceOnUse">
<stop stop-color="#FDE68A"/>
<stop offset="1" stop-color="#D97706"/>
</linearGradient>
<linearGradient id="paint6_linear_686_833" x1="27.5" y1="14" x2="27.5" y2="65.1716" gradientUnits="userSpaceOnUse">
<stop stop-color="white" stop-opacity="0.8"/>
<stop offset="1" stop-color="white" stop-opacity="0"/>
</linearGradient>
</defs>
</svg>
