<svg width="81" height="80" viewBox="0 0 81 80" fill="none" xmlns="http://www.w3.org/2000/svg">
<rect width="80" height="80" transform="translate(0.5)" fill="url(#paint0_linear_686_840)"/>
<g filter="url(#filter0_dd_686_840)">
<rect x="17.5" y="15" width="46" height="14" rx="7" fill="url(#paint1_linear_686_840)"/>
<path fill-rule="evenodd" clip-rule="evenodd" d="M24.5 33C20.634 33 17.5 36.134 17.5 40C17.5 43.866 20.634 47 24.5 47H56.5C60.366 47 63.5 43.866 63.5 40C63.5 36.134 60.366 33 56.5 33H24.5ZM29.5 37C27.8431 37 26.5 38.3431 26.5 40C26.5 41.6569 27.8431 43 29.5 43C31.1569 43 32.5 41.6569 32.5 40C32.5 38.3431 31.1569 37 29.5 37ZM37.5 40C37.5 38.3431 38.8431 37 40.5 37C42.1569 37 43.5 38.3431 43.5 40C43.5 41.6569 42.1569 43 40.5 43C38.8431 43 37.5 41.6569 37.5 40ZM51.5 37C49.8431 37 48.5 38.3431 48.5 40C48.5 41.6569 49.8431 43 51.5 43C53.1569 43 54.5 41.6569 54.5 40C54.5 38.3431 53.1569 37 51.5 37Z" fill="url(#paint2_linear_686_840)"/>
<rect x="17.5" y="51" width="46" height="14" rx="7" fill="url(#paint3_linear_686_840)"/>
</g>
<defs>
<filter id="filter0_dd_686_840" x="10.5" y="12" width="60" height="60" filterUnits="userSpaceOnUse" color-interpolation-filters="sRGB">
<feFlood flood-opacity="0" result="BackgroundImageFix"/>
<feColorMatrix in="SourceAlpha" type="matrix" values="0 0 0 0 0 0 0 0 0 0 0 0 0 0 0 0 0 0 127 0" result="hardAlpha"/>
<feOffset dy="1"/>
<feComposite in2="hardAlpha" operator="out"/>
<feColorMatrix type="matrix" values="0 0 0 0 0 0 0 0 0 0 0 0 0 0 0 0 0 0 0.2 0"/>
<feBlend mode="normal" in2="BackgroundImageFix" result="effect1_dropShadow_686_840"/>
<feColorMatrix in="SourceAlpha" type="matrix" values="0 0 0 0 0 0 0 0 0 0 0 0 0 0 0 0 0 0 127 0" result="hardAlpha"/>
<feOffset dy="2"/>
<feGaussianBlur stdDeviation="1"/>
<feComposite in2="hardAlpha" operator="out"/>
<feColorMatrix type="matrix" values="0 0 0 0 0 0 0 0 0 0 0 0 0 0 0 0 0 0 0.2 0"/>
<feBlend mode="normal" in2="effect1_dropShadow_686_840" result="effect2_dropShadow_686_840"/>
<feBlend mode="normal" in="SourceGraphic" in2="effect2_dropShadow_686_840" result="shape"/>
</filter>
<linearGradient id="paint0_linear_686_840" x1="40" y1="0" x2="40" y2="80" gradientUnits="userSpaceOnUse">
<stop stop-color="#0369A1"/>
<stop offset="1" stop-color="#1E3A8A"/>
</linearGradient>
<linearGradient id="paint1_linear_686_840" x1="40.5" y1="15" x2="40.5" y2="29" gradientUnits="userSpaceOnUse">
<stop stop-color="#F3F4F6"/>
<stop offset="1" stop-color="#9CA3AF"/>
</linearGradient>
<linearGradient id="paint2_linear_686_840" x1="40.5" y1="33" x2="40.5" y2="47" gradientUnits="userSpaceOnUse">
<stop stop-color="#F3F4F6"/>
<stop offset="1" stop-color="#9CA3AF"/>
</linearGradient>
<linearGradient id="paint3_linear_686_840" x1="40.5" y1="51" x2="40.5" y2="65" gradientUnits="userSpaceOnUse">
<stop stop-color="#FDE68A"/>
<stop offset="1" stop-color="#D97706"/>
</linearGradient>
</defs>
</svg>
