<svg width="48" height="48" viewBox="0 0 48 48" fill="none" xmlns="http://www.w3.org/2000/svg">
<rect width="48" height="48" fill="url(#paint0_linear_337_2078)"/>
<path d="M11.159 18.341C11.818 19 12.8787 19 15 19C17.1213 19 18.182 19 18.841 18.341C19.5 17.682 19.5 16.6213 19.5 14.5C19.5 12.3787 19.5 11.318 18.841 10.659C18.182 10 17.1213 10 15 10C12.8787 10 11.818 10 11.159 10.659C10.5 11.318 10.5 12.3787 10.5 14.5C10.5 16.6213 10.5 17.682 11.159 18.341Z" stroke="white" stroke-width="2.25" stroke-linecap="round" stroke-linejoin="round"/>
<path d="M29.1589 18.341C29.818 19 30.8787 19 33 19C35.1213 19 36.1819 19 36.841 18.341C37.5 17.682 37.5 16.6213 37.5 14.5C37.5 12.3787 37.5 11.318 36.841 10.659C36.1819 10 35.1213 10 33 10C30.8787 10 29.818 10 29.1589 10.659C28.5 11.318 28.5 12.3787 28.5 14.5C28.5 16.6213 28.5 17.682 29.1589 18.341Z" stroke="white" stroke-width="2.25" stroke-linecap="round" stroke-linejoin="round"/>
<path d="M29.1589 36.341C29.818 37 30.8787 37 33 37C35.1213 37 36.1819 37 36.841 36.341C37.5 35.6819 37.5 34.6213 37.5 32.5C37.5 30.3787 37.5 29.318 36.841 28.6589C36.1819 28 35.1213 28 33 28C30.8787 28 29.818 28 29.1589 28.6589C28.5 29.318 28.5 30.3787 28.5 32.5C28.5 34.6213 28.5 35.6819 29.1589 36.341Z" stroke="white" stroke-width="2.25" stroke-linecap="round" stroke-linejoin="round"/>
<path d="M11.159 36.341C11.818 37 12.8787 37 15 37C17.1213 37 18.182 37 18.841 36.341C19.5 35.6819 19.5 34.6213 19.5 32.5C19.5 30.3787 19.5 29.318 18.841 28.6589C18.182 28 17.1213 28 15 28C12.8787 28 11.818 28 11.159 28.6589C10.5 29.318 10.5 30.3787 10.5 32.5C10.5 34.6213 10.5 35.6819 11.159 36.341Z" stroke="white" stroke-width="2.25" stroke-linecap="round" stroke-linejoin="round"/>
<path d="M24 14.5H19.5" stroke="white" stroke-width="2.25" stroke-linecap="round" stroke-linejoin="round"/>
<path d="M28.5 32.5H24" stroke="white" stroke-width="2.25" stroke-linecap="round" stroke-linejoin="round"/>
<path d="M33 23.5V19" stroke="white" stroke-width="2.25" stroke-linecap="round" stroke-linejoin="round"/>
<path d="M15 28V23.5" stroke="white" stroke-width="2.25" stroke-linecap="round" stroke-linejoin="round"/>
<defs>
<linearGradient id="paint0_linear_337_2078" x1="24" y1="0" x2="24" y2="48" gradientUnits="userSpaceOnUse">
<stop stop-color="#3B82F6"/>
<stop offset="1" stop-color="#5850EC"/>
</linearGradient>
</defs>
</svg>
