<?xml version="1.0" encoding="UTF-8"?>
<svg width="606px" height="606px" viewBox="0 0 606 606" version="1.1" xmlns="http://www.w3.org/2000/svg" xmlns:xlink="http://www.w3.org/1999/xlink">
    <!-- Generator: Sketch 40.2 (33826) - http://www.bohemiancoding.com/sketch -->
    <title>navigation</title>
    <desc>Created with Sketch.</desc>
    <defs>
        <linearGradient x1="50%" y1="0%" x2="50%" y2="100%" id="linearGradient-1">
            <stop stop-color="#FFFFFF" stop-opacity="0.2" offset="0%"></stop>
            <stop stop-color="#000000" stop-opacity="0.2" offset="100%"></stop>
        </linearGradient>
        <path d="M552.268958,552.268958 C600,504.537813 600,431.458333 600,300 C600,168.541667 600,95.4621875 552.268958,47.7310417 C504.537813,0 431.458333,0 300,0 C168.541667,0 95.4621875,0 47.7310417,47.7310417 C0,95.4621875 0,168.541667 0,300 C0,431.458333 0,504.537813 47.7310417,552.268958 C95.4621875,600 168.541667,600 300,600 C431.458333,600 504.537813,600 552.268958,552.268958 Z" id="path-2"></path>
    </defs>
    <g id="Page-1" stroke="none" stroke-width="1" fill="none" fill-rule="evenodd">
        <g id="navigation" transform="translate(3.000000, 3.000000)">
            <g id="Squircle2-Copy-6">
                <g id="Shape">
                    <use fill="#4F94E7" xlink:href="#path-2"></use>
                    <use stroke="#000000" stroke-width="4.04" fill="url(#linearGradient-1)" xlink:href="#path-2"></use>
                </g>
            </g>
            <g id="list" opacity="0.9" transform="translate(100.000000, 117.000000)" fill="#FFFFFF">
                <g id="Capa_1">
                    <g id="Group">
                        <path d="M105.609569,39.1216327 C104.350454,32.6726531 101.496459,26.4685714 97.3833482,20.9991837 C93.2702377,15.5297959 87.9819527,10.8767347 81.8542574,7.44816327 C80.2593778,6.63183673 78.7484392,5.89714286 77.1535596,5.08081633 C75.55868,4.4277551 73.8798594,3.77469388 72.2010388,3.20326531 C70.5222181,2.71346939 68.7594565,2.30530612 67.0806359,1.8155102 C65.2339332,1.40734694 63.0514663,1.16244898 61.1208226,0.91755102 L60.3653533,0.835918367 L59.8617072,0.835918367 L58.9383558,0.754285714 L57.0916531,0.672653061 L56.5880069,0.672653061 L56.3361838,0.672653061 L55.3288915,0.672653061 L55.1610094,0.672653061 L53.8179529,0.754285714 L51.1318399,0.91755102 C47.6063166,1.16244898 44.0807932,1.8155102 40.639211,2.71346939 C33.8399874,4.59102041 27.460469,7.85632653 21.8364199,12.0195918 C16.2123708,16.2644898 11.511673,21.4073469 7.81826767,27.284898 C6.81097529,28.7542857 6.05550601,30.2236735 5.30003672,31.7746939 C4.46062641,33.3257143 3.78909816,34.8767347 3.20151094,36.5093878 C2.52998269,38.1420408 2.0263365,39.7746939 1.52269031,41.4073469 L0.767221027,43.9379592 L0.179633807,46.8767347 C-0.491894444,50.3869388 2.52998269,52.5910204 4.46062641,53.6522449 C8.48979592,55.5297959 12.0153192,53.5706122 14.8693143,50.3869388 C24.9422381,39.9379592 34.0078695,34.795102 42.9056188,31.2032653 C45.5917318,30.1420408 48.4457269,29.6522449 51.2157809,29.5706122 C51.8873092,29.5706122 52.6427784,29.4889796 53.3143067,29.5706122 L54.3215991,29.6522449 L54.8252453,29.6522449 L55.0770684,29.6522449 L55.2449504,29.6522449 L55.3288915,29.6522449 L55.3288915,29.6522449 L55.3288915,29.6522449 C55.4128325,29.6522449 55.5807145,29.6522449 54.6573632,29.6522449 C56.671948,29.8971429 59.1901789,30.1420408 59.6098841,30.5502041 C60.3653533,30.795102 61.9602329,31.3665306 63.0514663,31.8563265 L64.814228,32.6726531 L66.4930486,33.6522449 C68.6755155,35.04 70.5222181,36.7542857 72.2010388,38.6318367 C75.3068569,42.4685714 77.4053827,46.9583673 77.9929699,51.6114286 C78.160852,52.1828571 78.160852,52.7542857 78.160852,53.4073469 L78.244793,54.3053061 L78.3287341,54.7134694 L78.3287341,54.7134694 L78.244793,57.6522449 C78.160852,58.3053061 78.076911,58.4685714 78.076911,58.9583673 C77.8250879,60.917551 77.2375007,63.6114286 76.3980903,65.8155102 C74.8871518,67.7746939 73.0404491,69.4889796 71.1937464,70.9583673 C65.1499921,75.6930612 57.2595352,77.0808163 50.1245475,75.5297959 C42.9895598,74.0604082 36.3582184,69.4889796 32.0772257,62.5502041 C31.4056975,61.5706122 30.8181103,60.5910204 29.8947589,59.6930612 C29.1392896,58.795102 28.1319973,57.9787755 27.0407639,57.162449 C24.9422381,55.6930612 22.004302,54.4685714 18.2269556,54.7134694 C14.7853733,54.9583673 11.8474372,56.4277551 9.74891139,59.284898 C8.82556004,60.6726531 8.15403179,62.4685714 7.81826767,64.4277551 C7.6503856,66.3869388 7.56644457,68.6726531 8.32191386,70.9583673 C10.5043807,79.2032653 15.1211374,87.04 21.6685379,93.2440816 C28.2998793,99.3665306 36.6100414,103.774694 46.095378,105.325714 L49.2011962,105.733878 L50.7960758,105.897143 L51.8033681,105.897143 L53.8179529,105.978776 L55.5807145,105.978776 L56.9237711,105.897143 C60.6171764,105.733878 64.3105818,105.162449 67.8361051,104.182857 C74.9710928,102.305306 81.5184933,98.8767347 87.0586013,94.3053061 C98.2227585,85.162449 104.686218,71.6930612 105.021982,57.8155102 C104.434395,58.2236735 103.846808,58.5502041 103.25922,58.9583673 C103.846808,58.4685714 104.434395,58.0604082 105.021982,57.8155102 C106.700803,52.2644898 106.952626,45.4889796 105.609569,39.1216327 L105.609569,39.1216327 Z" id="Shape"></path>
                        <path d="M385.657835,41.0814167 C371.555742,38.9701173 357.369708,36.6104297 343.267615,36.8588179 C320.519595,37.3555942 297.855516,39.8394759 275.191438,41.453999 C234.480038,27.1716794 192.929227,35.3684889 151.714181,32.3878309 C149.867478,32.2636368 147.013483,36.6104297 146.090132,39.5910877 C144.32737,45.6765978 146.593778,50.7685552 150.119301,54.6185718 C161.619222,67.4105623 175.553434,72.999296 189.739468,74.489625 C223.903468,78.0912534 258.067468,83.5557931 292.399349,79.4573883 C296.680342,79.9541647 300.877394,80.450941 305.158386,80.8235233 C332.103457,82.9348227 359.132469,83.5557931 385.909658,78.4638357 C393.548292,76.9735067 399.84387,71.2605789 399.340223,60.0831114 C398.836577,49.8991966 393.464351,42.3233575 385.657835,41.0814167 L385.657835,41.0814167 Z" id="Shape"></path>
                        <path d="M105.609569,169.121633 C104.350454,162.672653 101.496459,156.468571 97.3833482,150.999184 C93.2702377,145.529796 87.9819527,140.876735 81.8542574,137.448163 C80.2593778,136.631837 78.7484392,135.897143 77.1535596,135.080816 C75.55868,134.427755 73.8798594,133.774694 72.2010388,133.203265 C70.5222181,132.713469 68.7594565,132.305306 67.0806359,131.81551 C65.2339332,131.407347 63.0514663,131.162449 61.1208226,130.917551 L60.3653533,130.835918 L59.8617072,130.835918 L58.9383558,130.754286 L57.0916531,130.672653 L56.5880069,130.672653 L56.3361838,130.672653 L55.3288915,130.672653 L55.1610094,130.672653 L53.8179529,130.754286 L51.1318399,130.917551 C47.6063166,131.162449 44.0807932,131.81551 40.639211,132.713469 C33.8399874,134.59102 27.460469,137.856327 21.8364199,142.019592 C16.2123708,146.26449 11.511673,151.407347 7.81826767,157.284898 C6.81097529,158.754286 6.05550601,160.223673 5.30003672,161.774694 C4.46062641,163.325714 3.78909816,164.876735 3.20151094,166.509388 C2.52998269,168.142041 2.0263365,169.774694 1.52269031,171.407347 L0.767221027,173.937959 L0.179633807,176.876735 C-0.491894444,180.386939 2.52998269,182.59102 4.46062641,183.652245 C8.48979592,185.529796 12.0153192,183.570612 14.8693143,180.386939 C24.9422381,169.937959 34.0078695,164.795102 42.9056188,161.203265 C45.5917318,160.142041 48.4457269,159.652245 51.2157809,159.570612 C51.8873092,159.570612 52.6427784,159.48898 53.3143067,159.570612 L54.3215991,159.652245 L54.8252453,159.652245 L55.0770684,159.652245 L55.2449504,159.652245 L55.3288915,159.652245 L55.3288915,159.652245 L55.3288915,159.652245 C55.4128325,159.652245 55.5807145,159.652245 54.6573632,159.652245 C56.671948,159.897143 59.1901789,160.142041 59.6098841,160.550204 C60.3653533,160.795102 61.9602329,161.366531 63.0514663,161.856327 L64.814228,162.672653 L66.4930486,163.652245 C68.6755155,165.04 70.5222181,166.754286 72.2010388,168.631837 C75.3068569,172.468571 77.4053827,176.958367 77.9929699,181.611429 C78.160852,182.182857 78.160852,182.754286 78.160852,183.407347 L78.244793,184.305306 L78.3287341,184.713469 L78.3287341,184.713469 L78.244793,187.652245 C78.160852,188.305306 78.076911,188.468571 78.076911,188.958367 C77.8250879,190.917551 77.2375007,193.611429 76.3980903,195.81551 C74.8871518,197.774694 73.0404491,199.48898 71.1937464,200.958367 C65.1499921,205.693061 57.2595352,207.080816 50.1245475,205.529796 C42.9895598,204.060408 36.3582184,199.48898 32.0772257,192.550204 C31.4056975,191.570612 30.8181103,190.59102 29.8947589,189.693061 C29.1392896,188.795102 28.1319973,187.978776 27.0407639,187.162449 C24.9422381,185.693061 22.004302,184.468571 18.2269556,184.713469 C14.7853733,184.958367 11.8474372,186.427755 9.74891139,189.284898 C8.82556004,190.672653 8.15403179,192.468571 7.81826767,194.427755 C7.6503856,196.386939 7.56644457,198.672653 8.32191386,200.958367 C10.5043807,209.203265 15.1211374,217.04 21.6685379,223.244082 C28.2998793,229.366531 36.6100414,233.774694 46.095378,235.325714 L49.2011962,235.733878 L50.7960758,235.897143 L51.8033681,235.897143 L53.8179529,235.978776 L55.5807145,235.978776 L56.9237711,235.897143 C60.6171764,235.733878 64.3105818,235.162449 67.8361051,234.182857 C74.9710928,232.305306 81.5184933,228.876735 87.0586013,224.305306 C98.2227585,215.162449 104.686218,201.693061 105.021982,187.81551 C104.434395,188.223673 103.846808,188.550204 103.25922,188.958367 C103.846808,188.468571 104.434395,188.060408 105.021982,187.81551 C106.700803,182.26449 106.952626,175.48898 105.609569,169.121633 L105.609569,169.121633 Z" id="Shape-Copy-2"></path>
                        <path d="M385.657835,171.081417 C371.555742,168.970117 357.369708,166.61043 343.267615,166.858818 C320.519595,167.355594 297.855516,169.839476 275.191438,171.453999 C234.480038,157.171679 192.929227,165.368489 151.714181,162.387831 C149.867478,162.263637 147.013483,166.61043 146.090132,169.591088 C144.32737,175.676598 146.593778,180.768555 150.119301,184.618572 C161.619222,197.410562 175.553434,202.999296 189.739468,204.489625 C223.903468,208.091253 258.067468,213.555793 292.399349,209.457388 C296.680342,209.954165 300.877394,210.450941 305.158386,210.823523 C332.103457,212.934823 359.132469,213.555793 385.909658,208.463836 C393.548292,206.973507 399.84387,201.260579 399.340223,190.083111 C398.836577,179.899197 393.464351,172.323358 385.657835,171.081417 L385.657835,171.081417 Z" id="Shape-Copy"></path>
                        <path d="M105.609569,299.121633 C104.350454,292.672653 101.496459,286.468571 97.3833482,280.999184 C93.2702377,275.529796 87.9819527,270.876735 81.8542574,267.448163 C80.2593778,266.631837 78.7484392,265.897143 77.1535596,265.080816 C75.55868,264.427755 73.8798594,263.774694 72.2010388,263.203265 C70.5222181,262.713469 68.7594565,262.305306 67.0806359,261.81551 C65.2339332,261.407347 63.0514663,261.162449 61.1208226,260.917551 L60.3653533,260.835918 L59.8617072,260.835918 L58.9383558,260.754286 L57.0916531,260.672653 L56.5880069,260.672653 L56.3361838,260.672653 L55.3288915,260.672653 L55.1610094,260.672653 L53.8179529,260.754286 L51.1318399,260.917551 C47.6063166,261.162449 44.0807932,261.81551 40.639211,262.713469 C33.8399874,264.59102 27.460469,267.856327 21.8364199,272.019592 C16.2123708,276.26449 11.511673,281.407347 7.81826767,287.284898 C6.81097529,288.754286 6.05550601,290.223673 5.30003672,291.774694 C4.46062641,293.325714 3.78909816,294.876735 3.20151094,296.509388 C2.52998269,298.142041 2.0263365,299.774694 1.52269031,301.407347 L0.767221027,303.937959 L0.179633807,306.876735 C-0.491894444,310.386939 2.52998269,312.59102 4.46062641,313.652245 C8.48979592,315.529796 12.0153192,313.570612 14.8693143,310.386939 C24.9422381,299.937959 34.0078695,294.795102 42.9056188,291.203265 C45.5917318,290.142041 48.4457269,289.652245 51.2157809,289.570612 C51.8873092,289.570612 52.6427784,289.48898 53.3143067,289.570612 L54.3215991,289.652245 L54.8252453,289.652245 L55.0770684,289.652245 L55.2449504,289.652245 L55.3288915,289.652245 L55.3288915,289.652245 L55.3288915,289.652245 C55.4128325,289.652245 55.5807145,289.652245 54.6573632,289.652245 C56.671948,289.897143 59.1901789,290.142041 59.6098841,290.550204 C60.3653533,290.795102 61.9602329,291.366531 63.0514663,291.856327 L64.814228,292.672653 L66.4930486,293.652245 C68.6755155,295.04 70.5222181,296.754286 72.2010388,298.631837 C75.3068569,302.468571 77.4053827,306.958367 77.9929699,311.611429 C78.160852,312.182857 78.160852,312.754286 78.160852,313.407347 L78.244793,314.305306 L78.3287341,314.713469 L78.3287341,314.713469 L78.244793,317.652245 C78.160852,318.305306 78.076911,318.468571 78.076911,318.958367 C77.8250879,320.917551 77.2375007,323.611429 76.3980903,325.81551 C74.8871518,327.774694 73.0404491,329.48898 71.1937464,330.958367 C65.1499921,335.693061 57.2595352,337.080816 50.1245475,335.529796 C42.9895598,334.060408 36.3582184,329.48898 32.0772257,322.550204 C31.4056975,321.570612 30.8181103,320.59102 29.8947589,319.693061 C29.1392896,318.795102 28.1319973,317.978776 27.0407639,317.162449 C24.9422381,315.693061 22.004302,314.468571 18.2269556,314.713469 C14.7853733,314.958367 11.8474372,316.427755 9.74891139,319.284898 C8.82556004,320.672653 8.15403179,322.468571 7.81826767,324.427755 C7.6503856,326.386939 7.56644457,328.672653 8.32191386,330.958367 C10.5043807,339.203265 15.1211374,347.04 21.6685379,353.244082 C28.2998793,359.366531 36.6100414,363.774694 46.095378,365.325714 L49.2011962,365.733878 L50.7960758,365.897143 L51.8033681,365.897143 L53.8179529,365.978776 L55.5807145,365.978776 L56.9237711,365.897143 C60.6171764,365.733878 64.3105818,365.162449 67.8361051,364.182857 C74.9710928,362.305306 81.5184933,358.876735 87.0586013,354.305306 C98.2227585,345.162449 104.686218,331.693061 105.021982,317.81551 C104.434395,318.223673 103.846808,318.550204 103.25922,318.958367 C103.846808,318.468571 104.434395,318.060408 105.021982,317.81551 C106.700803,312.26449 106.952626,305.48898 105.609569,299.121633 L105.609569,299.121633 Z" id="Shape-Copy-4"></path>
                        <path d="M385.657835,301.081417 C371.555742,298.970117 357.369708,296.61043 343.267615,296.858818 C320.519595,297.355594 297.855516,299.839476 275.191438,301.453999 C234.480038,287.171679 192.929227,295.368489 151.714181,292.387831 C149.867478,292.263637 147.013483,296.61043 146.090132,299.591088 C144.32737,305.676598 146.593778,310.768555 150.119301,314.618572 C161.619222,327.410562 175.553434,332.999296 189.739468,334.489625 C223.903468,338.091253 258.067468,343.555793 292.399349,339.457388 C296.680342,339.954165 300.877394,340.450941 305.158386,340.823523 C332.103457,342.934823 359.132469,343.555793 385.909658,338.463836 C393.548292,336.973507 399.84387,331.260579 399.340223,320.083111 C398.836577,309.899197 393.464351,302.323358 385.657835,301.081417 L385.657835,301.081417 Z" id="Shape-Copy-3"></path>
                    </g>
                </g>
            </g>
        </g>
    </g>
</svg>