<svg width="48" height="48" viewBox="0 0 48 48" fill="none" xmlns="http://www.w3.org/2000/svg">
<rect width="48" height="48" fill="url(#paint0_linear_221_2255)"/>
<path d="M19.5 13C19.5 10.8787 19.5 9.81802 20.159 9.15901C20.818 8.5 21.8787 8.5 24 8.5C26.1213 8.5 27.182 8.5 27.8411 9.15901C28.5 9.81802 28.5 10.8787 28.5 13C28.5 15.1213 28.5 16.182 27.8411 16.841C27.182 17.5 26.1213 17.5 24 17.5C21.8787 17.5 20.818 17.5 20.159 16.841C19.5 16.182 19.5 15.1213 19.5 13Z" stroke="white" stroke-width="2.25"/>
<path d="M9 34C9 31.8787 9 30.8181 9.65901 30.159C10.318 29.5 11.3787 29.5 13.5 29.5C15.6213 29.5 16.682 29.5 17.341 30.159C18 30.8181 18 31.8787 18 34C18 36.1213 18 37.1819 17.341 37.841C16.682 38.5 15.6213 38.5 13.5 38.5C11.3787 38.5 10.318 38.5 9.65901 37.841C9 37.1819 9 36.1213 9 34Z" stroke="white" stroke-width="2.25"/>
<path d="M30 34C30 31.8787 30 30.8181 30.659 30.159C31.3181 29.5 32.3787 29.5 34.5 29.5C36.6213 29.5 37.6819 29.5 38.341 30.159C39 30.8181 39 31.8787 39 34C39 36.1213 39 37.1819 38.341 37.841C37.6819 38.5 36.6213 38.5 34.5 38.5C32.3787 38.5 31.3181 38.5 30.659 37.841C30 37.1819 30 36.1213 30 34Z" stroke="white" stroke-width="2.25"/>
<path d="M24 17.5V19M24 19C24 20.3978 24 21.0967 24.2664 21.6481C24.6216 22.3831 25.3031 22.9672 26.1606 23.2717C26.8038 23.5 27.6192 23.5 29.25 23.5C30.8808 23.5 31.6962 23.5 32.3394 23.7283C33.197 24.0328 33.8784 24.6169 34.2336 25.3519C34.5 25.9033 34.5 26.6021 34.5 28V29.5M24 19C24 20.3978 24 21.0967 23.7336 21.6481C23.3784 22.3831 22.6969 22.9672 21.8394 23.2717C21.1962 23.5 20.3808 23.5 18.75 23.5C17.1192 23.5 16.3038 23.5 15.6606 23.7283C14.803 24.0328 14.1216 24.6169 13.7664 25.3519C13.5 25.9033 13.5 26.6021 13.5 28V29.5" stroke="white" stroke-width="2.25" stroke-linecap="round" stroke-linejoin="round"/>
<defs>
<linearGradient id="paint0_linear_221_2255" x1="24" y1="0" x2="24" y2="48" gradientUnits="userSpaceOnUse">
<stop stop-color="#3B82F6"/>
<stop offset="1" stop-color="#5850EC"/>
</linearGradient>
</defs>
</svg>
