<svg width="81" height="80" viewBox="0 0 81 80" fill="none" xmlns="http://www.w3.org/2000/svg">
<rect width="80" height="80" transform="translate(0.5)" fill="url(#paint0_linear_571_5881)"/>
<g filter="url(#filter0_dd_571_5881)">
<path d="M57.2654 35.7281C56.8104 36.2676 56.6822 37.0047 56.8692 37.6852C58.4492 43.4344 57.0057 49.8339 52.5567 54.3257C50.6054 56.2957 50.6054 59.4898 52.5567 61.4598C54.508 63.4298 57.6716 63.4298 59.6228 61.4598C67.8642 53.1392 69.6135 40.7632 64.9194 30.6844C64.3397 29.4397 62.6854 29.3014 61.8002 30.351L57.2654 35.7281Z" fill="url(#paint1_linear_571_5881)"/>
<path d="M46.9695 25.2999C46.4259 25.7675 45.6759 25.8992 44.985 25.707C39.2979 24.1243 32.9728 25.5843 28.531 30.0688C28.5101 30.0899 28.4891 30.1107 28.4679 30.1314C28.4478 30.1524 28.4275 30.1733 28.4069 30.194C21.82 36.8444 21.8211 47.6765 28.4689 54.3883C30.4202 56.3584 30.4202 59.5524 28.4689 61.5225C26.5177 63.4925 23.3541 63.4925 21.4028 61.5225C10.8791 50.8975 10.8247 33.6772 21.3408 23.0599C21.3617 23.0388 21.3827 23.0179 21.4039 22.9972C21.424 22.9762 21.4444 22.9553 21.4649 22.9346C29.7148 14.6053 41.9899 12.8441 51.9783 17.602C53.2041 18.1859 53.3412 19.8178 52.3119 20.7033L46.9695 25.2999Z" fill="url(#paint2_linear_571_5881)"/>
<path d="M48.2482 40.0009C48.4126 40.6398 48.5 41.3097 48.5 42C48.5 46.4183 44.9183 50 40.5 50C36.0817 50 32.5 46.4183 32.5 42C32.5 37.5817 36.0817 34 40.5 34C41.2038 34 41.8864 34.0909 42.5367 34.2616L57.2151 21.753C58.1953 20.7733 59.7846 20.7733 60.7648 21.753C61.7451 22.7327 61.7451 24.3211 60.7648 25.3008L48.2482 40.0009Z" fill="url(#paint3_linear_571_5881)"/>
</g>
<defs>
<filter id="filter0_dd_571_5881" x="10.5" y="12" width="60" height="60" filterUnits="userSpaceOnUse" color-interpolation-filters="sRGB">
<feFlood flood-opacity="0" result="BackgroundImageFix"/>
<feColorMatrix in="SourceAlpha" type="matrix" values="0 0 0 0 0 0 0 0 0 0 0 0 0 0 0 0 0 0 127 0" result="hardAlpha"/>
<feOffset dy="1"/>
<feComposite in2="hardAlpha" operator="out"/>
<feColorMatrix type="matrix" values="0 0 0 0 0 0 0 0 0 0 0 0 0 0 0 0 0 0 0.2 0"/>
<feBlend mode="normal" in2="BackgroundImageFix" result="effect1_dropShadow_571_5881"/>
<feColorMatrix in="SourceAlpha" type="matrix" values="0 0 0 0 0 0 0 0 0 0 0 0 0 0 0 0 0 0 127 0" result="hardAlpha"/>
<feOffset dy="2"/>
<feGaussianBlur stdDeviation="1"/>
<feComposite in2="hardAlpha" operator="out"/>
<feColorMatrix type="matrix" values="0 0 0 0 0 0 0 0 0 0 0 0 0 0 0 0 0 0 0.2 0"/>
<feBlend mode="normal" in2="effect1_dropShadow_571_5881" result="effect2_dropShadow_571_5881"/>
<feBlend mode="normal" in="SourceGraphic" in2="effect2_dropShadow_571_5881" result="shape"/>
</filter>
<linearGradient id="paint0_linear_571_5881" x1="40" y1="0" x2="40" y2="80" gradientUnits="userSpaceOnUse">
<stop stop-color="#4B5563"/>
<stop offset="1" stop-color="#1F2937"/>
</linearGradient>
<linearGradient id="paint1_linear_571_5881" x1="40.4818" y1="15" x2="40.4818" y2="63" gradientUnits="userSpaceOnUse">
<stop stop-color="#F3F4F6"/>
<stop offset="1" stop-color="#9CA3AF"/>
</linearGradient>
<linearGradient id="paint2_linear_571_5881" x1="40.4818" y1="15" x2="40.4818" y2="63" gradientUnits="userSpaceOnUse">
<stop stop-color="#F3F4F6"/>
<stop offset="1" stop-color="#9CA3AF"/>
</linearGradient>
<linearGradient id="paint3_linear_571_5881" x1="47" y1="21.0182" x2="47" y2="50" gradientUnits="userSpaceOnUse">
<stop stop-color="#FDE68A"/>
<stop offset="1" stop-color="#D97706"/>
</linearGradient>
</defs>
</svg>
