<?xml version="1.0" encoding="UTF-8"?>
<svg width="606px" height="606px" viewBox="0 0 606 606" version="1.1" xmlns="http://www.w3.org/2000/svg" xmlns:xlink="http://www.w3.org/1999/xlink">
    <!-- Generator: Sketch 40.2 (33826) - http://www.bohemiancoding.com/sketch -->
    <title>design</title>
    <desc>Created with Sketch.</desc>
    <defs>
        <linearGradient x1="50%" y1="0%" x2="50%" y2="100%" id="linearGradient-1">
            <stop stop-color="#FFFFFF" stop-opacity="0.2" offset="0%"></stop>
            <stop stop-color="#000000" stop-opacity="0.2" offset="100%"></stop>
        </linearGradient>
        <path d="M552.268958,552.268958 C600,504.537813 600,431.458333 600,300 C600,168.541667 600,95.4621875 552.268958,47.7310417 C504.537813,0 431.458333,0 300,0 C168.541667,0 95.4621875,0 47.7310417,47.7310417 C0,95.4621875 0,168.541667 0,300 C0,431.458333 0,504.537813 47.7310417,552.268958 C95.4621875,600 168.541667,600 300,600 C431.458333,600 504.537813,600 552.268958,552.268958 Z" id="path-2"></path>
    </defs>
    <g id="Page-1" stroke="none" stroke-width="1" fill="none" fill-rule="evenodd">
        <g id="design" transform="translate(3.000000, 3.000000)">
            <g id="Squircle2-Copy-6">
                <g id="Shape">
                    <use fill="#458EE5" xlink:href="#path-2"></use>
                    <use stroke="#000000" stroke-width="4.04" fill="url(#linearGradient-1)" xlink:href="#path-2"></use>
                </g>
            </g>
            <g id="edit" transform="translate(117.000000, 82.000000)" fill="#FFFFFF" opacity="0.9">
                <g id="Capa_1">
                    <g id="Group">
                        <path d="M377.061224,118.289796 L386.44898,109.065306 L388.816327,106.779592 L389.959184,105.636735 C390.44898,105.146939 391.265306,104.330612 391.918367,103.595918 C394.612245,100.57551 397.142857,96.3306122 398.44898,92.0857143 C399.183673,89.7183673 399.591837,87.1061224 399.673469,84.6571429 L399.755102,81.555102 C399.755102,80.7387755 399.591837,80.0040816 399.265306,79.1877551 C398.367347,77.2285714 397.142857,74.3714286 395.673469,71.5959184 C394.204082,68.7387755 392.408163,66.044898 391.102041,64.7387755 C390.693878,64.2489796 390.285714,63.8408163 389.877551,63.5959184 C389.55102,63.3510204 389.22449,63.2693878 388.979592,63.1877551 C388.408163,63.0244898 387.918367,63.1061224 387.510204,63.2693878 C386.693878,63.7591837 386.122449,64.5755102 386.040816,66.6163265 C385.632653,70.2081633 385.142857,75.5142857 385.142857,81.3918367 L385.142857,82.6163265 L385.142857,83.1061224 C384.408163,85.6367347 383.265306,88.0857143 381.632653,89.9632653 C380,91.922449 377.959184,93.2285714 375.836735,94.6979592 C371.591837,97.6367347 367.346939,100.738776 363.102041,104.004082 C354.530612,110.453061 345.877551,117.310204 337.22449,124.57551 C319.836735,139.02449 302.285714,154.942857 285.142857,171.432653 C264.163265,191.514286 243.265306,211.514286 222.285714,231.595918 L190.530612,261.963265 L182.693878,269.555102 L180.897959,271.269388 C180.897959,271.269388 180.734694,271.35102 180.653061,271.35102 L180.163265,271.432653 L159.428571,275.432653 C145.142857,278.289796 130.938776,281.065306 116.653061,283.922449 L109.795918,285.310204 C112.571429,271.840816 115.428571,258.289796 118.204082,244.820408 L122.44898,223.35102 L123.510204,217.963265 L124,215.269388 L124.081633,214.942857 L124.081633,214.779592 L124.081633,214.697959 C124.163265,214.371429 124,215.106122 124,214.942857 C124,214.779592 124.163265,214.289796 124.081633,214.616327 C123.918367,215.106122 124,214.861224 124,214.942857 C123.918367,214.942857 124.163265,214.534694 124.163265,214.453061 L124.163265,214.453061 L124.163265,214.453061 L124.408163,214.208163 L125.387755,213.228571 L127.265306,211.269388 C137.632653,201.228571 148.081633,191.269388 158.44898,181.228571 C191.183673,149.310204 223.918367,117.228571 256.163265,84.8204082 C272.244898,68.5755102 288.244898,52.2489796 304.081633,35.8408163 L310.040816,29.6367347 C311.020408,28.5755102 311.591837,28.0040816 311.918367,27.677551 L312.163265,27.677551 C314.938776,27.922449 317.22449,28.1673469 319.020408,28.5755102 C319.918367,28.7387755 320.653061,28.9020408 321.22449,29.1469388 L321.306122,29.1469388 C321.142857,29.0653061 321.632653,29.3102041 321.061224,29.0653061 L321.142857,29.0653061 L321.306122,29.1469388 L321.795918,29.3102041 L322.77551,29.7183673 L324.734694,30.5346939 C327.183673,31.5959184 328.897959,32.3306122 331.183673,33.4734694 C335.510204,35.677551 339.591837,38.2081633 343.510204,41.1469388 C361.142857,54.1265306 371.183673,72.0040816 377.55102,67.3510204 C380.244898,65.2285714 381.061224,59.2693878 378.44898,50.6979592 C375.836735,42.2081633 369.55102,30.9428571 358.122449,21.2285714 C353.061224,16.9020408 347.510204,13.0653061 341.714286,9.8 C340.244898,8.98367347 338.612245,8.16734694 337.142857,7.35102041 C335.510204,6.45306122 334.367347,6.04489796 332.897959,5.31020408 L331.918367,4.82040816 L331.102041,4.4122449 L330.367347,4.08571429 C329.387755,3.67755102 328.408163,3.35102041 327.428571,3.0244898 C325.469388,2.45306122 323.673469,1.96326531 321.877551,1.63673469 C320.163265,1.31020408 318.44898,0.983673469 316.897959,0.73877551 L314.612245,0.412244898 L313.306122,0.248979592 C312.571429,0.167346939 311.836735,0.0857142857 311.102041,0.0857142857 C308.163265,0.00408163265 304.897959,0.493877551 302.040816,1.55510204 C299.183673,2.61632653 296.734694,4.08571429 294.857143,5.63673469 C294.367347,5.96326531 293.877551,6.45306122 293.306122,6.94285714 L292.163265,8.00408163 L290.530612,9.55510204 L287.265306,12.6571429 L280.734694,18.8612245 C263.428571,35.4326531 246.204082,52.2489796 229.306122,69.2285714 C202.122449,96.6571429 175.265306,124.167347 148.408163,151.922449 L108.244898,193.473469 L105.632653,196.167347 C104.163265,197.718367 102.938776,199.35102 101.877551,201.065306 C100.897959,202.779592 100,204.57551 99.3469388,206.697959 C98.5306122,209.473469 98.6122449,210.044898 98.2857143,211.35102 L95.5102041,225.555102 L89.877551,253.881633 C87.5918367,262.208163 85.2244898,270.534694 82.9387755,278.942857 L81.2244898,285.228571 L80.4081633,288.412245 L80,289.963265 C79.8367347,290.779592 79.5102041,292.167347 79.4285714,293.310204 C78.9387755,298.126531 80.244898,304.330612 84.3265306,308.983673 C86.2857143,311.269388 88.8979592,313.146939 91.5918367,314.289796 C94.2857143,315.432653 97.0612245,316.004082 99.8367347,316.085714 C100.653061,316.085714 101.469388,316.085714 102.285714,316.004082 L103.591837,315.840816 L104,315.759184 L105.142857,315.595918 L105.959184,315.432653 L109.142857,314.861224 L115.591837,313.8 L128.408163,311.595918 C136.979592,310.044898 145.55102,308.493878 154.122449,306.942857 C162.693878,305.310204 171.265306,303.677551 179.836735,302.044898 L186.285714,300.820408 C190.040816,300.085714 194.44898,298.371429 198.122449,295.840816 C199.020408,295.187755 199.918367,294.534694 200.653061,293.881633 L201.959184,292.738776 L202.693878,292.004082 L205.061224,289.718367 L209.714286,285.146939 C222.122449,272.820408 234.612245,260.57551 247.020408,248.24898 C271.755102,223.432653 296.489796,198.534694 321.22449,173.718367 L358.367347,136.57551 L377.061224,118.289796 L377.061224,118.289796 Z M310.693878,27.5959184 L310.693878,27.5959184 C310.44898,27.5959184 310.204082,27.5959184 310.122449,27.5142857 L310.693878,27.5959184 L310.693878,27.5959184 Z M98.7755102,287.595918 C98.3673469,287.677551 98.8571429,287.595918 99.1020408,287.514286 L99.2653061,287.514286 L98.7755102,287.595918 L98.7755102,287.595918 Z" id="Shape"></path>
                        <path d="M327.265306,229.718367 C323.265306,223.432653 319.918367,231.595918 317.387755,243.840816 C313.142857,264.004082 310.122449,286.289796 308.081633,309.8 C307.020408,321.555102 306.204082,333.636735 305.632653,345.8 C305.469388,348.820408 305.387755,351.922449 305.22449,355.02449 L305.061224,359.677551 L305.061224,360.24898 L305.061224,360.57551 C305.061224,360.330612 305.061224,361.146939 305.061224,360.085714 L305.061224,360.085714 L305.061224,360.167347 L305.061224,360.330612 L304.979592,361.473469 C304.897959,362.534694 304.816327,362.289796 304.734694,362.534694 C304.081633,365.228571 301.959184,367.840816 299.428571,369.146939 C297.795918,369.963265 296.326531,370.289796 294.204082,370.208163 L282.938776,369.963265 L260.489796,369.473469 L215.510204,368.493878 C185.55102,367.922449 155.510204,367.432653 125.55102,366.861224 C95.5102041,366.453061 65.4693878,366.126531 35.4285714,366.126531 L35.1020408,366.126531 L34.7755102,366.126531 L33.3877551,366.044898 C33.3061224,365.881633 33.7959184,366.044898 33.3877551,365.963265 C32.8979592,365.881633 32.4897959,365.636735 32,365.473469 C31.1836735,364.983673 30.2857143,364.24898 29.7959184,363.432653 C29.2244898,362.616327 28.9795918,361.636735 28.8979592,360.57551 L28.7346939,349.310204 C28.5714286,334.289796 28.3265306,319.187755 28,304.085714 C28.3265306,289.146939 28.5714286,274.289796 28.8979592,259.35102 C29.5510204,212.004082 30.0408163,164.738776 29.877551,117.473469 L29.7959184,100.57551 C29.7959184,98.9428571 30.3673469,97.8816327 31.4285714,96.8204082 C31.9183673,96.3306122 32.5714286,96.0040816 33.2244898,95.7591837 C33.5510204,95.677551 33.877551,95.5959184 34.2857143,95.5142857 L34.5306122,95.5142857 L35.4285714,95.5142857 L37.6326531,95.5142857 L55.3469388,95.2693878 C78.9387755,94.8612245 102.530612,94.2897959 126.040816,93.3918367 C152.816327,92.4122449 175.020408,88.6571429 173.061224,81.3102041 C171.265306,74.5346939 152.244898,69.555102 124.816327,68.8204082 C100.163265,68.1673469 75.3469388,67.5142857 50.5306122,66.8612245 L41.2244898,66.6979592 L36.5714286,66.6163265 C35.6734694,66.6163265 35.1836735,66.5346939 34.0408163,66.6163265 C32.8163265,66.6979592 31.5102041,66.6979592 30.2857143,66.8612245 C20.244898,68.0040816 10.8571429,73.8 5.3877551,82.2897959 C4,84.4122449 2.85714286,86.6979592 2.04081633,89.0653061 C1.14285714,91.5142857 0.571428571,93.7183673 0.163265306,96.9836735 L0.0816326531,98.044898 L0.0816326531,98.6163265 L0,99.7591837 L0,100.983673 L0,101.555102 L0,102.697959 L0,107.35102 L0,125.963265 C0.163265306,165.8 0.653061224,205.636735 1.2244898,245.473469 L2.12244898,305.228571 L2.6122449,335.106122 L2.85714286,350.044898 L2.93877551,357.473469 L2.93877551,359.35102 C2.93877551,360.004082 2.93877551,360.412245 3.02040816,361.473469 C3.10204082,363.35102 3.34693878,365.146939 3.67346939,367.02449 C4.73469388,373.636735 8,380.004082 12.8979592,384.738776 C15.3469388,387.106122 18.2040816,389.228571 21.3061224,390.697959 C24.4897959,392.167347 27.5102041,393.228571 31.9183673,393.8 L33.5510204,393.963265 L33.9591837,394.044898 L35.0204082,394.044898 L35.8367347,394.126531 L39.1836735,394.289796 L45.877551,394.616327 L59.3469388,395.187755 C77.3061224,395.922449 95.2653061,396.493878 113.22449,396.902041 C149.22449,397.718367 185.387755,398.044898 221.55102,398.044898 C239.673469,398.044898 257.795918,397.963265 275.836735,397.963265 L289.387755,397.881633 L292.816327,397.881633 L294.693878,397.881633 L297.632653,397.718367 C301.632653,397.310204 305.55102,396.330612 309.22449,394.779592 C316.571429,391.514286 322.77551,385.963265 326.693878,379.02449 C328.653061,375.514286 330.040816,371.840816 330.857143,367.840816 C331.102041,366.616327 331.265306,365.473469 331.346939,364.24898 C331.428571,363.514286 331.428571,363.35102 331.428571,363.02449 L331.428571,362.208163 L331.510204,360.57551 L331.510204,359.759184 L331.510204,358.044898 C331.428571,321.8 331.428571,285.636735 331.918367,249.555102 C332.163265,243.02449 329.306122,232.902041 327.265306,229.718367 L327.265306,229.718367 Z" id="Shape"></path>
                    </g>
                </g>
            </g>
        </g>
    </g>
</svg>