<?xml version="1.0" encoding="UTF-8"?>
<svg width="130px" height="130px" viewBox="0 0 130 130" version="1.1" xmlns="http://www.w3.org/2000/svg" xmlns:xlink="http://www.w3.org/1999/xlink">
    <!-- Generator: Sketch 40.3 (33839) - http://www.bohemiancoding.com/sketch -->
    <title>albums copy 5</title>
    <desc>Created with Sketch.</desc>
    <defs>
        <path d="M64,0 C111.3344,0 128,16.6656 128,64 C128,111.3344 111.3344,128 64,128 C16.6656,128 0,111.3344 0,64 C0,16.6656 16.6656,0 64,0 L64,0 Z" id="path-1"></path>
        <mask id="mask-2" maskContentUnits="userSpaceOnUse" maskUnits="objectBoundingBox" x="-1" y="-1" width="130" height="130">
            <rect x="-1" y="-1" width="130" height="130" fill="white"></rect>
            <use xlink:href="#path-1" fill="black"></use>
        </mask>
        <linearGradient x1="50%" y1="0%" x2="50%" y2="100%" id="linearGradient-3">
            <stop stop-color="#FFFFFF" stop-opacity="0.2" offset="0%"></stop>
            <stop stop-color="#000000" stop-opacity="0.2" offset="100%"></stop>
        </linearGradient>
        <path d="M128,64 C128,111.3344 111.3344,128 64,128 C16.6656,128 0,111.3344 0,64 C0,16.6656 16.6656,0 64,0 C111.3344,0 128,16.6656 128,64 Z" id="path-4"></path>
        <mask id="mask-5" maskContentUnits="userSpaceOnUse" maskUnits="objectBoundingBox" x="-1" y="-1" width="130" height="130">
            <rect x="-1" y="-1" width="130" height="130" fill="white"></rect>
            <use xlink:href="#path-4" fill="black"></use>
        </mask>
    </defs>
    <g id="Page-1" stroke="none" stroke-width="1" fill="none" fill-rule="evenodd">
        <g id="albums-copy-5" transform="translate(1.000000, 1.000000)">
            <g id="Shape">
                <use fill="#AEE2FF" fill-rule="evenodd" xlink:href="#path-1"></use>
                <use stroke-opacity="0.3" stroke="#000000" mask="url(#mask-2)" stroke-width="2" xlink:href="#path-1"></use>
            </g>
            <g id="Group-2" transform="translate(21.000000, 32.000000)" stroke-width="3">
                <path d="M0.544303797,42.5464135 C0.544303797,46.5689835 1.12448216,50.4561786 2.16880322,54.1499808 L84.0319707,54.1499808 C85.0762917,50.4561786 85.6371308,46.5689835 85.6371308,42.5464135 C85.6371308,19.0491897 66.5879411,0 43.0907173,0 C19.5934935,0 0.544303797,19.0491897 0.544303797,42.5464135 Z" id="Shape" stroke="#34495E" fill="#ECF0F1"></path>
                <path d="M8.20265823,41.3670886 L12.070514,41.3670886" id="Shape" stroke="#34495E" stroke-linecap="round" stroke-linejoin="round"></path>
                <path d="M10.755443,29.3570253 L12.5346567,30.1112572" id="Shape" stroke="#34495E" stroke-linecap="round" stroke-linejoin="round"></path>
                <path d="M18.4137975,19.1458861 L21.1599751,21.8920637" id="Shape" stroke="#34495E" stroke-linecap="round" stroke-linejoin="round"></path>
                <path d="M29.9013291,11.4875316 L30.6362217,13.2667453" id="Shape" stroke="#34495E" stroke-linecap="round" stroke-linejoin="round"></path>
                <path d="M42.4556962,8.93474684 L42.4556962,12.8026026" id="Shape" stroke="#34495E" stroke-linecap="round" stroke-linejoin="round"></path>
                <path d="M56.1640698,11.4875316 L55.4291772,13.2667453" id="Shape" stroke="#34495E" stroke-linecap="round" stroke-linejoin="round"></path>
                <path d="M67.1101016,19.1458861 L64.3639241,21.8727244" id="Shape" stroke="#34495E" stroke-linecap="round" stroke-linejoin="round"></path>
                <path d="M75.0778845,29.3570253 L73.2986709,30.0919179" id="Shape" stroke="#C0392B" stroke-linecap="round" stroke-linejoin="round"></path>
                <path d="M78.4429191,42.1209494 L76.9790677,42.1209494 C76.2767536,42.1209494 75.1412394,42.1209494 74.5750633,42.1209494 L74.5750633,42.1209494" id="Shape" stroke="#C0392B" stroke-linecap="round" stroke-linejoin="round"></path>
                <path d="M44.3671097,44.6930735 C43.7675921,45.5826803 42.5685568,45.8147516 41.6789499,45.215234 C40.7893431,44.6157163 23.5193671,30.6334177 23.5193671,30.6334177 C23.5193671,30.6334177 42.9553423,41.405396 43.8449492,42.0049137 C44.734556,42.6044313 44.9666273,43.8034666 44.3671097,44.6930735 L44.3671097,44.6930735 Z" id="Shape" stroke="#34495E" stroke-linecap="round" stroke-linejoin="round"></path>
            </g>
            <g id="Shape-Copy">
                <use fill="url(#linearGradient-3)" fill-rule="evenodd" xlink:href="#path-4"></use>
                <use stroke-opacity="0.5" stroke="#000000" mask="url(#mask-5)" stroke-width="2" xlink:href="#path-4"></use>
            </g>
            <g id="Group"></g>
        </g>
    </g>
</svg>