<?xml version="1.0" encoding="UTF-8"?>
<svg width="606px" height="606px" viewBox="0 0 606 606" version="1.1" xmlns="http://www.w3.org/2000/svg" xmlns:xlink="http://www.w3.org/1999/xlink">
    <!-- Generator: Sketch 40.2 (33826) - http://www.bohemiancoding.com/sketch -->
    <title>dashboard</title>
    <desc>Created with Sketch.</desc>
    <defs>
        <linearGradient x1="50%" y1="0%" x2="50%" y2="100%" id="linearGradient-1">
            <stop stop-color="#FFFFFF" stop-opacity="0.2" offset="0%"></stop>
            <stop stop-color="#000000" stop-opacity="0.2" offset="100%"></stop>
        </linearGradient>
        <path d="M552.268958,552.268958 C600,504.537813 600,431.458333 600,300 C600,168.541667 600,95.4621875 552.268958,47.7310417 C504.537813,0 431.458333,0 300,0 C168.541667,0 95.4621875,0 47.7310417,47.7310417 C0,95.4621875 0,168.541667 0,300 C0,431.458333 0,504.537813 47.7310417,552.268958 C95.4621875,600 168.541667,600 300,600 C431.458333,600 504.537813,600 552.268958,552.268958 Z" id="path-2"></path>
    </defs>
    <g id="Page-1" stroke="none" stroke-width="1" fill="none" fill-rule="evenodd">
        <g id="dashboard" transform="translate(3.000000, 3.000000)">
            <g id="Squircle2-Copy-6">
                <g id="Shape">
                    <use fill="#1DB291" xlink:href="#path-2"></use>
                    <use stroke="#000000" stroke-width="4.04" fill="url(#linearGradient-1)" xlink:href="#path-2"></use>
                </g>
            </g>
            <g id="Group-3" opacity="0.9" transform="translate(100.000000, 106.000000)" fill="#FFFFFF">
                <path d="M349.665965,68.6962312 C345.804745,63.7610997 340.91582,59.8561358 336.517314,55.4766759 C332.24685,51.0629072 326.845756,47.2951787 321.79448,43.2964812 L317.98259,40.3380459 L316.093799,38.9228495 L314.273626,37.7637379 L306.864891,33.1616004 L303.224545,30.8433773 L301.404372,29.6842657 L300.186737,28.981264 L298.806751,28.1845287 L290.489162,24.0317714 L282.124706,19.9601896 C279.258442,18.7382885 276.379621,17.7256054 273.419624,16.6660555 L264.714542,13.3719214 C261.801412,12.2311959 258.769433,11.6712578 255.796878,10.820926 C234.867681,3.3915189 212.30734,-0.650262037 189.58621,0.0856637349 C166.911946,0.740413862 144.161433,5.46404085 122.858622,14.0540564 C101.555812,22.6440719 81.6195271,35.0536093 64.3896181,50.649186 L52.0571667,63.0111965 C48.0618341,67.3067759 44.3192215,72.2894342 40.5079911,77.0160076 L37.6901562,80.5843711 L35.4782245,83.8531478 L31.1355367,90.437568 L29.0047807,93.7532115 L27.9394027,95.4110333 L26.7334243,97.3123819 L22.2777153,105.779765 C0.73648094,147.027087 -5.39976709,196.08614 4.81574143,241.381312 C9.79545326,264.063207 18.7787891,285.80957 31.1197087,305.48977 C37.2838896,315.434479 44.172823,324.498813 52.1204048,333.416719 L58.3574699,340.048248 L61.5165902,343.387446 C62.5467578,344.41515 63.5083076,345.186769 64.5041663,346.086431 L70.316967,351.390669 L73.2233674,354.042788 L75.3774361,355.935845 L77.0570088,357.338483 C83.4974638,362.680395 96.1743238,366.968826 100.75537,366.907839 C105.208374,366.881162 105.718081,364.686055 103.814269,361.422205 C101.876148,358.030312 97.6182425,353.407325 92.6080052,348.025277 C76.4818726,329.839646 61.0060469,309.215381 50.2653276,285.263816 C39.4777415,261.393427 32.3758066,234.888646 31.6475122,207.842553 C30.0715909,175.328311 38.9816888,143.023527 55.3005213,115.320882 L56.6002332,113.257182 L58.4029218,110.509768 L62.0894746,105.061807 L65.7760275,99.6138454 C67.0506236,97.9685816 68.2657949,96.6137115 69.5278331,95.1776657 C72.0519095,92.3055742 74.4136345,89.3397491 76.9377109,86.4676576 L85.4622968,78.0765239 C97.3101575,67.4911845 110.072701,57.7586402 124.508088,50.9401276 C138.781123,44.0278816 153.734508,38.3743088 169.43013,35.7468874 C184.9634,33.0257324 200.920935,31.6318685 216.724409,33.504318 C232.574751,35.2955919 248.256011,38.5045255 262.924589,44.5922804 L268.554189,46.6519554 C270.399478,47.3926309 272.104166,48.3768332 273.902588,49.1986843 L279.285297,51.8734557 L281.976651,53.2108414 L283.322328,53.8795342 L284.505654,54.4544935 L295.195723,61.0593446 C297.015896,62.2184562 299.17333,63.3558168 300.656242,64.5366793 L305.151846,67.9980913 C308.023938,70.5221676 310.968012,72.5466322 313.733812,75.4422779 L321.962595,83.8731302 C324.822128,86.6064246 326.969467,90.0108752 329.526049,92.893963 L333.237476,97.5261428 C334.486055,99.1128835 335.431682,100.849418 336.599085,102.389292 C350.610384,122.925651 360.027177,146.545784 364.103862,170.979234 C367.79642,195.515611 366.161428,220.656088 359.277598,244.38966 C345.706598,292.07858 310.297546,332.787473 264.352727,353.126625 C248.031013,360.587813 249.831861,358.031052 241.196058,362.678012 C229.115819,370.881022 229.869248,380.566562 238.189887,385.370485 C248.603923,386.079556 260.386052,384.930235 276.457509,378.83984 C305.16503,367.922649 331.648302,349.984877 352.412507,326.580516 L359.591416,317.520689 L366.77369,307.705166 L372.69729,298.569992 L373.634626,296.946479 L374.303319,295.600802 L375.675013,293.03749 L378.465269,287.829691 C380.190147,284.279713 382.320903,280.96407 383.674211,277.307801 L388.02453,266.398419 L390.19969,260.943728 L391.840929,255.289012 L394.995364,244.013889 C406.515222,194.816039 397.869872,141.552194 371.924433,98.7564001 C365.426356,88.0777456 358.053734,77.9765137 349.665965,68.6962312 Z M116.944717,173.773515 C117.67654,178.852901 121.64567,180.962847 125.963607,181.771028 C140.631824,184.306138 154.742623,181.110979 167.598387,174.789081 C181.93032,168.165107 196.674896,161.302893 210.768589,154.266277 C205.91492,165.871591 201.712134,177.651309 198.811112,189.779834 C193.119636,212.322476 188.968165,235.626567 183.927571,258.343613 C163.113086,295.669623 157.80921,338.895722 144.63091,378.965455 C144.1077,380.918102 146.251855,384.631888 148.268338,386.218623 C152.063065,388.979451 156.491569,388.073225 160.379758,385.278187 C172.869611,376.416596 180.437376,363.794487 185.576015,349.823883 C197.248521,316.675616 210.222792,283.876155 216.862642,248.681779 C218.321705,244.538245 219.780768,240.394712 221.239832,236.251178 C228.645715,213.819104 234.988073,191.450865 238.965142,168.797656 C250.051829,189.906278 261.725563,210.125778 276.526036,229.090245 C281.163153,235.216051 287.974052,238.436253 295.163384,233.7353 C301.52743,229.510826 303.620271,221.700238 300.633725,214.621473 C294.96271,201.940112 289.466097,188.607869 282.318913,176.228583 C270.470776,156.659965 257.62295,138.218709 245.36217,118.88833 C244.885691,118.063045 245.838648,119.713616 245.36217,118.88833 C242.20122,112.460448 234.977679,109.478485 228.247721,111.163267 L226.771553,111.465342 C187.344763,123.2246 155.128994,148.426669 119.275797,166.37557 C117.386986,166.915885 116.578805,171.233821 116.944717,173.773515 Z" id="Combined-Shape"></path>
            </g>
        </g>
    </g>
</svg>