<svg width="80" height="80" viewBox="0 0 80 80" fill="none" xmlns="http://www.w3.org/2000/svg">
<rect width="80" height="80" fill="url(#paint0_linear_821_5512)"/>
<g filter="url(#filter0_dd_821_5512)">
<path d="M56.7655 35.7281C56.3105 36.2676 56.1823 37.0047 56.3693 37.6852C57.9493 43.4344 56.5058 49.8339 52.0568 54.3257C50.1056 56.2957 50.1056 59.4898 52.0568 61.4598C54.0081 63.4298 57.1717 63.4298 59.123 61.4598C67.3643 53.1392 69.1136 40.7632 64.4196 30.6844C63.8398 29.4397 62.1855 29.3014 61.3003 30.351L56.7655 35.7281Z" fill="url(#paint1_linear_821_5512)"/>
<path d="M46.4696 25.2999C45.926 25.7675 45.176 25.8992 44.4852 25.707C38.798 24.1243 32.4729 25.5843 28.0312 30.0688C28.0102 30.0899 27.9892 30.1107 27.968 30.1314C27.9479 30.1524 27.9276 30.1733 27.907 30.194C21.3201 36.8444 21.3212 47.6765 27.9691 54.3883C29.9203 56.3584 29.9203 59.5524 27.9691 61.5225C26.0178 63.4925 22.8542 63.4925 20.9029 61.5225C10.3792 50.8975 10.3248 33.6772 20.8409 23.0599C20.8618 23.0388 20.8829 23.0179 20.904 22.9972C20.9241 22.9762 20.9445 22.9553 20.965 22.9346C29.215 14.6053 41.49 12.8441 51.4784 17.602C52.7042 18.1859 52.8413 19.8178 51.8121 20.7033L46.4696 25.2999Z" fill="url(#paint2_linear_821_5512)"/>
<path d="M47.7482 40.0009C47.9126 40.6398 48 41.3097 48 42C48 46.4183 44.4183 50 40 50C35.5817 50 32 46.4183 32 42C32 37.5817 35.5817 34 40 34C40.7038 34 41.3864 34.0909 42.0367 34.2616L56.7151 21.753C57.6953 20.7733 59.2846 20.7733 60.2648 21.753C61.2451 22.7327 61.2451 24.3211 60.2648 25.3008L47.7482 40.0009Z" fill="url(#paint3_linear_821_5512)"/>
</g>
<defs>
<filter id="filter0_dd_821_5512" x="8" y="10" width="64" height="64" filterUnits="userSpaceOnUse" color-interpolation-filters="sRGB">
<feFlood flood-opacity="0" result="BackgroundImageFix"/>
<feColorMatrix in="SourceAlpha" type="matrix" values="0 0 0 0 0 0 0 0 0 0 0 0 0 0 0 0 0 0 127 0" result="hardAlpha"/>
<feOffset dy="1"/>
<feComposite in2="hardAlpha" operator="out"/>
<feColorMatrix type="matrix" values="0 0 0 0 0 0 0 0 0 0 0 0 0 0 0 0 0 0 0.25 0"/>
<feBlend mode="normal" in2="BackgroundImageFix" result="effect1_dropShadow_821_5512"/>
<feColorMatrix in="SourceAlpha" type="matrix" values="0 0 0 0 0 0 0 0 0 0 0 0 0 0 0 0 0 0 127 0" result="hardAlpha"/>
<feOffset dy="2"/>
<feGaussianBlur stdDeviation="2"/>
<feComposite in2="hardAlpha" operator="out"/>
<feColorMatrix type="matrix" values="0 0 0 0 0 0 0 0 0 0 0 0 0 0 0 0 0 0 0.25 0"/>
<feBlend mode="normal" in2="effect1_dropShadow_821_5512" result="effect2_dropShadow_821_5512"/>
<feBlend mode="normal" in="SourceGraphic" in2="effect2_dropShadow_821_5512" result="shape"/>
</filter>
<linearGradient id="paint0_linear_821_5512" x1="40" y1="0" x2="40" y2="80" gradientUnits="userSpaceOnUse">
<stop stop-color="#4B5563"/>
<stop offset="1" stop-color="#1F2937"/>
</linearGradient>
<linearGradient id="paint1_linear_821_5512" x1="39.9819" y1="15" x2="39.9819" y2="63" gradientUnits="userSpaceOnUse">
<stop stop-color="#F3F4F6"/>
<stop offset="1" stop-color="#9CA3AF"/>
</linearGradient>
<linearGradient id="paint2_linear_821_5512" x1="39.9819" y1="15" x2="39.9819" y2="63" gradientUnits="userSpaceOnUse">
<stop stop-color="#F3F4F6"/>
<stop offset="1" stop-color="#9CA3AF"/>
</linearGradient>
<linearGradient id="paint3_linear_821_5512" x1="46.5" y1="21.0182" x2="46.5" y2="50" gradientUnits="userSpaceOnUse">
<stop stop-color="#FDE68A"/>
<stop offset="1" stop-color="#D97706"/>
</linearGradient>
</defs>
</svg>
