<?xml version="1.0" encoding="UTF-8"?>
<svg width="600px" height="600px" viewBox="0 0 600 600" version="1.1" xmlns="http://www.w3.org/2000/svg" xmlns:xlink="http://www.w3.org/1999/xlink">
    <!-- Generator: Sketch 40.3 (33839) - http://www.bohemiancoding.com/sketch -->
    <title>Group 2 Copy 12</title>
    <desc>Created with Sketch.</desc>
    <defs>
        <linearGradient x1="50%" y1="0%" x2="50%" y2="100%" id="linearGradient-1">
            <stop stop-color="#FFFFFF" stop-opacity="0.2" offset="0%"></stop>
            <stop stop-color="#000000" stop-opacity="0.138870018" offset="100%"></stop>
        </linearGradient>
        <linearGradient x1="50%" y1="0%" x2="50%" y2="100%" id="linearGradient-2">
            <stop stop-color="#FFFFFF" offset="0%"></stop>
            <stop stop-color="#F6F6F6" offset="35.2427758%"></stop>
            <stop stop-color="#E5E5E5" offset="100%"></stop>
        </linearGradient>
        <path d="M360.9375,201.320625 L360.9375,200.625 L388.888125,200.625 C388.015312,179.0625 383.210625,157.866563 374.984062,138.608438 C366.88125,119.644688 355.7625,102.36 341.930625,87.4565625 L318.617812,110.562188 L308.090625,100.257188 L331.329375,77.120625 C316.154062,63.211875 298.648125,52.05 279.284062,43.940625 C259.199062,35.5284375 238.125,31.02375 216.5625,30.174375 L216.5625,61.875 L215.6175,61.875 L202.5,61.875 L202.5,30.174375 C180.9375,31.0125 160.359375,35.5171875 140.24625,43.9415625 C121.165312,51.931875 103.723125,63.12 88.3884375,77.195625 L111.634687,100.242188 L111.12,100.756875 L111.120937,100.7625 L110.849062,101.076563 L101.220937,110.641875 L77.990625,87.6928125 C64.14375,102.629063 53.049375,119.795625 45.013125,138.6075 C36.7884375,157.86375 31.9846875,179.0625 31.1128125,200.625 L58.125,200.625 L58.125,215.625 L57.3975,215.625 L31.1128125,215.625 C31.9809375,236.25 36.658125,257.28 45.015,276.840938 C52.2234375,293.716875 62.263125,309.338438 74.8565625,323.646563 C111.2175,288.605625 159.192187,269.339063 210.000937,269.339063 C260.731875,269.339063 308.706562,288.722813 345.145312,323.840625 C357.664687,309.614063 367.7025,293.860313 374.985937,276.81 C383.34375,257.24625 388.020937,236.25 388.888125,215.625 L360.9375,215.625 L360.9375,201.320625 L360.9375,201.320625 Z M255,209.941875 C255,234.754688 234.812812,254.941875 210,254.941875 C200.415937,254.941875 191.530312,251.920313 184.2225,246.794063 L172.941562,258.075 L162.336562,247.469063 L173.537812,236.267813 C168.173437,228.859688 165.000937,219.765938 165.000937,209.942813 C165.000937,185.13 185.188125,164.942813 210.000937,164.942813 C219.377812,164.942813 228.091875,167.829375 235.307812,172.755938 L304.199062,111.136875 L305.524687,112.4625 L246.60375,183.815625 C251.880937,191.187188 255,200.204063 255,209.941875 L255,209.941875 Z" id="path-3"></path>
        <filter x="-50%" y="-50%" width="200%" height="200%" filterUnits="objectBoundingBox" id="filter-4">
            <feMorphology radius="1" operator="dilate" in="SourceAlpha" result="shadowSpreadOuter1"></feMorphology>
            <feOffset dx="0" dy="2" in="shadowSpreadOuter1" result="shadowOffsetOuter1"></feOffset>
            <feColorMatrix values="0 0 0 0 0   0 0 0 0 0   0 0 0 0 0  0 0 0 0.08 0" type="matrix" in="shadowOffsetOuter1"></feColorMatrix>
        </filter>
        <path d="M210,0 C94.02,0 0,93.961875 0,209.941875 C0,263.355937 19.9528125,312.10125 52.79625,349.160625 C56.1253125,352.91625 59.5846875,356.491875 63.170625,360 L73.125,360 L79.6875,360 L83.9765625,360 C84.8064785,358.976691 85.648607,357.963689 86.5027265,356.961217 C116.246611,322.051082 160.532047,299.91 209.999063,299.91 C260.886563,299.91 306.291562,323.340937 336.0225,360 L356.828437,360 C360.414375,356.491875 363.874687,352.915312 367.202812,349.160625 C400.04625,312.10125 419.999062,263.355937 419.999062,209.941875 C420,93.961875 325.98,0 210,0 L210,0 Z M355.0725,334.497188 C352.212188,337.692188 349.08,340.93125 345.497813,344.400938 L345.145313,344.743125 L344.819063,344.374688 C342.354375,341.590313 339.669375,338.76375 336.6075,335.730938 C336.349688,335.476875 336.087188,335.225625 335.825625,334.974375 L335.353125,334.519688 C319.17375,318.801563 300.44625,306.425625 279.689063,297.734063 C257.625,288.494063 234.178125,283.808438 209.999063,283.808438 C185.82,283.808438 162.373125,288.494063 140.309063,297.734063 C119.552813,306.425625 100.824375,318.8025 84.645,334.519688 L84.1725,334.974375 C83.9109375,335.225625 83.649375,335.475938 83.3915625,335.730938 C80.3296875,338.762813 77.6446875,341.590313 75.18,344.374688 L74.85375,344.743125 L74.5003125,344.400938 C70.918125,340.93125 67.7859375,337.692188 64.9265625,334.497188 C33.5071875,299.39625 16.20375,254.22 16.20375,207.2925 C16.20375,156.043125 36.361875,107.867813 72.9646875,71.641875 C109.565625,35.4178125 158.232188,15.46875 210,15.46875 C261.76875,15.46875 310.434375,35.4178125 347.034375,71.641875 C383.637188,107.86875 403.795313,156.044062 403.795313,207.2925 C403.795313,254.22 386.492813,299.395313 355.0725,334.497188 L355.0725,334.497188 Z" id="path-5"></path>
        <filter x="-50%" y="-50%" width="200%" height="200%" filterUnits="objectBoundingBox" id="filter-6">
            <feMorphology radius="1" operator="dilate" in="SourceAlpha" result="shadowSpreadOuter1"></feMorphology>
            <feOffset dx="0" dy="2" in="shadowSpreadOuter1" result="shadowOffsetOuter1"></feOffset>
            <feColorMatrix values="0 0 0 0 0   0 0 0 0 0   0 0 0 0 0  0 0 0 0.08 0" type="matrix" in="shadowOffsetOuter1"></feColorMatrix>
        </filter>
        <circle id="path-7" cx="210" cy="209.941875" r="30"></circle>
        <filter x="-50%" y="-50%" width="200%" height="200%" filterUnits="objectBoundingBox" id="filter-8">
            <feMorphology radius="1" operator="dilate" in="SourceAlpha" result="shadowSpreadOuter1"></feMorphology>
            <feOffset dx="0" dy="2" in="shadowSpreadOuter1" result="shadowOffsetOuter1"></feOffset>
            <feColorMatrix values="0 0 0 0 0   0 0 0 0 0   0 0 0 0 0  0 0 0 0.08 0" type="matrix" in="shadowOffsetOuter1"></feColorMatrix>
        </filter>
    </defs>
    <g id="Page-1" stroke="none" stroke-width="1" fill="none" fill-rule="evenodd">
        <g id="Group-2-Copy-12">
            <path d="M552.268958,552.268958 C600,504.537813 600,431.458333 600,300 C600,168.541667 600,95.4621875 552.268958,47.7310417 C504.537813,0 431.458333,0 300,0 C168.541667,0 95.4621875,0 47.7310417,47.7310417 C0,95.4621875 0,168.541667 0,300 C0,431.458333 0,504.537813 47.7310417,552.268958 C95.4621875,600 168.541667,600 300,600 C431.458333,600 504.537813,600 552.268958,552.268958 L552.268958,552.268958 Z" id="path-copy-13" fill="#FF4D63"></path>
            <path d="M552.268958,552.268958 C600,504.537813 600,431.458333 600,300 C600,168.541667 600,95.4621875 552.268958,47.7310417 C504.537813,0 431.458333,0 300,0 C168.541667,0 95.4621875,0 47.7310417,47.7310417 C0,95.4621875 0,168.541667 0,300 C0,431.458333 0,504.537813 47.7310417,552.268958 C95.4621875,600 168.541667,600 300,600 C431.458333,600 504.537813,600 552.268958,552.268958 L552.268958,552.268958 Z" id="path-copy" fill="url(#linearGradient-1)"></path>
            <g id="ios-speedometer" transform="translate(90.000000, 112.000000)">
                <g id="Layer_1">
                    <g id="Group">
                        <g id="Shape" opacity="0.5">
                            <use fill="black" fill-opacity="1" filter="url(#filter-4)" xlink:href="#path-3"></use>
                            <use fill="url(#linearGradient-2)" fill-rule="evenodd" xlink:href="#path-3"></use>
                        </g>
                        <g id="Shape">
                            <use fill="black" fill-opacity="1" filter="url(#filter-6)" xlink:href="#path-5"></use>
                            <use fill="url(#linearGradient-2)" fill-rule="evenodd" xlink:href="#path-5"></use>
                        </g>
                        <g id="Oval">
                            <use fill="black" fill-opacity="1" filter="url(#filter-8)" xlink:href="#path-7"></use>
                            <use fill="url(#linearGradient-2)" fill-rule="evenodd" xlink:href="#path-7"></use>
                        </g>
                    </g>
                </g>
            </g>
        </g>
    </g>
</svg>