<svg width="96" height="96" viewBox="0 0 96 96" fill="none" xmlns="http://www.w3.org/2000/svg">
<g clip-path="url(#clip0_69_113)">
<path d="M80 0H16C7.16344 0 0 7.16344 0 16V80C0 88.8366 7.16344 96 16 96H80C88.8366 96 96 88.8366 96 80V16C96 7.16344 88.8366 0 80 0Z" fill="url(#paint0_linear_69_113)"/>
<path fill-rule="evenodd" clip-rule="evenodd" d="M35.5628 17.9739C39.5058 16.3406 43.732 15.5 48 15.5C52.268 15.5 56.4942 16.3406 60.4372 17.9739C64.3802 19.6072 67.963 22.0012 70.981 25.019C73.9988 28.037 76.3928 31.6198 78.026 35.5628C79.6594 39.5058 80.5 43.732 80.5 48C80.5 52.268 79.6594 56.4942 78.026 60.4372C76.3928 64.3802 73.9988 67.963 70.981 70.981C67.963 73.9988 64.3802 76.3928 60.4372 78.026C56.4942 79.6594 52.268 80.5 48 80.5C43.732 80.5 39.5058 79.6594 35.5628 78.026C31.6198 76.3928 28.037 73.9988 25.019 70.981C22.0012 67.963 19.6072 64.3802 17.9739 60.4372C16.3406 56.4942 15.5 52.268 15.5 48C15.5 43.732 16.3406 39.5058 17.9739 35.5628C19.6072 31.6198 22.0012 28.037 25.019 25.019C28.037 22.0012 31.6198 19.6072 35.5628 17.9739ZM48 20.5C44.3886 20.5 40.8126 21.2114 37.4762 22.5934C34.1398 23.9754 31.1082 26.001 28.5546 28.5546C26.001 31.1082 23.9754 34.1398 22.5934 37.4762C21.2114 40.8126 20.5 44.3886 20.5 48C20.5 51.6114 21.2114 55.1874 22.5934 58.5238C23.9754 61.8602 26.001 64.8918 28.5546 67.4454C31.1082 69.999 34.1398 72.0246 37.4762 73.4066C40.8126 74.7886 44.3886 75.5 48 75.5C51.6114 75.5 55.1874 74.7886 58.5238 73.4066C61.8602 72.0246 64.8918 69.999 67.4454 67.4454C69.999 64.8918 72.0246 61.8602 73.4066 58.5238C74.7886 55.1874 75.5 51.6114 75.5 48C75.5 44.3886 74.7886 40.8126 73.4066 37.4762C72.0246 34.1398 69.999 31.1082 67.4454 28.5546C64.8918 26.001 61.8602 23.9754 58.5238 22.5934C55.1874 21.2114 51.6114 20.5 48 20.5Z" fill="white"/>
<path fill-rule="evenodd" clip-rule="evenodd" d="M43.8752 43.8752C44.9692 42.7812 46.453 42.1666 48 42.1666C49.5472 42.1666 51.0308 42.7812 52.1248 43.8752C53.2188 44.9692 53.8334 46.453 53.8334 48C53.8334 49.5472 53.2188 51.0308 52.1248 52.1248C51.0308 53.2188 49.5472 53.8334 48 53.8334C46.453 53.8334 44.9692 53.2188 43.8752 52.1248C42.7812 51.0308 42.1666 49.5472 42.1666 48C42.1666 46.453 42.7812 44.9692 43.8752 43.8752ZM48 47.1666C47.779 47.1666 47.567 47.2544 47.4108 47.4108C47.2544 47.567 47.1666 47.779 47.1666 48C47.1666 48.221 47.2544 48.433 47.4108 48.5892C47.567 48.7456 47.779 48.8334 48 48.8334C48.221 48.8334 48.433 48.7456 48.5892 48.5892C48.7456 48.433 48.8334 48.221 48.8334 48C48.8334 47.779 48.7456 47.567 48.5892 47.4108C48.433 47.2544 48.221 47.1666 48 47.1666Z" fill="white"/>
<path fill-rule="evenodd" clip-rule="evenodd" d="M63.101 32.8988C64.0774 33.8752 64.0774 35.4582 63.101 36.4344L54.4678 45.0678C53.4914 46.044 51.9086 46.044 50.9322 45.0678C49.956 44.0914 49.956 42.5086 50.9322 41.5322L59.5656 32.8988C60.5418 31.9226 62.1248 31.9226 63.101 32.8988Z" fill="white"/>
<path fill-rule="evenodd" clip-rule="evenodd" d="M48 33.8334C44.2428 33.8334 40.6394 35.3258 37.9826 37.9826C35.3258 40.6394 33.8334 44.2428 33.8334 48C33.8334 49.3808 32.714 50.5 31.3334 50.5C29.9526 50.5 28.8334 49.3808 28.8334 48C28.8334 42.9166 30.8526 38.0416 34.4472 34.4472C38.0416 30.8526 42.9166 28.8334 48 28.8334C49.3808 28.8334 50.5 29.9526 50.5 31.3334C50.5 32.714 49.3808 33.8334 48 33.8334Z" fill="white"/>
</g>
<defs>
<linearGradient id="paint0_linear_69_113" x1="48" y1="0" x2="48" y2="96" gradientUnits="userSpaceOnUse">
<stop stop-color="#71717A"/>
<stop offset="1" stop-color="#52525B"/>
</linearGradient>
<clipPath id="clip0_69_113">
<rect width="96" height="96" fill="white"/>
</clipPath>
</defs>
</svg>
