<svg width="80" height="80" viewBox="0 0 80 80" fill="none" xmlns="http://www.w3.org/2000/svg">
<rect width="80" height="80" fill="url(#paint0_linear_821_5745)"/>
<g filter="url(#filter0_dd_821_5745)">
<path d="M46.1854 52.5629C45.5811 52.8611 45.1045 53.3994 45.0426 54.0704C45.0144 54.3765 45 54.6866 45 55C45 60.5228 49.4772 65 55 65C60.5228 65 65 60.5228 65 55C65 49.4772 60.5228 45 55 45C54.6866 45 54.3765 45.0144 54.0704 45.0426C53.3994 45.1045 52.8611 45.5811 52.563 46.1854C51.1993 48.9499 48.9499 51.1992 46.1854 52.5629Z" fill="url(#paint1_linear_821_5745)"/>
<path d="M34.9574 54.0704C34.8955 53.3994 34.4189 52.8611 33.8146 52.563C31.0501 51.1993 28.8007 48.9499 27.437 46.1854C27.1389 45.5811 26.6006 45.1045 25.9296 45.0426C25.6235 45.0144 25.3134 45 25 45C19.4772 45 15 49.4772 15 55C15 60.5228 19.4772 65 25 65C30.5228 65 35 60.5228 35 55C35 54.6866 34.9856 54.3765 34.9574 54.0704Z" fill="url(#paint2_linear_821_5745)"/>
<path d="M33.8146 27.437C34.4189 27.1389 34.8955 26.6006 34.9574 25.9296C34.9856 25.6235 35 25.3134 35 25C35 19.4772 30.5228 15 25 15C19.4772 15 15 19.4772 15 25C15 30.5228 19.4772 35 25 35C25.3134 35 25.6235 34.9856 25.9296 34.9574C26.6006 34.8955 27.1389 34.4189 27.437 33.8146C28.8007 31.0501 31.0501 28.8007 33.8146 27.437Z" fill="url(#paint3_linear_821_5745)"/>
<path d="M55 35C60.5228 35 65 30.5228 65 25C65 19.4772 60.5228 15 55 15C49.4772 15 45 19.4772 45 25C45 25.3134 45.0144 25.6235 45.0426 25.9296C45.1045 26.6006 45.5811 27.1389 46.1854 27.437C48.9499 28.8007 51.1993 31.0501 52.563 33.8146C52.8611 34.4189 53.3994 34.8955 54.0704 34.9574C54.3765 34.9856 54.6866 35 55 35Z" fill="url(#paint4_linear_821_5745)"/>
<circle cx="40" cy="40" r="10" fill="url(#paint5_linear_821_5745)"/>
</g>
<defs>
<filter id="filter0_dd_821_5745" x="8" y="10" width="64" height="64" filterUnits="userSpaceOnUse" color-interpolation-filters="sRGB">
<feFlood flood-opacity="0" result="BackgroundImageFix"/>
<feColorMatrix in="SourceAlpha" type="matrix" values="0 0 0 0 0 0 0 0 0 0 0 0 0 0 0 0 0 0 127 0" result="hardAlpha"/>
<feOffset dy="1"/>
<feComposite in2="hardAlpha" operator="out"/>
<feColorMatrix type="matrix" values="0 0 0 0 0 0 0 0 0 0 0 0 0 0 0 0 0 0 0.25 0"/>
<feBlend mode="normal" in2="BackgroundImageFix" result="effect1_dropShadow_821_5745"/>
<feColorMatrix in="SourceAlpha" type="matrix" values="0 0 0 0 0 0 0 0 0 0 0 0 0 0 0 0 0 0 127 0" result="hardAlpha"/>
<feOffset dy="2"/>
<feGaussianBlur stdDeviation="2"/>
<feComposite in2="hardAlpha" operator="out"/>
<feColorMatrix type="matrix" values="0 0 0 0 0 0 0 0 0 0 0 0 0 0 0 0 0 0 0.25 0"/>
<feBlend mode="normal" in2="effect1_dropShadow_821_5745" result="effect2_dropShadow_821_5745"/>
<feBlend mode="normal" in="SourceGraphic" in2="effect2_dropShadow_821_5745" result="shape"/>
</filter>
<linearGradient id="paint0_linear_821_5745" x1="40" y1="0" x2="40" y2="80" gradientUnits="userSpaceOnUse">
<stop stop-color="#4B5563"/>
<stop offset="1" stop-color="#1F2937"/>
</linearGradient>
<linearGradient id="paint1_linear_821_5745" x1="55" y1="45" x2="55" y2="65" gradientUnits="userSpaceOnUse">
<stop stop-color="#F3F4F6"/>
<stop offset="1" stop-color="#9CA3AF"/>
</linearGradient>
<linearGradient id="paint2_linear_821_5745" x1="25" y1="45" x2="25" y2="65" gradientUnits="userSpaceOnUse">
<stop stop-color="#F3F4F6"/>
<stop offset="1" stop-color="#9CA3AF"/>
</linearGradient>
<linearGradient id="paint3_linear_821_5745" x1="25" y1="15" x2="25" y2="35" gradientUnits="userSpaceOnUse">
<stop stop-color="#F3F4F6"/>
<stop offset="1" stop-color="#9CA3AF"/>
</linearGradient>
<linearGradient id="paint4_linear_821_5745" x1="55" y1="15" x2="55" y2="35" gradientUnits="userSpaceOnUse">
<stop stop-color="#F3F4F6"/>
<stop offset="1" stop-color="#9CA3AF"/>
</linearGradient>
<linearGradient id="paint5_linear_821_5745" x1="40" y1="30" x2="40" y2="50" gradientUnits="userSpaceOnUse">
<stop stop-color="#FDE68A"/>
<stop offset="1" stop-color="#D97706"/>
</linearGradient>
</defs>
</svg>
