<?xml version="1.0" encoding="UTF-8"?>
<svg width="64px" height="64px" viewBox="0 0 64 64" version="1.1" xmlns="http://www.w3.org/2000/svg" xmlns:xlink="http://www.w3.org/1999/xlink">
    <!-- Generator: Sketch 54.1 (76490) - https://sketchapp.com -->
    <title>designer</title>
    <desc>Created with Sketch.</desc>
    <defs>
        <path d="M32,64 C46.0222222,64 53.8173667,64 58.9086889,58.9086889 C64,53.8173667 64,46.0222222 64,32 C64,17.9777778 64,10.1826333 58.9086889,5.09131111 C53.8173667,0 46.0222222,0 32,0 C17.9777778,0 10.1826333,0 5.09131111,5.09131111 C0,10.1826333 0,17.9777778 0,32 C0,46.0222222 0,53.8173667 5.09131111,58.9086889 C10.1826333,64 17.9777778,64 32,64 Z" id="path-1"></path>
        <linearGradient x1="50%" y1="0%" x2="50%" y2="100%" id="linearGradient-3">
            <stop stop-color="#FDFEFF" offset="0%"></stop>
            <stop stop-color="#FBFCFD" stop-opacity="0.9" offset="100%"></stop>
        </linearGradient>
        <path d="M15.9603643,0.393369209 C8.19455418,1.90901828 1.93659247,8.15130493 0.40530596,15.8936154 C-2.48538796,30.5032224 10.6946138,41.3940204 20.624538,39.8549335 C23.8433648,39.3549255 25.4215274,35.5892407 23.9449297,32.6907572 C22.1401992,29.1438259 24.7183856,25.0031351 28.7028556,25.0031351 L34.9295666,25.0031351 C37.7265083,25.0031351 39.9921873,22.6905984 40,19.9014916 C39.9609366,7.58879599 28.7575445,-2.09885788 15.9603643,0.393369209 Z M7.4992251,25.0031351 C6.11637963,25.0031351 4.99916549,23.8859298 4.99916549,22.5030954 C4.99916549,21.1202609 6.11637963,20.0030557 7.4992251,20.0030557 C8.88207057,20.0030557 9.99928471,21.1202609 9.99928471,22.5030954 C9.99928471,23.8859298 8.88207057,25.0031351 7.4992251,25.0031351 Z M9.99928471,15.0029763 C8.61643923,15.0029763 7.4992251,13.885771 7.4992251,12.5029365 C7.4992251,11.1201021 8.61643923,10.0028968 9.99928471,10.0028968 C11.3821302,10.0028968 12.4993443,11.1201021 12.4993443,12.5029365 C12.4993443,13.885771 11.3821302,15.0029763 9.99928471,15.0029763 Z M19.9995231,10.0028968 C18.6166777,10.0028968 17.4994635,8.88569159 17.4994635,7.50285713 C17.4994635,6.12002267 18.6166777,5.00281742 19.9995231,5.00281742 C21.3823686,5.00281742 22.4995827,6.12002267 22.4995827,7.50285713 C22.4995827,8.88569159 21.3823686,10.0028968 19.9995231,10.0028968 Z M29.9997616,15.0029763 C28.6169161,15.0029763 27.499702,13.885771 27.499702,12.5029365 C27.499702,11.1201021 28.6169161,10.0028968 29.9997616,10.0028968 C31.382607,10.0028968 32.4998212,11.1201021 32.4998212,12.5029365 C32.4998212,13.885771 31.382607,15.0029763 29.9997616,15.0029763 Z" id="path-4"></path>
        <filter x="-5.0%" y="-2.5%" width="110.0%" height="110.0%" filterUnits="objectBoundingBox" id="filter-5">
            <feOffset dx="0" dy="1" in="SourceAlpha" result="shadowOffsetOuter1"></feOffset>
            <feGaussianBlur stdDeviation="0.5" in="shadowOffsetOuter1" result="shadowBlurOuter1"></feGaussianBlur>
            <feColorMatrix values="0 0 0 0 0   0 0 0 0 0   0 0 0 0 0  0 0 0 0.1 0" type="matrix" in="shadowBlurOuter1"></feColorMatrix>
        </filter>
    </defs>
    <g id="Page-1" stroke="none" stroke-width="1" fill="none" fill-rule="evenodd">
        <g id="Artboard" transform="translate(-745.000000, -348.000000)">
            <g id="designer" transform="translate(745.000000, 348.000000)">
                <mask id="mask-2" fill="white">
                    <use xlink:href="#path-1"></use>
                </mask>
                <use id="Path" fill="#FF3B38" xlink:href="#path-1"></use>
                <g id="palette" mask="url(#mask-2)" fill-rule="nonzero">
                    <g transform="translate(12.000000, 12.000000)" id="Shape">
                        <g>
                            <use fill="black" fill-opacity="1" filter="url(#filter-5)" xlink:href="#path-4"></use>
                            <use fill="url(#linearGradient-3)" xlink:href="#path-4"></use>
                        </g>
                    </g>
                </g>
            </g>
        </g>
    </g>
</svg>