<svg width="81" height="80" viewBox="0 0 81 80" fill="none" xmlns="http://www.w3.org/2000/svg">
<rect width="80" height="80" transform="translate(0.5)" fill="url(#paint0_linear_571_5881)"/>
<g filter="url(#filter0_d_571_5881)">
<mask id="path-1-inside-1_571_5881" fill="white">
<path fill-rule="evenodd" clip-rule="evenodd" d="M57.2654 35.7281C56.8104 36.2676 56.6822 37.0047 56.8692 37.6852C58.4492 43.4344 57.0057 49.8339 52.5567 54.3257C50.6054 56.2957 50.6054 59.4898 52.5567 61.4598C54.508 63.4298 57.6716 63.4298 59.6228 61.4598C67.8642 53.1392 69.6134 40.7632 64.9194 30.6844C64.3397 29.4397 62.6854 29.3014 61.8002 30.351L57.2654 35.7281ZM46.9695 25.2999C46.4259 25.7675 45.6759 25.8992 44.985 25.707C39.2979 24.1243 32.9728 25.5843 28.531 30.0688C28.5101 30.0899 28.4891 30.1107 28.4679 30.1314C28.4478 30.1524 28.4275 30.1733 28.4069 30.194C21.82 36.8444 21.8211 47.6765 28.4689 54.3883C30.4202 56.3584 30.4202 59.5524 28.4689 61.5225C26.5177 63.4925 23.3541 63.4925 21.4028 61.5225C10.8791 50.8975 10.8247 33.6772 21.3408 23.0599C21.3617 23.0388 21.3827 23.0179 21.4039 22.9972C21.424 22.9762 21.4444 22.9553 21.4649 22.9346C29.7148 14.6053 41.9899 12.8441 51.9783 17.602C53.2041 18.1859 53.3412 19.8178 52.3119 20.7033L46.9695 25.2999Z"/>
</mask>
<path fill-rule="evenodd" clip-rule="evenodd" d="M57.2654 35.7281C56.8104 36.2676 56.6822 37.0047 56.8692 37.6852C58.4492 43.4344 57.0057 49.8339 52.5567 54.3257C50.6054 56.2957 50.6054 59.4898 52.5567 61.4598C54.508 63.4298 57.6716 63.4298 59.6228 61.4598C67.8642 53.1392 69.6134 40.7632 64.9194 30.6844C64.3397 29.4397 62.6854 29.3014 61.8002 30.351L57.2654 35.7281ZM46.9695 25.2999C46.4259 25.7675 45.6759 25.8992 44.985 25.707C39.2979 24.1243 32.9728 25.5843 28.531 30.0688C28.5101 30.0899 28.4891 30.1107 28.4679 30.1314C28.4478 30.1524 28.4275 30.1733 28.4069 30.194C21.82 36.8444 21.8211 47.6765 28.4689 54.3883C30.4202 56.3584 30.4202 59.5524 28.4689 61.5225C26.5177 63.4925 23.3541 63.4925 21.4028 61.5225C10.8791 50.8975 10.8247 33.6772 21.3408 23.0599C21.3617 23.0388 21.3827 23.0179 21.4039 22.9972C21.424 22.9762 21.4444 22.9553 21.4649 22.9346C29.7148 14.6053 41.9899 12.8441 51.9783 17.602C53.2041 18.1859 53.3412 19.8178 52.3119 20.7033L46.9695 25.2999Z" fill="url(#paint1_linear_571_5881)"/>
<path d="M52.5567 54.3257L53.2672 55.0294L52.5567 54.3257ZM52.5567 61.4598L51.8462 62.1635H51.8462L52.5567 61.4598ZM59.6228 61.4598L58.9124 60.7561H58.9124L59.6228 61.4598ZM28.531 30.0688L29.2415 30.7725H29.2415L28.531 30.0688ZM28.4679 30.1314L27.7697 29.4155L27.7574 29.4275L27.7455 29.44L28.4679 30.1314ZM28.4069 30.194L29.1174 30.8977L29.1174 30.8977L28.4069 30.194ZM28.4689 54.3883L29.1794 53.6846L28.4689 54.3883ZM28.4689 61.5225L29.1794 62.2262H29.1794L28.4689 61.5225ZM21.4028 61.5225L20.6923 62.2262L21.4028 61.5225ZM21.3408 23.0599L22.0513 23.7636L22.0513 23.7636L21.3408 23.0599ZM21.4039 22.9972L22.1021 23.7132L22.1144 23.7011L22.1263 23.6887L21.4039 22.9972ZM21.4649 22.9346L22.1754 23.6383L22.1754 23.6383L21.4649 22.9346ZM51.9783 17.602L52.4083 16.6992L51.9783 17.602ZM46.9695 25.2999L46.3173 24.5418L46.9695 25.2999ZM64.9194 30.6844L65.8259 30.2622L64.9194 30.6844ZM61.8002 30.351L61.0357 29.7063L61.8002 30.351ZM56.8692 37.6852L57.8335 37.4202L56.8692 37.6852ZM57.2654 35.7281L58.0298 36.3728L57.2654 35.7281ZM53.2672 55.0294C57.9802 50.271 59.5036 43.4973 57.8335 37.4202L55.905 37.9502C57.3948 43.3714 56.0312 49.3967 51.8462 53.6219L53.2672 55.0294ZM53.2672 60.7561C51.702 59.1758 51.702 56.6097 53.2672 55.0294L51.8462 53.6219C49.5089 55.9817 49.5089 59.8037 51.8462 62.1635L53.2672 60.7561ZM58.9124 60.7561C57.3524 62.3311 54.8272 62.3311 53.2672 60.7561L51.8462 62.1635C54.1888 64.5286 57.9908 64.5286 60.3333 62.1635L58.9124 60.7561ZM64.0129 31.1066C68.5375 40.8217 66.8473 52.7448 58.9124 60.7561L60.3333 62.1635C68.8811 53.5335 70.6894 40.7048 65.8259 30.2622L64.0129 31.1066ZM61.0357 29.7063L56.501 35.0834L58.0298 36.3728L62.5646 30.9957L61.0357 29.7063ZM45.2532 24.7436C39.2306 23.0676 32.5272 24.6131 27.8205 29.365L29.2415 30.7725C33.4183 26.5555 39.3652 25.181 44.7169 26.6704L45.2532 24.7436ZM27.8205 29.365C27.8038 29.382 27.7868 29.3988 27.7697 29.4155L29.1661 30.8473C29.1913 30.8227 29.2165 30.7977 29.2415 30.7725L27.8205 29.365ZM27.7455 29.44C27.7293 29.4568 27.713 29.4736 27.6964 29.4903L29.1174 30.8977C29.1419 30.873 29.1662 30.848 29.1903 30.8228L27.7455 29.44ZM27.6964 29.4903C20.7211 36.5328 20.727 47.9929 27.7585 55.092L29.1794 53.6846C22.9152 47.3601 22.9188 37.156 29.1174 30.8977L27.6964 29.4903ZM27.7585 55.092C29.3237 56.6723 29.3237 59.2384 27.7585 60.8188L29.1794 62.2262C31.5167 59.8664 31.5167 56.0444 29.1794 53.6846L27.7585 55.092ZM27.7585 60.8188C26.1985 62.3937 23.6733 62.3937 22.1133 60.8188L20.6923 62.2262C23.0349 64.5913 26.8369 64.5913 29.1794 62.2262L27.7585 60.8188ZM22.1133 60.8188C11.9728 50.5807 11.924 33.9884 22.0513 23.7636L20.6303 22.3562C9.72544 33.366 9.78536 51.2143 20.6923 62.2262L22.1133 60.8188ZM22.0513 23.7636C22.0681 23.7466 22.085 23.7298 22.1021 23.7132L20.7057 22.2813C20.6805 22.3059 20.6553 22.3309 20.6303 22.3562L22.0513 23.7636ZM22.1263 23.6887C22.1425 23.6718 22.1588 23.655 22.1754 23.6383L20.7544 22.2309C20.7299 22.2557 20.7056 22.2806 20.6815 22.3058L22.1263 23.6887ZM22.1754 23.6383C30.1164 15.6209 41.931 13.9238 51.5483 18.5048L52.4083 16.6992C42.0488 11.7645 29.3133 13.5896 20.7544 22.2309L22.1754 23.6383ZM47.6217 26.0579L52.9641 21.4614L51.6597 19.9453L46.3173 24.5418L47.6217 26.0579ZM51.5483 18.5048C52.0479 18.7428 52.2046 19.4765 51.6597 19.9453L52.9641 21.4614C54.4778 20.1591 54.3603 17.629 52.4083 16.6992L51.5483 18.5048ZM44.7169 26.6704C45.6924 26.9418 46.797 26.7675 47.6217 26.0579L46.3173 24.5418C46.0549 24.7676 45.6594 24.8567 45.2532 24.7436L44.7169 26.6704ZM65.8259 30.2622C64.9027 28.28 62.3373 28.163 61.0357 29.7063L62.5646 30.9957C63.0335 30.4397 63.7767 30.5995 64.0129 31.1066L65.8259 30.2622ZM57.8335 37.4202C57.7239 37.0218 57.81 36.6335 58.0298 36.3728L56.501 35.0834C55.8109 35.9017 55.6404 36.9877 55.905 37.9502L57.8335 37.4202Z" fill="url(#paint2_linear_571_5881)" mask="url(#path-1-inside-1_571_5881)"/>
</g>
<g filter="url(#filter1_d_571_5881)">
<mask id="path-3-inside-2_571_5881" fill="white">
<path fill-rule="evenodd" clip-rule="evenodd" d="M48.2482 40.0009C48.4126 40.6398 48.5 41.3097 48.5 42C48.5 46.4183 44.9183 50 40.5 50C36.0817 50 32.5 46.4183 32.5 42C32.5 37.5817 36.0817 34 40.5 34C41.2038 34 41.8864 34.0909 42.5367 34.2616L57.2151 21.753C58.1953 20.7733 59.7846 20.7733 60.7648 21.753C61.7451 22.7327 61.7451 24.3211 60.7648 25.3008L48.2482 40.0009Z"/>
</mask>
<path fill-rule="evenodd" clip-rule="evenodd" d="M48.2482 40.0009C48.4126 40.6398 48.5 41.3097 48.5 42C48.5 46.4183 44.9183 50 40.5 50C36.0817 50 32.5 46.4183 32.5 42C32.5 37.5817 36.0817 34 40.5 34C41.2038 34 41.8864 34.0909 42.5367 34.2616L57.2151 21.753C58.1953 20.7733 59.7846 20.7733 60.7648 21.753C61.7451 22.7327 61.7451 24.3211 60.7648 25.3008L48.2482 40.0009Z" fill="url(#paint3_linear_571_5881)"/>
<path d="M48.2482 40.0009L47.4868 39.3526L47.1505 39.7476L47.2797 40.25L48.2482 40.0009ZM42.5367 34.2616L42.2828 35.2288L42.7879 35.3614L43.1853 35.0227L42.5367 34.2616ZM57.2151 21.753L57.8637 22.5141L57.8939 22.4884L57.922 22.4603L57.2151 21.753ZM60.7648 25.3008L60.0579 24.5935L60.0295 24.6219L60.0034 24.6525L60.7648 25.3008ZM47.2797 40.25C47.4233 40.8083 47.5 41.3945 47.5 42H49.5C49.5 41.225 49.4018 40.4714 49.2167 39.7517L47.2797 40.25ZM47.5 42C47.5 45.866 44.366 49 40.5 49V51C45.4706 51 49.5 46.9706 49.5 42H47.5ZM40.5 49C36.634 49 33.5 45.866 33.5 42H31.5C31.5 46.9706 35.5294 51 40.5 51V49ZM33.5 42C33.5 38.134 36.634 35 40.5 35V33C35.5294 33 31.5 37.0294 31.5 42H33.5ZM40.5 35C41.1174 35 41.7147 35.0797 42.2828 35.2288L42.7906 33.2943C42.0582 33.1021 41.2903 33 40.5 33V35ZM43.1853 35.0227L57.8637 22.5141L56.5665 20.9919L41.8881 33.5005L43.1853 35.0227ZM57.922 22.4603C58.5118 21.8709 59.4682 21.8709 60.0579 22.4603L61.4717 21.0457C60.101 19.6758 57.8789 19.6758 56.5082 21.0457L57.922 22.4603ZM60.0579 22.4603C60.6474 23.0494 60.6474 24.0044 60.0579 24.5935L61.4717 26.0081C62.8428 24.6378 62.8428 22.416 61.4717 21.0457L60.0579 22.4603ZM60.0034 24.6525L47.4868 39.3526L49.0096 40.6492L61.5262 25.9491L60.0034 24.6525Z" fill="url(#paint4_linear_571_5881)" mask="url(#path-3-inside-2_571_5881)"/>
</g>
<defs>
<filter id="filter0_d_571_5881" x="11.4818" y="14" width="58" height="52" filterUnits="userSpaceOnUse" color-interpolation-filters="sRGB">
<feFlood flood-opacity="0" result="BackgroundImageFix"/>
<feColorMatrix in="SourceAlpha" type="matrix" values="0 0 0 0 0 0 0 0 0 0 0 0 0 0 0 0 0 0 127 0" result="hardAlpha"/>
<feOffset dy="1"/>
<feGaussianBlur stdDeviation="1"/>
<feComposite in2="hardAlpha" operator="out"/>
<feColorMatrix type="matrix" values="0 0 0 0 0 0 0 0 0 0 0 0 0 0 0 0 0 0 0.5 0"/>
<feBlend mode="normal" in2="BackgroundImageFix" result="effect1_dropShadow_571_5881"/>
<feBlend mode="normal" in="SourceGraphic" in2="effect1_dropShadow_571_5881" result="shape"/>
</filter>
<filter id="filter1_d_571_5881" x="30.5" y="20.0182" width="33" height="32.9818" filterUnits="userSpaceOnUse" color-interpolation-filters="sRGB">
<feFlood flood-opacity="0" result="BackgroundImageFix"/>
<feColorMatrix in="SourceAlpha" type="matrix" values="0 0 0 0 0 0 0 0 0 0 0 0 0 0 0 0 0 0 127 0" result="hardAlpha"/>
<feOffset dy="1"/>
<feGaussianBlur stdDeviation="1"/>
<feComposite in2="hardAlpha" operator="out"/>
<feColorMatrix type="matrix" values="0 0 0 0 0 0 0 0 0 0 0 0 0 0 0 0 0 0 0.5 0"/>
<feBlend mode="normal" in2="BackgroundImageFix" result="effect1_dropShadow_571_5881"/>
<feBlend mode="normal" in="SourceGraphic" in2="effect1_dropShadow_571_5881" result="shape"/>
</filter>
<linearGradient id="paint0_linear_571_5881" x1="40" y1="0" x2="40" y2="80" gradientUnits="userSpaceOnUse">
<stop stop-color="#6B7280"/>
<stop offset="1" stop-color="#374151"/>
</linearGradient>
<linearGradient id="paint1_linear_571_5881" x1="40.4818" y1="15" x2="40.4818" y2="63" gradientUnits="userSpaceOnUse">
<stop stop-color="#F3F4F6"/>
<stop offset="1" stop-color="#9CA3AF"/>
</linearGradient>
<linearGradient id="paint2_linear_571_5881" x1="40.4818" y1="15" x2="40.4818" y2="63" gradientUnits="userSpaceOnUse">
<stop stop-color="white" stop-opacity="0.8"/>
<stop offset="1" stop-color="white" stop-opacity="0"/>
</linearGradient>
<linearGradient id="paint3_linear_571_5881" x1="47" y1="21.0182" x2="47" y2="50" gradientUnits="userSpaceOnUse">
<stop stop-color="#FDE68A"/>
<stop offset="1" stop-color="#D97706"/>
</linearGradient>
<linearGradient id="paint4_linear_571_5881" x1="47" y1="21.0182" x2="47" y2="50" gradientUnits="userSpaceOnUse">
<stop stop-color="white" stop-opacity="0.8"/>
<stop offset="1" stop-color="white" stop-opacity="0"/>
</linearGradient>
</defs>
</svg>
