<svg width="81" height="80" viewBox="0 0 81 80" fill="none" xmlns="http://www.w3.org/2000/svg">
<rect width="80" height="80" transform="translate(0.5)" fill="url(#paint0_linear_773_6823)"/>
<g filter="url(#filter0_dd_773_6823)">
<path d="M46.6854 52.5629C46.0811 52.8611 45.6045 53.3994 45.5426 54.0704C45.5144 54.3765 45.5 54.6866 45.5 55C45.5 60.5228 49.9772 65 55.5 65C61.0228 65 65.5 60.5228 65.5 55C65.5 49.4772 61.0228 45 55.5 45C55.1866 45 54.8765 45.0144 54.5704 45.0426C53.8994 45.1045 53.3611 45.5811 53.063 46.1854C51.6993 48.9499 49.4499 51.1992 46.6854 52.5629Z" fill="url(#paint1_linear_773_6823)"/>
<path d="M35.4574 54.0704C35.3955 53.3994 34.9189 52.8611 34.3146 52.563C31.5501 51.1993 29.3007 48.9499 27.937 46.1854C27.6389 45.5811 27.1006 45.1045 26.4296 45.0426C26.1235 45.0144 25.8134 45 25.5 45C19.9772 45 15.5 49.4772 15.5 55C15.5 60.5228 19.9772 65 25.5 65C31.0228 65 35.5 60.5228 35.5 55C35.5 54.6866 35.4856 54.3765 35.4574 54.0704Z" fill="url(#paint2_linear_773_6823)"/>
<path d="M34.3146 27.437C34.9189 27.1389 35.3955 26.6006 35.4574 25.9296C35.4856 25.6235 35.5 25.3134 35.5 25C35.5 19.4772 31.0228 15 25.5 15C19.9772 15 15.5 19.4772 15.5 25C15.5 30.5228 19.9772 35 25.5 35C25.8134 35 26.1235 34.9856 26.4296 34.9574C27.1006 34.8955 27.6389 34.4189 27.937 33.8146C29.3007 31.0501 31.5501 28.8007 34.3146 27.437Z" fill="url(#paint3_linear_773_6823)"/>
<path d="M55.5 35C61.0228 35 65.5 30.5228 65.5 25C65.5 19.4772 61.0228 15 55.5 15C49.9772 15 45.5 19.4772 45.5 25C45.5 25.3134 45.5144 25.6235 45.5426 25.9296C45.6045 26.6006 46.0811 27.1389 46.6854 27.437C49.4499 28.8007 51.6993 31.0501 53.063 33.8146C53.3611 34.4189 53.8994 34.8955 54.5704 34.9574C54.8765 34.9856 55.1866 35 55.5 35Z" fill="url(#paint4_linear_773_6823)"/>
<circle cx="40.5" cy="40" r="10" fill="url(#paint5_linear_773_6823)"/>
</g>
<defs>
<filter id="filter0_dd_773_6823" x="10.5" y="12" width="60" height="60" filterUnits="userSpaceOnUse" color-interpolation-filters="sRGB">
<feFlood flood-opacity="0" result="BackgroundImageFix"/>
<feColorMatrix in="SourceAlpha" type="matrix" values="0 0 0 0 0 0 0 0 0 0 0 0 0 0 0 0 0 0 127 0" result="hardAlpha"/>
<feOffset dy="1"/>
<feComposite in2="hardAlpha" operator="out"/>
<feColorMatrix type="matrix" values="0 0 0 0 0 0 0 0 0 0 0 0 0 0 0 0 0 0 0.2 0"/>
<feBlend mode="normal" in2="BackgroundImageFix" result="effect1_dropShadow_773_6823"/>
<feColorMatrix in="SourceAlpha" type="matrix" values="0 0 0 0 0 0 0 0 0 0 0 0 0 0 0 0 0 0 127 0" result="hardAlpha"/>
<feOffset dy="2"/>
<feGaussianBlur stdDeviation="1"/>
<feComposite in2="hardAlpha" operator="out"/>
<feColorMatrix type="matrix" values="0 0 0 0 0 0 0 0 0 0 0 0 0 0 0 0 0 0 0.2 0"/>
<feBlend mode="normal" in2="effect1_dropShadow_773_6823" result="effect2_dropShadow_773_6823"/>
<feBlend mode="normal" in="SourceGraphic" in2="effect2_dropShadow_773_6823" result="shape"/>
</filter>
<linearGradient id="paint0_linear_773_6823" x1="40" y1="0" x2="40" y2="80" gradientUnits="userSpaceOnUse">
<stop stop-color="#4B5563"/>
<stop offset="1" stop-color="#1F2937"/>
</linearGradient>
<linearGradient id="paint1_linear_773_6823" x1="55.5" y1="45" x2="55.5" y2="65" gradientUnits="userSpaceOnUse">
<stop stop-color="#F3F4F6"/>
<stop offset="1" stop-color="#9CA3AF"/>
</linearGradient>
<linearGradient id="paint2_linear_773_6823" x1="25.5" y1="45" x2="25.5" y2="65" gradientUnits="userSpaceOnUse">
<stop stop-color="#F3F4F6"/>
<stop offset="1" stop-color="#9CA3AF"/>
</linearGradient>
<linearGradient id="paint3_linear_773_6823" x1="25.5" y1="15" x2="25.5" y2="35" gradientUnits="userSpaceOnUse">
<stop stop-color="#F3F4F6"/>
<stop offset="1" stop-color="#9CA3AF"/>
</linearGradient>
<linearGradient id="paint4_linear_773_6823" x1="55.5" y1="15" x2="55.5" y2="35" gradientUnits="userSpaceOnUse">
<stop stop-color="#F3F4F6"/>
<stop offset="1" stop-color="#9CA3AF"/>
</linearGradient>
<linearGradient id="paint5_linear_773_6823" x1="40.5" y1="30" x2="40.5" y2="50" gradientUnits="userSpaceOnUse">
<stop stop-color="#FDE68A"/>
<stop offset="1" stop-color="#D97706"/>
</linearGradient>
</defs>
</svg>
