<svg width="48" height="48" viewBox="0 0 48 48" fill="none" xmlns="http://www.w3.org/2000/svg">
<rect width="48" height="48" fill="url(#paint0_linear_214_1875)"/>
<path d="M9 33C9 30.6894 9 29.5339 9.52009 28.6852C9.81111 28.2103 10.2104 27.811 10.6853 27.52C11.534 27 12.6893 27 15 27C17.3107 27 18.466 27 19.3147 27.52C19.7896 27.811 20.1889 28.2103 20.4799 28.6852C21 29.5339 21 30.6894 21 33C21 35.3106 21 36.466 20.4799 37.3147C20.1889 37.7896 19.7896 38.1889 19.3147 38.4799C18.466 39 17.3107 39 15 39C12.6893 39 11.534 39 10.6853 38.4799C10.2104 38.1889 9.81111 37.7896 9.52009 37.3147C9 36.466 9 35.3106 9 33Z" stroke="white" stroke-width="2.25"/>
<path d="M27 33C27 30.6894 27 29.5339 27.52 28.6852C27.811 28.2103 28.2103 27.811 28.6852 27.52C29.5339 27 30.6894 27 33 27C35.3106 27 36.466 27 37.3147 27.52C37.7896 27.811 38.1889 28.2103 38.4799 28.6852C39 29.5339 39 30.6894 39 33C39 35.3106 39 36.466 38.4799 37.3147C38.1889 37.7896 37.7896 38.1889 37.3147 38.4799C36.466 39 35.3106 39 33 39C30.6894 39 29.5339 39 28.6852 38.4799C28.2103 38.1889 27.811 37.7896 27.52 37.3147C27 36.466 27 35.3106 27 33Z" stroke="white" stroke-width="2.25"/>
<path d="M9 15C9 12.6893 9 11.534 9.52009 10.6853C9.81111 10.2104 10.2104 9.81111 10.6853 9.52009C11.534 9 12.6893 9 15 9C17.3107 9 18.466 9 19.3147 9.52009C19.7896 9.81111 20.1889 10.2104 20.4799 10.6853C21 11.534 21 12.6893 21 15C21 17.3107 21 18.466 20.4799 19.3147C20.1889 19.7896 19.7896 20.1889 19.3147 20.4799C18.466 21 17.3107 21 15 21C12.6893 21 11.534 21 10.6853 20.4799C10.2104 20.1889 9.81111 19.7896 9.52009 19.3147C9 18.466 9 17.3107 9 15Z" stroke="white" stroke-width="2.25"/>
<path d="M27 15C27 12.6893 27 11.534 27.52 10.6853C27.811 10.2104 28.2103 9.81111 28.6852 9.52009C29.5339 9 30.6894 9 33 9C35.3106 9 36.466 9 37.3147 9.52009C37.7896 9.81111 38.1889 10.2104 38.4799 10.6853C39 11.534 39 12.6893 39 15C39 17.3107 39 18.466 38.4799 19.3147C38.1889 19.7896 37.7896 20.1889 37.3147 20.4799C36.466 21 35.3106 21 33 21C30.6894 21 29.5339 21 28.6852 20.4799C28.2103 20.1889 27.811 19.7896 27.52 19.3147C27 18.466 27 17.3107 27 15Z" stroke="white" stroke-width="2.25"/>
<defs>
<linearGradient id="paint0_linear_214_1875" x1="24" y1="0" x2="24" y2="48" gradientUnits="userSpaceOnUse">
<stop stop-color="#71717A"/>
<stop offset="1" stop-color="#52525B"/>
</linearGradient>
</defs>
</svg>
