<svg width="48" height="48" viewBox="0 0 48 48" fill="none" xmlns="http://www.w3.org/2000/svg">
<g filter="url(#filter0_d_57_1596)">
<rect width="48" height="48" rx="8" fill="url(#paint0_linear_57_1596)"/>
<g clip-path="url(#clip0_57_1596)">
<path d="M13.3333 14.6667C13.3333 14.3131 13.4738 13.9739 13.7238 13.7239C13.9739 13.4738 14.313 13.3333 14.6666 13.3333H20C20.3536 13.3333 20.6927 13.4738 20.9428 13.7239C21.1928 13.9739 21.3333 14.3131 21.3333 14.6667V20C21.3333 20.3536 21.1928 20.6928 20.9428 20.9428C20.6927 21.1929 20.3536 21.3333 20 21.3333H14.6666C14.313 21.3333 13.9739 21.1929 13.7238 20.9428C13.4738 20.6928 13.3333 20.3536 13.3333 20V14.6667Z" stroke="white" stroke-width="2" stroke-linecap="round" stroke-linejoin="round"/>
<path d="M26.6667 14.6667C26.6667 14.3131 26.8072 13.9739 27.0572 13.7239C27.3073 13.4738 27.6464 13.3333 28 13.3333H33.3334C33.687 13.3333 34.0261 13.4738 34.2762 13.7239C34.5262 13.9739 34.6667 14.3131 34.6667 14.6667V20C34.6667 20.3536 34.5262 20.6928 34.2762 20.9428C34.0261 21.1929 33.687 21.3333 33.3334 21.3333H28C27.6464 21.3333 27.3073 21.1929 27.0572 20.9428C26.8072 20.6928 26.6667 20.3536 26.6667 20V14.6667Z" stroke="white" stroke-width="2" stroke-linecap="round" stroke-linejoin="round"/>
<path d="M13.3333 28C13.3333 27.6464 13.4738 27.3072 13.7238 27.0572C13.9739 26.8071 14.313 26.6667 14.6666 26.6667H20C20.3536 26.6667 20.6927 26.8071 20.9428 27.0572C21.1928 27.3072 21.3333 27.6464 21.3333 28V33.3333C21.3333 33.6869 21.1928 34.0261 20.9428 34.2761C20.6927 34.5262 20.3536 34.6667 20 34.6667H14.6666C14.313 34.6667 13.9739 34.5262 13.7238 34.2761C13.4738 34.0261 13.3333 33.6869 13.3333 33.3333V28Z" stroke="white" stroke-width="2" stroke-linecap="round" stroke-linejoin="round"/>
<path d="M26.6667 28C26.6667 27.6464 26.8072 27.3072 27.0572 27.0572C27.3073 26.8071 27.6464 26.6667 28 26.6667H33.3334C33.687 26.6667 34.0261 26.8071 34.2762 27.0572C34.5262 27.3072 34.6667 27.6464 34.6667 28V33.3333C34.6667 33.6869 34.5262 34.0261 34.2762 34.2761C34.0261 34.5262 33.687 34.6667 33.3334 34.6667H28C27.6464 34.6667 27.3073 34.5262 27.0572 34.2761C26.8072 34.0261 26.6667 33.6869 26.6667 33.3333V28Z" stroke="white" stroke-width="2" stroke-linecap="round" stroke-linejoin="round"/>
</g>
</g>
<defs>
<filter id="filter0_d_57_1596" x="0" y="0" width="48" height="48" filterUnits="userSpaceOnUse" color-interpolation-filters="sRGB">
<feFlood flood-opacity="0" result="BackgroundImageFix"/>
<feColorMatrix in="SourceAlpha" type="matrix" values="0 0 0 0 0 0 0 0 0 0 0 0 0 0 0 0 0 0 127 0" result="hardAlpha"/>
<feOffset/>
<feColorMatrix type="matrix" values="0 0 0 0 0 0 0 0 0 0 0 0 0 0 0 0 0 0 1 0"/>
<feBlend mode="normal" in2="BackgroundImageFix" result="effect1_dropShadow_57_1596"/>
<feBlend mode="normal" in="SourceGraphic" in2="effect1_dropShadow_57_1596" result="shape"/>
</filter>
<linearGradient id="paint0_linear_57_1596" x1="24" y1="0" x2="24" y2="48" gradientUnits="userSpaceOnUse">
<stop stop-color="#71717A"/>
<stop offset="1" stop-color="#52525B"/>
</linearGradient>
<clipPath id="clip0_57_1596">
<rect width="32" height="32" fill="white" transform="translate(8 8)"/>
</clipPath>
</defs>
</svg>
