<svg width="48" height="48" viewBox="0 0 48 48" fill="none" xmlns="http://www.w3.org/2000/svg">
<mask id="mask0_206_1321" style="mask-type:luminance" maskUnits="userSpaceOnUse" x="0" y="0" width="48" height="48">
<path d="M48 0H0V48H48V0Z" fill="white"/>
</mask>
<g mask="url(#mask0_206_1321)">
<path d="M40 0H8C3.58172 0 0 3.58172 0 8V40C0 44.4183 3.58172 48 8 48H40C44.4183 48 48 44.4183 48 40V8C48 3.58172 44.4183 0 40 0Z" fill="url(#paint0_linear_206_1321)"/>
<path d="M10.6667 32C10.6667 29.9461 10.6667 28.9191 11.129 28.1647C11.3877 27.7425 11.7426 27.3876 12.1647 27.1289C12.9191 26.6667 13.9461 26.6667 16 26.6667C18.0539 26.6667 19.0809 26.6667 19.8353 27.1289C20.2574 27.3876 20.6124 27.7425 20.871 28.1647C21.3334 28.9191 21.3334 29.9461 21.3334 32C21.3334 34.0539 21.3334 35.0809 20.871 35.8353C20.6124 36.2575 20.2574 36.6124 19.8353 36.8711C19.0809 37.3333 18.0539 37.3333 16 37.3333C13.9461 37.3333 12.9191 37.3333 12.1647 36.8711C11.7426 36.6124 11.3877 36.2575 11.129 35.8353C10.6667 35.0809 10.6667 34.0539 10.6667 32Z" stroke="white" stroke-width="2"/>
<path d="M26.6667 32C26.6667 29.9461 26.6667 28.9191 27.129 28.1647C27.3876 27.7425 27.7426 27.3876 28.1647 27.1289C28.9191 26.6667 29.9462 26.6667 32 26.6667C34.0539 26.6667 35.081 26.6667 35.8354 27.1289C36.2575 27.3876 36.6124 27.7425 36.8711 28.1647C37.3334 28.9191 37.3334 29.9461 37.3334 32C37.3334 34.0539 37.3334 35.0809 36.8711 35.8353C36.6124 36.2575 36.2575 36.6124 35.8354 36.8711C35.081 37.3333 34.0539 37.3333 32 37.3333C29.9462 37.3333 28.9191 37.3333 28.1647 36.8711C27.7426 36.6124 27.3876 36.2575 27.129 35.8353C26.6667 35.0809 26.6667 34.0539 26.6667 32Z" stroke="white" stroke-width="2"/>
<path d="M10.6667 16C10.6667 13.9461 10.6667 12.9191 11.129 12.1647C11.3877 11.7426 11.7426 11.3877 12.1647 11.129C12.9191 10.6667 13.9461 10.6667 16 10.6667C18.0539 10.6667 19.0809 10.6667 19.8353 11.129C20.2574 11.3877 20.6124 11.7426 20.871 12.1647C21.3334 12.9191 21.3334 13.9461 21.3334 16C21.3334 18.0539 21.3334 19.0809 20.871 19.8353C20.6124 20.2574 20.2574 20.6124 19.8353 20.871C19.0809 21.3334 18.0539 21.3334 16 21.3334C13.9461 21.3334 12.9191 21.3334 12.1647 20.871C11.7426 20.6124 11.3877 20.2574 11.129 19.8353C10.6667 19.0809 10.6667 18.0539 10.6667 16Z" stroke="white" stroke-width="2"/>
<path d="M26.6667 16C26.6667 13.9461 26.6667 12.9191 27.129 12.1647C27.3876 11.7426 27.7426 11.3877 28.1647 11.129C28.9191 10.6667 29.9462 10.6667 32 10.6667C34.0539 10.6667 35.081 10.6667 35.8354 11.129C36.2575 11.3877 36.6124 11.7426 36.8711 12.1647C37.3334 12.9191 37.3334 13.9461 37.3334 16C37.3334 18.0539 37.3334 19.0809 36.8711 19.8353C36.6124 20.2574 36.2575 20.6124 35.8354 20.871C35.081 21.3334 34.0539 21.3334 32 21.3334C29.9462 21.3334 28.9191 21.3334 28.1647 20.871C27.7426 20.6124 27.3876 20.2574 27.129 19.8353C26.6667 19.0809 26.6667 18.0539 26.6667 16Z" stroke="white" stroke-width="2"/>
</g>
<defs>
<linearGradient id="paint0_linear_206_1321" x1="24" y1="0" x2="24" y2="48" gradientUnits="userSpaceOnUse">
<stop stop-color="#71717A"/>
<stop offset="1" stop-color="#52525B"/>
</linearGradient>
</defs>
</svg>
