<?xml version="1.0" encoding="UTF-8"?>
<svg width="64px" height="64px" viewBox="0 0 64 64" version="1.1" xmlns="http://www.w3.org/2000/svg" xmlns:xlink="http://www.w3.org/1999/xlink">
    <!-- Generator: Sketch 54.1 (76490) - https://sketchapp.com -->
    <title>polyglot</title>
    <desc>Created with Sketch.</desc>
    <defs>
        <path d="M32,64 C46.0222222,64 53.8173667,64 58.9086889,58.9086889 C64,53.8173667 64,46.0222222 64,32 C64,17.9777778 64,10.1826333 58.9086889,5.09131111 C53.8173667,0 46.0222222,0 32,0 C17.9777778,0 10.1826333,0 5.09131111,5.09131111 C0,10.1826333 0,17.9777778 0,32 C0,46.0222222 0,53.8173667 5.09131111,58.9086889 C10.1826333,64 17.9777778,64 32,64 Z" id="path-1"></path>
        <linearGradient x1="50%" y1="0%" x2="50%" y2="100%" id="linearGradient-3">
            <stop stop-color="#FDFEFF" offset="0%"></stop>
            <stop stop-color="#FBFCFD" stop-opacity="0.9" offset="100%"></stop>
        </linearGradient>
        <path d="M19.95,21 L1.575,21 C0.705140625,21 0,20.2948594 0,19.425 L0,1.575 C0,0.705140625 0.705140625,0 1.575,0 L19.95,0 L19.95,21 Z M12.0306375,16.2341812 C12.129036,16.5695965 12.4367587,16.8000077 12.7863094,16.8 L14.2866937,16.8 C14.8261312,16.8 15.2059031,16.2698812 15.032325,15.7591219 L11.2619062,4.66495313 C11.1533869,4.34560965 10.8535534,4.13082832 10.516275,4.13083125 L8.38418437,4.13083125 C8.04691248,4.13084846 7.74708942,4.34562225 7.63855312,4.66495313 L3.86806875,15.7591219 C3.69449062,16.2698812 4.0742625,16.8 4.6137,16.8 L6.11027812,16.8 C6.46161168,16.7999904 6.77044083,16.5672508 6.8672625,16.2295219 L7.46563125,14.1421875 L11.4169781,14.1421875 L12.0306375,16.2341812 L12.0306375,16.2341812 Z M9.46791563,7.01911875 C9.46791563,7.01911875 9.75141563,8.40124687 9.98175938,9.198525 L10.6905094,11.6614969 L8.19216562,11.6614969 L8.91863438,9.198525 C9.14897813,8.40118125 9.43247813,7.01911875 9.43247813,7.01911875 L9.46791563,7.01911875 L9.46791563,7.01911875 Z M40.425,21 L22.05,21 L22.05,0 L40.425,0 C41.2948594,0 42,0.705140625 42,1.575 L42,19.425 C42,20.2948594 41.2948594,21 40.425,21 Z M38.0625,6.0375 L33.8625,6.0375 L33.8625,4.9875 C33.8625,4.55260312 33.5098969,4.2 33.075,4.2 L32.025,4.2 C31.5901031,4.2 31.2375,4.55260312 31.2375,4.9875 L31.2375,6.0375 L27.0375,6.0375 C26.6026031,6.0375 26.25,6.39010312 26.25,6.825 L26.25,7.875 C26.25,8.30989687 26.6026031,8.6625 27.0375,8.6625 L34.5257063,8.6625 C34.1146969,9.60087187 33.4417125,10.5637875 32.5554469,11.4978937 C32.1249469,11.0452125 31.7418938,10.58505 31.4158688,10.1241656 C31.1770594,9.78659062 30.7212281,9.68611875 30.3661969,9.89802188 L29.8884469,10.1832281 L29.4620156,10.4377875 C29.0711531,10.67115 28.9571625,11.1872906 29.2169063,11.5610906 C29.6149219,12.1339312 30.0764625,12.6987656 30.5939813,13.2493594 C30.060975,13.6579406 29.4887906,14.0528719 28.8809719,14.4282469 C28.5186563,14.6520281 28.3965938,15.1209844 28.6078406,15.4907156 L29.1289688,16.4026406 C29.3496,16.7887125 29.8465781,16.9162219 30.2253,16.6832531 C31.0608375,16.1693437 31.8377719,15.6217688 32.5512469,15.0497813 C33.267675,15.6247219 34.0452656,16.1721 34.8741094,16.6825969 C35.2530281,16.9159594 35.7504,16.7887781 35.9711625,16.4023781 L36.4924875,15.4899938 C36.7033406,15.1209844 36.5823938,14.6526187 36.2211281,14.4287719 C35.6314528,14.0637541 35.060658,13.6690821 34.5109406,13.246275 C35.8906406,11.7746344 36.8582156,10.2085594 37.3139813,8.66236875 L38.0625,8.66236875 C38.4973969,8.66236875 38.85,8.30976563 38.85,7.87486875 L38.85,6.82486875 C38.85,6.39010313 38.4973969,6.0375 38.0625,6.0375 L38.0625,6.0375 Z" id="path-4"></path>
        <filter x="-4.8%" y="-4.8%" width="109.5%" height="119.0%" filterUnits="objectBoundingBox" id="filter-5">
            <feOffset dx="0" dy="1" in="SourceAlpha" result="shadowOffsetOuter1"></feOffset>
            <feGaussianBlur stdDeviation="0.5" in="shadowOffsetOuter1" result="shadowBlurOuter1"></feGaussianBlur>
            <feColorMatrix values="0 0 0 0 0   0 0 0 0 0   0 0 0 0 0  0 0 0 0.1 0" type="matrix" in="shadowBlurOuter1"></feColorMatrix>
        </filter>
    </defs>
    <g id="Page-1" stroke="none" stroke-width="1" fill="none" fill-rule="evenodd">
        <g id="Artboard" transform="translate(-826.000000, -348.000000)">
            <g id="polyglot" transform="translate(826.000000, 348.000000)">
                <mask id="mask-2" fill="white">
                    <use xlink:href="#path-1"></use>
                </mask>
                <use id="Path" fill="#FF3B38" xlink:href="#path-1"></use>
                <g id="language" mask="url(#mask-2)" fill-rule="nonzero">
                    <g transform="translate(11.000000, 22.000000)" id="Shape">
                        <g>
                            <use fill="black" fill-opacity="1" filter="url(#filter-5)" xlink:href="#path-4"></use>
                            <use fill="url(#linearGradient-3)" xlink:href="#path-4"></use>
                        </g>
                    </g>
                </g>
            </g>
        </g>
    </g>
</svg>