<svg width="48" height="48" viewBox="0 0 48 48" fill="none" xmlns="http://www.w3.org/2000/svg">
<rect width="48" height="48" fill="url(#paint0_linear_221_2224)"/>
<path d="M13.5 14.7414H17.55M17.55 14.7414H20.25M17.55 14.7414V13.5M22.5 14.7414H20.25M20.25 14.7414C19.7753 16.4391 18.7811 18.0438 17.6464 19.4542M17.6464 19.4542C16.7068 20.622 15.6708 21.6565 14.7536 22.5M17.6464 19.4542C17.0679 18.7759 16.2579 17.6784 16.0264 17.1818M17.6464 19.4542L19.3821 21.2586" stroke="white" stroke-width="2.25" stroke-linecap="round" stroke-linejoin="round"/>
<path d="M26.25 34.5L27.4999 31.5M27.4999 31.5L30 25.5L32.5001 31.5M27.4999 31.5H32.5001M33.75 34.5L32.5001 31.5" stroke="white" stroke-width="2.25" stroke-linecap="round" stroke-linejoin="round"/>
<path d="M27 21V18C27 13.7574 27 11.636 25.6819 10.318C24.3639 9 22.2426 9 18 9C13.7574 9 11.636 9 10.318 10.318C9 11.636 9 13.7574 9 18C9 22.2426 9 24.3639 10.318 25.6819C11.636 27 13.7574 27 18 27H21" stroke="white" stroke-width="2.25" stroke-linecap="round"/>
<path d="M21 30C21 25.7574 21 23.6361 22.3181 22.3181C23.6361 21 25.7574 21 30 21C34.2426 21 36.3639 21 37.6819 22.3181C39 23.6361 39 25.7574 39 30C39 34.2426 39 36.3639 37.6819 37.6819C36.3639 39 34.2426 39 30 39C25.7574 39 23.6361 39 22.3181 37.6819C21 36.3639 21 34.2426 21 30Z" stroke="white" stroke-width="2.25"/>
<path d="M12 30.75C12 32.8568 12 33.91 12.5056 34.6666C12.7245 34.9942 13.0057 35.2755 13.3333 35.4944C14.09 36 15.1433 36 17.25 36" stroke="white" stroke-width="2.25" stroke-linecap="round" stroke-linejoin="round"/>
<path d="M36 17.25C36 15.1433 36 14.09 35.4944 13.3333C35.2755 13.0057 34.9942 12.7245 34.6666 12.5056C33.91 12 32.8568 12 30.75 12" stroke="white" stroke-width="2.25" stroke-linecap="round" stroke-linejoin="round"/>
<defs>
<linearGradient id="paint0_linear_221_2224" x1="24" y1="0" x2="24" y2="48" gradientUnits="userSpaceOnUse">
<stop stop-color="#71717A"/>
<stop offset="1" stop-color="#52525B"/>
</linearGradient>
</defs>
</svg>
