<svg width="81" height="80" viewBox="0 0 81 80" fill="none" xmlns="http://www.w3.org/2000/svg">
<rect width="80" height="80" transform="translate(0.5)" fill="url(#paint0_linear_773_6899)"/>
<g filter="url(#filter0_dd_773_6899)">
<path d="M52.4138 48.9804C52.0619 48.1886 50.9381 48.1886 50.5862 48.9804L49.8691 50.5939C49.5752 51.2551 50.0592 52 50.7829 52H52.2171C52.9408 52 53.4248 51.2551 53.1309 50.5939L52.4138 48.9804Z" fill="url(#paint1_linear_773_6899)"/>
<path fill-rule="evenodd" clip-rule="evenodd" d="M37.8432 37.3432C35.5 39.6864 35.5 43.4576 35.5 51C35.5 58.5424 35.5 62.3136 37.8432 64.6568C40.1864 67 43.9576 67 51.5 67C59.0424 67 62.8136 67 65.1568 64.6568C67.5 62.3136 67.5 58.5424 67.5 51C67.5 43.4576 67.5 39.6864 65.1568 37.3432C62.8136 35 59.0424 35 51.5 35C43.9576 35 40.1864 35 37.8432 37.3432ZM53.3276 41.1877C53.0066 40.4655 52.2904 40 51.5 40C50.7096 40 49.9934 40.4655 49.6724 41.1877L41.6724 59.1878C41.2238 60.1971 41.6784 61.379 42.6878 61.8276C43.6971 62.2762 44.879 61.8216 45.3276 60.8123L47.2024 56.5939C47.3629 56.2327 47.721 56 48.1162 56H54.8838C55.279 56 55.6371 56.2327 55.7976 56.5939L57.6724 60.8123C58.121 61.8216 59.3029 62.2762 60.3123 61.8276C61.3216 61.379 61.7762 60.1971 61.3276 59.1878L53.3276 41.1877Z" fill="url(#paint2_linear_773_6899)"/>
<path d="M13.5 29C13.5 21.4576 13.5 17.6864 15.8432 15.3432C18.1864 13 21.9576 13 29.5 13C37.0424 13 40.8136 13 43.1568 15.3432C45.5 17.6864 45.5 21.4576 45.5 29C45.5 29.7274 45.5 30.4196 45.4979 31.0789C45.4962 31.6181 45.065 32.0559 44.5262 32.0769C39.99 32.2545 37.2237 32.8414 35.2826 34.7826C35.151 34.9141 34.9254 34.8874 34.8068 34.744C34.7748 34.7053 34.7411 34.6675 34.7057 34.6307L33.0139 32.8719C32.6761 32.5208 32.6418 31.9783 32.9223 31.5798C34.2143 29.7445 35.37 27.7501 36.2086 25.6391C36.3641 25.2476 36.7382 24.9828 37.1595 24.9828H39.5C40.6046 24.9828 41.5 24.0873 41.5 22.9828C41.5 21.8782 40.6046 20.9828 39.5 20.9828H32.0828C31.8161 20.9828 31.6 20.7666 31.6 20.5C31.6 19.3954 30.7046 18.5 29.6 18.5C28.4954 18.5 27.6 19.3954 27.6 20.5C27.6 20.7666 27.3839 20.9828 27.1172 20.9828H21.5C20.3954 20.9828 19.5 21.8782 19.5 22.9828C19.5 24.0873 20.3954 24.9828 21.5 24.9828H30.5963C31.3221 24.9828 31.8017 25.7301 31.4586 26.3697C31.0125 27.2012 30.5101 28.0208 29.9649 28.8239C29.8623 28.975 29.6415 28.978 29.5347 28.8299C28.9257 27.9853 28.5085 27.3252 28.3657 27.0188C27.899 26.0176 26.7092 25.5843 25.708 26.0509C24.7068 26.5175 24.2735 27.7073 24.7401 28.7085C25.0601 29.3952 25.6843 30.3291 26.2903 31.1695C26.4252 31.3565 26.5642 31.5459 26.7055 31.735C26.9911 32.1173 26.9783 32.6485 26.6593 33.0034C25.3182 34.4954 23.9338 35.8504 22.6534 37.0278C21.8403 37.7754 21.7873 39.0406 22.5349 39.8537C23.2826 40.6668 24.5478 40.7199 25.3609 39.9722C26.5571 38.8723 27.8635 37.6032 29.1618 36.1961C29.5576 35.767 30.2346 35.7526 30.6393 36.1733L31.8229 37.4037C31.8883 37.4717 31.9573 37.534 32.0293 37.5907C32.5813 38.025 33.1718 38.7375 33.0361 39.4267C32.7807 40.7231 32.647 42.237 32.577 44.0261C32.5559 44.5649 32.1181 44.9962 31.5789 44.9979C30.9196 45 30.2274 45 29.5 45C21.9576 45 18.1864 45 15.8432 42.6568C13.5 40.3136 13.5 36.5424 13.5 29Z" fill="url(#paint3_linear_773_6899)"/>
</g>
<defs>
<filter id="filter0_dd_773_6899" x="10.5" y="12" width="60" height="60" filterUnits="userSpaceOnUse" color-interpolation-filters="sRGB">
<feFlood flood-opacity="0" result="BackgroundImageFix"/>
<feColorMatrix in="SourceAlpha" type="matrix" values="0 0 0 0 0 0 0 0 0 0 0 0 0 0 0 0 0 0 127 0" result="hardAlpha"/>
<feOffset dy="1"/>
<feComposite in2="hardAlpha" operator="out"/>
<feColorMatrix type="matrix" values="0 0 0 0 0 0 0 0 0 0 0 0 0 0 0 0 0 0 0.2 0"/>
<feBlend mode="normal" in2="BackgroundImageFix" result="effect1_dropShadow_773_6899"/>
<feColorMatrix in="SourceAlpha" type="matrix" values="0 0 0 0 0 0 0 0 0 0 0 0 0 0 0 0 0 0 127 0" result="hardAlpha"/>
<feOffset dy="2"/>
<feGaussianBlur stdDeviation="1"/>
<feComposite in2="hardAlpha" operator="out"/>
<feColorMatrix type="matrix" values="0 0 0 0 0 0 0 0 0 0 0 0 0 0 0 0 0 0 0.2 0"/>
<feBlend mode="normal" in2="effect1_dropShadow_773_6899" result="effect2_dropShadow_773_6899"/>
<feBlend mode="normal" in="SourceGraphic" in2="effect2_dropShadow_773_6899" result="shape"/>
</filter>
<linearGradient id="paint0_linear_773_6899" x1="40" y1="0" x2="40" y2="80" gradientUnits="userSpaceOnUse">
<stop stop-color="#4B5563"/>
<stop offset="1" stop-color="#1F2937"/>
</linearGradient>
<linearGradient id="paint1_linear_773_6899" x1="51.5" y1="35" x2="51.5" y2="67" gradientUnits="userSpaceOnUse">
<stop stop-color="#FDE68A"/>
<stop offset="1" stop-color="#D97706"/>
</linearGradient>
<linearGradient id="paint2_linear_773_6899" x1="51.5" y1="35" x2="51.5" y2="67" gradientUnits="userSpaceOnUse">
<stop stop-color="#FDE68A"/>
<stop offset="1" stop-color="#D97706"/>
</linearGradient>
<linearGradient id="paint3_linear_773_6899" x1="29.5" y1="13" x2="29.5" y2="45" gradientUnits="userSpaceOnUse">
<stop stop-color="#F3F4F6"/>
<stop offset="1" stop-color="#9CA3AF"/>
</linearGradient>
</defs>
</svg>
