<?xml version="1.0" encoding="UTF-8"?>
<svg width="130px" height="130px" viewBox="0 0 130 130" version="1.1" xmlns="http://www.w3.org/2000/svg" xmlns:xlink="http://www.w3.org/1999/xlink">
    <!-- Generator: Sketch 40.3 (33839) - http://www.bohemiancoding.com/sketch -->
    <title>albums copy 4</title>
    <desc>Created with Sketch.</desc>
    <defs>
        <path d="M64,0 C111.3344,0 128,16.6656 128,64 C128,111.3344 111.3344,128 64,128 C16.6656,128 0,111.3344 0,64 C0,16.6656 16.6656,0 64,0 L64,0 Z" id="path-1"></path>
        <mask id="mask-2" maskContentUnits="userSpaceOnUse" maskUnits="objectBoundingBox" x="-1" y="-1" width="130" height="130">
            <rect x="-1" y="-1" width="130" height="130" fill="white"></rect>
            <use xlink:href="#path-1" fill="black"></use>
        </mask>
        <linearGradient x1="50%" y1="0%" x2="50%" y2="100%" id="linearGradient-3">
            <stop stop-color="#FFFFFF" stop-opacity="0.2" offset="0%"></stop>
            <stop stop-color="#000000" stop-opacity="0.2" offset="100%"></stop>
        </linearGradient>
        <path d="M128,64 C128,111.3344 111.3344,128 64,128 C16.6656,128 0,111.3344 0,64 C0,16.6656 16.6656,0 64,0 C111.3344,0 128,16.6656 128,64 Z" id="path-4"></path>
        <mask id="mask-5" maskContentUnits="userSpaceOnUse" maskUnits="objectBoundingBox" x="-1" y="-1" width="130" height="130">
            <rect x="-1" y="-1" width="130" height="130" fill="white"></rect>
            <use xlink:href="#path-4" fill="black"></use>
        </mask>
    </defs>
    <g id="Page-1" stroke="none" stroke-width="1" fill="none" fill-rule="evenodd">
        <g id="albums-copy-4" transform="translate(1.000000, 1.000000)">
            <g id="Shape">
                <use fill="#AEE2FF" fill-rule="evenodd" xlink:href="#path-1"></use>
                <use stroke-opacity="0.3" stroke="#000000" mask="url(#mask-2)" stroke-width="2" xlink:href="#path-1"></use>
            </g>
            <path d="M82.6374252,66 L85.1902905,66 L85.8151177,71.2485482 L90.545952,73.2122907 L95.1339686,69.570441 L98.7044095,73.1408819 L95.0625598,77.7110463 L97.0263023,82.4418806 L102.27485,83.08456 L102.27485,88.2081427 L97.0263023,88.8329699 L95.0625598,93.5638042 L98.7044095,98.1339686 L95.1339686,101.70441 L90.5638042,98.0625598 L85.8329699,100.026302 L85.1902905,105.27485 L80.0667078,105.27485 L79.4418806,100.026302 L74.7110463,98.0625598 L70.1408819,101.70441 L66.570441,98.1339686 L70.2122907,93.5638042 L68.2485482,88.8329699 L63,88.1902905 L63,83.0667078 L68.2485482,82.4418806 L70.2122907,77.7110463 L66.570441,73.1408819 L70.1408819,69.570441 L74.7110463,73.2122907 L79.4418806,71.2485482 L80.08456,66 L82.6374252,66 L82.6374252,66 Z M82.6374252,80.2817638 C79.6739593,80.2817638 77.2817638,82.6739593 77.2817638,85.6374252 C77.2817638,88.6008912 79.6739593,90.9930867 82.6374252,90.9930867 C85.6008912,90.9930867 87.9930867,88.6008912 87.9930867,85.6374252 C87.9930867,82.6739593 85.6008912,80.2817638 82.6374252,80.2817638 L82.6374252,80.2817638 Z" id="Shape" stroke="#697677" stroke-width="3" fill="#7BBAE6" stroke-linecap="round" stroke-linejoin="round"></path>
            <path d="M49.5635276,23 L51.4201569,23 L53.2232296,30.6943003 L56.829375,31.6583193 L62.238593,25.8920572 L65.4698421,27.7486865 L63.1847599,35.3001691 L65.8268862,37.9422954 L73.3783688,35.6572132 L75.2528503,38.8884622 L69.5044404,44.2976803 L70.4684594,47.9038257 L78.1270553,49.7068983 L78.1270553,53.4201569 L70.432755,55.2232296 L69.4687359,58.829375 L75.2171459,64.238593 L73.3605166,67.4698421 L65.809034,65.1847599 L63.1669077,67.8268862 L65.4519899,75.3783688 L62.2207408,77.2528503 L56.8115228,71.4865882 L53.2053774,72.4506072 L51.4201569,80.1270553 L47.6890461,80.1270553 L45.8859734,72.432755 L42.2798281,71.4687359 L36.8884622,77.2349981 L33.6572132,75.3783688 L35.9422954,67.8268862 L33.3001691,65.1847599 L25.7486865,67.4519899 L23.8920572,64.238593 L29.6583193,58.829375 L28.6943003,55.2232296 L21,53.4201569 L21,49.6890461 L28.6943003,47.8859734 L29.6583193,44.2798281 L23.8920572,38.8884622 L25.7486865,35.6572132 L33.3180213,37.9422954 L35.9601476,35.3001691 L33.6750654,27.7486865 L36.9063144,25.8920572 L42.3155325,31.6583193 L45.9216779,30.6943003 L47.7068983,23 L49.5635276,23 L49.5635276,23 Z M49.5635276,40.8522048 C43.6544479,40.8522048 38.8522048,45.6365956 38.8522048,51.5635276 C38.8522048,57.4726074 43.6365956,62.2748505 49.5635276,62.2748505 C55.4726074,62.2748505 60.2748505,57.4726074 60.2748505,51.5635276 C60.2748505,45.6365956 55.4726074,40.8522048 49.5635276,40.8522048 L49.5635276,40.8522048 Z" id="Shape" stroke="#405162" stroke-width="3" fill="#8DBDB2" stroke-linecap="round" stroke-linejoin="round"></path>
            <g id="Group">
                <g id="Shape-Copy">
                    <use fill="url(#linearGradient-3)" fill-rule="evenodd" xlink:href="#path-4"></use>
                    <use stroke-opacity="0.5" stroke="#000000" mask="url(#mask-5)" stroke-width="2" xlink:href="#path-4"></use>
                </g>
            </g>
        </g>
    </g>
</svg>