<svg width="48" height="48" viewBox="0 0 48 48" fill="none" xmlns="http://www.w3.org/2000/svg">
<rect width="48" height="48" fill="url(#paint0_linear_376_1439)"/>
<path d="M31.2426 16.5935C33 18.187 33 20.7518 33 25.8811V28.1189C33 33.2483 33 35.813 31.2426 37.4066C29.4853 39 26.6568 39 21 39C15.3431 39 12.5147 39 10.7574 37.4066C9 35.813 9 33.2483 9 28.1189V25.8811C9 20.7518 9 18.187 10.7574 16.5935C12.5147 15 15.3431 15 21 15C26.6568 15 29.4853 15 31.2426 16.5935Z" stroke="white" stroke-width="2.25" stroke-linecap="round" stroke-linejoin="round"/>
<path d="M15.0996 15C15.2602 12.9182 15.6765 11.5726 16.7562 10.5935C18.5135 9 21.342 9 26.9988 9C32.6557 9 35.4841 9 37.2415 10.5935C38.9988 12.187 38.9988 14.7518 38.9988 19.8812V22.1189C38.9988 27.2483 38.9988 29.813 37.2415 31.4066C36.2617 32.2949 34.9489 32.688 32.9988 32.862" stroke="white" stroke-width="2.25" stroke-linecap="round" stroke-linejoin="round"/>
<path d="M21 21V33M27 27H15" stroke="white" stroke-width="2.25" stroke-linecap="round" stroke-linejoin="round"/>
<defs>
<linearGradient id="paint0_linear_376_1439" x1="24" y1="0" x2="24" y2="48" gradientUnits="userSpaceOnUse">
<stop stop-color="#71717A"/>
<stop offset="1" stop-color="#52525B"/>
</linearGradient>
</defs>
</svg>
