<svg width="81" height="80" viewBox="0 0 81 80" fill="none" xmlns="http://www.w3.org/2000/svg">
<rect width="80" height="80" transform="translate(0.5)" fill="url(#paint0_linear_655_2315)"/>
<g clip-path="url(#clip0_655_2315)">
<g filter="url(#filter0_d_655_2315)">
<path d="M19.0183 35.9487C20.478 36.6312 22.1022 37.3398 23.8363 38.0963L29.0637 40.3773C29.2907 40.4763 29.5148 40.5744 29.7363 40.6713L29.7407 40.6732L29.7499 40.6772C33.8458 42.4691 37.0348 43.8641 40.5 43.8641C43.9652 43.8641 47.1541 42.4691 51.2501 40.6773L51.2547 40.6752C51.4791 40.5771 51.7063 40.4777 51.9363 40.3773L57.1642 38.0961C58.8981 37.3397 60.5221 36.6312 61.9817 35.9487C62.5743 35.6716 63.27 35.683 63.8229 36.0326C65.6076 37.1607 66.5 38.2285 66.5 39.5462C66.5 42.2624 62.7076 43.9173 55.1231 47.2268L50.1981 49.3758C45.425 51.4586 43.0382 52.5 40.5 52.5C37.9618 52.5 35.575 51.4586 30.802 49.3758L25.877 47.2268C18.2922 43.9172 14.5 42.2625 14.5 39.5462C14.5 38.2285 15.3924 37.1607 17.1771 36.0325C17.73 35.683 18.4257 35.6716 19.0183 35.9487Z" fill="url(#paint1_linear_655_2315)"/>
<path d="M51.4548 41.1335L51.4551 41.1333C51.6795 41.0351 51.9065 40.9359 52.1363 40.8356L57.3641 38.5544L57.3642 38.5544L57.368 38.5527C59.0989 37.7976 60.728 37.0869 62.1935 36.4016C62.6497 36.1883 63.1629 36.2069 63.5558 36.4552C65.3116 37.565 66 38.5027 66 39.5462C66 40.6221 65.2673 41.5851 63.3937 42.7382C61.5349 43.8821 58.7307 45.1071 54.9231 46.7685L49.9981 48.9176C45.1857 51.0175 42.9096 52 40.5 52C38.0904 52 35.8143 51.0175 31.002 48.9176L26.077 46.7685L26.077 46.7685C22.2693 45.1071 19.4651 43.8821 17.6063 42.7382C15.7326 41.5851 15 40.6221 15 39.5462C15 38.5027 15.6884 37.565 17.4442 36.4552C17.8371 36.2069 18.3503 36.1883 18.8065 36.4016C20.2721 37.0869 21.9013 37.7976 23.6323 38.5528L23.6363 38.5546L23.6364 38.5546L28.8637 40.8356C29.0904 40.9345 29.3142 41.0324 29.5356 41.1292L29.5359 41.1294L29.5359 41.1294L29.5403 41.1313L29.7407 40.6732L29.5403 41.1313L29.5495 41.1353L29.7499 40.6772L29.5495 41.1353L29.6165 41.1646C33.6569 42.9322 36.93 44.3641 40.5 44.3641C44.07 44.3641 47.343 42.9322 51.3834 41.1647L51.4501 41.1355L51.4504 41.1354L51.4548 41.1335Z" stroke="url(#paint2_linear_655_2315)"/>
</g>
<g filter="url(#filter1_d_655_2315)">
<path d="M19.0183 48.4487C20.478 49.1312 22.1022 49.8398 23.8363 50.5963L29.0637 52.8773C29.2907 52.9763 29.5148 53.0744 29.7363 53.1713L29.7407 53.1732L29.7499 53.1772C33.8458 54.9691 37.0348 56.3641 40.5 56.3641C43.9652 56.3641 47.1541 54.9691 51.2501 53.1773L51.2547 53.1752C51.4791 53.0771 51.7063 52.9777 51.9363 52.8773L57.1642 50.5961C58.8981 49.8397 60.5221 49.1312 61.9817 48.4487C62.5743 48.1716 63.27 48.183 63.8229 48.5326C65.6076 49.6607 66.5 50.7285 66.5 52.0462C66.5 54.7624 62.7076 56.4173 55.1231 59.7268L50.1981 61.8758C45.425 63.9586 43.0382 65 40.5 65C37.9618 65 35.575 63.9586 30.802 61.8758L25.877 59.7268C18.2922 56.4172 14.5 54.7625 14.5 52.0462C14.5 50.7285 15.3924 49.6607 17.1771 48.5325C17.73 48.183 18.4257 48.1716 19.0183 48.4487Z" fill="url(#paint3_linear_655_2315)"/>
<path d="M51.4548 53.6335L51.4551 53.6333C51.6795 53.5351 51.9065 53.4359 52.1363 53.3356L57.3641 51.0544L57.3642 51.0544L57.368 51.0527C59.0989 50.2976 60.728 49.5869 62.1935 48.9016C62.6497 48.6883 63.1629 48.7069 63.5558 48.9552C65.3116 50.065 66 51.0027 66 52.0462C66 53.1221 65.2673 54.0851 63.3937 55.2382C61.5349 56.3821 58.7307 57.6071 54.9231 59.2685L49.9981 61.4176C45.1857 63.5175 42.9096 64.5 40.5 64.5C38.0904 64.5 35.8143 63.5175 31.002 61.4176L26.077 59.2685L26.077 59.2685C22.2693 57.6071 19.4651 56.3821 17.6063 55.2382C15.7326 54.0851 15 53.1221 15 52.0462C15 51.0027 15.6884 50.065 17.4442 48.9552C17.8371 48.7069 18.3503 48.6883 18.8065 48.9016C20.2721 49.5869 21.9013 50.2976 23.6323 51.0528L23.6363 51.0546L23.6364 51.0546L28.8637 53.3356C29.0904 53.4345 29.3142 53.5324 29.5356 53.6292L29.5359 53.6294L29.5359 53.6294L29.5403 53.6313L29.7407 53.1732L29.5403 53.6313L29.5495 53.6353L29.7499 53.1772L29.5495 53.6353L29.6165 53.6646C33.6569 55.4322 36.93 56.8641 40.5 56.8641C44.07 56.8641 47.343 55.4322 51.3834 53.6647L51.4501 53.6355L51.4504 53.6354L51.4548 53.6335Z" stroke="url(#paint4_linear_655_2315)"/>
</g>
<g filter="url(#filter2_d_655_2315)">
<path d="M50.1981 36.8647L55.1231 34.708C62.7077 31.3866 66.5 29.726 66.5 27C66.5 24.274 62.7077 22.6134 55.1231 19.292L50.1981 17.1353C45.425 15.0452 43.0382 14 40.5 14C37.9618 14 35.575 15.0452 30.802 17.1353L25.877 19.292C18.2922 22.6134 14.5 24.274 14.5 27C14.5 29.726 18.2922 31.3866 25.877 34.708L30.802 36.8647C35.575 38.9549 37.9618 40 40.5 40C43.0382 40 45.425 38.9549 50.1981 36.8647Z" fill="url(#paint5_linear_655_2315)"/>
<path d="M31.0026 36.4067L30.802 36.8647L31.0026 36.4067L26.0776 34.25L25.877 34.708L26.0776 34.25C22.2699 32.5826 19.4657 31.3533 17.607 30.2053C15.7339 29.0485 15 28.0816 15 27C15 25.9184 15.7339 24.9515 17.607 23.7947C19.4657 22.6467 22.2699 21.4174 26.0776 19.75L31.0026 17.5933C35.815 15.4859 38.0908 14.5 40.5 14.5C42.9092 14.5 45.185 15.4859 49.9975 17.5933L54.9225 19.75C58.7301 21.4174 61.5343 22.6467 63.393 23.7947C65.2661 24.9515 66 25.9184 66 27C66 28.0816 65.2661 29.0485 63.393 30.2053C61.5343 31.3533 58.7301 32.5826 54.9225 34.25L49.9975 36.4067C45.185 38.5142 42.9092 39.5 40.5 39.5C38.0908 39.5 35.815 38.5142 31.0026 36.4067Z" stroke="url(#paint6_linear_655_2315)"/>
</g>
</g>
<defs>
<filter id="filter0_d_655_2315" x="12.5" y="34.7543" width="56" height="20.7457" filterUnits="userSpaceOnUse" color-interpolation-filters="sRGB">
<feFlood flood-opacity="0" result="BackgroundImageFix"/>
<feColorMatrix in="SourceAlpha" type="matrix" values="0 0 0 0 0 0 0 0 0 0 0 0 0 0 0 0 0 0 127 0" result="hardAlpha"/>
<feOffset dy="1"/>
<feGaussianBlur stdDeviation="1"/>
<feComposite in2="hardAlpha" operator="out"/>
<feColorMatrix type="matrix" values="0 0 0 0 0 0 0 0 0 0 0 0 0 0 0 0 0 0 0.5 0"/>
<feBlend mode="normal" in2="BackgroundImageFix" result="effect1_dropShadow_655_2315"/>
<feBlend mode="normal" in="SourceGraphic" in2="effect1_dropShadow_655_2315" result="shape"/>
</filter>
<filter id="filter1_d_655_2315" x="12.5" y="47.2543" width="56" height="20.7457" filterUnits="userSpaceOnUse" color-interpolation-filters="sRGB">
<feFlood flood-opacity="0" result="BackgroundImageFix"/>
<feColorMatrix in="SourceAlpha" type="matrix" values="0 0 0 0 0 0 0 0 0 0 0 0 0 0 0 0 0 0 127 0" result="hardAlpha"/>
<feOffset dy="1"/>
<feGaussianBlur stdDeviation="1"/>
<feComposite in2="hardAlpha" operator="out"/>
<feColorMatrix type="matrix" values="0 0 0 0 0 0 0 0 0 0 0 0 0 0 0 0 0 0 0.5 0"/>
<feBlend mode="normal" in2="BackgroundImageFix" result="effect1_dropShadow_655_2315"/>
<feBlend mode="normal" in="SourceGraphic" in2="effect1_dropShadow_655_2315" result="shape"/>
</filter>
<filter id="filter2_d_655_2315" x="12.5" y="13" width="56" height="30" filterUnits="userSpaceOnUse" color-interpolation-filters="sRGB">
<feFlood flood-opacity="0" result="BackgroundImageFix"/>
<feColorMatrix in="SourceAlpha" type="matrix" values="0 0 0 0 0 0 0 0 0 0 0 0 0 0 0 0 0 0 127 0" result="hardAlpha"/>
<feOffset dy="1"/>
<feGaussianBlur stdDeviation="1"/>
<feComposite in2="hardAlpha" operator="out"/>
<feColorMatrix type="matrix" values="0 0 0 0 0 0 0 0 0 0 0 0 0 0 0 0 0 0 0.5 0"/>
<feBlend mode="normal" in2="BackgroundImageFix" result="effect1_dropShadow_655_2315"/>
<feBlend mode="normal" in="SourceGraphic" in2="effect1_dropShadow_655_2315" result="shape"/>
</filter>
<linearGradient id="paint0_linear_655_2315" x1="40" y1="0" x2="40" y2="80" gradientUnits="userSpaceOnUse">
<stop stop-color="#6B7280"/>
<stop offset="1" stop-color="#374151"/>
</linearGradient>
<linearGradient id="paint1_linear_655_2315" x1="40.5" y1="28.2116" x2="40.5" y2="52.5" gradientUnits="userSpaceOnUse">
<stop stop-color="#F3F4F6"/>
<stop offset="1" stop-color="#9CA3AF"/>
</linearGradient>
<linearGradient id="paint2_linear_655_2315" x1="40.5" y1="27.1321" x2="40.5" y2="52.5" gradientUnits="userSpaceOnUse">
<stop stop-color="white" stop-opacity="0.8"/>
<stop offset="1" stop-color="white" stop-opacity="0"/>
</linearGradient>
<linearGradient id="paint3_linear_655_2315" x1="40.5" y1="40.7116" x2="40.5" y2="65" gradientUnits="userSpaceOnUse">
<stop stop-color="#F3F4F6"/>
<stop offset="1" stop-color="#9CA3AF"/>
</linearGradient>
<linearGradient id="paint4_linear_655_2315" x1="40.5" y1="39.6321" x2="40.5" y2="65" gradientUnits="userSpaceOnUse">
<stop stop-color="white" stop-opacity="0.8"/>
<stop offset="1" stop-color="white" stop-opacity="0"/>
</linearGradient>
<linearGradient id="paint5_linear_655_2315" x1="40.5" y1="12.375" x2="40.5" y2="40" gradientUnits="userSpaceOnUse">
<stop stop-color="#FDE68A"/>
<stop offset="1" stop-color="#D97706"/>
</linearGradient>
<linearGradient id="paint6_linear_655_2315" x1="40.5" y1="14.5417" x2="40.5" y2="40" gradientUnits="userSpaceOnUse">
<stop stop-color="white" stop-opacity="0.8"/>
<stop offset="1" stop-color="white" stop-opacity="0"/>
</linearGradient>
<clipPath id="clip0_655_2315">
<rect width="56" height="56" fill="white" transform="translate(12.5 12)"/>
</clipPath>
</defs>
</svg>
