<svg width="81" height="80" viewBox="0 0 81 80" fill="none" xmlns="http://www.w3.org/2000/svg">
<rect width="80" height="80" transform="translate(0.5)" fill="url(#paint0_linear_773_6837)"/>
<g filter="url(#filter0_dd_773_6837)">
<path d="M19.0183 35.9487C20.478 36.6312 22.1022 37.3398 23.8363 38.0963L29.0637 40.3773C29.2907 40.4763 29.5148 40.5744 29.7363 40.6713L29.7407 40.6732L29.7499 40.6772C33.8458 42.4691 37.0348 43.8641 40.5 43.8641C43.9652 43.8641 47.1541 42.4691 51.2501 40.6773L51.2547 40.6752C51.4791 40.5771 51.7063 40.4777 51.9363 40.3773L57.1642 38.0961C58.8981 37.3397 60.5221 36.6312 61.9817 35.9487C62.5743 35.6716 63.27 35.683 63.8229 36.0326C65.6076 37.1607 66.5 38.2285 66.5 39.5462C66.5 42.2624 62.7076 43.9173 55.1231 47.2268L50.1981 49.3758C45.425 51.4586 43.0382 52.5 40.5 52.5C37.9618 52.5 35.575 51.4586 30.802 49.3758L25.877 47.2268C18.2922 43.9172 14.5 42.2625 14.5 39.5462C14.5 38.2285 15.3924 37.1607 17.1771 36.0325C17.73 35.683 18.4257 35.6716 19.0183 35.9487Z" fill="url(#paint1_linear_773_6837)"/>
<path d="M19.0183 48.4487C20.478 49.1312 22.1022 49.8398 23.8363 50.5963L29.0637 52.8773C29.2907 52.9763 29.5148 53.0744 29.7363 53.1713L29.7407 53.1732L29.7499 53.1772C33.8458 54.9691 37.0348 56.3641 40.5 56.3641C43.9652 56.3641 47.1541 54.9691 51.2501 53.1773L51.2547 53.1752C51.4791 53.0771 51.7063 52.9777 51.9363 52.8773L57.1642 50.5961C58.8981 49.8397 60.5221 49.1312 61.9817 48.4487C62.5743 48.1716 63.27 48.183 63.8229 48.5326C65.6076 49.6607 66.5 50.7285 66.5 52.0462C66.5 54.7624 62.7076 56.4173 55.1231 59.7268L50.1981 61.8758C45.425 63.9586 43.0382 65 40.5 65C37.9618 65 35.575 63.9586 30.802 61.8758L25.877 59.7268C18.2922 56.4172 14.5 54.7625 14.5 52.0462C14.5 50.7285 15.3924 49.6607 17.1771 48.5325C17.73 48.183 18.4257 48.1716 19.0183 48.4487Z" fill="url(#paint2_linear_773_6837)"/>
<path d="M50.1981 36.8647L55.1231 34.708C62.7077 31.3866 66.5 29.726 66.5 27C66.5 24.274 62.7077 22.6134 55.1231 19.292L50.1981 17.1353C45.425 15.0452 43.0382 14 40.5 14C37.9618 14 35.575 15.0452 30.802 17.1353L25.877 19.292C18.2922 22.6134 14.5 24.274 14.5 27C14.5 29.726 18.2922 31.3866 25.877 34.708L30.802 36.8647C35.575 38.9549 37.9618 40 40.5 40C43.0382 40 45.425 38.9549 50.1981 36.8647Z" fill="url(#paint3_linear_773_6837)"/>
</g>
<defs>
<filter id="filter0_dd_773_6837" x="10.5" y="12" width="60" height="60" filterUnits="userSpaceOnUse" color-interpolation-filters="sRGB">
<feFlood flood-opacity="0" result="BackgroundImageFix"/>
<feColorMatrix in="SourceAlpha" type="matrix" values="0 0 0 0 0 0 0 0 0 0 0 0 0 0 0 0 0 0 127 0" result="hardAlpha"/>
<feOffset dy="1"/>
<feComposite in2="hardAlpha" operator="out"/>
<feColorMatrix type="matrix" values="0 0 0 0 0 0 0 0 0 0 0 0 0 0 0 0 0 0 0.2 0"/>
<feBlend mode="normal" in2="BackgroundImageFix" result="effect1_dropShadow_773_6837"/>
<feColorMatrix in="SourceAlpha" type="matrix" values="0 0 0 0 0 0 0 0 0 0 0 0 0 0 0 0 0 0 127 0" result="hardAlpha"/>
<feOffset dy="2"/>
<feGaussianBlur stdDeviation="1"/>
<feComposite in2="hardAlpha" operator="out"/>
<feColorMatrix type="matrix" values="0 0 0 0 0 0 0 0 0 0 0 0 0 0 0 0 0 0 0.2 0"/>
<feBlend mode="normal" in2="effect1_dropShadow_773_6837" result="effect2_dropShadow_773_6837"/>
<feBlend mode="normal" in="SourceGraphic" in2="effect2_dropShadow_773_6837" result="shape"/>
</filter>
<linearGradient id="paint0_linear_773_6837" x1="40" y1="0" x2="40" y2="80" gradientUnits="userSpaceOnUse">
<stop stop-color="#4B5563"/>
<stop offset="1" stop-color="#1F2937"/>
</linearGradient>
<linearGradient id="paint1_linear_773_6837" x1="40.5" y1="28.2116" x2="40.5" y2="52.5" gradientUnits="userSpaceOnUse">
<stop stop-color="#F3F4F6"/>
<stop offset="1" stop-color="#9CA3AF"/>
</linearGradient>
<linearGradient id="paint2_linear_773_6837" x1="40.5" y1="40.7116" x2="40.5" y2="65" gradientUnits="userSpaceOnUse">
<stop stop-color="#F3F4F6"/>
<stop offset="1" stop-color="#9CA3AF"/>
</linearGradient>
<linearGradient id="paint3_linear_773_6837" x1="40.5" y1="12.375" x2="40.5" y2="40" gradientUnits="userSpaceOnUse">
<stop stop-color="#FDE68A"/>
<stop offset="1" stop-color="#D97706"/>
</linearGradient>
</defs>
</svg>
