<?xml version="1.0" encoding="UTF-8"?>
<svg width="606px" height="606px" viewBox="0 0 606 606" version="1.1" xmlns="http://www.w3.org/2000/svg" xmlns:xlink="http://www.w3.org/1999/xlink">
    <!-- Generator: Sketch 40.2 (33826) - http://www.bohemiancoding.com/sketch -->
    <title>apps market</title>
    <desc>Created with Sketch.</desc>
    <defs>
        <linearGradient x1="50%" y1="0%" x2="50%" y2="100%" id="linearGradient-1">
            <stop stop-color="#FFFFFF" stop-opacity="0.2" offset="0%"></stop>
            <stop stop-color="#000000" stop-opacity="0.2" offset="100%"></stop>
        </linearGradient>
        <path d="M552.268958,552.268958 C600,504.537813 600,431.458333 600,300 C600,168.541667 600,95.4621875 552.268958,47.7310417 C504.537813,0 431.458333,0 300,0 C168.541667,0 95.4621875,0 47.7310417,47.7310417 C0,95.4621875 0,168.541667 0,300 C0,431.458333 0,504.537813 47.7310417,552.268958 C95.4621875,600 168.541667,600 300,600 C431.458333,600 504.537813,600 552.268958,552.268958 Z" id="path-2"></path>
    </defs>
    <g id="Page-1" stroke="none" stroke-width="1" fill="none" fill-rule="evenodd">
        <g id="apps-market" transform="translate(3.000000, 3.000000)">
            <g id="Squircle2-Copy-6">
                <g id="Shape">
                    <use fill="#1DB291" xlink:href="#path-2"></use>
                    <use stroke="#000000" stroke-width="4.04" fill="url(#linearGradient-1)" xlink:href="#path-2"></use>
                </g>
            </g>
            <g id="close" opacity="0.9" transform="translate(100.000000, 101.000000)" fill="#FFFFFF">
                <g id="Capa_1-Copy">
                    <g id="Group">
                        <path d="M386.096779,52.0864603 C380.155566,35.0445591 366.86601,20.8950907 350.214978,14.093965 C348.104284,13.3122264 345.99359,12.4523139 343.882896,11.8269231 C341.615854,11.2797061 339.661507,10.6543152 337.159944,10.2634459 L333.407598,9.71622889 L331.531426,9.48170732 L330.20247,9.40353346 L327.622733,9.24718574 L326.371951,9.16901188 L324.339431,9.16901188 L300.652752,5.72601536 L220.290025,0.112462064 C165.881019,0.190635923 154.389462,9.40353346 100.136804,8.93449031 C90.5214196,8.85631645 75.3556911,11.5924015 70.5870857,13.4685741 C61.1280488,17.2990932 73.4013446,20.5042214 91.7722014,22.927611 C152.356942,30.9795184 150.921848,20.5954122 230.547836,26.3672608 L311.440744,32.6271509 L329.655253,35.9826454 C330.827861,36.1389931 331.531426,36.3735147 332.547686,36.4516886 C340.755941,38.0933396 348.729675,42.861945 354.045497,49.506723 C359.439493,56.2296748 362.253752,64.5942777 362.097405,73.1152283 L366.957496,106.761706 C372.750365,156.016173 372.750365,173.959506 372.750365,208.998476 C372.750365,231.513064 365.081324,287.030624 364.924976,309.544695 C364.924976,309.544695 359.283146,336.404784 358.345059,339.688086 C356.468887,347.270951 351.778455,354.15025 345.368199,358.684334 C342.163071,360.951376 338.645247,362.671201 334.892902,363.765635 C333.016729,364.312852 331.062383,364.625547 329.108036,364.938243 L326.13743,365.09459 C325.042996,365.172764 323.401345,365.09459 322.072389,365.172764 L287.206638,370.121455 C264.614392,370.355977 241.943973,370.590498 219.351728,370.82502 C196.915831,370.512324 174.558107,370.277803 152.12221,369.965107 L63.8641338,364.391026 C60.8153533,364.000156 59.2518762,363.452939 57.7665729,363.140244 C56.3594434,362.593027 54.8741401,362.202158 53.5451845,361.498593 C48.0730144,358.997029 43.3825829,354.853815 40.0211069,349.850688 C36.7378049,344.769387 30.0544543,339.062155 29.8981066,333.042768 L25.3461355,277.893323 C25.2679617,242.402391 25.7370048,223.684272 25.3461355,188.271514 C25.1116139,170.526048 25.5806571,139.367507 25.3461355,121.700215 L27.7874124,94.4561509 C27.7874124,94.4561509 32.2037211,69.3628831 32.3600688,68.6593183 C32.5164165,67.9557536 32.5945904,67.174015 32.6727642,66.4704503 C32.7509381,65.7668856 33.0636335,64.7506254 33.1418074,63.8907129 C33.2981551,63.0308005 33.5326767,62.1708881 33.8453721,61.3109756 C34.1580675,60.4510632 34.3144153,59.5911507 34.6271107,58.8094121 C35.7997186,55.5261101 37.5977173,52.5555034 39.3957161,49.8194184 C43.2262351,44.503596 47.9166667,40.3603815 52.3725766,37.4679487 C61.2062226,31.8394309 68.6327392,30.119606 67.2256098,26.3672608 C66.6002189,24.8819575 64.2550031,23.1621326 60.1899625,22.4585679 C56.1249218,21.5204816 50.2618824,21.6768293 43.3825829,23.8656973 C36.5814572,26.0545654 28.5295497,30.4323014 21.8847717,38.0933396 C15.1618199,45.6762039 9.8459975,56.2296748 8.75156348,69.2065353 L8.5170419,72.6461851 C8.5170419,72.6461851 2.84995152,116.188484 2.6936038,125.491173 C2.38090837,144.096551 0.42284777,165.119384 0.188326194,183.724763 C-0.358890817,220.93552 0.973778912,255.806995 1.05195277,293.017752 C1.05195277,293.017752 4.37710451,328.861886 4.45527837,331.050754 C4.61162608,333.395969 5.48114452,338.10173 5.95018767,340.446945 C7.20096941,349.827808 11.253127,357.902595 16.5689493,365.719981 C21.8847717,373.459193 28.9985929,380.025797 37.206848,384.638055 C39.2393684,385.810663 41.4282364,386.748749 43.5389306,387.765009 C45.7277986,388.546748 47.9166667,389.484834 50.1837086,390.110225 C52.5289243,390.657442 54.5614447,391.361007 57.2975297,391.673702 L61.1280488,392.220919 C62.4570044,392.377267 63.0823952,392.299093 64.0986554,392.377267 L67.5383052,392.533615 L70.3525641,392.533615 L75.9810819,392.455441 L146.782024,395.795913 C273.625682,398.503183 349.120544,387.37414 356.390713,383.309099 C370.931051,375.257192 382.109912,360.716854 385.862258,344.065822 C387.972952,333.746873 393.458435,300.945571 393.458435,300.945571 C393.692956,287.421493 399.608008,226.371374 399.116224,212.853942 C395.256433,106.761706 396.614072,157.583234 393.458435,100.683471 L389.927298,74.7568793 C389.692777,73.9751407 389.692777,73.1934021 389.614603,71.9426204 C389.458255,69.6755785 387.582083,56.3860225 386.096779,52.0864603 Z" id="Shape"></path>
                        <path d="M120.931051,255.573014 C119.91479,256.511101 120.30566,259.95075 121.165572,261.826923 C122.885397,265.501094 126.403221,266.517355 129.999218,266.361007 C141.803471,265.970138 151.731551,260.967011 160.01798,254.087711 C172.36945,243.690588 185.111789,233.684334 196.916041,222.66182 C196.994215,222.739994 197.150563,222.818168 197.228737,222.896341 C199.261257,225.397905 201.293777,227.899468 203.404472,230.322858 C216.850375,245.644934 230.92167,260.263446 247.494528,272.30222 C252.184959,275.74187 258.126173,276.601782 262.816604,271.207786 C267.116166,266.361007 267.58521,260.107098 263.989212,255.416667 C257.422608,246.97389 250.934178,238.374765 243.273139,230.948249 C233.892276,221.880081 223.964196,213.359131 214.11429,204.760006 C215.052376,203.665572 215.990463,202.649312 216.850375,201.554878 C219.351939,199.522358 221.853502,197.489837 224.276892,195.379143 C239.598968,181.93324 254.21748,167.861945 266.256254,151.289087 C269.695904,146.598655 270.555816,140.657442 265.16182,135.967011 C260.315041,131.667448 254.061132,131.198405 249.3707,134.794403 C240.927924,141.361007 232.328799,147.849437 224.902283,155.510475 C215.52142,165.204034 206.765947,175.366635 197.932301,185.529237 C182.453877,163.484209 160.877892,146.911351 143.132427,126.898843 C142.19434,125.882583 138.75469,126.273452 136.878518,127.133365 C133.204346,128.853189 132.188086,132.371013 132.344434,135.967011 C132.735303,147.771263 137.73843,157.699343 144.61773,165.985772 C155.093027,178.415416 165.177455,191.235929 176.278143,203.118355 C155.796592,218.362258 139.927298,238.687461 120.931051,255.573014 L120.931051,255.573014 Z" id="Shape" transform="translate(194.673977, 200.680856) rotate(-315.000000) translate(-194.673977, -200.680856) "></path>
                    </g>
                </g>
            </g>
        </g>
    </g>
</svg>