<?xml version="1.0" encoding="UTF-8"?>
<svg width="64px" height="64px" viewBox="0 0 64 64" version="1.1" xmlns="http://www.w3.org/2000/svg" xmlns:xlink="http://www.w3.org/1999/xlink">
    <!-- Generator: Sketch 54.1 (76490) - https://sketchapp.com -->
    <title>apps</title>
    <desc>Created with Sketch.</desc>
    <defs>
        <path d="M32,64 C46.0222222,64 53.8173667,64 58.9086889,58.9086889 C64,53.8173667 64,46.0222222 64,32 C64,17.9777778 64,10.1826333 58.9086889,5.09131111 C53.8173667,0 46.0222222,0 32,0 C17.9777778,0 10.1826333,0 5.09131111,5.09131111 C0,10.1826333 0,17.9777778 0,32 C0,46.0222222 0,53.8173667 5.09131111,58.9086889 C10.1826333,64 17.9777778,64 32,64 Z" id="path-1"></path>
        <linearGradient x1="50%" y1="0%" x2="50%" y2="100%" id="linearGradient-3">
            <stop stop-color="#FDFEFF" offset="0%"></stop>
            <stop stop-color="#FBFCFD" stop-opacity="0.9" offset="100%"></stop>
        </linearGradient>
        <path d="M18,50 C15.8090278,50 14.5910365,50 13.7955174,49.2044826 C13,48.4089635 13,47.1909722 13,45 C13,42.8090278 13,41.5910365 13.7955174,40.7955174 C14.5910365,40 15.8090278,40 18,40 C20.1909722,40 21.4089635,40 22.2044826,40.7955174 C23,41.5910365 23,42.8090278 23,45 C23,47.1909722 23,48.4089635 22.2044826,49.2044826 C21.4089635,50 20.1909722,50 18,50 Z M32,50 C29.8090278,50 28.5910365,50 27.7955174,49.2044826 C27,48.4089635 27,47.1909722 27,45 C27,42.8090278 27,41.5910365 27.7955174,40.7955174 C28.5910365,40 29.8090278,40 32,40 C34.1909722,40 35.4089635,40 36.2044826,40.7955174 C37,41.5910365 37,42.8090278 37,45 C37,47.1909722 37,48.4089635 36.2044826,49.2044826 C35.4089635,50 34.1909722,50 32,50 Z M46,50 C43.8090278,50 42.5910365,50 41.7955174,49.2044826 C41,48.4089635 41,47.1909722 41,45 C41,42.8090278 41,41.5910365 41.7955174,40.7955174 C42.5910365,40 43.8090278,40 46,40 C48.1909722,40 49.4089635,40 50.2044826,40.7955174 C51,41.5910365 51,42.8090278 51,45 C51,47.1909722 51,48.4089635 50.2044826,49.2044826 C49.4089635,50 48.1909722,50 46,50 Z M18,37 C15.8090278,37 14.5910365,37 13.7955174,36.2044826 C13,35.4089635 13,34.1909722 13,32 C13,29.8090278 13,28.5910365 13.7955174,27.7955174 C14.5910365,27 15.8090278,27 18,27 C20.1909722,27 21.4089635,27 22.2044826,27.7955174 C23,28.5910365 23,29.8090278 23,32 C23,34.1909722 23,35.4089635 22.2044826,36.2044826 C21.4089635,37 20.1909722,37 18,37 Z M32,37 C29.8090278,37 28.5910365,37 27.7955174,36.2044826 C27,35.4089635 27,34.1909722 27,32 C27,29.8090278 27,28.5910365 27.7955174,27.7955174 C28.5910365,27 29.8090278,27 32,27 C34.1909722,27 35.4089635,27 36.2044826,27.7955174 C37,28.5910365 37,29.8090278 37,32 C37,34.1909722 37,35.4089635 36.2044826,36.2044826 C35.4089635,37 34.1909722,37 32,37 Z M46,37 C43.8090278,37 42.5910365,37 41.7955174,36.2044826 C41,35.4089635 41,34.1909722 41,32 C41,29.8090278 41,28.5910365 41.7955174,27.7955174 C42.5910365,27 43.8090278,27 46,27 C48.1909722,27 49.4089635,27 50.2044826,27.7955174 C51,28.5910365 51,29.8090278 51,32 C51,34.1909722 51,35.4089635 50.2044826,36.2044826 C49.4089635,37 48.1909722,37 46,37 Z M18,24 C15.8090278,24 14.5910365,24 13.7955174,23.2044826 C13,22.4089635 13,21.1909722 13,19 C13,16.8090278 13,15.5910365 13.7955174,14.7955174 C14.5910365,14 15.8090278,14 18,14 C20.1909722,14 21.4089635,14 22.2044826,14.7955174 C23,15.5910365 23,16.8090278 23,19 C23,21.1909722 23,22.4089635 22.2044826,23.2044826 C21.4089635,24 20.1909722,24 18,24 Z M32,24 C29.8090278,24 28.5910365,24 27.7955174,23.2044826 C27,22.4089635 27,21.1909722 27,19 C27,16.8090278 27,15.5910365 27.7955174,14.7955174 C28.5910365,14 29.8090278,14 32,14 C34.1909722,14 35.4089635,14 36.2044826,14.7955174 C37,15.5910365 37,16.8090278 37,19 C37,21.1909722 37,22.4089635 36.2044826,23.2044826 C35.4089635,24 34.1909722,24 32,24 Z M46,24 C43.8090278,24 42.5910365,24 41.7955174,23.2044826 C41,22.4089635 41,21.1909722 41,19 C41,16.8090278 41,15.5910365 41.7955174,14.7955174 C42.5910365,14 43.8090278,14 46,14 C48.1909722,14 49.4089635,14 50.2044826,14.7955174 C51,15.5910365 51,16.8090278 51,19 C51,21.1909722 51,22.4089635 50.2044826,23.2044826 C49.4089635,24 48.1909722,24 46,24 Z" id="path-4"></path>
        <filter x="-5.3%" y="-2.8%" width="110.5%" height="111.1%" filterUnits="objectBoundingBox" id="filter-5">
            <feOffset dx="0" dy="1" in="SourceAlpha" result="shadowOffsetOuter1"></feOffset>
            <feGaussianBlur stdDeviation="0.5" in="shadowOffsetOuter1" result="shadowBlurOuter1"></feGaussianBlur>
            <feColorMatrix values="0 0 0 0 0   0 0 0 0 0   0 0 0 0 0  0 0 0 0.1 0" type="matrix" in="shadowBlurOuter1"></feColorMatrix>
        </filter>
    </defs>
    <g id="Page-1" stroke="none" stroke-width="1" fill="none" fill-rule="evenodd">
        <g id="Artboard" transform="translate(-664.000000, -348.000000)">
            <g id="apps" transform="translate(664.000000, 348.000000)">
                <mask id="mask-2" fill="white">
                    <use xlink:href="#path-1"></use>
                </mask>
                <use id="Path" fill="#FF3B38" xlink:href="#path-1"></use>
                <g id="Combined-Shape" fill-rule="nonzero" mask="url(#mask-2)">
                    <use fill="black" fill-opacity="1" filter="url(#filter-5)" xlink:href="#path-4"></use>
                    <use fill="url(#linearGradient-3)" xlink:href="#path-4"></use>
                </g>
            </g>
        </g>
    </g>
</svg>