<svg width="81" height="80" viewBox="0 0 81 80" fill="none" xmlns="http://www.w3.org/2000/svg">
<rect width="80" height="80" transform="translate(0.5)" fill="url(#paint0_linear_571_5868)"/>
<g filter="url(#filter0_dd_571_5868)">
<path fill-rule="evenodd" clip-rule="evenodd" d="M63.8636 24.5479L65.1799 26.8607C66.1129 28.5002 66.5793 29.3201 66.4889 30.1927C66.3983 31.0654 65.7738 31.7687 64.5247 33.1752L61.7751 36.2875C61.1034 37.1488 60.626 38.65 60.626 39.9997C60.626 41.35 61.1031 42.8506 61.7751 43.7122L64.5247 46.8245L64.526 46.826C65.7742 48.2317 66.3983 48.9346 66.4889 49.8072C66.5793 50.6798 66.1129 51.4996 65.1799 53.139L63.8623 55.4541C62.8677 57.2017 62.3702 58.0758 61.5236 58.4243C60.6767 58.7731 59.7188 58.498 57.8034 57.9474L54.5495 57.0194C53.3263 56.7338 52.0431 56.8961 50.9263 57.4771L50.0282 58.002C49.0706 58.623 48.3343 59.5383 47.9269 60.6145L47.0362 63.3078C46.4506 65.0898 46.1578 65.9807 45.4607 66.4905C44.7639 67 43.8381 67 41.9863 67H39.0135C37.1621 67 36.2362 67 35.5392 66.4905C34.8422 65.9807 34.5494 65.0898 33.9639 63.3078L33.0733 60.6145C32.6657 59.5383 31.9293 58.623 30.972 58.002L30.0737 57.4771C28.957 56.8961 27.6736 56.7338 26.4505 57.0194L23.1967 57.9474C21.2811 58.498 20.3233 58.7731 19.4764 58.4243C18.6297 58.0757 18.132 57.2012 17.1369 55.4528L15.8202 53.139C14.8871 51.4996 14.4205 50.6798 14.5111 49.8072C14.6016 48.9346 15.2258 48.2317 16.4741 46.8259L16.4754 46.8245L19.2249 43.7122C19.8969 42.8506 20.3739 41.35 20.3739 39.9997C20.3739 38.65 19.8968 37.1488 19.2248 36.2875L16.4754 33.1752C15.2263 31.7688 14.6016 31.0654 14.5111 30.1927C14.4205 29.3201 14.8871 28.5003 15.8202 26.8607L17.1364 24.5479C18.1318 22.7988 18.6296 21.9241 19.4764 21.5754C20.3233 21.2267 21.2811 21.5018 23.1966 22.0522L26.4506 22.9802C27.6735 23.2658 28.9566 23.1038 30.0733 22.5229L30.9716 21.9981C31.9292 21.3771 32.6657 20.4615 33.0734 19.3853L33.9639 16.6924C34.5494 14.9103 34.8422 14.0193 35.5392 13.5097C36.2362 13 37.1621 13 39.0135 13H41.9863C43.8381 13 44.7639 13 45.4607 13.5097C46.1578 14.0193 46.4506 14.9103 47.0362 16.6924L47.9266 19.3853C48.3343 20.4615 49.0709 21.3771 50.0285 21.9981L50.9268 22.5229C52.0434 23.1038 53.3266 23.2658 54.5495 22.9802L57.8034 22.0522C59.7188 21.5018 60.6767 21.2267 61.5236 21.5754C62.3704 21.9241 62.868 22.7984 63.863 24.5469L63.8636 24.5479ZM40.4999 54C48.232 54 54.5 47.732 54.5 40C54.5 32.268 48.232 26 40.4999 26C32.7679 26 26.5 32.268 26.5 40C26.5 47.732 32.7679 54 40.4999 54Z" fill="url(#paint1_linear_571_5868)"/>
<circle cx="40.5" cy="40" r="10" fill="url(#paint2_linear_571_5868)"/>
</g>
<defs>
<filter id="filter0_dd_571_5868" x="10.5" y="12" width="60" height="60" filterUnits="userSpaceOnUse" color-interpolation-filters="sRGB">
<feFlood flood-opacity="0" result="BackgroundImageFix"/>
<feColorMatrix in="SourceAlpha" type="matrix" values="0 0 0 0 0 0 0 0 0 0 0 0 0 0 0 0 0 0 127 0" result="hardAlpha"/>
<feOffset dy="1"/>
<feComposite in2="hardAlpha" operator="out"/>
<feColorMatrix type="matrix" values="0 0 0 0 0 0 0 0 0 0 0 0 0 0 0 0 0 0 0.2 0"/>
<feBlend mode="normal" in2="BackgroundImageFix" result="effect1_dropShadow_571_5868"/>
<feColorMatrix in="SourceAlpha" type="matrix" values="0 0 0 0 0 0 0 0 0 0 0 0 0 0 0 0 0 0 127 0" result="hardAlpha"/>
<feOffset dy="2"/>
<feGaussianBlur stdDeviation="1"/>
<feComposite in2="hardAlpha" operator="out"/>
<feColorMatrix type="matrix" values="0 0 0 0 0 0 0 0 0 0 0 0 0 0 0 0 0 0 0.2 0"/>
<feBlend mode="normal" in2="effect1_dropShadow_571_5868" result="effect2_dropShadow_571_5868"/>
<feBlend mode="normal" in="SourceGraphic" in2="effect2_dropShadow_571_5868" result="shape"/>
</filter>
<linearGradient id="paint0_linear_571_5868" x1="40" y1="0" x2="40" y2="80" gradientUnits="userSpaceOnUse">
<stop stop-color="#4B5563"/>
<stop offset="1" stop-color="#1F2937"/>
</linearGradient>
<linearGradient id="paint1_linear_571_5868" x1="40.5" y1="13" x2="40.5" y2="67" gradientUnits="userSpaceOnUse">
<stop stop-color="#F3F4F6"/>
<stop offset="1" stop-color="#9CA3AF"/>
</linearGradient>
<linearGradient id="paint2_linear_571_5868" x1="40.5" y1="30" x2="40.5" y2="50" gradientUnits="userSpaceOnUse">
<stop stop-color="#FDE68A"/>
<stop offset="1" stop-color="#D97706"/>
</linearGradient>
</defs>
</svg>
