<svg width="81" height="80" viewBox="0 0 81 80" fill="none" xmlns="http://www.w3.org/2000/svg">
<rect width="80" height="80" transform="translate(0.5)" fill="url(#paint0_linear_571_5868)"/>
<g filter="url(#filter0_d_571_5868)">
<mask id="path-1-inside-1_571_5868" fill="white">
<path fill-rule="evenodd" clip-rule="evenodd" d="M63.8636 24.5479L65.1799 26.8607C66.1129 28.5002 66.5793 29.3201 66.4889 30.1927C66.3983 31.0654 65.7738 31.7687 64.5247 33.1752L61.7751 36.2875C61.1034 37.1488 60.626 38.65 60.626 39.9997C60.626 41.35 61.1031 42.8506 61.7751 43.7122L64.5247 46.8245L64.526 46.826C65.7742 48.2317 66.3983 48.9346 66.4889 49.8072C66.5793 50.6798 66.1129 51.4996 65.1799 53.139L63.8636 55.4518L63.8623 55.4541C62.8677 57.2017 62.3702 58.0758 61.5236 58.4243C60.6767 58.7731 59.7188 58.498 57.8034 57.9474L54.5495 57.0194C53.3263 56.7338 52.0431 56.8961 50.9263 57.4771L50.0282 58.002C49.0706 58.623 48.3343 59.5383 47.9269 60.6145L47.0362 63.3078C46.4506 65.0898 46.1578 65.9807 45.4607 66.4905C44.7639 67 43.8381 67 41.9863 67H39.0135C37.1621 67 36.2362 67 35.5392 66.4905C34.8422 65.9807 34.5494 65.0898 33.9639 63.3078L33.0733 60.6145C32.6657 59.5383 31.9293 58.623 30.972 58.002L30.0737 57.4771C28.957 56.8961 27.6736 56.7338 26.4505 57.0194L23.1967 57.9474C21.2811 58.498 20.3233 58.7731 19.4764 58.4243C18.6297 58.0757 18.132 57.2012 17.1369 55.4528L17.1364 55.4518L15.8202 53.139L15.8201 53.1389C14.8871 51.4995 14.4205 50.6798 14.5111 49.8072C14.6016 48.9346 15.2258 48.2317 16.4741 46.8259L16.4754 46.8245L19.2249 43.7122C19.8969 42.8506 20.3739 41.35 20.3739 39.9997C20.3739 38.65 19.8968 37.1488 19.2248 36.2875L16.4754 33.1752L16.4753 33.1751C15.2262 31.7687 14.6016 31.0654 14.5111 30.1927C14.4205 29.3201 14.8871 28.5003 15.8202 26.8607L15.8202 26.8607L17.1364 24.5479L17.1365 24.5477C18.1319 22.7987 18.6296 21.9241 19.4764 21.5754C20.3233 21.2267 21.2811 21.5018 23.1966 22.0522L23.1966 22.0522L26.4506 22.9802C27.6735 23.2658 28.9566 23.1038 30.0733 22.5229L30.9716 21.9981C31.9292 21.3771 32.6657 20.4615 33.0734 19.3853L33.9639 16.6924C34.5494 14.9103 34.8422 14.0193 35.5392 13.5097C36.2362 13 37.1621 13 39.0135 13H41.9863C43.8381 13 44.7639 13 45.4607 13.5097C46.1578 14.0193 46.4506 14.9103 47.0362 16.6924L47.9266 19.3853C48.3343 20.4615 49.0709 21.3771 50.0285 21.9981L50.9268 22.5229C52.0434 23.1038 53.3266 23.2658 54.5495 22.9802L57.8034 22.0522C59.7188 21.5018 60.6767 21.2267 61.5236 21.5754C62.3704 21.9241 62.868 22.7984 63.863 24.5469L63.8636 24.5479ZM40.4999 54C48.232 54 54.5 47.732 54.5 40C54.5 32.268 48.232 26 40.4999 26C32.7679 26 26.5 32.268 26.5 40C26.5 47.732 32.7679 54 40.4999 54Z"/>
</mask>
<path fill-rule="evenodd" clip-rule="evenodd" d="M63.8636 24.5479L65.1799 26.8607C66.1129 28.5002 66.5793 29.3201 66.4889 30.1927C66.3983 31.0654 65.7738 31.7687 64.5247 33.1752L61.7751 36.2875C61.1034 37.1488 60.626 38.65 60.626 39.9997C60.626 41.35 61.1031 42.8506 61.7751 43.7122L64.5247 46.8245L64.526 46.826C65.7742 48.2317 66.3983 48.9346 66.4889 49.8072C66.5793 50.6798 66.1129 51.4996 65.1799 53.139L63.8636 55.4518L63.8623 55.4541C62.8677 57.2017 62.3702 58.0758 61.5236 58.4243C60.6767 58.7731 59.7188 58.498 57.8034 57.9474L54.5495 57.0194C53.3263 56.7338 52.0431 56.8961 50.9263 57.4771L50.0282 58.002C49.0706 58.623 48.3343 59.5383 47.9269 60.6145L47.0362 63.3078C46.4506 65.0898 46.1578 65.9807 45.4607 66.4905C44.7639 67 43.8381 67 41.9863 67H39.0135C37.1621 67 36.2362 67 35.5392 66.4905C34.8422 65.9807 34.5494 65.0898 33.9639 63.3078L33.0733 60.6145C32.6657 59.5383 31.9293 58.623 30.972 58.002L30.0737 57.4771C28.957 56.8961 27.6736 56.7338 26.4505 57.0194L23.1967 57.9474C21.2811 58.498 20.3233 58.7731 19.4764 58.4243C18.6297 58.0757 18.132 57.2012 17.1369 55.4528L17.1364 55.4518L15.8202 53.139L15.8201 53.1389C14.8871 51.4995 14.4205 50.6798 14.5111 49.8072C14.6016 48.9346 15.2258 48.2317 16.4741 46.8259L16.4754 46.8245L19.2249 43.7122C19.8969 42.8506 20.3739 41.35 20.3739 39.9997C20.3739 38.65 19.8968 37.1488 19.2248 36.2875L16.4754 33.1752L16.4753 33.1751C15.2262 31.7687 14.6016 31.0654 14.5111 30.1927C14.4205 29.3201 14.8871 28.5003 15.8202 26.8607L15.8202 26.8607L17.1364 24.5479L17.1365 24.5477C18.1319 22.7987 18.6296 21.9241 19.4764 21.5754C20.3233 21.2267 21.2811 21.5018 23.1966 22.0522L23.1966 22.0522L26.4506 22.9802C27.6735 23.2658 28.9566 23.1038 30.0733 22.5229L30.9716 21.9981C31.9292 21.3771 32.6657 20.4615 33.0734 19.3853L33.9639 16.6924C34.5494 14.9103 34.8422 14.0193 35.5392 13.5097C36.2362 13 37.1621 13 39.0135 13H41.9863C43.8381 13 44.7639 13 45.4607 13.5097C46.1578 14.0193 46.4506 14.9103 47.0362 16.6924L47.9266 19.3853C48.3343 20.4615 49.0709 21.3771 50.0285 21.9981L50.9268 22.5229C52.0434 23.1038 53.3266 23.2658 54.5495 22.9802L57.8034 22.0522C59.7188 21.5018 60.6767 21.2267 61.5236 21.5754C62.3704 21.9241 62.868 22.7984 63.863 24.5469L63.8636 24.5479ZM40.4999 54C48.232 54 54.5 47.732 54.5 40C54.5 32.268 48.232 26 40.4999 26C32.7679 26 26.5 32.268 26.5 40C26.5 47.732 32.7679 54 40.4999 54Z" fill="url(#paint1_linear_571_5868)"/>
<path d="M65.1799 26.8607L66.049 26.3661L66.049 26.3661L65.1799 26.8607ZM63.8636 24.5479L64.7327 24.0532L64.7319 24.0517L63.8636 24.5479ZM66.4889 30.1927L67.4836 30.2961L67.4836 30.2958L66.4889 30.1927ZM64.5247 33.1752L63.777 32.5112L63.7753 32.5132L64.5247 33.1752ZM61.7751 36.2875L61.0257 35.6254L61.0054 35.6483L60.9866 35.6725L61.7751 36.2875ZM61.7751 43.7122L60.9866 44.3272L61.0054 44.3514L61.0257 44.3743L61.7751 43.7122ZM64.5247 46.8245L63.7753 47.4866L63.7773 47.4889L64.5247 46.8245ZM64.526 46.826L65.2737 46.162L65.2734 46.1616L64.526 46.826ZM66.4889 49.8072L67.4836 49.7042L67.4836 49.7039L66.4889 49.8072ZM65.1799 53.139L64.3108 52.6444L64.3108 52.6444L65.1799 53.139ZM63.8636 55.4518L64.7327 55.9466L64.7327 55.9464L63.8636 55.4518ZM63.8623 55.4541L62.9933 54.9594L62.9932 54.9595L63.8623 55.4541ZM61.5236 58.4243L61.143 57.4995L61.1428 57.4996L61.5236 58.4243ZM57.8034 57.9474L58.0796 56.9863L58.0776 56.9858L57.8034 57.9474ZM54.5495 57.0194L54.8238 56.0578L54.8005 56.0512L54.7769 56.0457L54.5495 57.0194ZM50.9263 57.4771L50.4648 56.59L50.443 56.6013L50.4217 56.6137L50.9263 57.4771ZM50.0282 58.002L49.5236 57.1386L49.5036 57.1503L49.4841 57.163L50.0282 58.002ZM47.9269 60.6145L46.9916 60.2604L46.9841 60.2803L46.9774 60.3005L47.9269 60.6145ZM47.0362 63.3078L46.0868 62.9938L46.0862 62.9956L47.0362 63.3078ZM45.4607 66.4905L46.051 67.2977L46.051 67.2977L45.4607 66.4905ZM35.5392 66.4905L34.9488 67.2976L34.9491 67.2978L35.5392 66.4905ZM33.9639 63.3078L34.914 62.9956L34.9134 62.9938L33.9639 63.3078ZM33.0733 60.6145L34.0227 60.3005L34.016 60.2803L34.0085 60.2603L33.0733 60.6145ZM30.972 58.002L31.5162 57.163L31.4966 57.1503L31.4765 57.1386L30.972 58.002ZM30.0737 57.4771L30.5783 56.6137L30.5571 56.6013L30.5353 56.59L30.0737 57.4771ZM26.4505 57.0194L26.2231 56.0457L26.1995 56.0512L26.1762 56.0578L26.4505 57.0194ZM23.1967 57.9474L22.9224 56.9858L22.9205 56.9863L23.1967 57.9474ZM19.4764 58.4243L19.8573 57.4996L19.8571 57.4995L19.4764 58.4243ZM17.1369 55.4528L16.2676 55.9471L16.2678 55.9474L17.1369 55.4528ZM17.1364 55.4518L18.0056 54.9575L18.0055 54.9572L17.1364 55.4518ZM15.8202 53.139L16.6893 52.6444L16.6847 52.6364L16.68 52.6285L15.8202 53.139ZM15.8201 53.1389L14.951 53.6335L14.9556 53.6415L14.9603 53.6494L15.8201 53.1389ZM14.5111 49.8072L15.5057 49.9104L15.5058 49.9104L14.5111 49.8072ZM16.4741 46.8259L15.7277 46.1605L15.7264 46.1619L16.4741 46.8259ZM16.4754 46.8245L17.2218 47.49L17.2248 47.4866L16.4754 46.8245ZM19.2249 43.7122L19.9743 44.3743L19.9945 44.3514L20.0133 44.3273L19.2249 43.7122ZM19.2248 36.2875L20.0132 35.6723L19.9944 35.6483L19.9742 35.6254L19.2248 36.2875ZM16.4754 33.1752L15.7186 33.8291L15.7259 33.8373L16.4754 33.1752ZM16.4753 33.1751L17.232 32.5213L17.223 32.5111L16.4753 33.1751ZM14.5111 30.1927L15.5058 30.0896L15.5057 30.0895L14.5111 30.1927ZM15.8202 26.8607L16.6893 27.3554L16.6946 27.3458L15.8202 26.8607ZM15.8202 26.8607L14.951 26.366L14.9457 26.3756L15.8202 26.8607ZM17.1364 24.5479L16.2691 24.05L16.2673 24.0532L17.1364 24.5479ZM17.1365 24.5477L18.0037 25.0456L18.0056 25.0423L17.1365 24.5477ZM19.4764 21.5754L19.0957 20.6507L19.0956 20.6507L19.4764 21.5754ZM23.1966 22.0522L22.9204 23.0133L22.9269 23.0152L23.1966 22.0522ZM23.1966 22.0522L23.4709 21.0905L23.4663 21.0892L23.1966 22.0522ZM26.4506 22.9802L26.1763 23.9419L26.1996 23.9485L26.2232 23.954L26.4506 22.9802ZM30.0733 22.5229L30.5348 23.41L30.5565 23.3987L30.5777 23.3863L30.0733 22.5229ZM30.9716 21.9981L31.476 22.8615L31.4962 22.8498L31.5157 22.8371L30.9716 21.9981ZM33.0734 19.3853L34.0085 19.7396L34.0161 19.7196L34.0228 19.6993L33.0734 19.3853ZM33.9639 16.6924L34.9134 17.0064L34.914 17.0045L33.9639 16.6924ZM35.5392 13.5097L34.9489 12.7024L34.9489 12.7025L35.5392 13.5097ZM45.4607 13.5097L44.8704 14.3168L44.8705 14.3169L45.4607 13.5097ZM47.0362 16.6924L46.0862 17.0046L46.0867 17.0063L47.0362 16.6924ZM47.9266 19.3853L46.9771 19.6992L46.9839 19.7196L46.9915 19.7396L47.9266 19.3853ZM50.0285 21.9981L49.4844 22.8371L49.5039 22.8498L49.5241 22.8615L50.0285 21.9981ZM50.9268 22.5229L50.4225 23.3863L50.4436 23.3987L50.4653 23.41L50.9268 22.5229ZM54.5495 22.9802L54.7769 23.954L54.8005 23.9485L54.8238 23.9419L54.5495 22.9802ZM57.8034 22.0522L58.0776 23.0139L58.0795 23.0133L57.8034 22.0522ZM61.5236 21.5754L61.9044 20.6507L61.9044 20.6507L61.5236 21.5754ZM63.863 24.5469L62.9939 25.0415L62.9948 25.043L63.863 24.5469ZM66.049 26.3661L64.7327 24.0532L62.9945 25.0425L64.3108 27.3553L66.049 26.3661ZM67.4836 30.2958C67.5527 29.6292 67.3972 29.028 67.1377 28.4211C66.8882 27.8378 66.5042 27.166 66.049 26.3661L64.3108 27.3553C64.7886 28.195 65.1043 28.7528 65.2988 29.2075C65.4831 29.6385 65.5156 29.8836 65.4943 30.0897L67.4836 30.2958ZM65.2724 33.8393C65.8817 33.1532 66.3955 32.5768 66.7595 32.0586C67.1385 31.5189 67.4143 30.963 67.4836 30.2961L65.4943 30.0894C65.4729 30.2952 65.3911 30.5272 65.1229 30.909C64.8397 31.3122 64.4168 31.7908 63.777 32.5112L65.2724 33.8393ZM62.5245 36.9496L65.2741 33.8373L63.7753 32.5132L61.0257 35.6254L62.5245 36.9496ZM61.626 39.9997C61.626 38.8305 62.0529 37.5574 62.5636 36.9025L60.9866 35.6725C60.1539 36.7402 59.626 38.4694 59.626 39.9997H61.626ZM62.5636 43.0972C62.0526 42.4421 61.626 41.1695 61.626 39.9997H59.626C59.626 41.5305 60.1536 43.2592 60.9866 44.3272L62.5636 43.0972ZM65.2741 46.1624L62.5245 43.0501L61.0257 44.3743L63.7753 47.4866L65.2741 46.1624ZM65.2734 46.1616L65.2721 46.1601L63.7773 47.4889L63.7786 47.4903L65.2734 46.1616ZM67.4836 49.7039C67.4143 49.0371 67.1388 48.4813 66.7599 47.9418C66.3961 47.4237 65.8825 46.8476 65.2737 46.162L63.7782 47.4899C64.4176 48.21 64.8402 48.6882 65.1232 49.0912C65.3911 49.4727 65.4729 49.7047 65.4943 49.9105L67.4836 49.7039ZM66.049 53.6336C66.5042 52.8338 66.8882 52.162 67.1377 51.5788C67.3972 50.9719 67.5527 50.3707 67.4836 49.7042L65.4943 49.9102C65.5156 50.1163 65.4831 50.3614 65.2988 50.7923C65.1043 51.2469 64.7886 51.8048 64.3108 52.6444L66.049 53.6336ZM64.7327 55.9464L66.049 53.6336L64.3108 52.6444L62.9945 54.9572L64.7327 55.9464ZM64.7313 55.9489L64.7327 55.9466L62.9946 54.9571L62.9933 54.9594L64.7313 55.9489ZM61.9042 59.349C62.5599 59.0791 63.0288 58.6178 63.4422 58.0575C63.8401 57.5182 64.2461 56.8015 64.7314 55.9488L62.9932 54.9595C62.4839 55.8543 62.1439 56.4485 61.8328 56.8702C61.5371 57.271 61.3339 57.421 61.143 57.4995L61.9042 59.349ZM57.5271 58.9085C58.4612 59.177 59.2472 59.4046 59.9055 59.5104C60.591 59.6206 61.2475 59.6195 61.9045 59.3489L61.1428 57.4996C60.9528 57.5779 60.707 57.6136 60.2229 57.5358C59.7117 57.4536 59.061 57.2684 58.0796 56.9863L57.5271 58.9085ZM54.2752 57.9811L57.5291 58.9091L58.0776 56.9858L54.8238 56.0578L54.2752 57.9811ZM51.3879 58.3642C52.2934 57.8931 53.3323 57.7621 54.3221 57.9932L54.7769 56.0457C53.3204 55.7055 51.7928 55.899 50.4648 56.59L51.3879 58.3642ZM50.5328 58.8653L51.4309 58.3405L50.4217 56.6137L49.5236 57.1386L50.5328 58.8653ZM48.8621 60.9686C49.1948 60.0898 49.7949 59.3451 50.5723 58.841L49.4841 57.163C48.3463 57.9008 47.4739 58.9868 46.9916 60.2604L48.8621 60.9686ZM47.9856 63.6217L48.8763 60.9285L46.9774 60.3005L46.0868 62.9938L47.9856 63.6217ZM46.051 67.2977C46.5881 66.9049 46.9264 66.388 47.1992 65.7931C47.4617 65.2207 47.7005 64.4893 47.9862 63.6199L46.0862 62.9956C45.7862 63.9082 45.5859 64.5133 45.3813 64.9594C45.1871 65.3829 45.0304 65.5663 44.8704 65.6833L46.051 67.2977ZM41.9863 68C42.8888 68 43.6509 68.0016 44.2717 67.9297C44.9188 67.8547 45.5127 67.6913 46.051 67.2977L44.8705 65.6833C44.712 65.7992 44.4945 65.8905 44.0416 65.943C43.5623 65.9984 42.9356 66 41.9863 66V68ZM39.0135 68H41.9863V66H39.0135V68ZM34.9491 67.2978C35.4874 67.6913 36.0813 67.8547 36.7284 67.9297C37.3492 68.0016 38.1112 68 39.0135 68V66C38.0645 66 37.4378 65.9984 36.9585 65.943C36.5056 65.8905 36.288 65.7992 36.1292 65.6832L34.9491 67.2978ZM33.0139 63.6199C33.2995 64.4892 33.5383 65.2207 33.8008 65.793C34.0736 66.3879 34.4118 66.9049 34.9488 67.2976L36.1295 65.6834C35.9696 65.5664 35.813 65.3829 35.6188 64.9594C35.4142 64.5133 35.2138 63.9083 34.914 62.9956L33.0139 63.6199ZM32.1239 60.9285L33.0145 63.6217L34.9134 62.9938L34.0227 60.3005L32.1239 60.9285ZM30.4278 58.8409C31.205 59.3451 31.8052 60.0898 32.1381 60.9687L34.0085 60.2603C33.5261 58.9867 32.6537 57.9009 31.5162 57.163L30.4278 58.8409ZM29.5692 58.3405L30.4674 58.8654L31.4765 57.1386L30.5783 56.6137L29.5692 58.3405ZM26.6779 57.9932C27.6677 57.7621 28.7067 57.8931 29.6122 58.3642L30.5353 56.59C29.2072 55.899 27.6796 55.7055 26.2231 56.0457L26.6779 57.9932ZM23.471 58.9091L26.7247 57.9811L26.1762 56.0578L22.9224 56.9858L23.471 58.9091ZM19.0956 59.3489C19.7525 59.6195 20.409 59.6206 21.0945 59.5104C21.7528 59.4046 22.5388 59.177 23.4729 58.9085L22.9205 56.9863C21.939 57.2684 21.2883 57.4536 20.7771 57.5358C20.293 57.6136 20.0472 57.5779 19.8573 57.4996L19.0956 59.3489ZM16.2678 55.9474C16.7533 56.8005 17.1595 57.5176 17.5576 58.0571C17.971 58.6176 18.44 59.0791 19.0958 59.349L19.8571 57.4995C19.6661 57.4209 19.4629 57.2709 19.167 56.8698C18.8557 56.4479 18.5155 55.8534 18.006 54.9581L16.2678 55.9474ZM16.2671 55.9462L16.2676 55.9471L18.0062 54.9584L18.0056 54.9575L16.2671 55.9462ZM14.9511 53.6336L16.2672 55.9464L18.0055 54.9572L16.6893 52.6444L14.9511 53.6336ZM14.9603 53.6494L14.9603 53.6495L16.68 52.6285L16.68 52.6283L14.9603 53.6494ZM13.5164 49.704C13.4472 50.3706 13.6027 50.9719 13.8623 51.5788C14.1118 52.162 14.4958 52.8338 14.951 53.6335L16.6892 52.6442C16.2113 51.8046 15.8956 51.2469 15.7012 50.7923C15.5169 50.3613 15.4844 50.1164 15.5057 49.9104L13.5164 49.704ZM15.7264 46.1619C15.1175 46.8476 14.6039 47.4237 14.2401 47.9418C13.8612 48.4813 13.5856 49.0371 13.5164 49.704L15.5058 49.9104C15.5271 49.7046 15.6089 49.4727 15.8768 49.0912C16.1598 48.6882 16.5824 48.21 17.2218 47.4899L15.7264 46.1619ZM15.7289 46.1591L15.7277 46.1605L17.2206 47.4914L17.2218 47.49L15.7289 46.1591ZM18.4754 43.0501L15.7259 46.1624L17.2248 47.4866L19.9743 44.3743L18.4754 43.0501ZM19.3739 39.9997C19.3739 41.1696 18.9474 42.4421 18.4364 43.0972L20.0133 44.3273C20.8465 43.2592 21.3739 41.5304 21.3739 39.9997H19.3739ZM18.4364 36.9026C18.9472 37.5574 19.3739 38.8304 19.3739 39.9997H21.3739C21.3739 38.4696 20.8463 36.7402 20.0132 35.6723L18.4364 36.9026ZM15.7259 33.8373L18.4753 36.9496L19.9742 35.6254L17.2248 32.5132L15.7259 33.8373ZM15.7186 33.8289L15.7187 33.829L17.232 32.5215L17.232 32.5214L15.7186 33.8289ZM13.5164 30.2959C13.5856 30.9629 13.8614 31.5189 14.2404 32.0585C14.6044 32.5768 15.1183 33.1532 15.7276 33.8392L17.223 32.5111C16.5831 31.7907 16.1602 31.3122 15.877 30.909C15.6089 30.5272 15.5271 30.2952 15.5058 30.0896L13.5164 30.2959ZM14.951 26.3661C14.4958 27.166 14.1118 27.8378 13.8623 28.4211C13.6027 29.028 13.4472 29.6293 13.5164 30.296L15.5057 30.0895C15.4844 29.8835 15.5169 29.6385 15.7012 29.2075C15.8956 28.7529 16.2114 28.195 16.6893 27.3553L14.951 26.3661ZM14.9457 26.3756L14.9457 26.3757L16.6946 27.3458L16.6947 27.3457L14.9457 26.3756ZM16.2673 24.0532L14.9511 26.3661L16.6893 27.3553L18.0055 25.0425L16.2673 24.0532ZM16.2692 24.0498L16.2691 24.05L18.0036 25.0457L18.0037 25.0456L16.2692 24.0498ZM19.0956 20.6507C18.4399 20.9208 17.9709 21.3822 17.5574 21.9428C17.1593 22.4825 16.7531 23.1996 16.2674 24.0531L18.0056 25.0423C18.5153 24.1467 18.8556 23.5521 19.1669 23.1301C19.4628 22.7289 19.6661 22.5787 19.8572 22.5001L19.0956 20.6507ZM23.4727 21.0911C22.5386 20.8227 21.7527 20.5951 21.0945 20.4893C20.4091 20.3791 19.7526 20.3802 19.0957 20.6507L19.8572 22.5001C20.0471 22.4219 20.293 22.3861 20.777 22.464C21.2883 22.5461 21.939 22.7313 22.9204 23.0133L23.4727 21.0911ZM23.4663 21.0892L23.4662 21.0892L22.9269 23.0152L22.927 23.0152L23.4663 21.0892ZM26.7248 22.0185L23.4709 21.0906L22.9224 23.0139L26.1763 23.9419L26.7248 22.0185ZM29.6118 21.6357C28.7065 22.1067 27.6677 22.2375 26.678 22.0064L26.2232 23.954C27.6794 24.294 29.2067 24.1008 30.5348 23.41L29.6118 21.6357ZM30.4672 21.1346L29.5688 21.6594L30.5777 23.3863L31.476 22.8615L30.4672 21.1346ZM32.1382 19.0311C31.8053 19.9099 31.2048 20.6549 30.4275 21.159L31.5157 22.8371C32.6535 22.0992 33.5261 21.0131 34.0085 19.7396L32.1382 19.0311ZM33.0145 16.3784L32.1239 19.0713L34.0228 19.6993L34.9134 17.0064L33.0145 16.3784ZM34.9489 12.7025C34.4118 13.0952 34.0736 13.6121 33.8008 14.2071C33.5383 14.7794 33.2995 15.5109 33.0139 16.3802L34.914 17.0045C35.2138 16.0918 35.4142 15.4867 35.6188 15.0407C35.813 14.6171 35.9696 14.4337 36.1294 14.3168L34.9489 12.7025ZM39.0135 12C38.1112 12 37.3492 11.9984 36.7284 12.0703C36.0812 12.1453 35.4873 12.3088 34.9489 12.7024L36.1294 14.3169C36.2881 14.2009 36.5057 14.1095 36.9585 14.0571C37.4378 14.0016 38.0645 14 39.0135 14V12ZM41.9863 12H39.0135V14H41.9863V12ZM46.0511 12.7025C45.5128 12.3088 44.9189 12.1453 44.2717 12.0703C43.6509 11.9984 42.8888 12 41.9863 12V14C42.9356 14 43.5623 14.0016 44.0416 14.0571C44.4944 14.1095 44.7119 14.2008 44.8704 14.3168L46.0511 12.7025ZM47.9862 16.3802C47.7005 15.5109 47.4617 14.7794 47.1992 14.207C46.9264 13.6121 46.5881 13.0951 46.0509 12.7024L44.8705 14.3169C45.0304 14.4338 45.1871 14.6172 45.3813 15.0407C45.5859 15.4868 45.7862 16.0919 46.0862 17.0046L47.9862 16.3802ZM48.876 19.0714L47.9856 16.3785L46.0867 17.0063L46.9771 19.6992L48.876 19.0714ZM50.5725 21.159C49.7952 20.6549 49.1947 19.9099 48.8617 19.031L46.9915 19.7396C47.4739 21.0131 48.3465 22.0992 49.4844 22.8371L50.5725 21.159ZM51.4312 21.6594L50.5329 21.1346L49.5241 22.8615L50.4225 23.3863L51.4312 21.6594ZM54.3221 22.0064C53.3324 22.2375 52.2935 22.1067 51.3884 21.6357L50.4653 23.41C51.7932 24.1009 53.3208 24.294 54.7769 23.954L54.3221 22.0064ZM57.5291 21.0906L54.2752 22.0185L54.8238 23.9419L58.0776 23.0139L57.5291 21.0906ZM61.9044 20.6507C61.2474 20.3802 60.5909 20.3791 59.9055 20.4893C59.2472 20.5951 58.4613 20.8227 57.5272 21.0911L58.0795 23.0133C59.0609 22.7313 59.7116 22.5462 60.2229 22.464C60.707 22.3861 60.9529 22.4219 61.1429 22.5001L61.9044 20.6507ZM64.7322 24.0522C64.2466 23.199 63.8405 22.4821 63.4424 21.9426C63.029 21.3821 62.5601 20.9207 61.9044 20.6507L61.1429 22.5001C61.3339 22.5787 61.5372 22.7289 61.833 23.1298C62.1442 23.5518 62.4844 24.1462 62.9939 25.0415L64.7322 24.0522ZM64.7319 24.0517L64.7313 24.0507L62.9948 25.043L62.9954 25.044L64.7319 24.0517ZM53.5 40C53.5 47.1797 47.6797 53 40.4999 53V55C48.7843 55 55.5 48.2843 55.5 40H53.5ZM40.4999 27C47.6797 27 53.5 32.8203 53.5 40H55.5C55.5 31.7157 48.7843 25 40.4999 25V27ZM27.5 40C27.5 32.8203 33.3202 27 40.4999 27V25C32.2156 25 25.5 31.7157 25.5 40H27.5ZM40.4999 53C33.3202 53 27.5 47.1797 27.5 40H25.5C25.5 48.2843 32.2156 55 40.4999 55V53Z" fill="url(#paint2_linear_571_5868)" mask="url(#path-1-inside-1_571_5868)"/>
</g>
<g filter="url(#filter1_d_571_5868)">
<circle cx="40.5" cy="40" r="10" fill="url(#paint3_linear_571_5868)"/>
<circle cx="40.5" cy="40" r="9.5" stroke="url(#paint4_linear_571_5868)"/>
</g>
<defs>
<filter id="filter0_d_571_5868" x="12.5" y="12" width="56" height="58" filterUnits="userSpaceOnUse" color-interpolation-filters="sRGB">
<feFlood flood-opacity="0" result="BackgroundImageFix"/>
<feColorMatrix in="SourceAlpha" type="matrix" values="0 0 0 0 0 0 0 0 0 0 0 0 0 0 0 0 0 0 127 0" result="hardAlpha"/>
<feOffset dy="1"/>
<feGaussianBlur stdDeviation="1"/>
<feComposite in2="hardAlpha" operator="out"/>
<feColorMatrix type="matrix" values="0 0 0 0 0 0 0 0 0 0 0 0 0 0 0 0 0 0 0.5 0"/>
<feBlend mode="normal" in2="BackgroundImageFix" result="effect1_dropShadow_571_5868"/>
<feBlend mode="normal" in="SourceGraphic" in2="effect1_dropShadow_571_5868" result="shape"/>
</filter>
<filter id="filter1_d_571_5868" x="28.5" y="29" width="24" height="24" filterUnits="userSpaceOnUse" color-interpolation-filters="sRGB">
<feFlood flood-opacity="0" result="BackgroundImageFix"/>
<feColorMatrix in="SourceAlpha" type="matrix" values="0 0 0 0 0 0 0 0 0 0 0 0 0 0 0 0 0 0 127 0" result="hardAlpha"/>
<feOffset dy="1"/>
<feGaussianBlur stdDeviation="1"/>
<feComposite in2="hardAlpha" operator="out"/>
<feColorMatrix type="matrix" values="0 0 0 0 0 0 0 0 0 0 0 0 0 0 0 0 0 0 0.5 0"/>
<feBlend mode="normal" in2="BackgroundImageFix" result="effect1_dropShadow_571_5868"/>
<feBlend mode="normal" in="SourceGraphic" in2="effect1_dropShadow_571_5868" result="shape"/>
</filter>
<linearGradient id="paint0_linear_571_5868" x1="40" y1="0" x2="40" y2="80" gradientUnits="userSpaceOnUse">
<stop stop-color="#6B7280"/>
<stop offset="1" stop-color="#374151"/>
</linearGradient>
<linearGradient id="paint1_linear_571_5868" x1="40.5" y1="13" x2="40.5" y2="67" gradientUnits="userSpaceOnUse">
<stop stop-color="#F3F4F6"/>
<stop offset="1" stop-color="#9CA3AF"/>
</linearGradient>
<linearGradient id="paint2_linear_571_5868" x1="40.5" y1="13" x2="40.5" y2="67" gradientUnits="userSpaceOnUse">
<stop stop-color="white" stop-opacity="0.8"/>
<stop offset="1" stop-color="white" stop-opacity="0"/>
</linearGradient>
<linearGradient id="paint3_linear_571_5868" x1="40.5" y1="30" x2="40.5" y2="50" gradientUnits="userSpaceOnUse">
<stop stop-color="#FDE68A"/>
<stop offset="1" stop-color="#D97706"/>
</linearGradient>
<linearGradient id="paint4_linear_571_5868" x1="40.5" y1="30" x2="40.5" y2="50" gradientUnits="userSpaceOnUse">
<stop stop-color="white" stop-opacity="0.8"/>
<stop offset="1" stop-color="white" stop-opacity="0"/>
</linearGradient>
</defs>
</svg>
