<?xml version="1.0" encoding="UTF-8"?>
<svg width="606px" height="606px" viewBox="0 0 606 606" version="1.1" xmlns="http://www.w3.org/2000/svg" xmlns:xlink="http://www.w3.org/1999/xlink">
    <!-- Generator: Sketch 40.2 (33826) - http://www.bohemiancoding.com/sketch -->
    <title>apps-market</title>
    <desc>Created with Sketch.</desc>
    <defs>
        <linearGradient x1="50%" y1="0%" x2="50%" y2="100%" id="linearGradient-1">
            <stop stop-color="#FFFFFF" stop-opacity="0.2" offset="0%"></stop>
            <stop stop-color="#000000" stop-opacity="0.2" offset="100%"></stop>
        </linearGradient>
        <path d="M552.268958,552.268958 C600,504.537813 600,431.458333 600,300 C600,168.541667 600,95.4621875 552.268958,47.7310417 C504.537813,0 431.458333,0 300,0 C168.541667,0 95.4621875,0 47.7310417,47.7310417 C0,95.4621875 0,168.541667 0,300 C0,431.458333 0,504.537813 47.7310417,552.268958 C95.4621875,600 168.541667,600 300,600 C431.458333,600 504.537813,600 552.268958,552.268958 Z" id="path-2"></path>
    </defs>
    <g id="Page-1" stroke="none" stroke-width="1" fill="none" fill-rule="evenodd">
        <g id="apps-market" transform="translate(3.000000, 3.000000)">
            <g id="Squircle2-Copy-6">
                <g id="Shape">
                    <use fill="#FFFFFF" xlink:href="#path-2"></use>
                    <use stroke="#000000" stroke-width="4.04" fill="url(#linearGradient-1)" xlink:href="#path-2"></use>
                </g>
            </g>
            <g id="android-apps" transform="translate(140.000000, 140.000000)">
                <g id="Layer_1">
                    <g id="Icon">
                        <path d="M310.009535,320 C315.527117,320 320,315.527431 320,310.009535 L320,249.990465 C320,244.472883 315.527431,240 310.009535,240 L249.990465,240 C244.472883,240 240,244.472569 240,249.990465 L240,310.009535 C240,315.527117 244.472569,320 249.990465,320 L310.009535,320 Z" id="Path-Copy-6" fill="#F07371"></path>
                        <path d="M190.009535,320 C195.527117,320 200,315.527431 200,310.009535 L200,249.990465 C200,244.472883 195.527431,240 190.009535,240 L129.990465,240 C124.472883,240 120,244.472569 120,249.990465 L120,310.009535 C120,315.527117 124.472569,320 129.990465,320 L190.009535,320 Z" id="Path-Copy-7" fill="#30B698"></path>
                        <path d="M70.0095352,320 C75.5271165,320 80,315.527431 80,310.009535 L80,249.990465 C80,244.472883 75.5274312,240 70.0095352,240 L9.99046484,240 C4.47288346,240 0,244.472569 0,249.990465 L0,310.009535 C0,315.527117 4.47256878,320 9.99046484,320 L70.0095352,320 Z" id="Path-Copy-8" fill="#5496E4"></path>
                        <path d="M310.009535,200 C315.527117,200 320,195.527431 320,190.009535 L320,129.990465 C320,124.472883 315.527431,120 310.009535,120 L249.990465,120 C244.472883,120 240,124.472569 240,129.990465 L240,190.009535 C240,195.527117 244.472569,200 249.990465,200 L310.009535,200 Z" id="Path-Copy-3" fill="#31B799"></path>
                        <path d="M190.009535,200 C195.527117,200 200,195.527431 200,190.009535 L200,129.990465 C200,124.472883 195.527431,120 190.009535,120 L129.990465,120 C124.472883,120 120,124.472569 120,129.990465 L120,190.009535 C120,195.527117 124.472569,200 129.990465,200 L190.009535,200 Z" id="Path-Copy-4" fill="#595959"></path>
                        <path d="M70.0095352,200 C75.5271165,200 80,195.527431 80,190.009535 L80,129.990465 C80,124.472883 75.5274312,120 70.0095352,120 L9.99046484,120 C4.47288346,120 0,124.472569 0,129.990465 L0,190.009535 C0,195.527117 4.47256878,200 9.99046484,200 L70.0095352,200 Z" id="Path-Copy-5" fill="#F07371"></path>
                        <path d="M310.009535,80 C315.527117,80 320,75.5274312 320,70.0095352 L320,9.99046484 C320,4.47288346 315.527431,0 310.009535,0 L249.990465,0 C244.472883,0 240,4.47256878 240,9.99046484 L240,70.0095352 C240,75.5271165 244.472569,80 249.990465,80 L310.009535,80 Z" id="Path-Copy-2" fill="#5698E6"></path>
                        <path d="M190.009535,80 C195.527117,80 200,75.5274312 200,70.0095352 L200,9.99046484 C200,4.47288346 195.527431,0 190.009535,0 L129.990465,0 C124.472883,0 120,4.47256878 120,9.99046484 L120,70.0095352 C120,75.5271165 124.472569,80 129.990465,80 L190.009535,80 Z" id="Path-Copy" fill="#F07371"></path>
                        <path d="M70.0095352,80 C75.5271165,80 80,75.5274312 80,70.0095352 L80,9.99046484 C80,4.47288346 75.5274312,0 70.0095352,0 L9.99046484,0 C4.47288346,0 0,4.47256878 0,9.99046484 L0,70.0095352 C0,75.5271165 4.47256878,80 9.99046484,80 L70.0095352,80 Z" id="Path" fill="#31B799"></path>
                    </g>
                </g>
            </g>
        </g>
    </g>
</svg>