<?xml version="1.0" encoding="UTF-8"?>
<svg width="64px" height="64px" viewBox="0 0 64 64" version="1.1" xmlns="http://www.w3.org/2000/svg" xmlns:xlink="http://www.w3.org/1999/xlink">
    <!-- Generator: Sketch 54.1 (76490) - https://sketchapp.com -->
    <title>settings</title>
    <desc>Created with Sketch.</desc>
    <defs>
        <path d="M32,64 C46.0222222,64 53.8173667,64 58.9086889,58.9086889 C64,53.8173667 64,46.0222222 64,32 C64,17.9777778 64,10.1826333 58.9086889,5.09131111 C53.8173667,0 46.0222222,0 32,0 C17.9777778,0 10.1826333,0 5.09131111,5.09131111 C0,10.1826333 0,17.9777778 0,32 C0,46.0222222 0,53.8173667 5.09131111,58.9086889 C10.1826333,64 17.9777778,64 32,64 Z" id="path-1"></path>
        <linearGradient x1="50%" y1="0%" x2="50%" y2="100%" id="linearGradient-3">
            <stop stop-color="#FDFEFF" offset="0%"></stop>
            <stop stop-color="#FBFCFD" stop-opacity="0.9" offset="100%"></stop>
        </linearGradient>
        <path d="M34.2720803,22.8306381 L37.6989972,24.8144235 C38.0903714,25.0409552 38.2720264,25.5094218 38.1379765,25.9422433 C37.2477951,28.8165909 35.7279732,31.4133587 33.740223,33.5701275 C33.433839,33.9027476 32.9386071,33.9782237 32.5475247,33.7519012 L29.123181,31.7684384 C27.6824112,33.0064649 26.0259988,33.9669316 24.2373155,34.6014959 L24.2373155,38.5677763 C24.2373221,39.0208818 23.9240904,39.4134378 23.4832748,39.512774 C20.672328,40.1458369 17.6533506,40.1785788 14.7005538,39.5133385 C14.2590817,39.4139032 13.9444223,39.0217268 13.9444223,38.5679376 L13.9444223,34.6014959 C12.1557219,33.9669688 10.499303,33.0064982 9.05855673,31.7684384 L5.63421305,33.7519012 C5.24313065,33.9782237 4.74789876,33.9027476 4.44151473,33.5701275 C2.45384502,31.4133587 0.93394271,28.8165909 0.0437613158,25.9422433 C-0.0902885835,25.5095024 0.091366319,25.0410358 0.48274056,24.8144235 L3.90973789,22.8306381 C3.56552787,20.9593597 3.56552787,19.040721 3.90973789,17.1694425 L0.482820974,15.1856572 C0.0914467329,14.9591255 -0.0902081696,14.4906589 0.0438417297,14.0578374 C0.934023124,11.1834897 2.45384502,8.58672199 4.44159514,6.42995317 C4.74797917,6.09733301 5.24321106,6.02185697 5.63429347,6.24817943 L9.05863715,8.23164223 C10.499407,6.99361578 12.1558194,6.03314901 13.9445027,5.39858477 L13.9445027,1.43222369 C13.9444961,0.979118213 14.2577278,0.586562153 14.6985434,0.487226041 C17.5094902,-0.145836898 20.5284676,-0.178578752 23.4812644,0.486661526 C23.9227365,0.586096762 24.2373959,0.978273204 24.2373959,1.4320624 L24.2373959,5.39850413 C26.0260963,6.03303123 27.6825152,6.99350177 29.1232615,8.23156158 L32.5476051,6.24809878 C32.9386875,6.02177632 33.4339194,6.09725237 33.7403035,6.42987252 C35.7279732,8.58664134 37.2478755,11.1834091 38.1380569,14.0577567 C38.2721068,14.4904976 38.0904519,14.9589642 37.6990776,15.1855765 L34.2720803,17.1693619 C34.6162912,19.0406674 34.6162912,20.9593326 34.2720803,22.8306381 Z M25.5240176,20 C25.5240176,16.4425895 22.6381251,13.5484032 19.0909091,13.5484032 C15.543693,13.5484032 12.6578005,16.4425895 12.6578005,20 C12.6578005,23.5574105 15.543693,26.4515968 19.0909091,26.4515968 C22.6381251,26.4515968 25.5240176,23.5574105 25.5240176,20 Z" id="path-4"></path>
        <filter x="-5.2%" y="-2.5%" width="110.5%" height="110.0%" filterUnits="objectBoundingBox" id="filter-5">
            <feOffset dx="0" dy="1" in="SourceAlpha" result="shadowOffsetOuter1"></feOffset>
            <feGaussianBlur stdDeviation="0.5" in="shadowOffsetOuter1" result="shadowBlurOuter1"></feGaussianBlur>
            <feColorMatrix values="0 0 0 0 0   0 0 0 0 0   0 0 0 0 0  0 0 0 0.1 0" type="matrix" in="shadowBlurOuter1"></feColorMatrix>
        </filter>
    </defs>
    <g id="Page-1" stroke="none" stroke-width="1" fill="none" fill-rule="evenodd">
        <g id="Artboard" transform="translate(-907.000000, -348.000000)">
            <g id="settings" transform="translate(907.000000, 348.000000)">
                <mask id="mask-2" fill="white">
                    <use xlink:href="#path-1"></use>
                </mask>
                <use id="Path" fill="#FF3B38" xlink:href="#path-1"></use>
                <g id="cog" mask="url(#mask-2)" fill-rule="nonzero">
                    <g transform="translate(13.000000, 12.000000)" id="Shape">
                        <g>
                            <use fill="black" fill-opacity="1" filter="url(#filter-5)" xlink:href="#path-4"></use>
                            <use fill="url(#linearGradient-3)" xlink:href="#path-4"></use>
                        </g>
                    </g>
                </g>
            </g>
        </g>
    </g>
</svg>