<svg width="48" height="48" viewBox="0 0 48 48" fill="none" xmlns="http://www.w3.org/2000/svg">
<rect width="48" height="48" fill="url(#paint0_linear_214_1891)"/>
<path d="M37.9762 16.7121L37.2358 15.4272C36.6759 14.4554 36.396 13.9696 35.9196 13.7758C35.4432 13.5821 34.9044 13.735 33.8269 14.0407L31.9966 14.5563C31.3087 14.7149 30.5869 14.6249 29.9589 14.3022L29.4535 14.0106C28.9149 13.6656 28.5006 13.157 28.2712 12.5591L27.7704 11.063C27.441 10.073 27.2763 9.578 26.8842 9.29486C26.4922 9.01172 25.9714 9.01172 24.9298 9.01172H23.2576C22.2162 9.01172 21.6954 9.01172 21.3033 9.29486C20.9113 9.578 20.7466 10.073 20.4172 11.063L19.9163 12.5591C19.687 13.157 19.2727 13.6656 18.7341 14.0106L18.2287 14.3022C17.6006 14.6249 16.8789 14.7149 16.191 14.5563L14.3606 14.0407C13.2831 13.735 12.7444 13.5821 12.268 13.7758C11.7916 13.9696 11.5117 14.4554 10.9517 15.4272L10.2114 16.7121C9.68649 17.623 9.42405 18.0784 9.47499 18.5632C9.52591 19.0481 9.87724 19.4388 10.5799 20.2202L12.1264 21.9492C12.5044 22.4277 12.7728 23.2617 12.7728 24.0116C12.7728 24.7617 12.5045 25.5954 12.1265 26.0741L10.5799 27.8031C9.87724 28.5846 9.52593 28.9752 9.47499 29.4602C9.42405 29.945 9.68649 30.4004 10.2114 31.3112L10.9517 32.5961C11.5116 33.5678 11.7916 34.0538 12.268 34.2474C12.7444 34.4412 13.2831 34.2884 14.3607 33.9825L16.1909 33.467C16.8789 33.3083 17.6008 33.3984 18.229 33.7212L18.7342 34.0128C19.2728 34.3578 19.687 34.8663 19.9162 35.4642L20.4172 36.9605C20.7466 37.9505 20.9113 38.4455 21.3033 38.7287C21.6954 39.0117 22.2162 39.0117 23.2576 39.0117H24.9298C25.9714 39.0117 26.4922 39.0117 26.8842 38.7287C27.2763 38.4455 27.441 37.9505 27.7704 36.9605L28.2714 35.4642C28.5006 34.8663 28.9147 34.3578 29.4534 34.0128L29.9586 33.7212C30.5868 33.3984 31.3086 33.3083 31.9966 33.467L33.8269 33.9825C34.9044 34.2884 35.4432 34.4412 35.9196 34.2474C36.396 34.0538 36.6759 33.5678 37.2358 32.5961L37.9762 31.3112C38.5011 30.4004 38.7634 29.945 38.7126 29.4602C38.6616 28.9752 38.3103 28.5846 37.6077 27.8031L36.061 26.0741C35.683 25.5954 35.4147 24.7617 35.4147 24.0116C35.4147 23.2617 35.6832 22.4277 36.061 21.9492L37.6077 20.2202C38.3103 19.4388 38.6616 19.0481 38.7126 18.5632C38.7634 18.0784 38.5011 17.623 37.9762 16.7121Z" stroke="white" stroke-width="2.5" stroke-linecap="round"/>
<path d="M29.2793 24C29.2793 26.8995 26.9288 29.25 24.0293 29.25C21.1298 29.25 18.7793 26.8995 18.7793 24C18.7793 21.1005 21.1298 18.75 24.0293 18.75C26.9288 18.75 29.2793 21.1005 29.2793 24Z" stroke="white" stroke-width="2.5"/>
<defs>
<linearGradient id="paint0_linear_214_1891" x1="24" y1="0" x2="24" y2="48" gradientUnits="userSpaceOnUse">
<stop stop-color="#71717A"/>
<stop offset="1" stop-color="#52525B"/>
</linearGradient>
</defs>
</svg>
