<svg width="48" height="48" viewBox="0 0 48 48" fill="none" xmlns="http://www.w3.org/2000/svg">
<rect width="48" height="48" fill="url(#paint0_linear_221_2179)"/>
<path d="M33 9V21M39 15H27" stroke="white" stroke-width="2.25" stroke-linecap="round" stroke-linejoin="round"/>
<path d="M9 15C9 12.8998 9 11.8497 9.40872 11.0475C9.76826 10.3419 10.3419 9.76826 11.0475 9.40872C11.8497 9 12.8998 9 15 9C17.1002 9 18.1503 9 18.9525 9.40872C19.6581 9.76826 20.2317 10.3419 20.5913 11.0475C21 11.8497 21 12.8998 21 15C21 17.1002 21 18.1503 20.5913 18.9525C20.2317 19.6581 19.6581 20.2317 18.9525 20.5913C18.1503 21 17.1002 21 15 21C12.8998 21 11.8497 21 11.0475 20.5913C10.3419 20.2317 9.76826 19.6581 9.40872 18.9525C9 18.1503 9 17.1002 9 15Z" stroke="white" stroke-width="2.25"/>
<path d="M9 33C9 30.8999 9 29.8497 9.40872 29.0475C9.76826 28.3419 10.3419 27.7683 11.0475 27.4088C11.8497 27 12.8998 27 15 27C17.1002 27 18.1503 27 18.9525 27.4088C19.6581 27.7683 20.2317 28.3419 20.5913 29.0475C21 29.8497 21 30.8999 21 33C21 35.1001 21 36.1503 20.5913 36.9525C20.2317 37.6581 19.6581 38.2317 18.9525 38.5913C18.1503 39 17.1002 39 15 39C12.8998 39 11.8497 39 11.0475 38.5913C10.3419 38.2317 9.76826 37.6581 9.40872 36.9525C9 36.1503 9 35.1001 9 33Z" stroke="white" stroke-width="2.25"/>
<path d="M27 33C27 30.8999 27 29.8497 27.4088 29.0475C27.7683 28.3419 28.3419 27.7683 29.0475 27.4088C29.8497 27 30.8999 27 33 27C35.1001 27 36.1503 27 36.9525 27.4088C37.6581 27.7683 38.2317 28.3419 38.5913 29.0475C39 29.8497 39 30.8999 39 33C39 35.1001 39 36.1503 38.5913 36.9525C38.2317 37.6581 37.6581 38.2317 36.9525 38.5913C36.1503 39 35.1001 39 33 39C30.8999 39 29.8497 39 29.0475 38.5913C28.3419 38.2317 27.7683 37.6581 27.4088 36.9525C27 36.1503 27 35.1001 27 33Z" stroke="white" stroke-width="2.25"/>
<defs>
<linearGradient id="paint0_linear_221_2179" x1="24" y1="0" x2="24" y2="48" gradientUnits="userSpaceOnUse">
<stop stop-color="#71717A"/>
<stop offset="1" stop-color="#52525B"/>
</linearGradient>
</defs>
</svg>
