<?xml version="1.0" encoding="UTF-8"?>
<svg width="606px" height="606px" viewBox="0 0 606 606" version="1.1" xmlns="http://www.w3.org/2000/svg" xmlns:xlink="http://www.w3.org/1999/xlink">
    <!-- Generator: Sketch 40.2 (33826) - http://www.bohemiancoding.com/sketch -->
    <title>storage</title>
    <desc>Created with Sketch.</desc>
    <defs>
        <linearGradient x1="50%" y1="0%" x2="50%" y2="100%" id="linearGradient-1">
            <stop stop-color="#FFFFFF" stop-opacity="0.2" offset="0%"></stop>
            <stop stop-color="#000000" stop-opacity="0.2" offset="100%"></stop>
        </linearGradient>
        <path d="M552.268958,552.268958 C600,504.537813 600,431.458333 600,300 C600,168.541667 600,95.4621875 552.268958,47.7310417 C504.537813,0 431.458333,0 300,0 C168.541667,0 95.4621875,0 47.7310417,47.7310417 C0,95.4621875 0,168.541667 0,300 C0,431.458333 0,504.537813 47.7310417,552.268958 C95.4621875,600 168.541667,600 300,600 C431.458333,600 504.537813,600 552.268958,552.268958 Z" id="path-2"></path>
    </defs>
    <g id="Page-1" stroke="none" stroke-width="1" fill="none" fill-rule="evenodd">
        <g id="storage" transform="translate(3.000000, 3.000000)">
            <g id="Squircle2-Copy-6">
                <g id="Shape">
                    <use fill="#4A4A4A" xlink:href="#path-2"></use>
                    <use stroke="#000000" stroke-width="4.04" fill="url(#linearGradient-1)" xlink:href="#path-2"></use>
                </g>
            </g>
            <g id="folder" opacity="0.9" transform="translate(100.000000, 130.000000)" fill="#FFFFFF">
                <g id="Capa_1">
                    <path d="M67.9674797,0.38699187 L66.4227642,0.305691057 L66.0162602,0.305691057 L65.203252,0.305691057 L64.3902439,0.305691057 C62.195122,0.305691057 60.4878049,0.143089431 57.6422764,0.468292683 L53.7398374,0.874796748 L50.2439024,1.60650407 C47.804878,2.01300813 45.5284553,2.90731707 43.0894309,3.63902439 C33.7398374,6.97235772 25.1219512,12.9073171 18.2926829,20.4682927 C11.5447154,28.1918699 6.58536585,37.7853659 4.47154472,48.0292683 C4.06504065,50.6308943 3.41463415,53.2325203 3.33333333,55.8341463 L3.08943089,59.899187 L3.00813008,63.2325203 L2.76422764,76.3219512 C2.11382114,118.517073 1.54471545,160.712195 0.894308943,202.907317 L0,266.24065 L0,270.874797 L0.162601626,274.858537 C0.162601626,275.915447 0.487804878,278.110569 0.650406504,279.899187 C0.894308943,281.769106 1.13821138,283.639024 1.62601626,285.18374 C3.00813008,291.769106 5.6097561,298.110569 9.02439024,303.964228 C12.3577236,309.817886 16.6666667,315.102439 21.7073171,319.655285 C26.7479675,324.126829 32.3577236,328.110569 38.6178862,330.874797 C44.796748,333.639024 51.3821138,335.671545 58.2113821,336.403252 C59.9186992,336.647154 61.6260163,336.647154 63.2520325,336.809756 L65.7723577,336.972358 L67.804878,336.972358 L75.7723577,337.053659 L107.479675,337.297561 C128.617886,337.378862 149.837398,337.460163 170.97561,337.460163 C213.333333,337.460163 255.772358,337.21626 298.211382,336.484553 L329.674797,336.972358 L330.650407,336.972358 L331.138211,336.972358 L332.357724,336.972358 L334.308943,336.891057 L336.260163,336.809756 C336.910569,336.809756 337.479675,336.809756 338.536585,336.647154 C340.406504,336.403252 342.276423,336.15935 344.146341,335.915447 C345.934959,335.590244 347.479675,335.18374 349.186992,334.777236 C355.691057,332.988618 362.113821,330.386992 367.804878,326.647154 C376.99187,320.956098 384.552846,312.826016 390,303.476423 C395.528455,294.126829 398.455285,283.313821 398.943089,272.500813 L399.02439,270.468293 L399.02439,268.842276 L399.02439,265.752846 L399.105691,259.492683 L399.186992,246.972358 L399.349593,222.013008 C399.430894,188.679675 399.430894,155.427642 399.512195,122.17561 C399.430894,114.452033 400.081301,104.289431 396.666667,92.8260163 C393.658537,82.2569106 387.804878,72.6634146 380.243902,64.8585366 C372.682927,56.9723577 363.170732,51.2 352.845528,47.704065 C350.325203,46.8097561 347.560976,46.2406504 344.95935,45.5902439 C342.276423,45.1837398 339.593496,44.695935 336.910569,44.5333333 C330.97561,44.2081301 327.398374,44.3707317 323.170732,44.3707317 C306.585366,44.6146341 289.918699,44.8585366 273.333333,45.102439 L248.455285,45.5902439 L242.276423,45.7528455 L239.186992,45.8341463 L238.780488,45.8341463 L238.699187,45.8341463 L238.536585,45.8341463 L238.292683,45.8341463 L236.747967,45.7528455 C235.772358,45.6715447 234.552846,45.7528455 233.821138,45.6715447 C233.252033,45.5902439 232.601626,45.5089431 232.03252,45.4276423 C230.894309,45.4276423 229.268293,44.8585366 227.804878,44.6146341 C221.138211,42.8260163 215.121951,39.4926829 210.406504,35.4276423 C205.691057,31.3626016 202.113821,26.6471545 199.593496,22.4195122 C196.99187,18.1918699 195.203252,14.2894309 193.658537,11.6878049 C192.113821,9.08617886 190.406504,7.62276423 188.617886,8.35447154 C187.073171,8.92357724 185.447154,11.1186992 184.471545,14.7772358 C180.813008,12.9886179 173.252033,11.3626016 163.902439,9.9804878 C135.528455,5.75284553 104.065041,2.74471545 70.9756098,0.712195122 L67.9674797,0.38699187 L67.9674797,0.38699187 Z M156.178862,24.5333333 C165.203252,24.6146341 179.268293,21.8504065 183.821138,19.8178862 C183.658537,22.9073171 183.821138,26.5658537 184.796748,30.7934959 C186.422764,37.297561 189.837398,45.102439 196.260163,52.0943089 C202.601626,59.0861789 211.626016,65.5902439 223.00813,68.598374 C224.308943,68.9235772 225.447154,69.3300813 226.910569,69.5739837 L231.138211,70.3056911 C231.788618,70.3869919 232.601626,70.5495935 233.170732,70.6308943 L234.796748,70.7121951 L238.04878,70.9560976 L251.626016,71.2813008 C260.325203,71.4439024 269.02439,71.6065041 277.723577,71.7691057 C295.121951,72.0943089 312.601626,72.4195122 330.081301,72.6634146 C331.300813,72.6634146 332.113821,72.7447154 332.845528,72.8260163 L335.284553,72.9886179 C336.910569,73.3138211 338.536585,73.4764228 340.081301,73.8829268 C343.252033,74.6146341 346.341463,75.9154472 349.186992,77.3788618 C354.95935,80.4682927 359.837398,85.102439 363.414634,90.4682927 C365.04065,93.2325203 366.666667,96.0780488 367.560976,99.1674797 C368.211382,100.630894 368.373984,102.256911 368.861789,103.801626 L369.186992,105.834146 C369.268293,106.484553 369.512195,106.972358 369.512195,108.273171 L369.674797,111.525203 L369.674797,112.013008 L369.674797,112.013008 L369.674797,112.419512 L369.674797,114.045528 L369.674797,120.549593 L369.674797,133.639024 L370.081301,217.785366 L370.406504,259.817886 L370.487805,270.22439 L370.325203,274.20813 C370.081301,275.508943 370,276.809756 369.756098,278.110569 C368.699187,283.313821 366.585366,288.273171 363.577236,292.744715 C360.569106,297.134959 356.585366,300.956098 352.03252,303.801626 C350.894309,304.533333 349.756098,305.265041 348.536585,305.752846 C347.317073,306.403252 346.097561,306.891057 344.878049,307.378862 C343.658537,307.947967 342.357724,308.273171 341.056911,308.598374 C339.674797,309.004878 338.536585,309.16748 337.479675,309.411382 C336.829268,309.492683 336.504065,309.655285 335.609756,309.736585 L333.00813,309.899187 L330.97561,309.980488 L328.373984,309.980488 L317.886179,310.061789 L296.829268,310.305691 L212.682927,311.2 C187.560976,310.061789 162.357724,309.086179 137.073171,308.354472 C112.276423,307.704065 87.398374,307.053659 62.5203252,306.484553 C53.5772358,305.427642 45.203252,301.037398 39.2682927,294.370732 C36.3414634,291.037398 33.9837398,287.21626 32.3577236,283.069919 C31.5447154,281.037398 30.9756098,278.760976 30.5691057,276.809756 C30.4878049,275.915447 30.3252033,275.18374 30.1626016,274.20813 L29.9186992,269.411382 L30.1626016,193.801626 C30.1626016,168.273171 30.0813008,142.826016 30.0813008,117.297561 L30.0813008,79.4113821 L30,60.3056911 C30,55.6715447 30.8130081,51.4439024 32.3577236,47.297561 C35.4471545,39.0861789 41.7886179,32.0130081 49.6747967,28.0292683 C51.6260163,26.9723577 53.6585366,26.2406504 55.7723577,25.5902439 C56.8292683,25.3463415 57.9674797,25.0211382 58.8617886,24.8585366 C59.7560976,24.7772358 60.4878049,24.6146341 61.4634146,24.3707317 L66.2601626,24.1268293 L70.2439024,24.1268293 L79.8373984,24.1268293 C105.284553,24.2081301 130.731707,24.3707317 156.178862,24.5333333 L156.178862,24.5333333 Z" id="Shape"></path>
                </g>
            </g>
        </g>
    </g>
</svg>