<svg width="96" height="96" viewBox="0 0 96 96" fill="none" xmlns="http://www.w3.org/2000/svg">
<g clip-path="url(#clip0_69_265)">
<path d="M80 0H16C7.16344 0 0 7.16344 0 16V80C0 88.8366 7.16344 96 16 96H80C88.8366 96 96 88.8366 96 80V16C96 7.16344 88.8366 0 80 0Z" fill="url(#paint0_linear_69_265)"/>
<path d="M47.9954 33.3188C45.0926 33.3188 42.255 34.1796 39.8416 35.7922C37.428 37.405 35.5468 39.697 34.436 42.379C33.3252 45.0608 33.0344 48.0116 33.6008 50.8586C34.167 53.7056 35.5648 56.3208 37.6174 58.3734C39.67 60.426 42.2852 61.8238 45.1322 62.39C47.9792 62.9564 50.9302 62.6658 53.612 61.5548C56.2938 60.444 58.586 58.5628 60.1986 56.1494C61.8112 53.7358 62.672 50.8982 62.672 47.9954C62.668 44.1042 61.1204 40.3734 58.3688 37.622C55.6174 34.8704 51.8866 33.3228 47.9954 33.3188ZM47.9954 57.7798C46.0602 57.7798 44.1686 57.206 42.5594 56.1308C40.9504 55.0558 39.6964 53.5276 38.9558 51.7398C38.2152 49.9518 38.0214 47.9846 38.399 46.0866C38.7766 44.1886 39.7084 42.4452 41.0768 41.0768C42.4452 39.7084 44.1886 38.7766 46.0866 38.399C47.9846 38.0214 49.9518 38.2152 51.7398 38.9558C53.5276 39.6964 55.0558 40.9504 56.1308 42.5594C57.206 44.1686 57.7798 46.0602 57.7798 47.9954C57.7798 50.5904 56.749 53.0792 54.914 54.914C53.0792 56.749 50.5904 57.7798 47.9954 57.7798ZM74.9026 48.6558C74.9148 48.2156 74.9148 47.7752 74.9026 47.335L79.4646 41.6356C79.7038 41.3362 79.8694 40.985 79.948 40.61C80.0266 40.2352 80.016 39.847 79.9172 39.4768C79.1692 36.6656 78.0506 33.9666 76.5904 31.4506C76.3992 31.1214 76.1338 30.8412 75.8154 30.6326C75.4968 30.424 75.134 30.2926 74.7558 30.249L67.5032 29.4416C67.2014 29.1236 66.8956 28.818 66.5858 28.5244L65.7296 21.2534C65.6856 20.8748 65.5538 20.5118 65.3446 20.1934C65.1354 19.8748 64.8548 19.6096 64.525 19.4188C62.008 17.9613 59.3092 16.8437 56.4986 16.0951C56.1284 15.9967 55.74 15.9866 55.365 16.0657C54.9902 16.1449 54.639 16.311 54.34 16.5507L48.6558 21.0882C48.2156 21.0882 47.7752 21.0882 47.335 21.0882L41.6356 16.5354C41.3362 16.2962 40.985 16.1306 40.61 16.052C40.2352 15.9734 39.847 15.984 39.4768 16.0829C36.6662 16.8321 33.9672 17.9507 31.4506 19.4096C31.1214 19.6008 30.8412 19.8662 30.6326 20.1846C30.424 20.5032 30.2926 20.866 30.249 21.2442L29.4416 28.5092C29.1236 28.8128 28.818 29.1186 28.5244 29.4264L21.2534 30.2612C20.8748 30.3052 20.5118 30.437 20.1934 30.6462C19.8748 30.8554 19.6096 31.136 19.4188 31.4658C17.9613 33.9828 16.8437 36.6816 16.0951 39.4922C15.9967 39.8624 15.9866 40.2508 16.0657 40.6258C16.1449 41.0008 16.311 41.3518 16.5507 41.6508L21.0882 47.335C21.0882 47.7752 21.0882 48.2156 21.0882 48.6558L16.5354 54.3552C16.2962 54.6546 16.1306 55.0058 16.052 55.3808C15.9734 55.7556 15.984 56.1438 16.0829 56.514C16.8308 59.3252 17.9495 62.0242 19.4096 64.5402C19.6008 64.8696 19.8662 65.1496 20.1846 65.3582C20.5032 65.5668 20.866 65.6982 21.2442 65.742L28.4968 66.5492C28.8006 66.8672 29.1064 67.1728 29.4142 67.4664L30.2612 74.7374C30.3052 75.116 30.437 75.479 30.6462 75.7974C30.8554 76.116 31.136 76.3812 31.4658 76.572C33.9828 78.0294 36.6816 79.147 39.4922 79.8958C39.8624 79.9942 40.2508 80.0042 40.6258 79.9252C41.0008 79.846 41.3518 79.6798 41.6508 79.4402L47.335 74.9026C47.7752 74.9148 48.2156 74.9148 48.6558 74.9026L54.3552 79.4646C54.6546 79.7038 55.0058 79.8694 55.3808 79.948C55.7556 80.0266 56.1438 80.016 56.514 79.9172C59.3252 79.1692 62.0242 78.0506 64.5402 76.5904C64.8696 76.3992 65.1496 76.1338 65.3582 75.8154C65.5668 75.4968 65.6982 75.134 65.742 74.7558L66.5492 67.5032C66.8672 67.2014 67.1728 66.8956 67.4664 66.5858L74.7374 65.7296C75.116 65.6856 75.479 65.5538 75.7974 65.3446C76.116 65.1354 76.3812 64.8548 76.572 64.525C78.0294 62.008 79.147 59.3092 79.8958 56.4986C79.9942 56.1284 80.0042 55.74 79.9252 55.365C79.846 54.9902 79.6798 54.639 79.4402 54.34L74.9026 48.6558ZM69.9798 46.6684C70.0318 47.5524 70.0318 48.4386 69.9798 49.3224C69.9434 49.9276 70.133 50.5248 70.5118 50.998L74.8506 56.4192C74.3528 58.0014 73.7152 59.5362 72.9458 61.0056L66.0354 61.7884C65.4336 61.8552 64.878 62.1428 64.476 62.5956C63.8874 63.2576 63.2606 63.8844 62.5986 64.473C62.1458 64.875 61.8582 65.4306 61.7914 66.0324L61.024 72.9366C59.5548 73.7064 58.02 74.344 56.4376 74.8414L51.0132 70.5026C50.5792 70.1558 50.04 69.9672 49.4844 69.9676H49.3378C48.4538 70.0196 47.5676 70.0196 46.6836 69.9676C46.0786 69.9312 45.4814 70.1208 45.0082 70.4996L39.5716 74.8414C37.9894 74.3436 36.4546 73.7062 34.9852 72.9366L34.2024 66.0354C34.1356 65.4336 33.848 64.878 33.3952 64.476C32.7332 63.8874 32.1064 63.2606 31.5178 62.5986C31.1158 62.1458 30.5602 61.8582 29.9584 61.7914L23.0542 61.021C22.2844 59.5518 21.6468 58.0168 21.1494 56.4344L25.4882 51.0102C25.867 50.537 26.0566 49.9398 26.0202 49.3346C25.9682 48.4508 25.9682 47.5646 26.0202 46.6806C26.0566 46.0754 25.867 45.4784 25.4882 45.005L21.1494 39.5716C21.6472 37.9894 22.2848 36.4546 23.0542 34.9852L29.9554 34.2024C30.5572 34.1356 31.1128 33.848 31.5148 33.3952C32.1034 32.7332 32.7302 32.1064 33.3922 31.5178C33.8468 31.1156 34.1356 30.5586 34.2024 29.9554L34.9698 23.0542C36.439 22.2844 37.974 21.6468 39.5564 21.1494L44.9806 25.4882C45.4538 25.867 46.051 26.0566 46.6562 26.0202C47.54 25.9682 48.4262 25.9682 49.3102 26.0202C49.9154 26.0566 50.5124 25.867 50.9858 25.4882L56.4192 21.1494C58.0014 21.6472 59.5362 22.2848 61.0056 23.0542L61.7884 29.9554C61.8552 30.5572 62.1428 31.1128 62.5956 31.5148C63.2576 32.1034 63.8844 32.7302 64.473 33.3922C64.875 33.845 65.4306 34.1326 66.0324 34.1994L72.9366 34.9668C73.7064 36.436 74.344 37.971 74.8414 39.5532L70.5026 44.9776C70.1202 45.4548 69.9304 46.058 69.9706 46.6684H69.9798Z" fill="white"/>
</g>
<defs>
<linearGradient id="paint0_linear_69_265" x1="48" y1="0" x2="48" y2="96" gradientUnits="userSpaceOnUse">
<stop stop-color="#71717A"/>
<stop offset="1" stop-color="#52525B"/>
</linearGradient>
<clipPath id="clip0_69_265">
<rect width="96" height="96" fill="white"/>
</clipPath>
</defs>
</svg>
