<svg width="80" height="80" viewBox="0 0 80 80" fill="none" xmlns="http://www.w3.org/2000/svg">
<rect width="80" height="80" fill="url(#paint0_linear_821_5590)"/>
<path fill-rule="evenodd" clip-rule="evenodd" d="M63.3636 25.5479L64.6799 27.8607C65.6129 29.5002 66.0793 30.3201 65.9889 31.1927C65.8983 32.0654 65.2738 32.7687 64.0247 34.1752L61.2751 37.2875C60.6034 38.1488 60.126 39.65 60.126 40.9997C60.126 42.35 60.6031 43.8506 61.2751 44.7122L64.0247 47.8245L64.026 47.826C65.2742 49.2317 65.8983 49.9346 65.9889 50.8072C66.0793 51.6798 65.6129 52.4996 64.6799 54.139L63.3623 56.4541C62.3677 58.2017 61.8702 59.0758 61.0236 59.4243C60.1767 59.7731 59.2188 59.498 57.3034 58.9474L54.0495 58.0194C52.8263 57.7338 51.5431 57.8961 50.4263 58.4771L49.5282 59.002C48.5706 59.623 47.8343 60.5383 47.4269 61.6145L46.5362 64.3078C45.9506 66.0898 45.6578 66.9807 44.9607 67.4905C44.2639 68 43.3381 68 41.4863 68H38.5135C36.6621 68 35.7362 68 35.0392 67.4905C34.3422 66.9807 34.0494 66.0898 33.4639 64.3078L32.5733 61.6145C32.1657 60.5383 31.4293 59.623 30.472 59.002L29.5737 58.4771C28.457 57.8961 27.1736 57.7338 25.9505 58.0194L22.6967 58.9474C20.7811 59.498 19.8233 59.7731 18.9764 59.4243C18.1297 59.0757 17.632 58.2012 16.6369 56.4528L15.3202 54.139C14.3871 52.4996 13.9205 51.6798 14.0111 50.8072C14.1016 49.9346 14.7258 49.2317 15.9741 47.8259L15.9754 47.8245L18.7249 44.7122C19.3969 43.8506 19.8739 42.35 19.8739 40.9997C19.8739 39.65 19.3968 38.1488 18.7248 37.2875L15.9754 34.1752C14.7263 32.7688 14.1016 32.0654 14.0111 31.1927C13.9205 30.3201 14.3871 29.5003 15.3202 27.8607L16.6364 25.5479C17.6318 23.7988 18.1296 22.9241 18.9764 22.5754C19.8233 22.2267 20.7811 22.5018 22.6966 23.0522L25.9506 23.9802C27.1735 24.2658 28.4566 24.1038 29.5733 23.5229L30.4716 22.9981C31.4292 22.3771 32.1657 21.4615 32.5734 20.3853L33.4639 17.6924C34.0494 15.9103 34.3422 15.0193 35.0392 14.5097C35.7362 14 36.6621 14 38.5135 14H41.4863C43.3381 14 44.2639 14 44.9607 14.5097C45.6578 15.0193 45.9506 15.9103 46.5362 17.6924L47.4266 20.3853C47.8343 21.4615 48.5709 22.3771 49.5285 22.9981L50.4268 23.5229C51.5434 24.1038 52.8266 24.2658 54.0495 23.9802L57.3034 23.0522C59.2188 22.5018 60.1767 22.2267 61.0236 22.5754C61.8704 22.9241 62.368 23.7984 63.363 25.5469L63.3636 25.5479ZM39.9999 55C47.732 55 54 48.732 54 41C54 33.268 47.732 27 39.9999 27C32.2679 27 26 33.268 26 41C26 48.732 32.2679 55 39.9999 55Z" fill="black" fill-opacity="0.2"/>
<path d="M50 41C50 46.5228 45.5228 51 40 51C34.4772 51 30 46.5228 30 41C30 35.4772 34.4772 31 40 31C45.5228 31 50 35.4772 50 41Z" fill="black" fill-opacity="0.2"/>
<path fill-rule="evenodd" clip-rule="evenodd" d="M63.3636 24.5479L64.6799 26.8607C65.6129 28.5002 66.0793 29.3201 65.9889 30.1927C65.8983 31.0654 65.2738 31.7687 64.0247 33.1752L61.2751 36.2875C60.6034 37.1488 60.126 38.65 60.126 39.9997C60.126 41.35 60.6031 42.8506 61.2751 43.7122L64.0247 46.8245L64.026 46.826C65.2742 48.2317 65.8983 48.9346 65.9889 49.8072C66.0793 50.6798 65.6129 51.4996 64.6799 53.139L63.3623 55.4541C62.3677 57.2017 61.8702 58.0758 61.0236 58.4243C60.1767 58.7731 59.2188 58.498 57.3034 57.9474L54.0495 57.0194C52.8263 56.7338 51.5431 56.8961 50.4263 57.4771L49.5282 58.002C48.5706 58.623 47.8343 59.5383 47.4269 60.6145L46.5362 63.3078C45.9506 65.0898 45.6578 65.9807 44.9607 66.4905C44.2639 67 43.3381 67 41.4863 67H38.5135C36.6621 67 35.7362 67 35.0392 66.4905C34.3422 65.9807 34.0494 65.0898 33.4639 63.3078L32.5733 60.6145C32.1657 59.5383 31.4293 58.623 30.472 58.002L29.5737 57.4771C28.457 56.8961 27.1736 56.7338 25.9505 57.0194L22.6967 57.9474C20.7811 58.498 19.8233 58.7731 18.9764 58.4243C18.1297 58.0757 17.632 57.2012 16.6369 55.4528L15.3202 53.139C14.3871 51.4996 13.9205 50.6798 14.0111 49.8072C14.1016 48.9346 14.7258 48.2317 15.9741 46.8259L15.9754 46.8245L18.7249 43.7122C19.3969 42.8506 19.8739 41.35 19.8739 39.9997C19.8739 38.65 19.3968 37.1488 18.7248 36.2875L15.9754 33.1752C14.7263 31.7688 14.1016 31.0654 14.0111 30.1927C13.9205 29.3201 14.3871 28.5003 15.3202 26.8607L16.6364 24.5479C17.6318 22.7988 18.1296 21.9241 18.9764 21.5754C19.8233 21.2267 20.7811 21.5018 22.6966 22.0522L25.9506 22.9802C27.1735 23.2658 28.4566 23.1038 29.5733 22.5229L30.4716 21.9981C31.4292 21.3771 32.1657 20.4615 32.5734 19.3853L33.4639 16.6924C34.0494 14.9103 34.3422 14.0193 35.0392 13.5097C35.7362 13 36.6621 13 38.5135 13H41.4863C43.3381 13 44.2639 13 44.9607 13.5097C45.6578 14.0193 45.9506 14.9103 46.5362 16.6924L47.4266 19.3853C47.8343 20.4615 48.5709 21.3771 49.5285 21.9981L50.4268 22.5229C51.5434 23.1038 52.8266 23.2658 54.0495 22.9802L57.3034 22.0522C59.2188 21.5018 60.1767 21.2267 61.0236 21.5754C61.8704 21.9241 62.368 22.7984 63.363 24.5469L63.3636 24.5479ZM39.9999 54C47.732 54 54 47.732 54 40C54 32.268 47.732 26 39.9999 26C32.2679 26 26 32.268 26 40C26 47.732 32.2679 54 39.9999 54Z" fill="url(#paint1_linear_821_5590)"/>
<circle cx="40" cy="40" r="10" fill="url(#paint2_linear_821_5590)"/>
<defs>
<linearGradient id="paint0_linear_821_5590" x1="40" y1="0" x2="40" y2="80" gradientUnits="userSpaceOnUse">
<stop stop-color="#6B7280"/>
<stop offset="1" stop-color="#1F2937"/>
</linearGradient>
<linearGradient id="paint1_linear_821_5590" x1="40" y1="13" x2="40" y2="67" gradientUnits="userSpaceOnUse">
<stop stop-color="#F9FAFB"/>
<stop offset="1" stop-color="#9CA3AF"/>
</linearGradient>
<linearGradient id="paint2_linear_821_5590" x1="40" y1="30" x2="40" y2="50" gradientUnits="userSpaceOnUse">
<stop stop-color="#FDE68A"/>
<stop offset="1" stop-color="#D97706"/>
</linearGradient>
</defs>
</svg>
