<?xml version="1.0" encoding="UTF-8"?>
<svg width="606px" height="606px" viewBox="0 0 606 606" version="1.1" xmlns="http://www.w3.org/2000/svg" xmlns:xlink="http://www.w3.org/1999/xlink">
    <!-- Generator: Sketch 40.2 (33826) - http://www.bohemiancoding.com/sketch -->
    <title>Storage</title>
    <desc>Created with Sketch.</desc>
    <defs>
        <linearGradient x1="50%" y1="0%" x2="50%" y2="100%" id="linearGradient-1">
            <stop stop-color="#FFFFFF" stop-opacity="0.2" offset="0%"></stop>
            <stop stop-color="#000000" stop-opacity="0.2" offset="100%"></stop>
        </linearGradient>
        <path d="M552.268958,552.268958 C600,504.537813 600,431.458333 600,300 C600,168.541667 600,95.4621875 552.268958,47.7310417 C504.537813,0 431.458333,0 300,0 C168.541667,0 95.4621875,0 47.7310417,47.7310417 C0,95.4621875 0,168.541667 0,300 C0,431.458333 0,504.537813 47.7310417,552.268958 C95.4621875,600 168.541667,600 300,600 C431.458333,600 504.537813,600 552.268958,552.268958 Z" id="path-2"></path>
    </defs>
    <g id="Page-1" stroke="none" stroke-width="1" fill="none" fill-rule="evenodd" opacity="0.95">
        <g id="Storage" transform="translate(3.000000, 3.000000)">
            <g id="Squircle2">
                <g id="Shape">
                    <use fill="#458EE5" xlink:href="#path-2"></use>
                    <use stroke="#000000" stroke-width="4.04" fill="url(#linearGradient-1)" xlink:href="#path-2"></use>
                </g>
            </g>
            <g id="Layer_1" transform="translate(100.000000, 134.000000)" fill="#FFFFFF">
                <g id="Group">
                    <path d="M329.350649,33.8701299 L70.7532468,33.8701299 C58.1818182,33.8701299 50.4935065,33.8701299 50.4935065,55.0649351 L50.4935065,84.2597403 L349.714286,84.2597403 L349.714286,55.0649351 C349.714286,33.8701299 342.025974,33.8701299 329.350649,33.8701299 L329.350649,33.8701299 Z" id="Shape"></path>
                    <path d="M279.480519,0.519480519 L120.519481,0.519480519 C106.909091,0.519480519 100.25974,0.831168831 100.25974,19.9480519 L299.74026,19.9480519 C299.636364,0.831168831 293.090909,0.519480519 279.480519,0.519480519 L279.480519,0.519480519 Z" id="Shape"></path>
                    <path d="M382.753247,76.4675325 L366.233766,66.7012987 L366.233766,100.25974 L32.7272727,100.25974 L32.7272727,66.7012987 L16.9350649,76.4675325 C2.07792208,85.7142857 -1.55844156,92.3636364 1.35064935,118.961039 L19.5324675,310.961039 C23.3766234,332.467532 36.0519481,332.987013 44.4675325,332.987013 L356.051948,332.987013 C364.467532,332.987013 377.038961,332.467532 380.883117,310.961039 L398.753247,119.376623 C401.142857,94.025974 396.675325,85.2987013 382.753247,76.4675325 L382.753247,76.4675325 Z" id="Shape"></path>
                </g>
            </g>
        </g>
    </g>
</svg>