<?xml version="1.0" encoding="UTF-8"?>
<svg width="606px" height="606px" viewBox="0 0 606 606" version="1.1" xmlns="http://www.w3.org/2000/svg" xmlns:xlink="http://www.w3.org/1999/xlink">
    <!-- Generator: Sketch 40.2 (33826) - http://www.bohemiancoding.com/sketch -->
    <title>dashboard</title>
    <desc>Created with Sketch.</desc>
    <defs>
        <linearGradient x1="50%" y1="0%" x2="50%" y2="100%" id="linearGradient-1">
            <stop stop-color="#FFFFFF" stop-opacity="0.2" offset="0%"></stop>
            <stop stop-color="#000000" stop-opacity="0.2" offset="100%"></stop>
        </linearGradient>
        <path d="M552.268958,552.268958 C600,504.537813 600,431.458333 600,300 C600,168.541667 600,95.4621875 552.268958,47.7310417 C504.537813,0 431.458333,0 300,0 C168.541667,0 95.4621875,0 47.7310417,47.7310417 C0,95.4621875 0,168.541667 0,300 C0,431.458333 0,504.537813 47.7310417,552.268958 C95.4621875,600 168.541667,600 300,600 C431.458333,600 504.537813,600 552.268958,552.268958 Z" id="path-2"></path>
    </defs>
    <g id="Page-1" stroke="none" stroke-width="1" fill="none" fill-rule="evenodd">
        <g id="dashboard" transform="translate(3.000000, 3.000000)">
            <g id="Squircle2-Copy-4">
                <g id="Shape">
                    <use fill="#4A4A4A" xlink:href="#path-2"></use>
                    <use stroke="#000000" stroke-width="4.04" fill="url(#linearGradient-1)" xlink:href="#path-2"></use>
                </g>
            </g>
            <g id="settings" opacity="0.9" transform="translate(101.000000, 100.000000)" fill="#FFFFFF">
                <g id="Capa_1">
                    <g id="Group">
                        <path d="M395.854767,142.427586 L395.530223,141.616227 L394.881136,139.993509 L393.582961,136.748073 L383.440974,110.541176 L383.11643,109.729817 L382.548479,108.431643 L382.142799,107.539148 L381.169168,105.754158 C379.95213,103.644625 378.653955,102.021907 377.031237,100.480325 C373.866937,97.3971602 369.972414,95.125355 365.672211,93.9083164 C363.562677,93.3403651 361.372008,93.0158215 359.100203,93.0158215 C357.9643,93.0158215 356.909533,93.0969574 355.773631,93.1780933 C354.8,93.3403651 353.339554,93.5837728 353.01501,93.6649087 L346.118458,95.0442191 L326.48357,99.0198783 C320.641785,91.6365112 314.232049,84.7399594 307.173225,78.411359 L314.313185,50.1760649 L314.556592,49.0401623 C314.718864,48.1476673 314.8,47.1740365 314.881136,46.2004057 C314.962272,44.5776876 314.962272,43.1172414 314.8,41.6567951 C314.475456,38.6547667 313.664097,35.6527383 312.447059,32.8941176 C309.931846,27.3768763 305.469371,22.6709939 299.95213,19.9935091 L282.589047,12.2855984 L265.307099,4.73995943 L264.090061,4.25314402 C263.197566,3.92860041 262.223935,3.6851927 261.250304,3.44178499 C259.708722,3.11724138 258.16714,2.87383367 256.625558,2.79269777 C253.542394,2.63042596 250.378093,2.95496957 247.376065,3.8474645 C241.372008,5.55131846 236.017039,9.28356998 232.365923,14.3139959 L217.680325,37.7622718 C209.079919,36.8697769 200.317241,36.6263692 191.554564,37.1131846 L177.112373,13.1780933 L176.463286,12.2044625 C175.895335,11.3931034 175.246247,10.5817444 174.516024,9.7703854 C173.380122,8.55334686 172.244219,7.41744422 171.027181,6.44381339 C168.511968,4.41541582 165.672211,2.87383367 162.670183,1.73793103 C156.666126,-0.452738337 149.931846,-0.615010142 143.684381,1.49452333 C141.818256,2.14361055 141.493712,2.30588235 140.682353,2.63042596 L138.572819,3.44178499 L134.353753,5.14563895 L125.834483,8.55334686 L108.227992,15.6121704 L107.173225,16.0989858 C106.361866,16.5046653 105.388235,16.9914807 104.576876,17.4782961 C103.11643,18.3707911 101.818256,19.3444219 100.601217,20.3991886 C98.16714,22.5087221 96.0576065,25.105071 94.4348884,27.9448276 C91.1894523,33.5432049 89.9724138,40.3586207 90.9460446,46.6872211 L91.3517241,48.7967546 L91.5951318,49.9326572 L92.0819473,52.2044625 L93.0555781,56.6669371 L95.0028398,65.5918864 L96.8689655,73.9488844 C89.8912779,79.6283976 83.4815416,85.956998 77.6397566,92.7724138 L68.3902637,90.5817444 L59.0596349,88.3910751 L54.3537525,87.3363083 L52.0008114,86.768357 L50.7026369,86.5249493 L50.1346856,86.4438134 L48.9176471,86.2815416 L47.3760649,86.1192698 C40.4795132,85.6324544 33.8263692,87.579716 28.4713996,91.5553753 C25.7939148,93.5026369 23.4409736,96.0178499 21.5748479,98.7764706 C20.6823529,100.155781 19.8709939,101.616227 19.2219067,103.157809 L18.2482759,105.429615 L10.9460446,123.117241 L7.45720081,130.987424 L5.67221095,134.963083 L5.02312373,136.585801 L4.61744422,137.559432 C4.37403651,138.208519 4.0494929,139.344422 3.80608519,140.155781 C3.56267748,141.048276 3.48154158,141.697363 3.31926978,142.508722 C2.34563895,148.431643 3.31926978,154.679108 5.99675456,160.034077 C7.37606491,162.711562 9.16105477,165.145639 11.2705882,167.255172 C13.2178499,169.364706 16.463286,171.393103 17.1123732,171.798783 L37.7208925,185.429615 C36.8283976,193.948884 36.6661258,202.54929 37.1529412,211.06856 L13.4612576,225.267343 C8.18742394,228.756187 3.8872211,234.354564 1.85882353,240.358621 C-0.250709939,246.362677 -0.412981744,253.178093 1.69655172,259.425558 L8.75537525,277.356592 L15.7330629,294.963083 C18.3294118,300.886004 23.1975659,306.159838 29.0393509,309.161866 C34.8811359,312.326166 41.9399594,313.299797 48.3496957,312.082759 L74.4754564,306.484381 C79.7492901,312.812982 85.5910751,318.735903 91.7574037,324.253144 L85.5099391,350.541176 L85.4288032,351.109128 L85.2665314,352.24503 C85.1042596,353.218661 85.0231237,354.4357 85.0231237,355.247059 C84.9419878,356.869777 85.0231237,358.573631 85.2665314,360.196349 C85.672211,363.522921 86.6458418,366.687221 88.1874239,369.689249 C91.1083164,375.61217 96.2198783,380.642596 102.305071,383.401217 L119.587018,390.703448 L137.031237,398.00568 C143.11643,400.358621 150.256389,400.520892 156.422718,398.492495 C162.670183,396.545233 168.26856,392.326166 171.83854,386.890061 L186.443002,363.766329 C195.124544,364.415416 203.806085,364.415416 212.406491,363.685193 L225.144828,383.806897 L226.28073,385.591886 L227.254361,387.052333 L228.146856,388.269371 C228.714807,388.999594 229.282759,389.729817 229.85071,390.297769 L231.392292,391.839351 C232.447059,392.812982 233.582961,393.705477 234.718864,394.516836 C239.424746,397.681136 245.023124,399.38499 250.621501,399.303854 C253.461258,399.303854 256.301014,398.817039 258.978499,397.924544 L260.925761,397.19432 L261.899391,396.788641 L263.846653,395.977282 L271.554564,392.731846 C276.747262,390.460041 281.777688,388.269371 286.645842,386.159838 C289.242191,384.942799 291.83854,383.806897 294.353753,382.670994 L295.246247,382.265314 C295.570791,382.103043 296.463286,381.616227 297.112373,381.210548 C298.491684,380.399189 299.221907,379.750101 300.276673,378.938742 C302.142799,377.39716 303.765517,375.531034 305.063692,373.664909 C307.741176,369.770385 309.201623,365.307911 309.44503,360.926572 C309.607302,358.735903 309.44503,356.626369 309.039351,354.597972 L308.714807,353.056389 C308.552535,352.488438 308.552535,352.407302 308.4714,352.082759 L307.984584,350.541176 C306.68641,346.403245 305.388235,342.508722 304.090061,339.101014 C299.059635,325.307911 294.516024,317.518864 291.270588,319.952941 C288.349696,322.143611 287.376065,331.311968 288.26856,345.673022 C288.511968,349.161866 288.917647,353.299797 289.242191,357.19432 C289.161055,358.97931 288.187424,360.520892 286.889249,361.332252 C286.645842,361.494523 286.07789,361.819067 286.07789,361.737931 C286.402434,361.575659 285.509939,361.981339 284.941988,362.143611 C285.10426,362.062475 284.536308,362.305882 285.347667,361.981339 L285.347667,361.981339 L285.266531,361.981339 L285.185396,361.981339 L284.941988,362.062475 L284.130629,362.305882 L283.238134,362.630426 C280.885193,363.441785 278.36998,364.33428 275.854767,365.145639 C270.824341,366.930629 265.631643,368.796755 260.195538,370.906288 L252.649899,373.746045 C250.946045,374.395132 251.270588,374.23286 250.864909,374.313996 C250.621501,374.395132 250.296957,374.313996 250.05355,374.23286 C249.485598,374.151724 248.998783,373.827181 248.593103,373.502637 C248.511968,373.421501 248.511968,373.421501 248.430832,373.340365 C248.349696,373.178093 248.187424,372.934686 248.025152,372.772414 L246.240162,369.770385 C240.804057,360.520892 235.367951,351.190264 229.85071,341.859635 C227.660041,338.046247 223.359838,335.774442 218.653955,336.261258 L218.248276,336.342394 C205.591075,337.721704 192.690467,337.478296 180.114402,335.287627 C175.489655,334.476268 170.702637,336.423529 167.944016,340.56146 L167.781744,340.886004 C161.1286,350.86572 154.556592,360.845436 147.903448,370.906288 C147.660041,371.149696 147.578905,371.149696 147.416633,371.149696 L147.335497,371.149696 L131.676268,364.33428 L115.20568,357.113185 L114.718864,356.869777 C114.637728,356.788641 114.718864,356.869777 114.637728,356.788641 L114.637728,356.788641 L114.637728,356.788641 L114.637728,356.707505 C117.315213,345.510751 119.992698,334.313996 122.670183,323.198377 L123.075862,321.494523 L123.075862,321.413387 C124.292901,316.382961 122.507911,310.946856 118.126572,307.620284 C108.06572,299.993509 99.2219067,290.906288 91.5951318,280.683164 L91.5139959,280.602028 C88.5119675,276.545233 83.2381339,274.4357 78.0454361,275.571602 L42.9135903,283.441785 C42.5890467,283.522921 42.4267748,283.604057 42.1833671,283.117241 L35.5302231,266.808925 L28.958215,250.744016 C28.7148073,250.338337 28.8770791,249.364706 29.4450304,249.040162 L60.0332657,230.054361 L60.1955375,229.973225 C64.1711968,227.539148 66.5241379,222.914402 65.7939148,217.965112 C64.0089249,205.307911 64.0089249,192.407302 65.8750507,179.831237 L65.8750507,179.58783 C66.5241379,175.125355 64.5768763,170.419473 60.5200811,167.90426 L30.0129817,148.593915 C29.2016227,148.107099 28.7959432,147.133469 29.1204868,146.078702 L35.9359026,129.770385 L42.8324544,113.299797 C43.2381339,112.326166 44.2117647,111.514807 45.8344828,111.839351 L80.8040568,119.952941 L80.9663286,120.034077 C84.9419878,120.926572 89.2421907,119.547262 91.7574037,116.058418 C96.463286,109.729817 101.73712,103.888032 107.497769,98.5330629 C111.554564,95.125355 115.773631,92.0421907 120.236105,89.1212982 C123.643813,86.8494929 125.591075,82.7115619 124.779716,78.4924949 L124.617444,77.7622718 C122.507911,66.0787018 120.398377,54.3139959 118.207708,42.5492901 C118.207708,42.1436105 118.36998,41.9002028 118.613387,41.737931 C118.694523,41.6567951 118.775659,41.5756592 118.937931,41.5756592 L119.100203,41.4945233 C119.019067,41.5756592 118.856795,41.6567951 118.775659,41.737931 L119.668154,41.3322515 L136.301014,35.1659229 L144.90142,32.0016227 L149.201623,30.3789047 L151.311156,29.5675456 L152.365923,29.1618661 C152.528195,28.9995943 152.852738,29.1618661 152.771602,28.7561866 L152.771602,29.1618661 C152.771602,29.1618661 152.852738,28.9995943 152.933874,28.9184584 L152.933874,28.9184584 L153.096146,29.1618661 L153.258418,29.4052738 C151.879108,28.7561866 152.852738,29.243002 152.609331,29.1618661 L152.609331,29.1618661 L152.609331,29.243002 L152.690467,29.4052738 L153.01501,29.8920892 L153.582961,30.8657201 L154.718864,32.8129817 L157.071805,36.788641 L161.696552,44.6588235 L171.027181,60.4803245 C173.785801,65.1862069 179.221907,68.1070994 184.982556,67.4580122 L185.469371,67.3768763 C197.720892,65.9975659 210.296957,66.5655172 222.791886,68.5939148 C228.552535,69.5675456 234.556592,67.0523327 237.883164,61.8596349 L238.045436,61.5350913 L247.86288,46.2815416 L252.81217,38.6547667 L255.246247,34.8413793 L256.301014,33.2186613 L256.544422,33.2997972 L258.653955,34.1922921 L262.791886,35.9772819 L271.148884,39.6283976 L279.505882,43.2795132 L283.724949,45.064503 L285.347667,45.7947262 L285.347667,45.8758621 L284.779716,48.0665314 L283.724949,52.5290061 L281.53428,61.3728195 L277.234077,79.0604462 C275.773631,84.9833671 277.802028,91.5553753 282.91359,95.6121704 L282.91359,95.6121704 C292.649899,103.238945 301.33144,112.163895 308.4714,122.143611 C312.122515,127.174037 318.532252,129.932657 325.023124,128.553347 L342.873022,124.658824 L351.797972,122.711562 L356.260446,121.737931 L357.883164,121.413387 L357.883164,121.494523 L358.775659,123.604057 L360.479513,127.823124 L363.887221,136.261258 L367.294929,144.699391 L368.998783,148.918458 L369.729006,150.703448 L369.64787,150.784584 L367.700609,152.001623 L363.806085,154.354564 L356.017039,159.141582 L340.438945,168.715619 L340.357809,168.715619 C335.165112,171.879919 332.081947,177.883976 332.893306,184.293712 C334.434888,196.464097 334.191481,208.959026 332.325355,221.372819 C331.43286,227.376876 334.029209,233.624341 339.465314,237.19432 L354.8,247.011765 L362.507911,251.961055 L366.321298,254.395132 L367.86288,255.368763 L367.781744,255.531034 L366.889249,257.640568 L365.10426,261.859635 L361.53428,270.216633 L357.9643,278.573631 L356.17931,282.711562 L355.530223,284.172008 L355.367951,284.090872 L353.177282,283.522921 L348.795943,282.387018 L339.95213,280.196349 L322.345639,275.81501 C316.503854,274.354564 310.012982,276.301826 305.956187,281.251116 L305.631643,281.656795 L303.52211,284.253144 C300.438945,287.985396 296.78783,293.015822 293.298986,297.559432 C289.891278,302.103043 286.645842,306.240974 285.347667,308.512779 C282.507911,313.137525 284.130629,314.192292 288.836511,312.731846 C293.380122,311.352535 300.844625,307.133469 308.714807,300.56146 C311.960243,297.883976 315.043408,294.963083 318.36998,291.555375 L318.451116,291.474239 C318.532252,291.393103 318.613387,291.393103 318.694523,291.393103 C329.079919,295.206491 339.789858,298.938742 350.905477,302.670994 C352.284787,303.076673 353.582961,303.644625 355.530223,303.969168 C357.477485,304.293712 359.262475,304.212576 361.1286,303.888032 C364.860852,303.238945 368.511968,301.372819 371.189452,298.370791 C371.83854,297.640568 372.487627,296.829209 373.055578,296.01785 C373.623529,295.206491 374.110345,294.151724 374.434888,293.583773 L376.544422,289.526978 C377.923732,286.849493 379.303043,284.090872 380.682353,281.413387 C383.440974,275.977282 386.199594,270.460041 389.039351,264.861663 L390.094118,262.75213 L390.662069,261.372819 C390.824341,261.129412 391.067748,260.236917 391.311156,259.58783 C392.041379,257.072617 392.284787,254.800811 392.122515,252.285598 C391.797972,247.417444 389.769574,242.630426 386.28073,238.97931 C385.388235,238.086815 384.49574,237.19432 383.440974,236.464097 L381.250304,234.922515 L377.355781,232.163895 C374.759432,230.297769 372.081947,228.512779 369.485598,226.646653 C365.915619,224.212576 362.345639,221.697363 358.775659,219.18215 C360.317241,209.040162 360.885193,198.492495 360.236105,187.863692 C368.025152,183.238945 375.814199,178.695335 383.684381,173.989452 L385.225963,173.096957 L385.956187,172.610142 L387.092089,171.879919 L387.497769,171.555375 L388.309128,170.987424 C388.795943,170.581744 389.363895,170.094929 389.769574,169.770385 C390.580933,169.040162 391.311156,168.309939 392.041379,167.49858 C394.8,164.253144 396.747262,160.277485 397.558621,156.139554 C398.451116,152.001623 398.207708,147.539148 396.828398,143.401217 L395.854767,142.427586 L395.854767,142.427586 Z M147.335497,370.987424 L147.416633,370.987424 C147.416633,371.06856 147.416633,371.06856 147.335497,370.987424 L147.335497,370.987424 C147.335497,370.987424 147.254361,370.987424 147.335497,370.987424 L147.335497,370.987424 Z M114.718864,356.545233 C114.637728,356.545233 114.718864,356.382961 114.718864,356.545233 C114.637728,356.545233 114.637728,356.545233 114.718864,356.545233 L114.718864,356.545233 L114.718864,356.545233 Z M255.976471,30.946856 C255.814199,30.8657201 255.733063,30.8657201 255.814199,30.8657201 L255.733063,30.8657201 L255.570791,30.7034483 L255.570791,30.6223124 L255.814199,30.7034483 L256.057606,30.8657201 C256.544422,30.2166329 256.38215,30.4600406 255.976471,30.946856 L255.976471,30.946856 Z M356.017039,287.092901 L356.017039,287.092901 C355.935903,287.255172 355.935903,287.255172 356.017039,287.092901 L356.017039,287.092901 Z M370.378093,255.044219 L370.378093,255.044219 L370.378093,255.044219 L370.459229,254.963083 L370.621501,254.800811 L370.702637,254.800811 L370.540365,255.206491 L370.540365,255.287627 L370.540365,255.287627 C370.621501,255.368763 370.540365,255.287627 370.459229,255.206491 C370.378093,255.206491 370.378093,255.125355 370.378093,255.044219 L370.378093,255.044219 Z M372.163083,152.082759 L372.000811,152.163895 L372.000811,152.163895 L372.000811,152.082759 C372.163083,152.001623 372.325355,151.920487 372.487627,151.839351 L372.487627,151.839351 L372.487627,151.839351 L372.163083,152.082759 L372.163083,152.082759 Z" id="Shape"></path>
                        <path d="M251.108316,217.39716 L249.972414,220.56146 C249.323327,222.75213 248.106288,224.618256 247.294929,226.727789 C245.10426,230.622312 242.751318,234.516836 239.668154,237.924544 C233.826369,244.902231 226.118458,250.419473 217.518053,254.151724 C215.083976,255.368763 212.649899,256.098986 210.459229,257.316024 C208.187424,258.127383 206.159026,259.344422 204.455172,260.480325 C200.966329,262.589858 198.532252,265.429615 198.937931,269.08073 C199.343611,272.407302 201.939959,275.247059 206.645842,277.275456 C208.998783,278.00568 211.919675,278.654767 215.165112,278.735903 C218.410548,278.573631 222.061663,278.492495 225.793915,277.19432 C232.690467,275.409331 239.100203,272.326166 245.347667,268.756187 C251.43286,265.023935 257.193509,260.480325 262.142799,255.206491 C267.010953,249.851521 271.473428,244.009736 274.718864,237.437728 C276.503854,234.273428 277.720892,230.784584 279.100203,227.376876 C279.74929,225.673022 280.15497,223.888032 280.641785,222.103043 C281.1286,220.318053 281.615416,218.614199 281.939959,216.585801 L282.670183,211.879919 L282.994726,209.526978 L283.075862,207.660852 L283.238134,203.9286 L283.31927,203.036105 L283.31927,202.54929 L283.31927,202.305882 L283.31927,201.575659 L283.31927,201.494523 L283.31927,201.332252 L283.238134,199.141582 C283.075862,193.299797 282.345639,187.458012 280.885193,181.778499 C278.045436,170.419473 272.771602,159.709533 265.550507,150.622312 C251.189452,132.285598 229.120487,121.007708 206.159026,119.871805 C196.503854,117.924544 185.550507,117.924544 175.327383,120.358621 C164.941988,122.711562 154.962272,127.336308 146.28073,133.746045 C137.599189,140.236917 130.134686,148.512779 124.536308,158.00568 L120.722921,165.307911 C119.668154,167.823124 118.694523,170.419473 117.639757,173.015822 C116.828398,175.61217 116.098174,178.289655 115.367951,180.96714 C114.718864,183.806897 114.313185,186.890061 113.826369,189.810953 L113.664097,190.946856 L113.745233,191.920487 L113.664097,193.624341 L113.42069,196.950913 L113.339554,197.762272 L113.339554,198.167951 L113.339554,199.060446 L113.339554,199.222718 L113.339554,199.466126 L113.42069,201.494523 L113.582961,205.632454 C113.907505,211.149696 114.8,216.585801 116.260446,221.940771 C119.100203,232.65071 123.968357,242.711562 130.540365,251.555375 C137.112373,260.399189 145.307099,267.944828 154.637728,273.705477 C156.909533,275.247059 159.343611,276.545233 161.858824,277.762272 C164.292901,279.060446 166.808114,280.115213 169.404462,281.088844 C171.919675,282.143611 174.59716,283.036105 177.193509,283.766329 L181.169168,284.902231 L185.631643,285.71359 C190.499797,286.687221 195.124544,283.9286 196.909533,282.143611 C200.236105,278.411359 196.503854,274.841379 190.580933,271.758215 C180.763489,266.240974 172.163083,259.750101 164.617444,252.285598 C157.234077,244.658824 151.067748,235.977282 146.929817,226.484381 C144.333469,220.804868 142.954158,214.63854 142.386207,208.553347 C142.305071,207.011765 141.980527,205.470183 142.142799,203.9286 L142.223935,201.656795 L142.223935,200.520892 L142.223935,199.952941 L142.223935,199.790669 C142.629615,196.22069 142.954158,192.163895 143.684381,190.054361 L144.090061,188.107099 C144.252333,187.458012 144.576876,186.727789 144.739148,185.997566 C145.225963,184.618256 145.550507,183.076673 146.199594,181.778499 L147.984584,177.640568 L150.175254,173.746045 C153.258418,168.634483 157.071805,164.090872 161.453144,160.115213 C165.834483,156.22069 170.864909,153.056389 176.138742,150.622312 C178.735091,149.324138 181.574848,148.512779 184.333469,147.539148 C187.173225,146.890061 189.931846,146.159838 192.852738,145.91643 L195.043408,145.591886 L197.234077,145.510751 L199.424746,145.429615 L200.479513,145.348479 L200.560649,145.348479 L201.1286,145.348479 L206.726978,145.673022 L210.540365,146.240974 C215.895335,147.133469 221.818256,148.999594 227.092089,151.514807 C232.041379,154.679108 236.422718,158.654767 240.15497,163.036105 C252.244219,176.910345 256.544422,196.464097 251.919675,213.908316 L251.108316,217.39716 L251.108316,217.39716 Z" id="Shape"></path>
                    </g>
                </g>
            </g>
        </g>
    </g>
</svg>