<svg width="81" height="80" viewBox="0 0 81 80" fill="none" xmlns="http://www.w3.org/2000/svg">
<rect width="80" height="80" transform="translate(0.5)" fill="url(#paint0_linear_571_5874)"/>
<g filter="url(#filter0_d_571_5874)">
<path d="M16.5 54C16.5 50.149 16.5 48.2232 17.3668 46.8087C17.8519 46.0172 18.5173 45.3517 19.3088 44.8667C20.7234 44 22.6489 44 26.5 44C30.3511 44 32.2766 44 33.6912 44.8667C34.4827 45.3517 35.1481 46.0172 35.6332 46.8087C36.5 48.2232 36.5 50.149 36.5 54C36.5 57.851 36.5 59.7767 35.6332 61.1912C35.1481 61.9827 34.4827 62.6482 33.6912 63.1332C32.2766 64 30.3511 64 26.5 64C22.6489 64 20.7234 64 19.3088 63.1332C18.5173 62.6482 17.8519 61.9827 17.3668 61.1912C16.5 59.7767 16.5 57.851 16.5 54Z" fill="url(#paint1_linear_571_5874)"/>
<path d="M17.7931 47.07L17.7931 47.07C18.2369 46.3458 18.8459 45.7368 19.5701 45.2931C20.1856 44.9159 20.935 44.711 22.038 44.6061C23.1485 44.5005 24.5648 44.5 26.5 44.5C28.4352 44.5 29.8515 44.5005 30.962 44.6061C32.065 44.711 32.8144 44.9159 33.4299 45.2931C34.1541 45.7368 34.7631 46.3458 35.2069 47.07L35.6332 46.8087L35.2069 47.07C35.584 47.6855 35.789 48.435 35.8939 49.538C35.9995 50.6485 36 52.0648 36 54C36 55.9352 35.9995 57.3515 35.8939 58.462C35.789 59.565 35.584 60.3145 35.2069 60.93L35.6332 61.1912L35.2069 60.93C34.7631 61.6542 34.1541 62.2632 33.4299 62.7069C32.8144 63.0841 32.065 63.289 30.962 63.3939C29.8515 63.4995 28.4352 63.5 26.5 63.5C24.5648 63.5 23.1485 63.4995 22.038 63.3939C20.935 63.289 20.1856 63.0841 19.5701 62.7069C18.8459 62.2632 18.2369 61.6542 17.7931 60.93L17.3672 61.191L17.7931 60.93C17.416 60.3145 17.211 59.565 17.1061 58.462C17.0005 57.3515 17 55.9352 17 54C17 52.0648 17.0005 50.6485 17.1061 49.538C17.211 48.435 17.416 47.6855 17.7931 47.07ZM17.3672 46.809L17.3668 46.8087L17.3672 46.809Z" stroke="url(#paint2_linear_571_5874)"/>
</g>
<g filter="url(#filter1_d_571_5874)">
<path d="M44.5 54C44.5 50.149 44.5 48.2232 45.3667 46.8087C45.8517 46.0172 46.5172 45.3517 47.3087 44.8667C48.7232 44 50.649 44 54.5 44C58.351 44 60.2767 44 61.6912 44.8667C62.4827 45.3517 63.1482 46.0172 63.6332 46.8087C64.5 48.2232 64.5 50.149 64.5 54C64.5 57.851 64.5 59.7767 63.6332 61.1912C63.1482 61.9827 62.4827 62.6482 61.6912 63.1332C60.2767 64 58.351 64 54.5 64C50.649 64 48.7232 64 47.3087 63.1332C46.5172 62.6482 45.8517 61.9827 45.3667 61.1912C44.5 59.7767 44.5 57.851 44.5 54Z" fill="url(#paint3_linear_571_5874)"/>
<path d="M45 54C45 52.0648 45.0005 50.6485 45.1061 49.538C45.211 48.435 45.4159 47.6855 45.7931 47.07C46.2368 46.3458 46.8458 45.7368 47.57 45.2931C48.1855 44.9159 48.935 44.711 50.038 44.6061C51.1485 44.5005 52.5648 44.5 54.5 44.5C56.4352 44.5 57.8515 44.5005 58.962 44.6061C60.065 44.711 60.8145 44.9159 61.43 45.2931C62.1542 45.7368 62.7632 46.3458 63.2069 47.07L63.6332 46.8087L63.2069 47.07C63.5841 47.6855 63.789 48.435 63.8939 49.538C63.9995 50.6485 64 52.0648 64 54C64 55.9352 63.9995 57.3515 63.8939 58.462C63.789 59.565 63.5841 60.3145 63.2069 60.93C62.7632 61.6542 62.1542 62.2632 61.43 62.7069C60.8145 63.0841 60.065 63.289 58.962 63.3939C57.8515 63.4995 56.4352 63.5 54.5 63.5C52.5648 63.5 51.1485 63.4995 50.038 63.3939C48.935 63.289 48.1855 63.0841 47.57 62.7069L47.3087 63.1332L47.57 62.7069C46.8458 62.2632 46.2368 61.6542 45.7931 60.93C45.4159 60.3145 45.211 59.565 45.1061 58.462C45.0005 57.3515 45 55.9352 45 54Z" stroke="url(#paint4_linear_571_5874)"/>
</g>
<g filter="url(#filter2_d_571_5874)">
<path d="M16.5 26C16.5 22.1489 16.5 20.2234 17.3668 18.8088C17.8519 18.0173 18.5173 17.3519 19.3088 16.8668C20.7234 16 22.6489 16 26.5 16C30.3511 16 32.2766 16 33.6912 16.8668C34.4827 17.3519 35.1481 18.0173 35.6332 18.8088C36.5 20.2234 36.5 22.1489 36.5 26C36.5 29.8511 36.5 31.7766 35.6332 33.1912C35.1481 33.9827 34.4827 34.6481 33.6912 35.1332C32.2766 36 30.3511 36 26.5 36C22.6489 36 20.7234 36 19.3088 35.1332C18.5173 34.6481 17.8519 33.9827 17.3668 33.1912C16.5 31.7766 16.5 29.8511 16.5 26Z" fill="url(#paint5_linear_571_5874)"/>
<path d="M17.7931 19.0701L17.7931 19.0701C18.2369 18.3459 18.8459 17.7369 19.5701 17.2931L19.5701 17.2931C20.1856 16.916 20.935 16.711 22.038 16.6061C23.1485 16.5005 24.5648 16.5 26.5 16.5C28.4352 16.5 29.8515 16.5005 30.962 16.6061C32.065 16.711 32.8144 16.916 33.4299 17.2931L33.6912 16.8668L33.4299 17.2931C34.1541 17.7369 34.7631 18.3459 35.2069 19.0701C35.584 19.6856 35.789 20.435 35.8939 21.538C35.9995 22.6485 36 24.0648 36 26C36 27.9352 35.9995 29.3515 35.8939 30.462C35.789 31.565 35.584 32.3144 35.2069 32.9299C34.7631 33.6541 34.1541 34.2631 33.4299 34.7069C32.8144 35.084 32.065 35.289 30.962 35.3939C29.8515 35.4995 28.4352 35.5 26.5 35.5C24.5648 35.5 23.1485 35.4995 22.038 35.3939C20.935 35.289 20.1856 35.084 19.5701 34.7069C18.8459 34.2631 18.2369 33.6541 17.7931 32.9299L17.3676 33.1907L17.7931 32.9299C17.416 32.3144 17.211 31.565 17.1061 30.462C17.0005 29.3515 17 27.9352 17 26C17 24.0648 17.0005 22.6485 17.1061 21.538C17.211 20.435 17.416 19.6856 17.7931 19.0701Z" stroke="url(#paint6_linear_571_5874)"/>
</g>
<g filter="url(#filter3_d_571_5874)">
<path d="M44.5 26C44.5 22.1489 44.5 20.2234 45.3667 18.8088C45.8517 18.0173 46.5172 17.3519 47.3087 16.8668C48.7232 16 50.649 16 54.5 16C58.351 16 60.2767 16 61.6912 16.8668C62.4827 17.3519 63.1483 18.0173 63.6332 18.8088C64.5 20.2234 64.5 22.1489 64.5 26C64.5 29.8511 64.5 31.7766 63.6332 33.1912C63.1483 33.9827 62.4827 34.6482 61.6912 35.1332C60.2767 36 58.351 36 54.5 36C50.649 36 48.7232 36 47.3087 35.1332C46.5172 34.6482 45.8517 33.9827 45.3667 33.1912C44.5 31.7766 44.5 29.8511 44.5 26Z" fill="url(#paint7_linear_571_5874)"/>
<path d="M47.57 17.2931L47.57 17.2931C48.1855 16.916 48.935 16.711 50.038 16.6061C51.1485 16.5005 52.5648 16.5 54.5 16.5C56.4352 16.5 57.8515 16.5005 58.962 16.6061C60.065 16.711 60.8145 16.916 61.43 17.2931L61.6912 16.8668L61.43 17.2931C62.1542 17.7369 62.7632 18.3459 63.2069 19.0701C63.5841 19.6856 63.789 20.435 63.8939 21.538C63.9995 22.6485 64 24.0648 64 26C64 27.9352 63.9995 29.3515 63.8939 30.462C63.789 31.565 63.5841 32.3144 63.2069 32.9299C62.7632 33.6541 62.1542 34.2631 61.43 34.7069L61.6912 35.1332L61.43 34.7069C60.8145 35.084 60.065 35.289 58.962 35.3939C57.8515 35.4995 56.4352 35.5 54.5 35.5C52.5648 35.5 51.1485 35.4995 50.038 35.3939C48.935 35.289 48.1855 35.084 47.57 34.7069L47.3087 35.1332L47.57 34.7069C46.8458 34.2631 46.2368 33.6541 45.7931 32.9299C45.4159 32.3144 45.211 31.565 45.1061 30.462C45.0005 29.3515 45 27.9352 45 26C45 24.0648 45.0005 22.6485 45.1061 21.538C45.211 20.435 45.4159 19.6856 45.7931 19.0701C46.2368 18.3459 46.8458 17.7369 47.57 17.2931Z" stroke="url(#paint8_linear_571_5874)"/>
</g>
<defs>
<filter id="filter0_d_571_5874" x="14.5" y="43" width="24" height="24" filterUnits="userSpaceOnUse" color-interpolation-filters="sRGB">
<feFlood flood-opacity="0" result="BackgroundImageFix"/>
<feColorMatrix in="SourceAlpha" type="matrix" values="0 0 0 0 0 0 0 0 0 0 0 0 0 0 0 0 0 0 127 0" result="hardAlpha"/>
<feOffset dy="1"/>
<feGaussianBlur stdDeviation="1"/>
<feComposite in2="hardAlpha" operator="out"/>
<feColorMatrix type="matrix" values="0 0 0 0 0 0 0 0 0 0 0 0 0 0 0 0 0 0 0.5 0"/>
<feBlend mode="normal" in2="BackgroundImageFix" result="effect1_dropShadow_571_5874"/>
<feBlend mode="normal" in="SourceGraphic" in2="effect1_dropShadow_571_5874" result="shape"/>
</filter>
<filter id="filter1_d_571_5874" x="42.5" y="43" width="24" height="24" filterUnits="userSpaceOnUse" color-interpolation-filters="sRGB">
<feFlood flood-opacity="0" result="BackgroundImageFix"/>
<feColorMatrix in="SourceAlpha" type="matrix" values="0 0 0 0 0 0 0 0 0 0 0 0 0 0 0 0 0 0 127 0" result="hardAlpha"/>
<feOffset dy="1"/>
<feGaussianBlur stdDeviation="1"/>
<feComposite in2="hardAlpha" operator="out"/>
<feColorMatrix type="matrix" values="0 0 0 0 0 0 0 0 0 0 0 0 0 0 0 0 0 0 0.5 0"/>
<feBlend mode="normal" in2="BackgroundImageFix" result="effect1_dropShadow_571_5874"/>
<feBlend mode="normal" in="SourceGraphic" in2="effect1_dropShadow_571_5874" result="shape"/>
</filter>
<filter id="filter2_d_571_5874" x="14.5" y="15" width="24" height="24" filterUnits="userSpaceOnUse" color-interpolation-filters="sRGB">
<feFlood flood-opacity="0" result="BackgroundImageFix"/>
<feColorMatrix in="SourceAlpha" type="matrix" values="0 0 0 0 0 0 0 0 0 0 0 0 0 0 0 0 0 0 127 0" result="hardAlpha"/>
<feOffset dy="1"/>
<feGaussianBlur stdDeviation="1"/>
<feComposite in2="hardAlpha" operator="out"/>
<feColorMatrix type="matrix" values="0 0 0 0 0 0 0 0 0 0 0 0 0 0 0 0 0 0 0.5 0"/>
<feBlend mode="normal" in2="BackgroundImageFix" result="effect1_dropShadow_571_5874"/>
<feBlend mode="normal" in="SourceGraphic" in2="effect1_dropShadow_571_5874" result="shape"/>
</filter>
<filter id="filter3_d_571_5874" x="42.5" y="15" width="24" height="24" filterUnits="userSpaceOnUse" color-interpolation-filters="sRGB">
<feFlood flood-opacity="0" result="BackgroundImageFix"/>
<feColorMatrix in="SourceAlpha" type="matrix" values="0 0 0 0 0 0 0 0 0 0 0 0 0 0 0 0 0 0 127 0" result="hardAlpha"/>
<feOffset dy="1"/>
<feGaussianBlur stdDeviation="1"/>
<feComposite in2="hardAlpha" operator="out"/>
<feColorMatrix type="matrix" values="0 0 0 0 0 0 0 0 0 0 0 0 0 0 0 0 0 0 0.5 0"/>
<feBlend mode="normal" in2="BackgroundImageFix" result="effect1_dropShadow_571_5874"/>
<feBlend mode="normal" in="SourceGraphic" in2="effect1_dropShadow_571_5874" result="shape"/>
</filter>
<linearGradient id="paint0_linear_571_5874" x1="40" y1="0" x2="40" y2="80" gradientUnits="userSpaceOnUse">
<stop stop-color="#6B7280"/>
<stop offset="1" stop-color="#374151"/>
</linearGradient>
<linearGradient id="paint1_linear_571_5874" x1="26.5" y1="44" x2="26.5" y2="64" gradientUnits="userSpaceOnUse">
<stop stop-color="#F3F4F6"/>
<stop offset="1" stop-color="#9CA3AF"/>
</linearGradient>
<linearGradient id="paint2_linear_571_5874" x1="26.5" y1="44" x2="26.5" y2="64" gradientUnits="userSpaceOnUse">
<stop stop-color="white" stop-opacity="0.8"/>
<stop offset="1" stop-color="white" stop-opacity="0"/>
</linearGradient>
<linearGradient id="paint3_linear_571_5874" x1="54.5" y1="44" x2="54.5" y2="64" gradientUnits="userSpaceOnUse">
<stop stop-color="#F3F4F6"/>
<stop offset="1" stop-color="#9CA3AF"/>
</linearGradient>
<linearGradient id="paint4_linear_571_5874" x1="54.5" y1="44" x2="54.5" y2="64" gradientUnits="userSpaceOnUse">
<stop stop-color="white" stop-opacity="0.8"/>
<stop offset="1" stop-color="white" stop-opacity="0"/>
</linearGradient>
<linearGradient id="paint5_linear_571_5874" x1="26.5" y1="16" x2="26.5" y2="36" gradientUnits="userSpaceOnUse">
<stop stop-color="#F3F4F6"/>
<stop offset="1" stop-color="#9CA3AF"/>
</linearGradient>
<linearGradient id="paint6_linear_571_5874" x1="26.5" y1="16" x2="26.5" y2="36" gradientUnits="userSpaceOnUse">
<stop stop-color="white" stop-opacity="0.8"/>
<stop offset="1" stop-color="white" stop-opacity="0"/>
</linearGradient>
<linearGradient id="paint7_linear_571_5874" x1="54.5" y1="16" x2="54.5" y2="36" gradientUnits="userSpaceOnUse">
<stop stop-color="#FDE68A"/>
<stop offset="1" stop-color="#D97706"/>
</linearGradient>
<linearGradient id="paint8_linear_571_5874" x1="54.5" y1="16" x2="54.5" y2="36" gradientUnits="userSpaceOnUse">
<stop stop-color="white" stop-opacity="0.8"/>
<stop offset="1" stop-color="white" stop-opacity="0"/>
</linearGradient>
</defs>
</svg>
