<svg width="80" height="80" viewBox="0 0 80 80" fill="none" xmlns="http://www.w3.org/2000/svg">
<rect width="80" height="80" fill="url(#paint0_linear_830_5844)"/>
<g filter="url(#filter0_dd_830_5844)">
<path d="M18.5183 35.9487C19.978 36.6312 21.6022 37.3398 23.3363 38.0963L28.5637 40.3773C28.7907 40.4763 29.0148 40.5744 29.2363 40.6713L29.2407 40.6732L29.2499 40.6772C33.3458 42.4691 36.5348 43.8641 40 43.8641C43.4652 43.8641 46.6541 42.4691 50.7501 40.6773L50.7547 40.6752C50.9791 40.5771 51.2063 40.4777 51.4363 40.3773L56.6642 38.0961C58.3981 37.3397 60.0221 36.6312 61.4817 35.9487C62.0743 35.6716 62.77 35.683 63.3229 36.0326C65.1076 37.1607 66 38.2285 66 39.5462C66 42.2624 62.2076 43.9173 54.6231 47.2268L49.6981 49.3758C44.925 51.4586 42.5382 52.5 40 52.5C37.4618 52.5 35.075 51.4586 30.302 49.3758L25.377 47.2268C17.7922 43.9172 14 42.2625 14 39.5462C14 38.2285 14.8924 37.1607 16.6771 36.0325C17.23 35.683 17.9257 35.6716 18.5183 35.9487Z" fill="url(#paint1_linear_830_5844)"/>
<path d="M18.5183 48.4487C19.978 49.1312 21.6022 49.8398 23.3363 50.5963L28.5637 52.8773C28.7907 52.9763 29.0148 53.0744 29.2363 53.1713L29.2407 53.1732L29.2499 53.1772C33.3458 54.9691 36.5348 56.3641 40 56.3641C43.4652 56.3641 46.6541 54.9691 50.7501 53.1773L50.7547 53.1752C50.9791 53.0771 51.2063 52.9777 51.4363 52.8773L56.6642 50.5961C58.3981 49.8397 60.0221 49.1312 61.4817 48.4487C62.0743 48.1716 62.77 48.183 63.3229 48.5326C65.1076 49.6607 66 50.7285 66 52.0462C66 54.7624 62.2076 56.4173 54.6231 59.7268L49.6981 61.8758C44.925 63.9586 42.5382 65 40 65C37.4618 65 35.075 63.9586 30.302 61.8758L25.377 59.7268C17.7922 56.4172 14 54.7625 14 52.0462C14 50.7285 14.8924 49.6607 16.6771 48.5325C17.23 48.183 17.9257 48.1716 18.5183 48.4487Z" fill="url(#paint2_linear_830_5844)"/>
<path d="M49.6981 36.8647L54.6231 34.708C62.2077 31.3866 66 29.726 66 27C66 24.274 62.2077 22.6134 54.6231 19.292L49.6981 17.1353C44.925 15.0452 42.5382 14 40 14C37.4618 14 35.075 15.0452 30.302 17.1353L25.377 19.292C17.7922 22.6134 14 24.274 14 27C14 29.726 17.7922 31.3866 25.377 34.708L30.302 36.8647C35.075 38.9549 37.4618 40 40 40C42.5382 40 44.925 38.9549 49.6981 36.8647Z" fill="url(#paint3_linear_830_5844)"/>
</g>
<defs>
<filter id="filter0_dd_830_5844" x="8" y="10" width="64" height="64" filterUnits="userSpaceOnUse" color-interpolation-filters="sRGB">
<feFlood flood-opacity="0" result="BackgroundImageFix"/>
<feColorMatrix in="SourceAlpha" type="matrix" values="0 0 0 0 0 0 0 0 0 0 0 0 0 0 0 0 0 0 127 0" result="hardAlpha"/>
<feOffset dy="1"/>
<feComposite in2="hardAlpha" operator="out"/>
<feColorMatrix type="matrix" values="0 0 0 0 0 0 0 0 0 0 0 0 0 0 0 0 0 0 0.25 0"/>
<feBlend mode="normal" in2="BackgroundImageFix" result="effect1_dropShadow_830_5844"/>
<feColorMatrix in="SourceAlpha" type="matrix" values="0 0 0 0 0 0 0 0 0 0 0 0 0 0 0 0 0 0 127 0" result="hardAlpha"/>
<feOffset dy="2"/>
<feGaussianBlur stdDeviation="2"/>
<feComposite in2="hardAlpha" operator="out"/>
<feColorMatrix type="matrix" values="0 0 0 0 0 0 0 0 0 0 0 0 0 0 0 0 0 0 0.25 0"/>
<feBlend mode="normal" in2="effect1_dropShadow_830_5844" result="effect2_dropShadow_830_5844"/>
<feBlend mode="normal" in="SourceGraphic" in2="effect2_dropShadow_830_5844" result="shape"/>
</filter>
<linearGradient id="paint0_linear_830_5844" x1="40" y1="0" x2="40" y2="80" gradientUnits="userSpaceOnUse">
<stop stop-color="#4B5563"/>
<stop offset="1" stop-color="#1F2937"/>
</linearGradient>
<linearGradient id="paint1_linear_830_5844" x1="40" y1="28.2116" x2="40" y2="52.5" gradientUnits="userSpaceOnUse">
<stop stop-color="#F3F4F6"/>
<stop offset="1" stop-color="#9CA3AF"/>
</linearGradient>
<linearGradient id="paint2_linear_830_5844" x1="40" y1="40.7116" x2="40" y2="65" gradientUnits="userSpaceOnUse">
<stop stop-color="#F3F4F6"/>
<stop offset="1" stop-color="#9CA3AF"/>
</linearGradient>
<linearGradient id="paint3_linear_830_5844" x1="40" y1="12.375" x2="40" y2="40" gradientUnits="userSpaceOnUse">
<stop stop-color="#FDE68A"/>
<stop offset="1" stop-color="#D97706"/>
</linearGradient>
</defs>
</svg>
