<?xml version="1.0" encoding="UTF-8"?>
<svg width="64px" height="64px" viewBox="0 0 64 64" version="1.1" xmlns="http://www.w3.org/2000/svg" xmlns:xlink="http://www.w3.org/1999/xlink">
    <!-- Generator: Sketch 55 (78076) - https://sketchapp.com -->
    <title>settings copy</title>
    <desc>Created with Sketch.</desc>
    <defs>
        <path d="M32,64 C46.0222222,64 53.8173667,64 58.9086889,58.9086889 C64,53.8173667 64,46.0222222 64,32 C64,17.9777778 64,10.1826333 58.9086889,5.09131111 C53.8173667,0 46.0222222,0 32,0 C17.9777778,0 10.1826333,0 5.09131111,5.09131111 C0,10.1826333 0,17.9777778 0,32 C0,46.0222222 0,53.8173667 5.09131111,58.9086889 C10.1826333,64 17.9777778,64 32,64 Z" id="path-1"></path>
        <linearGradient x1="50%" y1="0%" x2="50%" y2="100%" id="linearGradient-3">
            <stop stop-color="#FDFEFF" offset="0%"></stop>
            <stop stop-color="#FBFCFD" stop-opacity="0.9" offset="100%"></stop>
        </linearGradient>
        <path d="M36.9,12.375 C39.1614062,12.375 41,10.5251953 41,8.25 C41,5.97480469 39.1614062,4.125 36.9,4.125 C34.6385937,4.125 32.8,5.97480469 32.8,8.25 C32.8,10.5251953 34.6385937,12.375 36.9,12.375 Z M4.1,15.46875 C1.83859375,15.46875 0,17.3185547 0,19.59375 C0,21.8689453 1.83859375,23.71875 4.1,23.71875 C6.36140625,23.71875 8.2,21.8689453 8.2,19.59375 C8.2,17.3185547 6.36140625,15.46875 4.1,15.46875 Z M32.9025,13.0710938 L31.6725,11.4210938 L28.5975,13.7414063 L29.8275,15.3914063 L32.9025,13.0710938 Z M36.9,24.75 C35.9775,24.75 35.131875,25.0722656 34.4464063,25.5878906 L28.2964063,21.8753906 C28.5398438,21.1535156 28.7,20.3929688 28.7,19.5873047 C28.7,15.5976563 25.4904688,12.3685547 21.525,12.3685547 C20.986875,12.3685547 20.4615625,12.4394531 19.961875,12.5554688 L17.348125,6.92226562 C18.0271875,6.1875 18.45,5.2078125 18.45,4.125 C18.45,1.84980469 16.6114063,0 14.35,0 C12.0885937,0 10.25,1.84980469 10.25,4.125 C10.25,6.40019531 12.0885937,8.25 14.35,8.25 C14.4204687,8.25 14.4845312,8.23066406 14.555,8.23066406 L17.1815625,13.8896484 C15.4710938,15.2044922 14.35,17.2605469 14.35,19.59375 C14.35,23.5833984 17.5595313,26.8125 21.525,26.8125 C23.5814063,26.8125 25.42,25.9294922 26.726875,24.5373047 L32.8640625,28.2433594 C32.8320312,28.4496094 32.8,28.6623047 32.8,28.875 C32.8,31.1501953 34.6385937,33 36.9,33 C39.1614062,33 41,31.1501953 41,28.875 C41,26.5998047 39.1614062,24.75 36.9,24.75 Z M21.525,22.6875 C19.8273437,22.6875 18.45,21.3017578 18.45,19.59375 C18.45,17.8857422 19.8273437,16.5 21.525,16.5 C23.2226562,16.5 24.6,17.8857422 24.6,19.59375 C24.6,21.3017578 23.2226562,22.6875 21.525,22.6875 Z M9.7375,20.625 L12.8125,20.625 L12.8125,18.5625 L9.7375,18.5625 L9.7375,20.625 Z" id="path-4"></path>
        <filter x="-4.9%" y="-3.0%" width="109.8%" height="112.1%" filterUnits="objectBoundingBox" id="filter-5">
            <feOffset dx="0" dy="1" in="SourceAlpha" result="shadowOffsetOuter1"></feOffset>
            <feGaussianBlur stdDeviation="0.5" in="shadowOffsetOuter1" result="shadowBlurOuter1"></feGaussianBlur>
            <feColorMatrix values="0 0 0 0 0   0 0 0 0 0   0 0 0 0 0  0 0 0 0.1 0" type="matrix" in="shadowBlurOuter1"></feColorMatrix>
        </filter>
    </defs>
    <g id="Page-1" stroke="none" stroke-width="1" fill="none" fill-rule="evenodd">
        <g id="Artboard" transform="translate(-745.000000, -512.000000)">
            <g id="settings-copy" transform="translate(745.000000, 512.000000)">
                <mask id="mask-2" fill="white">
                    <use xlink:href="#path-1"></use>
                </mask>
                <use id="Path" fill="#2085FD" xlink:href="#path-1"></use>
                <g id="chart-network" mask="url(#mask-2)" fill-rule="nonzero">
                    <g transform="translate(11.000000, 15.000000)" id="Shape">
                        <g>
                            <use fill="black" fill-opacity="1" filter="url(#filter-5)" xlink:href="#path-4"></use>
                            <use fill="url(#linearGradient-3)" xlink:href="#path-4"></use>
                        </g>
                    </g>
                </g>
            </g>
        </g>
    </g>
</svg>