<svg width="96" height="96" viewBox="0 0 96 96" fill="none" xmlns="http://www.w3.org/2000/svg">
<mask id="mask0" mask-type="alpha" maskUnits="userSpaceOnUse" x="0" y="0" width="96" height="96">
<path d="M48 96C69.0333 96 80.7261 96 88.363 88.363C96 80.7261 96 69.0333 96 48C96 26.9667 96 15.274 88.363 7.63697C80.7261 0 69.0333 0 48 0C26.9667 0 15.274 0 7.63697 7.63697C0 15.274 0 26.9667 0 48C0 69.0333 0 80.7261 7.63697 88.363C15.274 96 26.9667 96 48 96Z" fill="white"/>
</mask>
<g mask="url(#mask0)">
<path d="M48 96C69.0333 96 80.7261 96 88.363 88.363C96 80.7261 96 69.0333 96 48C96 26.9667 96 15.274 88.363 7.63697C80.7261 0 69.0333 0 48 0C26.9667 0 15.274 0 7.63697 7.63697C0 15.274 0 26.9667 0 48C0 69.0333 0 80.7261 7.63697 88.363C15.274 96 26.9667 96 48 96Z" fill="#2085FD"/>
<g filter="url(#filter0_d)">
<path d="M77.8174 45.6644C71.8542 39.4078 67.49 31.7802 65.1022 23.4407L65.1001 23.4343C64.6023 21.6962 62.8325 20.6647 61.0923 21.0992L61.0849 21.1013C52.7393 23.1844 44.0096 23.1844 35.664 21.1013L35.6566 21.0992C33.9164 20.6647 32.1467 21.6962 31.6489 23.4343L31.6467 23.4407C29.26 31.7802 24.8958 39.4078 18.9326 45.6644C17.6891 46.969 17.6891 49.031 18.9326 50.3356C24.8958 56.5922 29.26 64.2198 31.6478 72.5593L31.6499 72.5657C32.1477 74.3038 33.9175 75.3353 35.6577 74.9008L35.6651 74.8987C44.0107 72.8156 52.7404 72.8156 61.086 74.8987L61.0934 74.9008C62.8336 75.3353 64.6033 74.3038 65.1011 72.5657L65.1043 72.553C67.491 64.2166 71.8532 56.5932 77.8132 50.3388L77.8174 50.3346C79.0609 49.031 79.0609 46.968 77.8174 45.6644ZM56.553 28.7733L54.0724 33.0701C50.3144 33.8527 46.4356 33.8527 42.6776 33.0701L40.197 28.7733C45.6229 29.5274 51.1271 29.5274 56.553 28.7733ZM48.375 42.9379L45.9039 38.658C47.549 38.7814 49.201 38.7814 50.8461 38.658L48.375 42.9379ZM49.9403 45.503H49.8522L49.8082 45.427L49.9403 45.503ZM48.375 53.061L50.8472 57.342C50.0245 57.2809 49.1998 57.2376 48.375 57.2376C47.5502 57.2376 46.7265 57.2809 45.9028 57.342L48.375 53.061ZM41.5196 41.1871L43.9907 45.4682H39.0474C39.9766 44.1044 40.8035 42.6732 41.5196 41.1871ZM35.8887 64.5647C33.8452 59.5478 31.1379 54.8277 27.8394 50.5308H32.597C35.1514 53.3901 37.0963 56.7577 38.2933 60.3986L35.8887 64.5647ZM32.597 45.4682H27.8394C31.1379 41.1712 33.8452 36.4511 35.8887 31.4343L38.2944 35.6004C37.0932 39.2461 35.1538 42.6052 32.597 45.4682ZM43.9907 50.5308L41.5196 54.8118C40.8031 53.3253 39.9767 51.8944 39.0474 50.5308H43.9907ZM48.375 66.5918C45.6381 66.5918 42.9097 66.8481 40.197 67.2257L42.6776 62.9299C46.4302 62.1473 50.3188 62.1473 54.0724 62.9299L56.553 67.2257C53.8403 66.8481 51.1119 66.5918 48.375 66.5918ZM55.2304 54.8118L52.7593 50.5308H57.7026C56.7733 51.8944 55.9469 53.3253 55.2304 54.8118ZM52.7582 45.4682L55.2304 41.1871C55.9469 42.6736 56.7733 44.1046 57.7026 45.4682H52.7582ZM60.8613 64.5647L58.4556 60.3986C59.6527 56.7577 61.5986 53.3901 64.153 50.5308H68.9106C65.6121 54.8277 62.9048 59.5478 60.8613 64.5647ZM64.153 45.4682C61.5962 42.6052 59.6568 39.2461 58.4556 35.6004L60.8613 31.4343C62.9048 36.4511 65.6121 41.1712 68.9106 45.4682H64.153Z" fill="black"/>
</g>
<path d="M77.8174 45.6644C71.8542 39.4078 67.49 31.7802 65.1022 23.4407L65.1001 23.4343C64.6023 21.6962 62.8325 20.6647 61.0923 21.0992L61.0849 21.1013C52.7393 23.1844 44.0096 23.1844 35.664 21.1013L35.6566 21.0992C33.9164 20.6647 32.1467 21.6962 31.6489 23.4343L31.6467 23.4407C29.26 31.7802 24.8958 39.4078 18.9326 45.6644C17.6891 46.969 17.6891 49.031 18.9326 50.3356C24.8958 56.5922 29.26 64.2198 31.6478 72.5593L31.6499 72.5657C32.1477 74.3038 33.9175 75.3353 35.6577 74.9008L35.6651 74.8987C44.0107 72.8156 52.7404 72.8156 61.086 74.8987L61.0934 74.9008C62.8336 75.3353 64.6033 74.3038 65.1011 72.5657L65.1043 72.553C67.491 64.2166 71.8532 56.5932 77.8132 50.3388L77.8174 50.3346C79.0609 49.031 79.0609 46.968 77.8174 45.6644ZM56.553 28.7733L54.0724 33.0701C50.3144 33.8527 46.4356 33.8527 42.6776 33.0701L40.197 28.7733C45.6229 29.5274 51.1271 29.5274 56.553 28.7733ZM48.375 42.9379L45.9039 38.658C47.549 38.7814 49.201 38.7814 50.8461 38.658L48.375 42.9379ZM49.9403 45.503H49.8522L49.8082 45.427L49.9403 45.503ZM48.375 53.061L50.8472 57.342C50.0245 57.2809 49.1998 57.2376 48.375 57.2376C47.5502 57.2376 46.7265 57.2809 45.9028 57.342L48.375 53.061ZM41.5196 41.1871L43.9907 45.4682H39.0474C39.9766 44.1044 40.8035 42.6732 41.5196 41.1871ZM35.8887 64.5647C33.8452 59.5478 31.1379 54.8277 27.8394 50.5308H32.597C35.1514 53.3901 37.0963 56.7577 38.2933 60.3986L35.8887 64.5647ZM32.597 45.4682H27.8394C31.1379 41.1712 33.8452 36.4511 35.8887 31.4343L38.2944 35.6004C37.0932 39.2461 35.1538 42.6052 32.597 45.4682ZM43.9907 50.5308L41.5196 54.8118C40.8031 53.3253 39.9767 51.8944 39.0474 50.5308H43.9907ZM48.375 66.5918C45.6381 66.5918 42.9097 66.8481 40.197 67.2257L42.6776 62.9299C46.4302 62.1473 50.3188 62.1473 54.0724 62.9299L56.553 67.2257C53.8403 66.8481 51.1119 66.5918 48.375 66.5918ZM55.2304 54.8118L52.7593 50.5308H57.7026C56.7733 51.8944 55.9469 53.3253 55.2304 54.8118ZM52.7582 45.4682L55.2304 41.1871C55.9469 42.6736 56.7733 44.1046 57.7026 45.4682H52.7582ZM60.8613 64.5647L58.4556 60.3986C59.6527 56.7577 61.5986 53.3901 64.153 50.5308H68.9106C65.6121 54.8277 62.9048 59.5478 60.8613 64.5647ZM64.153 45.4682C61.5962 42.6052 59.6568 39.2461 58.4556 35.6004L60.8613 31.4343C62.9048 36.4511 65.6121 41.1712 68.9106 45.4682H64.153Z" fill="url(#paint0_linear)"/>
</g>
<defs>
<filter id="filter0_d" x="17" y="21" width="62.75" height="56" filterUnits="userSpaceOnUse" color-interpolation-filters="sRGB">
<feFlood flood-opacity="0" result="BackgroundImageFix"/>
<feColorMatrix in="SourceAlpha" type="matrix" values="0 0 0 0 0 0 0 0 0 0 0 0 0 0 0 0 0 0 127 0"/>
<feOffset dy="1"/>
<feGaussianBlur stdDeviation="0.5"/>
<feColorMatrix type="matrix" values="0 0 0 0 0 0 0 0 0 0 0 0 0 0 0 0 0 0 0.1 0"/>
<feBlend mode="normal" in2="BackgroundImageFix" result="effect1_dropShadow"/>
<feBlend mode="normal" in="SourceGraphic" in2="effect1_dropShadow" result="shape"/>
</filter>
<linearGradient id="paint0_linear" x1="48.375" y1="21" x2="48.375" y2="75" gradientUnits="userSpaceOnUse">
<stop stop-color="#FDFEFF"/>
<stop offset="1" stop-color="#FBFCFD" stop-opacity="0.9"/>
</linearGradient>
</defs>
</svg>
