<svg width="1024" height="1024" viewBox="0 0 1024 1024" fill="none" xmlns="http://www.w3.org/2000/svg">
<rect x="272" y="750" width="480" height="480" rx="240" transform="rotate(-90 272 750)" fill="url(#paint0_radial)"/>
<path d="M779.401 690.055C763.149 680.672 742.59 685.529 730.231 699.651C709.823 722.97 685.301 743.388 656.977 759.748C534.977 830.214 383.064 801.903 293.774 699.618C281.426 685.474 260.849 680.595 244.589 689.983L141.228 749.658C123.426 759.936 117.748 783.124 130.179 799.494C274.252 989.211 540.303 1046.58 751.961 924.333C808.828 891.487 856.433 848.757 893.861 799.564C906.308 783.204 900.614 760.038 882.811 749.759L779.401 690.055Z" fill="url(#paint1_radial)"/>
<path fill-rule="evenodd" clip-rule="evenodd" d="M955.292 692.569C947.404 711.623 924.423 718.359 906.564 708.048L803.11 648.319C786.927 638.976 780.824 618.86 786.781 601.149C812.4 524.975 806.432 438.579 763.106 363.505C719.695 288.284 647.692 239.873 568.76 224.078C566.956 223.717 565.189 223.243 563.471 222.664C529.689 216.564 494.736 216.413 460.291 222.662C458.63 223.213 456.925 223.665 455.185 224.013C424.963 230.056 395.196 241.061 367.024 257.333C245.351 327.609 193.853 472.785 237.124 601.034C243.106 618.763 237.021 638.926 220.817 648.282L117.39 707.995C99.5511 718.294 76.5822 711.566 68.6672 692.548C2.33824 533.176 28.224 353.227 128.319 219.925C129.03 218.734 129.819 217.568 130.687 216.431C168.04 167.543 215.472 125.071 272.08 92.3884C483.604 -29.735 749.443 27.4341 893.619 216.742C894.709 218.173 895.673 219.651 896.514 221.166C907.665 236.137 918.063 251.917 927.623 268.482C1005.23 402.963 1010.42 559.392 955.292 692.569Z" fill="url(#paint2_radial)"/>
<defs>
<radialGradient id="paint0_radial" cx="0" cy="0" r="1" gradientUnits="userSpaceOnUse" gradientTransform="translate(752.223 990.248) rotate(-180) scale(480 732.283)">
<stop stop-color="#FB923C"/>
<stop offset="1" stop-color="#EA580C"/>
</radialGradient>
<radialGradient id="paint1_radial" cx="0" cy="0" r="1" gradientUnits="userSpaceOnUse" gradientTransform="translate(512.001 515) rotate(90) scale(474)">
<stop stop-color="#F87171"/>
<stop offset="1" stop-color="#EF4444"/>
</radialGradient>
<radialGradient id="paint2_radial" cx="0" cy="0" r="1" gradientUnits="userSpaceOnUse" gradientTransform="translate(512 -19.999) rotate(90) scale(544 2114.78)">
<stop stop-color="#38BDF8"/>
<stop offset="1" stop-color="#0284C7"/>
</radialGradient>
</defs>
</svg>
