<svg width="64" height="64" viewBox="0 0 64 64" fill="none" xmlns="http://www.w3.org/2000/svg">
<rect width="64" height="64" rx="12" fill="url(#paint0_linear_20_184)"/>
<path fill-rule="evenodd" clip-rule="evenodd" d="M55.5124 36.8368C53.2745 47.7732 43.598 56 32 56C25.9198 56 20.3677 53.739 16.1386 50.012C15.1818 49.1687 14.2926 48.2504 13.4804 47.2662C10.0567 43.1176 8 37.799 8 32C8 18.7452 18.7452 8 32 8C38.0802 8 43.6323 10.261 47.8614 13.988C48.8182 14.8313 49.7074 15.7496 50.5196 16.7338C53.9433 20.8824 56 26.201 56 32C56 33.6569 55.8321 35.2745 55.5124 36.8368ZM42.071 49.9418C39.0943 51.6163 35.6587 52.5714 32 52.5714C29.5693 52.5714 27.237 52.1499 25.0724 51.3758C24.7077 51.2454 24.7066 50.7256 25.0486 50.5437C26.9357 49.5398 28.4031 47.8512 29.1193 45.8092C29.1927 45.5999 29.4068 45.4713 29.6253 45.5094C30.3966 45.6441 31.1901 45.7143 32 45.7143C35.6885 45.7143 39.037 44.2581 41.5018 41.8893C41.7864 41.6157 42.2857 41.8098 42.2857 42.2046V49.5721C42.2857 49.7251 42.2044 49.8668 42.071 49.9418ZM46.4136 46.6776C50.2142 42.945 52.5714 37.7478 52.5714 32C52.5714 29.5692 52.1498 27.2368 51.3757 25.0721C51.2453 24.7074 50.7255 24.7063 50.5436 25.0483C49.5398 26.9354 47.8511 28.4028 45.8091 29.1191C45.5998 29.1925 45.4712 29.4066 45.5094 29.6251C45.6441 30.3965 45.7143 31.19 45.7143 32V46.3746C45.7143 46.745 46.1493 46.9372 46.4136 46.6776ZM42.2857 32C42.2857 37.6806 37.6806 42.2857 32 42.2857C31.2576 42.2857 30.5335 42.2071 29.8358 42.0576C29.6603 42.02 29.5322 41.872 29.5057 41.6945C28.9513 37.9828 26.0172 35.0488 22.3055 34.4945C22.128 34.4679 21.98 34.3399 21.9424 34.1644C21.793 33.4666 21.7143 32.7425 21.7143 32C21.7143 26.3194 26.3194 21.7143 32 21.7143C32.7424 21.7143 33.4665 21.7929 34.1642 21.9424C34.3397 21.98 34.4678 22.128 34.4943 22.3055C35.0487 26.0172 37.9828 28.9512 41.6945 29.5056C41.872 29.5321 42.02 29.6601 42.0576 29.8356C42.207 30.5334 42.2857 31.2575 42.2857 32ZM25.99 44.3307C26.1084 43.8978 26.1716 43.442 26.1716 42.9715C26.1716 40.1311 23.8691 37.8286 21.0287 37.8286C20.5582 37.8286 20.1023 37.8918 19.6693 38.0102C18.579 38.3082 17.6331 38.9561 16.9599 39.8257C16.2866 40.6953 15.8859 41.7865 15.8859 42.9714C15.8859 43.0356 15.8871 43.0994 15.8894 43.163C15.9243 44.1166 16.2188 45.0039 16.7044 45.7563C17.62 47.1751 19.2147 48.1143 21.0287 48.1143C22.7933 48.1143 24.3503 47.2257 25.2766 45.8715C25.5943 45.407 25.8378 44.8877 25.99 44.3307ZM22.4982 22.1107C22.2136 22.3843 21.7143 22.1902 21.7143 21.7954V14.4279C21.7143 14.2749 21.7956 14.1332 21.929 14.0582C24.9057 12.3837 28.3413 11.4286 32 11.4286C34.4307 11.4286 36.763 11.8501 38.9276 12.6242C39.2923 12.7546 39.2934 13.2744 38.9514 13.4563C37.0643 14.4602 35.5969 16.1488 34.8807 18.1908C34.8073 18.4001 34.5932 18.5287 34.3747 18.4906C33.6034 18.3559 32.8099 18.2857 32 18.2857C28.3115 18.2857 24.963 19.7419 22.4982 22.1107ZM18.2857 17.6254C18.2857 17.255 17.8507 17.0628 17.5864 17.3224C13.7858 21.055 11.4286 26.2522 11.4286 32C11.4286 34.4308 11.8502 36.7632 12.6243 38.9279C12.7547 39.2926 13.2745 39.2937 13.4564 38.9517C14.4603 37.0646 16.1489 35.5972 18.1909 34.8809C18.4002 34.8075 18.5288 34.5934 18.4906 34.3749C18.3559 33.6035 18.2857 32.81 18.2857 32V17.6254ZM42.9713 15.8857C41.1939 15.8857 39.6272 16.7873 38.7034 18.1581C38.3955 18.615 38.159 19.1241 38.01 19.6693C37.8916 20.1022 37.8284 20.558 37.8284 21.0285C37.8284 23.8689 40.1309 26.1714 42.9713 26.1714C43.4418 26.1714 43.8976 26.1082 44.3307 25.9898C45.6936 25.6173 46.8308 24.6981 47.492 23.4826C47.8887 22.7532 48.1141 21.9172 48.1141 21.0285C48.1141 20.9644 48.1129 20.9006 48.1106 20.837C48.0757 19.8834 47.7812 18.9961 47.2956 18.2437C46.38 16.825 44.7854 15.8857 42.9713 15.8857Z" fill="white"/>
<defs>
<linearGradient id="paint0_linear_20_184" x1="32" y1="0" x2="32" y2="64" gradientUnits="userSpaceOnUse">
<stop stop-color="#71717A"/>
<stop offset="1" stop-color="#52525B"/>
</linearGradient>
</defs>
</svg>
