<?xml version="1.0" encoding="UTF-8"?>
<svg width="64px" height="64px" viewBox="0 0 64 64" version="1.1" xmlns="http://www.w3.org/2000/svg" xmlns:xlink="http://www.w3.org/1999/xlink">
    <!-- Generator: Sketch 55 (78076) - https://sketchapp.com -->
    <title>discussions</title>
    <desc>Created with Sketch.</desc>
    <defs>
        <path d="M32,64 C46.0222222,64 53.8173667,64 58.9086889,58.9086889 C64,53.8173667 64,46.0222222 64,32 C64,17.9777778 64,10.1826333 58.9086889,5.09131111 C53.8173667,0 46.0222222,0 32,0 C17.9777778,0 10.1826333,0 5.09131111,5.09131111 C0,10.1826333 0,17.9777778 0,32 C0,46.0222222 0,53.8173667 5.09131111,58.9086889 C10.1826333,64 17.9777778,64 32,64 Z" id="path-1"></path>
        <linearGradient x1="50%" y1="0%" x2="50%" y2="100%" id="linearGradient-3">
            <stop stop-color="#FDFEFF" offset="0%"></stop>
            <stop stop-color="#FBFCFD" stop-opacity="0.9" offset="100%"></stop>
        </linearGradient>
        <filter x="-12.2%" y="-11.1%" width="124.4%" height="127.8%" filterUnits="objectBoundingBox" id="filter-4">
            <feOffset dx="0" dy="1" in="SourceAlpha" result="shadowOffsetOuter1"></feOffset>
            <feGaussianBlur stdDeviation="0.5" in="shadowOffsetOuter1" result="shadowBlurOuter1"></feGaussianBlur>
            <feColorMatrix values="0 0 0 0 0   0 0 0 0 0   0 0 0 0 0  0 0 0 0.1 0" type="matrix" in="shadowBlurOuter1" result="shadowMatrixOuter1"></feColorMatrix>
            <feMerge>
                <feMergeNode in="shadowMatrixOuter1"></feMergeNode>
                <feMergeNode in="SourceGraphic"></feMergeNode>
            </feMerge>
        </filter>
        <linearGradient x1="50%" y1="0%" x2="50%" y2="100%" id="linearGradient-5">
            <stop stop-color="#FDFEFF" offset="0%"></stop>
            <stop stop-color="#FBFCFD" stop-opacity="0.9" offset="100%"></stop>
        </linearGradient>
        <path d="M29.6111111,15.693693 L29.6111111,4.48391228 C29.6111111,2.01075441 27.5682292,0 25.0555556,0 L4.55555556,0 C2.04288194,0 0,2.01075441 0,4.48391228 L0,15.693693 C0,18.1668509 2.04288194,20.1776053 4.55555556,20.1776053 L4.55555556,23.9749185 C4.55555556,24.5354075 5.20329861,24.8576887 5.65885417,24.5213953 L11.5526042,20.1705992 L25.0555556,20.1705992 C27.5682292,20.1776053 29.6111111,18.1668509 29.6111111,15.693693 Z M36.4444444,11.2097807 L31.8888889,11.2097807 L31.8888889,15.693693 C31.8888889,19.3999267 28.8210069,22.4195614 25.0555556,22.4195614 L13.6666667,22.4195614 L13.6666667,26.9034737 C13.6666667,29.3766316 15.7095486,31.387386 18.2222222,31.387386 L27.1696181,31.387386 L33.0633681,35.7381821 C33.5189236,36.0744755 34.1666667,35.7521943 34.1666667,35.1917053 L34.1666667,31.387386 L36.4444444,31.387386 C38.9571181,31.387386 41,29.3766316 41,26.9034737 L41,15.693693 C41,13.2205351 38.9571181,11.2097807 36.4444444,11.2097807 Z" id="path-6"></path>
        <filter x="-4.9%" y="-2.8%" width="109.8%" height="111.1%" filterUnits="objectBoundingBox" id="filter-7">
            <feOffset dx="0" dy="1" in="SourceAlpha" result="shadowOffsetOuter1"></feOffset>
            <feGaussianBlur stdDeviation="0.5" in="shadowOffsetOuter1" result="shadowBlurOuter1"></feGaussianBlur>
            <feColorMatrix values="0 0 0 0 0   0 0 0 0 0   0 0 0 0 0  0 0 0 0.1 0" type="matrix" in="shadowBlurOuter1"></feColorMatrix>
        </filter>
    </defs>
    <g id="Page-1" stroke="none" stroke-width="1" fill="none" fill-rule="evenodd">
        <g id="Artboard" transform="translate(-1069.000000, -430.000000)">
            <g id="discussions" transform="translate(1069.000000, 430.000000)">
                <mask id="mask-2" fill="white">
                    <use xlink:href="#path-1"></use>
                </mask>
                <use id="Path" fill="#00B356" xlink:href="#path-1"></use>
                <g id="comments-alt" filter="url(#filter-4)" mask="url(#mask-2)" fill-rule="nonzero">
                    <g transform="translate(12.000000, 16.000000)" id="Shape">
                        <g>
                            <use fill="black" fill-opacity="1" filter="url(#filter-7)" xlink:href="#path-6"></use>
                            <use fill="url(#linearGradient-5)" xlink:href="#path-6"></use>
                        </g>
                    </g>
                </g>
            </g>
        </g>
    </g>
</svg>