<svg width="320" height="320" viewBox="0 0 320 320" fill="none" xmlns="http://www.w3.org/2000/svg">
<g clip-path="url(#clip0_1014_7088)">
<path d="M160 0C281.326 0 320 38.6737 320 160C320 281.326 281.326 320 160 320C38.6736 320 0 281.326 0 160C0 38.6737 38.6736 0 160 0Z" fill="url(#paint0_linear_1014_7088)"/>
<path d="M160 2C220.573 2 259.85 11.6833 284.083 35.9168C308.317 60.1504 318 99.4272 318 160C318 220.573 308.317 259.85 284.083 284.083C259.85 308.317 220.573 318 160 318C99.4272 318 60.1504 308.317 35.9168 284.083C11.6833 259.85 2 220.573 2 160C2 99.4272 11.6833 60.1504 35.9168 35.9168C60.1504 11.6833 99.4272 2 160 2Z" stroke="#F8FAFC" stroke-opacity="0.2" stroke-width="4"/>
<g clip-path="url(#clip1_1014_7088)">
<g clip-path="url(#clip2_1014_7088)">
<path d="M211.929 153.965C213.537 153.776 215.073 153.767 216.483 153.965C217.3 152.088 217.444 148.854 216.707 145.334C215.611 140.098 214.13 136.928 211.076 137.422C208.013 137.915 207.906 141.706 209.001 146.941C209.612 149.887 210.708 152.402 211.929 153.965Z" fill="#CBD5E1"/>
<path d="M185.659 158.105C187.851 159.066 189.198 159.704 189.719 159.147C190.06 158.797 189.952 158.141 189.431 157.288C188.354 155.527 186.126 153.731 183.773 152.734C178.951 150.66 173.203 151.351 168.766 154.54C167.302 155.608 165.91 157.099 166.108 157.997C166.171 158.294 166.395 158.509 166.907 158.581C168.11 158.716 172.332 156.587 177.19 156.291C180.63 156.075 183.468 157.144 185.659 158.105Z" fill="#CBD5E1"/>
<path d="M181.259 160.62C178.412 161.069 176.831 162.012 175.825 162.883C174.963 163.637 174.433 164.472 174.433 165.056C174.433 165.335 174.559 165.496 174.649 165.577C174.774 165.694 174.936 165.757 175.116 165.757C175.762 165.757 177.199 165.182 177.199 165.182C181.169 163.763 183.782 163.934 186.378 164.23C187.815 164.392 188.488 164.481 188.803 163.988C188.893 163.844 189.009 163.538 188.722 163.08C188.066 161.985 185.183 160.153 181.259 160.62Z" fill="#CBD5E1"/>
<path d="M203.056 169.843C204.995 170.795 207.124 170.418 207.815 169.008C208.507 167.598 207.501 165.685 205.57 164.733C203.63 163.781 201.502 164.158 200.81 165.568C200.11 166.978 201.125 168.891 203.056 169.843Z" fill="#CBD5E1"/>
<path d="M215.503 158.967C213.932 158.94 212.629 160.665 212.594 162.82C212.558 164.975 213.806 166.745 215.378 166.772C216.949 166.799 218.252 165.074 218.288 162.919C218.323 160.763 217.075 158.994 215.503 158.967Z" fill="#CBD5E1"/>
<path d="M109.868 197.855C109.473 197.361 108.836 197.514 108.216 197.657C107.785 197.756 107.291 197.873 106.752 197.864C105.593 197.846 104.615 197.343 104.067 196.499C103.348 195.403 103.393 193.759 104.183 191.882C104.291 191.631 104.417 191.353 104.552 191.038C105.809 188.209 107.929 183.476 105.558 178.959C103.77 175.564 100.86 173.444 97.3668 173.004C94.0079 172.582 90.5502 173.822 88.3498 176.255C84.8742 180.09 84.3263 185.317 84.9999 187.158C85.2424 187.832 85.6286 188.021 85.916 188.057C86.5087 188.137 87.3799 187.706 87.9277 186.233C87.9636 186.126 88.0175 185.964 88.0804 185.757C88.3229 184.976 88.7809 183.521 89.5263 182.363C90.4245 180.961 91.8255 179.992 93.469 179.641C95.1395 179.282 96.8549 179.605 98.2829 180.539C100.717 182.138 101.66 185.12 100.618 187.967C100.079 189.44 99.2079 192.26 99.3965 194.577C99.7827 199.265 102.666 201.142 105.261 201.348C107.776 201.447 109.536 200.028 109.985 198.995C110.237 198.385 110.012 198.017 109.868 197.855Z" fill="#CBD5E1"/>
<path d="M255.182 189.287C255.083 188.946 254.463 186.664 253.601 183.916C252.739 181.168 251.859 179.228 251.859 179.228C255.298 174.073 255.361 169.466 254.903 166.861C254.418 163.628 253.071 160.871 250.35 158.024C247.638 155.177 242.087 152.258 234.283 150.067C233.394 149.815 230.448 149.007 230.187 148.926C230.169 148.755 229.972 139.28 229.792 135.203C229.666 132.257 229.406 127.668 227.987 123.141C226.29 117.016 223.326 111.664 219.635 108.233C229.828 97.6711 236.187 86.0316 236.178 76.0447C236.151 56.8432 212.567 51.0325 183.504 63.0671C183.477 63.076 177.388 65.6626 177.343 65.6806C177.316 65.6536 166.215 54.7596 166.045 54.6159C132.923 25.7148 29.326 140.87 62.4482 168.837L69.6869 174.971C67.8099 179.839 67.0734 185.407 67.6751 191.397C68.4475 199.094 72.4171 206.477 78.8566 212.171C84.9637 217.586 92.9927 221.008 100.788 220.999C113.676 250.699 143.125 268.922 177.657 269.946C214.695 271.05 245.787 253.663 258.819 222.445C259.672 220.254 263.292 210.383 263.292 201.663C263.292 192.915 258.343 189.287 255.182 189.287ZM103.635 212.665C102.513 212.853 101.363 212.934 100.205 212.907C89.0141 212.611 76.9346 202.534 75.7312 190.589C74.402 177.387 81.1467 167.229 93.0915 164.813C94.5195 164.526 96.2439 164.355 98.103 164.454C104.794 164.822 114.655 169.96 116.909 184.536C118.912 197.451 115.742 210.599 103.635 212.665ZM91.1427 156.919C83.7063 158.365 77.1502 162.577 73.1446 168.397C70.7467 166.403 66.2831 162.532 65.5017 161.023C59.1072 148.872 72.48 125.252 81.8293 111.915C104.929 78.9546 141.104 53.9962 157.854 58.5227C160.575 59.295 169.592 69.749 169.592 69.749C169.592 69.749 152.852 79.0354 137.323 91.9861C116.415 108.098 100.609 131.512 91.1427 156.919ZM208.57 207.725C208.812 207.626 208.983 207.348 208.956 207.069C208.92 206.728 208.615 206.486 208.283 206.522C208.283 206.522 190.761 209.117 174.199 203.055C176.005 197.19 180.801 199.31 188.048 199.893C201.116 200.675 212.818 198.762 221.476 196.283C228.975 194.128 238.818 189.889 246.47 183.853C249.048 189.52 249.964 195.753 249.964 195.753C249.964 195.753 251.957 195.394 253.628 196.427C255.209 197.397 256.358 199.417 255.568 204.627C253.96 214.371 249.82 222.283 242.86 229.558C238.621 234.12 233.474 238.09 227.592 240.973C224.466 242.616 221.134 244.035 217.623 245.185C191.38 253.753 164.518 244.332 155.86 224.097C155.169 222.58 154.585 220.981 154.127 219.32C150.436 205.983 153.57 189.987 163.359 179.911C163.359 179.911 163.359 179.911 163.359 179.902C163.961 179.264 164.581 178.51 164.581 177.558C164.581 176.758 164.078 175.923 163.638 175.33C160.216 170.364 148.343 161.895 150.723 145.504C152.429 133.73 162.731 125.441 172.331 125.934C173.14 125.979 173.957 126.024 174.765 126.078C178.924 126.321 182.552 126.86 185.983 127.003C191.713 127.255 196.868 126.419 202.975 121.327C205.031 119.612 206.684 118.121 209.477 117.654C209.773 117.6 210.501 117.34 211.965 117.411C213.456 117.492 214.875 117.896 216.15 118.75C221.045 122.01 221.736 129.895 221.988 135.661C222.131 138.957 222.527 146.923 222.67 149.213C222.985 154.44 224.359 155.186 227.134 156.102C228.697 156.614 230.151 157 232.289 157.602C238.764 159.425 242.608 161.266 245.033 163.637C246.479 165.119 247.153 166.691 247.359 168.19C248.123 173.759 243.03 180.647 229.559 186.898C214.83 193.732 196.957 195.466 184.609 194.092C183.666 193.984 180.298 193.607 180.28 193.607C170.4 192.278 164.769 205.04 170.697 213.787C174.514 219.427 184.923 223.092 195.332 223.092C219.204 223.092 237.552 212.898 244.377 204.097C244.584 203.836 244.602 203.8 244.925 203.315C245.258 202.812 244.988 202.534 244.566 202.812C238.989 206.629 214.219 221.771 187.734 217.218C187.734 217.218 184.519 216.688 181.573 215.547C179.238 214.64 174.352 212.395 173.759 207.375C195.107 213.976 208.57 207.725 208.57 207.725ZM174.702 203.728C174.702 203.728 174.711 203.728 174.702 203.728C174.711 203.737 174.711 203.737 174.711 203.746C174.711 203.737 174.711 203.728 174.702 203.728ZM133.803 111.78C142.011 102.287 152.124 94.0427 161.177 89.4085C161.491 89.2469 161.824 89.5881 161.653 89.8935C160.934 91.1957 159.551 93.9799 159.111 96.0994C159.039 96.4317 159.399 96.6742 159.677 96.4856C165.308 92.6417 175.116 88.5284 183.71 87.9985C184.079 87.9715 184.258 88.4475 183.962 88.6721C182.651 89.6779 181.223 91.061 180.181 92.4621C180.001 92.7046 180.172 93.0458 180.468 93.0458C186.504 93.0907 195.018 95.2013 200.559 98.3087C200.936 98.5153 200.667 99.2428 200.245 99.153C191.856 97.231 178.115 95.7671 163.844 99.2518C151.109 102.359 141.383 107.155 134.288 112.319C133.946 112.589 133.515 112.122 133.803 111.78Z" fill="#CBD5E1"/>
</g>
</g>
</g>
<defs>
<linearGradient id="paint0_linear_1014_7088" x1="160" y1="0" x2="160" y2="320" gradientUnits="userSpaceOnUse">
<stop stop-color="#475569"/>
<stop offset="1" stop-color="#1E293B"/>
</linearGradient>
<clipPath id="clip0_1014_7088">
<rect width="320" height="320" fill="white"/>
</clipPath>
<clipPath id="clip1_1014_7088">
<rect width="240" height="240" fill="white" transform="translate(40 40)"/>
</clipPath>
<clipPath id="clip2_1014_7088">
<rect width="207.292" height="220" fill="white" transform="translate(56 50)"/>
</clipPath>
</defs>
</svg>
