<?xml version="1.0" encoding="UTF-8"?>
<svg width="600px" height="600px" viewBox="0 0 600 600" version="1.1" xmlns="http://www.w3.org/2000/svg" xmlns:xlink="http://www.w3.org/1999/xlink">
    <!-- Generator: Sketch 40.3 (33839) - http://www.bohemiancoding.com/sketch -->
    <title>Group 2 Copy 32</title>
    <desc>Created with Sketch.</desc>
    <defs>
        <path d="M552.268958,552.268958 C600,504.537813 600,431.458333 600,300 C600,168.541667 600,95.4621875 552.268958,47.7310417 C504.537813,0 431.458333,0 300,0 C168.541667,0 95.4621875,0 47.7310417,47.7310417 C0,95.4621875 0,168.541667 0,300 C0,431.458333 0,504.537813 47.7310417,552.268958 C95.4621875,600 168.541667,600 300,600 C431.458333,600 504.537813,600 552.268958,552.268958 L552.268958,552.268958 Z" id="path-1"></path>
        <pattern id="pattern-2" patternUnits="objectBoundingBox" x="nan%" width="nan%" height="100%">
            <use xlink:href="#image-3" transform="scale(inf,inf)"></use>
        </pattern>
        <image id="image-3" width="0" height="0"></image>
        <linearGradient x1="50%" y1="0%" x2="50%" y2="100%" id="linearGradient-5">
            <stop stop-color="#FFFFFF" stop-opacity="0.2" offset="0%"></stop>
            <stop stop-color="#000000" stop-opacity="0.138870018" offset="100%"></stop>
        </linearGradient>
    </defs>
    <g id="Page-1" stroke="none" stroke-width="1" fill="none" fill-rule="evenodd">
        <g id="Group-2-Copy-32">
            <g id="ru">
                <mask id="mask-4" fill="white">
                    <use xlink:href="#path-1"></use>
                </mask>
                <use id="Mask-Copy" fill="url(#pattern-2)" xlink:href="#path-1"></use>
                <g id="au" mask="url(#mask-4)">
                    <g transform="translate(-1.000000, 1.000000)" id="Group">
                        <g>
                            <polygon id="Shape" fill="#000066" points="0 0 600 0 600 600 0 600"></polygon>
                            <path d="M0,0 L0,32.7539062 L359.808984,292.96875 L405.098437,292.96875 L405.098437,260.214844 L45.2894531,0 L0,0 L0,0 Z M405.098438,0 L405.098438,32.7539062 L45.2894531,292.96875 L0,292.96875 L0,260.214844 L359.808984,0 L405.098437,0 L405.098438,0 Z" id="Shape" fill="#FFFFFF"></path>
                            <path d="M168.791016,0 L168.791016,292.96875 L236.307422,292.96875 L236.307422,0 L168.789844,0 L168.791016,0 Z M0,97.6558594 L0,195.311719 L405.098438,195.311719 L405.098438,97.6558594 L0,97.6558594 L0,97.6558594 Z" id="Shape" fill="#FFFFFF"></path>
                            <path d="M182.294531,0 L182.294531,292.96875 L222.803906,292.96875 L222.803906,0 L182.294531,0 L182.294531,0 Z M0,292.96875 L135.032813,195.311719 L165.226172,195.311719 L30.1933594,292.96875 L0,292.96875 L0,292.96875 Z M0,0 L135.032813,97.6558594 L104.839453,97.6558594 L0,21.8355469 L0,0 L0,0 Z M239.871094,97.6558594 L374.90625,0 L405.098438,0 L270.065625,97.6558594 L239.871094,97.6558594 L239.871094,97.6558594 Z M405.099609,292.96875 L270.066797,195.311719 L300.260156,195.311719 L405.100781,271.132031 L405.100781,292.96875 L405.099609,292.96875 Z" id="Shape" fill="#CC0000"></path>
                            <path d="M64.3195313,432 L111.973828,450.046875 L127.583203,401.527734 L143.192578,450.045703 L190.848047,431.998828 L162.652734,474.447656 L206.475,500.459766 L155.702344,504.874219 L162.698438,555.360938 L127.585547,518.414062 L92.4761719,555.359766 L99.4699219,504.871875 L48.6960938,500.457422 L92.5207031,474.445312 M473.211328,558.296484 L451.153125,560.216016 L454.196484,582.144141 L438.938672,566.098828 L423.680859,582.144141 L426.725391,560.218359 L404.667188,558.296484 L423.706641,546.99375 L411.451172,528.553125 L432.164063,536.396484 L438.9375,515.314453 L445.714453,536.396484 L466.427344,528.554297 L454.171875,546.996094 M473.211328,230.176172 L451.153125,232.095703 L454.196484,254.021484 L438.938672,237.978516 L423.680859,254.021484 L426.725391,232.095703 L404.667188,230.176172 L423.706641,218.873438 L411.451172,200.431641 L432.164063,208.271484 L438.9375,187.195312 L445.714453,208.272656 L466.427344,200.432812 L454.171875,218.873437 M350.165625,363.474609 L328.107422,365.394141 L331.150781,387.319922 L315.892969,371.276953 L300.635156,387.319922 L303.679688,365.394141 L281.621484,363.474609 L300.660938,352.170703 L288.405469,333.730078 L309.118359,341.572266 L315.895313,320.490234 L322.66875,341.572266 L343.382813,333.730078 L331.125,352.169531 M582.574219,330.663281 L560.507813,332.582812 L563.542969,354.508594 L548.285156,338.465625 L533.027344,354.508594 L536.0625,332.582812 L514.037109,330.663281 L533.109375,319.359375 L520.828125,300.91875 L541.558594,308.760937 L548.285156,287.678906 L555.09375,308.760937 L575.765625,300.91875 L563.542969,319.359375 M488.15625,416.032031 L476.097656,423.505078 L479.486719,409.733203 L468.650391,400.586719 L482.799609,399.54375 L488.155078,386.411719 L493.510547,399.544922 L507.662109,400.587891 L496.825781,409.733203 L500.2125,423.50625" id="Shape" fill="#FFFFFF"></path>
                            <polygon id="Path" fill="#CC0000" points="0 117.1875 0 175.78125 405.098438 175.78125 405.098438 117.1875"></polygon>
                        </g>
                    </g>
                </g>
            </g>
            <path d="M552.268958,552.268958 C600,504.537813 600,431.458333 600,300 C600,168.541667 600,95.4621875 552.268958,47.7310417 C504.537813,0 431.458333,0 300,0 C168.541667,0 95.4621875,0 47.7310417,47.7310417 C0,95.4621875 0,168.541667 0,300 C0,431.458333 0,504.537813 47.7310417,552.268958 C95.4621875,600 168.541667,600 300,600 C431.458333,600 504.537813,600 552.268958,552.268958 L552.268958,552.268958 Z" id="path-copy" fill="url(#linearGradient-5)"></path>
        </g>
    </g>
</svg>