<svg width="320" height="320" viewBox="0 0 320 320" fill="none" xmlns="http://www.w3.org/2000/svg">
<g clip-path="url(#clip0_1006_8400)">
<path d="M160 0C281.326 0 320 38.6737 320 160C320 281.326 281.326 320 160 320C38.6736 320 0 281.326 0 160C0 38.6737 38.6736 0 160 0Z" fill="url(#paint0_linear_1006_8400)"/>
<path d="M160 2C220.573 2 259.85 11.6833 284.083 35.9168C308.317 60.1504 318 99.4272 318 160C318 220.573 308.317 259.85 284.083 284.083C259.85 308.317 220.573 318 160 318C99.4272 318 60.1504 308.317 35.9168 284.083C11.6833 259.85 2 220.573 2 160C2 99.4272 11.6833 60.1504 35.9168 35.9168C60.1504 11.6833 99.4272 2 160 2Z" stroke="#0F172A" stroke-opacity="0.2" stroke-width="4"/>
<g clip-path="url(#clip1_1006_8400)">
<path fill-rule="evenodd" clip-rule="evenodd" d="M160 50C243.412 50 270 76.5882 270 160C270 243.412 243.412 270 160 270C143.995 270 130.082 269.021 118.048 266.85C112.267 265.807 109.048 259.651 109.617 253.804C109.878 251.12 110 248.19 110 245C110 218.46 101.54 210 75 210C71.8096 210 68.8804 210.122 66.1958 210.383C60.3487 210.952 54.1935 207.733 53.1503 201.952C50.9789 189.918 50 176.005 50 160C50 76.5882 76.5881 50 160 50ZM196.398 210H219V163.57C219 143.925 207.864 134.426 192.309 134.426C176.747 134.426 170.198 146.545 170.198 146.545V136.667H148.417V210H170.198V171.504C170.198 161.19 174.946 155.052 184.034 155.052C192.388 155.052 196.398 160.95 196.398 171.504V210ZM109 113.532C109 121.005 115.012 127.064 122.431 127.064C129.851 127.064 135.859 121.005 135.859 113.532C135.859 106.059 129.851 100 122.431 100C115.012 100 109 106.059 109 113.532ZM133.897 210H111.184V136.667H133.897V210Z" fill="url(#paint1_linear_1006_8400)"/>
<path d="M75 220C93.9572 220 100 226.043 100 245C100 263.957 93.9572 270 75 270C56.0428 270 50 263.957 50 245C50 226.043 56.0428 220 75 220Z" fill="url(#paint2_linear_1006_8400)"/>
</g>
</g>
<defs>
<linearGradient id="paint0_linear_1006_8400" x1="160" y1="0" x2="160" y2="320" gradientUnits="userSpaceOnUse">
<stop stop-color="#F8FAFC"/>
<stop offset="1" stop-color="#E2E8F0"/>
</linearGradient>
<linearGradient id="paint1_linear_1006_8400" x1="160" y1="50" x2="160" y2="270" gradientUnits="userSpaceOnUse">
<stop stop-color="#60A5FA"/>
<stop offset="1" stop-color="#2563EB"/>
</linearGradient>
<linearGradient id="paint2_linear_1006_8400" x1="75" y1="220" x2="75" y2="270" gradientUnits="userSpaceOnUse">
<stop stop-color="#FB923C"/>
<stop offset="1" stop-color="#EA580C"/>
</linearGradient>
<clipPath id="clip0_1006_8400">
<rect width="320" height="320" fill="white"/>
</clipPath>
<clipPath id="clip1_1006_8400">
<rect width="240" height="240" fill="white" transform="translate(40 40)"/>
</clipPath>
</defs>
</svg>
