<?xml version="1.0" encoding="UTF-8"?>
<svg width="606px" height="606px" viewBox="0 0 606 606" version="1.1" xmlns="http://www.w3.org/2000/svg" xmlns:xlink="http://www.w3.org/1999/xlink">
    <!-- Generator: Sketch 40.2 (33826) - http://www.bohemiancoding.com/sketch -->
    <title>conversations</title>
    <desc>Created with Sketch.</desc>
    <defs>
        <linearGradient x1="50%" y1="0%" x2="50%" y2="100%" id="linearGradient-1">
            <stop stop-color="#FFFFFF" stop-opacity="0.2" offset="0%"></stop>
            <stop stop-color="#000000" stop-opacity="0.2" offset="100%"></stop>
        </linearGradient>
        <path d="M552.268958,552.268958 C600,504.537813 600,431.458333 600,300 C600,168.541667 600,95.4621875 552.268958,47.7310417 C504.537813,0 431.458333,0 300,0 C168.541667,0 95.4621875,0 47.7310417,47.7310417 C0,95.4621875 0,168.541667 0,300 C0,431.458333 0,504.537813 47.7310417,552.268958 C95.4621875,600 168.541667,600 300,600 C431.458333,600 504.537813,600 552.268958,552.268958 Z" id="path-2"></path>
    </defs>
    <g id="Page-1" stroke="none" stroke-width="1" fill="none" fill-rule="evenodd">
        <g id="conversations" transform="translate(3.000000, 3.000000)">
            <g id="Shape">
                <use fill="#F06563" xlink:href="#path-2"></use>
                <use stroke="#000000" stroke-width="4.04" fill="url(#linearGradient-1)" xlink:href="#path-2"></use>
            </g>
            <g id="speech-bubble-1" opacity="0.9" transform="translate(101.000000, 100.000000)" fill="#FFFFFF">
                <g id="Capa_1">
                    <g id="Group">
                        <path d="M18.4762295,352.033607 C17.5745902,352.607377 16.754918,353.181148 15.7713115,353.590984 L14.4598361,354.328689 L12.8204918,355.230328 L12.3286885,355.47623 L12.0827869,355.640164 L11.1811475,356.213934 C10.5254098,356.705738 9.86967213,357.197541 9.21393443,357.771311 C0.771311475,365.230328 -0.622131148,376.213934 3.06639344,384.902459 C4.86967213,389.328689 8.31229508,393.345082 12.7385246,395.886066 C14.8696721,397.115574 17.2467213,398.09918 19.4598361,398.509016 L21.1811475,398.836885 L22.2467213,399.00082 L23.3122951,399.164754 C25.6893443,399.492623 30.7713115,399.820492 33.8860656,399.820492 C40.8532787,399.820492 47.6565574,399.082787 54.2959016,397.853279 C67.5745902,395.230328 80.1155738,390.47623 91.5090164,383.836885 C97.9844262,380.148361 103.148361,375.312295 105.853279,371.131967 C108.558197,366.705738 108.886066,362.935246 106.181148,360.312295 C101.09918,355.47623 91.345082,357.279508 79.8696721,362.033607 C69.5418033,366.377869 58.4762295,369.082787 47.6565574,369.984426 C46.2631148,370.148361 44.9516393,370.230328 43.5581967,370.230328 C47.0827869,367.033607 50.2795082,363.590984 53.0663934,359.984426 C61.2631148,349.57459 67.0008197,338.181148 71.5909836,326.869672 L71.6729508,326.705738 C73.3942623,322.52541 72.7385246,317.607377 69.6237705,313.918852 L62.0008197,304.984426 C60.7713115,303.509016 59.3778689,302.033607 58.2303279,300.47623 L54.8696721,295.640164 C52.6565574,292.361475 50.197541,289.328689 48.2303279,285.886066 L42.4106557,275.558197 C37.4106557,259.328689 33.7221311,243.09918 31.754918,226.705738 C30.197541,210.230328 30.2795082,193.672951 32.4106557,177.361475 L34.4598361,165.148361 C35.3614754,161.131967 36.5090164,157.197541 37.492623,153.181148 C38.3122951,149.164754 40.0336066,145.312295 41.345082,141.459836 L43.3942623,135.640164 C44.1319672,133.672951 45.1155738,131.869672 45.9352459,129.984426 C47.7385246,126.295902 49.2959016,122.443443 51.4270492,118.918852 L57.8204918,108.345082 C59.9516393,104.820492 62.5745902,102.033607 64.8696721,98.8368852 C66.0991803,97.2795082 67.1647541,95.7221311 68.4762295,94.1647541 L73.1483607,89.2467213 C75.3614754,86.9516393 76.6729508,81.2959016 76.1811475,78.754918 C75.3614754,73.754918 70.0336066,74.492623 64.05,77.2795082 C59.1319672,79.6565574 54.1319672,82.1155738 49.6237705,85.8040984 C45.1155738,89.4106557 40.0336066,93.345082 36.2631148,98.0991803 C32.3286885,102.853279 27.9844262,107.607377 24.8696721,113.263115 C21.5090164,118.836885 18.1483607,124.492623 15.8532787,130.722131 C14.3778689,134.410656 12.7385246,138.09918 11.345082,141.787705 L7.8204918,153.263115 C7.24672131,155.148361 6.59098361,157.115574 6.09918033,159.00082 L4.86967213,164.902459 L2.41065574,176.705738 L1.01721311,188.672951 L0.36147541,194.656557 L0.279508197,200.722131 L0.11557377,212.853279 L1.09918033,224.984426 L1.59098361,231.05 L2.65655738,237.033607 L4.86967213,249.00082 C5.9352459,252.935246 7.08278689,256.787705 8.23032787,260.722131 L9.95163934,266.541803 C10.607377,268.427049 11.4270492,270.312295 12.1647541,272.197541 L16.8368852,283.509016 C18.6401639,287.197541 20.6893443,290.722131 22.5745902,294.328689 C26.1811475,301.62377 31.345082,308.09918 35.9352459,314.738525 C37.902459,317.689344 39.9516393,320.558197 42.0827869,323.427049 C38.0663934,330.886066 33.4762295,337.689344 28.3122951,343.263115 C25.4434426,346.787705 22,349.738525 18.4762295,352.033607 L18.4762295,352.033607 Z" id="Shape"></path>
                        <path d="M145.114754,158.09918 C167.081967,160.47623 189.04918,164.082787 211.180328,161.377869 C213.885246,161.705738 216.672131,162.033607 219.377049,162.279508 C236.754098,163.672951 254.04918,164.082787 271.344262,160.722131 C276.262295,159.738525 280.360656,155.968033 279.95082,148.590984 C279.622951,141.787705 276.098361,136.787705 271.098361,136.05 C262.081967,134.656557 252.901639,133.09918 243.885246,133.263115 C229.295082,133.590984 214.704918,135.230328 200.114754,136.295902 C173.967213,126.869672 147.163934,132.279508 120.688525,130.312295 C119.540984,130.230328 117.655738,133.09918 117.081967,135.066393 C115.934426,139.082787 117.409836,142.443443 119.704918,144.984426 C127.081967,153.427049 136.017213,157.115574 145.114754,158.09918 L145.114754,158.09918 Z" id="Shape"></path>
                        <path d="M119.62377,198.345082 C127.00082,206.787705 136.017213,210.47623 145.115574,211.459836 C167.082787,213.836885 189.05,217.443443 211.181148,214.738525 C213.886066,215.066393 216.672951,215.394262 219.377869,215.640164 C236.754918,217.033607 254.05,217.443443 271.345082,214.082787 C276.263115,213.09918 280.361475,209.328689 279.951639,201.951639 C279.62377,195.148361 276.09918,190.148361 271.09918,189.410656 C262.082787,188.017213 252.902459,186.459836 243.886066,186.62377 C229.295902,186.951639 214.705738,188.590984 200.115574,189.656557 C173.968033,180.230328 147.164754,185.640164 120.689344,183.672951 C119.541803,183.590984 117.656557,186.459836 117.082787,188.427049 C115.935246,192.361475 117.409836,195.804098 119.62377,198.345082 L119.62377,198.345082 Z" id="Shape"></path>
                        <path d="M119.62377,251.705738 C127.00082,260.148361 136.017213,263.836885 145.115574,264.820492 C167.082787,267.197541 189.05,270.804098 211.181148,268.09918 C213.886066,268.427049 216.672951,268.754918 219.377869,269.00082 C236.754918,270.394262 254.05,270.804098 271.345082,267.443443 C276.263115,266.459836 280.361475,262.689344 279.951639,255.312295 C279.62377,248.509016 276.09918,243.509016 271.09918,242.771311 C262.082787,241.377869 252.902459,239.820492 243.886066,239.984426 C229.295902,240.312295 214.705738,241.951639 200.115574,243.017213 C173.968033,233.590984 147.164754,239.00082 120.689344,237.033607 C119.541803,236.951639 117.656557,239.820492 117.082787,241.787705 C115.935246,245.722131 117.409836,249.164754 119.62377,251.705738 L119.62377,251.705738 Z" id="Shape"></path>
                        <path d="M112.410656,349.410656 C105.443443,350.230328 110.443443,356.787705 119.213934,364.328689 C133.804098,375.968033 153.394262,385.640164 175.52541,390.394262 C197.656557,395.148361 222.246721,394.984426 245.935246,389.492623 C274.62377,383.263115 301.590984,369.738525 324.787705,351.541803 C327.656557,349.164754 330.361475,346.705738 333.148361,344.246721 L337.328689,340.558197 L337.820492,340.066393 L337.984426,339.984426 L338.066393,339.902459 L338.640164,339.328689 L338.886066,339.082787 L339.787705,338.181148 L341.590984,336.295902 L348.722131,328.754918 C349.869672,327.443443 351.09918,326.377869 352.246721,324.820492 L355.771311,320.230328 L362.820492,311.05 C365.197541,308.017213 366.836885,304.738525 368.886066,301.62377 C370.853279,298.427049 372.820492,295.312295 374.705738,292.033607 L379.62377,281.951639 C386.181148,268.509016 390.52541,254.082787 393.968033,239.57459 C394.787705,235.886066 395.197541,232.197541 395.771311,228.509016 C396.263115,224.820492 397.082787,221.131967 397.246721,217.361475 L397.820492,206.131967 L398.066393,200.47623 C398.066393,198.590984 397.902459,196.705738 397.820492,194.820492 C397.00082,164.820492 389.131967,134.984426 374.787705,108.590984 C371.263115,102.115574 367.738525,95.5581967 363.804098,89.2467213 L357.246721,80.2303279 C355.115574,77.197541 353.066393,74.0827869 350.443443,71.3778689 L344.62377,64.7385246 L341.672951,61.3778689 L340.197541,59.7385246 L339.869672,59.3286885 L339.705738,59.0827869 L339.62377,59.0008197 L339.541803,58.9188525 L338.886066,58.345082 L338.148361,57.6893443 L326.181148,46.5418033 C321.754918,42.8532787 316.509016,39.0827869 311.672951,35.3942623 C310.443443,34.492623 309.213934,33.5090164 307.984426,32.6893443 L304.213934,30.3942623 L296.590984,25.8040984 C276.09918,14.0008197 253.312295,5.96803279 229.951639,2.36147541 C206.590984,-1.32704918 182.57459,-0.671311475 159.459836,4.1647541 C136.427049,9.08278689 114.377869,18.5090164 95.0336066,31.4598361 C89.2959016,34.8204918 84.6237705,39.1647541 80.3614754,43.0172131 C78.2303279,44.9844262 76.2631148,46.7877049 74.5418033,48.6729508 C72.902459,50.6401639 71.5090164,52.5254098 70.2795082,54.3286885 C65.3614754,61.4598361 63.8040984,66.6237705 67.1647541,68.6729508 C73.5581967,72.4434426 88.3942623,63.5909836 109.05,51.9516393 C146.345082,30.8860656 191.09918,24.902459 232.410656,33.0991803 C249.131967,36.3778689 265.115574,42.3614754 280.279508,50.1483607 L291.345082,56.4598361 C294.951639,58.6729508 298.066393,61.2139344 301.509016,63.5090164 C303.230328,64.7385246 304.869672,65.8040984 306.590984,67.1155738 L311.754918,71.6237705 L316.918852,76.1319672 L319.541803,78.4270492 L320.033607,78.8368852 L320.279508,79.0827869 L321.345082,80.2303279 C333.558197,92.2795082 343.640164,106.295902 352.00082,121.213934 C360.115574,136.377869 365.689344,152.853279 369.131967,169.738525 C369.459836,168.509016 369.787705,167.279508 370.033607,166.05 C369.869672,167.443443 369.459836,168.672951 369.131967,169.738525 L369.951639,181.295902 C370.279508,185.148361 369.869672,189.00082 369.951639,192.853279 C370.197541,200.558197 368.804098,208.181148 368.230328,215.804098 L366.09918,227.115574 C365.689344,229.00082 365.443443,230.886066 365.033607,232.771311 L363.47623,238.263115 C362.410656,241.951639 361.509016,245.640164 360.279508,249.246721 L356.181148,259.902459 C355.033607,263.509016 353.066393,266.869672 351.427049,270.230328 L348.886066,275.312295 C348.066393,277.033607 347.246721,278.754918 346.181148,280.312295 L340.197541,289.984426 L338.722131,292.361475 L337.082787,294.492623 L333.804098,298.836885 L330.607377,303.181148 C330.033607,303.918852 329.62377,304.656557 328.968033,305.394262 L326.836885,307.689344 L318.394262,316.869672 L317.328689,318.017213 L316.918852,318.509016 L316.836885,318.590984 L314.705738,320.47623 L310.52541,324.328689 L306.345082,328.181148 L301.836885,331.62377 L297.328689,335.066393 L295.115574,336.787705 L292.738525,338.345082 L283.148361,344.492623 L273.148361,349.820492 C269.869672,351.705738 266.263115,352.935246 262.820492,354.492623 C248.804098,360.312295 234.05,364.328689 218.886066,366.295902 C203.722131,368.017213 188.394262,367.771311 173.394262,365.47623 C169.705738,364.738525 165.853279,364.410656 162.164754,363.427049 L151.181148,360.558197 L140.443443,356.787705 C136.836885,355.558197 133.804098,353.918852 130.443443,352.52541 C129.295902,352.033607 127.902459,351.62377 126.345082,351.213934 C124.705738,350.640164 122.902459,350.148361 121.181148,349.738525 C117.491803,349.57459 114.213115,349.164754 112.410656,349.410656 L112.410656,349.410656 Z" id="Shape"></path>
                    </g>
                </g>
            </g>
        </g>
    </g>
</svg>