<?xml version="1.0" encoding="UTF-8"?>
<svg width="64px" height="64px" viewBox="0 0 64 64" version="1.1" xmlns="http://www.w3.org/2000/svg" xmlns:xlink="http://www.w3.org/1999/xlink">
    <!-- Generator: Sketch 55 (78076) - https://sketchapp.com -->
    <title>conversations</title>
    <desc>Created with Sketch.</desc>
    <defs>
        <path d="M32,64 C46.0222222,64 53.8173667,64 58.9086889,58.9086889 C64,53.8173667 64,46.0222222 64,32 C64,17.9777778 64,10.1826333 58.9086889,5.09131111 C53.8173667,0 46.0222222,0 32,0 C17.9777778,0 10.1826333,0 5.09131111,5.09131111 C0,10.1826333 0,17.9777778 0,32 C0,46.0222222 0,53.8173667 5.09131111,58.9086889 C10.1826333,64 17.9777778,64 32,64 Z" id="path-1"></path>
        <linearGradient x1="50%" y1="0%" x2="50%" y2="100%" id="linearGradient-3">
            <stop stop-color="#FDFEFF" offset="0%"></stop>
            <stop stop-color="#FBFCFD" stop-opacity="0.9" offset="100%"></stop>
        </linearGradient>
        <path d="M34.125,0 L4.875,0 C2.18613281,0 0,2.18600503 0,4.87471504 L0,26.8109327 C0,29.4996428 2.18613281,31.6856478 4.875,31.6856478 L12.1875,31.6856478 L12.1875,38.0837113 C12.1875,38.830152 13.040625,39.2643063 13.6423828,38.8225353 L23.15625,31.6856478 L34.125,31.6856478 C36.8138672,31.6856478 39,29.4996428 39,26.8109327 L39,4.87471504 C39,2.18600503 36.8138672,0 34.125,0 Z M21.9375,20.1081996 C21.9375,20.4433362 21.6632812,20.7175389 21.328125,20.7175389 L10.359375,20.7175389 C10.0242187,20.7175389 9.75,20.4433362 9.75,20.1081996 L9.75,18.8895208 C9.75,18.5543841 10.0242187,18.2801814 10.359375,18.2801814 L21.328125,18.2801814 C21.6632812,18.2801814 21.9375,18.5543841 21.9375,18.8895208 L21.9375,20.1081996 Z M29.25,12.796127 C29.25,13.1312637 28.9757812,13.4054664 28.640625,13.4054664 L10.359375,13.4054664 C10.0242187,13.4054664 9.75,13.1312637 9.75,12.796127 L9.75,11.5774482 C9.75,11.2423116 10.0242187,10.9681088 10.359375,10.9681088 L28.640625,10.9681088 C28.9757812,10.9681088 29.25,11.2423116 29.25,11.5774482 L29.25,12.796127 Z" id="path-5"></path>
        <filter x="-5.1%" y="-2.6%" width="110.3%" height="110.3%" filterUnits="objectBoundingBox" id="filter-6">
            <feOffset dx="0" dy="1" in="SourceAlpha" result="shadowOffsetOuter1"></feOffset>
            <feGaussianBlur stdDeviation="0.5" in="shadowOffsetOuter1" result="shadowBlurOuter1"></feGaussianBlur>
            <feColorMatrix values="0 0 0 0 0   0 0 0 0 0   0 0 0 0 0  0 0 0 0.1 0" type="matrix" in="shadowBlurOuter1"></feColorMatrix>
        </filter>
    </defs>
    <g id="Page-1" stroke="none" stroke-width="1" fill="none" fill-rule="evenodd">
        <g id="Artboard" transform="translate(-1150.000000, -430.000000)">
            <g id="conversations" transform="translate(1150.000000, 430.000000)">
                <mask id="mask-2" fill="white">
                    <use xlink:href="#path-1"></use>
                </mask>
                <use id="Path" fill="#00B356" xlink:href="#path-1"></use>
                <g id="comment-alt-lines" mask="url(#mask-2)" fill-rule="nonzero">
                    <g transform="translate(13.000000, 15.000000)" id="Shape">
                        <g>
                            <use fill="black" fill-opacity="1" filter="url(#filter-6)" xlink:href="#path-5"></use>
                            <use fill="url(#linearGradient-3)" xlink:href="#path-5"></use>
                        </g>
                    </g>
                </g>
            </g>
        </g>
    </g>
</svg>
