<svg width="128" height="37" xmlns="http://www.w3.org/2000/svg"><defs><linearGradient x1="115.738%" y1="-31.418%" x2="0%" y2="131.845%" id="a"><stop stop-color="#25FFB8" offset="0%"/><stop stop-color="#00A0FF" offset="100%"/></linearGradient></defs><g fill="none" fill-rule="evenodd"><g transform="translate(64 1)"><path d="M17.74 3.247c8.303 0 13.15 7.372 13.15 14.558 0 8.38-6.36 14.496-14.862 14.496-7.401 0-13.885-5.505-13.885-13.64 0-9.114 5.322-15.284 15.597-15.414z" fill="url(#a)"/><circle fill="#50E3C2" cx="13.51" cy="1.904" r="1.096"/><circle fill="#1BE4CB" cx="27.266" cy="2.755" r="2.755"/><circle fill="#27DDD5" cx="3.434" cy="8.014" r="1.434"/><circle fill="#29C4ED" cx="2.053" cy="29.324" r="2.053"/><circle fill="#28C8E9" cx="20.918" cy="33.738" r="1.592"/></g><g stroke="#1BEAED"><path d="M80.608 27.999c5.167-.156 9.189-3.918 8.936-9.435-.265-5.787-4.34-8.839-8.231-8.886-6.245-.043-9.925 3.877-9.925 9.19 0 5.311 3.646 9.3 9.22 9.131z" stroke-width=".75"/><path d="M80.426 30.16c6.459-.196 11.703-4.753 11.387-11.65-.331-7.235-5.424-11.05-10.29-11.109-7.806-.054-12.407 5.263-12.407 11.487 0 6.225 4.342 11.481 11.31 11.271z" stroke-width=".65" opacity=".75"/><path d="M80.417 32.28c7.663-.232 13.885-5.639 13.51-13.821-.393-8.583-6.435-13.11-12.207-13.18C72.458 5.216 67 11.524 67 18.909s5.15 13.621 13.417 13.371z" stroke-width=".65" opacity=".5"/></g><path d="M81.163 10.902c4.909.233 7.127 4.441 7.127 7.889 0 4.54-3.448 7.855-8.055 7.855-4.011 0-7.525-2.983-7.525-7.391 0-4.94 3.216-8.287 8.453-8.353zm3.514 7.756c0-2.42-1.492-4.442-4.177-4.574-2.52.132-4.177 2.022-4.177 5.17 0 2.52 1.956 4.21 3.846 4.21 2.353 0 4.508-1.856 4.508-4.806zM24.168 2.916c-.036 6.12-.18 16.884 0 21.528.036 2.16.9 2.88 2.232 2.772 1.332-.108 1.8-.648 1.836-1.8-.036-1.44-.072-16.38.036-22.176 0-1.512-.576-2.232-2.016-2.232-1.152 0-2.052.612-2.088 1.908zM36.048 19.8c.144 2.16 1.944 3.96 4.392 3.96a6.984 6.984 0 0 0 3.492-.972c.432-.252.864-.468 1.404-.468.864 0 1.656.9 1.656 1.872 0 .684-.432 1.224-1.08 1.656-1.332.864-3.024 1.44-5.796 1.44a8.044 8.044 0 0 1-8.064-7.92c0-5.04 3.6-9.108 8.28-9.108 4.212 0 7.272 3.312 7.272 6.624 0 1.872-.288 2.808-2.808 2.844-2.016.072-4.464.036-8.748.072zm4.356-6.336c-2.412 0-4.104 1.908-4.32 3.816 1.872 0 5.832-.036 7.344-.144.252-.036.432-.144.432-.324 0-1.98-1.656-3.348-3.456-3.348zm50.904 2.376c.036 5.292-.072 7.452-.072 9.612 0 1.332.864 1.728 1.98 1.728.9 0 1.98-.396 1.98-1.692l-.036-5.652c0-3.348.612-6.156 4.356-6.12 2.736 0 3.24 2.304 3.276 4.752 0 2.268-.108 4.86-.108 6.912 0 1.188.828 1.728 1.872 1.728 1.368 0 2.124-.576 2.124-2.016v-3.096c0-2.412.036-3.168.036-4.644 0-4.464-2.232-7.092-6.228-7.092-2.232 0-4.536 1.152-5.364 3.132l-.072-1.26c-.108-1.188-.54-1.764-1.764-1.764-1.548 0-2.052.828-2.016 2.304l.036 3.168zm36-13.104l-.072 8.316c0 2.52-.036 4.824-.036 7.416 0 1.512.072 3.24.072 7.02 0 1.188-.756 1.728-1.872 1.728-1.008 0-1.584-.54-1.728-1.368l-.144-1.62c-1.116 1.836-2.988 3.06-5.328 3.06-4.932 0-7.848-3.996-7.848-8.064 0-5.004 3.564-8.856 8.388-8.856 1.908 0 3.672.864 4.608 2.34l-.036-9.648c0-1.44.684-2.16 1.944-2.16 1.224 0 2.088.468 2.052 1.836zM114.312 19.08c0-3.168 2.088-5.292 4.68-5.292 2.484 0 4.428 1.908 4.428 5.04s-2.124 5.004-4.68 5.004c-2.484 0-4.428-2.16-4.428-4.752zm-99.434-8.519c1.188-.072 2.016-.072 2.304-.036 1.368.144 2.052 1.008 2.016 2.412-.072 4.248-.036 8.064-.036 12.312 0 1.26-.612 1.944-1.908 1.944-1.044.036-1.98-.432-1.98-1.836V14.09h-.864c-1.98 0-3.744.036-5.796.036 0 3.528.036 7.488.036 11.232 0 1.188-.72 1.8-1.908 1.8-1.224 0-1.98-.468-1.98-1.764 0-3.528 0-7.164.036-11.304l-1.692.036c-1.548 0-2.304-.396-2.34-1.728 0-1.08.648-1.764 1.98-1.764h2.052V9.265c.18-4.968 2.484-8.712 8.28-8.712 1.26 0 2.304.18 3.204.576.72.288 1.188.828 1.188 1.656-.036.756-.648 1.692-1.476 1.692-1.008 0-1.98-.432-3.384-.432-2.52 0-3.996 1.836-4.032 4.356v2.232c2.34 0 4.284-.036 6.3-.072zm36.648 1.535c.036-1.296.864-1.8 1.98-1.8.936 0 1.548.396 1.692 1.296l.108 1.656c1.08-1.872 3.168-2.988 5.508-2.988 4.716 0 7.632 3.672 7.632 8.352 0 4.896-3.492 8.712-8.352 8.712-2.016 0-3.708-.792-4.716-2.196 0 .756.036 2.088.036 3.348 0 1.224.072 2.916.072 4.68 0 1.296-.684 1.944-2.196 1.908-1.152 0-1.764-.612-1.764-1.872l.036-14.148-.036-6.948zm12.96 6.444c0-2.844-2.052-4.824-4.392-4.824-2.556 0-4.716 2.088-4.716 5.148 0 3.204 1.764 5.004 4.428 5.004 2.628 0 4.68-2.196 4.68-5.328z" fill="#FFF"/></g></svg>