<svg width="28" height="24" viewBox="0 0 28 24" fill="none" xmlns="http://www.w3.org/2000/svg">
<g id="Group 25">
<path id="Vector" d="M19.2856 10H25.2856C25.8161 10 26.3248 9.78929 26.6999 9.41421C27.0749 9.03914 27.2856 8.53043 27.2856 8V2C27.2856 1.46957 27.0749 0.960859 26.6999 0.585786C26.3248 0.210714 25.8161 0 25.2856 0H19.2856C18.7552 0 18.2465 0.210714 17.8714 0.585786C17.4964 0.960859 17.2856 1.46957 17.2856 2V4H15.2856C14.49 4 13.7269 4.31607 13.1643 4.87868C12.6017 5.44129 12.2856 6.20435 12.2856 7V11H8.28564V10C8.28564 9.46957 8.07493 8.96086 7.69986 8.58579C7.32478 8.21071 6.81608 8 6.28564 8H2.28564C1.75521 8 1.2465 8.21071 0.871431 8.58579C0.496358 8.96086 0.285645 9.46957 0.285645 10V14C0.285645 14.5304 0.496358 15.0391 0.871431 15.4142C1.2465 15.7893 1.75521 16 2.28564 16H6.28564C6.81608 16 7.32478 15.7893 7.69986 15.4142C8.07493 15.0391 8.28564 14.5304 8.28564 14V13H12.2856V17C12.2856 17.7956 12.6017 18.5587 13.1643 19.1213C13.7269 19.6839 14.49 20 15.2856 20H17.2856V22C17.2856 22.5304 17.4964 23.0391 17.8714 23.4142C18.2465 23.7893 18.7552 24 19.2856 24H25.2856C25.8161 24 26.3248 23.7893 26.6999 23.4142C27.0749 23.0391 27.2856 22.5304 27.2856 22V16C27.2856 15.4696 27.0749 14.9609 26.6999 14.5858C26.3248 14.2107 25.8161 14 25.2856 14H19.2856C18.7552 14 18.2465 14.2107 17.8714 14.5858C17.4964 14.9609 17.2856 15.4696 17.2856 16V18H15.2856C15.0204 18 14.7661 17.8946 14.5785 17.7071C14.391 17.5196 14.2856 17.2652 14.2856 17V7C14.2856 6.73478 14.391 6.48043 14.5785 6.29289C14.7661 6.10536 15.0204 6 15.2856 6H17.2856V8C17.2856 8.53043 17.4964 9.03914 17.8714 9.41421C18.2465 9.78929 18.7552 10 19.2856 10ZM6.28564 14H2.28564V10H6.28564V14ZM19.2856 16H25.2856V22H19.2856V16ZM19.2856 2H25.2856V8H19.2856V2Z" fill="url(#paint0_linear_905_2572)"/>
</g>
<defs>
<linearGradient id="paint0_linear_905_2572" x1="13.7856" y1="0" x2="13.7856" y2="24" gradientUnits="userSpaceOnUse">
<stop stop-color="#F3F4F6"/>
<stop offset="1" stop-color="#9CA3AF"/>
</linearGradient>
</defs>
</svg>
