<svg width="29" height="27" viewBox="0 0 29 27" fill="none" xmlns="http://www.w3.org/2000/svg">
<path d="M14.7165 7.85976C13.5299 7.85976 12.3698 8.21165 11.3831 8.87094C10.3964 9.53023 9.62739 10.4673 9.17327 11.5637C8.71914 12.66 8.60032 13.8664 8.83183 15.0303C9.06335 16.1942 9.63479 17.2633 10.4739 18.1024C11.313 18.9415 12.3821 19.513 13.546 19.7445C14.7099 19.976 15.9163 19.8572 17.0126 19.403C18.109 18.9489 19.0461 18.1799 19.7054 17.1932C20.3647 16.2065 20.7165 15.0464 20.7165 13.8598C20.7149 12.269 20.0822 10.7438 18.9574 9.61895C17.8325 8.49409 16.3073 7.86141 14.7165 7.85976ZM14.7165 17.8598C13.9254 17.8598 13.1521 17.6252 12.4943 17.1856C11.8365 16.7461 11.3238 16.1214 11.021 15.3905C10.7183 14.6596 10.6391 13.8553 10.7934 13.0794C10.9477 12.3035 11.3287 11.5907 11.8881 11.0313C12.4475 10.4719 13.1603 10.091 13.9362 9.93662C14.7121 9.78228 15.5164 9.86149 16.2473 10.1642C16.9782 10.467 17.6029 10.9797 18.0424 11.6375C18.482 12.2953 18.7165 13.0686 18.7165 13.8598C18.7165 14.9206 18.2951 15.938 17.545 16.6882C16.7948 17.4383 15.7774 17.8598 14.7165 17.8598ZM28.459 11.261C28.4312 11.1202 28.3734 10.987 28.2894 10.8705C28.2055 10.7541 28.0975 10.657 27.9728 10.586L24.244 8.46101L24.229 4.25851C24.2286 4.11378 24.1967 3.97087 24.1357 3.83965C24.0746 3.70844 23.9857 3.59204 23.8753 3.49851C22.5227 2.35438 20.9651 1.47759 19.2853 0.914758C19.153 0.869983 19.0128 0.853413 18.8737 0.866115C18.7347 0.878817 18.5998 0.92051 18.4778 0.988508L14.7165 3.09101L10.9515 0.984758C10.8295 0.916377 10.6944 0.874369 10.5551 0.86145C10.4158 0.848531 10.2753 0.864988 10.1428 0.909758C8.46423 1.47671 6.90841 2.35684 5.5578 3.50351C5.44751 3.5969 5.35877 3.7131 5.2977 3.84408C5.23663 3.97507 5.20468 4.11774 5.20405 4.26226L5.1853 8.46851L1.45655 10.5935C1.3318 10.6645 1.2238 10.7616 1.1399 10.878C1.05599 10.9945 0.99815 11.1277 0.970297 11.2685C0.629042 12.9834 0.629042 14.7487 0.970297 16.4635C0.99815 16.6043 1.05599 16.7375 1.1399 16.854C1.2238 16.9704 1.3318 17.0675 1.45655 17.1385L5.1853 19.2635L5.2003 23.466C5.20075 23.6107 5.23261 23.7537 5.29369 23.8849C5.35477 24.0161 5.4436 24.1325 5.55405 24.226C6.90664 25.3701 8.46424 26.2469 10.144 26.8098C10.2763 26.8545 10.4165 26.8711 10.5556 26.8584C10.6947 26.8457 10.8296 26.804 10.9515 26.736L14.7165 24.6285L18.4815 26.7348C18.6305 26.8178 18.7985 26.8608 18.969 26.8598C19.0783 26.8597 19.1868 26.842 19.2903 26.8073C20.9687 26.2411 22.5245 25.3618 23.8753 24.216C23.9856 24.1226 24.0743 24.0064 24.1354 23.8754C24.1965 23.7444 24.2284 23.6018 24.229 23.4573L24.2478 19.251L27.9765 17.126C28.1013 17.055 28.2093 16.9579 28.2932 16.8415C28.3771 16.725 28.4349 16.5918 28.4628 16.451C28.8022 14.7375 28.8009 12.974 28.459 11.261ZM26.584 15.6248L23.0128 17.656C22.8563 17.745 22.7268 17.8745 22.6378 18.031C22.5653 18.156 22.489 18.2885 22.4115 18.4135C22.3123 18.5711 22.2595 18.7535 22.259 18.9398L22.2403 22.971C21.2804 23.7248 20.211 24.3276 19.069 24.7585L15.4665 22.751C15.317 22.6683 15.1487 22.6252 14.9778 22.626H14.954C14.8028 22.626 14.6503 22.626 14.499 22.626C14.3202 22.6215 14.1433 22.6647 13.9865 22.751L10.3815 24.7635C9.23718 24.3359 8.16483 23.7361 7.20155 22.9848L7.1878 18.9598C7.18718 18.7731 7.13436 18.5904 7.0353 18.4323C6.9578 18.3073 6.88155 18.1823 6.8103 18.0498C6.72195 17.8909 6.59241 17.7587 6.4353 17.6673L2.8603 15.631C2.6753 14.4608 2.6753 13.2687 2.8603 12.0985L6.4253 10.0635C6.58177 9.97454 6.71132 9.84498 6.8003 9.68851C6.8728 9.56351 6.94905 9.43101 7.02655 9.30601C7.12575 9.14838 7.1786 8.96601 7.17905 8.77976L7.1978 4.74851C8.15771 3.99469 9.22712 3.39191 10.369 2.96101L13.9665 4.96851C14.1231 5.05529 14.3001 5.09846 14.479 5.09351C14.6303 5.09351 14.7828 5.09351 14.934 5.09351C15.1129 5.09798 15.2898 5.05484 15.4465 4.96851L19.0515 2.95601C20.1959 3.3836 21.2683 3.98343 22.2315 4.73476L22.2453 8.75976C22.2459 8.94638 22.2987 9.1291 22.3978 9.28726C22.4753 9.41226 22.5515 9.53726 22.6228 9.66976C22.7111 9.82865 22.8407 9.96078 22.9978 10.0523L26.5728 12.0885C26.7603 13.2596 26.7624 14.453 26.579 15.6248H26.584Z" fill="url(#paint0_linear_905_2564)"/>
<defs>
<linearGradient id="paint0_linear_905_2564" x1="14.7154" y1="0.857178" x2="14.7154" y2="26.8625" gradientUnits="userSpaceOnUse">
<stop stop-color="#F3F4F6"/>
<stop offset="1" stop-color="#9CA3AF"/>
</linearGradient>
</defs>
</svg>
