<svg width="80" height="80" viewBox="0 0 80 80" fill="none" xmlns="http://www.w3.org/2000/svg">
<rect width="80" height="80" fill="url(#paint0_linear_944_2123)"/>
<path d="M40 68C54.9117 68 67 55.9117 67 41C67 39.6652 66.9031 38.353 66.7161 37.0701C66.505 35.6227 64.798 35.0732 63.6724 36.0073C63.3247 36.2959 62.981 36.5808 62.641 36.8627L62.6266 36.8746C60.8829 38.32 59.2377 39.6839 57.6506 41.0425C57.228 41.4043 56.9841 41.9281 56.9363 42.4823C56.1853 51.177 48.8894 58 40 58C30.6112 58 23 50.3888 23 41C23 31.6112 30.6112 24 40 24C42.1318 24 44.1719 24.3924 46.052 25.1088C46.8368 25.4079 47.7352 25.269 48.342 24.6885C49.8519 23.2441 51.4313 21.7998 53.1007 20.3463C54.1026 19.474 54.0195 17.8821 52.8517 17.2489C49.0302 15.1768 44.6525 14 40 14C25.0883 14 13 26.0883 13 41C13 55.9117 25.0883 68 40 68Z" fill="black" fill-opacity="0.2"/>
<path d="M60.165 33.7182C55.0419 37.964 50.5563 41.6817 45.9486 46.6117C42.5809 50.2151 40.897 52.0167 39.0437 51.9999C37.1906 51.9833 35.647 50.271 32.5601 46.8469L32.5592 46.8459L28.4313 42.2669C26.7314 40.3811 26.5234 37.5734 27.9268 35.4548C29.9322 32.4274 34.2402 32.1262 36.6421 34.8458L39.2745 37.8262C39.5341 38.1201 39.664 38.2673 39.7994 38.3502C40.1428 38.5606 40.5691 38.5584 40.9102 38.3444C41.0446 38.2602 41.1741 38.1104 41.4326 37.8114L41.4336 37.8102C46.3736 32.0964 51.5814 26.7504 58.2752 21.1983C60.6206 19.2528 64.0858 19.742 65.9095 22.1891C67.6253 24.4916 67.2875 27.7415 65.1003 29.5955C63.38 31.0537 61.7423 32.411 60.165 33.7182Z" fill="black" fill-opacity="0.2"/>
<path d="M67 40C67 54.9117 54.9117 67 40 67C25.0883 67 13 54.9117 13 40C13 25.0883 25.0883 13 40 13C44.6525 13 49.0302 14.1768 52.8517 16.2489C54.0195 16.8821 54.1026 18.474 53.1007 19.3463C51.4313 20.7998 49.8519 22.2441 48.342 23.6885C47.7352 24.269 46.8368 24.4079 46.052 24.1088C44.1719 23.3924 42.1318 23 40 23C30.6112 23 23 30.6112 23 40C23 49.3888 30.6112 57 40 57C48.8894 57 56.1853 50.177 56.9363 41.4823C56.9841 40.9281 57.228 40.4043 57.6506 40.0425C59.2377 38.6839 60.8829 37.32 62.6266 35.8746L62.6285 35.873C62.9726 35.5878 63.3205 35.2994 63.6724 35.0073C64.798 34.0732 66.505 34.6227 66.7161 36.0701C66.9031 37.353 67 38.6652 67 40Z" fill="url(#paint1_linear_944_2123)"/>
<path d="M45.9486 45.6117C51.9748 39.1638 57.7924 34.7898 65.1003 28.5955C67.2875 26.7415 67.6253 23.4916 65.9095 21.1891C64.0858 18.742 60.6206 18.2528 58.2752 20.1983C51.5814 25.7504 46.3736 31.0964 41.4336 36.8102C41.1744 37.11 41.0448 37.26 40.9102 37.3444C40.5691 37.5584 40.1428 37.5606 39.7994 37.3502C39.664 37.2672 39.5342 37.1202 39.2745 36.8262L36.6421 33.8458C34.2402 31.1262 29.9322 31.4274 27.9268 34.4548C26.5234 36.5734 26.7314 39.3811 28.4313 41.2669L32.5592 45.8459C35.6467 49.2707 37.1904 50.9833 39.0437 50.9999C40.897 51.0167 42.5809 49.2151 45.9486 45.6117Z" fill="url(#paint2_linear_944_2123)"/>
<defs>
<linearGradient id="paint0_linear_944_2123" x1="40" y1="0" x2="40" y2="80" gradientUnits="userSpaceOnUse">
<stop stop-color="#6B7280"/>
<stop offset="1" stop-color="#1F2937"/>
</linearGradient>
<linearGradient id="paint1_linear_944_2123" x1="40" y1="13" x2="40" y2="67" gradientUnits="userSpaceOnUse">
<stop stop-color="#F9FAFB"/>
<stop offset="1" stop-color="#9CA3AF"/>
</linearGradient>
<linearGradient id="paint2_linear_944_2123" x1="47" y1="19" x2="47" y2="51" gradientUnits="userSpaceOnUse">
<stop stop-color="#FDE68A"/>
<stop offset="1" stop-color="#D97706"/>
</linearGradient>
</defs>
</svg>
