<svg width="80" height="80" viewBox="0 0 80 80" fill="none" xmlns="http://www.w3.org/2000/svg">
<rect width="80" height="80" fill="url(#paint0_linear_830_6315)"/>
<path d="M21.3351 46.751C20.8491 46.3756 20.2566 46.1129 19.6516 46.2183C18.9208 46.3457 18.3301 46.5474 17.8088 46.8668C17.0173 47.3518 16.3519 48.0173 15.8668 48.8088C15 50.2233 15 52.149 15 56C15 59.851 15 61.7768 15.8668 63.1913C16.3519 63.9828 17.0173 64.6483 17.8088 65.1333C19.2234 66 21.1489 66 25 66C28.8511 66 30.7766 66 32.1912 65.1333C32.9827 64.6483 33.6481 63.9828 34.1332 63.1913C34.4526 62.67 34.6543 62.0794 34.7817 61.3485C34.8871 60.7435 34.6245 60.1509 34.249 59.665C33.4659 58.6513 33 57.3801 33 56C33 54.62 33.4659 53.3488 34.249 52.3351C34.6245 51.8491 34.8871 51.2565 34.7817 50.6516C34.6543 49.9207 34.4526 49.33 34.1332 48.8088C33.6481 48.0173 32.9827 47.3518 32.1912 46.8668C31.6699 46.5474 31.0792 46.3457 30.3484 46.2183C29.7434 46.1129 29.1509 46.3756 28.6649 46.751C27.6512 47.5341 26.38 48 25 48C23.62 48 22.3488 47.5341 21.3351 46.751Z" fill="black" fill-opacity="0.2"/>
<path d="M47.8088 46.8667C48.3301 46.5473 48.9207 46.3456 49.6514 46.2182C50.2564 46.1128 50.849 46.3755 51.335 46.7509C52.3487 47.5341 53.6199 48 55 48C56.3801 48 57.6513 47.5341 58.665 46.7509C59.151 46.3755 59.7436 46.1128 60.3486 46.2182C61.0793 46.3456 61.67 46.5473 62.1912 46.8667C62.9827 47.3517 63.6482 48.0172 64.1332 48.8087C65 50.2232 65 52.1489 65 55.9999C65 59.8509 65 61.7767 64.1332 63.1912C63.6482 63.9827 62.9827 64.6482 62.1912 65.1332C60.7767 65.9999 58.8511 65.9999 55 65.9999C51.1489 65.9999 49.2234 65.9999 47.8088 65.1332C47.0173 64.6482 46.3519 63.9827 45.8668 63.1912C45.5474 62.6699 45.3457 62.0793 45.2183 61.3484C45.1129 60.7435 45.3756 60.1509 45.751 59.6649C46.534 58.6513 47 57.3801 47 56C47 54.62 46.534 53.3488 45.7509 52.3351C45.3755 51.8492 45.1129 51.2566 45.2183 50.6517C45.3457 49.9207 45.5474 49.33 45.8668 48.8087C46.3519 48.0172 47.0173 47.3517 47.8088 46.8667Z" fill="black" fill-opacity="0.2"/>
<path d="M15 26C15 22.1489 15 20.2233 15.8668 18.8088C16.3519 18.0173 17.0173 17.3519 17.8088 16.8668C19.2233 16 21.1489 16 25 16C28.8511 16 30.7766 16 32.1912 16.8668C32.9827 17.3519 33.6481 18.0173 34.1332 18.8088C34.4526 19.3301 34.6543 19.9207 34.7817 20.6515C34.8871 21.2565 34.6245 21.8491 34.249 22.3351C33.4659 23.3487 33 24.62 33 26C33 27.38 33.4659 28.6513 34.249 29.6649C34.6245 30.1509 34.8871 30.7435 34.7817 31.3485C34.6543 32.0793 34.4526 32.6699 34.1332 33.1912C33.6481 33.9827 32.9827 34.6481 32.1912 35.1332C31.6699 35.4526 31.0793 35.6543 30.3485 35.7817C29.7435 35.8871 29.1509 35.6245 28.6649 35.249C27.6513 34.4659 26.38 34 25 34C23.62 34 22.3487 34.4659 21.3351 35.249C20.8491 35.6245 20.2565 35.8871 19.6515 35.7817C18.9207 35.6543 18.3301 35.4526 17.8088 35.1332C17.0173 34.6481 16.3519 33.9827 15.8668 33.1912C15 31.7766 15 29.8511 15 26Z" fill="black" fill-opacity="0.2"/>
<path d="M46.9999 26C46.9999 24.62 46.534 23.3488 45.7509 22.3351C45.3755 21.8491 45.1128 21.2565 45.2183 20.6516C45.3457 19.9208 45.5474 19.3301 45.8668 18.8088C46.3518 18.0173 47.0173 17.3519 47.8088 16.8668C49.2233 16 51.1489 16 55 16C58.8511 16 60.7766 16 62.1912 16.8668C62.9827 17.3519 63.6481 18.0173 64.1332 18.8088C65 20.2234 65 22.1489 65 26C65 29.8511 65 31.7766 64.1332 33.1912C63.6481 33.9827 62.9827 34.6481 62.1912 35.1332C61.6699 35.4526 61.0793 35.6543 60.3485 35.7817C59.7435 35.8871 59.1509 35.6245 58.6649 35.249C57.6513 34.4659 56.38 34 55 34C53.62 34 52.3487 34.4659 51.3351 35.249C50.8491 35.6245 50.2565 35.8871 49.6515 35.7817C48.9207 35.6543 48.3301 35.4526 47.8088 35.1332C47.0173 34.6481 46.3518 33.9827 45.8668 33.1912C45.5474 32.6699 45.3457 32.0792 45.2183 31.3484C45.1128 30.7435 45.3755 30.1509 45.7509 29.6649C46.534 28.6512 46.9999 27.38 46.9999 26Z" fill="black" fill-opacity="0.2"/>
<path d="M22 40C22 38.3431 23.3431 37 25 37C26.6569 37 28 38.3431 28 40V42C28 43.6569 26.6569 45 25 45C23.3431 45 22 43.6569 22 42V40Z" fill="black" fill-opacity="0.2"/>
<path d="M22 40C22 38.3431 23.3431 37 25 37C26.6569 37 28 38.3431 28 40V42C28 43.6569 26.6569 45 25 45C23.3431 45 22 43.6569 22 42V40Z" fill="black" fill-opacity="0.2"/>
<path d="M52 40C52 38.3431 53.3431 37 55 37C56.6569 37 58 38.3431 58 40V42C58 43.6569 56.6569 45 55 45C53.3431 45 52 43.6569 52 42V40Z" fill="black" fill-opacity="0.2"/>
<path d="M36 26C36 24.3431 37.3431 23 39 23H41C42.6569 23 44 24.3431 44 26C44 27.6569 42.6569 29 41 29H39C37.3431 29 36 27.6569 36 26Z" fill="black" fill-opacity="0.2"/>
<path d="M36 56C36 54.3431 37.3431 53 39 53H41C42.6569 53 44 54.3431 44 56C44 57.6569 42.6569 59 41 59H39C37.3431 59 36 57.6569 36 56Z" fill="black" fill-opacity="0.2"/>
<path d="M21.3351 45.7509C20.8491 45.3755 20.2566 45.1129 19.6516 45.2183C18.9208 45.3457 18.3301 45.5474 17.8088 45.8668C17.0173 46.3518 16.3519 47.0173 15.8668 47.8088C15 49.2233 15 51.149 15 55C15 58.851 15 60.7768 15.8668 62.1913C16.3519 62.9828 17.0173 63.6483 17.8088 64.1333C19.2234 65 21.1489 65 25 65C28.8511 65 30.7766 65 32.1912 64.1333C32.9827 63.6483 33.6481 62.9828 34.1332 62.1913C34.4526 61.67 34.6543 61.0793 34.7817 60.3485C34.8871 59.7435 34.6245 59.1509 34.249 58.665C33.4659 57.6513 33 56.38 33 55C33 53.62 33.4659 52.3487 34.249 51.3351C34.6245 50.8491 34.8871 50.2565 34.7817 49.6515C34.6543 48.9207 34.4526 48.33 34.1332 47.8088C33.6481 47.0173 32.9827 46.3518 32.1912 45.8668C31.6699 45.5474 31.0792 45.3457 30.3484 45.2183C29.7434 45.1129 29.1509 45.3755 28.6649 45.7509C27.6512 46.534 26.38 47 25 47C23.62 47 22.3488 46.534 21.3351 45.7509Z" fill="url(#paint1_linear_830_6315)"/>
<path d="M47.8088 45.8667C48.3301 45.5473 48.9207 45.3456 49.6514 45.2182C50.2564 45.1128 50.849 45.3755 51.335 45.7509C52.3487 46.5341 53.6199 47 55 47C56.3801 47 57.6513 46.5341 58.665 45.7509C59.151 45.3755 59.7436 45.1128 60.3486 45.2182C61.0793 45.3456 61.67 45.5473 62.1912 45.8667C62.9827 46.3517 63.6482 47.0172 64.1332 47.8087C65 49.2232 65 51.1489 65 54.9999C65 58.8509 65 60.7767 64.1332 62.1912C63.6482 62.9827 62.9827 63.6482 62.1912 64.1332C60.7767 64.9999 58.8511 64.9999 55 64.9999C51.1489 64.9999 49.2234 64.9999 47.8088 64.1332C47.0173 63.6482 46.3519 62.9827 45.8668 62.1912C45.5474 61.6699 45.3457 61.0793 45.2183 60.3484C45.1129 59.7435 45.3756 59.1509 45.751 58.6649C46.5341 57.6513 46.9999 56.3801 46.9999 55C46.9999 53.62 46.534 52.3488 45.7509 51.3351C45.3755 50.8492 45.1129 50.2566 45.2183 49.6517C45.3457 48.9207 45.5474 48.33 45.8668 47.8087C46.3519 47.0172 47.0173 46.3517 47.8088 45.8667Z" fill="url(#paint2_linear_830_6315)"/>
<path d="M15 25C15 21.1489 15 19.2233 15.8668 17.8088C16.3519 17.0173 17.0173 16.3519 17.8088 15.8668C19.2233 15 21.1489 15 25 15C28.8511 15 30.7766 15 32.1912 15.8668C32.9827 16.3519 33.6481 17.0173 34.1332 17.8088C34.4526 18.3301 34.6543 18.9207 34.7817 19.6515C34.8871 20.2565 34.6245 20.8491 34.249 21.3351C33.4659 22.3487 33 23.62 33 25C33 26.38 33.4659 27.6513 34.249 28.6649C34.6245 29.1509 34.8871 29.7435 34.7817 30.3485C34.6543 31.0793 34.4526 31.6699 34.1332 32.1912C33.6481 32.9827 32.9827 33.6481 32.1912 34.1332C31.6699 34.4526 31.0793 34.6543 30.3485 34.7817C29.7435 34.8871 29.1509 34.6245 28.6649 34.249C27.6513 33.4659 26.38 33 25 33C23.62 33 22.3487 33.4659 21.3351 34.249C20.8491 34.6245 20.2565 34.8871 19.6515 34.7817C18.9207 34.6543 18.3301 34.4526 17.8088 34.1332C17.0173 33.6481 16.3519 32.9827 15.8668 32.1912C15 30.7766 15 28.8511 15 25Z" fill="url(#paint3_linear_830_6315)"/>
<path d="M46.9999 25C46.9999 23.62 46.534 22.3488 45.7509 21.3351C45.3755 20.8491 45.1128 20.2565 45.2183 19.6516C45.3457 18.9208 45.5474 18.3301 45.8668 17.8088C46.3518 17.0173 47.0173 16.3519 47.8088 15.8668C49.2233 15 51.1489 15 55 15C58.8511 15 60.7766 15 62.1912 15.8668C62.9827 16.3519 63.6481 17.0173 64.1332 17.8088C65 19.2234 65 21.1489 65 25C65 28.8511 65 30.7766 64.1332 32.1912C63.6481 32.9827 62.9827 33.6481 62.1912 34.1332C61.6699 34.4526 61.0793 34.6543 60.3485 34.7817C59.7435 34.8871 59.1509 34.6245 58.6649 34.249C57.6513 33.4659 56.38 33 55 33C53.62 33 52.3487 33.4659 51.3351 34.249C50.8491 34.6245 50.2565 34.8871 49.6515 34.7817C48.9207 34.6543 48.3301 34.4526 47.8088 34.1332C47.0173 33.6481 46.3518 32.9827 45.8668 32.1912C45.5474 31.6699 45.3457 31.0792 45.2183 30.3484C45.1128 29.7435 45.3755 29.1509 45.7509 28.6649C46.534 27.6512 46.9999 26.38 46.9999 25Z" fill="url(#paint4_linear_830_6315)"/>
<rect x="22" y="36" width="6" height="8" rx="3" fill="url(#paint5_linear_830_6315)"/>
<rect x="22" y="36" width="6" height="8" rx="3" fill="url(#paint6_linear_830_6315)"/>
<rect x="52" y="36" width="6" height="8" rx="3" fill="url(#paint7_linear_830_6315)"/>
<rect x="36" y="22" width="8" height="6" rx="3" fill="url(#paint8_linear_830_6315)"/>
<rect x="36" y="52" width="8" height="6" rx="3" fill="url(#paint9_linear_830_6315)"/>
<defs>
<linearGradient id="paint0_linear_830_6315" x1="40" y1="0" x2="40" y2="80" gradientUnits="userSpaceOnUse">
<stop stop-color="#0284C7"/>
<stop offset="1" stop-color="#0C4A6E"/>
</linearGradient>
<linearGradient id="paint1_linear_830_6315" x1="24.9026" y1="45.1948" x2="24.9026" y2="65" gradientUnits="userSpaceOnUse">
<stop stop-color="#F9FAFB"/>
<stop offset="1" stop-color="#9CA3AF"/>
</linearGradient>
<linearGradient id="paint2_linear_830_6315" x1="55.0974" y1="45.1948" x2="55.0974" y2="64.9999" gradientUnits="userSpaceOnUse">
<stop stop-color="#F9FAFB"/>
<stop offset="1" stop-color="#9CA3AF"/>
</linearGradient>
<linearGradient id="paint3_linear_830_6315" x1="24.9026" y1="15" x2="24.9026" y2="34.8052" gradientUnits="userSpaceOnUse">
<stop stop-color="#F9FAFB"/>
<stop offset="1" stop-color="#9CA3AF"/>
</linearGradient>
<linearGradient id="paint4_linear_830_6315" x1="55.0974" y1="15" x2="55.0974" y2="34.8052" gradientUnits="userSpaceOnUse">
<stop stop-color="#F9FAFB"/>
<stop offset="1" stop-color="#9CA3AF"/>
</linearGradient>
<linearGradient id="paint5_linear_830_6315" x1="25" y1="36" x2="25" y2="44" gradientUnits="userSpaceOnUse">
<stop stop-color="#FDE68A"/>
<stop offset="1" stop-color="#D97706"/>
</linearGradient>
<linearGradient id="paint6_linear_830_6315" x1="25" y1="36" x2="25" y2="44" gradientUnits="userSpaceOnUse">
<stop stop-color="#FDE68A"/>
<stop offset="1" stop-color="#D97706"/>
</linearGradient>
<linearGradient id="paint7_linear_830_6315" x1="55" y1="36" x2="55" y2="44" gradientUnits="userSpaceOnUse">
<stop stop-color="#FDE68A"/>
<stop offset="1" stop-color="#D97706"/>
</linearGradient>
<linearGradient id="paint8_linear_830_6315" x1="40" y1="22" x2="40" y2="28" gradientUnits="userSpaceOnUse">
<stop stop-color="#FDE68A"/>
<stop offset="1" stop-color="#D97706"/>
</linearGradient>
<linearGradient id="paint9_linear_830_6315" x1="40" y1="52" x2="40" y2="58" gradientUnits="userSpaceOnUse">
<stop stop-color="#FDE68A"/>
<stop offset="1" stop-color="#D97706"/>
</linearGradient>
</defs>
</svg>
