<svg width="80" height="80" viewBox="0 0 80 80" fill="none" xmlns="http://www.w3.org/2000/svg">
<rect width="80" height="80" fill="url(#paint0_linear_830_7608)"/>
<path d="M17 23C17 19.134 20.134 16 24 16H56C59.866 16 63 19.134 63 23C63 26.866 59.866 30 56 30H24C20.134 30 17 26.866 17 23Z" fill="black" fill-opacity="0.2"/>
<path fill-rule="evenodd" clip-rule="evenodd" d="M24 34C20.134 34 17 37.134 17 41C17 44.866 20.134 48 24 48H56C59.866 48 63 44.866 63 41C63 37.134 59.866 34 56 34H24ZM29 38C27.3431 38 26 39.3431 26 41C26 42.6569 27.3431 44 29 44C30.6569 44 32 42.6569 32 41C32 39.3431 30.6569 38 29 38ZM37 41C37 39.3431 38.3431 38 40 38C41.6569 38 43 39.3431 43 41C43 42.6569 41.6569 44 40 44C38.3431 44 37 42.6569 37 41ZM51 38C49.3431 38 48 39.3431 48 41C48 42.6569 49.3431 44 51 44C52.6569 44 54 42.6569 54 41C54 39.3431 52.6569 38 51 38Z" fill="black" fill-opacity="0.2"/>
<path d="M17 59C17 55.134 20.134 52 24 52H56C59.866 52 63 55.134 63 59C63 62.866 59.866 66 56 66H24C20.134 66 17 62.866 17 59Z" fill="black" fill-opacity="0.2"/>
<rect x="17" y="15" width="46" height="14" rx="7" fill="url(#paint1_linear_830_7608)"/>
<path fill-rule="evenodd" clip-rule="evenodd" d="M24 33C20.134 33 17 36.134 17 40C17 43.866 20.134 47 24 47H56C59.866 47 63 43.866 63 40C63 36.134 59.866 33 56 33H24ZM29 37C27.3431 37 26 38.3431 26 40C26 41.6569 27.3431 43 29 43C30.6569 43 32 41.6569 32 40C32 38.3431 30.6569 37 29 37ZM37 40C37 38.3431 38.3431 37 40 37C41.6569 37 43 38.3431 43 40C43 41.6569 41.6569 43 40 43C38.3431 43 37 41.6569 37 40ZM51 37C49.3431 37 48 38.3431 48 40C48 41.6569 49.3431 43 51 43C52.6569 43 54 41.6569 54 40C54 38.3431 52.6569 37 51 37Z" fill="url(#paint2_linear_830_7608)"/>
<rect x="17" y="51" width="46" height="14" rx="7" fill="url(#paint3_linear_830_7608)"/>
<defs>
<linearGradient id="paint0_linear_830_7608" x1="40" y1="0" x2="40" y2="80" gradientUnits="userSpaceOnUse">
<stop stop-color="#0284C7"/>
<stop offset="1" stop-color="#0C4A6E"/>
</linearGradient>
<linearGradient id="paint1_linear_830_7608" x1="40" y1="15" x2="40" y2="29" gradientUnits="userSpaceOnUse">
<stop stop-color="#F9FAFB"/>
<stop offset="1" stop-color="#9CA3AF"/>
</linearGradient>
<linearGradient id="paint2_linear_830_7608" x1="40" y1="33" x2="40" y2="47" gradientUnits="userSpaceOnUse">
<stop stop-color="#F9FAFB"/>
<stop offset="1" stop-color="#9CA3AF"/>
</linearGradient>
<linearGradient id="paint3_linear_830_7608" x1="40" y1="51" x2="40" y2="65" gradientUnits="userSpaceOnUse">
<stop stop-color="#FDE68A"/>
<stop offset="1" stop-color="#D97706"/>
</linearGradient>
</defs>
</svg>
