<svg width="80" height="80" viewBox="0 0 80 80" fill="none" xmlns="http://www.w3.org/2000/svg">
<rect width="80" height="80" fill="url(#paint0_linear_830_6297)"/>
<path d="M51.9138 49.9804C51.5619 49.1886 50.4381 49.1886 50.0862 49.9804L49.3691 51.5939C49.0752 52.2551 49.5592 53 50.2829 53H51.7171C52.4408 53 52.9248 52.2551 52.6309 51.5939L51.9138 49.9804Z" fill="black" fill-opacity="0.2"/>
<path fill-rule="evenodd" clip-rule="evenodd" d="M37.3432 38.3432C35 40.6864 35 44.4576 35 52C35 59.5424 35 63.3136 37.3432 65.6568C39.6864 68 43.4576 68 51 68C58.5424 68 62.3136 68 64.6568 65.6568C67 63.3136 67 59.5424 67 52C67 44.4576 67 40.6864 64.6568 38.3432C62.3136 36 58.5424 36 51 36C43.4576 36 39.6864 36 37.3432 38.3432ZM52.8276 42.1877C52.5066 41.4655 51.7904 41 51 41C50.2096 41 49.4934 41.4655 49.1724 42.1877L41.1724 60.1878C40.7238 61.1971 41.1784 62.379 42.1878 62.8276C43.1971 63.2762 44.379 62.8216 44.8276 61.8122L46.7024 57.5939C46.8629 57.2327 47.221 57 47.6162 57H54.3838C54.779 57 55.1371 57.2327 55.2976 57.5939L57.1724 61.8122C57.621 62.8216 58.8029 63.2762 59.8122 62.8276C60.8216 62.379 61.2762 61.1971 60.8276 60.1878L52.8276 42.1877Z" fill="black" fill-opacity="0.2"/>
<path d="M13 30C13 22.4576 13 18.6864 15.3432 16.3432C17.6864 14 21.4576 14 29 14C36.5424 14 40.3136 14 42.6568 16.3432C45 18.6864 45 22.4576 45 30C45 30.7274 45 31.4196 44.9979 32.0789C44.9962 32.6181 44.565 33.0559 44.0262 33.0769C39.49 33.2545 36.7237 33.8414 34.7826 35.7826C34.651 35.9141 34.4254 35.8874 34.3068 35.744C34.2748 35.7053 34.2411 35.6675 34.2057 35.6307L32.5139 33.8719C32.1761 33.5208 32.1418 32.9783 32.4223 32.5798C33.7143 30.7445 34.87 28.7501 35.7086 26.6391C35.8641 26.2476 36.2382 25.9828 36.6595 25.9828H39C40.1046 25.9828 41 25.0873 41 23.9828C41 22.8782 40.1046 21.9828 39 21.9828H31.5828C31.3161 21.9828 31.1 21.7666 31.1 21.5C31.1 20.3954 30.2046 19.5 29.1 19.5C27.9954 19.5 27.1 20.3954 27.1 21.5C27.1 21.7666 26.8839 21.9828 26.6172 21.9828H21C19.8954 21.9828 19 22.8782 19 23.9828C19 25.0873 19.8954 25.9828 21 25.9828H30.0963C30.8221 25.9828 31.3017 26.7301 30.9586 27.3697C30.5125 28.2012 30.0101 29.0208 29.4649 29.8239C29.3623 29.975 29.1415 29.978 29.0347 29.8299C28.4257 28.9853 28.0085 28.3252 27.8657 28.0188C27.399 27.0176 26.2092 26.5843 25.208 27.0509C24.2068 27.5175 23.7735 28.7073 24.2401 29.7085C24.5601 30.3952 25.1843 31.3291 25.7903 32.1695C25.9252 32.3565 26.0642 32.5459 26.2055 32.735C26.4911 33.1173 26.4783 33.6485 26.1593 34.0034C24.8182 35.4954 23.4338 36.8504 22.1534 38.0278C21.3403 38.7754 21.2873 40.0406 22.0349 40.8537C22.7826 41.6668 24.0478 41.7199 24.8609 40.9722C26.0571 39.8723 27.3635 38.6032 28.6618 37.1961C29.0576 36.767 29.7346 36.7526 30.1393 37.1733L31.3229 38.4037C31.3883 38.4717 31.4573 38.534 31.5293 38.5907C32.0813 39.025 32.6718 39.7375 32.5361 40.4267C32.2807 41.7231 32.147 43.237 32.077 45.0261C32.0559 45.5649 31.6181 45.9962 31.0789 45.9979C30.4196 46 29.7274 46 29 46C21.4576 46 17.6864 46 15.3432 43.6568C13 41.3136 13 37.5424 13 30Z" fill="black" fill-opacity="0.2"/>
<path d="M51.9138 48.9804C51.5619 48.1886 50.4381 48.1886 50.0862 48.9804L49.3691 50.5939C49.0752 51.2551 49.5592 52 50.2829 52H51.7171C52.4408 52 52.9248 51.2551 52.6309 50.5939L51.9138 48.9804Z" fill="url(#paint1_linear_830_6297)"/>
<path fill-rule="evenodd" clip-rule="evenodd" d="M37.3432 37.3432C35 39.6864 35 43.4576 35 51C35 58.5424 35 62.3136 37.3432 64.6568C39.6864 67 43.4576 67 51 67C58.5424 67 62.3136 67 64.6568 64.6568C67 62.3136 67 58.5424 67 51C67 43.4576 67 39.6864 64.6568 37.3432C62.3136 35 58.5424 35 51 35C43.4576 35 39.6864 35 37.3432 37.3432ZM52.8276 41.1877C52.5066 40.4655 51.7904 40 51 40C50.2096 40 49.4934 40.4655 49.1724 41.1877L41.1724 59.1878C40.7238 60.1971 41.1784 61.379 42.1878 61.8276C43.1971 62.2762 44.379 61.8216 44.8276 60.8123L46.7024 56.5939C46.8629 56.2327 47.221 56 47.6162 56H54.3838C54.779 56 55.1371 56.2327 55.2976 56.5939L57.1724 60.8123C57.621 61.8216 58.8029 62.2762 59.8123 61.8276C60.8216 61.379 61.2762 60.1971 60.8276 59.1878L52.8276 41.1877Z" fill="url(#paint2_linear_830_6297)"/>
<path d="M13 29C13 21.4576 13 17.6864 15.3432 15.3432C17.6864 13 21.4576 13 29 13C36.5424 13 40.3136 13 42.6568 15.3432C45 17.6864 45 21.4576 45 29C45 29.7274 45 30.4196 44.9979 31.0789C44.9962 31.6181 44.565 32.0559 44.0262 32.0769C39.49 32.2545 36.7237 32.8414 34.7826 34.7826C34.651 34.9141 34.4254 34.8874 34.3068 34.744C34.2748 34.7053 34.2411 34.6675 34.2057 34.6307L32.5139 32.8719C32.1761 32.5208 32.1418 31.9783 32.4223 31.5798C33.7143 29.7445 34.87 27.7501 35.7086 25.6391C35.8641 25.2476 36.2382 24.9828 36.6595 24.9828H39C40.1046 24.9828 41 24.0873 41 22.9828C41 21.8782 40.1046 20.9828 39 20.9828H31.5828C31.3161 20.9828 31.1 20.7666 31.1 20.5C31.1 19.3954 30.2046 18.5 29.1 18.5C27.9954 18.5 27.1 19.3954 27.1 20.5C27.1 20.7666 26.8839 20.9828 26.6172 20.9828H21C19.8954 20.9828 19 21.8782 19 22.9828C19 24.0873 19.8954 24.9828 21 24.9828H30.0963C30.8221 24.9828 31.3017 25.7301 30.9586 26.3697C30.5125 27.2012 30.0101 28.0208 29.4649 28.8239C29.3623 28.975 29.1415 28.978 29.0347 28.8299C28.4257 27.9853 28.0085 27.3252 27.8657 27.0188C27.399 26.0176 26.2092 25.5843 25.208 26.0509C24.2068 26.5175 23.7735 27.7073 24.2401 28.7085C24.5601 29.3952 25.1843 30.3291 25.7903 31.1695C25.9252 31.3565 26.0642 31.5459 26.2055 31.735C26.4911 32.1173 26.4783 32.6485 26.1593 33.0034C24.8182 34.4954 23.4338 35.8504 22.1534 37.0278C21.3403 37.7754 21.2873 39.0406 22.0349 39.8537C22.7826 40.6668 24.0478 40.7199 24.8609 39.9722C26.0571 38.8723 27.3635 37.6032 28.6618 36.1961C29.0576 35.767 29.7346 35.7526 30.1393 36.1733L31.3229 37.4037C31.3883 37.4717 31.4573 37.534 31.5293 37.5907C32.0813 38.025 32.6718 38.7375 32.5361 39.4267C32.2807 40.7231 32.147 42.237 32.077 44.0261C32.0559 44.5649 31.6181 44.9962 31.0789 44.9979C30.4196 45 29.7274 45 29 45C21.4576 45 17.6864 45 15.3432 42.6568C13 40.3136 13 36.5424 13 29Z" fill="url(#paint3_linear_830_6297)"/>
<defs>
<linearGradient id="paint0_linear_830_6297" x1="40" y1="0" x2="40" y2="80" gradientUnits="userSpaceOnUse">
<stop stop-color="#6B7280"/>
<stop offset="1" stop-color="#1F2937"/>
</linearGradient>
<linearGradient id="paint1_linear_830_6297" x1="51" y1="35" x2="51" y2="67" gradientUnits="userSpaceOnUse">
<stop stop-color="#FDE68A"/>
<stop offset="1" stop-color="#D97706"/>
</linearGradient>
<linearGradient id="paint2_linear_830_6297" x1="51" y1="35" x2="51" y2="67" gradientUnits="userSpaceOnUse">
<stop stop-color="#FDE68A"/>
<stop offset="1" stop-color="#D97706"/>
</linearGradient>
<linearGradient id="paint3_linear_830_6297" x1="29" y1="13" x2="29" y2="45" gradientUnits="userSpaceOnUse">
<stop stop-color="#F9FAFB"/>
<stop offset="1" stop-color="#9CA3AF"/>
</linearGradient>
</defs>
</svg>
