<?xml version="1.0" encoding="UTF-8" standalone="no"?>
<!-- Generator: Adobe Illustrator 20.1.0, SVG Export Plug-In . SVG Version: 6.00 Build 0)  -->

<svg
   xmlns:dc="http://purl.org/dc/elements/1.1/"
   xmlns:cc="http://creativecommons.org/ns#"
   xmlns:rdf="http://www.w3.org/1999/02/22-rdf-syntax-ns#"
   xmlns:svg="http://www.w3.org/2000/svg"
   xmlns="http://www.w3.org/2000/svg"
   xmlns:sodipodi="http://sodipodi.sourceforge.net/DTD/sodipodi-0.dtd"
   xmlns:inkscape="http://www.inkscape.org/namespaces/inkscape"
   version="1.1"
   id="Слой_1"
   x="0px"
   y="0px"
   viewBox="0 0 516 516"
   style="enable-background:new 0 0 516 516;"
   xml:space="preserve"
   sodipodi:docname="std-icon.svg"
   inkscape:version="0.92.3 (2405546, 2018-03-11)"><metadata
   id="metadata94"><rdf:RDF><cc:Work
       rdf:about=""><dc:format>image/svg+xml</dc:format><dc:type
         rdf:resource="http://purl.org/dc/dcmitype/StillImage" /></cc:Work></rdf:RDF></metadata><defs
   id="defs92" /><sodipodi:namedview
   pagecolor="#ffffff"
   bordercolor="#666666"
   borderopacity="1"
   objecttolerance="10"
   gridtolerance="10"
   guidetolerance="10"
   inkscape:pageopacity="0"
   inkscape:pageshadow="2"
   inkscape:window-width="1920"
   inkscape:window-height="1017"
   id="namedview90"
   showgrid="false"
   inkscape:zoom="0.45736434"
   inkscape:cx="258"
   inkscape:cy="258"
   inkscape:window-x="-8"
   inkscape:window-y="-8"
   inkscape:window-maximized="1"
   inkscape:current-layer="Слой_1" />
<style
   type="text/css"
   id="style71">
	.st0{fill:url(#Shape_1_);stroke:#000000;stroke-width:4;}
	.st1{fill:#2E1DEB;}
</style>
<title
   id="title73">Lucid</title>
<desc
   id="desc75">Created with Sketch.</desc>
<g
   id="Page-1">
	<g
   id="Lucid"
   transform="translate(2.000000, 2.000000)">
		
			<linearGradient
   id="Shape_1_"
   gradientUnits="userSpaceOnUse"
   x1="-48.4082"
   y1="652.7324"
   x2="-48.4082"
   y2="651.7324"
   gradientTransform="matrix(512 0 0 -512 25041 334199)">
			<stop
   offset="0"
   style="stop-color:#FFFFFF"
   id="stop77" />
			<stop
   offset="1"
   style="stop-color:#EEEEEE"
   id="stop79" />
		</linearGradient>
		<path
   id="Shape"
   class="st0"
   d="M256,512c112.2,0,174.5,0,215.3-40.7C512,430.5,512,368.2,512,256s0-174.5-40.7-215.3    C430.5,0,368.2,0,256,0S81.5,0,40.7,40.7C0,81.5,0,143.8,0,256s0,174.5,40.7,215.3C81.5,512,143.8,512,256,512z" />
	</g>
</g>

<g
   transform="matrix(0.85542487,0,0,0.85542487,37.729236,39.169486)"
   id="g139"><path
     style="fill:#f26004"
     inkscape:connector-curvature="0"
     d="m 411.404,288.506 c -18.455,-45.014 -27.685,-92.455 -27.685,-142.325 0,-31.405 -9.131,-56.337 -27.398,-74.802 -18.28,-18.464 -43.406,-29.602 -75.383,-33.407 1.52,-3.424 2.279,-6.945 2.279,-10.562 0,-7.614 -2.663,-14.091 -7.991,-19.416 C 269.898,2.663 263.427,0 255.812,0 c -7.61,0 -14.083,2.663 -19.414,7.994 -5.33,5.329 -7.993,11.802 -7.993,19.416 0,3.617 0.76,7.135 2.285,10.562 -31.977,3.809 -57.103,14.942 -75.375,33.407 -18.271,18.464 -27.406,43.396 -27.406,74.802 0,49.87 -9.229,97.311 -27.694,142.325 -18.464,45.015 -45.776,82.847 -81.942,113.492 0,9.896 3.617,18.463 10.85,25.693 7.232,7.231 15.796,10.852 25.697,10.852 h 127.907 c 0,20.178 7.135,37.404 21.411,51.675 14.277,14.273 31.504,21.412 51.678,21.412 20.177,0 37.404,-7.139 51.675,-21.412 14.273,-14.271 21.412,-31.497 21.412,-51.675 H 456.81 c 9.897,0 18.47,-3.613 25.694,-10.852 7.234,-7.23 10.852,-15.797 10.852,-25.693 -36.16,-30.645 -63.475,-68.477 -81.952,-113.492 z M 255.816,488.787 c -13.894,0 -25.747,-4.896 -35.548,-14.698 -9.801,-9.804 -14.703,-21.658 -14.703,-35.553 0,-3.046 1.524,-4.568 4.568,-4.568 3.046,0 4.57,1.522 4.57,4.568 0,11.231 4.043,20.889 12.132,28.982 8.091,8.094 17.749,12.135 28.98,12.135 3.046,0 4.575,1.53 4.575,4.569 0.002,3.046 -1.528,4.565 -4.574,4.565 z M 70.523,401.998 c 31.217,-34.454 54.674,-73.614 70.376,-117.486 15.702,-43.872 23.557,-89.982 23.557,-138.327 0,-48.727 30.452,-73.089 91.36,-73.089 60.907,0 91.361,24.362 91.361,73.089 0,48.345 7.851,94.455 23.555,138.327 15.697,43.875 39.167,83.032 70.38,117.486 z"
     id="path137" /></g><g
   transform="matrix(0.85542487,0,0,0.85542487,32.610592,36.983046)"
   id="g141" /><g
   transform="matrix(0.85542487,0,0,0.85542487,32.610592,36.983046)"
   id="g143" /><g
   transform="matrix(0.85542487,0,0,0.85542487,32.610592,36.983046)"
   id="g145" /><g
   transform="matrix(0.85542487,0,0,0.85542487,32.610592,36.983046)"
   id="g147" /><g
   transform="matrix(0.85542487,0,0,0.85542487,32.610592,36.983046)"
   id="g149" /><g
   transform="matrix(0.85542487,0,0,0.85542487,32.610592,36.983046)"
   id="g151" /><g
   transform="matrix(0.85542487,0,0,0.85542487,32.610592,36.983046)"
   id="g153" /><g
   transform="matrix(0.85542487,0,0,0.85542487,32.610592,36.983046)"
   id="g155" /><g
   transform="matrix(0.85542487,0,0,0.85542487,32.610592,36.983046)"
   id="g157" /><g
   transform="matrix(0.85542487,0,0,0.85542487,32.610592,36.983046)"
   id="g159" /><g
   transform="matrix(0.85542487,0,0,0.85542487,32.610592,36.983046)"
   id="g161" /><g
   transform="matrix(0.85542487,0,0,0.85542487,32.610592,36.983046)"
   id="g163" /><g
   transform="matrix(0.85542487,0,0,0.85542487,32.610592,36.983046)"
   id="g165" /><g
   transform="matrix(0.85542487,0,0,0.85542487,32.610592,36.983046)"
   id="g167" /><g
   transform="matrix(0.85542487,0,0,0.85542487,32.610592,36.983046)"
   id="g169" /></svg>