<?xml version="1.0" encoding="UTF-8"?>
<svg width="64px" height="64px" viewBox="0 0 64 64" version="1.1" xmlns="http://www.w3.org/2000/svg" xmlns:xlink="http://www.w3.org/1999/xlink">
    <!-- Generator: Sketch 55 (78076) - https://sketchapp.com -->
    <title>Timeline</title>
    <desc>Created with Sketch.</desc>
    <defs>
        <path d="M32,64 C46.0222222,64 53.8173667,64 58.9086889,58.9086889 C64,53.8173667 64,46.0222222 64,32 C64,17.9777778 64,10.1826333 58.9086889,5.09131111 C53.8173667,0 46.0222222,0 32,0 C17.9777778,0 10.1826333,0 5.09131111,5.09131111 C0,10.1826333 0,17.9777778 0,32 C0,46.0222222 0,53.8173667 5.09131111,58.9086889 C10.1826333,64 17.9777778,64 32,64 Z" id="path-1"></path>
        <linearGradient x1="50%" y1="0%" x2="50%" y2="100%" id="linearGradient-3">
            <stop stop-color="#FDFEFF" offset="0%"></stop>
            <stop stop-color="#FBFCFD" stop-opacity="0.9" offset="100%"></stop>
        </linearGradient>
        <path d="M32,12 C20.9516129,12 12,20.9516129 12,32 C12,43.0483871 20.9516129,52 32,52 C43.0483871,52 52,43.0483871 52,32 C52,20.9516129 43.0483871,12 32,12 Z M36.6048387,40.233871 L29.4919355,35.0645161 C29.2419355,34.8790323 29.0967742,34.5887097 29.0967742,34.2822581 L29.0967742,20.7096774 C29.0967742,20.1774194 29.5322581,19.7419355 30.0645161,19.7419355 L33.9354839,19.7419355 C34.4677419,19.7419355 34.9032258,20.1774194 34.9032258,20.7096774 L34.9032258,31.8145161 L40.0241935,35.5403226 C40.4596774,35.8548387 40.5483871,36.4596774 40.233871,36.8951613 L37.9596774,40.0241935 C37.6451613,40.4516129 37.0403226,40.5483871 36.6048387,40.233871 Z" id="path-4"></path>
        <filter x="-5.0%" y="-2.5%" width="110.0%" height="110.0%" filterUnits="objectBoundingBox" id="filter-5">
            <feOffset dx="0" dy="1" in="SourceAlpha" result="shadowOffsetOuter1"></feOffset>
            <feGaussianBlur stdDeviation="0.5" in="shadowOffsetOuter1" result="shadowBlurOuter1"></feGaussianBlur>
            <feColorMatrix values="0 0 0 0 0   0 0 0 0 0   0 0 0 0 0  0 0 0 0.1 0" type="matrix" in="shadowBlurOuter1"></feColorMatrix>
        </filter>
    </defs>
    <g id="Page-1" stroke="none" stroke-width="1" fill="none" fill-rule="evenodd">
        <g id="Artboard" transform="translate(-664.000000, -430.000000)">
            <g id="Timeline" transform="translate(664.000000, 430.000000)">
                <mask id="mask-2" fill="white">
                    <use xlink:href="#path-1"></use>
                </mask>
                <use id="Path" fill="#00B356" xlink:href="#path-1"></use>
                <g id="clock" mask="url(#mask-2)">
                    <g transform="translate(12.000000, 12.000000)"></g>
                </g>
                <g id="Shape" fill-rule="nonzero" mask="url(#mask-2)">
                    <use fill="black" fill-opacity="1" filter="url(#filter-5)" xlink:href="#path-4"></use>
                    <use fill="url(#linearGradient-3)" xlink:href="#path-4"></use>
                </g>
            </g>
        </g>
    </g>
</svg>