<svg width="24" height="24" viewBox="0 0 24 24" fill="none" xmlns="http://www.w3.org/2000/svg">
<rect x="0.75" y="0.75" width="22.5" height="22.5" rx="3.25" fill="white" stroke="#555555" stroke-width="1.5" stroke-linecap="round" stroke-linejoin="round"/>
<path d="M19.3271 9.93627C19.9854 10.5946 19.9854 11.662 19.3271 12.3204C18.6687 12.9788 17.6013 12.9788 16.943 12.3204C16.2846 11.662 16.2846 10.5946 16.943 9.93627C17.6013 9.27791 18.6687 9.27791 19.3271 9.93627" stroke="#323232" stroke-width="1.5" stroke-linecap="round" stroke-linejoin="round"/>
<path d="M13.8355 6.92697C14.8492 7.9407 14.8492 9.58429 13.8355 10.598C12.8218 11.6118 11.1782 11.6118 10.1644 10.598C9.1507 9.5843 9.1507 7.94071 10.1644 6.92697C11.1782 5.91323 12.8218 5.91323 13.8355 6.92697" stroke="#323232" stroke-width="1.5" stroke-linecap="round" stroke-linejoin="round"/>
<path d="M7.05707 9.93627C7.71543 10.5946 7.71543 11.662 7.05707 12.3204C6.39871 12.9788 5.3313 12.9788 4.67294 12.3204C4.01458 11.662 4.01458 10.5946 4.67294 9.93627C5.3313 9.27791 6.39871 9.27791 7.05707 9.93627" stroke="#323232" stroke-width="1.5" stroke-linecap="round" stroke-linejoin="round"/>
<path d="M21.1667 17.8333V16.92C21.1667 15.7692 20.2342 14.8367 19.0833 14.8367H18.4158" stroke="#323232" stroke-width="1.5" stroke-linecap="round" stroke-linejoin="round"/>
<path d="M2.83333 17.8333V16.92C2.83333 15.7692 3.76583 14.8367 4.91667 14.8367H5.58417" stroke="#323232" stroke-width="1.5" stroke-linecap="round" stroke-linejoin="round"/>
<path d="M16.4492 17.8333V16.4992C16.4492 14.8883 15.1433 13.5825 13.5325 13.5825H10.4667C8.85583 13.5825 7.55 14.8883 7.55 16.4992V17.8333" stroke="#323232" stroke-width="1.5" stroke-linecap="round" stroke-linejoin="round"/>
</svg>
