<svg width="320" height="320" viewBox="0 0 320 320" fill="none" xmlns="http://www.w3.org/2000/svg">
<g clip-path="url(#clip0_1016_7697)">
<path d="M160 0C281.326 0 320 38.6737 320 160C320 281.326 281.326 320 160 320C38.6736 320 0 281.326 0 160C0 38.6737 38.6736 0 160 0Z" fill="url(#paint0_linear_1016_7697)"/>
<path d="M160 2C220.573 2 259.85 11.6833 284.083 35.9168C308.317 60.1504 318 99.4272 318 160C318 220.573 308.317 259.85 284.083 284.083C259.85 308.317 220.573 318 160 318C99.4272 318 60.1504 308.317 35.9168 284.083C11.6833 259.85 2 220.573 2 160C2 99.4272 11.6833 60.1504 35.9168 35.9168C60.1504 11.6833 99.4272 2 160 2Z" stroke="#F8FAFC" stroke-opacity="0.2" stroke-width="4"/>
<g clip-path="url(#clip1_1016_7697)">
<path d="M243.564 99.0323L171.837 57.7495C165.62 54.0835 155.26 54.0835 149.044 57.7495L77.3169 99.0323C71.1006 102.698 66 111.465 66 118.638V201.203C66 208.376 71.1006 217.302 77.3169 220.968L149.044 262.25C155.26 265.917 165.62 265.917 171.837 262.25L243.564 220.968C249.78 217.302 254.88 208.535 254.88 201.203V118.638C254.88 111.624 249.78 102.698 243.564 99.0323ZM224.118 143.503H216.626V130.911C216.626 121.347 209.135 118.319 194.789 118.319H194.152C159.723 118.319 162.751 105.408 161.795 100.786H161.317C160.361 105.567 163.708 118.319 129.279 118.319H128.323C113.977 118.319 106.486 121.347 106.486 130.911V140.634L223.958 174.584V176.497V188.611C223.958 202.478 217.264 210.129 194.789 210.129H193.674C176.14 210.129 165.302 213.795 165.302 227.662H157.81C157.81 213.795 146.972 210.129 129.438 210.129H128.323C105.848 210.129 99.1537 202.478 99.1537 188.611V176.497H106.645V189.089C106.645 198.812 114.137 201.681 128.482 201.681H129.12C163.548 201.681 160.52 214.592 161.476 219.214H161.954C162.911 214.433 159.723 201.681 193.992 201.681H194.949C209.294 201.681 216.786 198.653 216.786 189.089V181.757L99.3131 147.806V143.503V131.389C99.3131 117.522 106.008 109.871 128.482 109.871H129.598C147.131 109.871 157.97 106.205 157.97 92.3378H165.461C165.461 106.205 176.3 109.871 193.833 109.871H194.949C217.423 109.871 224.118 117.522 224.118 131.389V143.503Z" fill="#EAB308"/>
</g>
</g>
<defs>
<linearGradient id="paint0_linear_1016_7697" x1="160" y1="0" x2="160" y2="320" gradientUnits="userSpaceOnUse">
<stop stop-color="#475569"/>
<stop offset="1" stop-color="#1E293B"/>
</linearGradient>
<clipPath id="clip0_1016_7697">
<rect width="320" height="320" fill="white"/>
</clipPath>
<clipPath id="clip1_1016_7697">
<rect width="240" height="240" fill="white" transform="translate(40 40)"/>
</clipPath>
</defs>
</svg>
