<svg width="3264" height="1024" viewBox="0 0 3264 1024" fill="none" xmlns="http://www.w3.org/2000/svg">
<path d="M840.961 925.025C830.592 933.294 830.326 949.086 841.944 955.482C875.828 974.134 922.238 986.435 968.344 990.512C979.614 991.508 989.003 982.403 989.095 971.089C989.275 949.129 989.685 922.119 990.142 892C990.567 864.021 991.033 833.359 991.392 801.571C991.574 785.443 967.594 779.52 958.994 793.164C927.276 843.482 887.297 888.071 840.961 925.025Z" fill="url(#paint0_radial)"/>
<path d="M181.2 100.447C191.909 91.8285 191.69 75.3035 179.457 69.0336C142.799 50.2454 95.6229 37.8275 52.6727 33.6189C41.4005 32.5144 32 41.6232 32 52.9494V223.179C32 239.276 56.0356 245.111 64.5993 231.481C95.9621 181.566 135.447 137.27 181.2 100.447Z" fill="url(#paint1_radial)"/>
<path d="M512 992C777.097 992 992 777.097 992 512C992 376.547 935.893 254.198 845.653 166.926C827.875 149.733 800 163.288 800 188.019V512C800 671.058 671.058 800 512 800C435.612 800 366.169 770.26 314.62 721.727C300.203 708.154 272 717.656 272 737.457V904.713C272 918.992 279.552 932.306 292.241 938.852C358.087 972.82 432.804 992 512 992Z" fill="url(#paint2_radial)"/>
<path d="M709.38 302.273C723.797 315.846 752 306.344 752 286.543V119.287C752 105.008 744.448 91.6942 731.758 85.148C665.913 51.1799 591.196 32 512 32C246.903 32 32 246.903 32 512C32 647.453 88.1065 769.802 178.347 857.074C196.125 874.267 224 860.712 224 835.981V512C224 352.942 352.942 224 512 224C588.388 224 657.831 253.74 709.38 302.273Z" fill="url(#paint3_radial)"/>
<path fill-rule="evenodd" clip-rule="evenodd" d="M1706.33 771.031C1647.44 805.243 1594.67 805.243 1566.17 805.243C1566.05 805.243 1565.92 805.243 1565.79 805.24C1565.67 805.243 1565.54 805.243 1565.41 805.243C1536.92 805.243 1484.14 805.243 1425.26 771.031C1399.38 757.054 1375.29 738.792 1352.98 716.245C1293.66 657.535 1264 586.462 1264 503.029V222.21C1264 211.936 1271.81 203.423 1282.08 203.794C1308.61 204.753 1357.53 212.247 1381.31 252.328C1384.28 257.323 1385.43 263.156 1385.43 268.964V503.029C1385.43 558.271 1403.03 595.731 1438.26 630.961C1473.39 666.098 1515.9 683.711 1565.79 683.8C1615.68 683.711 1658.19 666.098 1693.33 630.961C1728.55 595.731 1740.33 560.079 1746.16 503.029C1751.42 449.151 1751.85 376.059 1747.27 281.58C1746.85 273.095 1756.5 268.067 1762.97 273.572C1881.84 374.691 1867.58 503.029 1867.58 503.029C1867.58 586.462 1837.92 657.535 1778.6 716.245C1756.29 738.792 1732.2 757.054 1706.33 771.031Z" fill="url(#paint4_linear)"/>
<path fill-rule="evenodd" clip-rule="evenodd" d="M2123.11 242.93C2181.99 208.719 2234.77 208.719 2263.26 208.719C2263.39 208.719 2263.52 208.719 2263.64 208.719C2263.77 208.719 2263.9 208.719 2264.02 208.719C2292.52 208.719 2345.29 208.719 2404.18 242.93C2430.05 256.908 2454.14 275.169 2476.45 297.714C2535.78 356.425 2565.44 427.498 2565.44 510.93V791.75C2565.44 802.023 2557.63 810.536 2547.36 810.165C2520.82 809.206 2471.9 801.714 2448.12 761.633C2445.16 756.638 2444.01 750.804 2444.01 744.997V510.93C2444.01 451.718 2426.4 418.228 2391.18 382.999C2356.04 347.862 2313.53 330.249 2263.64 330.16C2213.75 330.249 2171.24 347.862 2136.11 382.999C2100.89 418.228 2083.28 450.845 2083.28 510.93V733.808C2083.28 742.05 2073.88 746.641 2067.58 741.328C1947.51 640.067 1961.85 510.93 1961.85 510.93C1961.85 427.498 1991.51 356.425 2050.84 297.714C2073.14 275.169 2097.23 256.908 2123.11 242.93Z" fill="url(#paint5_linear)"/>
<path fill-rule="evenodd" clip-rule="evenodd" d="M3263.25 501.331C3263.65 504.355 3263.88 507.553 3263.88 510.932V791.751C3263.88 802.024 3256.07 810.537 3245.8 810.166C3217.62 809.147 3164.2 800.76 3142.45 753.812C3142.48 753.131 3142.51 752.451 3142.56 751.771C3092.19 789.535 3029.62 811.908 2961.82 811.908C2795.28 811.908 2660.28 676.879 2660.28 510.312C2660.28 343.747 2795.28 208.719 2961.82 208.719C3125.36 208.719 3258.51 338.92 3263.25 501.331ZM2961.82 689.95C3061.02 689.95 3141.45 609.525 3141.45 510.312C3141.45 411.101 3061.02 330.675 2961.82 330.675C2862.65 330.675 2782.22 411.101 2782.22 510.312C2782.22 609.525 2862.65 689.95 2961.82 689.95Z" fill="url(#paint6_linear)"/>
<defs>
<radialGradient id="paint0_radial" cx="0" cy="0" r="1" gradientUnits="userSpaceOnUse" gradientTransform="translate(992 732) rotate(90) scale(260 165.059)">
<stop stop-color="#FB923C"/>
<stop offset="1" stop-color="#EF4444"/>
</radialGradient>
<radialGradient id="paint1_radial" cx="0" cy="0" r="1" gradientUnits="userSpaceOnUse" gradientTransform="translate(32 291.999) rotate(-90) scale(260 171.858)">
<stop stop-color="#0EA5E9"/>
<stop offset="1" stop-color="#38BDF8"/>
</radialGradient>
<radialGradient id="paint2_radial" cx="0" cy="0" r="1" gradientUnits="userSpaceOnUse" gradientTransform="translate(632 128) rotate(90) scale(864 719.971)">
<stop stop-color="#38BDF8"/>
<stop offset="1" stop-color="#0284C7"/>
</radialGradient>
<radialGradient id="paint3_radial" cx="0" cy="0" r="1" gradientUnits="userSpaceOnUse" gradientTransform="translate(525.5 32) rotate(90) scale(864 719.971)">
<stop stop-color="#34D399"/>
<stop offset="1" stop-color="#059669"/>
</radialGradient>
<linearGradient id="paint4_linear" x1="1566.06" y1="203.675" x2="1566.06" y2="805.243" gradientUnits="userSpaceOnUse">
<stop stop-color="#F59E0B"/>
<stop offset="1" stop-color="#F97316"/>
</linearGradient>
<linearGradient id="paint5_linear" x1="2263.38" y1="208.719" x2="2263.38" y2="810.284" gradientUnits="userSpaceOnUse">
<stop stop-color="#F59E0B"/>
<stop offset="1" stop-color="#F97316"/>
</linearGradient>
<linearGradient id="paint6_linear" x1="2962.08" y1="208.719" x2="2962.08" y2="811.908" gradientUnits="userSpaceOnUse">
<stop stop-color="#F59E0B"/>
<stop offset="1" stop-color="#F97316"/>
</linearGradient>
</defs>
</svg>
