<svg width="3329" height="1024" viewBox="0 0 3329 1024" fill="none" xmlns="http://www.w3.org/2000/svg">
<rect x="272" y="750" width="480" height="480" rx="240" transform="rotate(-90 272 750)" fill="url(#paint0_radial)"/>
<path d="M779.401 690.055C763.149 680.672 742.59 685.529 730.231 699.651C709.823 722.97 685.301 743.388 656.977 759.748C534.977 830.214 383.064 801.903 293.774 699.618C281.426 685.474 260.849 680.595 244.589 689.983L141.228 749.658C123.426 759.936 117.748 783.124 130.179 799.494C274.252 989.211 540.303 1046.58 751.961 924.333C808.828 891.487 856.433 848.757 893.861 799.564C906.308 783.204 900.614 760.038 882.811 749.759L779.401 690.055Z" fill="url(#paint1_radial)"/>
<path fill-rule="evenodd" clip-rule="evenodd" d="M955.292 692.569C947.404 711.623 924.423 718.359 906.564 708.048L803.11 648.319C786.927 638.976 780.824 618.86 786.781 601.149C812.4 524.975 806.432 438.579 763.106 363.505C719.695 288.284 647.692 239.873 568.76 224.078C566.956 223.717 565.189 223.243 563.471 222.664C529.689 216.564 494.736 216.413 460.291 222.662C458.63 223.213 456.925 223.665 455.185 224.013C424.963 230.056 395.196 241.061 367.024 257.333C245.351 327.609 193.853 472.785 237.124 601.034C243.106 618.763 237.021 638.926 220.817 648.282L117.391 707.995C99.5511 718.294 76.5822 711.566 68.6672 692.548C2.33824 533.176 28.224 353.227 128.319 219.925C129.03 218.734 129.819 217.568 130.687 216.431C168.04 167.543 215.472 125.071 272.08 92.3884C483.604 -29.735 749.443 27.4341 893.619 216.742C894.709 218.173 895.673 219.651 896.514 221.166C907.665 236.137 918.063 251.917 927.623 268.482C1005.23 402.963 1010.42 559.392 955.292 692.569Z" fill="url(#paint2_radial)"/>
<path d="M1345.4 656C1341.2 656 1337.84 654.88 1335.32 652.64C1332.8 650.4 1331.26 647.32 1330.7 643.4L1280.72 374.18L1280.3 370.82C1280.3 368.3 1281.14 366.2 1282.82 364.52C1284.78 362.84 1286.88 362 1289.12 362H1326.08C1333.08 362 1337 364.8 1337.84 370.4L1372.7 560.66L1410.5 437.6C1413.3 430.6 1417.92 427.1 1424.36 427.1H1447.04C1454.04 427.1 1458.52 430.6 1460.48 437.6L1498.7 560.24L1533.56 370.4C1534.12 367.32 1535.24 365.22 1536.92 364.1C1538.88 362.7 1541.68 362 1545.32 362H1582.28C1584.52 362 1586.48 362.84 1588.16 364.52C1589.84 366.2 1590.68 368.3 1590.68 370.82C1590.68 372.22 1590.54 373.34 1590.26 374.18L1540.28 643.4C1538.88 651.8 1533.98 656 1525.58 656H1497.44C1493.52 656 1490.3 655.02 1487.78 653.06C1485.26 651.1 1483.58 648.58 1482.74 645.5L1435.7 505.22L1388.66 645.5C1385.86 652.5 1380.82 656 1373.54 656H1345.4ZM1650.07 656C1647.27 656 1644.89 655.02 1642.93 653.06C1640.97 651.1 1639.99 648.72 1639.99 645.92V372.5C1639.99 369.42 1640.83 366.9 1642.51 364.94C1644.47 362.98 1646.99 362 1650.07 362H1834.87C1837.95 362 1840.47 362.98 1842.43 364.94C1844.39 366.9 1845.37 369.42 1845.37 372.5V400.22C1845.37 403.3 1844.39 405.82 1842.43 407.78C1840.47 409.46 1837.95 410.3 1834.87 410.3H1696.69V484.64H1825.63C1828.71 484.64 1831.23 485.62 1833.19 487.58C1835.15 489.26 1836.13 491.64 1836.13 494.72V520.76C1836.13 523.84 1835.15 526.36 1833.19 528.32C1831.23 530 1828.71 530.84 1825.63 530.84H1696.69V607.7H1838.23C1841.31 607.7 1843.83 608.68 1845.79 610.64C1847.75 612.6 1848.73 615.12 1848.73 618.2V645.92C1848.73 649 1847.75 651.52 1845.79 653.48C1843.83 655.16 1841.31 656 1838.23 656H1650.07ZM1911.34 656C1908.54 656 1906.16 655.02 1904.2 653.06C1902.24 651.1 1901.26 648.72 1901.26 645.92V372.5C1901.26 369.42 1902.1 366.9 1903.78 364.94C1905.74 362.98 1908.26 362 1911.34 362H2033.14C2065.9 362 2090.26 369.28 2106.22 383.84C2122.46 398.12 2130.58 417.72 2130.58 442.64C2130.58 457.2 2126.94 469.66 2119.66 480.02C2112.66 490.1 2104.4 497.38 2094.88 501.86C2106.64 507.18 2116.44 515.86 2124.28 527.9C2132.4 539.94 2136.46 553.66 2136.46 569.06C2136.46 595.1 2127.64 616.1 2110 632.06C2092.64 648.02 2068.14 656 2036.5 656H1911.34ZM2025.58 482.54C2040.14 482.54 2051.2 479.04 2058.76 472.04C2066.32 465.04 2070.1 455.66 2070.1 443.9C2070.1 431.86 2066.32 422.62 2058.76 416.18C2051.2 409.46 2040.14 406.1 2025.58 406.1H1959.64V482.54H2025.58ZM2029.78 611.48C2044.34 611.48 2055.68 607.56 2063.8 599.72C2071.92 591.6 2075.98 581.38 2075.98 569.06C2075.98 556.46 2071.92 546.24 2063.8 538.4C2055.68 530.28 2044.34 526.22 2029.78 526.22H1959.64V611.48H2029.78Z" fill="#6B7280"/>
<path d="M2202.63 656C2199.83 656 2197.45 655.16 2195.49 653.48C2193.81 651.52 2192.97 649.14 2192.97 646.34V372.08C2192.97 369 2193.81 366.62 2195.49 364.94C2197.45 362.98 2199.83 362 2202.63 362H2224.05C2227.13 362 2229.51 362.98 2231.19 364.94C2233.15 366.62 2234.13 369 2234.13 372.08V488H2378.61V372.08C2378.61 369 2379.45 366.62 2381.13 364.94C2383.09 362.98 2385.47 362 2388.27 362H2409.69C2412.77 362 2415.15 362.98 2416.83 364.94C2418.79 366.62 2419.77 369 2419.77 372.08V646.34C2419.77 649.14 2418.79 651.52 2416.83 653.48C2414.87 655.16 2412.49 656 2409.69 656H2388.27C2385.47 656 2383.09 655.16 2381.13 653.48C2379.45 651.52 2378.61 649.14 2378.61 646.34V525.8H2234.13V646.34C2234.13 649.14 2233.15 651.52 2231.19 653.48C2229.23 655.16 2226.85 656 2224.05 656H2202.63ZM2598.64 660.2C2561.96 660.2 2533.54 650.68 2513.38 631.64C2493.5 612.32 2483 583.34 2481.88 544.7C2481.6 536.3 2481.46 524.4 2481.46 509C2481.46 493.6 2481.6 481.84 2481.88 473.72C2483 435.92 2493.92 407.22 2514.64 387.62C2535.36 367.74 2563.36 357.8 2598.64 357.8C2633.64 357.8 2661.5 367.74 2682.22 387.62C2702.94 407.22 2713.86 435.92 2714.98 473.72C2715.54 489.96 2715.82 501.72 2715.82 509C2715.82 516 2715.54 527.9 2714.98 544.7C2713.86 583.34 2703.22 612.32 2683.06 631.64C2663.18 650.68 2635.04 660.2 2598.64 660.2ZM2598.64 624.5C2620.76 624.5 2638.4 617.78 2651.56 604.34C2664.72 590.9 2671.86 570.32 2672.98 542.6C2673.54 525.8 2673.82 514.6 2673.82 509C2673.82 502.84 2673.54 491.64 2672.98 475.4C2671.86 447.68 2664.58 427.1 2651.14 413.66C2637.98 400.22 2620.48 393.5 2598.64 393.5C2576.52 393.5 2558.74 400.22 2545.3 413.66C2532.14 427.1 2525 447.68 2523.88 475.4C2523.6 483.52 2523.46 494.72 2523.46 509C2523.46 523 2523.6 534.2 2523.88 542.6C2525 570.32 2532.14 590.9 2545.3 604.34C2558.74 617.78 2576.52 624.5 2598.64 624.5ZM2786.69 656C2783.89 656 2781.51 655.16 2779.55 653.48C2777.87 651.52 2777.03 649.14 2777.03 646.34V372.08C2777.03 369 2777.87 366.62 2779.55 364.94C2781.51 362.98 2783.89 362 2786.69 362H2807.69C2812.17 362 2815.81 364.24 2818.61 368.72L2907.23 538.4L2996.69 368.72C2997.25 367.04 2998.37 365.5 3000.05 364.1C3002.01 362.7 3004.39 362 3007.19 362H3027.77C3030.85 362 3033.23 362.98 3034.91 364.94C3036.87 366.62 3037.85 369 3037.85 372.08V646.34C3037.85 649.14 3036.87 651.52 3034.91 653.48C3032.95 655.16 3030.57 656 3027.77 656H3007.19C3004.39 656 3002.01 655.16 3000.05 653.48C2998.37 651.52 2997.53 649.14 2997.53 646.34V439.7L2927.39 576.62C2924.59 582.5 2920.11 585.44 2913.95 585.44H2900.93C2894.77 585.44 2890.29 582.5 2887.49 576.62L2816.93 439.7V646.34C2816.93 649.14 2815.95 651.52 2813.99 653.48C2812.31 655.16 2810.07 656 2807.27 656H2786.69ZM3120.15 656C3117.35 656 3114.97 655.16 3113.01 653.48C3111.33 651.52 3110.49 649.14 3110.49 646.34V372.08C3110.49 369 3111.33 366.62 3113.01 364.94C3114.97 362.98 3117.35 362 3120.15 362H3293.61C3296.41 362 3298.65 362.98 3300.33 364.94C3302.29 366.62 3303.27 369 3303.27 372.08V388.04C3303.27 390.84 3302.43 393.22 3300.75 395.18C3299.07 396.86 3296.69 397.7 3293.61 397.7H3150.81V489.68H3284.37C3287.17 489.68 3289.41 490.66 3291.09 492.62C3293.05 494.3 3294.03 496.68 3294.03 499.76V515.3C3294.03 518.1 3293.05 520.48 3291.09 522.44C3289.41 524.12 3287.17 524.96 3284.37 524.96H3150.81V620.3H3296.97C3300.05 620.3 3302.43 621.14 3304.11 622.82C3305.79 624.5 3306.63 626.88 3306.63 629.96V646.34C3306.63 649.14 3305.65 651.52 3303.69 653.48C3302.01 655.16 3299.77 656 3296.97 656H3120.15Z" fill="#10B981"/>
<defs>
<radialGradient id="paint0_radial" cx="0" cy="0" r="1" gradientUnits="userSpaceOnUse" gradientTransform="translate(752.223 990.248) rotate(-180) scale(480 732.283)">
<stop stop-color="#34D399"/>
<stop offset="1" stop-color="#059669"/>
</radialGradient>
<radialGradient id="paint1_radial" cx="0" cy="0" r="1" gradientUnits="userSpaceOnUse" gradientTransform="translate(512.001 515) rotate(90) scale(474)">
<stop stop-color="#34D399"/>
<stop offset="1" stop-color="#059669"/>
</radialGradient>
<radialGradient id="paint2_radial" cx="0" cy="0" r="1" gradientUnits="userSpaceOnUse" gradientTransform="translate(512 -19.999) rotate(90) scale(544 2114.78)">
<stop stop-color="#38BDF8"/>
<stop offset="1" stop-color="#0284C7"/>
</radialGradient>
</defs>
</svg>
