<svg width="2991" height="1024" viewBox="0 0 2991 1024" fill="none" xmlns="http://www.w3.org/2000/svg">
<g clip-path="url(#clip0)">
<path fill-rule="evenodd" clip-rule="evenodd" d="M534.444 190.201C534.416 209.01 548.942 224.429 567.399 228.05C597.856 234.026 627.849 245.016 656.218 261.333C778.442 331.629 829.797 477.376 785.578 606.013C779.46 623.809 785.541 644.125 801.851 653.51L905.451 713.119C923.231 723.35 946.094 716.691 954.077 697.796C1047.03 477.804 963.868 218.502 751.746 96.5008C694.709 63.6962 633.705 43.8993 572.176 36.184C551.821 33.6316 534.651 50.1052 534.62 70.6195L534.444 190.201ZM486.497 71.1978C486.527 50.5352 469.163 33.9618 448.681 36.6881C305.388 55.761 172.049 138.735 93.9931 273.417C15.8267 408.291 10.4613 565.068 65.7792 698.35C73.678 717.381 96.6409 724.096 114.486 713.793L218.527 653.725C234.731 644.369 240.825 624.218 234.842 606.49C209.097 530.205 215.163 443.557 258.825 368.219C302.434 292.974 374.604 244.442 453.68 228.451C471.959 224.754 486.293 209.45 486.32 190.802L486.497 71.1978ZM138.39 755.417C120.567 765.707 114.884 788.91 127.38 805.263C164.772 854.198 212.305 896.683 269.076 929.335C480.714 1051.06 746.978 993.689 891.975 804.539C904.532 788.159 898.861 764.848 880.971 754.554L777.33 694.921C761.145 685.608 740.692 690.409 728.35 704.42C638.555 806.354 486.566 834.649 364.604 764.503C336.375 748.267 311.926 728.006 291.562 704.861C279.188 690.797 258.668 685.975 242.446 695.341L138.39 755.417Z" fill="url(#paint0_radial)"/>
<path d="M279.239 453.715C284.459 432.912 308.479 425.11 327.05 435.84L470.011 518.445C481.144 524.878 488 536.759 488 549.616V712.239C488 733.531 469.476 750.389 448.933 744.795C346.979 717.032 272 623.591 272 512.594C272 492.281 274.511 472.557 279.239 453.715Z" fill="url(#paint1_radial)"/>
<path d="M349.975 393.616C331.653 383.03 326.244 358.78 341.082 343.693C384.605 299.435 445.107 272 512 272C578.922 272 639.447 299.459 682.975 343.75C697.804 358.84 692.393 383.083 674.075 393.667L530.08 476.87C518.936 483.309 505.202 483.309 494.058 476.87L349.975 393.616Z" fill="url(#paint2_radial)"/>
<path d="M575.068 744.795C554.525 750.389 536 733.531 536 712.239V549.695C536 536.838 542.857 524.957 553.99 518.524L696.968 435.91C715.542 425.177 739.567 432.985 744.781 453.794C749.496 472.612 752 492.31 752 512.594C752 623.59 677.022 717.032 575.068 744.795Z" fill="url(#paint3_radial)"/>
</g>
<path d="M1385.12 221.62C1393.44 212.02 1403.2 207.22 1414.4 207.22C1424.96 207.22 1434.4 211.38 1442.72 219.7C1451.36 227.7 1455.68 236.98 1455.68 247.54C1455.68 256.82 1452.16 265.62 1445.12 273.94L1344.32 390.58V507.7C1344.32 521.78 1340.16 532.66 1331.84 540.34C1323.84 547.7 1313.44 551.38 1300.64 551.38C1287.52 551.38 1276.8 547.7 1268.48 540.34C1260.16 532.66 1256 521.78 1256 507.7V390.58L1156.16 273.94C1148.8 265.62 1145.12 256.66 1145.12 247.06C1145.12 236.5 1149.28 227.22 1157.6 219.22C1165.92 211.22 1175.36 207.22 1185.92 207.22C1197.12 207.22 1206.88 212.02 1215.2 221.62L1300.16 322.42L1385.12 221.62ZM1817.35 494.26C1820.23 500.34 1821.67 506.26 1821.67 512.02C1821.67 522.58 1817.35 531.54 1808.71 538.9C1800.39 546.26 1790.79 549.94 1779.91 549.94C1772.55 549.94 1765.83 548.02 1759.75 544.18C1753.67 540.34 1748.87 534.58 1745.35 526.9L1723.75 478.42H1568.23L1546.15 526.9C1542.63 534.58 1537.67 540.34 1531.27 544.18C1525.19 548.02 1518.47 549.94 1511.11 549.94C1500.23 549.94 1490.31 546.26 1481.35 538.9C1472.71 531.54 1468.39 522.58 1468.39 512.02C1468.39 506.26 1469.83 500.34 1472.71 494.26L1599.43 234.1C1603.59 225.46 1609.67 218.9 1617.67 214.42C1625.99 209.62 1635.11 207.22 1645.03 207.22C1654.63 207.22 1663.59 209.62 1671.91 214.42C1680.23 218.9 1686.47 225.46 1690.63 234.1L1817.35 494.26ZM1597.99 412.18H1693.99L1645.99 305.14L1597.99 412.18ZM2028.55 552.82C2002.95 552.82 1979.11 550.1 1957.03 544.66C1935.27 538.9 1917.35 531.06 1903.27 521.14C1897.83 516.98 1893.83 512.66 1891.27 508.18C1889.03 503.7 1887.91 497.94 1887.91 490.9C1887.91 481.3 1890.79 472.98 1896.55 465.94C1902.31 458.9 1909.03 455.38 1916.71 455.38C1920.87 455.38 1924.87 456.02 1928.71 457.3C1932.55 458.58 1937.35 460.98 1943.11 464.5C1956.23 471.86 1969.19 477.14 1981.99 480.34C1995.11 483.54 2009.83 485.14 2026.15 485.14C2045.03 485.14 2059.27 482.42 2068.87 476.98C2078.79 471.22 2083.75 462.9 2083.75 452.02C2083.75 444.66 2079.11 438.42 2069.83 433.3C2060.87 427.86 2043.59 422.58 2017.99 417.46C1986.31 410.74 1961.51 402.74 1943.59 393.46C1925.67 384.18 1913.03 373.3 1905.67 360.82C1898.63 348.02 1895.11 332.66 1895.11 314.74C1895.11 294.26 1901.19 275.7 1913.35 259.06C1925.51 242.42 1942.15 229.46 1963.27 220.18C1984.71 210.58 2008.71 205.78 2035.27 205.78C2058.63 205.78 2079.43 208.34 2097.67 213.46C2115.91 218.58 2132.55 226.58 2147.59 237.46C2153.35 241.62 2157.35 246.1 2159.59 250.9C2162.15 255.38 2163.43 260.98 2163.43 267.7C2163.43 277.3 2160.55 285.62 2154.79 292.66C2149.35 299.7 2142.79 303.22 2135.1 303.22C2130.95 303.22 2127.11 302.74 2123.59 301.78C2120.07 300.5 2115.11 297.94 2108.71 294.1C2107.11 293.14 2102.47 290.74 2094.79 286.9C2087.43 282.74 2078.63 279.54 2068.39 277.3C2058.47 274.74 2047.59 273.46 2035.75 273.46C2019.43 273.46 2006.31 276.66 1996.39 283.06C1986.47 289.14 1981.51 297.3 1981.51 307.54C1981.51 313.62 1983.27 318.58 1986.79 322.42C1990.31 326.26 1996.87 330.1 2006.47 333.94C2016.07 337.46 2030.31 341.14 2049.19 344.98C2079.91 351.7 2104.07 359.86 2121.67 369.46C2139.27 378.74 2151.75 389.62 2159.11 402.1C2166.47 414.58 2170.15 429.3 2170.15 446.26C2170.15 467.38 2164.23 486.1 2152.39 502.42C2140.55 518.42 2123.91 530.9 2102.47 539.86C2081.35 548.5 2056.71 552.82 2028.55 552.82ZM2553.7 482.26C2562.02 490.26 2566.18 499.54 2566.18 510.1C2566.18 520.66 2562.18 529.94 2554.18 537.94C2546.18 545.94 2536.74 549.94 2525.86 549.94C2514.02 549.94 2503.14 544.82 2493.22 534.58L2356.42 394.42V507.7C2356.42 521.14 2352.42 531.86 2344.42 539.86C2336.42 547.54 2325.54 551.38 2311.78 551.38C2298.34 551.38 2287.62 547.54 2279.62 539.86C2271.94 531.86 2268.1 521.14 2268.1 507.7V250.9C2268.1 237.78 2271.94 227.38 2279.62 219.7C2287.62 211.7 2298.34 207.7 2311.78 207.7C2325.54 207.7 2336.42 211.7 2344.42 219.7C2352.42 227.38 2356.42 237.78 2356.42 250.9V356.5L2491.3 220.66C2499.62 212.02 2509.06 207.7 2519.61 207.7C2530.18 207.7 2539.46 211.7 2547.46 219.7C2555.46 227.38 2559.46 236.5 2559.46 247.06C2559.46 257.62 2554.82 267.38 2545.54 276.34L2447.14 372.82L2553.7 482.26ZM2800.33 552.82C2765.77 552.82 2735.69 545.78 2710.09 531.7C2684.81 517.3 2665.29 497.14 2651.53 471.22C2637.77 444.98 2630.89 414.26 2630.89 379.06C2630.89 343.86 2637.77 313.3 2651.53 287.38C2665.29 261.14 2684.81 240.98 2710.09 226.9C2735.69 212.82 2765.77 205.78 2800.33 205.78C2834.89 205.78 2864.81 212.82 2890.09 226.9C2915.69 240.98 2935.21 261.14 2948.65 287.38C2962.41 313.3 2969.29 343.86 2969.29 379.06C2969.29 414.26 2962.41 444.98 2948.65 471.22C2934.89 497.14 2915.21 517.3 2889.61 531.7C2864.33 545.78 2834.57 552.82 2800.33 552.82ZM2800.33 485.14C2825.93 485.14 2845.93 476.18 2860.33 458.26C2874.73 440.02 2881.93 413.62 2881.93 379.06C2881.93 344.5 2874.57 318.26 2859.85 300.34C2845.45 282.42 2825.61 273.46 2800.33 273.46C2774.73 273.46 2754.73 282.42 2740.33 300.34C2725.93 317.94 2718.73 344.18 2718.73 379.06C2718.73 413.94 2725.93 440.34 2740.33 458.26C2754.73 476.18 2774.73 485.14 2800.33 485.14ZM1545.56 877.42C1533.4 877.42 1521.8 875.74 1510.76 872.38C1499.88 869.02 1491.16 864.38 1484.6 858.46C1481.56 855.9 1480.04 852.62 1480.04 848.62C1480.04 845.74 1480.84 843.34 1482.44 841.42C1484.04 839.34 1485.96 838.3 1488.2 838.3C1490.44 838.3 1493.16 839.34 1496.36 841.42C1510.6 851.98 1526.84 857.26 1545.08 857.26C1557.88 857.26 1567.72 854.86 1574.6 850.06C1581.48 845.26 1584.92 838.38 1584.92 829.42C1584.92 822.38 1581.72 817.1 1575.32 813.58C1568.92 810.06 1558.68 806.7 1544.6 803.5C1531.16 800.62 1520.12 797.34 1511.48 793.66C1502.84 789.98 1496.04 785.02 1491.08 778.78C1486.28 772.38 1483.88 764.3 1483.88 754.54C1483.88 744.78 1486.52 736.14 1491.8 728.62C1497.24 720.94 1504.76 715.02 1514.36 710.86C1523.96 706.54 1534.92 704.38 1547.24 704.38C1558.6 704.38 1569.08 705.98 1578.68 709.18C1588.28 712.38 1596.44 717.1 1603.16 723.34C1606.36 726.06 1607.96 729.34 1607.96 733.18C1607.96 735.9 1607.08 738.3 1605.32 740.38C1603.72 742.46 1601.8 743.5 1599.56 743.5C1597.48 743.5 1594.84 742.46 1591.64 740.38C1584.28 734.78 1577.32 730.78 1570.76 728.38C1564.36 725.82 1556.6 724.54 1547.48 724.54C1535.16 724.54 1525.56 727.1 1518.68 732.22C1511.8 737.18 1508.36 744.14 1508.36 753.1C1508.36 760.78 1511.4 766.62 1517.48 770.62C1523.56 774.46 1533.32 777.98 1546.76 781.18C1560.84 784.38 1572.2 787.74 1580.84 791.26C1589.64 794.62 1596.6 799.34 1601.72 805.42C1607 811.34 1609.64 819.02 1609.64 828.46C1609.64 838.06 1606.92 846.62 1601.48 854.14C1596.2 861.5 1588.68 867.26 1578.92 871.42C1569.32 875.42 1558.2 877.42 1545.56 877.42ZM1749.39 876.7C1745.71 876.7 1742.67 875.58 1740.27 873.34C1738.03 870.94 1736.91 867.9 1736.91 864.22V726.94H1688.91C1681.23 726.94 1677.39 723.5 1677.39 716.62C1677.39 713.26 1678.35 710.7 1680.27 708.94C1682.35 707.18 1685.23 706.3 1688.91 706.3H1809.87C1813.55 706.3 1816.35 707.18 1818.27 708.94C1820.35 710.7 1821.39 713.26 1821.39 716.62C1821.39 723.5 1817.55 726.94 1809.87 726.94H1761.87V864.22C1761.87 867.9 1760.75 870.94 1758.51 873.34C1756.27 875.58 1753.23 876.7 1749.39 876.7ZM1969.59 877.42C1947.03 877.42 1929.91 871.58 1918.23 859.9C1906.55 848.22 1900.71 831.02 1900.71 808.3V717.58C1900.71 713.74 1901.83 710.7 1904.07 708.46C1906.31 706.22 1909.27 705.1 1912.95 705.1C1916.63 705.1 1919.59 706.22 1921.83 708.46C1924.07 710.7 1925.19 713.74 1925.19 717.58V809.98C1925.19 825.5 1928.87 837.26 1936.23 845.26C1943.75 853.26 1954.87 857.26 1969.59 857.26C1984.15 857.26 1995.19 853.26 2002.71 845.26C2010.23 837.26 2013.99 825.5 2013.99 809.98V717.58C2013.99 713.9 2015.11 710.94 2017.35 708.7C2019.59 706.3 2022.55 705.1 2026.23 705.1C2029.91 705.1 2032.87 706.22 2035.11 708.46C2037.35 710.7 2038.47 713.74 2038.47 717.58V808.3C2038.47 830.86 2032.55 848.06 2020.71 859.9C2009.03 871.58 1991.99 877.42 1969.59 877.42ZM2148.76 875.5C2144.92 875.5 2141.88 874.46 2139.64 872.38C2137.56 870.14 2136.52 867.18 2136.52 863.5V718.3C2136.52 714.62 2137.56 711.74 2139.64 709.66C2141.88 707.42 2144.92 706.3 2148.76 706.3H2195.8C2223.16 706.3 2244.36 713.66 2259.4 728.38C2274.44 743.1 2281.96 763.9 2281.96 790.78C2281.96 817.66 2274.44 838.54 2259.4 853.42C2244.36 868.14 2223.16 875.5 2195.8 875.5H2148.76ZM2194.36 854.86C2235.96 854.86 2256.76 833.5 2256.76 790.78C2256.76 748.22 2235.96 726.94 2194.36 726.94H2161.24V854.86H2194.36ZM2387.82 876.7C2384.14 876.7 2381.18 875.58 2378.94 873.34C2376.7 871.1 2375.58 868.06 2375.58 864.22V717.58C2375.58 713.9 2376.7 710.94 2378.94 708.7C2381.18 706.3 2384.14 705.1 2387.82 705.1C2391.66 705.1 2394.7 706.22 2396.94 708.46C2399.18 710.7 2400.3 713.74 2400.3 717.58V864.22C2400.3 868.06 2399.18 871.1 2396.94 873.34C2394.86 875.58 2391.82 876.7 2387.82 876.7ZM2572.28 877.42C2556.28 877.42 2542.36 873.9 2530.52 866.86C2518.84 859.82 2509.8 849.82 2503.4 836.86C2497 823.9 2493.8 808.62 2493.8 791.02C2493.8 773.26 2496.92 757.9 2503.16 744.94C2509.56 731.82 2518.68 721.82 2530.52 714.94C2542.36 707.9 2556.28 704.38 2572.28 704.38C2588.44 704.38 2602.44 707.9 2614.28 714.94C2626.12 721.82 2635.16 731.82 2641.4 744.94C2647.8 757.9 2651 773.18 2651 790.78C2651 808.38 2647.8 823.74 2641.4 836.86C2635.16 849.82 2626.12 859.82 2614.28 866.86C2602.44 873.9 2588.44 877.42 2572.28 877.42ZM2572.28 857.26C2589.24 857.26 2602.44 851.5 2611.88 839.98C2621.32 828.46 2626.04 812.06 2626.04 790.78C2626.04 769.5 2621.32 753.18 2611.88 741.82C2602.6 730.3 2589.4 724.54 2572.28 724.54C2555.48 724.54 2542.36 730.3 2532.92 741.82C2523.64 753.18 2519 769.5 2519 790.78C2519 812.06 2523.64 828.46 2532.92 839.98C2542.36 851.5 2555.48 857.26 2572.28 857.26Z" fill="#6B7280"/>
<defs>
<radialGradient id="paint0_radial" cx="0" cy="0" r="1" gradientUnits="userSpaceOnUse" gradientTransform="translate(511.999 36.501) rotate(90) scale(993.5 989.597)">
<stop stop-color="#38BDF8"/>
<stop offset="1" stop-color="#0284C7"/>
</radialGradient>
<radialGradient id="paint1_radial" cx="0" cy="0" r="1" gradientUnits="userSpaceOnUse" gradientTransform="translate(512 272) rotate(90) scale(480)">
<stop stop-color="#F87171"/>
<stop offset="1" stop-color="#EF4444"/>
</radialGradient>
<radialGradient id="paint2_radial" cx="0" cy="0" r="1" gradientUnits="userSpaceOnUse" gradientTransform="translate(512 272) rotate(90) scale(480)">
<stop stop-color="#F87171"/>
<stop offset="1" stop-color="#EF4444"/>
</radialGradient>
<radialGradient id="paint3_radial" cx="0" cy="0" r="1" gradientUnits="userSpaceOnUse" gradientTransform="translate(512 272) rotate(90) scale(480)">
<stop stop-color="#F87171"/>
<stop offset="1" stop-color="#EF4444"/>
</radialGradient>
<clipPath id="clip0">
<rect width="1024" height="1024" fill="white"/>
</clipPath>
</defs>
</svg>
