<svg width="80" height="80" viewBox="0 0 80 80" fill="none" xmlns="http://www.w3.org/2000/svg">
<rect width="80" height="80" fill="url(#paint0_linear_1559_24457)"/>
<path fill-rule="evenodd" clip-rule="evenodd" d="M61 43.6962C61 57.194 51.8125 63.9429 40.8925 67.8572C40.3207 68.0565 39.6995 68.0469 39.1338 67.8302C28.1875 63.9429 19 57.194 19 43.6962V24.7994C19 24.0834 19.2766 23.3968 19.7688 22.8905C20.2611 22.3843 20.9288 22.0999 21.625 22.0999C26.875 22.0999 33.4375 18.8604 38.005 14.7571C38.5611 14.2685 39.2686 14 40 14C40.7314 14 41.4389 14.2685 41.995 14.7571C46.5888 18.8874 53.125 22.0999 58.375 22.0999C59.0712 22.0999 59.7389 22.3843 60.2312 22.8905C60.7234 23.3968 61 24.0834 61 24.7994V43.6962ZM33 30C33 26.134 36.134 23 40 23C43.866 23 47 26.134 47 30V38C47 41.866 43.866 45 40 45C36.134 45 33 41.866 33 38V30ZM40 47C36.134 47 33 50.134 33 54C33 57.866 36.134 61 40 61C43.866 61 47 57.866 47 54C47 50.134 43.866 47 40 47Z" fill="black" fill-opacity="0.2"/>
<path d="M44 54C44 56.2091 42.2091 58 40 58C37.7909 58 36 56.2091 36 54C36 51.7909 37.7909 50 40 50C42.2091 50 44 51.7909 44 54Z" fill="black" fill-opacity="0.2"/>
<path d="M40 42C37.7909 42 36 40.2091 36 38V30C36 27.7909 37.7909 26 40 26C42.2091 26 44 27.7909 44 30V38C44 40.2091 42.2091 42 40 42Z" fill="black" fill-opacity="0.2"/>
<path fill-rule="evenodd" clip-rule="evenodd" d="M61 42.6962C61 56.194 51.8125 62.9429 40.8925 66.8572C40.3207 67.0565 39.6995 67.0469 39.1338 66.8302C28.1875 62.9429 19 56.194 19 42.6962V23.7994C19 23.0834 19.2766 22.3968 19.7688 21.8905C20.2611 21.3843 20.9288 21.0999 21.625 21.0999C26.875 21.0999 33.4375 17.8604 38.005 13.7571C38.5611 13.2685 39.2686 13 40 13C40.7314 13 41.4389 13.2685 41.995 13.7571C46.5888 17.8874 53.125 21.0999 58.375 21.0999C59.0712 21.0999 59.7389 21.3843 60.2312 21.8905C60.7234 22.3968 61 23.0834 61 23.7994V42.6962ZM33 29C33 25.134 36.134 22 40 22C43.866 22 47 25.134 47 29V37C47 40.866 43.866 44 40 44C36.134 44 33 40.866 33 37V29ZM40 46C36.134 46 33 49.134 33 53C33 56.866 36.134 60 40 60C43.866 60 47 56.866 47 53C47 49.134 43.866 46 40 46Z" fill="url(#paint1_linear_1559_24457)"/>
<circle cx="40" cy="53" r="4" fill="url(#paint2_linear_1559_24457)"/>
<path d="M40 41C37.7909 41 36 39.2091 36 37L36 29C36 26.7909 37.7909 25 40 25C42.2091 25 44 26.7909 44 29V37C44 39.2091 42.2091 41 40 41Z" fill="url(#paint3_linear_1559_24457)"/>
<defs>
<linearGradient id="paint0_linear_1559_24457" x1="40" y1="0" x2="40" y2="80" gradientUnits="userSpaceOnUse">
<stop stop-color="#6B7280"/>
<stop offset="1" stop-color="#1F2937"/>
</linearGradient>
<linearGradient id="paint1_linear_1559_24457" x1="40" y1="13" x2="40" y2="67" gradientUnits="userSpaceOnUse">
<stop stop-color="#F9FAFB"/>
<stop offset="1" stop-color="#9CA3AF"/>
</linearGradient>
<linearGradient id="paint2_linear_1559_24457" x1="40" y1="49" x2="40" y2="57" gradientUnits="userSpaceOnUse">
<stop stop-color="#FDE68A"/>
<stop offset="1" stop-color="#D97706"/>
</linearGradient>
<linearGradient id="paint3_linear_1559_24457" x1="40" y1="25" x2="40" y2="41" gradientUnits="userSpaceOnUse">
<stop stop-color="#FDE68A"/>
<stop offset="1" stop-color="#D97706"/>
</linearGradient>
</defs>
</svg>
