<?xml version="1.0" encoding="UTF-8"?>
<svg width="606px" height="606px" viewBox="0 0 606 606" version="1.1" xmlns="http://www.w3.org/2000/svg" xmlns:xlink="http://www.w3.org/1999/xlink">
    <!-- Generator: Sketch 40.2 (33826) - http://www.bohemiancoding.com/sketch -->
    <title>anti-spam</title>
    <desc>Created with Sketch.</desc>
    <defs>
        <linearGradient x1="50%" y1="0%" x2="50%" y2="100%" id="linearGradient-1">
            <stop stop-color="#FFFFFF" stop-opacity="0.2" offset="0%"></stop>
            <stop stop-color="#000000" stop-opacity="0.2" offset="100%"></stop>
        </linearGradient>
        <path d="M552.268958,552.268958 C600,504.537813 600,431.458333 600,300 C600,168.541667 600,95.4621875 552.268958,47.7310417 C504.537813,0 431.458333,0 300,0 C168.541667,0 95.4621875,0 47.7310417,47.7310417 C0,95.4621875 0,168.541667 0,300 C0,431.458333 0,504.537813 47.7310417,552.268958 C95.4621875,600 168.541667,600 300,600 C431.458333,600 504.537813,600 552.268958,552.268958 Z" id="path-2"></path>
    </defs>
    <g id="Page-1" stroke="none" stroke-width="1" fill="none" fill-rule="evenodd">
        <g id="anti-spam" transform="translate(3.000000, 3.000000)">
            <g id="Squircle2-Copy-8">
                <g id="Shape">
                    <use fill="#F06563" xlink:href="#path-2"></use>
                    <use stroke="#000000" stroke-width="4.04" fill="url(#linearGradient-1)" xlink:href="#path-2"></use>
                </g>
                <g id="forbidden" opacity="0.9" transform="translate(100.000000, 100.000000)" fill="#FFFFFF">
                    <g id="Capa_1">
                        <path d="M0.690466531,191.708722 L0.284787018,198.199594 C0.122515213,200.390264 -0.0397565923,202.499797 0.122515213,204.690467 L0.528194726,217.672211 C1.90750507,234.954158 4.82839757,252.317241 10.8324544,268.706694 C13.3476673,277.063692 17.3233266,284.852738 20.8933063,292.804057 C22.759432,296.779716 25.1935091,300.349696 27.3030426,304.163083 C29.5748479,307.895335 31.5221095,311.708722 34.443002,315.278702 L40.9338742,324.041379 L44.1793103,328.341582 L47.5058824,331.992698 L54.0778905,339.213793 L55.7006085,340.998783 L56.5119675,341.891278 L56.9176471,342.378093 L57.4044625,342.946045 L57.4855984,343.027181 L57.6478702,343.108316 L57.8912779,343.351724 L61.7858012,346.840568 C67.0596349,351.384178 72.0089249,356.414604 77.8507099,360.309128 C83.5302231,364.365923 89.0474645,368.747262 95.2137931,371.992698 C119.23002,386.353753 146.248276,395.359838 173.915619,398.524138 C201.501826,401.688438 229.818256,399.173225 256.187424,390.653955 L265.923732,387.083976 C269.169168,385.866937 272.49574,384.893306 275.578905,383.270588 L284.909533,378.808114 L289.615416,376.536308 C291.156998,375.724949 292.617444,374.751318 294.07789,373.858824 L302.921704,368.503854 C304.38215,367.611359 305.923732,366.8 307.303043,365.745233 L311.603245,362.580933 C317.201623,358.28073 323.286815,354.061663 327.668154,349.599189 C346.816227,334.426775 363.530223,314.954158 375.700609,292.885193 C387.95213,270.816227 395.741176,246.069777 398.580933,220.674239 C401.42069,195.278702 399.23002,169.234077 392.090061,144.487627 L385.842596,126.232049 C383.246247,120.309128 380.487627,114.467343 377.810142,108.625558 C374.726978,102.946045 371.31927,97.4288032 368.073834,91.9115619 C364.422718,86.3943205 360.284787,81.0393509 356.309128,75.6843813 L354.767546,73.6559838 L353.307099,71.9521298 L350.305071,68.6255578 L344.301014,62.0535497 L342.840568,60.4308316 L342.110345,59.6194726 L341.380122,58.8081136 L341.136714,58.5647059 L340.649899,58.1590264 L337.079919,54.9135903 L329.858824,48.4227181 L326.288844,45.1772819 C325.071805,44.1225152 323.692495,43.2300203 322.39432,42.2563895 L314.605274,36.4957404 C309.574848,32.4389452 303.733063,29.5180527 298.215822,26.1914807 C275.741176,13.453144 250.832454,5.17728195 225.274645,1.76957404 C199.716836,-1.63813387 173.591075,-0.0965517241 148.601217,6.15091278 C145.518053,6.96227181 142.272617,7.53022312 139.270588,8.58498986 L130.102231,11.7492901 C127.100203,12.8851927 123.935903,13.7776876 121.01501,15.0758621 L112.252333,19.0515213 C109.33144,20.4308316 106.329412,21.6478702 103.489655,23.1894523 L95.1326572,28.0576065 L86.7756592,32.9257606 L78.5809331,38.7675456 C69.9805274,44.4470588 62.9217039,55.4004057 60.9744422,59.7006085 C57.5667343,68.2198783 67.5464503,63.2705882 81.5018256,54.7513185 C105.112373,41.2827586 132.455172,31.2219067 161.826369,27.0839757 C165.477485,26.3537525 169.209736,26.4348884 172.941988,26.0292089 L178.540365,25.5423935 L181.298986,25.2989858 L184.138742,25.2989858 L195.416633,25.2989858 L198.256389,25.2989858 L201.096146,25.5423935 L206.775659,26.0292089 C214.402434,26.3537525 221.866937,27.9764706 229.412576,29.274645 C233.225963,29.8425963 236.795943,31.1407708 240.528195,32.0332657 C244.17931,33.0880325 247.992698,33.8182556 251.562677,35.2787018 C269.169168,40.8770791 285.477485,50.0454361 300.163083,60.998783 C303.733063,63.8385396 307.627586,66.3537525 310.873022,69.6803245 L315.903448,74.3862069 L318.418661,76.7391481 L319.716836,77.8750507 L320.365923,78.443002 C304.706694,84.9338742 289.777688,95.6438134 276.06572,108.057606 C238.986613,141.810142 201.096146,174.670183 167.343611,212.15497 C162.718864,216.374037 158.094118,220.511968 153.469371,224.731034 C124.58499,251.74929 96.3496957,279.335497 70.8730223,309.518053 C70.305071,310.16714 69.7371197,310.897363 69.2503043,311.54645 C63.3273834,304.649899 57.9724138,297.266531 53.3476673,289.477485 L47.9115619,280.390264 L43.4490872,270.816227 L41.1772819,266.029209 C40.4470588,264.406491 39.9602434,262.702637 39.3922921,261.079919 L35.8223124,251.100203 C32.0089249,237.550507 28.8446247,223.595132 28.3578093,209.396349 C27.6275862,202.337525 28.1144016,195.197566 28.2766734,188.138742 C28.1955375,184.568763 29.0068966,181.079919 29.3314402,177.509939 C29.8993915,174.021095 29.9805274,170.451116 30.7918864,166.962272 C32.4957404,160.06572 33.4693712,152.925761 35.9845842,146.272617 C37.1204868,142.864909 38.0941176,139.457201 39.3111562,136.130629 L43.5302231,126.313185 C56.2685598,96.3740365 75.2543611,75.3598377 67.8709939,71.3841785 C64.7066937,69.8425963 57.9724138,72.9257606 48.7229209,80.0657201 C44.503854,83.9602434 39.6356998,88.9095335 34.6052738,94.9947262 C32.3334686,98.1590264 29.9805274,101.566734 27.5464503,105.21785 C26.3294118,107.083976 25.0312373,108.868966 23.9764706,110.897363 C22.9217039,112.925761 21.948073,115.035294 20.8121704,117.144828 C12.6985801,132.317241 7.74929006,148.950101 3.85476673,165.745233 C2.7188641,174.507911 0.933874239,183.027181 0.690466531,191.708722 L0.690466531,191.708722 Z M88.8040568,326.718864 C104.38215,313.169168 120.203651,299.538337 134.645842,284.771602 C158.012982,260.998783 180.325355,236.333469 203.124544,212.073834 C250.589047,177.428803 289.209736,131.992698 331.887221,91.5058824 L332.860852,92.641785 C333.672211,93.5342799 334.159026,94.4267748 334.808114,95.4004057 L338.621501,100.836511 L342.434888,106.191481 C343.651927,108.057606 344.706694,110.16714 345.842596,112.114402 L349.250304,118.037323 C350.386207,119.984584 351.603245,121.931846 352.414604,124.122515 L357.931846,136.617444 C359.473428,140.917647 360.771602,145.21785 362.313185,149.518053 C367.505882,166.962272 370.021095,185.136714 369.777688,203.23002 C369.453144,221.404462 365.9643,239.335497 360.203651,256.455172 L357.931846,262.864909 L356.795943,266.029209 L355.335497,269.112373 L349.574848,281.363895 L342.678296,293.047465 C342.110345,294.021095 341.542394,294.994726 340.974442,295.968357 L338.946045,298.726978 L334.889249,304.163083 L330.91359,309.680325 L326.36998,314.710751 L321.826369,319.741176 L319.554564,322.256389 L319.311156,322.499797 L318.743205,322.986613 L317.363895,324.203651 L306.410548,334.183367 C302.840568,337.023124 299.43286,339.376065 295.944016,342.05355 C281.42069,352.195538 264.868966,360.714807 247.587018,366.313185 C230.142799,371.019067 212.130629,372.966329 194.118458,372.398377 C154.199594,371.262475 115.578905,355.11643 86.0454361,328.909533 C87.0190669,328.17931 87.9115619,327.530223 88.8040568,326.718864 L88.8040568,326.718864 Z" id="Shape"></path>
                    </g>
                </g>
            </g>
        </g>
    </g>
</svg>