<svg width="80" height="80" viewBox="0 0 80 80" fill="none" xmlns="http://www.w3.org/2000/svg">
<rect width="80" height="80" fill="url(#paint0_linear_963_3577)"/>
<path d="M40 18C42.2314 18 44.3885 18.3178 46.4287 18.9105C47.3707 19.1842 47.7555 20.2532 47.4489 21.1851C47.1121 22.2089 46.0004 22.9345 44.9599 22.6539C43.3787 22.2275 41.7159 22 40 22C38.2841 22 36.6213 22.2275 35.0402 22.6539C33.9996 22.9345 32.8879 22.2089 32.5511 21.1851C32.2446 20.2533 32.6293 19.1842 33.5714 18.9105C35.6115 18.3178 37.7687 18 40 18Z" fill="black" fill-opacity="0.2"/>
<path d="M52.6387 57.5583C52.0355 56.8419 52.0364 55.7316 52.7314 55.1038C55.249 52.8298 57.1548 49.8912 58.1722 46.5646C58.448 45.6628 59.252 45 60.1951 45H61.389C62.0221 45 62.5594 45.5481 62.4178 46.1652C61.3478 50.8281 58.8604 54.9501 55.4334 58.0535C54.6276 58.7831 53.3388 58.3899 52.6387 57.5583Z" fill="black" fill-opacity="0.2"/>
<path d="M27.3613 57.5583C27.9646 56.8419 27.9636 55.7316 27.2686 55.1038C24.7511 52.8298 22.8453 49.8912 21.8279 46.5647C21.5521 45.6628 20.7481 45 19.805 45H18.6111C17.978 45 17.4407 45.5481 17.5823 46.1652C18.6523 50.8281 21.1397 54.9501 24.5667 58.0535C25.3725 58.7831 26.6612 58.3899 27.3613 57.5583Z" fill="black" fill-opacity="0.2"/>
<path d="M21.3904 32.6159C20.9924 32.4955 20.5678 32.4605 20.171 32.5848C19.2012 32.8887 18.2608 33.3111 17.3726 33.8519C17.2007 33.9566 17.0011 34.0722 16.7836 34.198C14.814 35.3379 11.3843 37.3227 13.871 39.7458C15.2201 41.0601 16.7222 42 18.611 42H29.389C31.2778 42 32.7799 41.0601 34.129 39.7458C36.6157 37.3227 33.186 35.3379 31.2164 34.198C30.9989 34.0722 30.7993 33.9566 30.6274 33.8519C29.7392 33.3111 28.7988 32.8887 27.829 32.5848C27.4322 32.4605 27.0076 32.4955 26.6096 32.6159C25.7836 32.8657 24.9075 33 24 33C23.0925 33 22.2164 32.8657 21.3904 32.6159Z" fill="black" fill-opacity="0.2"/>
<path d="M30 24C30 27.3137 27.3137 30 24 30C20.6863 30 18 27.3137 18 24C18 20.6863 20.6863 18 24 18C27.3137 18 30 20.6863 30 24Z" fill="black" fill-opacity="0.2"/>
<path d="M53.3904 32.6159C52.9924 32.4955 52.5678 32.4605 52.171 32.5848C51.2012 32.8887 50.2608 33.3111 49.3726 33.8519C49.2007 33.9566 49.0011 34.0722 48.7836 34.198C46.814 35.3379 43.3843 37.3227 45.871 39.7458C47.2201 41.0601 48.7222 42 50.611 42H61.389C63.2778 42 64.7799 41.0601 66.129 39.7458C68.6157 37.3227 65.186 35.3379 63.2164 34.198C62.9989 34.0722 62.7993 33.9566 62.6274 33.8519C61.7392 33.3111 60.7988 32.8887 59.829 32.5848C59.4322 32.4605 59.0076 32.4955 58.6096 32.6159C57.7836 32.8657 56.9075 33 56 33C55.0925 33 54.2164 32.8657 53.3904 32.6159Z" fill="black" fill-opacity="0.2"/>
<path d="M62 24C62 27.3137 59.3137 30 56 30C52.6863 30 50 27.3137 50 24C50 20.6863 52.6863 18 56 18C59.3137 18 62 20.6863 62 24Z" fill="black" fill-opacity="0.2"/>
<path d="M37.3904 55.6159C36.9924 55.4955 36.5678 55.4605 36.171 55.5848C35.2012 55.8887 34.2608 56.3111 33.3726 56.852C33.2007 56.9566 33.0011 57.0722 32.7836 57.198C30.814 58.3379 27.3843 60.3227 29.871 62.7458C31.2201 64.0601 32.7222 65 34.611 65H45.389C47.2778 65 48.7799 64.0601 50.129 62.7458C52.6157 60.3227 49.186 58.3379 47.2164 57.198C46.9989 57.0722 46.7993 56.9566 46.6274 56.852C45.7392 56.3111 44.7988 55.8887 43.829 55.5848C43.4322 55.4605 43.0076 55.4955 42.6096 55.6159C41.7836 55.8657 40.9075 56 40 56C39.0925 56 38.2164 55.8657 37.3904 55.6159Z" fill="black" fill-opacity="0.2"/>
<path d="M46 47C46 50.3137 43.3137 53 40 53C36.6863 53 34 50.3137 34 47C34 43.6863 36.6863 41 40 41C43.3137 41 46 43.6863 46 47Z" fill="black" fill-opacity="0.2"/>
<path fill-rule="evenodd" clip-rule="evenodd" d="M40.0002 17C42.2315 17 44.3887 17.3178 46.4288 17.9105C47.3708 18.1842 47.7556 19.2532 47.449 20.1851C47.1122 21.2089 46.0005 21.9345 44.96 21.6539C43.3788 21.2275 41.7161 21 40.0002 21C38.2842 21 36.6214 21.2275 35.0403 21.6539C33.9997 21.9345 32.8881 21.2089 32.5513 20.1851C32.2447 19.2533 32.6294 18.1842 33.5715 17.9105C35.6116 17.3178 37.7688 17 40.0002 17ZM52.6388 56.5583C52.0356 55.8419 52.0365 54.7316 52.7316 54.1038C55.2491 51.8298 57.1549 48.8912 58.1723 45.5646C58.4481 44.6628 59.2521 44 60.1952 44H61.3891C62.0222 44 62.5595 44.5481 62.4179 45.1652C61.3479 49.8281 58.8605 53.9501 55.4335 57.0535C54.6277 57.7831 53.339 57.3899 52.6388 56.5583ZM27.3614 56.5583C27.9647 55.8419 27.9637 54.7316 27.2687 54.1038C24.7512 51.8298 22.8454 48.8912 21.828 45.5647C21.5522 44.6628 20.7482 44 19.8051 44H18.6112C17.9781 44 17.4408 44.5481 17.5824 45.1652C18.6524 49.8281 21.1398 53.9501 24.5668 57.0535C25.3726 57.7831 26.6613 57.3899 27.3614 56.5583Z" fill="#D9D9D9"/>
<path fill-rule="evenodd" clip-rule="evenodd" d="M21.3904 31.6159C20.9924 31.4955 20.5678 31.4604 20.171 31.5848C19.2012 31.8887 18.2608 32.3111 17.3726 32.8519C17.2007 32.9566 17.0011 33.0722 16.7836 33.198C14.814 34.3379 11.3843 36.3227 13.871 38.7458C15.2201 40.06 16.7222 41 18.611 41H29.389C31.2778 41 32.7799 40.06 34.129 38.7458C36.6157 36.3227 33.186 34.3379 31.2164 33.198C30.9989 33.0722 30.7993 32.9566 30.6274 32.8519C29.7392 32.3111 28.7988 31.8887 27.829 31.5848C27.4322 31.4604 27.0076 31.4955 26.6096 31.6159C25.7836 31.8657 24.9075 32 24 32C23.0925 32 22.2164 31.8657 21.3904 31.6159Z" fill="url(#paint1_linear_963_3577)"/>
<circle cx="24" cy="23" r="6" fill="url(#paint2_linear_963_3577)"/>
<path fill-rule="evenodd" clip-rule="evenodd" d="M53.3904 31.6159C52.9924 31.4955 52.5678 31.4604 52.171 31.5848C51.2012 31.8887 50.2608 32.3111 49.3726 32.8519C49.2007 32.9566 49.0011 33.0722 48.7836 33.198C46.814 34.3379 43.3843 36.3227 45.871 38.7458C47.2201 40.06 48.7222 41 50.611 41H61.389C63.2778 41 64.7799 40.06 66.129 38.7458C68.6157 36.3227 65.186 34.3379 63.2164 33.198C62.9989 33.0722 62.7993 32.9566 62.6274 32.8519C61.7392 32.3111 60.7988 31.8887 59.829 31.5848C59.4322 31.4604 59.0076 31.4955 58.6096 31.6159C57.7836 31.8657 56.9075 32 56 32C55.0925 32 54.2164 31.8657 53.3904 31.6159Z" fill="url(#paint3_linear_963_3577)"/>
<circle cx="56" cy="23" r="6" fill="url(#paint4_linear_963_3577)"/>
<path fill-rule="evenodd" clip-rule="evenodd" d="M37.3904 54.6159C36.9924 54.4955 36.5678 54.4604 36.171 54.5848C35.2012 54.8887 34.2608 55.3111 33.3726 55.8519C33.2007 55.9566 33.0011 56.0722 32.7836 56.198C30.814 57.3379 27.3843 59.3227 29.871 61.7458C31.2201 63.06 32.7222 64 34.611 64H45.389C47.2778 64 48.7799 63.06 50.129 61.7458C52.6157 59.3227 49.186 57.3379 47.2164 56.198C46.9989 56.0722 46.7993 55.9566 46.6274 55.8519C45.7392 55.3111 44.7988 54.8887 43.829 54.5848C43.4322 54.4604 43.0076 54.4955 42.6096 54.6159C41.7836 54.8657 40.9075 55 40 55C39.0925 55 38.2164 54.8657 37.3904 54.6159Z" fill="url(#paint5_linear_963_3577)"/>
<circle cx="40" cy="46" r="6" fill="url(#paint6_linear_963_3577)"/>
<defs>
<linearGradient id="paint0_linear_963_3577" x1="40" y1="0" x2="40" y2="80" gradientUnits="userSpaceOnUse">
<stop stop-color="#EA580C"/>
<stop offset="1" stop-color="#7C2D12"/>
</linearGradient>
<linearGradient id="paint1_linear_963_3577" x1="24" y1="31.5069" x2="24" y2="41" gradientUnits="userSpaceOnUse">
<stop stop-color="#F9FAFB"/>
<stop offset="1" stop-color="#9CA3AF"/>
</linearGradient>
<linearGradient id="paint2_linear_963_3577" x1="24" y1="17" x2="24" y2="29" gradientUnits="userSpaceOnUse">
<stop stop-color="#FDE68A"/>
<stop offset="1" stop-color="#D97706"/>
</linearGradient>
<linearGradient id="paint3_linear_963_3577" x1="56" y1="31.5069" x2="56" y2="41" gradientUnits="userSpaceOnUse">
<stop stop-color="#F9FAFB"/>
<stop offset="1" stop-color="#9CA3AF"/>
</linearGradient>
<linearGradient id="paint4_linear_963_3577" x1="56" y1="17" x2="56" y2="29" gradientUnits="userSpaceOnUse">
<stop stop-color="#FDE68A"/>
<stop offset="1" stop-color="#D97706"/>
</linearGradient>
<linearGradient id="paint5_linear_963_3577" x1="40" y1="54.5069" x2="40" y2="64" gradientUnits="userSpaceOnUse">
<stop stop-color="#F9FAFB"/>
<stop offset="1" stop-color="#9CA3AF"/>
</linearGradient>
<linearGradient id="paint6_linear_963_3577" x1="40" y1="40" x2="40" y2="52" gradientUnits="userSpaceOnUse">
<stop stop-color="#FDE68A"/>
<stop offset="1" stop-color="#D97706"/>
</linearGradient>
</defs>
</svg>
