<?xml version="1.0" encoding="UTF-8"?>
<svg width="64px" height="64px" viewBox="0 0 64 64" version="1.1" xmlns="http://www.w3.org/2000/svg" xmlns:xlink="http://www.w3.org/1999/xlink">
    <!-- Generator: Sketch 55 (78076) - https://sketchapp.com -->
    <title>profiler</title>
    <desc>Created with Sketch.</desc>
    <defs>
        <path d="M32,64 C46.0222222,64 53.8173667,64 58.9086889,58.9086889 C64,53.8173667 64,46.0222222 64,32 C64,17.9777778 64,10.1826333 58.9086889,5.09131111 C53.8173667,0 46.0222222,0 32,0 C17.9777778,0 10.1826333,0 5.09131111,5.09131111 C0,10.1826333 0,17.9777778 0,32 C0,46.0222222 0,53.8173667 5.09131111,58.9086889 C10.1826333,64 17.9777778,64 32,64 Z" id="path-1"></path>
        <linearGradient x1="50%" y1="0%" x2="50%" y2="100%" id="linearGradient-3">
            <stop stop-color="#FDFEFF" offset="0%"></stop>
            <stop stop-color="#FBFCFD" stop-opacity="0.9" offset="100%"></stop>
        </linearGradient>
        <path d="M39.975,14.3502939 L30.75,14.3502939 C29.9735625,14.3502939 29.2631094,14.7891303 28.9158906,15.4835808 L27.2156719,18.8847229 L22.47825,1.51064634 C22.2290469,0.59901983 21.3853437,-0.0326482913 20.4442656,0.00130547184 C19.4980625,0.0275715905 18.6934375,0.695756023 18.4948437,1.62083591 L14.0655625,22.2929119 L12.2212031,15.8365718 C11.9694375,14.9569772 11.1654531,14.3502939 10.25,14.3502939 L1.025,14.3502939 C0.4586875,14.3502939 0,14.80899 0,15.3753132 L0,17.4253517 C0,17.9916748 0.4586875,18.4503709 1.025,18.4503709 L8.70353125,18.4503709 L12.3794375,31.3137221 C12.6318437,32.1958793 13.43775,32.8 14.3493594,32.8 C14.3724219,32.8 14.396125,32.8 14.4191875,32.7987187 C15.3589844,32.7666869 16.1578438,32.0991431 16.3551563,31.1791883 L20.7395938,10.7172412 L24.6723906,25.1392623 C24.896315,25.9590074 25.6025908,26.5557351 26.4482031,26.6396342 C27.2912656,26.7165107 28.1035781,26.2751117 28.4841094,25.5165975 L32.0171562,18.4503709 L39.975,18.4503709 C40.5413125,18.4503709 41,17.9916748 41,17.4253517 L41,15.3753132 C41,14.80899 40.5413125,14.3502939 39.975,14.3502939 Z" id="path-4"></path>
        <filter x="-4.9%" y="-3.0%" width="109.8%" height="112.2%" filterUnits="objectBoundingBox" id="filter-5">
            <feOffset dx="0" dy="1" in="SourceAlpha" result="shadowOffsetOuter1"></feOffset>
            <feGaussianBlur stdDeviation="0.5" in="shadowOffsetOuter1" result="shadowBlurOuter1"></feGaussianBlur>
            <feColorMatrix values="0 0 0 0 0   0 0 0 0 0   0 0 0 0 0  0 0 0 0.1 0" type="matrix" in="shadowBlurOuter1"></feColorMatrix>
        </filter>
    </defs>
    <g id="Page-1" stroke="none" stroke-width="1" fill="none" fill-rule="evenodd">
        <g id="Artboard" transform="translate(-421.000000, -184.000000)">
            <g id="profiler" transform="translate(421.000000, 184.000000)">
                <mask id="mask-2" fill="white">
                    <use xlink:href="#path-1"></use>
                </mask>
                <use id="Path" fill="#738088" xlink:href="#path-1"></use>
                <g id="heart-rate" mask="url(#mask-2)" fill-rule="nonzero">
                    <g transform="translate(12.000000, 16.000000)" id="Path">
                        <g>
                            <use fill="black" fill-opacity="1" filter="url(#filter-5)" xlink:href="#path-4"></use>
                            <use fill="url(#linearGradient-3)" xlink:href="#path-4"></use>
                        </g>
                    </g>
                </g>
            </g>
        </g>
    </g>
</svg>