<?xml version="1.0" encoding="UTF-8"?>
<svg width="64px" height="64px" viewBox="0 0 64 64" version="1.1" xmlns="http://www.w3.org/2000/svg" xmlns:xlink="http://www.w3.org/1999/xlink">
    <!-- Generator: Sketch 55 (78076) - https://sketchapp.com -->
    <title>conversations copy 2</title>
    <desc>Created with Sketch.</desc>
    <defs>
        <path d="M32,64 C46.0222222,64 53.8173667,64 58.9086889,58.9086889 C64,53.8173667 64,46.0222222 64,32 C64,17.9777778 64,10.1826333 58.9086889,5.09131111 C53.8173667,0 46.0222222,0 32,0 C17.9777778,0 10.1826333,0 5.09131111,5.09131111 C0,10.1826333 0,17.9777778 0,32 C0,46.0222222 0,53.8173667 5.09131111,58.9086889 C10.1826333,64 17.9777778,64 32,64 Z" id="path-1"></path>
        <linearGradient x1="50%" y1="0%" x2="50%" y2="100%" id="linearGradient-3">
            <stop stop-color="#FDFEFF" offset="0%"></stop>
            <stop stop-color="#FBFCFD" stop-opacity="0.9" offset="100%"></stop>
        </linearGradient>
        <path d="M35.8333333,27.6428571 L35.8333333,28.7946429 C35.8333333,30.7030078 34.2290451,32.25 32.25,32.25 L3.58333333,32.25 C1.60428819,32.25 0,30.7030078 0,28.7946429 L0,10.3660714 C0,8.45770647 1.60428819,6.91071429 3.58333333,6.91071429 L4.77777778,6.91071429 L4.77777778,21.8839286 C4.77777778,25.0594018 7.45691667,27.6428571 10.75,27.6428571 L35.8333333,27.6428571 Z M43,21.8839286 L43,3.45535714 C43,1.54699219 41.3957118,0 39.4166667,0 L10.75,0 C8.77095486,0 7.16666667,1.54699219 7.16666667,3.45535714 L7.16666667,21.8839286 C7.16666667,23.7922935 8.77095486,25.3392857 10.75,25.3392857 L39.4166667,25.3392857 C41.3957118,25.3392857 43,23.7922935 43,21.8839286 Z M19.1111111,6.91071429 C19.1111111,8.81907924 17.5068229,10.3660714 15.5277778,10.3660714 C13.5487326,10.3660714 11.9444444,8.81907924 11.9444444,6.91071429 C11.9444444,5.00234933 13.5487326,3.45535714 15.5277778,3.45535714 C17.5068229,3.45535714 19.1111111,5.00234933 19.1111111,6.91071429 Z M11.9444444,17.2767857 L16.0887934,13.2804492 C16.4386163,12.94312 17.0058281,12.94312 17.3557257,13.2804492 L20.3055556,16.125 L30.4221267,6.36973493 C30.7719497,6.03240569 31.3391615,6.03240569 31.689059,6.36973493 L38.2222222,12.6696429 L38.2222222,20.7321429 L11.9444444,20.7321429 L11.9444444,17.2767857 Z" id="path-4"></path>
        <filter x="-4.7%" y="-3.1%" width="109.3%" height="112.4%" filterUnits="objectBoundingBox" id="filter-5">
            <feOffset dx="0" dy="1" in="SourceAlpha" result="shadowOffsetOuter1"></feOffset>
            <feGaussianBlur stdDeviation="0.5" in="shadowOffsetOuter1" result="shadowBlurOuter1"></feGaussianBlur>
            <feColorMatrix values="0 0 0 0 0   0 0 0 0 0   0 0 0 0 0  0 0 0 0.1 0" type="matrix" in="shadowBlurOuter1"></feColorMatrix>
        </filter>
    </defs>
    <g id="Page-1" stroke="none" stroke-width="1" fill="none" fill-rule="evenodd">
        <g id="Artboard" transform="translate(-1312.000000, -430.000000)">
            <g id="conversations-copy-2" transform="translate(1312.000000, 430.000000)">
                <mask id="mask-2" fill="white">
                    <use xlink:href="#path-1"></use>
                </mask>
                <use id="Path" fill="#00B356" xlink:href="#path-1"></use>
                <g id="images" mask="url(#mask-2)" fill-rule="nonzero">
                    <g transform="translate(11.000000, 16.000000)" id="Shape">
                        <g>
                            <use fill="black" fill-opacity="1" filter="url(#filter-5)" xlink:href="#path-4"></use>
                            <use fill="url(#linearGradient-3)" xlink:href="#path-4"></use>
                        </g>
                    </g>
                </g>
            </g>
        </g>
    </g>
</svg>