<?xml version="1.0" encoding="UTF-8"?>
<svg width="606px" height="606px" viewBox="0 0 606 606" version="1.1" xmlns="http://www.w3.org/2000/svg" xmlns:xlink="http://www.w3.org/1999/xlink">
    <title>Froala</title>
    <defs>
        <path d="M552.268958,552.268958 C600,504.537813 600,431.458333 600,300 C600,168.541667 600,95.4621875 552.268958,47.7310417 C504.537813,0 431.458333,0 300,0 C168.541667,0 95.4621875,0 47.7310417,47.7310417 C0,95.4621875 0,168.541667 0,300 C0,431.458333 0,504.537813 47.7310417,552.268958 C95.4621875,600 168.541667,600 300,600 C431.458333,600 504.537813,600 552.268958,552.268958 Z" id="path-2"></path>
    </defs>
    <g id="Page-1" stroke="none" stroke-width="1" fill="none" fill-rule="evenodd">
        <g id="vk" transform="translate(3.000000, 3.000000)">
            <g id="Squircle2-Copy-6">
                <g id="Shape">
                    <use fill="#0098f7" xlink:href="#path-2"></use>
                    <use stroke="#000000" stroke-width="4.04" fill="url(#linearGradient-1)" xlink:href="#path-2"></use>
                </g>
            </g>
            <g id="VK_Logo_White_On_Blue" transform="translate(55.000000, 170.000000) scale(0.6, 0.6)" fill="#FFFFFF">

<path class="cls-1" d="M123.58,78.65A16.16,16.16,0,0,0,111.13,73H16.6C7.6,73,0,80.78,0,89.94V128.3a16.45,16.45,0,0,0,32.9,0V104.14h78.5A15.63,15.63,0,0,0,126.87,91.2,15.14,15.14,0,0,0,123.58,78.65Z"/><path class="cls-1" d="M103.54,170a16.05,16.05,0,0,0-11.44-4.85H15.79A15.81,15.81,0,0,0,0,180.93v88.69a16.88,16.88,0,0,0,5,11.92,16,16,0,0,0,11.35,4.7h.17a16.45,16.45,0,0,0,16.41-16.6v-73.4H92.2A15.61,15.61,0,0,0,107.89,181,15.1,15.1,0,0,0,103.54,170Z"/><path class="cls-1" d="M233,144.17c-5.29-6.22-16-7.52-24.14-7.52-16.68,0-28.72,7.71-36.5,23.47v-5.67a16.15,16.15,0,1,0-32.3,0v115.5a16.15,16.15,0,1,0,32.3,0v-38.7c0-19.09,3.5-63.5,35.9-63.5a44.73,44.73,0,0,1,5.95.27h.12c12.79,1.2,20.06-2.73,21.6-11.69C236.76,151.48,235.78,147.39,233,144.17Z"/><path class="cls-1" d="M371.83,157c-13.93-13.11-32.9-20.33-53.43-20.33S279,143.86,265.12,157c-14.67,13.88-22.42,32.82-22.42,54.77,0,21.68,8,41.28,22.4,55.2,13.92,13.41,32.85,20.8,53.3,20.8s39.44-7.38,53.44-20.79c14.55-13.94,22.56-33.54,22.56-55.21S386.39,170.67,371.83,157Zm-9.73,54.77c0,25.84-18.38,44.6-43.7,44.6s-43.7-18.76-43.7-44.6c0-25.15,18.38-43.4,43.7-43.4S362.1,186.59,362.1,211.74Z"/><path class="cls-1" d="M552.7,138.14a16.17,16.17,0,0,0-16,16.3v1C526.41,143.85,509,136.64,490,136.64c-19.83,0-38.19,7.24-51.69,20.4C424,171,416.4,190,416.4,212c0,21.61,7.78,41.16,21.9,55,13.56,13.33,31.92,20.67,51.7,20.67,18.83,0,36.29-7.41,46.7-19.37v1.57a16.15,16.15,0,1,0,32.3,0V154.44A16.32,16.32,0,0,0,552.7,138.14Zm-16.3,73.6c0,30.44-22.81,44.3-44,44.3-24.57,0-43.1-19-43.1-44.3s18.13-43.4,43.1-43.4C513.73,168.34,536.4,183.55,536.4,211.74Z"/><path class="cls-1" d="M623.5,61.94a16.17,16.17,0,0,0-16,16.3v191.7a16.15,16.15,0,1,0,32.3,0V78.24A16.32,16.32,0,0,0,623.5,61.94Z"/><path class="cls-1" d="M806.5,138.14a16.17,16.17,0,0,0-16,16.3v1c-10.29-11.63-27.74-18.84-46.7-18.84-19.83,0-38.19,7.24-51.69,20.4-14.33,14-21.91,33-21.91,55,0,21.61,7.78,41.16,21.9,55,13.56,13.33,31.92,20.67,51.7,20.67,18.83,0,36.29-7.41,46.7-19.37v1.57a16.15,16.15,0,1,0,32.3,0V154.44A16.32,16.32,0,0,0,806.5,138.14Zm-16.3,73.6c0,30.44-22.81,44.3-44,44.3-24.57,0-43.1-19-43.1-44.3s18.13-43.4,43.1-43.4C767.53,168.34,790.2,183.55,790.2,211.74Z"/>

            </g>
        </g>
    </g>
</svg>
