<svg width="240" height="240" viewBox="0 0 240 240" fill="none" xmlns="http://www.w3.org/2000/svg">
<path fill-rule="evenodd" clip-rule="evenodd" d="M89.4058 196.52C90.7359 193.317 88.3729 189.822 84.9053 189.745C72.4675 189.469 61.4816 188.96 51.8195 188.181C49.1096 187.962 46.6821 189.918 46.4516 192.627C44.6404 213.913 48.8595 223.34 58.9122 226.033C70.0619 229.021 79.1381 221.247 89.4058 196.52ZM114.011 116.88C113.536 118.699 111.88 120 110 120V120C94.1976 120 80.2643 120.255 68.0279 120.816C64.6323 120.971 62.0349 117.798 62.9123 114.514C63.019 114.114 63.1263 113.713 63.2341 113.311C84.8227 32.7412 97.5411 8.62303 115.852 13.5295C133.435 18.2407 133.171 43.5481 114.011 116.88Z" fill="url(#paint0_linear_435_2643)"/>
<path fill-rule="evenodd" clip-rule="evenodd" d="M128.912 226.033C147.223 230.94 159.942 206.821 181.53 126.252C181.619 125.92 181.708 125.589 181.796 125.258C182.68 121.953 180.044 118.766 176.628 118.952C164.642 119.602 150.929 119.931 135.307 119.99C133.038 119.999 131.044 121.564 130.472 123.76C111.591 196.263 111.416 221.345 128.912 226.033ZM155.129 43.5979C153.814 46.792 156.16 50.2719 159.613 50.3674C172.177 50.7148 183.189 51.3186 192.791 52.2207C195.518 52.4769 197.987 50.5299 198.236 47.802C200.237 25.9048 196.04 16.2594 185.852 13.5295C174.619 10.5197 165.491 18.4321 155.129 43.5979Z" fill="url(#paint1_linear_435_2643)"/>
<path fill-rule="evenodd" clip-rule="evenodd" d="M126.673 105.739C126.142 107.902 127.772 110 130 110V110C213.412 110 240 103.957 240 85.0001C240 66.8536 215.637 60.5406 140.392 60.0338C137.894 60.017 135.74 61.8524 135.351 64.3199C133.508 75.9865 130.613 89.6905 126.673 105.739ZM65.1363 69.2426C66.2362 65.8091 63.4822 62.3347 59.9008 62.7499C30.72 66.1325 20 72.9628 20 85.0001C20 95.5427 28.2231 102.091 49.8696 105.827C52.3593 106.257 54.7397 104.683 55.41 102.247C58.7898 89.9625 62.0132 78.9918 65.1363 69.2426Z" fill="url(#paint2_linear_435_2643)"/>
<path fill-rule="evenodd" clip-rule="evenodd" d="M193.776 134.854C191.259 134.345 188.81 135.923 188.127 138.398C184.864 150.231 181.746 160.836 178.723 170.298C177.617 173.757 180.419 177.245 184.018 176.76C210.246 173.227 220 166.482 220 155C220 145.071 212.707 138.685 193.776 134.854ZM108.369 175.698C107.98 178.162 105.83 179.997 103.336 179.987C25.1651 179.663 -8.60626e-06 173.443 -6.99392e-06 155C-5.33663e-06 136.043 26.5882 130 110 130C110.577 130 111.151 130 111.723 130.001C114.966 130.004 117.334 133.058 116.568 136.21C112.868 151.432 110.133 164.504 108.369 175.698Z" fill="url(#paint3_linear_435_2643)"/>
<defs>
<linearGradient id="paint0_linear_435_2643" x1="87.3822" y1="12.9231" x2="87.3822" y2="226.64" gradientUnits="userSpaceOnUse">
<stop stop-color="#FB923C"/>
<stop offset="1" stop-color="#EA580C"/>
</linearGradient>
<linearGradient id="paint1_linear_435_2643" x1="157.382" y1="12.9231" x2="157.382" y2="226.64" gradientUnits="userSpaceOnUse">
<stop stop-color="#FB923C"/>
<stop offset="1" stop-color="#EA580C"/>
</linearGradient>
<linearGradient id="paint2_linear_435_2643" x1="130" y1="60.0337" x2="130" y2="110" gradientUnits="userSpaceOnUse">
<stop stop-color="#34D399"/>
<stop offset="1" stop-color="#059669"/>
</linearGradient>
<linearGradient id="paint3_linear_435_2643" x1="110" y1="130" x2="110" y2="179.987" gradientUnits="userSpaceOnUse">
<stop stop-color="#34D399"/>
<stop offset="1" stop-color="#059669"/>
</linearGradient>
</defs>
</svg>
