<svg width="80" height="80" viewBox="0 0 80 80" fill="none" xmlns="http://www.w3.org/2000/svg">
<rect width="80" height="80" fill="url(#paint0_linear_plyr)"/>
<g transform="translate(4.061 1.383) scale(0.22117)">
<svg:path xmlns:svg="http://www.w3.org/2000/svg" d="M113.416 144.072C113.416 149.277 112.221 154.056 109.832 158.408C107.443 162.675 103.773 166.131 98.824 168.776C93.8747 171.421 87.7307 172.744 80.392 172.744H66.824V205H44.936V115.144H80.392C87.56 115.144 93.6187 116.381 98.568 118.856C103.517 121.331 107.229 124.744 109.704 129.096C112.179 133.448 113.416 138.44 113.416 144.072ZM78.728 155.336C82.9093 155.336 86.024 154.355 88.072 152.392C90.12 150.429 91.144 147.656 91.144 144.072C91.144 140.488 90.12 137.715 88.072 135.752C86.024 133.789 82.9093 132.808 78.728 132.808H66.824V155.336H78.728ZM144.139 110.28V205H122.251V110.28H144.139ZM230.401 133.576L185.601 238.92H162.049L178.433 202.568L149.377 133.576H173.825L190.337 178.248L206.721 133.576H230.401ZM257.644 145.48C260.204 141.555 263.404 138.483 267.244 136.264C271.084 133.96 275.351 132.808 280.044 132.808V155.976H274.028C268.567 155.976 264.471 157.171 261.74 159.56C259.009 161.864 257.644 165.96 257.644 171.848V205H235.756V133.576H257.644V145.48Z" fill="#38BDF8" />

</g>
<g transform="translate(4.061 2.383) scale(0.22117)">
<path fill-rule="evenodd" fill="black" fill-opacity="0.1" d="M144.14 110.28 L122.25 110.28 L122.25 205.00 L144.14 205.00 Z M113.42 144.05 L113.40 142.91 L113.35 141.79 L113.26 140.69 L113.14 139.63 L112.99 138.56 L112.80 137.51 L112.58 136.48 L112.33 135.48 L112.04 134.49 L111.71 133.51 L111.35 132.55 L110.97 131.62 L110.54 130.68 L110.07 129.77 L109.58 128.88 L109.07 128.04 L108.54 127.25 L107.97 126.47 L107.38 125.72 L106.75 124.98 L106.10 124.28 L105.41 123.59 L104.70 122.94 L103.94 122.30 L103.17 121.69 L102.35 121.10 L101.50 120.53 L100.62 119.98 L99.71 119.45 L98.74 118.94 L97.80 118.48 L96.84 118.06 L95.40 117.50 L93.88 116.98 L92.33 116.54 L90.70 116.15 L89.03 115.83 L87.29 115.57 L85.50 115.37 L83.64 115.23 L82.12 115.17 L80.53 115.14 L44.94 115.14 L44.94 205.00 L66.82 205.00 L66.82 172.74 L80.46 172.74 L81.85 172.73 L83.42 172.67 L84.94 172.56 L86.43 172.42 L87.89 172.22 L89.69 171.92 L91.45 171.54 L93.13 171.09 L94.75 170.56 L96.28 169.98 L97.75 169.32 L99.17 168.59 L100.64 167.73 L102.15 166.74 L103.54 165.71 L104.84 164.61 L106.05 163.45 L106.63 162.84 L107.18 162.22 L107.70 161.58 L108.19 160.94 L108.67 160.27 L109.12 159.60 L109.55 158.90 L109.94 158.22 L110.37 157.39 L110.76 156.57 L111.13 155.73 L111.47 154.89 L111.78 154.04 L112.06 153.18 L112.32 152.31 L112.55 151.44 L112.75 150.55 L112.93 149.65 L113.08 148.74 L113.20 147.82 L113.30 146.89 L113.36 145.96 L113.40 145.01 Z M257.64 145.48 L257.64 133.58 L235.76 133.58 L235.76 205.00 L257.64 205.00 L257.65 171.02 L257.74 169.23 L257.92 167.60 L258.05 166.81 L258.20 166.06 L258.38 165.34 L258.57 164.67 L258.79 164.01 L259.04 163.38 L259.30 162.78 L259.59 162.23 L259.90 161.69 L260.23 161.20 L260.60 160.73 L260.97 160.29 L261.40 159.86 L261.92 159.41 L262.42 159.01 L262.93 158.65 L263.49 158.30 L264.07 157.98 L264.68 157.68 L265.30 157.41 L265.93 157.17 L266.56 156.96 L267.92 156.60 L269.38 156.31 L270.91 156.12 L272.16 156.03 L273.46 155.98 L280.04 155.98 L280.04 132.81 L278.39 132.86 L276.76 133.00 L275.18 133.25 L273.65 133.59 L272.14 134.03 L270.66 134.56 L269.22 135.20 L267.83 135.92 L266.26 136.86 L264.90 137.78 L263.56 138.82 L262.27 139.95 L261.05 141.15 L259.92 142.42 L259.33 143.14 L258.74 143.90 L258.18 144.69 Z M230.40 133.58 L206.72 133.58 L190.34 178.25 L173.82 133.58 L149.38 133.58 L178.43 202.57 L162.05 238.92 L185.60 238.92 Z"/>
</g>
<defs>
<linearGradient id="paint0_linear_plyr" x1="40" y1="0" x2="40" y2="80" gradientUnits="userSpaceOnUse">
<stop stop-color="#475569"/>
<stop offset="1" stop-color="#1E293B"/>
</linearGradient>

</defs>
</svg>
