<svg width="48" height="48" viewBox="0 0 48 48" fill="none" xmlns="http://www.w3.org/2000/svg">
<rect width="48" height="48" fill="url(#paint0_linear_214_1464)"/>
<path d="M9 18.8536C9 17.0593 9.72357 15.9597 11.2209 15.1264L17.3848 11.6962C20.6146 9.89873 22.2296 9 24 9C25.7704 9 27.3854 9.89873 30.6152 11.6962L36.7791 15.1264C38.2764 15.9597 39 17.0593 39 18.8536C39 19.3401 39 19.5834 38.9469 19.7834C38.6677 20.8342 37.7156 21 36.7961 21H11.2039C10.2844 21 9.33228 20.8342 9.05313 19.7834C9 19.5834 9 19.3401 9 18.8536Z" stroke="white" stroke-width="2.25"/>
<path d="M23.9938 16.5H24.0073" stroke="white" stroke-width="3" stroke-linecap="round" stroke-linejoin="round"/>
<path d="M12 21V33.75M18 21V33.75" stroke="white" stroke-width="2.25"/>
<path d="M30 21V33.75M36 21V33.75" stroke="white" stroke-width="2.25"/>
<path d="M34.5 33.75H13.5C11.0147 33.75 9 35.7646 9 38.25C9 38.6642 9.33579 39 9.75 39H38.25C38.6642 39 39 38.6642 39 38.25C39 35.7646 36.9854 33.75 34.5 33.75Z" stroke="white" stroke-width="2.25"/>
<defs>
<linearGradient id="paint0_linear_214_1464" x1="24" y1="0" x2="24" y2="48" gradientUnits="userSpaceOnUse">
<stop stop-color="#FACA15"/>
<stop offset="1" stop-color="#FF5A1F"/>
</linearGradient>
</defs>
</svg>
