<svg width="320" height="320" viewBox="0 0 320 320" fill="none" xmlns="http://www.w3.org/2000/svg">
<g clip-path="url(#clip0_1006_7176)">
<path d="M160 0C281.326 0 320 38.6737 320 160C320 281.326 281.326 320 160 320C38.6736 320 0 281.326 0 160C0 38.6737 38.6736 0 160 0Z" fill="url(#paint0_linear_1006_7176)"/>
<path d="M160 2C220.573 2 259.85 11.6833 284.083 35.9168C308.317 60.1504 318 99.4272 318 160C318 220.573 308.317 259.85 284.083 284.083C259.85 308.317 220.573 318 160 318C99.4272 318 60.1504 308.317 35.9168 284.083C11.6833 259.85 2 220.573 2 160C2 99.4272 11.6833 60.1504 35.9168 35.9168C60.1504 11.6833 99.4272 2 160 2Z" stroke="#0F172A" stroke-opacity="0.2" stroke-width="4"/>
<g clip-path="url(#clip1_1006_7176)">
<path fill-rule="evenodd" clip-rule="evenodd" d="M160 270C220.751 270 270 220.751 270 160C270 99.2487 220.751 50 160 50C143.232 50 127.341 53.7516 113.12 60.4613C109.676 62.0859 109.553 66.9319 112.125 69.7392C113.574 71.3207 114.856 73.0581 115.942 74.9233C117.48 77.5646 120.793 78.9079 123.588 77.6701C134.721 72.7391 147.04 70 160 70C209.706 70 250 110.294 250 160C250 209.706 209.706 250 160 250C110.294 250 70 209.706 70 160C70 142.504 74.9923 126.174 83.6302 112.357C84.7235 110.608 86.8226 109.856 88.8821 109.969C89.2521 109.99 89.6249 110 90 110C101.046 110 110 101.046 110 90C110 78.9543 101.046 70 90 70C78.9543 70 70 78.9543 70 90C70 91.1006 70.0889 92.1804 70.2599 93.2327C70.5075 94.7565 70.2648 96.3454 69.3882 97.6162C57.1603 115.343 50 136.836 50 160C50 220.751 99.2487 270 160 270Z" fill="url(#paint1_linear_1006_7176)"/>
<path fill-rule="evenodd" clip-rule="evenodd" d="M160 230C164.977 230 169.832 229.481 174.515 228.493C178.6 227.632 179.314 222.123 176.685 218.88C175.241 217.1 173.998 215.151 172.988 213.068C171.841 210.701 169.299 209.207 166.692 209.556C164.503 209.849 162.269 210 160 210C132.386 210 110 187.614 110 160C110 132.386 132.386 110 160 110C187.614 110 210 132.386 210 160C210 165.888 208.982 171.538 207.113 176.785C206.284 179.112 203.737 180.194 201.27 180.04C200.85 180.013 200.427 180 200 180C188.954 180 180 188.954 180 200C180 211.046 188.954 220 200 220C211.046 220 220 211.046 220 200C220 199.473 219.98 198.95 219.94 198.433C219.846 197.22 220.063 195.992 220.671 194.938C226.605 184.656 230 172.725 230 160C230 121.34 198.66 90 160 90C121.34 90 90 121.34 90 160C90 198.66 121.34 230 160 230Z" fill="url(#paint2_linear_1006_7176)"/>
<circle cx="160" cy="160" r="25" fill="url(#paint3_linear_1006_7176)"/>
</g>
</g>
<defs>
<linearGradient id="paint0_linear_1006_7176" x1="160" y1="0" x2="160" y2="320" gradientUnits="userSpaceOnUse">
<stop stop-color="#F8FAFC"/>
<stop offset="1" stop-color="#E2E8F0"/>
</linearGradient>
<linearGradient id="paint1_linear_1006_7176" x1="160" y1="50" x2="160" y2="270" gradientUnits="userSpaceOnUse">
<stop stop-color="#7DD3FC"/>
<stop offset="1" stop-color="#0EA5E9"/>
</linearGradient>
<linearGradient id="paint2_linear_1006_7176" x1="160" y1="90" x2="160" y2="230" gradientUnits="userSpaceOnUse">
<stop stop-color="#2DD4BF"/>
<stop offset="1" stop-color="#0D9488"/>
</linearGradient>
<linearGradient id="paint3_linear_1006_7176" x1="160" y1="135" x2="160" y2="185" gradientUnits="userSpaceOnUse">
<stop stop-color="#FB923C"/>
<stop offset="1" stop-color="#EA580C"/>
</linearGradient>
<clipPath id="clip0_1006_7176">
<rect width="320" height="320" fill="white"/>
</clipPath>
<clipPath id="clip1_1006_7176">
<rect width="240" height="240" fill="white" transform="translate(40 40)"/>
</clipPath>
</defs>
</svg>
