<svg width="320" height="320" viewBox="0 0 320 320" fill="none" xmlns="http://www.w3.org/2000/svg">
<g clip-path="url(#clip0_1016_7745)">
<path d="M160 0C281.326 0 320 38.6737 320 160C320 281.326 281.326 320 160 320C38.6736 320 0 281.326 0 160C0 38.6737 38.6736 0 160 0Z" fill="url(#paint0_linear_1016_7745)"/>
<path d="M160 2C220.573 2 259.85 11.6833 284.083 35.9168C308.317 60.1504 318 99.4272 318 160C318 220.573 308.317 259.85 284.083 284.083C259.85 308.317 220.573 318 160 318C99.4272 318 60.1504 308.317 35.9168 284.083C11.6833 259.85 2 220.573 2 160C2 99.4272 11.6833 60.1504 35.9168 35.9168C60.1504 11.6833 99.4272 2 160 2Z" stroke="#F8FAFC" stroke-opacity="0.2" stroke-width="4"/>
<g clip-path="url(#clip1_1016_7745)">
<g clip-path="url(#clip2_1016_7745)">
<path d="M160 259.618C215.018 259.618 259.618 215.018 259.618 159.999C259.618 104.982 215.018 60.3807 160 60.3807C104.982 60.3807 60.3809 104.982 60.3809 159.999C60.3809 215.018 104.982 259.618 160 259.618Z" fill="#1AB4D7"/>
<path d="M108.066 159.711L125.067 142.669C125.631 142.094 125.945 141.334 125.945 140.527C125.945 138.846 124.579 137.481 122.898 137.481C122.079 137.481 121.311 137.802 120.732 138.388C120.731 138.391 103.747 155.365 103.747 155.365L86.6855 138.362C86.109 137.794 85.3451 137.481 84.5351 137.481C82.8561 137.481 81.4893 138.845 81.4893 140.525C81.4893 141.344 81.8163 142.112 82.4033 142.692L99.4017 159.688L82.4121 176.709C81.815 177.297 81.4893 178.067 81.4893 178.89C81.4893 180.571 82.8561 181.934 84.5351 181.934C85.3465 181.934 86.1111 181.62 86.6855 181.045L103.721 164.033L120.691 180.983C121.293 181.605 122.069 181.937 122.898 181.937C124.577 181.937 125.944 180.571 125.944 178.89C125.944 178.079 125.629 177.317 125.058 176.743L108.066 159.711Z" fill="white"/>
<path d="M209.134 159.706C209.134 162.758 211.616 165.241 214.672 165.241C217.721 165.241 220.203 162.758 220.203 159.706C220.203 156.653 217.721 154.17 214.672 154.17C211.616 154.17 209.134 156.653 209.134 159.706Z" fill="white"/>
<path d="M198.635 159.709C198.635 150.87 205.825 143.678 214.665 143.678C223.501 143.678 230.693 150.87 230.693 159.709C230.693 168.546 223.501 175.735 214.665 175.735C205.825 175.735 198.635 168.546 198.635 159.709M192.329 159.709C192.329 172.023 202.349 182.042 214.665 182.042C226.981 182.042 237.007 172.023 237.007 159.709C237.007 147.393 226.981 137.372 214.665 137.372C202.349 137.372 192.329 147.393 192.329 159.709Z" fill="white"/>
<path d="M190.744 137.754L189.807 137.751C186.994 137.751 184.28 138.638 182.014 140.385C181.715 139.018 180.494 137.99 179.039 137.99C177.364 137.99 176.023 139.332 176.019 141.01C176.019 141.016 176.029 178.63 176.029 178.63C176.033 180.305 177.399 181.666 179.075 181.666C180.75 181.666 182.116 180.305 182.12 178.626C182.12 178.618 182.122 155.495 182.122 155.495C182.122 147.785 182.827 144.671 189.431 143.846C190.041 143.77 190.705 143.782 190.708 143.782C192.515 143.72 193.799 142.478 193.799 140.8C193.799 139.12 192.428 137.754 190.744 137.754" fill="white"/>
<path d="M132.255 156.032C132.255 155.948 132.262 155.861 132.266 155.776C134.034 148.785 140.366 143.612 147.906 143.612C155.537 143.612 161.927 148.912 163.605 156.032H132.255ZM169.842 155.456C168.53 149.242 165.127 144.137 159.946 140.859C152.373 136.05 142.372 136.316 135.057 141.518C129.09 145.763 125.646 152.707 125.646 159.861C125.646 161.654 125.862 163.465 126.312 165.247C128.565 174.11 136.184 180.82 145.269 181.932C147.965 182.258 150.588 182.102 153.306 181.398C155.64 180.83 157.9 179.883 159.981 178.549C162.142 177.16 163.947 175.329 165.695 173.136C165.73 173.096 165.766 173.06 165.801 173.018C167.014 171.513 166.789 169.373 165.456 168.352C164.332 167.49 162.444 167.141 160.958 169.043C160.639 169.498 160.283 169.966 159.891 170.434C158.71 171.739 157.244 173.004 155.488 173.984C153.254 175.178 150.707 175.86 148 175.876C139.141 175.777 134.399 169.592 132.713 165.178C132.418 164.354 132.191 163.499 132.033 162.618C132.012 162.453 131.997 162.294 131.991 162.148C133.823 162.148 163.786 162.143 163.786 162.143C168.144 162.051 170.49 158.975 169.842 155.456Z" fill="white"/>
</g>
</g>
</g>
<defs>
<linearGradient id="paint0_linear_1016_7745" x1="160" y1="0" x2="160" y2="320" gradientUnits="userSpaceOnUse">
<stop stop-color="#475569"/>
<stop offset="1" stop-color="#1E293B"/>
</linearGradient>
<clipPath id="clip0_1016_7745">
<rect width="320" height="320" fill="white"/>
</clipPath>
<clipPath id="clip1_1016_7745">
<rect width="240" height="240" fill="white" transform="translate(40 40)"/>
</clipPath>
<clipPath id="clip2_1016_7745">
<rect width="200" height="200" fill="white" transform="translate(60 60)"/>
</clipPath>
</defs>
</svg>
