<svg width="320" height="320" viewBox="0 0 320 320" fill="none" xmlns="http://www.w3.org/2000/svg">
<g clip-path="url(#clip0_435_2168)">
<path d="M160 0C281.326 0 320 38.6737 320 160C320 281.326 281.326 320 160 320C38.6736 320 0 281.326 0 160C0 38.6737 38.6736 0 160 0Z" fill="url(#paint0_linear_435_2168)"/>
<path d="M160 2C220.573 2 259.85 11.6833 284.083 35.9168C308.317 60.1504 318 99.4272 318 160C318 220.573 308.317 259.85 284.083 284.083C259.85 308.317 220.573 318 160 318C99.4272 318 60.1504 308.317 35.9168 284.083C11.6833 259.85 2 220.573 2 160C2 99.4272 11.6833 60.1504 35.9168 35.9168C60.1504 11.6833 99.4272 2 160 2Z" stroke="#F8FAFC" stroke-opacity="0.2" stroke-width="4"/>
<g clip-path="url(#clip1_435_2168)">
<path fill-rule="evenodd" clip-rule="evenodd" d="M151.066 151.066C177.875 124.256 177.875 107.165 151.066 80.3552C124.256 53.5456 107.165 53.5457 80.3552 80.3552C53.5457 107.165 53.5456 124.256 80.3552 151.066C81.8025 152.513 84.1171 152.563 85.7148 151.284C107.339 133.971 124.359 133.969 145.982 151.277C147.498 152.491 149.693 152.439 151.066 151.066Z" fill="url(#paint1_linear_435_2168)"/>
<path fill-rule="evenodd" clip-rule="evenodd" d="M169.16 145.315C168.02 146.728 168.07 148.781 169.355 150.066C196.164 176.875 213.256 176.875 240.066 150.066C266.875 123.256 266.875 106.165 240.066 79.3552C213.256 52.5456 196.164 52.5457 169.355 79.3552C167.996 80.7141 167.947 82.8874 169.154 84.3829C186.823 106.276 186.825 123.423 169.16 145.315Z" fill="url(#paint2_linear_435_2168)"/>
<path fill-rule="evenodd" clip-rule="evenodd" d="M175.555 169.087C173.695 167.629 171.026 167.685 169.355 169.356C142.546 196.165 142.546 213.257 169.355 240.066C196.165 266.876 213.256 266.876 240.066 240.066C266.875 213.257 266.875 196.165 240.066 169.356C238.469 167.759 235.918 167.702 234.14 169.095C213.195 185.515 196.502 185.512 175.555 169.087Z" fill="url(#paint3_linear_435_2168)"/>
<path fill-rule="evenodd" clip-rule="evenodd" d="M150.066 240.066C151.752 238.38 151.812 235.688 150.348 233.805C134.278 213.128 134.281 196.569 150.356 175.891C151.884 173.925 151.826 171.116 150.066 169.355C123.256 142.546 106.165 142.546 79.3552 169.355C52.5457 196.165 52.5456 213.256 79.3552 240.066C106.165 266.875 123.256 266.875 150.066 240.066Z" fill="url(#paint4_linear_435_2168)"/>
</g>
</g>
<defs>
<linearGradient id="paint0_linear_435_2168" x1="160" y1="0" x2="160" y2="320" gradientUnits="userSpaceOnUse">
<stop stop-color="#475569"/>
<stop offset="1" stop-color="#1E293B"/>
</linearGradient>
<linearGradient id="paint1_linear_435_2168" x1="115.711" y1="60.248" x2="115.711" y2="152.2" gradientUnits="userSpaceOnUse">
<stop stop-color="#2DD4BF"/>
<stop offset="1" stop-color="#0D9488"/>
</linearGradient>
<linearGradient id="paint2_linear_435_2168" x1="214.231" y1="59.248" x2="214.231" y2="170.173" gradientUnits="userSpaceOnUse">
<stop stop-color="#C084FC"/>
<stop offset="1" stop-color="#9333EA"/>
</linearGradient>
<linearGradient id="paint3_linear_435_2168" x1="204.711" y1="168.045" x2="204.711" y2="260.173" gradientUnits="userSpaceOnUse">
<stop stop-color="#FB923C"/>
<stop offset="1" stop-color="#EA580C"/>
</linearGradient>
<linearGradient id="paint4_linear_435_2168" x1="105.348" y1="149.248" x2="105.348" y2="260.173" gradientUnits="userSpaceOnUse">
<stop stop-color="#7DD3FC"/>
<stop offset="1" stop-color="#0EA5E9"/>
</linearGradient>
<clipPath id="clip0_435_2168">
<rect width="320" height="320" fill="white"/>
</clipPath>
<clipPath id="clip1_435_2168">
<rect width="240" height="240" fill="white" transform="translate(40 40)"/>
</clipPath>
</defs>
</svg>
