<svg width="320" height="320" viewBox="0 0 320 320" fill="none" xmlns="http://www.w3.org/2000/svg">
<g clip-path="url(#clip0_1002_7026)">
<path d="M160 0C281.326 0 320 38.6737 320 160C320 281.326 281.326 320 160 320C38.6736 320 0 281.326 0 160C0 38.6737 38.6736 0 160 0Z" fill="url(#paint0_linear_1002_7026)"/>
<path d="M160 2C220.573 2 259.85 11.6833 284.083 35.9168C308.317 60.1504 318 99.4272 318 160C318 220.573 308.317 259.85 284.083 284.083C259.85 308.317 220.573 318 160 318C99.4272 318 60.1504 308.317 35.9168 284.083C11.6833 259.85 2 220.573 2 160C2 99.4272 11.6833 60.1504 35.9168 35.9168C60.1504 11.6833 99.4272 2 160 2Z" stroke="#0F172A" stroke-opacity="0.2" stroke-width="4"/>
<g clip-path="url(#clip1_1002_7026)">
<path fill-rule="evenodd" clip-rule="evenodd" d="M270 160C270 91.7539 243.412 70 160 70C76.5881 70 50 91.7539 50 160C50 228.246 76.5881 250 160 250C243.412 250 270 228.246 270 160ZM105.312 143.73C106.178 143.73 107.067 143.548 107.979 143.184C109.619 142.5 111.351 141.839 113.174 141.201C114.997 140.563 116.842 139.993 118.711 139.492C120.579 138.991 122.448 138.604 124.316 138.33C126.23 138.011 128.053 137.852 129.785 137.852C131.562 137.852 133.021 137.988 134.16 138.262C135.345 138.535 136.279 138.923 136.963 139.424C137.646 139.925 138.102 140.518 138.33 141.201C138.604 141.885 138.74 142.637 138.74 143.457C138.74 144.779 138.193 146.191 137.1 147.695C136.006 149.199 134.57 150.726 132.793 152.275C131.061 153.825 129.079 155.374 126.846 156.924C124.658 158.473 122.425 159.954 120.146 161.367C117.913 162.734 115.749 163.988 113.652 165.127C111.602 166.266 109.847 167.223 108.389 167.998C107.887 168.226 107.454 168.408 107.09 168.545C106.725 168.636 106.406 168.682 106.133 168.682C105.176 168.682 104.515 167.884 104.15 166.289C103.467 163.053 102.692 159.772 101.826 156.445C101.006 153.118 100.117 149.678 99.1602 146.123C98.431 143.343 96.8359 141.953 94.375 141.953C94.1927 141.953 93.9876 141.976 93.7598 142.021C93.5775 142.067 93.2812 142.158 92.8711 142.295C92.5065 142.386 92.0052 142.523 91.3672 142.705C90.7747 142.887 90 143.138 89.043 143.457C86.4453 144.323 85.1465 145.964 85.1465 148.379V149.336C85.1921 149.655 85.2832 150.042 85.4199 150.498C87.6074 158.519 89.5443 166.562 91.2305 174.629C92.9622 182.695 94.375 190.876 95.4688 199.17C95.8789 202.269 97.3372 203.818 99.8438 203.818C100.254 203.818 100.641 203.773 101.006 203.682C101.37 203.636 101.781 203.545 102.236 203.408L105.312 202.451C108.092 201.449 109.482 199.671 109.482 197.119C109.482 196.436 109.414 195.57 109.277 194.521C109.141 193.428 108.958 192.288 108.73 191.104C108.548 189.919 108.343 188.779 108.115 187.686C107.933 186.546 107.773 185.635 107.637 184.951C107.637 184.723 107.614 184.518 107.568 184.336C107.523 184.108 107.5 183.926 107.5 183.789C107.5 183.288 107.591 182.969 107.773 182.832C108.001 182.65 108.298 182.559 108.662 182.559C109.027 182.559 109.733 182.695 110.781 182.969C113.698 183.88 116.865 184.906 120.283 186.045C123.701 187.139 127.165 188.301 130.674 189.531C134.229 190.716 137.692 191.924 141.064 193.154C144.482 194.385 147.673 195.57 150.635 196.709C151.637 196.982 152.48 197.119 153.164 197.119C155.124 197.119 156.764 196.139 158.086 194.18C158.724 193.405 159.294 192.562 159.795 191.65C160.342 190.693 160.615 189.759 160.615 188.848C160.615 186.934 159.385 185.521 156.924 184.609C151.683 182.741 146.51 181.055 141.406 179.551C136.302 178.047 131.312 176.429 126.436 174.697C125.023 174.15 124.316 173.398 124.316 172.441C124.316 171.621 124.977 170.824 126.299 170.049C127.848 169.229 129.58 168.271 131.494 167.178C133.408 166.038 135.345 164.785 137.305 163.418C139.264 162.051 141.178 160.547 143.047 158.906C144.915 157.266 146.579 155.534 148.037 153.711C149.495 151.888 150.658 149.974 151.523 147.969C152.435 145.964 152.891 143.867 152.891 141.68C152.891 138.581 152.321 136.006 151.182 133.955C150.042 131.904 148.561 130.264 146.738 129.033C144.915 127.803 142.842 126.937 140.518 126.436C138.239 125.934 135.915 125.684 133.545 125.684C128.486 125.684 123.473 126.276 118.506 127.461C113.538 128.646 108.662 130.195 103.877 132.109C101.462 133.158 100.254 134.753 100.254 136.895C100.254 137.259 100.277 137.669 100.322 138.125C100.413 138.581 100.573 139.15 100.801 139.834C101.621 142.432 103.125 143.73 105.312 143.73ZM165.059 135.186C163.783 135.96 163.008 137.145 162.734 138.74C162.096 142.249 161.527 146.032 161.025 150.088C160.57 154.098 160.342 158.109 160.342 162.119C160.342 167.861 161.139 173.193 162.734 178.115C164.329 182.992 166.676 187.23 169.775 190.83C172.874 194.385 176.68 197.165 181.191 199.17C185.749 201.221 190.944 202.246 196.777 202.246C202.155 202.246 207.031 201.403 211.406 199.717C215.827 198.076 219.609 195.752 222.754 192.744C225.898 189.691 228.314 186.045 230 181.807C231.732 177.568 232.598 172.874 232.598 167.725C232.598 164.033 232.233 160.456 231.504 156.992C230.82 153.483 229.863 150.088 228.633 146.807C227.448 143.525 226.058 140.335 224.463 137.236C222.868 134.092 221.204 130.993 219.473 127.939C218.333 125.889 216.921 124.863 215.234 124.863C214.141 124.863 212.979 125.273 211.748 126.094L208.945 127.939C207.077 129.17 206.143 130.674 206.143 132.451C206.143 133.454 206.462 134.57 207.1 135.801C208.604 138.535 210.016 141.247 211.338 143.936C212.705 146.624 213.89 149.359 214.893 152.139C215.941 154.873 216.761 157.653 217.354 160.479C217.992 163.304 218.311 166.175 218.311 169.092C218.311 172.008 217.923 174.72 217.148 177.227C216.419 179.733 215.303 181.921 213.799 183.789C212.34 185.612 210.495 187.048 208.262 188.096C206.029 189.144 203.454 189.668 200.537 189.668C195.342 189.668 191.058 188.87 187.686 187.275C184.359 185.635 181.715 183.424 179.756 180.645C177.842 177.819 176.497 174.538 175.723 170.801C174.993 167.018 174.629 163.008 174.629 158.77C174.629 155.488 174.788 152.253 175.107 149.062C175.426 145.872 175.837 142.796 176.338 139.834C176.338 139.606 176.361 139.401 176.406 139.219C176.452 139.036 176.475 138.831 176.475 138.604C176.475 137.145 176.019 136.006 175.107 135.186C174.242 134.365 173.011 133.955 171.416 133.955C168.454 133.955 166.335 134.365 165.059 135.186Z" fill="url(#paint1_linear_1002_7026)"/>
</g>
</g>
<defs>
<linearGradient id="paint0_linear_1002_7026" x1="160" y1="0" x2="160" y2="320" gradientUnits="userSpaceOnUse">
<stop stop-color="#F8FAFC"/>
<stop offset="1" stop-color="#E2E8F0"/>
</linearGradient>
<linearGradient id="paint1_linear_1002_7026" x1="160" y1="70" x2="160" y2="250" gradientUnits="userSpaceOnUse">
<stop stop-color="#FB7185"/>
<stop offset="1" stop-color="#E11D48"/>
</linearGradient>
<clipPath id="clip0_1002_7026">
<rect width="320" height="320" fill="white"/>
</clipPath>
<clipPath id="clip1_1002_7026">
<rect width="240" height="240" fill="white" transform="translate(40 40)"/>
</clipPath>
</defs>
</svg>
