<?xml version="1.0" encoding="UTF-8" standalone="no"?>
<svg
   xmlns:dc="http://purl.org/dc/elements/1.1/"
   xmlns:cc="http://creativecommons.org/ns#"
   xmlns:rdf="http://www.w3.org/1999/02/22-rdf-syntax-ns#"
   xmlns:svg="http://www.w3.org/2000/svg"
   xmlns="http://www.w3.org/2000/svg"
   xmlns:xlink="http://www.w3.org/1999/xlink"
   xmlns:sodipodi="http://sodipodi.sourceforge.net/DTD/sodipodi-0.dtd"
   xmlns:inkscape="http://www.inkscape.org/namespaces/inkscape"
   inkscape:version="1.0 (4035a4f, 2020-05-01)"
   sodipodi:docname="std-icon.svg"
   id="svg45"
   version="1.1"
   viewBox="0 0 64 64"
   height="64px"
   width="64px">
  <metadata
     id="metadata49">
    <rdf:RDF>
      <cc:Work
         rdf:about="">
        <dc:format>image/svg+xml</dc:format>
        <dc:type
           rdf:resource="http://purl.org/dc/dcmitype/StillImage" />
      </cc:Work>
    </rdf:RDF>
  </metadata>
  <sodipodi:namedview
     inkscape:current-layer="svg45"
     inkscape:window-maximized="0"
     inkscape:window-y="23"
     inkscape:window-x="0"
     inkscape:cy="31.617339"
     inkscape:cx="21.60618"
     inkscape:zoom="2.2766005"
     showgrid="false"
     id="namedview47"
     inkscape:window-height="855"
     inkscape:window-width="1397"
     inkscape:pageshadow="2"
     inkscape:pageopacity="0"
     guidetolerance="10"
     gridtolerance="10"
     objecttolerance="10"
     borderopacity="1"
     bordercolor="#666666"
     pagecolor="#ffffff" />
  <!-- Generator: Sketch 54.1 (76490) - https://sketchapp.com -->
  <title
     id="title10">posts</title>
  <desc
     id="desc12">Created with Sketch.</desc>
  <defs
     id="defs28">
    <path
       id="path-1"
       d="M32,64 C46.0222222,64 53.8173667,64 58.9086889,58.9086889 C64,53.8173667 64,46.0222222 64,32 C64,17.9777778 64,10.1826333 58.9086889,5.09131111 C53.8173667,0 46.0222222,0 32,0 C17.9777778,0 10.1826333,0 5.09131111,5.09131111 C0,10.1826333 0,17.9777778 0,32 C0,46.0222222 0,53.8173667 5.09131111,58.9086889 C10.1826333,64 17.9777778,64 32,64 Z" />
    <linearGradient
       id="linearGradient-3"
       y2="100%"
       x2="50%"
       y1="0%"
       x1="50%">
      <stop
         id="stop15"
         offset="0%"
         stop-color="#FDFEFF" />
      <stop
         id="stop17"
         offset="100%"
         stop-opacity="0.9"
         stop-color="#FBFCFD" />
    </linearGradient>
    <path
       id="path-4"
       d="M17.7777778,10.625 L17.7777778,0 L1.9047619,0 C0.849206349,0 0,0.8359375 0,1.875 L0,38.125 C0,39.1640625 0.849206349,40 1.9047619,40 L28.5714286,40 C29.6269841,40 30.4761905,39.1640625 30.4761905,38.125 L30.4761905,12.5 L19.6825397,12.5 C18.6349206,12.5 17.7777778,11.65625 17.7777778,10.625 Z M22.8571429,29.0625 C22.8571429,29.578125 22.4285714,30 21.9047619,30 L8.57142857,30 C8.04761905,30 7.61904762,29.578125 7.61904762,29.0625 L7.61904762,28.4375 C7.61904762,27.921875 8.04761905,27.5 8.57142857,27.5 L21.9047619,27.5 C22.4285714,27.5 22.8571429,27.921875 22.8571429,28.4375 L22.8571429,29.0625 Z M22.8571429,24.0625 C22.8571429,24.578125 22.4285714,25 21.9047619,25 L8.57142857,25 C8.04761905,25 7.61904762,24.578125 7.61904762,24.0625 L7.61904762,23.4375 C7.61904762,22.921875 8.04761905,22.5 8.57142857,22.5 L21.9047619,22.5 C22.4285714,22.5 22.8571429,22.921875 22.8571429,23.4375 L22.8571429,24.0625 Z M22.8571429,18.4375 L22.8571429,19.0625 C22.8571429,19.578125 22.4285714,20 21.9047619,20 L8.57142857,20 C8.04761905,20 7.61904762,19.578125 7.61904762,19.0625 L7.61904762,18.4375 C7.61904762,17.921875 8.04761905,17.5 8.57142857,17.5 L21.9047619,17.5 C22.4285714,17.5 22.8571429,17.921875 22.8571429,18.4375 Z M30.4761905,9.5234375 L30.4761905,10 L20.3174603,10 L20.3174603,0 L20.8015873,0 C21.3095238,0 21.7936508,0.1953125 22.1507937,0.546875 L29.9206349,8.203125 C30.2777778,8.5546875 30.4761905,9.03125 30.4761905,9.5234375 Z" />
    <filter
       id="filter-5"
       filterUnits="objectBoundingBox"
       height="110.0%"
       width="113.1%"
       y="-2.5%"
       x="-6.6%">
      <feOffset
         id="feOffset21"
         result="shadowOffsetOuter1"
         in="SourceAlpha"
         dy="1"
         dx="0" />
      <feGaussianBlur
         id="feGaussianBlur23"
         result="shadowBlurOuter1"
         in="shadowOffsetOuter1"
         stdDeviation="0.5" />
      <feColorMatrix
         id="feColorMatrix25"
         in="shadowBlurOuter1"
         type="matrix"
         values="0 0 0 0 0   0 0 0 0 0   0 0 0 0 0  0 0 0 0.1 0" />
    </filter>
    <filter
       id="filter1083"
       inkscape:label="Drop Shadow"
       style="color-interpolation-filters:sRGB;">
      <feFlood
         id="feFlood1073"
         result="flood"
         flood-color="rgb(255,255,255)"
         flood-opacity="1" />
      <feComposite
         id="feComposite1075"
         result="composite1"
         operator="in"
         in2="flood"
         in="SourceGraphic" />
      <feGaussianBlur
         id="feGaussianBlur1077"
         result="blur"
         stdDeviation="3"
         in="composite1" />
      <feOffset
         id="feOffset1079"
         result="offset"
         dy="0"
         dx="0" />
      <feComposite
         id="feComposite1081"
         result="composite2"
         operator="over"
         in2="offset"
         in="SourceGraphic" />
    </filter>
  </defs>
  <g
     fill-rule="evenodd"
     fill="none"
     stroke-width="1"
     stroke="none"
     id="Page-1">
    <g
       transform="translate(-340.000000, -430.000000)"
       id="Artboard">
      <g
         transform="translate(340.000000, 430.000000)"
         id="posts">
        <mask
           fill="white"
           id="mask-2">
          <use
             id="use30"
             xlink:href="#path-1" />
        </mask>
        <use
           xlink:href="#path-1"
           fill="#00B356"
           id="Path" />
        <g
           fill-rule="nonzero"
           mask="url(#mask-2)"
           id="file-alt" />
      </g>
    </g>
  </g>
  <path
     style="stroke-width:0.0763876;fill:#ffffff;fill-opacity:1;filter:url(#filter1083)"
     d="M 24.274588,24.125207 23.40606,23.276538 a 1.2558157,1.2558157 0 0 0 -1.833307,0.09931 12.896553,12.896553 0 0 0 0,16.585319 1.2558157,1.2558157 0 0 0 1.833307,0.09931 l 0.868528,-0.848672 a 1.1565114,1.1565114 0 0 0 0.09854,-1.568241 9.374312,9.374312 0 0 1 0,-11.950108 1.1572753,1.1572753 0 0 0 -0.09854,-1.568242 z M 18.198704,18.193694 17.33323,17.348081 a 1.2535238,1.2535238 0 0 0 -1.799697,0.07639 C 11.954764,21.356148 10,26.365662 10,31.668503 c 0,5.302841 1.954764,10.312352 5.533533,14.247853 a 1.2535238,1.2535238 0 0 0 1.799697,0.07639 l 0.865474,-0.845611 c 0.466728,-0.45833 0.462909,-1.175609 0.0275,-1.65838 a 17.590584,17.590584 0 0 1 0,-23.632095 c 0.435411,-0.486593 0.43923,-1.207693 -0.0275,-1.662965 z M 48.465842,17.42065 a 1.2535238,1.2535238 0 0 0 -1.799695,-0.0764 l -0.865475,0.849432 c -0.466729,0.458327 -0.46291,1.175608 -0.0275,1.659144 a 17.590584,17.590584 0 0 1 0,23.632094 c -0.43541,0.482772 -0.439229,1.203107 0.0275,1.65838 l 0.865475,0.845613 a 1.2535238,1.2535238 0 0 0 1.799695,-0.07639 c 3.578771,-3.93167 5.533533,-8.941181 5.533533,-14.244022 0,-5.302841 -1.954762,-10.312355 -5.533533,-14.247853 z m -16.466154,9.970136 a 4.277717,4.277717 0 1 0 4.277716,4.277717 4.277717,4.277717 0 0 0 -4.277716,-4.277717 z m 8.593627,-4.114248 -0.868529,0.848669 a 1.1572753,1.1572753 0 0 0 -0.09854,1.568241 9.374312,9.374312 0 0 1 0,11.950108 1.1572753,1.1572753 0 0 0 0.09854,1.568241 l 0.868529,0.848669 a 1.2558157,1.2558157 0 0 0 1.833308,-0.09931 12.896553,12.896553 0 0 0 0,-16.58532 1.2558157,1.2558157 0 0 0 -1.833308,-0.09931 z"
     id="path51" />
</svg>
