<?xml version="1.0" encoding="UTF-8"?>
<svg width="606px" height="606px" viewBox="0 0 606 606" version="1.1" xmlns="http://www.w3.org/2000/svg" xmlns:xlink="http://www.w3.org/1999/xlink">
    <title>elasticsearch</title>
    <style type="text/css">
	.st0{clip-path:url(#SVGID_2_);fill:#F0BF1A;}
	.st1{clip-path:url(#SVGID_4_);fill:#3EBEB0;}
	.st2{clip-path:url(#SVGID_6_);fill:#07A5DE;}
	.st3{clip-path:url(#SVGID_8_);fill:#231F20;}
	.st4{fill:#D7A229;}
	.st5{fill:#019B8F;}
	.st6{fill:none;}
    </style>
    <defs>
        <linearGradient x1="50%" y1="0%" x2="50%" y2="100%" id="linearGradient-1">
            <stop stop-color="#FFFFFF" stop-opacity="0.2" offset="0%"></stop>
            <stop stop-color="#000000" stop-opacity="0.2" offset="100%"></stop>
        </linearGradient>
    </defs>
    <g id="Page-1" stroke="none" stroke-width="1" fill="none" fill-rule="evenodd">
        <g id="shopify" transform="translate(3.000000, 3.000000)">
            <g id="Squircle2-Copy-6" fill-rule="nonzero">
                <g id="Shape">
                    <g id="path-2-link" fill="#FFFFFF">
                        <path d="M552.268958,552.268958 C600,504.537813 600,431.458333 600,300 C600,168.541667 600,95.4621875 552.268958,47.7310417 C504.537813,0 431.458333,0 300,0 C168.541667,0 95.4621875,0 47.7310417,47.7310417 C0,95.4621875 0,168.541667 0,300 C0,431.458333 0,504.537813 47.7310417,552.268958 C95.4621875,600 168.541667,600 300,600 C431.458333,600 504.537813,600 552.268958,552.268958 Z" id="path-2"></path>
                    </g>
                    <g id="path-2-link" stroke="#000000" stroke-width="4.04" fill="url(#linearGradient-1)">
                        <path d="M552.268958,552.268958 C600,504.537813 600,431.458333 600,300 C600,168.541667 600,95.4621875 552.268958,47.7310417 C504.537813,0 431.458333,0 300,0 C168.541667,0 95.4621875,0 47.7310417,47.7310417 C0,95.4621875 0,168.541667 0,300 C0,431.458333 0,504.537813 47.7310417,552.268958 C95.4621875,600 168.541667,600 300,600 C431.458333,600 504.537813,600 552.268958,552.268958 Z" id="path-2"></path>
                    </g>
                </g>
            </g>
            <g id="elasticsearch-logo-default" opacity="0.9" transform="translate(80.000000, 60.000000) scale(6,6)">
                <g>
			<g>
				<g>
					<defs>
						<circle id="SVGID_1_" cx="40" cy="40" r="32"/>
					</defs>
					<clipPath id="SVGID_2_">
						<use xlink:href="#SVGID_1_"  style="overflow:visible;"/>
					</clipPath>
					<path class="st0" d="M53.7,26H10c-1.1,0-2-0.9-2-2V10c0-1.1,0.9-2,2-2h57c1.1,0,2,0.9,2,2v0.7C68.9,19.1,62.1,26,53.7,26z"/>
				</g>
			</g>
			<g>
				<g>
					<defs>
						<circle id="SVGID_3_" cx="40" cy="40" r="32"/>
					</defs>
					<clipPath id="SVGID_4_">
						<use xlink:href="#SVGID_3_"  style="overflow:visible;"/>
					</clipPath>
					<path class="st1" d="M69.1,72H8.2l0,0V54l0,0h45.7c8.4,0,15.2,6.8,15.2,15.2V72L69.1,72z"/>
				</g>
			</g>
			<g>
				<g>
					<defs>
						<circle id="SVGID_5_" cx="40" cy="40" r="32"/>
					</defs>
					<clipPath id="SVGID_6_">
						<use xlink:href="#SVGID_5_"  style="overflow:visible;"/>
					</clipPath>
					<path class="st2" d="M50.1,49H4.8V31h45.3c5,0,9,4,9,9l0,0C59.1,45,55,49,50.1,49z"/>
				</g>
			</g>
			<g>
				<g>
					<defs>
						<circle id="SVGID_7_" cx="40" cy="40" r="32"/>
					</defs>
					<clipPath id="SVGID_8_">
						<use xlink:href="#SVGID_7_"  style="overflow:visible;"/>
					</clipPath>
					<path class="st3" d="M36,31H6.4v18H36c0.7-2.7,1.1-5.7,1.1-9S36.7,33.7,36,31z"/>
				</g>
			</g>
		</g>
		<path class="st4" d="M23.9,12.3c-5.4,3.2-9.9,8-12.7,13.7h23.6C32.4,20.5,28.6,15.9,23.9,12.3z"/>
		<path class="st5" d="M24.9,68.2c4.6-3.7,8.3-8.6,10.6-14.2H11.2C14.2,60,19,65,24.9,68.2z"/>
            </g>
        </g>
    </g>
</svg>