<svg width="80" height="80" viewBox="0 0 80 80" fill="none" xmlns="http://www.w3.org/2000/svg">
<rect width="80" height="80" fill="url(#paint0_linear_830_8248)"/>
<path d="M20.0005 59.0034C19.9765 57.8978 20.8881 57.0207 21.972 56.8018C26.5431 55.8787 29.9847 51.841 29.9847 47C29.9847 46.8717 29.9823 46.7439 29.9775 46.6167C29.9285 45.3167 30.8154 44.0414 32.1162 44.0216C33.5407 44 35.1528 44 36.9891 44H42.992C50.5127 44 54.2731 44 56.7835 45.4863C57.1851 45.724 57.5564 45.986 57.8934 46.2693C60 48.0406 60 50.6938 60 56C60 61.3062 60 63.9593 57.8934 65.7307C57.5564 66.014 57.1851 66.2759 56.7835 66.5136C54.2731 68 50.5127 68 42.992 68H36.9891C29.4684 68 25.708 68 23.1975 66.5136C22.796 66.2759 22.4246 66.014 22.0877 65.7307C20.4226 64.3306 20.0736 62.3797 20.0005 59.0034Z" fill="black" fill-opacity="0.2"/>
<path d="M26 47C26 50.3137 23.3137 53 20 53C16.6863 53 14 50.3137 14 47C14 43.6863 16.6863 41 20 41C23.3137 41 26 43.6863 26 47Z" fill="black" fill-opacity="0.2"/>
<path d="M26.0005 31.0034C25.9765 29.8978 26.8881 29.0207 27.972 28.8018C32.5431 27.8787 35.9847 23.8411 35.9847 19C35.9847 18.8717 35.9823 18.7439 35.9775 18.6167C35.9285 17.3167 36.8154 16.0414 38.1162 16.0216C39.5407 16 41.1528 16 42.9891 16H48.992C56.5127 16 60.2731 16 62.7835 17.4863C63.1851 17.724 63.5564 17.986 63.8934 18.2694C66 20.0407 66 22.6938 66 28C66 33.3062 66 35.9593 63.8934 37.7307C63.5564 38.014 63.1851 38.2759 62.7835 38.5136C60.2731 40 56.5127 40 48.992 40H42.9891C35.4684 40 31.708 40 29.1975 38.5136C28.796 38.2759 28.4246 38.014 28.0877 37.7307C26.4226 36.3306 26.0736 34.3797 26.0005 31.0034Z" fill="black" fill-opacity="0.2"/>
<path d="M32 19C32 22.3137 29.3137 25 26 25C22.6863 25 20 22.3137 20 19C20 15.6863 22.6863 13 26 13C29.3137 13 32 15.6863 32 19Z" fill="black" fill-opacity="0.2"/>
<path d="M20.0005 58.0034C19.9765 56.8978 20.8881 56.0207 21.972 55.8018C26.5431 54.8787 29.9847 50.8411 29.9847 46C29.9847 45.8717 29.9823 45.7439 29.9775 45.6167C29.9285 44.3167 30.8154 43.0414 32.1162 43.0216C33.5407 43 35.1528 43 36.9891 43H42.992C50.5127 43 54.2731 43 56.7835 44.4863C57.1851 44.724 57.5564 44.986 57.8934 45.2693C60 47.0407 60 49.6938 60 55C60 60.3062 60 62.9593 57.8934 64.7307C57.5564 65.014 57.1851 65.2759 56.7835 65.5136C54.2731 67 50.5127 67 42.992 67H36.9891C29.4684 67 25.708 67 23.1975 65.5136C22.796 65.2759 22.4246 65.014 22.0877 64.7307C20.4226 63.3306 20.0736 61.3797 20.0005 58.0034Z" fill="url(#paint1_linear_830_8248)"/>
<circle cx="20" cy="46" r="6" fill="url(#paint2_linear_830_8248)"/>
<path d="M26.0005 30.0034C25.9765 28.8978 26.8881 28.0207 27.972 27.8018C32.5431 26.8787 35.9847 22.8411 35.9847 18C35.9847 17.8717 35.9823 17.7439 35.9775 17.6167C35.9285 16.3167 36.8154 15.0414 38.1162 15.0216C39.5407 15 41.1528 15 42.9891 15H48.992C56.5127 15 60.2731 15 62.7835 16.4863C63.1851 16.724 63.5564 16.986 63.8934 17.2693C66 19.0407 66 21.6938 66 27C66 32.3062 66 34.9593 63.8934 36.7307C63.5564 37.014 63.1851 37.2759 62.7835 37.5136C60.2731 39 56.5127 39 48.992 39H42.9891C35.4684 39 31.708 39 29.1975 37.5136C28.796 37.2759 28.4246 37.014 28.0877 36.7307C26.4226 35.3306 26.0736 33.3797 26.0005 30.0034Z" fill="url(#paint3_linear_830_8248)"/>
<circle cx="26" cy="18" r="6" fill="url(#paint4_linear_830_8248)"/>
<defs>
<linearGradient id="paint0_linear_830_8248" x1="40" y1="0" x2="40" y2="80" gradientUnits="userSpaceOnUse">
<stop stop-color="#0D9488"/>
<stop offset="1" stop-color="#134E4A"/>
</linearGradient>
<linearGradient id="paint1_linear_830_8248" x1="40" y1="43" x2="40" y2="67" gradientUnits="userSpaceOnUse">
<stop stop-color="#F9FAFB"/>
<stop offset="1" stop-color="#9CA3AF"/>
</linearGradient>
<linearGradient id="paint2_linear_830_8248" x1="20" y1="40" x2="20" y2="52" gradientUnits="userSpaceOnUse">
<stop stop-color="#FDE68A"/>
<stop offset="1" stop-color="#D97706"/>
</linearGradient>
<linearGradient id="paint3_linear_830_8248" x1="46" y1="15" x2="46" y2="39" gradientUnits="userSpaceOnUse">
<stop stop-color="#F9FAFB"/>
<stop offset="1" stop-color="#9CA3AF"/>
</linearGradient>
<linearGradient id="paint4_linear_830_8248" x1="26" y1="12" x2="26" y2="24" gradientUnits="userSpaceOnUse">
<stop stop-color="#FDE68A"/>
<stop offset="1" stop-color="#D97706"/>
</linearGradient>
</defs>
</svg>
