<svg width="80" height="80" viewBox="0 0 80 80" fill="none" xmlns="http://www.w3.org/2000/svg">
<rect width="80" height="80" fill="url(#paint0_linear_946_3017)"/>
<path d="M22.3991 41.7217H33.5341C34.0885 41.7217 34.4982 41.7453 34.7633 41.7926C35.0526 41.8163 35.3779 41.9227 35.7395 42.1119C36.3902 42.4429 36.7156 43.3652 36.7156 44.8786C36.7156 46.5339 36.2697 47.5034 35.3779 47.7872C34.9682 47.9291 34.3416 48 33.498 48H19.1815C17.4943 48 16.5061 47.5507 16.2169 46.6521C16.0723 46.2738 16 45.6708 16 44.8431V25.1214C16 23.9154 16.229 23.0996 16.6869 22.6739C17.1448 22.2246 18.0125 22 19.2899 22H33.5341C34.0885 22 34.4982 22.0236 34.7633 22.0709C35.0526 22.0946 35.3779 22.201 35.7395 22.3902C36.3902 22.7212 36.7156 23.6435 36.7156 25.1569C36.7156 26.8122 36.2697 27.7817 35.3779 28.0655C34.9682 28.2074 34.3416 28.2783 33.498 28.2783H22.3991V31.8608H29.5573C30.1117 31.8608 30.5214 31.8845 30.7865 31.9318C31.0757 31.9554 31.4011 32.0618 31.7627 32.251C32.4134 32.5821 32.7388 33.5043 32.7388 35.0177C32.7388 36.673 32.2808 37.6426 31.365 37.9263C30.9552 38.0682 30.3286 38.1392 29.485 38.1392H22.3991V41.7217Z" fill="black" fill-opacity="0.2"/>
<path d="M57.9625 23.0996C58.2035 22.6739 58.553 22.3902 59.0109 22.2483C59.4688 22.1064 60.0352 22.0355 60.7101 22.0355C61.409 22.0355 61.9634 22.0946 62.3731 22.2128C62.807 22.3311 63.1203 22.4729 63.3131 22.6385C63.53 22.804 63.6867 23.0523 63.7831 23.3834C63.9277 23.7617 64 24.3647 64 25.1924V44.8786C64 45.4461 63.9759 45.8599 63.9277 46.1201C63.9036 46.3802 63.7951 46.6876 63.6023 47.0423C63.2649 47.6808 62.3249 48 60.7824 48C59.8424 48 59.1917 47.9291 58.8301 47.7872C58.4686 47.6453 58.1673 47.4206 57.9263 47.1132C52.5034 40.0191 48.9363 35.3843 47.2251 33.2087V44.8786C47.2251 45.4461 47.201 45.8599 47.1528 46.1201C47.1287 46.3802 47.0202 46.6876 46.8274 47.0423C46.49 47.6808 45.55 48 44.0075 48C42.5131 48 41.5973 47.6808 41.2598 47.0423C41.067 46.6876 40.9465 46.3684 40.8983 46.0846C40.8742 45.8008 40.8622 45.387 40.8622 44.8431V25.0505C40.8622 24.1519 40.9706 23.5016 41.1875 23.0996C41.4286 22.6739 41.778 22.3902 42.236 22.2483C42.6939 22.1064 43.2844 22.0355 44.0075 22.0355C44.7305 22.0355 45.2969 22.1064 45.7066 22.2483C46.1405 22.3665 46.4418 22.5084 46.6105 22.6739C46.7069 22.7449 46.984 23.0523 47.442 23.5962C52.5275 30.3829 55.9259 34.864 57.6371 37.0396V25.0505C57.6371 24.1519 57.7456 23.5016 57.9625 23.0996Z" fill="black" fill-opacity="0.2"/>
<path d="M16 60C16 57.7909 17.7909 56 20 56H60C62.2091 56 64 57.7909 64 60C64 62.2091 62.2091 64 60 64H20C17.7909 64 16 62.2091 16 60Z" fill="black" fill-opacity="0.2"/>
<path d="M22.3991 40.7217H33.5341C34.0885 40.7217 34.4982 40.7453 34.7633 40.7926C35.0526 40.8163 35.3779 40.9227 35.7395 41.1119C36.3902 41.4429 36.7156 42.3652 36.7156 43.8786C36.7156 45.5339 36.2697 46.5034 35.3779 46.7872C34.9682 46.9291 34.3416 47 33.498 47H19.1815C17.4943 47 16.5061 46.5507 16.2169 45.6521C16.0723 45.2738 16 44.6708 16 43.8431V24.1214C16 22.9154 16.229 22.0996 16.6869 21.6739C17.1448 21.2246 18.0125 21 19.2899 21H33.5341C34.0885 21 34.4982 21.0236 34.7633 21.0709C35.0526 21.0946 35.3779 21.201 35.7395 21.3902C36.3902 21.7212 36.7156 22.6435 36.7156 24.1569C36.7156 25.8122 36.2697 26.7817 35.3779 27.0655C34.9682 27.2074 34.3416 27.2783 33.498 27.2783H22.3991V30.8608H29.5573C30.1117 30.8608 30.5214 30.8845 30.7865 30.9318C31.0757 30.9554 31.4011 31.0618 31.7627 31.251C32.4134 31.5821 32.7388 32.5043 32.7388 34.0177C32.7388 35.673 32.2808 36.6426 31.365 36.9263C30.9552 37.0682 30.3286 37.1392 29.485 37.1392H22.3991V40.7217Z" fill="url(#paint1_linear_946_3017)"/>
<path d="M57.9625 22.0996C58.2035 21.6739 58.553 21.3902 59.0109 21.2483C59.4688 21.1064 60.0352 21.0355 60.7101 21.0355C61.409 21.0355 61.9634 21.0946 62.3731 21.2128C62.807 21.3311 63.1203 21.4729 63.3131 21.6385C63.53 21.804 63.6867 22.0523 63.7831 22.3834C63.9277 22.7617 64 23.3647 64 24.1924V43.8786C64 44.4461 63.9759 44.8599 63.9277 45.1201C63.9036 45.3802 63.7951 45.6876 63.6023 46.0423C63.2649 46.6808 62.3249 47 60.7824 47C59.8424 47 59.1917 46.9291 58.8301 46.7872C58.4686 46.6453 58.1673 46.4206 57.9263 46.1132C52.5034 39.0191 48.9363 34.3843 47.2251 32.2087V43.8786C47.2251 44.4461 47.201 44.8599 47.1528 45.1201C47.1287 45.3802 47.0202 45.6876 46.8274 46.0423C46.49 46.6808 45.55 47 44.0075 47C42.5131 47 41.5973 46.6808 41.2598 46.0423C41.067 45.6876 40.9465 45.3684 40.8983 45.0846C40.8742 44.8008 40.8622 44.387 40.8622 43.8431V24.0505C40.8622 23.1519 40.9706 22.5016 41.1875 22.0996C41.4286 21.6739 41.778 21.3902 42.236 21.2483C42.6939 21.1064 43.2844 21.0355 44.0075 21.0355C44.7305 21.0355 45.2969 21.1064 45.7066 21.2483C46.1405 21.3665 46.4418 21.5084 46.6105 21.6739C46.7069 21.7449 46.984 22.0523 47.442 22.5962C52.5275 29.3829 55.9259 33.864 57.6371 36.0396V24.0505C57.6371 23.1519 57.7456 22.5016 57.9625 22.0996Z" fill="url(#paint2_linear_946_3017)"/>
<rect x="16" y="55" width="48" height="8" rx="4" fill="url(#paint3_linear_946_3017)"/>
<defs>
<linearGradient id="paint0_linear_946_3017" x1="40" y1="0" x2="40" y2="80" gradientUnits="userSpaceOnUse">
<stop stop-color="#0891B2"/>
<stop offset="1" stop-color="#155E75"/>
</linearGradient>
<linearGradient id="paint1_linear_946_3017" x1="40" y1="21" x2="40" y2="47" gradientUnits="userSpaceOnUse">
<stop stop-color="#F9FAFB"/>
<stop offset="1" stop-color="#9CA3AF"/>
</linearGradient>
<linearGradient id="paint2_linear_946_3017" x1="40" y1="21" x2="40" y2="47" gradientUnits="userSpaceOnUse">
<stop stop-color="#F9FAFB"/>
<stop offset="1" stop-color="#9CA3AF"/>
</linearGradient>
<linearGradient id="paint3_linear_946_3017" x1="40" y1="55" x2="40" y2="63" gradientUnits="userSpaceOnUse">
<stop stop-color="#FDE68A"/>
<stop offset="1" stop-color="#D97706"/>
</linearGradient>
</defs>
</svg>
