<svg width="320" height="320" viewBox="0 0 320 320" fill="none" xmlns="http://www.w3.org/2000/svg">
<g clip-path="url(#clip0_1002_6985)">
<path d="M160 0C281.326 0 320 38.6737 320 160C320 281.326 281.326 320 160 320C38.6736 320 0 281.326 0 160C0 38.6737 38.6736 0 160 0Z" fill="url(#paint0_linear_1002_6985)"/>
<path d="M160 2C220.573 2 259.85 11.6833 284.083 35.9168C308.317 60.1504 318 99.4272 318 160C318 220.573 308.317 259.85 284.083 284.083C259.85 308.317 220.573 318 160 318C99.4272 318 60.1504 308.317 35.9168 284.083C11.6833 259.85 2 220.573 2 160C2 99.4272 11.6833 60.1504 35.9168 35.9168C60.1504 11.6833 99.4272 2 160 2Z" stroke="#0F172A" stroke-opacity="0.2" stroke-width="4"/>
<g clip-path="url(#clip1_1002_6985)">
<path fill-rule="evenodd" clip-rule="evenodd" d="M270 160C270 91.7539 243.412 70 160 70C76.5881 70 50 91.7539 50 160C50 228.246 76.5881 250 160 250C243.412 250 270 228.246 270 160ZM80.9082 178.252C81.2272 178.206 81.4551 178.184 81.5918 178.184C82.2298 178.184 82.8223 178.708 83.3691 179.756C84.9642 183.311 87.015 186.341 89.5215 188.848C92.028 191.309 95.013 193.314 98.4766 194.863C101.94 196.413 105.859 197.529 110.234 198.213C114.609 198.942 119.44 199.307 124.727 199.307C129.238 199.307 133.727 198.942 138.193 198.213C142.66 197.529 146.67 196.458 150.225 195C153.779 193.587 156.65 191.787 158.838 189.6C161.071 187.412 162.188 184.814 162.188 181.807C162.188 180.667 161.96 179.551 161.504 178.457C161.094 177.363 160.479 176.406 159.658 175.586C158.883 174.72 157.949 174.036 156.855 173.535C155.762 172.988 154.554 172.715 153.232 172.715C152.184 172.715 151.136 172.943 150.088 173.398C149.085 173.809 148.174 174.378 147.354 175.107C146.579 175.791 145.941 176.589 145.439 177.5C144.938 178.366 144.688 179.255 144.688 180.166C144.688 180.804 144.847 181.396 145.166 181.943C145.531 182.49 145.713 183.014 145.713 183.516C145.713 184.062 145.28 184.541 144.414 184.951C143.594 185.316 142.523 185.635 141.201 185.908C139.925 186.136 138.467 186.318 136.826 186.455C135.231 186.592 133.659 186.706 132.109 186.797C130.605 186.842 129.215 186.865 127.939 186.865H125C123.405 186.865 121.673 186.751 119.805 186.523C117.936 186.296 116.022 185.999 114.062 185.635C112.148 185.225 110.28 184.723 108.457 184.131C106.68 183.538 105.062 182.878 103.604 182.148C102.191 181.419 101.006 180.622 100.049 179.756C99.1374 178.89 98.6361 177.956 98.5449 176.953C98.5449 176.68 98.6589 176.452 98.8867 176.27C99.1602 176.087 99.9121 175.837 101.143 175.518C102.51 175.199 104.264 174.788 106.406 174.287C108.594 173.74 110.941 173.193 113.447 172.646C115.954 172.054 118.506 171.462 121.104 170.869C123.701 170.277 126.117 169.73 128.35 169.229C130.583 168.682 132.52 168.226 134.16 167.861C135.801 167.451 136.895 167.155 137.441 166.973C139.492 166.426 140.905 165.605 141.68 164.512C142.5 163.372 142.91 162.142 142.91 160.82C142.91 160.592 142.887 160.387 142.842 160.205C142.796 160.023 142.773 159.818 142.773 159.59C142.546 158.177 142.09 157.015 141.406 156.104C140.768 155.146 139.811 154.668 138.535 154.668C137.669 154.668 136.165 154.896 134.023 155.352C131.882 155.807 129.398 156.377 126.572 157.061C123.747 157.699 120.739 158.428 117.549 159.248C114.404 160.023 111.374 160.752 108.457 161.436C105.586 162.074 102.988 162.62 100.664 163.076C98.3854 163.532 96.6992 163.76 95.6055 163.76C95.1497 163.76 94.7852 163.555 94.5117 163.145C94.2383 162.689 94.0104 162.119 93.8281 161.436C93.6914 160.752 93.6003 160 93.5547 159.18C93.5091 158.359 93.4863 157.562 93.4863 156.787V153.984C93.4863 153.346 93.6458 152.845 93.9648 152.48C94.2839 152.07 94.7624 151.82 95.4004 151.729C100.049 151.09 104.72 150.452 109.414 149.814C114.108 149.176 118.779 148.47 123.428 147.695C128.076 146.875 132.679 145.986 137.236 145.029C141.839 144.027 146.396 142.865 150.908 141.543C152.731 140.951 154.03 140.153 154.805 139.15C155.625 138.102 156.035 136.986 156.035 135.801C156.035 135.117 155.99 134.388 155.898 133.613C155.853 132.793 155.693 132.064 155.42 131.426C155.146 130.788 154.714 130.264 154.121 129.854C153.574 129.398 152.822 129.17 151.865 129.17C151.182 129.17 150.384 129.284 149.473 129.512C146.51 130.241 143.206 130.993 139.561 131.768C135.915 132.542 132.178 133.317 128.35 134.092C124.521 134.821 120.739 135.505 117.002 136.143C113.311 136.781 109.915 137.35 106.816 137.852C103.763 138.353 101.143 138.74 98.9551 139.014C96.7676 139.287 95.3092 139.424 94.5801 139.424C94.1699 139.424 93.7598 139.333 93.3496 139.15C92.985 138.968 92.5521 138.763 92.0508 138.535C91.5951 138.262 91.0482 138.034 90.4102 137.852C89.7721 137.669 88.9746 137.578 88.0176 137.578C85.6934 137.578 83.8021 137.92 82.3438 138.604C80.931 139.242 79.8145 140.062 78.9941 141.064C78.2194 142.021 77.6953 143.07 77.4219 144.209C77.194 145.303 77.0801 146.283 77.0801 147.148C77.0801 148.105 77.194 148.903 77.4219 149.541C77.6497 150.179 77.9004 150.771 78.1738 151.318C78.4928 151.82 78.7663 152.275 78.9941 152.686C79.2676 153.096 79.4271 153.529 79.4727 153.984C79.6094 156.217 79.7005 158.177 79.7461 159.863C79.8372 161.504 79.8828 163.053 79.8828 164.512C79.8828 165.059 79.7233 165.492 79.4043 165.811C79.1309 166.084 78.7435 166.335 78.2422 166.562C76.6016 167.292 75.3939 168.203 74.6191 169.297C73.8444 170.391 73.457 171.53 73.457 172.715C73.457 174.492 73.9355 175.928 74.8926 177.021C75.8496 178.07 76.9661 178.594 78.2422 178.594C78.4245 178.594 78.6751 178.571 78.9941 178.525L79.9512 178.389C80.3158 178.343 80.6348 178.298 80.9082 178.252ZM179.414 166.768C179.232 164.717 179.141 162.734 179.141 160.82C179.141 159.909 179.3 159.202 179.619 158.701C179.984 158.154 180.485 157.881 181.123 157.881C181.852 157.881 182.65 158.314 183.516 159.18C185.612 161.185 187.868 163.35 190.283 165.674C192.744 167.998 195.273 170.322 197.871 172.646C200.469 174.971 203.112 177.204 205.801 179.346C208.535 181.488 211.224 183.402 213.867 185.088C216.556 186.729 219.199 188.05 221.797 189.053C224.395 190.01 226.878 190.488 229.248 190.488C232.21 190.488 234.58 190.01 236.357 189.053C238.135 188.05 239.479 186.592 240.391 184.678C241.348 182.764 241.963 180.417 242.236 177.637C242.555 174.811 242.715 171.553 242.715 167.861C242.715 165.902 242.624 163.464 242.441 160.547C242.305 157.585 242.031 154.486 241.621 151.25C241.257 148.014 240.778 144.801 240.186 141.611C239.593 138.376 238.841 135.482 237.93 132.93C237.064 130.332 236.038 128.236 234.854 126.641C233.669 125 232.324 124.18 230.82 124.18C230.137 124.18 229.271 124.339 228.223 124.658C227.174 124.932 226.172 125.342 225.215 125.889C224.258 126.436 223.438 127.119 222.754 127.939C222.07 128.76 221.729 129.694 221.729 130.742C221.729 131.38 221.82 131.973 222.002 132.52C222.23 133.021 222.458 133.545 222.686 134.092C223.734 136.644 224.668 139.469 225.488 142.568C226.309 145.622 226.992 148.675 227.539 151.729C228.086 154.782 228.496 157.653 228.77 160.342C229.089 163.031 229.248 165.286 229.248 167.109C229.248 169.57 229.043 171.37 228.633 172.51C228.268 173.604 227.448 174.15 226.172 174.15C224.805 174.15 223.369 173.763 221.865 172.988C220.407 172.168 218.926 171.188 217.422 170.049C215.964 168.91 214.528 167.702 213.115 166.426C211.748 165.15 210.518 164.033 209.424 163.076C206.963 160.98 204.525 158.77 202.109 156.445L195.137 149.473C192.858 147.194 190.648 145.029 188.506 142.979C186.364 140.882 184.336 139.036 182.422 137.441C180.553 135.846 178.799 134.593 177.158 133.682C175.518 132.725 174.036 132.246 172.715 132.246C170.983 132.246 169.593 132.52 168.545 133.066C167.542 133.613 166.745 134.342 166.152 135.254C165.56 136.165 165.173 137.236 164.99 138.467C164.808 139.697 164.717 140.996 164.717 142.363C164.717 143.913 164.74 145.827 164.785 148.105C164.831 150.339 164.899 152.799 164.99 155.488C165.081 158.132 165.195 160.911 165.332 163.828L165.742 172.441C165.924 175.267 166.107 178.024 166.289 180.713C166.517 183.356 166.745 185.749 166.973 187.891C167.109 189.577 167.725 190.807 168.818 191.582C169.958 192.357 171.165 192.744 172.441 192.744C175.039 192.744 177.113 192.061 178.662 190.693C180.212 189.281 180.986 187.458 180.986 185.225C180.986 183.219 180.895 181.191 180.713 179.141C180.531 177.044 180.303 174.971 180.029 172.92C179.801 170.869 179.596 168.818 179.414 166.768Z" fill="url(#paint1_linear_1002_6985)"/>
</g>
</g>
<defs>
<linearGradient id="paint0_linear_1002_6985" x1="160" y1="0" x2="160" y2="320" gradientUnits="userSpaceOnUse">
<stop stop-color="#F8FAFC"/>
<stop offset="1" stop-color="#E2E8F0"/>
</linearGradient>
<linearGradient id="paint1_linear_1002_6985" x1="160" y1="70" x2="160" y2="250" gradientUnits="userSpaceOnUse">
<stop stop-color="#7DD3FC"/>
<stop offset="1" stop-color="#0EA5E9"/>
</linearGradient>
<clipPath id="clip0_1002_6985">
<rect width="320" height="320" fill="white"/>
</clipPath>
<clipPath id="clip1_1002_6985">
<rect width="240" height="240" fill="white" transform="translate(40 40)"/>
</clipPath>
</defs>
</svg>
