<?xml version="1.0" encoding="UTF-8"?>
<svg width="64px" height="64px" viewBox="0 0 64 64" version="1.1" xmlns="http://www.w3.org/2000/svg" xmlns:xlink="http://www.w3.org/1999/xlink">
    <!-- Generator: Sketch 54.1 (76490) - https://sketchapp.com -->
    <title>Polls</title>
    <desc>Created with Sketch.</desc>
    <defs>
        <path d="M32,64 C46.0222222,64 53.8173667,64 58.9086889,58.9086889 C64,53.8173667 64,46.0222222 64,32 C64,17.9777778 64,10.1826333 58.9086889,5.09131111 C53.8173667,0 46.0222222,0 32,0 C17.9777778,0 10.1826333,0 5.09131111,5.09131111 C0,10.1826333 0,17.9777778 0,32 C0,46.0222222 0,53.8173667 5.09131111,58.9086889 C10.1826333,64 17.9777778,64 32,64 Z" id="path-1"></path>
        <linearGradient x1="50%" y1="0%" x2="50%" y2="100%" id="linearGradient-3">
            <stop stop-color="#FDFEFF" offset="0%"></stop>
            <stop stop-color="#FBFCFD" stop-opacity="0.9" offset="100%"></stop>
        </linearGradient>
        <path d="M40,35.7142857 L40,4.28571429 C40,1.91964286 38.0803571,0 35.7142857,0 L4.28571429,0 C1.91964286,0 0,1.91964286 0,4.28571429 L0,35.7142857 C0,38.0803571 1.91964286,40 4.28571429,40 L35.7142857,40 C38.0803571,40 40,38.0803571 40,35.7142857 Z M10,14.2857143 C9.21071429,14.2857143 8.57142857,13.6464286 8.57142857,12.8571429 L8.57142857,10 C8.57142857,9.21071429 9.21071429,8.57142857 10,8.57142857 L21.4285714,8.57142857 C22.2178571,8.57142857 22.8571429,9.21071429 22.8571429,10 L22.8571429,12.8571429 C22.8571429,13.6464286 22.2178571,14.2857143 21.4285714,14.2857143 L10,14.2857143 Z M10,22.8571429 C9.21071429,22.8571429 8.57142857,22.2178571 8.57142857,21.4285714 L8.57142857,18.5714286 C8.57142857,17.7821429 9.21071429,17.1428571 10,17.1428571 L30,17.1428571 C30.7892857,17.1428571 31.4285714,17.7821429 31.4285714,18.5714286 L31.4285714,21.4285714 C31.4285714,22.2178571 30.7892857,22.8571429 30,22.8571429 L10,22.8571429 Z M10,31.4285714 C9.21071429,31.4285714 8.57142857,30.7892857 8.57142857,30 L8.57142857,27.1428571 C8.57142857,26.3535714 9.21071429,25.7142857 10,25.7142857 L15.7142857,25.7142857 C16.5035714,25.7142857 17.1428571,26.3535714 17.1428571,27.1428571 L17.1428571,30 C17.1428571,30.7892857 16.5035714,31.4285714 15.7142857,31.4285714 L10,31.4285714 Z" id="path-4"></path>
        <filter x="-5.0%" y="-2.5%" width="110.0%" height="110.0%" filterUnits="objectBoundingBox" id="filter-5">
            <feOffset dx="0" dy="1" in="SourceAlpha" result="shadowOffsetOuter1"></feOffset>
            <feGaussianBlur stdDeviation="0.5" in="shadowOffsetOuter1" result="shadowBlurOuter1"></feGaussianBlur>
            <feColorMatrix values="0 0 0 0 0   0 0 0 0 0   0 0 0 0 0  0 0 0 0.1 0" type="matrix" in="shadowBlurOuter1"></feColorMatrix>
        </filter>
    </defs>
    <g id="Page-1" stroke="none" stroke-width="1" fill="none" fill-rule="evenodd">
        <g id="Artboard" transform="translate(-502.000000, -430.000000)">
            <g id="Polls" transform="translate(502.000000, 430.000000)">
                <mask id="mask-2" fill="white">
                    <use xlink:href="#path-1"></use>
                </mask>
                <use id="Path" fill="#00B356" xlink:href="#path-1"></use>
                <g id="poll-h" mask="url(#mask-2)" fill-rule="nonzero">
                    <g transform="translate(12.000000, 12.000000)" id="Shape">
                        <g>
                            <use fill="black" fill-opacity="1" filter="url(#filter-5)" xlink:href="#path-4"></use>
                            <use fill="url(#linearGradient-3)" xlink:href="#path-4"></use>
                        </g>
                    </g>
                </g>
            </g>
        </g>
    </g>
</svg>