<svg width="320" height="320" viewBox="0 0 320 320" fill="none" xmlns="http://www.w3.org/2000/svg">
<g clip-path="url(#clip0_842_5825)">
<path d="M160 0C281.326 0 320 38.6737 320 160C320 281.326 281.326 320 160 320C38.6736 320 0 281.326 0 160C0 38.6737 38.6736 0 160 0Z" fill="url(#paint0_linear_842_5825)"/>
<path d="M160 2C220.573 2 259.85 11.6833 284.083 35.9168C308.317 60.1504 318 99.4272 318 160C318 220.573 308.317 259.85 284.083 284.083C259.85 308.317 220.573 318 160 318C99.4272 318 60.1504 308.317 35.9168 284.083C11.6833 259.85 2 220.573 2 160C2 99.4272 11.6833 60.1504 35.9168 35.9168C60.1504 11.6833 99.4272 2 160 2Z" stroke="#F8FAFC" stroke-opacity="0.2" stroke-width="4"/>
<g clip-path="url(#clip1_842_5825)">
<path fill-rule="evenodd" clip-rule="evenodd" d="M149.725 207.024C144.53 208.309 140.636 213.013 141.535 218.289C146.82 249.315 163.402 260 199.558 260C245.055 260 259.558 243.08 259.558 190C259.558 136.92 245.055 120 199.558 120V120C194.152 120 190 124.594 190 130V130C190 177.456 179.646 199.622 149.725 207.024Z" fill="url(#paint1_linear_842_5825)"/>
<path d="M120 60C165.497 60 180 76.9197 180 130C180 183.08 165.497 200 120 200C74.5026 200 60 183.08 60 130C60 76.9197 74.5026 60 120 60Z" fill="url(#paint2_linear_842_5825)"/>
</g>
</g>
<defs>
<linearGradient id="paint0_linear_842_5825" x1="160" y1="0" x2="160" y2="320" gradientUnits="userSpaceOnUse">
<stop stop-color="#475569"/>
<stop offset="1" stop-color="#1E293B"/>
</linearGradient>
<linearGradient id="paint1_linear_842_5825" x1="200.482" y1="120" x2="200.482" y2="260" gradientUnits="userSpaceOnUse">
<stop stop-color="#2DD4BF"/>
<stop offset="1" stop-color="#0D9488"/>
</linearGradient>
<linearGradient id="paint2_linear_842_5825" x1="120" y1="60" x2="120" y2="200" gradientUnits="userSpaceOnUse">
<stop stop-color="#60A5FA"/>
<stop offset="1" stop-color="#2563EB"/>
</linearGradient>
<clipPath id="clip0_842_5825">
<rect width="320" height="320" fill="white"/>
</clipPath>
<clipPath id="clip1_842_5825">
<rect width="240" height="240" fill="white" transform="translate(40 40)"/>
</clipPath>
</defs>
</svg>
