<?xml version="1.0" encoding="UTF-8"?>
<svg width="64px" height="64px" viewBox="0 0 64 64" version="1.1" xmlns="http://www.w3.org/2000/svg" xmlns:xlink="http://www.w3.org/1999/xlink">
    <!-- Generator: Sketch 55 (78076) - https://sketchapp.com -->
    <title>files</title>
    <desc>Created with Sketch.</desc>
    <defs>
        <path d="M32,64 C46.0222222,64 53.8173667,64 58.9086889,58.9086889 C64,53.8173667 64,46.0222222 64,32 C64,17.9777778 64,10.1826333 58.9086889,5.09131111 C53.8173667,0 46.0222222,0 32,0 C17.9777778,0 10.1826333,0 5.09131111,5.09131111 C0,10.1826333 0,17.9777778 0,32 C0,46.0222222 0,53.8173667 5.09131111,58.9086889 C10.1826333,64 17.9777778,64 32,64 Z" id="path-1"></path>
        <linearGradient x1="50%" y1="0%" x2="50%" y2="100%" id="linearGradient-3">
            <stop stop-color="#FDFEFF" offset="0%"></stop>
            <stop stop-color="#FBFCFD" stop-opacity="0.9" offset="100%"></stop>
        </linearGradient>
        <path d="M17.5,10.359375 L17.5,0 L12.53125,0 L12.53125,2.4375 L10.03125,2.4375 L10.03125,0 L1.875,0 C0.8359375,0 0,0.815039063 0,1.828125 L0,37.171875 C0,38.1849609 0.8359375,39 1.875,39 L28.125,39 C29.1640625,39 30,38.1849609 30,37.171875 L30,12.1875 L19.375,12.1875 C18.34375,12.1875 17.5,11.3648438 17.5,10.359375 Z M7.4921875,2.4375 L9.9921875,2.4375 L9.9921875,4.875 L7.4921875,4.875 L7.4921875,2.4375 Z M10.015625,31.6875 C7.421875,31.6875 5.484375,29.371875 6,26.8962891 L7.53125,19.5 L7.53125,17.0625 L10.03125,17.0625 L10.03125,14.625 L7.53125,14.625 L7.53125,12.1875 L10.03125,12.1875 L10.03125,9.75 L7.53125,9.75 L7.53125,7.3125 L10.03125,7.3125 L10.03125,4.875 L12.53125,4.875 L12.53125,7.3125 L10.03125,7.3125 L10.03125,9.75 L12.53125,9.75 L12.53125,12.1875 L10.03125,12.1875 L10.03125,14.625 L12.53125,14.625 L12.53125,17.0625 L10.03125,17.0625 L10.03125,19.5 L11.7578125,19.5 C12.203125,19.5 12.59375,19.8123047 12.6796875,20.2388672 L14.03125,26.9191406 C14.53125,29.3871094 12.59375,31.6875 10.015625,31.6875 L10.015625,31.6875 Z M12.5703125,27.6503906 C12.5703125,28.7853516 11.4375,29.7070313 10.0390625,29.7070313 C8.640625,29.7070313 7.5,28.7929688 7.5,27.6503906 C7.5,26.5154297 8.6328125,25.59375 10.03125,25.59375 C11.4296875,25.59375 12.5703125,26.5154297 12.5703125,27.6503906 L12.5703125,27.6503906 Z M30,9.28535156 L30,9.75 L20,9.75 L20,0 L20.4765625,0 C20.9765625,0 21.453125,0.190429688 21.8046875,0.533203125 L29.453125,7.99804688 C29.8046875,8.34082031 30,8.80546875 30,9.28535156 Z" id="path-4"></path>
        <filter x="-6.7%" y="-2.6%" width="113.3%" height="110.3%" filterUnits="objectBoundingBox" id="filter-5">
            <feOffset dx="0" dy="1" in="SourceAlpha" result="shadowOffsetOuter1"></feOffset>
            <feGaussianBlur stdDeviation="0.5" in="shadowOffsetOuter1" result="shadowBlurOuter1"></feGaussianBlur>
            <feColorMatrix values="0 0 0 0 0   0 0 0 0 0   0 0 0 0 0  0 0 0 0.1 0" type="matrix" in="shadowBlurOuter1"></feColorMatrix>
        </filter>
    </defs>
    <g id="Page-1" stroke="none" stroke-width="1" fill="none" fill-rule="evenodd">
        <g id="Artboard" transform="translate(-1636.000000, -511.000000)">
            <g id="files" transform="translate(1636.000000, 511.000000)">
                <mask id="mask-2" fill="white">
                    <use xlink:href="#path-1"></use>
                </mask>
                <use id="Path" fill="#00B356" xlink:href="#path-1"></use>
                <g id="file-archive" mask="url(#mask-2)" fill-rule="nonzero">
                    <g transform="translate(18.000000, 12.000000)" id="Shape">
                        <g>
                            <use fill="black" fill-opacity="1" filter="url(#filter-5)" xlink:href="#path-4"></use>
                            <use fill="url(#linearGradient-3)" xlink:href="#path-4"></use>
                        </g>
                    </g>
                </g>
            </g>
        </g>
    </g>
</svg>