<svg width="48" height="48" viewBox="0 0 48 48" fill="none" xmlns="http://www.w3.org/2000/svg">
<rect width="48" height="48" fill="url(#paint0_linear_337_1848)"/>
<path d="M17.2546 11.5C17.2263 10.9428 17.3278 10.5123 17.6037 10.15C18.289 9.25 19.685 9.25 22.477 9.25H25.5229C28.3149 9.25 29.7109 9.25 30.3963 10.15C30.6721 10.5123 30.7737 10.9428 30.7455 11.5" stroke="white" stroke-width="2.25" stroke-linecap="round" stroke-linejoin="round"/>
<path d="M13.5 17.5C13.5568 17.1106 13.6872 16.7739 13.9045 16.4715C14.7824 15.25 16.6021 15.25 20.2417 15.25H27.7584C31.3979 15.25 33.2177 15.25 34.0955 16.4715C34.3128 16.7739 34.4433 17.1106 34.5 17.5" stroke="white" stroke-width="2.25" stroke-linecap="round" stroke-linejoin="round"/>
<path d="M11.7263 29.0692L12.8046 32.524C14.1479 36.8278 15.2959 37.75 19.8154 37.75H28.1845C32.704 37.75 33.8522 36.8278 35.1954 32.524L36.2738 29.0692C37.3892 25.4955 37.9469 23.7085 37.0652 22.4792C36.1835 21.25 34.344 21.25 30.6651 21.25H17.3349C13.656 21.25 11.8166 21.25 10.9348 22.4792C10.0531 23.7085 10.6108 25.4955 11.7263 29.0692Z" stroke="white" stroke-width="2.25" stroke-linecap="round" stroke-linejoin="round"/>
<defs>
<linearGradient id="paint0_linear_337_1848" x1="24" y1="0" x2="24" y2="48" gradientUnits="userSpaceOnUse">
<stop stop-color="#0D9488"/>
<stop offset="1" stop-color="#0F766E"/>
</linearGradient>
</defs>
</svg>
