<?xml version="1.0"?>
<svg width="600" height="600" xmlns="http://www.w3.org/2000/svg" xmlns:svg="http://www.w3.org/2000/svg" xmlns:xlink="http://www.w3.org/1999/xlink">
 <style type="text/css">.st0{fill:#F6A623;}
	.st1{fill:url(#path-copy_1_);}
	.st2{fill:#FFFFFF;}</style>
 <defs>
  <symbol id="svg_8" viewBox="0 0 2048 1792" height="1792" width="2048" xmlns="http://www.w3.org/2000/svg">
   <path fill="#fff" d="m2020,11q28,20 28,53l0,1408q0,20 -11,36t-29,23l-640,256q-24,11 -48,0l-616,-246l-616,246q-10,5 -24,5q-19,0 -36,-11q-28,-20 -28,-53l0,-1408q0,-20 11,-36t29,-23l640,-256q24,-11 48,0l616,246l616,-246q32,-13 60,6zm-1284,135l0,1270l576,230l0,-1270l-576,-230zm-608,217l0,1270l544,-217l0,-1270l-544,217zm1792,1066l0,-1270l-544,217l0,1270l544,-217z"/>
  </symbol>
  <symbol id="svg_11" viewBox="0 0 1792 1792" height="1792" width="1792" xmlns="http://www.w3.org/2000/svg">
   <path fill="#fff" d="m1152,640q0,-106 -75,-181t-181,-75t-181,75t-75,181t75,181t181,75t181,-75t75,-181zm256,0q0,109 -33,179l-364,774q-16,33 -47.5,52t-67.5,19t-67.5,-19t-46.5,-52l-365,-774q-33,-70 -33,-179q0,-212 150,-362t362,-150t362,150t150,362z"/>
  </symbol>
  <symbol id="svg_14" viewBox="0 0 1792 1792" height="1792" width="1792" xmlns="http://www.w3.org/2000/svg">
   <path fill="#fff" d="m1536,1399q0,109 -62.5,187t-150.5,78l-854,0q-88,0 -150.5,-78t-62.5,-187q0,-85 8.5,-160.5t31.5,-152t58.5,-131t94,-89t134.5,-34.5q131,128 313,128t313,-128q76,0 134.5,34.5t94,89t58.5,131t31.5,152t8.5,160.5zm-256,-887q0,159 -112.5,271.5t-271.5,112.5t-271.5,-112.5t-112.5,-271.5t112.5,-271.5t271.5,-112.5t271.5,112.5t112.5,271.5z"/>
  </symbol>
 </defs>
 <title>Group 2 Copy 16</title>
 <desc>Created with Sketch.</desc>
 <g class="layer">
  <title>Layer 1</title>
  <g id="Page-1">
   <g id="Group-2-Copy-16">
    <path d="m552.3,552.3c47.7,-47.8 47.7,-120.8 47.7,-252.3s0,-204.5 -47.7,-252.3c-47.8,-47.7 -120.8,-47.7 -252.3,-47.7s-204.5,0 -252.3,47.7c-47.7,47.8 -47.7,120.8 -47.7,252.3s0,204.5 47.7,252.3c47.8,47.7 120.8,47.7 252.3,47.7s204.5,0 252.3,-47.7l0,0z" class="st0" id="path"/>
    <linearGradient gradientTransform="matrix(600 0 0 -600 -141364 218636)" y2="363.3933" x2="236.1067" y1="364.3933" x1="236.1067" gradientUnits="userSpaceOnUse" id="path-copy_1_">
     <stop stop-color="#FFFFFF" stop-opacity="0.2" offset="0"/>
     <stop stop-color="#000000" stop-opacity="0.1389" offset="1"/>
    </linearGradient>
    <path d="m552.3,552.3c47.7,-47.8 47.7,-120.8 47.7,-252.3s0,-204.5 -47.7,-252.3c-47.8,-47.7 -120.8,-47.7 -252.3,-47.7s-204.5,0 -252.3,47.7c-47.7,47.8 -47.7,120.8 -47.7,252.3s0,204.5 47.7,252.3c47.8,47.7 120.8,47.7 252.3,47.7s204.5,0 252.3,-47.7l0,0z" class="st1" id="path-copy"/>
   </g>
  </g>
  <g id="svg_6"/>
  <use x="1174.367119" y="1421.589234" transform="matrix(0.8345929721059189,0,0,0.6335252336591156,-930.6995213294922,-748.873309548935) " xlink:href="#svg_8" id="svg_9"/>
  <g id="svg_10"/>
  <g id="svg_13"/>
  <g id="svg_16"/>
  <g id="svg_17">
   <use x="1241.38131" y="2006.81034" transform="matrix(0.34166606083370965,0,0,0.3088992059574203,-374.6555332947755,-545.5897757166531) " xlink:href="#svg_11" id="svg_12"/>
   <use x="1517.598684" y="577.956788" transform="matrix(0.22583108712153077,0,0,0.25440903936166315,-258.48814154160937,-114.87800003799566) " xlink:href="#svg_14" id="svg_15"/>
  </g>
  <g id="svg_18">
   <use id="svg_19" x="1662.897813" y="2349.193798" transform="matrix(0.34166606083370965,0,0,0.3088992059574203,-374.6555332947755,-545.5897757166531) " xlink:href="#svg_11"/>
   <use id="svg_20" x="2155.322591" y="993.673063" transform="matrix(0.22583108712153077,0,0,0.25440903936166315,-258.48814154160937,-114.87800003799566) " xlink:href="#svg_14"/>
  </g>
  <g id="svg_21">
   <use id="svg_22" x="2119.483989" y="2640.550973" transform="matrix(0.34166606083370965,0,0,0.3088992059574203,-374.6555332947755,-545.5897757166531) " xlink:href="#svg_11"/>
   <use id="svg_23" x="2846.10437" y="1347.434078" transform="matrix(0.22583108712153077,0,0,0.25440903936166315,-258.48814154160937,-114.87800003799566) " xlink:href="#svg_14"/>
  </g>
 </g>
</svg>