<svg width="72" height="72" viewBox="0 0 72 72" fill="none" xmlns="http://www.w3.org/2000/svg">
<rect width="72" height="72" fill="url(#paint0_linear_149_61)"/>
<path d="M32 38H24M32 42V34C32 32.9391 31.5786 31.9217 30.8284 31.1716C30.0783 30.4214 29.0609 30 28 30C26.9391 30 25.9217 30.4214 25.1716 31.1716C24.4214 31.9217 24 32.9391 24 34V42M40 41C40 41.2652 40.1054 41.5196 40.2929 41.7071C40.4804 41.8946 40.7348 42 41 42H43C44.3261 42 45.5979 41.4732 46.5355 40.5355C47.4732 39.5979 48 38.3261 48 37V35C48 33.6739 47.4732 32.4021 46.5355 31.4645C45.5979 30.5268 44.3261 30 43 30H41C40.7348 30 40.4804 30.1054 40.2929 30.2929C40.1054 30.4804 40 30.7348 40 31V41ZM52 22H20C17.7909 22 16 23.7909 16 26V46C16 48.2091 17.7909 50 20 50H52C54.2091 50 56 48.2091 56 46V26C56 23.7909 54.2091 22 52 22Z" stroke="url(#paint1_linear_149_61)" stroke-width="4" stroke-linecap="round" stroke-linejoin="round"/>
<path d="M32 39H24M32 43V35C32 33.9391 31.5786 32.9217 30.8284 32.1716C30.0783 31.4214 29.0609 31 28 31C26.9391 31 25.9217 31.4214 25.1716 32.1716C24.4214 32.9217 24 33.9391 24 35V43M40 42C40 42.2652 40.1054 42.5196 40.2929 42.7071C40.4804 42.8946 40.7348 43 41 43H43C44.3261 43 45.5979 42.4732 46.5355 41.5355C47.4732 40.5979 48 39.3261 48 38V36C48 34.6739 47.4732 33.4021 46.5355 32.4645C45.5979 31.5268 44.3261 31 43 31H41C40.7348 31 40.4804 31.1054 40.2929 31.2929C40.1054 31.4804 40 31.7348 40 32V42ZM52 23H20C17.7909 23 16 24.7909 16 27V47C16 49.2091 17.7909 51 20 51H52C54.2091 51 56 49.2091 56 47V27C56 24.7909 54.2091 23 52 23Z" stroke="black" stroke-opacity="0.2" stroke-width="4" stroke-linecap="round" stroke-linejoin="round"/>
<defs>
<linearGradient id="paint0_linear_149_61" x1="36" y1="0" x2="36" y2="72" gradientUnits="userSpaceOnUse">
<stop stop-color="#059669"/>
<stop offset="1" stop-color="#065F46"/>
</linearGradient>
<linearGradient id="paint1_linear_149_61" x1="36" y1="22" x2="36" y2="50" gradientUnits="userSpaceOnUse">
<stop stop-color="white"/>
<stop offset="1" stop-color="white" stop-opacity="0.6"/>
</linearGradient>
</defs>
</svg>
