<svg width="72" height="72" viewBox="0 0 72 72" fill="none" xmlns="http://www.w3.org/2000/svg">
<rect width="72" height="72" fill="url(#paint0_linear_polls)"/>
<g transform="translate(12 12) scale(2)" fill="none" stroke="url(#paint1_linear_polls)" stroke-width="2" stroke-linecap="round" stroke-linejoin="round">
<path d="m9 12 2 2 4-4"/>
<path d="M5 7c0-1.1.9-2 2-2h10a2 2 0 0 1 2 2v12H5V7Z"/>
<path d="M22 19H2"/>
</g>
<g transform="translate(12 13) scale(2)" fill="none" stroke="black" stroke-opacity="0.1" stroke-width="2" stroke-linecap="round" stroke-linejoin="round">
<path d="m9 12 2 2 4-4"/>
<path d="M5 7c0-1.1.9-2 2-2h10a2 2 0 0 1 2 2v12H5V7Z"/>
<path d="M22 19H2"/>
</g>
<defs>
<linearGradient id="paint0_linear_polls" x1="36" y1="0" x2="36" y2="72" gradientUnits="userSpaceOnUse">
<stop stop-color="#059669"/>
<stop offset="1" stop-color="#065F46"/>
</linearGradient>
<linearGradient id="paint1_linear_polls" x1="12" y1="2" x2="12" y2="22" gradientUnits="userSpaceOnUse">
<stop stop-color="white"/>
<stop offset="1" stop-color="white" stop-opacity="0.6"/>
</linearGradient>
</defs>
</svg>
