<svg width="72" height="72" viewBox="0 0 72 72" fill="none" xmlns="http://www.w3.org/2000/svg">
<rect width="72" height="72" fill="url(#paint0_linear_125_49)"/>
<path d="M44 38C54.44 31 56 21.44 56 16C51.6053 15.9727 47.2768 17.0703 43.426 19.1882C39.5752 21.3061 36.3304 24.374 34 28.1C32.4044 30.5921 31.0643 33.2389 30 36M30 36L36 42M30 36H20C20 36 21.1 29.94 24 28C27.24 25.84 34 28.1 34 28.1M44 38C41.4734 39.5969 38.7934 40.9369 36 42M44 38C44 38 46.16 44.76 44 48C42.06 50.9 36 52 36 52V42M17 55C17 55 18 47.52 21 45C21.8218 44.3075 22.8703 43.9428 23.9445 43.9761C25.0186 44.0093 26.0426 44.438 26.82 45.18C28.4 46.74 28.42 49.32 27 51C24.48 54 17 55 17 55Z" stroke="url(#paint1_linear_125_49)" stroke-width="4" stroke-linecap="round" stroke-linejoin="round"/>
<path d="M44 39C54.44 32 56 22.44 56 17C51.6053 16.9727 47.2768 18.0703 43.426 20.1882C39.5752 22.3061 36.3304 25.374 34 29.1C32.4044 31.5921 31.0643 34.2389 30 37M30 37L36 43M30 37H20C20 37 21.1 30.94 24 29C27.24 26.84 34 29.1 34 29.1M44 39C41.4734 40.5969 38.7934 41.9369 36 43M44 39C44 39 46.16 45.76 44 49C42.06 51.9 36 53 36 53V43M17 56C17 56 18 48.52 21 46C21.8218 45.3075 22.8703 44.9428 23.9445 44.9761C25.0186 45.0093 26.0426 45.438 26.82 46.18C28.4 47.74 28.42 50.32 27 52C24.48 55 17 56 17 56Z" stroke="black" stroke-opacity="0.2" stroke-width="4" stroke-linecap="round" stroke-linejoin="round"/>
<defs>
<linearGradient id="paint0_linear_125_49" x1="36" y1="0" x2="36" y2="72" gradientUnits="userSpaceOnUse">
<stop stop-color="#F43F5E"/>
<stop offset="1" stop-color="#BE123C"/>
</linearGradient>
<linearGradient id="paint1_linear_125_49" x1="36.5" y1="15.9995" x2="36.5" y2="55" gradientUnits="userSpaceOnUse">
<stop stop-color="white"/>
<stop offset="1" stop-color="white" stop-opacity="0.6"/>
</linearGradient>
</defs>
</svg>
