<?xml version="1.0" encoding="UTF-8"?>
<svg width="64px" height="64px" viewBox="0 0 64 64" version="1.1" xmlns="http://www.w3.org/2000/svg" xmlns:xlink="http://www.w3.org/1999/xlink">
    <!-- Generator: Sketch 55 (78076) - https://sketchapp.com -->
    <title>english</title>
    <desc>Created with Sketch.</desc>
    <defs>
        <path d="M32,64 C46.0222222,64 53.8173667,64 58.9086889,58.9086889 C64,53.8173667 64,46.0222222 64,32 C64,17.9777778 64,10.1826333 58.9086889,5.09131111 C53.8173667,0 46.0222222,0 32,0 C17.9777778,0 10.1826333,0 5.09131111,5.09131111 C0,10.1826333 0,17.9777778 0,32 C0,46.0222222 0,53.8173667 5.09131111,58.9086889 C10.1826333,64 17.9777778,64 32,64 Z" id="path-1"></path>
        <linearGradient x1="50%" y1="0%" x2="50%" y2="100%" id="linearGradient-3">
            <stop stop-color="#FDFEFF" offset="0%"></stop>
            <stop stop-color="#FBFCFD" stop-opacity="0.9" offset="100%"></stop>
        </linearGradient>
        <path d="M14.768,43 C13.893329,43 13.2213357,42.7653357 12.752,42.296 C12.2826643,41.8266643 12.048,41.154671 12.048,40.28 L12.048,23.16 C12.048,22.285329 12.2826643,21.6133357 12.752,21.144 C13.2213357,20.6746643 13.893329,20.44 14.768,20.44 L25.84,20.44 C26.7573379,20.44 27.4506643,20.6319981 27.92,21.016 C28.3893357,21.4000019 28.624,21.954663 28.624,22.68 C28.624,24.2160077 27.6960093,24.984 25.84,24.984 L17.776,24.984 L17.776,29.272 L25.2,29.272 C27.0560093,29.272 27.984,30.0293258 27.984,31.544 C27.984,32.269337 27.7493357,32.8239981 27.28,33.208 C26.8106643,33.5920019 26.1173379,33.784 25.2,33.784 L17.776,33.784 L17.776,38.456 L25.84,38.456 C27.6960093,38.456 28.624,39.2239923 28.624,40.76 C28.624,41.485337 28.3893357,42.0399981 27.92,42.424 C27.4506643,42.8080019 26.7573379,43 25.84,43 L14.768,43 Z M48.496,20.28 C49.3066707,20.28 49.9733307,20.546664 50.496,21.08 C51.0186693,21.613336 51.28,22.3066624 51.28,23.16 L51.28,40.28 C51.28,41.154671 51.0240026,41.858664 50.512,42.392 C49.9999974,42.925336 49.3386707,43.192 48.528,43.192 C47.5679952,43.192 46.8426691,42.8720032 46.352,42.232 L36.624,30.104 L36.624,40.28 C36.624,41.154671 36.3786691,41.858664 35.888,42.392 C35.3973309,42.925336 34.7360042,43.192 33.904,43.192 C33.0933293,43.192 32.4320026,42.925336 31.92,42.392 C31.4079974,41.858664 31.152,41.154671 31.152,40.28 L31.152,23.16 C31.152,22.3066624 31.4079974,21.613336 31.92,21.08 C32.4320026,20.546664 33.0933293,20.28 33.904,20.28 C34.8213379,20.28 35.5359974,20.5999968 36.048,21.24 L45.776,33.336 L45.776,23.16 C45.776,22.285329 46.0266642,21.5866693 46.528,21.064 C47.0293358,20.5413307 47.6853293,20.28 48.496,20.28 Z" id="path-4"></path>
        <filter x="-5.1%" y="-4.4%" width="110.2%" height="117.5%" filterUnits="objectBoundingBox" id="filter-5">
            <feOffset dx="0" dy="1" in="SourceAlpha" result="shadowOffsetOuter1"></feOffset>
            <feGaussianBlur stdDeviation="0.5" in="shadowOffsetOuter1" result="shadowBlurOuter1"></feGaussianBlur>
            <feColorMatrix values="0 0 0 0 0   0 0 0 0 0   0 0 0 0 0  0 0 0 0.1 0" type="matrix" in="shadowBlurOuter1"></feColorMatrix>
        </filter>
    </defs>
    <g id="Page-1" stroke="none" stroke-width="1" fill="none" fill-rule="evenodd">
        <g id="Artboard" transform="translate(-340.000000, -266.000000)">
            <g id="english" transform="translate(340.000000, 266.000000)">
                <mask id="mask-2" fill="white">
                    <use xlink:href="#path-1"></use>
                </mask>
                <use id="Path" fill="#8B73AE" xlink:href="#path-1"></use>
                <g id="EN" fill-rule="nonzero" mask="url(#mask-2)">
                    <use fill="black" fill-opacity="1" filter="url(#filter-5)" xlink:href="#path-4"></use>
                    <use fill="#323C46" xlink:href="#path-4"></use>
                    <use fill="url(#linearGradient-3)" xlink:href="#path-4"></use>
                </g>
            </g>
        </g>
    </g>
</svg>