<?xml version="1.0" encoding="UTF-8"?>
<svg width="606px" height="606px" viewBox="0 0 606 606" version="1.1" xmlns="http://www.w3.org/2000/svg" xmlns:xlink="http://www.w3.org/1999/xlink">
    <!-- Generator: Sketch 40.2 (33826) - http://www.bohemiancoding.com/sketch -->
    <title>discussions</title>
    <desc>Created with Sketch.</desc>
    <defs>
        <linearGradient x1="50%" y1="0%" x2="50%" y2="100%" id="linearGradient-1">
            <stop stop-color="#FFFFFF" stop-opacity="0.2" offset="0%"></stop>
            <stop stop-color="#000000" stop-opacity="0.2" offset="100%"></stop>
        </linearGradient>
        <path d="M552.268958,552.268958 C600,504.537813 600,431.458333 600,300 C600,168.541667 600,95.4621875 552.268958,47.7310417 C504.537813,0 431.458333,0 300,0 C168.541667,0 95.4621875,0 47.7310417,47.7310417 C0,95.4621875 0,168.541667 0,300 C0,431.458333 0,504.537813 47.7310417,552.268958 C95.4621875,600 168.541667,600 300,600 C431.458333,600 504.537813,600 552.268958,552.268958 Z" id="path-2"></path>
    </defs>
    <g id="Page-1" stroke="none" stroke-width="1" fill="none" fill-rule="evenodd">
        <g id="discussions" transform="translate(3.000000, 3.000000)">
            <g id="Shape">
                <use fill="#F06563" xlink:href="#path-2"></use>
                <use stroke="#000000" stroke-width="4.04" fill="url(#linearGradient-1)" xlink:href="#path-2"></use>
            </g>
            <g id="speech-bubble-3" opacity="0.9" transform="translate(102.000000, 117.000000)" fill="#FFFFFF">
                <g id="Capa_1">
                    <g id="Group">
                        <path d="M398.520131,101.258479 C397.475517,68.7884026 393.471164,41.8025484 385.636561,44.2399804 C378.411317,46.416259 373.101197,69.4848118 372.317737,102.825399 C371.969532,117.798196 371.534276,234.70788 371.186072,249.767728 L371.01197,255.426052 L370.924918,258.211689 L370.750816,260.126814 C370.489663,262.564246 369.967356,265.001678 368.922742,267.265008 C367.094668,271.791667 363.699674,275.708968 359.695321,278.407554 C357.693145,279.713321 355.516866,280.844986 353.166485,281.454344 C352.644178,281.715497 352.03482,281.715497 351.425462,281.8896 C350.816104,282.063702 350.293798,282.150753 349.945593,282.150753 C349.423286,282.150753 349.249184,282.324855 348.552775,282.324855 L345.767138,282.411906 L323.917301,282.150753 C308.857454,281.976651 293.884657,281.976651 278.82481,281.976651 C231.730141,282.150753 184.635473,282.586009 137.627856,283.195367 C134.05876,283.282418 130.750816,284.501134 128.313384,287.025617 L76.4309032,340.387967 L74.4287269,342.390144 L74.0805223,314.446727 C74.4287269,308.440198 74.6898803,302.52072 75.0380849,296.42714 C75.3862894,289.985356 70.4243743,284.588185 64.0696409,284.23998 L62.7638738,284.152929 L54.9292709,283.717674 C52.7529924,283.543571 51.3601741,283.282418 49.5321001,282.847162 C46.2241567,281.976651 43.0903156,280.40973 40.4787813,278.320503 C37.867247,276.231275 35.6909684,273.619741 34.1240479,270.747053 C33.6887922,270.050644 33.3405876,269.267184 33.0794342,268.570775 C32.7312296,267.874366 32.4700762,267.090905 32.2959739,266.307445 C31.773667,264.914627 31.5125136,262.91245 31.4254625,262.041939 C31.3384113,261.867837 31.3384113,260.213865 31.2513602,258.908098 L31.2513602,257.689382 C31.2513602,259.0822 31.3384113,255.687206 31.3384113,255.687206 L31.5995647,247.765552 L32.0348205,232.009295 C32.2959739,221.476107 32.4700762,210.942918 32.7312296,200.40973 C33.5146899,158.189926 33.6887922,115.883071 33.6887922,73.4891643 L33.6887922,57.5588052 L33.6887922,49.8983047 C33.7758433,48.4184353 33.8628945,47.025617 34.211099,45.6327987 C35.429815,40.0615256 39.1730141,34.9255082 44.2219804,32.0528205 C44.8313384,31.7046159 45.5277476,31.4434625 46.1371055,31.0952579 L48.1392818,30.3117976 L50.2285092,29.7894908 C50.7508161,29.7894908 50.8378672,29.6153885 51.7083787,29.5283373 L54.8422198,29.354235 L58.8465724,29.354235 L66.7682263,29.354235 L98.6289445,29.2671839 C141.022851,29.1801328 319.477693,22.7383482 361.784548,23.1736039 C369.619151,23.2606551 381.806311,20.2138651 385.636561,18.1246376 C393.297062,13.8591317 383.373232,10.2900348 368.487486,7.5914494 C319.651795,-1.37481828 124.134929,1.236716 63.8084875,0.192102285 L58.4113166,0.105051143 L55.7127312,0.018 L53.710555,0.018 L52.4047878,0.105051143 C51.4472252,0.105051143 50.7508161,0.105051143 49.6191513,0.192102285 L45.6147987,0.71440914 C43.0032644,1.14966485 40.8269859,1.67197171 38.476605,2.36838085 C29.336235,5.24106855 21.1534276,10.8123417 14.9727965,18.1246376 C11.9260065,21.7807856 9.40152339,25.9592405 7.39934712,30.3117976 C5.57127312,34.7514059 4.17845484,39.4521676 3.56909684,44.2399804 C3.39499456,45.4586964 3.39499456,46.6774124 3.22089227,47.8090773 C3.13384113,49.0277933 3.04678999,50.3335604 3.04678999,51.1170207 L2.95973885,56.5141915 L2.78563656,67.3085332 C2.26332971,96.0354102 1.74102285,124.849338 1.218716,153.576215 C0.870511425,182.390144 0.522306855,211.117021 0.0870511425,239.930949 L0,250.725291 L0,256.122461 L0,257.51528 L0.0870511425,259.691558 L0.174102285,262.390144 C0.34820457,264.479371 0.783460283,268.309621 1.39281828,270.572951 C1.91512514,273.097434 2.69858542,275.534866 3.65614799,277.972298 C5.57127312,282.760111 8.00870511,287.373822 11.2295974,291.465225 C17.4972797,299.648033 26.1153428,306.089817 35.9521219,309.571863 C39.3471164,310.87763 42.9162133,311.748141 46.5723613,312.270448 C46.6594124,322.194279 46.7464635,332.20516 46.7464635,342.12899 L46.9205658,353.619741 L46.9205658,356.492429 L47.007617,359.103963 C47.2687704,361.280242 47.5299238,362.586009 47.8781284,363.804725 C50.1414581,371.378174 56.4091404,376.775345 63.3732318,378.429317 C66.8552775,379.299828 70.7725789,379.299828 74.4287269,378.168163 C78.0848749,377.12355 81.3928183,374.947271 83.7431991,372.683941 L87.7475517,368.592538 L95.6692057,360.322679 C108.639826,347.787314 121.697497,335.164899 134.755169,322.629534 L144.504897,313.14096 C196.213275,313.750318 247.834603,314.011471 299.45593,313.837369 L339.847661,313.576215 L344.896627,313.489164 L346.985854,313.402113 L348.20457,313.315062 L350.816104,313.14096 C356.735582,312.444551 361.262242,311.312886 365.788901,309.484812 C374.84222,305.915715 382.850925,299.735084 388.683351,292.161634 C394.602829,284.501134 398.433079,275.273713 399.564744,265.698087 C400,263.347706 399.912949,260.910274 400,258.559893 L399.912949,253.423876 L399.651795,243.500046 C399.303591,230.09417 398.955386,114.751406 398.520131,101.258479 Z" id="Shape"></path>
                        <path d="M149.430719,114.788603 C171.397932,117.165653 193.365145,120.77221 215.496293,118.067292 C218.201211,118.395161 220.988096,118.72303 223.693014,118.968931 C241.070063,120.362374 258.365145,120.77221 275.660227,117.411554 C280.57826,116.427948 284.67662,112.657456 284.266784,105.280407 C283.938916,98.477128 280.414325,93.477128 275.414325,92.739423 C266.397932,91.3459804 257.217604,89.7886034 248.201211,89.9525378 C233.611047,90.2804066 219.020883,91.9197509 204.430719,92.9853247 C178.283178,83.5590952 151.479899,88.9689312 125.004489,87.0017181 C123.856948,86.9197509 121.971702,89.7886034 121.397932,91.7558165 C120.250391,95.7722099 121.725801,99.1328657 124.020883,101.673849 C131.397932,110.116472 140.333178,113.804997 149.430719,114.788603 L149.430719,114.788603 Z" id="Shape"></path>
                        <path d="M123.940139,154.673849 C131.317188,163.116472 140.333582,166.804997 149.431942,167.788603 C171.399155,170.165653 193.366368,173.77221 215.497516,171.067292 C218.202434,171.395161 220.989319,171.72303 223.694237,171.968931 C241.071286,173.362374 258.366368,173.77221 275.66145,170.411554 C280.579483,169.427948 284.677844,165.657456 284.268008,158.280407 C283.940139,151.477128 280.415549,146.477128 275.415549,145.739423 C266.399155,144.34598 257.218827,142.788603 248.202434,142.952538 C233.61227,143.280407 219.022106,144.919751 204.431942,145.985325 C178.284401,136.559095 151.481123,141.968931 125.005713,140.001718 C123.858172,139.919751 121.972926,142.788603 121.399155,144.755816 C120.251614,148.690243 121.726204,152.132866 123.940139,154.673849 L123.940139,154.673849 Z" id="Shape"></path>
                        <path d="M123.940139,207.673849 C131.317188,216.116472 140.333582,219.804997 149.431942,220.788603 C171.399155,223.165653 193.366368,226.77221 215.497516,224.067292 C218.202434,224.395161 220.989319,224.72303 223.694237,224.968931 C241.071286,226.362374 258.366368,226.77221 275.66145,223.411554 C280.579483,222.427948 284.677844,218.657456 284.268008,211.280407 C283.940139,204.477128 280.415549,199.477128 275.415549,198.739423 C266.399155,197.34598 257.218827,195.788603 248.202434,195.952538 C233.61227,196.280407 219.022106,197.919751 204.431942,198.985325 C178.284401,189.559095 151.481123,194.968931 125.005713,193.001718 C123.858172,192.919751 121.972926,195.788603 121.399155,197.755816 C120.251614,201.690243 121.726204,205.132866 123.940139,207.673849 L123.940139,207.673849 Z" id="Shape"></path>
                    </g>
                </g>
            </g>
        </g>
    </g>
</svg>