<svg width="48" height="48" viewBox="0 0 48 48" fill="none" xmlns="http://www.w3.org/2000/svg">
<rect width="48" height="48" fill="url(#paint0_linear_221_2557)"/>
<path d="M17.25 23.5H26.25M17.25 17.5H21.75" stroke="white" stroke-width="2.25" stroke-linecap="round" stroke-linejoin="round"/>
<path d="M18.75 35.5C20.3256 36.8045 22.2218 37.6357 24.3952 37.7782C26.1078 37.8905 27.8956 37.8904 29.6047 37.7782C30.1932 37.7396 30.8348 37.601 31.3872 37.3765C32.0018 37.1267 32.3092 37.0018 32.4655 37.0207C32.6217 37.0396 32.8483 37.2046 33.3016 37.5344C34.1008 38.116 35.1076 38.5337 36.6007 38.4979C37.3557 38.4797 37.7332 38.4706 37.9021 38.1863C38.0712 37.9019 37.8607 37.5083 37.4397 36.7211C36.8559 35.6293 36.486 34.3793 37.0465 33.3778C38.0119 31.9472 38.8318 30.2531 38.9517 28.4234C39.016 27.4403 39.016 26.4221 38.9517 25.439C38.8719 24.2198 38.5759 23.0609 38.1018 22" stroke="white" stroke-width="2.25" stroke-linecap="round" stroke-linejoin="round"/>
<path d="M24.5175 31.7302C29.8509 31.3789 34.0992 27.1104 34.4487 21.7516C34.5171 20.703 34.5171 19.617 34.4487 18.5683C34.0992 13.2095 29.8509 8.94102 24.5175 8.58978C22.698 8.46996 20.7983 8.4702 18.9825 8.58978C13.6491 8.94102 9.40088 13.2095 9.0513 18.5683C8.9829 19.617 8.9829 20.703 9.0513 21.7516C9.17862 23.7034 10.0499 25.5105 11.0756 27.0364C11.6711 28.1046 11.2781 29.4379 10.6578 30.6025C10.2105 31.4422 9.98687 31.862 10.1664 32.1653C10.346 32.4686 10.7471 32.4784 11.5493 32.4978C13.1357 32.536 14.2054 32.0904 15.0546 31.4701C15.5362 31.1182 15.777 30.9422 15.9429 30.9221C16.1089 30.9019 16.4355 31.0351 17.0886 31.3016C17.6756 31.5412 18.3572 31.6889 18.9825 31.7302C20.7983 31.8497 22.698 31.8499 24.5175 31.7302Z" stroke="white" stroke-width="2.25" stroke-linejoin="round"/>
<defs>
<linearGradient id="paint0_linear_221_2557" x1="24" y1="0" x2="24" y2="48" gradientUnits="userSpaceOnUse">
<stop stop-color="#0D9488"/>
<stop offset="1" stop-color="#0F766E"/>
</linearGradient>
</defs>
</svg>
