<svg width="320" height="320" viewBox="0 0 320 320" fill="none" xmlns="http://www.w3.org/2000/svg">
<g clip-path="url(#clip0_1014_7264)">
<path d="M160 0C281.326 0 320 38.6737 320 160C320 281.326 281.326 320 160 320C38.6736 320 0 281.326 0 160C0 38.6737 38.6736 0 160 0Z" fill="url(#paint0_linear_1014_7264)"/>
<path d="M160 2C220.573 2 259.85 11.6833 284.083 35.9168C308.317 60.1504 318 99.4272 318 160C318 220.573 308.317 259.85 284.083 284.083C259.85 308.317 220.573 318 160 318C99.4272 318 60.1504 308.317 35.9168 284.083C11.6833 259.85 2 220.573 2 160C2 99.4272 11.6833 60.1504 35.9168 35.9168C60.1504 11.6833 99.4272 2 160 2Z" stroke="#F8FAFC" stroke-opacity="0.2" stroke-width="4"/>
<g clip-path="url(#clip1_1014_7264)">
<g clip-path="url(#clip2_1014_7264)">
<path fill-rule="evenodd" clip-rule="evenodd" d="M119.998 160C119.998 157.489 119.072 155.194 117.544 153.438C116.33 152.043 115.329 150.334 115.512 148.495C117.663 126.881 126.88 117.663 148.493 115.512C150.333 115.329 152.043 116.33 153.438 117.544C155.194 119.074 157.49 120 160.002 120C162.514 120 164.809 119.074 166.566 117.545C167.961 116.33 169.67 115.329 171.511 115.512C193.122 117.663 202.339 126.881 204.49 148.493C204.673 150.333 203.672 152.042 202.458 153.437C200.928 155.193 200.002 157.489 200.002 160C200.002 162.512 200.928 164.807 202.458 166.564C203.672 167.959 204.673 169.668 204.49 171.508C202.339 193.12 193.122 202.337 171.511 204.489C169.67 204.672 167.961 203.671 166.566 202.456C164.809 200.927 162.514 200 160.002 200C157.49 200 155.194 200.927 153.438 202.456C152.043 203.671 150.333 204.672 148.493 204.489C126.88 202.338 117.663 193.12 115.512 171.506C115.329 169.666 116.33 167.957 117.544 166.563C119.072 164.807 119.998 162.512 119.998 160Z" fill="url(#paint1_linear_1014_7264)"/>
<path fill-rule="evenodd" clip-rule="evenodd" d="M133.031 78.5738C132.101 76.609 129.835 75.1513 127.805 75.929C103.997 85.0521 85.0516 103.998 75.929 127.806C75.1512 129.836 76.609 132.102 78.5738 133.032V133.032C81.1611 134.256 84.5554 133.17 85.6111 130.509C93.7298 110.047 110.047 93.7302 130.508 85.6111C133.169 84.5554 134.256 81.1611 133.031 78.5738V78.5738ZM186.966 78.5729C185.742 81.1603 186.829 84.5544 189.489 85.6101C209.952 93.7286 226.269 110.046 234.389 130.508C235.444 133.168 238.838 134.255 241.425 133.031V133.031C243.39 132.101 244.848 129.835 244.071 127.804C234.947 103.996 216.001 85.0503 192.192 75.9279C190.162 75.1502 187.896 76.6081 186.966 78.5729V78.5729ZM186.965 241.426C185.741 238.839 186.828 235.445 189.488 234.389C209.951 226.271 226.269 209.954 234.389 189.491C235.444 186.831 238.838 185.744 241.425 186.968V186.968C243.39 187.898 244.849 190.164 244.071 192.195C234.947 216.004 216.001 234.949 192.191 244.072C190.161 244.849 187.895 243.391 186.965 241.426V241.426ZM133.03 241.425C134.254 238.838 133.168 235.443 130.507 234.388C110.046 226.268 93.7296 209.951 85.611 189.49C84.5553 186.829 81.161 185.743 78.5737 186.967V186.967C76.609 187.897 75.1512 190.163 75.9289 192.193C85.0513 216.001 103.996 234.946 127.804 244.07C129.834 244.847 132.1 243.39 133.03 241.425V241.425Z" fill="url(#paint2_linear_1014_7264)"/>
<rect x="155" y="90" width="10" height="20" rx="5" fill="url(#paint3_linear_1014_7264)"/>
<rect x="155" y="210" width="10" height="20" rx="5" fill="url(#paint4_linear_1014_7264)"/>
<rect x="210" y="155" width="20" height="10" rx="5" fill="url(#paint5_linear_1014_7264)"/>
<rect x="90" y="155" width="20" height="10" rx="5" fill="url(#paint6_linear_1014_7264)"/>
<path d="M160 40C175.166 40 180 44.8342 180 60C180 75.1658 175.166 80 160 80C144.834 80 140 75.1658 140 60C140 44.8342 144.834 40 160 40Z" fill="url(#paint7_linear_1014_7264)"/>
<path d="M60 140C75.1658 140 80 144.834 80 160C80 175.166 75.1658 180 60 180C44.8342 180 40 175.166 40 160C40 144.834 44.8342 140 60 140Z" fill="url(#paint8_linear_1014_7264)"/>
<path d="M260 140C275.166 140 280 144.834 280 160C280 175.166 275.166 180 260 180C244.834 180 240 175.166 240 160C240 144.834 244.834 140 260 140Z" fill="url(#paint9_linear_1014_7264)"/>
<path d="M160 240C175.166 240 180 244.834 180 260C180 275.166 175.166 280 160 280C144.834 280 140 275.166 140 260C140 244.834 144.834 240 160 240Z" fill="url(#paint10_linear_1014_7264)"/>
</g>
</g>
</g>
<defs>
<linearGradient id="paint0_linear_1014_7264" x1="160" y1="0" x2="160" y2="320" gradientUnits="userSpaceOnUse">
<stop stop-color="#475569"/>
<stop offset="1" stop-color="#1E293B"/>
</linearGradient>
<linearGradient id="paint1_linear_1014_7264" x1="160.001" y1="115.49" x2="160.001" y2="204.51" gradientUnits="userSpaceOnUse">
<stop stop-color="#FB923C"/>
<stop offset="1" stop-color="#EA580C"/>
</linearGradient>
<linearGradient id="paint2_linear_1014_7264" x1="160" y1="75.7148" x2="160" y2="244.285" gradientUnits="userSpaceOnUse">
<stop stop-color="#94A3B8"/>
<stop offset="1" stop-color="#64748B"/>
</linearGradient>
<linearGradient id="paint3_linear_1014_7264" x1="160" y1="90" x2="160" y2="110" gradientUnits="userSpaceOnUse">
<stop stop-color="#94A3B8"/>
<stop offset="1" stop-color="#64748B"/>
</linearGradient>
<linearGradient id="paint4_linear_1014_7264" x1="160" y1="210" x2="160" y2="230" gradientUnits="userSpaceOnUse">
<stop stop-color="#94A3B8"/>
<stop offset="1" stop-color="#64748B"/>
</linearGradient>
<linearGradient id="paint5_linear_1014_7264" x1="220" y1="155" x2="220" y2="165" gradientUnits="userSpaceOnUse">
<stop stop-color="#94A3B8"/>
<stop offset="1" stop-color="#64748B"/>
</linearGradient>
<linearGradient id="paint6_linear_1014_7264" x1="100" y1="155" x2="100" y2="165" gradientUnits="userSpaceOnUse">
<stop stop-color="#94A3B8"/>
<stop offset="1" stop-color="#64748B"/>
</linearGradient>
<linearGradient id="paint7_linear_1014_7264" x1="160" y1="40" x2="160" y2="80" gradientUnits="userSpaceOnUse">
<stop stop-color="#2DD4BF"/>
<stop offset="1" stop-color="#0D9488"/>
</linearGradient>
<linearGradient id="paint8_linear_1014_7264" x1="60" y1="140" x2="60" y2="180" gradientUnits="userSpaceOnUse">
<stop stop-color="#C084FC"/>
<stop offset="1" stop-color="#9333EA"/>
</linearGradient>
<linearGradient id="paint9_linear_1014_7264" x1="260" y1="140" x2="260" y2="180" gradientUnits="userSpaceOnUse">
<stop stop-color="#FB7185"/>
<stop offset="1" stop-color="#E11D48"/>
</linearGradient>
<linearGradient id="paint10_linear_1014_7264" x1="160" y1="240" x2="160" y2="280" gradientUnits="userSpaceOnUse">
<stop stop-color="#7DD3FC"/>
<stop offset="1" stop-color="#0EA5E9"/>
</linearGradient>
<clipPath id="clip0_1014_7264">
<rect width="320" height="320" fill="white"/>
</clipPath>
<clipPath id="clip1_1014_7264">
<rect width="240" height="240" fill="white" transform="translate(40 40)"/>
</clipPath>
<clipPath id="clip2_1014_7264">
<rect width="240" height="240" fill="white" transform="translate(40 40)"/>
</clipPath>
</defs>
</svg>
