<?xml version="1.0" encoding="UTF-8" standalone="no"?>
<!DOCTYPE svg PUBLIC "-//W3C//DTD SVG 1.1//EN" "http://www.w3.org/Graphics/SVG/1.1/DTD/svg11.dtd">
<svg width="100%" height="100%" viewBox="0 0 64 64" version="1.1" xmlns="http://www.w3.org/2000/svg" xmlns:xlink="http://www.w3.org/1999/xlink" xml:space="preserve" xmlns:serif="http://www.serif.com/" style="fill-rule:evenodd;clip-rule:evenodd;stroke-linejoin:round;stroke-miterlimit:2;">
    <g id="discussions">
        <path id="Path" d="M32,64C46.022,64 53.817,64 58.909,58.909C64,53.817 64,46.022 64,32C64,17.978 64,10.183 58.909,5.091C53.817,0 46.022,0 32,0C17.978,0 10.183,0 5.091,5.091C0,10.183 0,17.978 0,32C0,46.022 0,53.817 5.091,58.909C10.183,64 17.978,64 32,64Z" style="fill:rgb(187,41,187);"/>
        <g transform="matrix(0.0937502,0,0,0.089844,14,8.99993)">
            <path d="M384,128L272,128C263.223,128 256,120.777 256,112L256,0L24,0C23.98,0 23.96,0 23.94,0C10.829,0 0.033,10.77 0,23.88L0,488C0,488.02 0,488.04 0,488.06C0,501.171 10.77,511.967 23.88,512L360,512C360.02,512 360.04,512 360.06,512C373.171,512 383.967,501.23 384,488.12L384,128Z" style="fill:white;fill-opacity:0.6;fill-rule:nonzero;"/>
        </g>
        <g transform="matrix(0.0937502,0,0,0.089844,14,8.99993)">
            <path d="M352,83.478L256,0L24,0C23.98,0 23.96,0 23.94,0C10.829,0 0.033,10.77 0,23.88L0,488C0,488.02 0,488.04 0,488.06C0,501.171 10.77,511.967 23.88,512L352,83.478Z" style="fill:white;fill-opacity:0.4;fill-rule:nonzero;"/>
        </g>
        <g transform="matrix(0.0937502,0,0,0.089844,14,8.99993)">
            <path d="M330.667,61.218L256,0L24,0C23.98,0 23.96,0 23.94,0C10.829,0 0.033,10.77 0,23.88L0,488C0,488.02 0,349.72 0,349.74C0,362.85 330.667,61.218 330.667,61.218Z" style="fill:white;fill-opacity:0.4;fill-rule:nonzero;"/>
        </g>
        <g transform="matrix(0.0937502,0,0,0.089844,14,8.99993)">
            <path d="M330.667,61.218L256,0L24,0C23.98,0 23.96,0 23.94,0C10.829,0 0.033,10.77 0,23.88L0,488C0,488.02 0,192.363 0,192.383C0,205.494 330.667,61.218 330.667,61.218Z" style="fill:white;fill-opacity:0.4;fill-rule:nonzero;"/>
        </g>
        <g transform="matrix(0.111365,0,0,0.106725,10.816,-1.00007)">
            <path d="M305,256L281.1,256C275.491,255.952 270.611,259.982 269.6,265.5C245.4,376.9 247.8,383.5 248,394.7C247.2,389.3 242.4,365.7 218.4,265.3C217.107,259.911 212.241,256.086 206.7,256.1L177.6,256.1C172.076,256.038 167.2,259.83 165.9,265.2C143.8,355.2 138.1,377.7 136.5,387.9C135.6,375.2 131.1,343.7 115.5,265.7C114.402,260.079 109.427,255.989 103.7,256L79.2,256C72.623,256.008 67.215,261.423 67.215,268C67.215,268.874 67.311,269.746 67.5,270.6L105.3,438.6C106.513,444.067 111.4,447.993 117,448L154.1,448C159.576,447.98 164.377,444.214 165.7,438.9C188.9,345.8 190.2,342.7 191.3,328.4L191.8,328.4C196.6,357.7 191.6,335.4 217.4,438.9C218.723,444.214 223.524,447.98 229,448L267,448C272.583,448.041 277.48,444.148 278.7,438.7L316.7,270.7C316.904,269.815 317.004,268.909 317,268C317,261.417 311.583,256 305,256Z" style="fill:rgb(187,41,187);fill-rule:nonzero;"/>
        </g>
        <g transform="matrix(0.0937502,0,0,0.089844,14,8.99993)">
            <path d="M377,105L279.1,7C274.589,2.504 268.469,-0.016 262.1,0L256,0L256,112C256,120.777 263.223,128 272,128L384,128L384,121.9C384,115.564 381.48,109.48 377,105Z" style="fill:white;fill-rule:nonzero;"/>
        </g>
    </g>
</svg>
