<svg width="96" height="96" xmlns="http://www.w3.org/2000/svg" style="box-shadow: 0 1px 2px 0 rgba(0, 0, 0, 0.05);">
    <!-- Rounded rectangle with background and border -->
    <rect x="1" y="1" width="94" height="94" fill="rgba(107, 114, 128, 0.2)" stroke="rgba(107, 114, 128, 0.2)" rx="12" ry="12"></rect>
    
    <!-- Nested SVG containing the icon -->
    <svg x="32" y="32" width="32" height="32" viewBox="0 0 256 256"><rect width="256" height="256" fill="none"/><polygon points="152 32 152 88 208 88 152 32" opacity="0.2"/><path d="M48,112V40a8,8,0,0,1,8-8h96l56,56v24" fill="none" stroke="currentColor" stroke-linecap="round" stroke-linejoin="round" stroke-width="16"/><polyline points="152 32 152 88 208 88" fill="none" stroke="currentColor" stroke-linecap="round" stroke-linejoin="round" stroke-width="16"/><path d="M44,192H60a20,20,0,0,0,0-40H44v56" fill="none" stroke="currentColor" stroke-linecap="round" stroke-linejoin="round" stroke-width="16"/><path d="M208,184h8v16.87A22.12,22.12,0,0,1,200,208c-13.25,0-24-12.54-24-28s10.75-28,24-28a21.28,21.28,0,0,1,12,3.75" fill="none" stroke="currentColor" stroke-linecap="round" stroke-linejoin="round" stroke-width="16"/><polyline points="108 208 108 152 148 208 148 152" fill="none" stroke="currentColor" stroke-linecap="round" stroke-linejoin="round" stroke-width="16"/></svg>
</svg>