<svg width="96" height="96" xmlns="http://www.w3.org/2000/svg" style="box-shadow: 0 1px 2px 0 rgba(0, 0, 0, 0.05);">
    <!-- Rounded rectangle with background and border -->
    <rect x="1" y="1" width="94" height="94" fill="rgba(107, 114, 128, 0.2)" stroke="rgba(107, 114, 128, 0.2)" rx="12" ry="12"></rect>
    
    <!-- Nested SVG containing the icon -->
    <svg x="32" y="32" width="32" height="32" viewBox="0 0 256 256"><rect width="256" height="256" fill="none"/><polygon points="152 32 152 88 208 88 152 32" opacity="0.2"/><path d="M48,112V40a8,8,0,0,1,8-8h96l56,56v24" fill="none" stroke="currentColor" stroke-linecap="round" stroke-linejoin="round" stroke-width="16"/><polyline points="152 32 152 88 208 88" fill="none" stroke="currentColor" stroke-linecap="round" stroke-linejoin="round" stroke-width="16"/><polyline points="148 208 120 208 120 152" fill="none" stroke="currentColor" stroke-linecap="round" stroke-linejoin="round" stroke-width="16"/><line x1="48" y1="152" x2="88" y2="208" fill="none" stroke="currentColor" stroke-linecap="round" stroke-linejoin="round" stroke-width="16"/><line x1="88" y1="152" x2="48" y2="208" fill="none" stroke="currentColor" stroke-linecap="round" stroke-linejoin="round" stroke-width="16"/><path d="M203.9,153.6s-29.43-7.78-31.8,11,38.43,10.12,35.78,30.72c-2.47,19.16-31.78,11-31.78,11" fill="none" stroke="currentColor" stroke-linecap="round" stroke-linejoin="round" stroke-width="16"/></svg>
</svg>