<svg width="96" height="96" xmlns="http://www.w3.org/2000/svg" style="box-shadow: 0 1px 2px 0 rgba(0, 0, 0, 0.05);">
    <!-- Rounded rectangle with background and border -->
    <rect x="1" y="1" width="94" height="94" fill="rgba(107, 114, 128, 0.2)" stroke="rgba(107, 114, 128, 0.2)" rx="12" ry="12"></rect>
    
    <!-- Nested SVG containing the icon -->
    <svg x="32" y="32" width="32" height="32" viewBox="0 0 256 256"><rect width="256" height="256" fill="none"/><line x1="216" y1="152" x2="176" y2="152" fill="none" stroke="currentColor" stroke-linecap="round" stroke-linejoin="round" stroke-width="16"/><line x1="196" y1="152" x2="196" y2="208" fill="none" stroke="currentColor" stroke-linecap="round" stroke-linejoin="round" stroke-width="16"/><path d="M48,192H64a20,20,0,0,0,0-40H48v56" fill="none" stroke="currentColor" stroke-linecap="round" stroke-linejoin="round" stroke-width="16"/><path d="M116,192h16a20,20,0,0,0,0-40H116v56" fill="none" stroke="currentColor" stroke-linecap="round" stroke-linejoin="round" stroke-width="16"/><polygon points="152 32 152 88 208 88 152 32" opacity="0.2"/><path d="M48,112V40a8,8,0,0,1,8-8h96l56,56v24" fill="none" stroke="currentColor" stroke-linecap="round" stroke-linejoin="round" stroke-width="16"/><polyline points="152 32 152 88 208 88" fill="none" stroke="currentColor" stroke-linecap="round" stroke-linejoin="round" stroke-width="16"/></svg>
</svg>