<?xml version="1.0" encoding="UTF-8"?>
<svg width="64px" height="65px" viewBox="0 0 64 65" version="1.1" xmlns="http://www.w3.org/2000/svg" xmlns:xlink="http://www.w3.org/1999/xlink">
    <!-- Generator: Sketch 55 (78076) - https://sketchapp.com -->
    <title>charts</title>
    <desc>Created with Sketch.</desc>
    <defs>
        <path d="M32,64 C46.0222222,64 53.8173667,64 58.9086889,58.9086889 C64,53.8173667 64,46.0222222 64,32 C64,17.9777778 64,10.1826333 58.9086889,5.09131111 C53.8173667,0 46.0222222,0 32,0 C17.9777778,0 10.1826333,0 5.09131111,5.09131111 C0,10.1826333 0,17.9777778 0,32 C0,46.0222222 0,53.8173667 5.09131111,58.9086889 C10.1826333,64 17.9777778,64 32,64 Z" id="path-1"></path>
        <linearGradient x1="50%" y1="0%" x2="50%" y2="100%" id="linearGradient-3">
            <stop stop-color="#FDFEFF" offset="0%"></stop>
            <stop stop-color="#FBFCFD" stop-opacity="0.9" offset="100%"></stop>
        </linearGradient>
        <path d="M38.808123,21.374948 L21.3603855,21.374948 L32.9802007,33.103865 C33.4243169,33.5521511 34.1551969,33.5885187 34.6118131,33.1543343 C37.4573921,30.4482892 39.4147387,26.8003978 39.9890015,22.6997672 C40.0875306,21.9976502 39.5103266,21.374948 38.808123,21.374948 L38.808123,21.374948 Z M37.6441562,16.5655206 C37.0382758,7.69925207 30.0191809,0.614252955 21.2353859,0.00268378721 C20.5647999,-0.0440745351 20.0000958,0.526673875 20.0000958,1.20504065 L20.0000958,17.8124092 L36.4537189,17.8124092 C37.1257755,17.8124092 37.6904796,17.242403 37.6441562,16.5655206 Z M16.4706955,21.374948 L16.4706955,3.76338885 C16.4706955,3.05459206 15.8537857,2.47196852 15.158935,2.57142273 C6.39646348,3.82128011 -0.301308906,11.5482784 0.010454788,20.8086528 C0.331041983,30.3191471 8.44351566,38.1181384 17.8699557,37.9986449 C21.575826,37.9518866 25.0000796,36.746561 27.8155116,34.7307577 C28.3963921,34.3151282 28.4346273,33.4519547 27.9309524,32.9435507 L16.4706955,21.374948 Z" id="path-4"></path>
        <filter x="-5.0%" y="-2.6%" width="110.0%" height="110.5%" filterUnits="objectBoundingBox" id="filter-5">
            <feOffset dx="0" dy="1" in="SourceAlpha" result="shadowOffsetOuter1"></feOffset>
            <feGaussianBlur stdDeviation="0.5" in="shadowOffsetOuter1" result="shadowBlurOuter1"></feGaussianBlur>
            <feColorMatrix values="0 0 0 0 0   0 0 0 0 0   0 0 0 0 0  0 0 0 0.1 0" type="matrix" in="shadowBlurOuter1"></feColorMatrix>
        </filter>
    </defs>
    <g id="Page-1" stroke="none" stroke-width="1" fill="none" fill-rule="evenodd">
        <g id="Artboard" transform="translate(-1394.000000, -510.000000)">
            <g id="charts" transform="translate(1394.000000, 510.682593)">
                <mask id="mask-2" fill="white">
                    <use xlink:href="#path-1"></use>
                </mask>
                <use id="Path" fill="#00B356" xlink:href="#path-1"></use>
                <g id="chart-pie" mask="url(#mask-2)" fill-rule="nonzero">
                    <g transform="translate(13.000000, 12.317407)" id="Shape">
                        <g>
                            <use fill="black" fill-opacity="1" filter="url(#filter-5)" xlink:href="#path-4"></use>
                            <use fill="url(#linearGradient-3)" xlink:href="#path-4"></use>
                        </g>
                    </g>
                </g>
            </g>
        </g>
    </g>
</svg>