<svg width="320" height="320" viewBox="0 0 320 320" fill="none" xmlns="http://www.w3.org/2000/svg">
<g clip-path="url(#clip0_1014_7006)">
<path d="M160 0C281.326 0 320 38.6737 320 160C320 281.326 281.326 320 160 320C38.6736 320 0 281.326 0 160C0 38.6737 38.6736 0 160 0Z" fill="url(#paint0_linear_1014_7006)"/>
<path d="M160 2C220.573 2 259.85 11.6833 284.083 35.9168C308.317 60.1504 318 99.4272 318 160C318 220.573 308.317 259.85 284.083 284.083C259.85 308.317 220.573 318 160 318C99.4272 318 60.1504 308.317 35.9168 284.083C11.6833 259.85 2 220.573 2 160C2 99.4272 11.6833 60.1504 35.9168 35.9168C60.1504 11.6833 99.4272 2 160 2Z" stroke="#F8FAFC" stroke-opacity="0.2" stroke-width="4"/>
<g clip-path="url(#clip1_1014_7006)">
<path d="M237.543 60H82.4175C70.1152 60 60 70.1172 60 82.4219V237.617C60 249.883 70.1152 260 82.4175 260H237.583C249.846 260 260 249.883 260 237.578V82.4219C259.961 70.1172 249.846 60 237.543 60ZM214.54 186.914C214.54 188.789 212.939 189.609 211.064 190.391C203.566 193.555 195.559 196.523 187.045 196.523C171.228 196.523 160.215 179.023 123.308 197.5V217.734C123.308 229.57 105.46 229.531 105.46 217.734V120.078C101.945 117.344 99.6016 113.086 99.6016 108.242C99.6016 100.039 106.28 93.3203 114.521 93.3203C122.722 93.3203 129.44 100 129.44 108.242C129.44 113.008 127.174 117.305 123.62 120.039V128.242C138.11 123.555 149.201 114.805 180.68 126.914C191.068 131.367 207.51 120.781 210.557 120.781C212.705 120.781 214.579 122.383 214.579 124.258V186.914H214.54Z" fill="#38BDF8"/>
</g>
</g>
<defs>
<linearGradient id="paint0_linear_1014_7006" x1="160" y1="0" x2="160" y2="320" gradientUnits="userSpaceOnUse">
<stop stop-color="#475569"/>
<stop offset="1" stop-color="#1E293B"/>
</linearGradient>
<clipPath id="clip0_1014_7006">
<rect width="320" height="320" fill="white"/>
</clipPath>
<clipPath id="clip1_1014_7006">
<rect width="240" height="240" fill="white" transform="translate(40 40)"/>
</clipPath>
</defs>
</svg>
