<?xml version="1.0" encoding="UTF-8"?>
<svg width="64px" height="65px" viewBox="0 0 64 65" version="1.1" xmlns="http://www.w3.org/2000/svg" xmlns:xlink="http://www.w3.org/1999/xlink">
    <!-- Generator: Sketch 55 (78076) - https://sketchapp.com -->
    <title>paid levels</title>
    <desc>Created with Sketch.</desc>
    <defs>
        <path d="M32,64 C46.0222222,64 53.8173667,64 58.9086889,58.9086889 C64,53.8173667 64,46.0222222 64,32 C64,17.9777778 64,10.1826333 58.9086889,5.09131111 C53.8173667,0 46.0222222,0 32,0 C17.9777778,0 10.1826333,0 5.09131111,5.09131111 C0,10.1826333 0,17.9777778 0,32 C0,46.0222222 0,53.8173667 5.09131111,58.9086889 C10.1826333,64 17.9777778,64 32,64 Z" id="path-1"></path>
        <linearGradient x1="50%" y1="0%" x2="50%" y2="100%" id="linearGradient-3">
            <stop stop-color="#FDFEFF" offset="0%"></stop>
            <stop stop-color="#FBFCFD" stop-opacity="0.9" offset="100%"></stop>
        </linearGradient>
        <path d="M29.453125,8.203125 L21.8046875,0.546875 C21.453125,0.1953125 20.9765625,0 20.4765625,0 L20,0 L20,10 L30,10 L30,9.5234375 C30,9.03125 29.8046875,8.5546875 29.453125,8.203125 Z M17.5,10.625 L17.5,0 L1.875,0 C0.8359375,0 0,0.8359375 0,1.875 L0,38.125 C0,39.1640625 0.8359375,40 1.875,40 L28.125,40 C29.1640625,40 30,39.1640625 30,38.125 L30,12.5 L19.375,12.5 C18.34375,12.5 17.5,11.65625 17.5,10.625 Z M5,5.625 C5,5.2796875 5.2796875,5 5.625,5 L11.875,5 C12.2203125,5 12.5,5.2796875 12.5,5.625 L12.5,6.875 C12.5,7.2203125 12.2203125,7.5 11.875,7.5 L5.625,7.5 C5.2796875,7.5 5,7.2203125 5,6.875 L5,5.625 Z M5,11.875 L5,10.625 C5,10.2796875 5.2796875,10 5.625,10 L11.875,10 C12.2203125,10 12.5,10.2796875 12.5,10.625 L12.5,11.875 C12.5,12.2203125 12.2203125,12.5 11.875,12.5 L5.625,12.5 C5.2796875,12.5 5,12.2203125 5,11.875 Z M16.25,32.490625 L16.25,34.375 C16.25,34.7203125 15.9703125,35 15.625,35 L14.375,35 C14.0296875,35 13.75,34.7203125 13.75,34.375 L13.75,32.4773438 C12.8679688,32.4320313 12.0101563,32.1242188 11.2992188,31.590625 C10.9945313,31.3617188 10.9789063,30.9054688 11.2546875,30.6421875 L12.1726563,29.7664063 C12.3890625,29.5601563 12.7109375,29.5507813 12.9640625,29.709375 C13.2664063,29.8984375 13.609375,30 13.965625,30 L16.1617188,30 C16.6695313,30 17.0835938,29.5375 17.0835938,28.9695313 C17.0835938,28.5046875 16.8015625,28.0953125 16.3984375,27.975 L12.8828125,26.9203125 C11.4304688,26.484375 10.415625,25.090625 10.415625,23.5304688 C10.415625,21.6148438 11.9039063,20.0585938 13.7492188,20.009375 L13.7492188,18.125 C13.7492188,17.7796875 14.0289063,17.5 14.3742188,17.5 L15.6242188,17.5 C15.9695313,17.5 16.2492188,17.7796875 16.2492188,18.125 L16.2492188,20.0226563 C17.13125,20.0679688 17.9890625,20.375 18.7,20.909375 C19.0046875,21.1382813 19.0203125,21.5945313 18.7445313,21.8578125 L17.8265625,22.7335938 C17.6101563,22.9398438 17.2882813,22.9492188 17.0351563,22.790625 C16.7328125,22.6007813 16.3898438,22.5 16.0335938,22.5 L13.8375,22.5 C13.3296875,22.5 12.915625,22.9625 12.915625,23.5304688 C12.915625,23.9953125 13.1976563,24.4046875 13.6007813,24.525 L17.1164063,25.5796875 C18.56875,26.015625 19.5835938,27.409375 19.5835938,28.9695313 C19.5835938,30.8859375 18.0953125,32.4414063 16.25,32.490625 Z" id="path-4"></path>
        <filter x="-6.7%" y="-2.5%" width="113.3%" height="110.0%" filterUnits="objectBoundingBox" id="filter-5">
            <feOffset dx="0" dy="1" in="SourceAlpha" result="shadowOffsetOuter1"></feOffset>
            <feGaussianBlur stdDeviation="0.5" in="shadowOffsetOuter1" result="shadowBlurOuter1"></feGaussianBlur>
            <feColorMatrix values="0 0 0 0 0   0 0 0 0 0   0 0 0 0 0  0 0 0 0.1 0" type="matrix" in="shadowBlurOuter1"></feColorMatrix>
        </filter>
    </defs>
    <g id="Page-1" stroke="none" stroke-width="1" fill="none" fill-rule="evenodd">
        <g id="Artboard" transform="translate(-1474.000000, -510.000000)">
            <g id="paid-levels" transform="translate(1474.000000, 510.682593)">
                <mask id="mask-2" fill="white">
                    <use xlink:href="#path-1"></use>
                </mask>
                <use id="Path" fill="#00B356" xlink:href="#path-1"></use>
                <g id="file-invoice-dollar" mask="url(#mask-2)" fill-rule="nonzero">
                    <g transform="translate(18.000000, 11.317407)" id="Shape">
                        <g>
                            <use fill="black" fill-opacity="1" filter="url(#filter-5)" xlink:href="#path-4"></use>
                            <use fill="url(#linearGradient-3)" xlink:href="#path-4"></use>
                        </g>
                    </g>
                </g>
            </g>
        </g>
    </g>
</svg>