<svg width="240" height="240" viewBox="0 0 240 240" fill="none" xmlns="http://www.w3.org/2000/svg">
<rect width="240" height="240" fill="#0EA5E9"/>
<path fill-rule="evenodd" clip-rule="evenodd" d="M105.52 117.175C100.878 115.666 95.889 114.847 91.2833 116.464C71.9306 123.259 55.6889 136.664 45.267 153.971C41.7721 159.775 42.3728 167.127 46.6909 172.347C64.1993 193.514 90.6642 207 120.279 207C149.894 207 176.359 193.514 193.867 172.347C198.185 167.127 198.786 159.775 195.291 153.971C184.869 136.664 168.627 123.259 149.274 116.464C144.668 114.847 139.68 115.666 135.037 117.174C130.39 118.684 125.429 119.5 120.278 119.5C115.128 119.5 110.168 118.684 105.52 117.175Z" fill="#7DD3FC"/>
<circle cx="120.297" cy="72" r="40" fill="#E0F2FE"/>
</svg>
