<?xml version="1.0" encoding="utf-8"?>
<!-- Generator: Adobe Illustrator 20.1.0, SVG Export Plug-In . SVG Version: 6.00 Build 0)  -->
<svg version="1.1" id="Слой_1" xmlns="http://www.w3.org/2000/svg" xmlns:xlink="http://www.w3.org/1999/xlink" x="0px" y="0px"
	 viewBox="0 0 600 600" style="enable-background:new 0 0 600 600;" xml:space="preserve">
<style type="text/css">
	.st0{fill:#2BAF92;}
	.st1{fill:url(#path-copy_1_);}
	.st2{fill:#FFFFFF;}
</style>
<title>Group 2 Copy 25</title>
<desc>Created with Sketch.</desc>
<g id="Page-1">
	<g id="Group-2-Copy-25">
		<path id="path" class="st0" d="M552.3,552.3C600,504.5,600,431.5,600,300s0-204.5-47.7-252.3C504.5,0,431.5,0,300,0
			S95.5,0,47.7,47.7C0,95.5,0,168.5,0,300s0,204.5,47.7,252.3C95.5,600,168.5,600,300,600S504.5,600,552.3,552.3L552.3,552.3z"/>
		
			<linearGradient id="path-copy_1_" gradientUnits="userSpaceOnUse" x1="-9.4833" y1="0.3167" x2="-9.4833" y2="1.3167" gradientTransform="matrix(600 0 0 600 5990 -190)">
			<stop  offset="0" style="stop-color:#FFFFFF;stop-opacity:0.2"/>
			<stop  offset="1" style="stop-color:#000000;stop-opacity:0.1389"/>
		</linearGradient>
		<path id="path-copy" class="st1" d="M552.3,552.3C600,504.5,600,431.5,600,300s0-204.5-47.7-252.3C504.5,0,431.5,0,300,0
			S95.5,0,47.7,47.7C0,95.5,0,168.5,0,300s0,204.5,47.7,252.3C95.5,600,168.5,600,300,600S504.5,600,552.3,552.3L552.3,552.3z"/>
	</g>
</g>
<g>
	<g>
		<path class="st2" d="M518.8,289.8c-3.2-6.7-8.1-11.9-14.8-15.5c-6.6-3.6-13.9-5.4-21.8-5.4H440v-35.2c0-13.5-4.8-25.1-14.5-34.8
			c-9.7-9.7-21.3-14.5-34.8-14.5H271v-7.1c0-13.5-4.8-25.1-14.5-34.8S235.2,128,221.7,128h-70.4c-13.5,0-25.1,4.8-34.8,14.5
			c-9.7,9.8-14.5,21.3-14.5,34.9v211.3c0,13.5,4.8,25.1,14.5,34.8c9.7,9.7,21.3,14.5,34.8,14.5h239.4c9.8,0,20.1-2.5,30.8-7.6
			c10.7-5.1,19.2-11.5,25.5-19.3l64.9-79.9c6.7-8.5,10.1-17.3,10.1-26.4C522,299.5,521,294.5,518.8,289.8z M130.1,177.4
			c0-5.8,2.1-10.8,6.2-14.9c4.1-4.1,9.1-6.2,14.9-6.2h70.4c5.9,0,10.8,2.1,14.9,6.2c4.1,4.1,6.2,9.1,6.2,14.9v14.1
			c0,5.9,2.1,10.8,6.2,14.9c4.1,4.1,9.1,6.2,14.9,6.2h126.8c5.8,0,10.8,2.1,14.9,6.2c4.1,4.1,6.2,9.1,6.2,14.9v35.2h-169
			c-10,0-20.3,2.5-30.9,7.6c-10.6,5.1-19,11.5-25.5,19.3l-56.1,69.3V177.4L130.1,177.4z M489.9,313.4l-64.7,79.9
			c-3.7,4.5-8.9,8.5-15.6,11.7c-6.7,3.2-13,4.8-19,4.8H151.2c-7.8,0-11.7-2.5-11.7-7.7c0-2.4,1.3-5.3,3.9-8.8l64.7-79.9
			c3.8-4.5,9-8.4,15.8-11.6c6.6-3.1,13-4.8,18.8-4.8h239.4c7.8,0,11.7,2.5,11.7,7.7C493.9,307.3,492.6,310.2,489.9,313.4z"/>
	</g>
</g>
</svg>
