<?xml version="1.0" encoding="UTF-8"?>
<svg width="64px" height="64px" viewBox="0 0 64 64" version="1.1" xmlns="http://www.w3.org/2000/svg" xmlns:xlink="http://www.w3.org/1999/xlink">
    <!-- Generator: Sketch 55 (78076) - https://sketchapp.com -->
    <title>directory</title>
    <desc>Created with Sketch.</desc>
    <defs>
        <path d="M32,64 C46.0222222,64 53.8173667,64 58.9086889,58.9086889 C64,53.8173667 64,46.0222222 64,32 C64,17.9777778 64,10.1826333 58.9086889,5.09131111 C53.8173667,0 46.0222222,0 32,0 C17.9777778,0 10.1826333,0 5.09131111,5.09131111 C0,10.1826333 0,17.9777778 0,32 C0,46.0222222 0,53.8173667 5.09131111,58.9086889 C10.1826333,64 17.9777778,64 32,64 Z" id="path-1"></path>
        <linearGradient x1="50%" y1="0%" x2="50%" y2="100%" id="linearGradient-3">
            <stop stop-color="#FDFEFF" offset="0%"></stop>
            <stop stop-color="#FBFCFD" stop-opacity="0.9" offset="100%"></stop>
        </linearGradient>
        <path d="M37.78125,4.875 L9.75,4.875 L9.75,1.21875 C9.75,0.5484375 9.2015625,0 8.53125,0 L6.09375,0 C5.4234375,0 4.875,0.5484375 4.875,1.21875 L4.875,4.875 L1.21875,4.875 C0.5484375,4.875 0,5.4234375 0,6.09375 L0,8.53125 C0,9.2015625 0.5484375,9.75 1.21875,9.75 L4.875,9.75 L4.875,37.78125 C4.875,38.4515625 5.4234375,39 6.09375,39 L8.53125,39 C9.2015625,39 9.75,38.4515625 9.75,37.78125 L9.75,9.75 L37.78125,9.75 C38.4515625,9.75 39,9.2015625 39,8.53125 L39,6.09375 C39,5.4234375 38.4515625,4.875 37.78125,4.875 Z M12.1875,29.25 L36.5625,29.25 L36.5625,12.1875 L12.1875,12.1875 L12.1875,29.25 Z" id="path-4"></path>
        <filter x="-5.1%" y="-2.6%" width="110.3%" height="110.3%" filterUnits="objectBoundingBox" id="filter-5">
            <feOffset dx="0" dy="1" in="SourceAlpha" result="shadowOffsetOuter1"></feOffset>
            <feGaussianBlur stdDeviation="0.5" in="shadowOffsetOuter1" result="shadowBlurOuter1"></feGaussianBlur>
            <feColorMatrix values="0 0 0 0 0   0 0 0 0 0   0 0 0 0 0  0 0 0 0.1 0" type="matrix" in="shadowBlurOuter1"></feColorMatrix>
        </filter>
    </defs>
    <g id="Page-1" stroke="none" stroke-width="1" fill="none" fill-rule="evenodd">
        <g id="Artboard" transform="translate(-1717.000000, -511.000000)">
            <g id="directory" transform="translate(1717.000000, 511.000000)">
                <mask id="mask-2" fill="white">
                    <use xlink:href="#path-1"></use>
                </mask>
                <use id="Path" fill="#00B356" xlink:href="#path-1"></use>
                <g id="sign" mask="url(#mask-2)" fill-rule="nonzero">
                    <g transform="translate(13.000000, 12.000000)" id="Shape">
                        <g>
                            <use fill="black" fill-opacity="1" filter="url(#filter-5)" xlink:href="#path-4"></use>
                            <use fill="url(#linearGradient-3)" xlink:href="#path-4"></use>
                        </g>
                    </g>
                </g>
            </g>
        </g>
    </g>
</svg>