<svg width="320" height="320" viewBox="0 0 320 320" fill="none" xmlns="http://www.w3.org/2000/svg">
<g clip-path="url(#clip0_937_6799)">
<path d="M160 0C281.326 0 320 38.6737 320 160C320 281.326 281.326 320 160 320C38.6736 320 0 281.326 0 160C0 38.6737 38.6736 0 160 0Z" fill="url(#paint0_linear_937_6799)"/>
<path d="M160 2C220.573 2 259.85 11.6833 284.083 35.9168C308.317 60.1504 318 99.4272 318 160C318 220.573 308.317 259.85 284.083 284.083C259.85 308.317 220.573 318 160 318C99.4272 318 60.1504 308.317 35.9168 284.083C11.6833 259.85 2 220.573 2 160C2 99.4272 11.6833 60.1504 35.9168 35.9168C60.1504 11.6833 99.4272 2 160 2Z" stroke="#0F172A" stroke-opacity="0.2" stroke-width="4"/>
<g clip-path="url(#clip1_937_6799)">
<path d="M67.2041 109.794C62.039 107.496 59.1906 101.521 61.9304 96.5759C76.755 69.8195 106.835 60 160 60C213.138 60 243.214 69.8094 258.047 96.5344C260.793 101.483 257.939 107.465 252.767 109.764C242.205 114.458 228.275 121.921 209.952 132.5C190.336 143.825 176.33 152.576 166.936 159.629C162.84 162.703 157.063 162.703 152.968 159.629C143.574 152.576 129.568 143.825 109.951 132.5C91.668 121.944 77.7585 114.49 67.2041 109.794Z" fill="url(#paint1_linear_937_6799)"/>
<path d="M160 260C243.412 260 270 235.829 270 160C270 155.921 269.923 151.992 269.765 148.208C269.443 140.543 260.639 136.676 254.19 140.833C246.286 145.929 236.609 151.75 224.952 158.481C189.683 178.843 170.69 187.662 160.659 187.412C160.185 187.4 159.719 187.4 159.244 187.412C149.213 187.662 130.22 178.843 94.9513 158.481C83.3365 151.775 73.6885 145.972 65.8001 140.889C59.3517 136.735 50.5522 140.604 50.2329 148.268C50.0761 152.034 50 155.943 50 160C50 235.829 76.5882 260 160 260Z" fill="url(#paint2_linear_937_6799)"/>
</g>
</g>
<defs>
<linearGradient id="paint0_linear_937_6799" x1="160" y1="0" x2="160" y2="320" gradientUnits="userSpaceOnUse">
<stop stop-color="#F8FAFC"/>
<stop offset="1" stop-color="#E2E8F0"/>
</linearGradient>
<linearGradient id="paint1_linear_937_6799" x1="159.99" y1="60" x2="159.99" y2="161.935" gradientUnits="userSpaceOnUse">
<stop stop-color="#2DD4BF"/>
<stop offset="1" stop-color="#0D9488"/>
</linearGradient>
<linearGradient id="paint2_linear_937_6799" x1="160" y1="139.136" x2="160" y2="260" gradientUnits="userSpaceOnUse">
<stop stop-color="#60A5FA"/>
<stop offset="1" stop-color="#2563EB"/>
</linearGradient>
<clipPath id="clip0_937_6799">
<rect width="320" height="320" fill="white"/>
</clipPath>
<clipPath id="clip1_937_6799">
<rect width="240" height="240" fill="white" transform="translate(40 40)"/>
</clipPath>
</defs>
</svg>
