<?xml version="1.0" encoding="UTF-8"?>
<svg width="606px" height="606px" viewBox="0 0 606 606" version="1.1" xmlns="http://www.w3.org/2000/svg" xmlns:xlink="http://www.w3.org/1999/xlink">
    <!-- Generator: Sketch 40.2 (33826) - http://www.bohemiancoding.com/sketch -->
    <title>linkedin</title>
    <desc>Created with Sketch.</desc>
    <defs>
        <linearGradient x1="50%" y1="0%" x2="50%" y2="100%" id="linearGradient-1">
            <stop stop-color="#FFFFFF" stop-opacity="0.2" offset="0%"></stop>
            <stop stop-color="#000000" stop-opacity="0.2" offset="100%"></stop>
        </linearGradient>
        <path d="M552.268958,552.268958 C600,504.537813 600,431.458333 600,300 C600,168.541667 600,95.4621875 552.268958,47.7310417 C504.537813,0 431.458333,0 300,0 C168.541667,0 95.4621875,0 47.7310417,47.7310417 C0,95.4621875 0,168.541667 0,300 C0,431.458333 0,504.537813 47.7310417,552.268958 C95.4621875,600 168.541667,600 300,600 C431.458333,600 504.537813,600 552.268958,552.268958 Z" id="path-2"></path>
    </defs>
    <g id="Page-1" stroke="none" stroke-width="1" fill="none" fill-rule="evenodd">
        <g id="linkedin" transform="translate(3.000000, 3.000000)">
            <g id="Squircle2-Copy-7">
                <g id="Shape">
                    <use fill="#0B78B7" xlink:href="#path-2"></use>
                    <use stroke="#000000" stroke-width="4.04" fill="url(#linearGradient-1)" xlink:href="#path-2"></use>
                </g>
            </g>
            <g id="In-White-0p5in-R" opacity="0.9" transform="translate(100.000000, 100.000000)" fill="#FFFFFF">
                <g id="Group-5">
                    <path d="M340.737244,340.726137 L281.435613,340.726137 L281.435613,247.925026 C281.435613,225.799375 281.057966,197.331482 250.624089,197.331482 C219.757029,197.331482 215.047553,221.445331 215.047553,246.347796 L215.047553,340.726137 L155.812565,340.726137 L155.812565,149.903506 L212.659493,149.903506 L212.659493,175.994446 L213.48143,175.994446 C221.389795,160.988546 240.738632,145.171815 269.584172,145.171815 C329.641097,145.171815 340.737244,184.680319 340.737244,236.073586 L340.737244,340.726137 L340.737244,340.726137 Z M88.9468934,123.83478 C69.8979521,123.83478 54.5366192,108.429018 54.5366192,89.4356126 C54.5366192,70.4533148 69.8979521,55.0475529 88.9468934,55.0475529 C107.918084,55.0475529 123.312739,70.4533148 123.312739,89.4356126 C123.312739,108.429018 107.918084,123.83478 88.9468934,123.83478 L88.9468934,123.83478 Z M59.2460951,340.726137 L118.61437,340.726137 L118.61437,149.903506 L59.2460951,149.903506 L59.2460951,340.726137 Z M370.271434,0 L29.4897605,0 C13.2176328,0 0,12.9066296 0,28.8344325 L0,371.004512 C0,386.932315 13.2176328,399.861159 29.4897605,399.861159 L370.271434,399.861159 C386.576883,399.861159 399.850052,386.932315 399.850052,371.004512 L399.850052,28.8344325 C399.850052,12.9066296 386.576883,0 370.271434,0 L370.271434,0 Z" id="Fill-4"></path>
                </g>
            </g>
        </g>
    </g>
</svg>