<?xml version="1.0" encoding="utf-8"?>
<!-- Generator: Adobe Illustrator 20.1.0, SVG Export Plug-In . SVG Version: 6.00 Build 0)  -->
<svg version="1.1" id="Слой_1" xmlns="http://www.w3.org/2000/svg" xmlns:xlink="http://www.w3.org/1999/xlink" x="0px" y="0px"
	 viewBox="0 0 64 64" style="enable-background:new 0 0 64 64;" xml:space="preserve">
<style type="text/css">
	.st0{fill:#00B356;}
	.st1{fill:#FFFFFF;}
</style>
<title>files</title>
<desc>Created with Sketch.</desc>
<g id="Page-1">
	<g id="Artboard" transform="translate(-1636.000000, -511.000000)">
		<g id="files" transform="translate(1636.000000, 511.000000)">
			<g id="Path">
				<path id="path-1_1_" class="st0" d="M32,64c14,0,21.8,0,26.9-5.1C64,53.8,64,46,64,32s0-21.8-5.1-26.9C53.8,0,46,0,32,0
					S10.2,0,5.1,5.1C0,10.2,0,18,0,32s0,21.8,5.1,26.9C10.2,64,18,64,32,64z"/>
			</g>
		</g>
	</g>
</g>
<path class="st1" d="M32,12.5c-12.3,0-22.3,8.1-22.3,18.1c0,4.3,1.9,8.3,5,11.4c-1.1,4.4-4.7,8.3-4.8,8.4c-0.2,0.2-0.2,0.5-0.1,0.8
	c0.1,0.3,0.4,0.4,0.6,0.4c5.8,0,10.1-2.8,12.3-4.5c2.9,1.1,6,1.7,9.4,1.7c12.3,0,22.3-8.1,22.3-18.1S44.3,12.5,32,12.5z"/>
</svg>
