<svg width="320" height="320" viewBox="0 0 320 320" fill="none" xmlns="http://www.w3.org/2000/svg">
<path d="M160 0C281.326 0 320 38.6737 320 160C320 281.326 281.326 320 160 320C38.6736 320 0 281.326 0 160C0 38.6737 38.6736 0 160 0Z" fill="url(#paint0_linear_1004_6974)"/>
<path d="M160 2C220.573 2 259.85 11.6833 284.083 35.9168C308.317 60.1504 318 99.4272 318 160C318 220.573 308.317 259.85 284.083 284.083C259.85 308.317 220.573 318 160 318C99.4272 318 60.1504 308.317 35.9168 284.083C11.6833 259.85 2 220.573 2 160C2 99.4272 11.6833 60.1504 35.9168 35.9168C60.1504 11.6833 99.4272 2 160 2Z" stroke="#0F172A" stroke-opacity="0.2" stroke-width="4"/>
<g clip-path="url(#clip0_1004_6974)">
<path fill-rule="evenodd" clip-rule="evenodd" d="M100.831 110.007C100.554 110.002 100.277 110 100 110C72.3858 110 50 132.386 50 160C50 187.614 72.3858 210 100 210C127.614 210 150 187.614 150 160C150 159.723 149.998 159.446 149.993 159.169C124.874 154.952 105.048 135.126 100.831 110.007Z" fill="url(#paint1_linear_1004_6974)"/>
<path fill-rule="evenodd" clip-rule="evenodd" d="M209.993 100.831C209.998 100.554 210 100.277 210 100C210 72.3858 187.614 50 160 50C132.386 50 110 72.3858 110 100C110 127.614 132.386 150 160 150C160.277 150 160.554 149.998 160.831 149.993C165.048 124.874 184.874 105.048 209.993 100.831Z" fill="url(#paint2_linear_1004_6974)"/>
<path fill-rule="evenodd" clip-rule="evenodd" d="M110.007 219.169C110.002 219.446 110 219.723 110 220C110 247.614 132.386 270 160 270C187.614 270 210 247.614 210 220C210 192.386 187.614 170 160 170C159.723 170 159.446 170.002 159.169 170.007C154.952 195.126 135.126 214.952 110.007 219.169Z" fill="url(#paint3_linear_1004_6974)"/>
<path fill-rule="evenodd" clip-rule="evenodd" d="M220 210C247.614 210 270 187.614 270 160C270 132.386 247.614 110 220 110C192.386 110 170 132.386 170 160C170 160.277 170.002 160.554 170.007 160.831C195.126 165.048 214.952 184.874 219.169 209.993C219.446 209.998 219.723 210 220 210Z" fill="url(#paint4_linear_1004_6974)"/>
</g>
<defs>
<linearGradient id="paint0_linear_1004_6974" x1="160" y1="0" x2="160" y2="320" gradientUnits="userSpaceOnUse">
<stop stop-color="#F8FAFC"/>
<stop offset="1" stop-color="#E2E8F0"/>
</linearGradient>
<linearGradient id="paint1_linear_1004_6974" x1="100" y1="110" x2="100" y2="210" gradientUnits="userSpaceOnUse">
<stop stop-color="#FB7185"/>
<stop offset="1" stop-color="#E11D48"/>
</linearGradient>
<linearGradient id="paint2_linear_1004_6974" x1="160" y1="50" x2="160" y2="150" gradientUnits="userSpaceOnUse">
<stop stop-color="#34D399"/>
<stop offset="1" stop-color="#059669"/>
</linearGradient>
<linearGradient id="paint3_linear_1004_6974" x1="160" y1="170" x2="160" y2="270" gradientUnits="userSpaceOnUse">
<stop stop-color="#FB923C"/>
<stop offset="1" stop-color="#EA580C"/>
</linearGradient>
<linearGradient id="paint4_linear_1004_6974" x1="220" y1="110" x2="220" y2="210" gradientUnits="userSpaceOnUse">
<stop stop-color="#60A5FA"/>
<stop offset="1" stop-color="#2563EB"/>
</linearGradient>
<clipPath id="clip0_1004_6974">
<rect width="240" height="240" fill="white" transform="translate(40 40)"/>
</clipPath>
</defs>
</svg>
