<svg width="320" height="320" viewBox="0 0 320 320" fill="none" xmlns="http://www.w3.org/2000/svg">
<g clip-path="url(#clip0_910_8302)">
<path d="M160 0C281.326 0 320 38.6737 320 160C320 281.326 281.326 320 160 320C38.6736 320 0 281.326 0 160C0 38.6737 38.6736 0 160 0Z" fill="url(#paint0_linear_910_8302)"/>
<g clip-path="url(#clip1_910_8302)">
<path fill-rule="evenodd" clip-rule="evenodd" d="M165.417 158.971C167.919 162.042 171.824 163.873 175.623 162.75C198.389 156.017 215 134.949 215 110C215 79.6243 190.376 55 160 55C129.624 55 105 79.6243 105 110C105 117.648 106.561 124.931 109.381 131.548C110.322 133.754 112.602 135 115 135V135C135.34 135 153.498 144.343 165.417 158.971Z" fill="url(#paint1_linear_910_8302)"/>
<path fill-rule="evenodd" clip-rule="evenodd" d="M148.434 167.957C150.935 163.552 150.645 157.808 146.494 154.904C137.573 148.662 126.714 145 115 145C84.6243 145 60 169.624 60 200C60 230.376 84.6243 255 115 255C126.714 255 137.573 251.338 146.494 245.096C150.645 242.192 150.935 236.448 148.434 232.043C143.065 222.586 140 211.651 140 200C140 188.349 143.065 177.414 148.434 167.957Z" fill="url(#paint2_linear_910_8302)"/>
<path fill-rule="evenodd" clip-rule="evenodd" d="M160 175C157.602 175 155.321 176.247 154.381 178.453C151.561 185.07 150 192.353 150 200C150 230.376 174.624 255 205 255C235.376 255 260 230.376 260 200C260 175.052 243.389 153.983 220.623 147.251C216.824 146.127 212.919 147.958 210.417 151.029C198.498 165.658 180.34 175 160 175V175Z" fill="url(#paint3_linear_910_8302)"/>
</g>
</g>
<defs>
<linearGradient id="paint0_linear_910_8302" x1="160" y1="0" x2="160" y2="320" gradientUnits="userSpaceOnUse">
<stop stop-color="#FB7185"/>
<stop offset="1" stop-color="#E11D48"/>
</linearGradient>
<linearGradient id="paint1_linear_910_8302" x1="186" y1="59.5" x2="144" y2="143" gradientUnits="userSpaceOnUse">
<stop stop-color="white"/>
<stop offset="1" stop-color="#FECDD3" stop-opacity="0.6"/>
</linearGradient>
<linearGradient id="paint2_linear_910_8302" x1="56.5" y1="200" x2="137.481" y2="214.282" gradientUnits="userSpaceOnUse">
<stop stop-color="white"/>
<stop offset="1" stop-color="#FECDD3" stop-opacity="0.6"/>
</linearGradient>
<linearGradient id="paint3_linear_910_8302" x1="235.5" y1="244" x2="190" y2="167.5" gradientUnits="userSpaceOnUse">
<stop stop-color="white"/>
<stop offset="1" stop-color="#FECDD3" stop-opacity="0.6"/>
</linearGradient>
<clipPath id="clip0_910_8302">
<rect width="320" height="320" fill="white"/>
</clipPath>
<clipPath id="clip1_910_8302">
<rect width="240" height="240" fill="white" transform="translate(40 40)"/>
</clipPath>
</defs>
</svg>
