<svg width="150" height="150" viewBox="0 0 150 150" fill="none" xmlns="http://www.w3.org/2000/svg">
<path d="M0 75C0 18.75 18.75 0 75 0C131.25 0 150 18.75 150 75C150 131.25 131.25 150 75 150C18.75 150 0 131.25 0 75Z" fill="url(#paint0_linear)"/>
<g filter="url(#filter0_d)">
<path d="M101.46 79.5407C108.165 86.246 107.442 97.5539 99.3006 103.272C94.1194 106.909 86.8823 106.909 81.7011 103.272C73.5549 97.5591 72.8368 86.246 79.5419 79.5407C85.5961 73.4864 95.4108 73.4864 101.46 79.5407" stroke="white" stroke-width="6" stroke-linecap="round" stroke-linejoin="round"/>
<path d="M112 112L102 102" stroke="white" stroke-width="6" stroke-linecap="round" stroke-linejoin="round"/>
<path d="M50.26 48.96C50.248 48.96 50.24 48.968 50.24 48.98C50.24 48.992 50.248 49 50.26 49C50.272 49 50.28 48.992 50.28 48.98C50.28 48.968 50.272 48.96 50.26 48.96" stroke="#F3F4F6" stroke-width="6" stroke-linecap="round" stroke-linejoin="round"/>
<path d="M60.432 48.96C60.42 48.96 60.412 48.968 60.412 48.98C60.412 48.992 60.424 49 60.432 49C60.444 49 60.452 48.992 60.452 48.98C60.452 48.968 60.444 48.96 60.432 48.96" stroke="#F3F4F6" stroke-width="6" stroke-linecap="round" stroke-linejoin="round"/>
<path d="M70.588 48.96C70.576 48.96 70.568 48.968 70.568 48.98C70.568 48.992 70.576 49 70.588 49C70.6 49 70.608 48.992 70.608 48.98C70.608 48.968 70.6 48.96 70.588 48.96" stroke="#F3F4F6" stroke-width="6" stroke-linecap="round" stroke-linejoin="round"/>
<path d="M111 71V47C111 42.58 107.42 39 103 39H47C42.58 39 39 42.58 39 47V103C39 107.42 42.58 111 47 111H71" stroke="#F3F4F6" stroke-width="6" stroke-linecap="round" stroke-linejoin="round"/>
<path d="M39.144 59H111" stroke="#F3F4F6" stroke-width="6" stroke-linecap="round" stroke-linejoin="round"/>
</g>
<defs>
<filter id="filter0_d" x="34" y="35" width="83" height="83" filterUnits="userSpaceOnUse" color-interpolation-filters="sRGB">
<feFlood flood-opacity="0" result="BackgroundImageFix"/>
<feColorMatrix in="SourceAlpha" type="matrix" values="0 0 0 0 0 0 0 0 0 0 0 0 0 0 0 0 0 0 127 0"/>
<feOffset dy="1"/>
<feGaussianBlur stdDeviation="1"/>
<feColorMatrix type="matrix" values="0 0 0 0 0 0 0 0 0 0 0 0 0 0 0 0 0 0 0.05 0"/>
<feBlend mode="normal" in2="BackgroundImageFix" result="effect1_dropShadow"/>
<feBlend mode="normal" in="SourceGraphic" in2="effect1_dropShadow" result="shape"/>
</filter>
<linearGradient id="paint0_linear" x1="75" y1="0" x2="75" y2="150" gradientUnits="userSpaceOnUse">
<stop stop-color="#10B981"/>
<stop offset="1" stop-color="#059669"/>
</linearGradient>
</defs>
</svg>
