<svg width="320" height="320" viewBox="0 0 320 320" fill="none" xmlns="http://www.w3.org/2000/svg">
<g clip-path="url(#clip0_1016_7428)">
<path d="M160 0C281.326 0 320 38.6737 320 160C320 281.326 281.326 320 160 320C38.6736 320 0 281.326 0 160C0 38.6737 38.6736 0 160 0Z" fill="url(#paint0_linear_1016_7428)"/>
<path d="M160 2C220.573 2 259.85 11.6833 284.083 35.9168C308.317 60.1504 318 99.4272 318 160C318 220.573 308.317 259.85 284.083 284.083C259.85 308.317 220.573 318 160 318C99.4272 318 60.1504 308.317 35.9168 284.083C11.6833 259.85 2 220.573 2 160C2 99.4272 11.6833 60.1504 35.9168 35.9168C60.1504 11.6833 99.4272 2 160 2Z" stroke="#F8FAFC" stroke-opacity="0.2" stroke-width="4"/>
<g opacity="0.8">
<path fill-rule="evenodd" clip-rule="evenodd" d="M200 190C224.056 190 245.277 177.866 257.878 159.384C258.505 158.464 260 158.886 260 160V160C260 235.829 235.829 260 160 260C84.171 260 60 235.829 60 160C60 84.1711 84.171 60 160 60V60C161.114 60 161.536 61.4947 160.616 62.122C142.134 74.7226 130 95.9442 130 120C130 127.745 131.258 135.197 133.581 142.162C134.998 146.412 133.994 151.197 130.71 154.246C128.379 156.411 125.932 158.779 123.356 161.355C96.5461 188.165 92.2733 200.984 105.678 214.388C119.083 227.793 131.901 223.52 158.711 196.711C161.299 194.123 163.677 191.665 165.849 189.325C168.895 186.044 173.673 185.036 177.922 186.447C184.863 188.752 192.286 190 200 190Z" fill="url(#paint1_linear_1016_7428)"/>
<path fill-rule="evenodd" clip-rule="evenodd" d="M260.001 120C260.001 153.137 233.138 180 200.001 180C191.658 180 183.713 178.297 176.495 175.221C171.572 173.122 165.608 174.243 162.093 178.278C159.186 181.615 155.667 185.329 151.498 189.498C130.05 210.945 120.65 215.218 112.607 207.175C104.564 199.132 108.837 189.732 130.285 168.284C134.487 164.082 138.226 160.54 141.584 157.619C145.611 154.117 146.746 148.178 144.676 143.26C141.665 136.107 140.001 128.248 140.001 120C140.001 86.8629 166.864 60 200.001 60C233.138 60 260.001 86.8629 260.001 120ZM240.001 120C240.001 142.091 222.092 160 200.001 160C177.909 160 160.001 142.091 160.001 120C160.001 97.9086 177.909 80 200.001 80C222.092 80 240.001 97.9086 240.001 120Z" fill="url(#paint2_linear_1016_7428)"/>
<circle cx="200" cy="120" r="30" fill="url(#paint3_linear_1016_7428)"/>
</g>
</g>
<defs>
<linearGradient id="paint0_linear_1016_7428" x1="160" y1="0" x2="160" y2="320" gradientUnits="userSpaceOnUse">
<stop stop-color="#475569"/>
<stop offset="1" stop-color="#1E293B"/>
</linearGradient>
<linearGradient id="paint1_linear_1016_7428" x1="160" y1="60" x2="160" y2="260" gradientUnits="userSpaceOnUse">
<stop stop-color="#FB923C"/>
<stop offset="1" stop-color="#EA580C"/>
</linearGradient>
<linearGradient id="paint2_linear_1016_7428" x1="184.412" y1="60" x2="184.412" y2="210.96" gradientUnits="userSpaceOnUse">
<stop stop-color="#7DD3FC"/>
<stop offset="1" stop-color="#0EA5E9"/>
</linearGradient>
<linearGradient id="paint3_linear_1016_7428" x1="200" y1="90" x2="200" y2="150" gradientUnits="userSpaceOnUse">
<stop stop-color="#FB923C"/>
<stop offset="1" stop-color="#EA580C"/>
</linearGradient>
<clipPath id="clip0_1016_7428">
<rect width="320" height="320" fill="white"/>
</clipPath>
</defs>
</svg>
