<svg width="512" height="512" viewBox="0 0 512 512" fill="none" xmlns="http://www.w3.org/2000/svg">
<path d="M0 256C0 64 64 0 256 0C448 0 512 64 512 256C512 448 448 512 256 512C64 512 0 448 0 256Z" fill="url(#paint0_linear)"/>
<g filter="url(#filter0_d)">
<path d="M373.599 276.181C403.4 305.982 400.185 356.24 364.003 381.655C340.975 397.819 308.81 397.819 285.783 381.655C249.577 356.263 246.386 305.982 276.186 276.181C303.094 249.273 346.715 249.273 373.599 276.181" stroke="white" stroke-width="32" stroke-linecap="round" stroke-linejoin="round"/>
<path d="M408.444 408.444L376 376" stroke="white" stroke-width="32" stroke-linecap="round" stroke-linejoin="round"/>
<path d="M146.044 140.267C145.991 140.267 145.956 140.302 145.956 140.356C145.956 140.409 145.991 140.444 146.044 140.444C146.098 140.444 146.133 140.409 146.133 140.356C146.133 140.302 146.098 140.267 146.044 140.267" stroke="#D1FAE5" stroke-width="32" stroke-linecap="round" stroke-linejoin="round"/>
<path d="M191.253 140.267C191.2 140.267 191.164 140.302 191.164 140.356C191.164 140.409 191.218 140.444 191.253 140.444C191.307 140.444 191.342 140.409 191.342 140.356C191.342 140.302 191.307 140.267 191.253 140.267" stroke="#D1FAE5" stroke-width="32" stroke-linecap="round" stroke-linejoin="round"/>
<path d="M236.391 140.267C236.338 140.267 236.302 140.302 236.302 140.356C236.302 140.409 236.338 140.444 236.391 140.444C236.445 140.444 236.48 140.409 236.48 140.356C236.48 140.302 236.445 140.267 236.391 140.267" stroke="#D1FAE5" stroke-width="32" stroke-linecap="round" stroke-linejoin="round"/>
<path d="M416 238.222V131.556C416 111.911 400.089 96 380.444 96H131.556C111.911 96 96 111.911 96 131.556V380.444C96 400.089 111.911 416 131.556 416H238.222" stroke="#D1FAE5" stroke-width="32" stroke-linecap="round" stroke-linejoin="round"/>
<path d="M96.6401 184.889H416" stroke="#D1FAE5" stroke-width="32" stroke-linecap="round" stroke-linejoin="round"/>
</g>
<defs>
<filter id="filter0_d" x="78" y="79" width="356" height="356" filterUnits="userSpaceOnUse" color-interpolation-filters="sRGB">
<feFlood flood-opacity="0" result="BackgroundImageFix"/>
<feColorMatrix in="SourceAlpha" type="matrix" values="0 0 0 0 0 0 0 0 0 0 0 0 0 0 0 0 0 0 127 0"/>
<feOffset dy="1"/>
<feGaussianBlur stdDeviation="1"/>
<feColorMatrix type="matrix" values="0 0 0 0 0 0 0 0 0 0 0 0 0 0 0 0 0 0 0.05 0"/>
<feBlend mode="normal" in2="BackgroundImageFix" result="effect1_dropShadow"/>
<feBlend mode="normal" in="SourceGraphic" in2="effect1_dropShadow" result="shape"/>
</filter>
<linearGradient id="paint0_linear" x1="256" y1="0" x2="256" y2="512" gradientUnits="userSpaceOnUse">
<stop stop-color="#10B981"/>
<stop offset="1" stop-color="#059669"/>
</linearGradient>
</defs>
</svg>
