<svg width="320" height="320" viewBox="0 0 320 320" fill="none" xmlns="http://www.w3.org/2000/svg">
<g clip-path="url(#clip0_1004_7034)">
<path d="M160 0C281.326 0 320 38.6737 320 160C320 281.326 281.326 320 160 320C38.6736 320 0 281.326 0 160C0 38.6737 38.6736 0 160 0Z" fill="url(#paint0_linear_1004_7034)"/>
<path d="M160 2C220.573 2 259.85 11.6833 284.083 35.9168C308.317 60.1504 318 99.4272 318 160C318 220.573 308.317 259.85 284.083 284.083C259.85 308.317 220.573 318 160 318C99.4272 318 60.1504 308.317 35.9168 284.083C11.6833 259.85 2 220.573 2 160C2 99.4272 11.6833 60.1504 35.9168 35.9168C60.1504 11.6833 99.4272 2 160 2Z" stroke="#0F172A" stroke-opacity="0.2" stroke-width="4"/>
<g clip-path="url(#clip1_1004_7034)">
<path fill-rule="evenodd" clip-rule="evenodd" d="M160 50C171.374 50 175 53.6257 175 65V65C175 68.0516 177.2 70.8722 180.217 71.3298C213.703 76.4086 225 96.7757 225 145C225 154.07 224.6 162.155 223.729 169.338C223.063 174.822 226.549 180.011 231.751 181.869C244.863 186.551 250 193.946 250 205C250 227.749 228.246 235 160 235C91.7539 235 70 227.749 70 205C70 193.946 75.1367 186.551 88.2486 181.869C93.4512 180.011 96.937 174.822 96.2714 169.338C95.3996 162.155 95 154.07 95 145C95 96.7757 106.297 76.4086 139.783 71.3298C142.8 70.8722 145 68.0516 145 65V65C145 53.6257 148.626 50 160 50Z" fill="url(#paint1_linear_1004_7034)"/>
<path fill-rule="evenodd" clip-rule="evenodd" d="M128.129 240.343C124.733 240.181 122.13 243.356 123.53 246.454C129.804 260.338 143.774 270 160 270C176.226 270 190.196 260.338 196.47 246.454C197.87 243.356 195.266 240.181 191.87 240.343C182.438 240.793 171.85 241 160 241C148.15 241 137.561 240.793 128.129 240.343Z" fill="url(#paint2_linear_1004_7034)"/>
</g>
</g>
<defs>
<linearGradient id="paint0_linear_1004_7034" x1="160" y1="0" x2="160" y2="320" gradientUnits="userSpaceOnUse">
<stop stop-color="#F8FAFC"/>
<stop offset="1" stop-color="#E2E8F0"/>
</linearGradient>
<linearGradient id="paint1_linear_1004_7034" x1="160" y1="50" x2="160" y2="235" gradientUnits="userSpaceOnUse">
<stop stop-color="#2DD4BF"/>
<stop offset="1" stop-color="#0D9488"/>
</linearGradient>
<linearGradient id="paint2_linear_1004_7034" x1="160" y1="240.337" x2="160" y2="270" gradientUnits="userSpaceOnUse">
<stop stop-color="#FB923C"/>
<stop offset="1" stop-color="#EA580C"/>
</linearGradient>
<clipPath id="clip0_1004_7034">
<rect width="320" height="320" fill="white"/>
</clipPath>
<clipPath id="clip1_1004_7034">
<rect width="240" height="240" fill="white" transform="translate(40 40)"/>
</clipPath>
</defs>
</svg>
