<?xml version="1.0" encoding="UTF-8"?>
<svg width="606px" height="606px" viewBox="0 0 606 606" version="1.1" xmlns="http://www.w3.org/2000/svg" xmlns:xlink="http://www.w3.org/1999/xlink">
    <!-- Generator: Sketch 40.2 (33826) - http://www.bohemiancoding.com/sketch -->
    <title>notifications</title>
    <desc>Created with Sketch.</desc>
    <defs>
        <linearGradient x1="50%" y1="0%" x2="50%" y2="100%" id="linearGradient-1">
            <stop stop-color="#FFFFFF" stop-opacity="0.2" offset="0%"></stop>
            <stop stop-color="#000000" stop-opacity="0.2" offset="100%"></stop>
        </linearGradient>
        <path d="M552.268958,552.268958 C600,504.537813 600,431.458333 600,300 C600,168.541667 600,95.4621875 552.268958,47.7310417 C504.537813,0 431.458333,0 300,0 C168.541667,0 95.4621875,0 47.7310417,47.7310417 C0,95.4621875 0,168.541667 0,300 C0,431.458333 0,504.537813 47.7310417,552.268958 C95.4621875,600 168.541667,600 300,600 C431.458333,600 504.537813,600 552.268958,552.268958 Z" id="path-2"></path>
    </defs>
    <g id="Page-1" stroke="none" stroke-width="1" fill="none" fill-rule="evenodd">
        <g id="notifications" transform="translate(3.000000, 3.000000)">
            <g id="Squircle2-Copy-6">
                <g id="Shape">
                    <use fill="#1DB291" xlink:href="#path-2"></use>
                    <use stroke="#000000" stroke-width="4.04" fill="url(#linearGradient-1)" xlink:href="#path-2"></use>
                </g>
            </g>
            <g id="speech-bubble-3" opacity="0.9" transform="translate(110.000000, 124.000000)" fill="#FFFFFF">
                <g id="Capa_1">
                    <g id="Group">
                        <path d="M388.606707,4.49114297 C383.734146,0.0143895645 377.823171,-0.944914736 373.669512,2.09288222 C366.240854,7.52893992 358.652439,12.9649976 352.262195,19.5202437 C342.037805,30.072591 332.771951,41.5842426 323.026829,52.7761261 C316.87622,55.733981 311.364634,59.4113142 306.092683,63.4084154 C298.903659,56.4534592 291.634756,49.4985031 285.164634,41.9040107 C284.365854,41.0246484 281.090854,41.6641846 279.333537,42.6234889 C275.739024,44.5420975 274.460976,47.9796046 274.30122,51.3371696 C273.742073,62.4491111 277.496341,71.4026179 283.327439,78.5974002 L295.868293,94.3459791 L295.868293,94.3459791 C299.942073,99.3823267 307.290854,100.181747 312.403049,96.1846457 L314.639634,94.4259211 C326.781098,84.6729941 338.603049,74.6002989 348.348171,62.2892271 C350.504878,60.5305025 352.741463,58.85172 354.818293,57.0929954 C368.157927,45.6612859 380.858537,33.5900401 390.843293,19.0405915 C393.718902,14.8836062 394.038415,9.3676065 388.606707,4.49114297 L388.606707,4.49114297 Z" id="Shape"></path>
                        <path d="M366.720122,228.408755 C366.40061,216.097683 366.081098,203.786611 365.681707,191.395598 C364.723171,161.577222 361.04878,136.795194 353.859756,139.033571 C347.229878,141.032122 342.357317,162.216758 341.638415,192.834554 C341.318902,206.584582 340.919512,220.334611 340.6,234.164581 L340.440244,239.360813 L340.360366,241.918957 L340.20061,243.677682 C339.960976,245.916059 339.481707,248.154435 338.523171,250.232928 C336.845732,254.389913 333.730488,257.987304 330.056098,260.465507 C328.218902,261.664638 326.221951,262.703884 324.065244,263.263478 C323.585976,263.503304 323.026829,263.503304 322.467683,263.663188 C321.908537,263.823072 321.429268,263.903014 321.109756,263.903014 C320.630488,263.903014 320.470732,264.062898 319.831707,264.062898 L317.27561,264.14284 L297.22622,263.903014 C283.407317,263.74313 269.668293,263.74313 255.84939,263.74313 C212.635366,263.903014 169.421341,264.302724 126.287195,264.862319 L125.967683,264.862319 C123.012195,264.942261 119.976829,266.061449 117.740244,268.379768 L70.1329268,317.384229 L68.2957317,319.222896 L67.9762195,293.561506 C68.2957317,288.045506 68.5353659,282.609448 68.854878,277.013506 L68.854878,276.933564 C69.1743902,271.097796 64.6213415,266.141391 58.7902439,265.821623 L57.5920732,265.741681 L50.4030488,265.341971 C48.4060976,265.182087 47.1280488,264.942261 45.4506098,264.54255 C42.4152439,263.74313 39.5396341,262.304174 37.1432927,260.385565 C34.7469512,258.466957 32.75,256.068696 31.3121951,253.430609 C30.9128049,252.791073 30.5932927,252.071595 30.3536585,251.432058 C30.0341463,250.792522 29.7945122,250.073044 29.6347561,249.353566 C29.1554878,248.074493 28.9158537,246.235827 28.8359756,245.436406 C28.7560976,245.276522 28.7560976,243.757624 28.6762195,242.558494 L28.6762195,241.679131 L28.6762195,241.439305 L28.6762195,241.359363 L28.6762195,241.918957 L28.6762195,241.439305 L28.7560976,239.600639 L28.9957317,232.325914 L29.395122,217.856408 C29.6347561,208.183423 29.7945122,198.510438 30.0341463,188.837453 C30.7530488,150.065571 30.9128049,111.213746 30.9128049,72.2819802 L30.9128049,57.6525896 L30.9128049,50.6176914 C30.9926829,49.258677 31.072561,47.9796046 31.3920732,46.7005322 C32.5103659,41.5842426 35.945122,36.8676631 40.5780488,34.2295763 C41.1371951,33.9098082 41.7762195,33.6699821 42.3353659,33.350214 L44.172561,32.6307358 L46.0896341,32.1510836 C46.5689024,32.1510836 46.6487805,31.9911996 47.447561,31.9112576 L50.3231707,31.7513735 L53.997561,31.7513735 L61.2664634,31.7513735 L90.5018293,31.6714315 C129.402439,31.5914895 168.303049,31.6714315 207.12378,32.0711416 C214.312805,32.1510836 225.495732,29.3531128 229.010366,27.4345042 C236.039634,23.5173449 226.933537,20.2397219 213.27439,17.7615191 C168.462805,9.52749055 113.906098,5.93009942 58.5506098,4.97079512 L53.5981707,4.89085309 L51.1219512,4.81091107 L50.4829268,4.81091107 L50.1634146,4.81091107 L49.2847561,4.81091107 L48.0865854,4.89085309 C47.2079268,4.89085309 46.5689024,4.89085309 45.5304878,4.97079512 L41.8560976,5.45044727 C39.4597561,5.85015739 37.4628049,6.32980954 35.3060976,6.96934574 C26.9189024,9.60743257 19.4103659,14.7237222 13.7390244,21.4388523 C10.9432927,24.7964173 8.62682927,28.6336345 6.78963415,32.6307358 C5.11219512,36.7077791 3.83414634,41.0246484 3.275,45.4214598 C3.1152439,46.5406481 3.1152439,47.6598365 2.9554878,48.6990828 C2.87560976,49.8182712 2.79573171,51.0174015 2.79573171,51.7368798 L2.71585366,56.6932853 L2.55609756,66.6060964 C2.07682927,92.9869647 1.59756098,119.447775 1.11829268,145.828643 C0.798780488,172.289454 0.479268293,198.670322 0.0798780488,225.131132 L0,235.043943 L0,240.000349 L0,241.279421 L0,241.918957 L0.0798780488,243.277972 L0.159756098,245.756175 C0.319512195,247.674783 0.718902439,251.192232 1.27804878,253.270725 C1.75731707,255.589044 2.47621951,257.82742 3.35487805,260.065797 C5.11219512,264.462608 7.34878049,268.699536 10.3042683,272.456811 C16.0554878,279.971361 23.9634146,285.887071 32.9896341,289.084752 C36.104878,290.283883 39.379878,291.083303 42.7347561,291.562955 C42.8146341,300.676346 42.8945122,309.869679 42.8945122,318.98307 L43.0542683,329.535417 L43.0542683,332.173504 L43.0542683,332.81304 L43.0542683,333.132808 L43.1341463,334.571764 L43.2140244,335.451127 C43.3737805,336.570315 43.6134146,337.769445 43.9329268,338.888634 C46.0097561,345.84359 51.7609756,350.799995 58.1512195,352.318894 C61.3463415,353.118314 64.9408537,353.118314 68.2957317,352.079068 C71.6506098,351.119764 74.6859756,349.121213 76.8426829,347.04272 L80.5170732,343.285445 L87.7859756,335.690953 C99.6878049,324.179301 111.669512,312.587707 123.65122,301.076056 L132.597561,292.362375 C180.045122,292.921969 227.412805,293.161795 274.780488,293.001911 L311.843902,292.762085 L316.476829,292.682143 L318.393902,292.602201 L319.512195,292.522259 L321.908537,292.362375 C327.340244,291.722839 331.493902,290.683593 335.647561,289.00481 C343.954878,285.727187 351.303659,280.051303 356.655488,273.096347 C362.087195,266.061449 365.601829,257.587594 366.640244,248.793972 C367.039634,246.635537 366.959756,244.39716 367.039634,242.238725 L366.959756,237.522146 L366.720122,228.408755 L366.720122,228.408755 Z" id="Shape"></path>
                    </g>
                </g>
            </g>
        </g>
    </g>
</svg>