<svg width="48" height="48" viewBox="0 0 48 48" fill="none" xmlns="http://www.w3.org/2000/svg">
<rect width="48" height="48" fill="url(#paint0_linear_221_2342)"/>
<path d="M9 24C9 17.636 9 14.4541 11.1967 12.477C13.3934 10.5 16.9289 10.5 24 10.5C31.071 10.5 34.6066 10.5 36.8032 12.477C39 14.4541 39 17.636 39 24C39 30.3639 39 33.546 36.8032 35.523C34.6066 37.5 31.071 37.5 24 37.5C16.9289 37.5 13.3934 37.5 11.1967 35.523C9 33.546 9 30.3639 9 24Z" stroke="white" stroke-width="2.25" stroke-linecap="round" stroke-linejoin="round"/>
<path d="M13.5 30.75C15.3125 26.8784 22.0683 26.6236 24 30.75M21.75 20.25C21.75 21.9069 20.4069 23.25 18.75 23.25C17.0931 23.25 15.75 21.9069 15.75 20.25C15.75 18.5931 17.0931 17.25 18.75 17.25C20.4069 17.25 21.75 18.5931 21.75 20.25Z" stroke="white" stroke-width="2.25" stroke-linecap="round"/>
<path d="M28.5 21H34.5" stroke="white" stroke-width="2.25" stroke-linecap="round" stroke-linejoin="round"/>
<path d="M28.5 27H34.5" stroke="white" stroke-width="2.25" stroke-linecap="round" stroke-linejoin="round"/>
<defs>
<linearGradient id="paint0_linear_221_2342" x1="24" y1="0" x2="24" y2="48" gradientUnits="userSpaceOnUse">
<stop stop-color="#FACA15"/>
<stop offset="1" stop-color="#FF5A1F"/>
</linearGradient>
</defs>
</svg>
