<svg width="80" height="80" viewBox="0 0 80 80" fill="none" xmlns="http://www.w3.org/2000/svg">
<rect width="80" height="80" fill="url(#paint0_linear_830_8279)"/>
<path d="M51 27.5C51 33.5751 46.0751 38.5 40 38.5C33.9249 38.5 29 33.5751 29 27.5C29 21.4249 33.9249 16.5 40 16.5C46.0751 16.5 51 21.4249 51 27.5Z" fill="black" fill-opacity="0.2"/>
<path d="M36 53.5C36 59.5751 31.0751 64.5 25 64.5C18.9249 64.5 14 59.5751 14 53.5C14 47.4249 18.9249 42.5 25 42.5C31.0751 42.5 36 47.4249 36 53.5Z" fill="black" fill-opacity="0.2"/>
<path d="M66 53.5C66 59.5751 61.0751 64.5 55 64.5C48.9249 64.5 44 59.5751 44 53.5C44 47.4249 48.9249 42.5 55 42.5C61.0751 42.5 66 47.4249 66 53.5Z" fill="black" fill-opacity="0.2"/>
<circle cx="40" cy="26.5" r="11" fill="url(#paint1_linear_830_8279)"/>
<circle cx="25" cy="52.5" r="11" fill="url(#paint2_linear_830_8279)"/>
<circle cx="55" cy="52.5" r="11" fill="url(#paint3_linear_830_8279)"/>
<defs>
<linearGradient id="paint0_linear_830_8279" x1="40" y1="0" x2="40" y2="80" gradientUnits="userSpaceOnUse">
<stop stop-color="#EA580C"/>
<stop offset="1" stop-color="#7C2D12"/>
</linearGradient>
<linearGradient id="paint1_linear_830_8279" x1="40" y1="15.5" x2="40" y2="37.5" gradientUnits="userSpaceOnUse">
<stop stop-color="#FDE68A"/>
<stop offset="1" stop-color="#D97706"/>
</linearGradient>
<linearGradient id="paint2_linear_830_8279" x1="25" y1="41.5" x2="25" y2="63.5" gradientUnits="userSpaceOnUse">
<stop stop-color="#F9FAFB"/>
<stop offset="1" stop-color="#9CA3AF"/>
</linearGradient>
<linearGradient id="paint3_linear_830_8279" x1="55" y1="41.5" x2="55" y2="63.5" gradientUnits="userSpaceOnUse">
<stop stop-color="#F9FAFB"/>
<stop offset="1" stop-color="#9CA3AF"/>
</linearGradient>
</defs>
</svg>
