<svg width="48" height="48" viewBox="0 0 48 48" fill="none" xmlns="http://www.w3.org/2000/svg">
<rect width="48" height="48" fill="url(#paint0_linear_214_1464)"/>
<path d="M19.7015 9.75C15.7021 9.84113 13.3661 10.2218 11.77 11.8124C10.3731 13.2045 9.90609 15.1613 9.75 18.3M28.2985 9.75C32.298 9.84113 34.634 10.2218 36.2301 11.8124C37.6269 13.2045 38.0939 15.1613 38.25 18.3M28.2985 38.25C32.298 38.1588 34.634 37.7781 36.2301 36.1876C37.6269 34.7955 38.0939 32.8386 38.25 29.7M19.7015 38.25C15.7021 38.1588 13.3661 37.7781 11.77 36.1876C10.3731 34.7955 9.90609 32.8386 9.75 29.7" stroke="white" stroke-width="2.5" stroke-linecap="round" stroke-linejoin="round"/>
<path d="M17.25 31.5C20.7476 27.8367 27.2148 27.6642 30.75 31.5M27.7427 20.25C27.7427 22.321 26.0613 24 23.9872 24C21.9133 24 20.232 22.321 20.232 20.25C20.232 18.1789 21.9133 16.5 23.9872 16.5C26.0613 16.5 27.7427 18.1789 27.7427 20.25Z" stroke="white" stroke-width="2.5" stroke-linecap="round"/>
<defs>
<linearGradient id="paint0_linear_214_1464" x1="24" y1="0" x2="24" y2="48" gradientUnits="userSpaceOnUse">
<stop stop-color="#F97316"/>
<stop offset="1" stop-color="#DC2626"/>
</linearGradient>
</defs>
</svg>
