<svg width="96" height="96" viewBox="0 0 96 96" fill="none" xmlns="http://www.w3.org/2000/svg">
<g clip-path="url(#clip0_69_709)">
<path d="M80 0H16C7.16344 0 0 7.16344 0 16V80C0 88.8366 7.16344 96 16 96H80C88.8366 96 96 88.8366 96 80V16C96 7.16344 88.8366 0 80 0Z" fill="url(#paint0_linear_69_709)"/>
<path d="M61.75 31.75C61.75 29.0306 60.9436 26.372 59.4328 24.111C57.9218 21.8498 55.7744 20.0874 53.262 19.0467C50.7494 18.006 47.9848 17.7337 45.3176 18.2642C42.6502 18.7948 40.2002 20.1044 38.2772 22.0272C36.3544 23.9502 35.0448 26.4002 34.5142 29.0676C33.9836 31.7348 34.256 34.4994 35.2966 37.012C36.3374 39.5244 38.0998 41.6718 40.361 43.1828C42.622 44.6936 45.2806 45.5 48 45.5C51.6454 45.4958 55.1404 44.0458 57.7182 41.4682C60.2958 38.8904 61.7458 35.3954 61.75 31.75ZM48 40.5C46.2694 40.5 44.5776 39.9868 43.1388 39.0254C41.6998 38.064 40.5784 36.6974 39.916 35.0984C39.2538 33.4996 39.0806 31.7402 39.4182 30.043C39.7558 28.3456 40.5892 26.7866 41.8128 25.5628C43.0366 24.3392 44.5956 23.5058 46.293 23.1682C47.9902 22.8306 49.7496 23.0038 51.3484 23.666C52.9474 24.3284 54.314 25.4498 55.2754 26.8888C56.2368 28.3276 56.75 30.0194 56.75 31.75C56.75 34.0706 55.8282 36.2962 54.1872 37.9372C52.5462 39.5782 50.3206 40.5 48 40.5ZM66.75 48C64.0306 48 61.372 48.8064 59.111 50.3174C56.8498 51.8282 55.0874 53.9756 54.0466 56.4882C53.006 59.0006 52.7336 61.7652 53.2642 64.4324C53.7948 67.0998 55.1044 69.5498 57.0272 71.4728C58.9502 73.3956 61.4002 74.7052 64.0676 75.2358C66.7348 75.7664 69.4994 75.494 72.012 74.4534C74.5244 73.4126 76.6718 71.6502 78.1828 69.389C79.6936 67.128 80.5 64.4694 80.5 61.75C80.4958 58.1046 79.0458 54.6096 76.4682 52.0318C73.8904 49.4542 70.3954 48.0042 66.75 48ZM66.75 70.5C65.0194 70.5 63.3276 69.9868 61.8888 69.0254C60.4498 68.0638 59.3284 66.6974 58.666 65.0984C58.0038 63.4996 57.8306 61.7402 58.1682 60.043C58.5058 58.3456 59.3392 56.7866 60.5628 55.5628C61.7866 54.3392 63.3456 53.5058 65.043 53.1682C66.7402 52.8306 68.4996 53.0038 70.0984 53.666C71.6974 54.3284 73.0638 55.4498 74.0254 56.8888C74.9868 58.3276 75.5 60.0194 75.5 61.75C75.5 64.0706 74.5782 66.2962 72.9372 67.9372C71.2962 69.5782 69.0706 70.5 66.75 70.5ZM29.25 48C26.5306 48 23.872 48.8064 21.611 50.3174C19.3497 51.8282 17.5874 53.9756 16.5467 56.4882C15.506 59.0006 15.2337 61.7652 15.7642 64.4324C16.2948 67.0998 17.6043 69.5498 19.5273 71.4728C21.4502 73.3956 23.9002 74.7052 26.5676 75.2358C29.2348 75.7664 31.9994 75.494 34.512 74.4534C37.0244 73.4126 39.1718 71.6502 40.6828 69.389C42.1936 67.128 43 64.4694 43 61.75C42.9958 58.1046 41.5458 54.6096 38.9682 52.0318C36.3904 49.4542 32.8954 48.0042 29.25 48ZM29.25 70.5C27.5194 70.5 25.8276 69.9868 24.3888 69.0254C22.9498 68.0638 21.8284 66.6974 21.166 65.0984C20.5038 63.4996 20.3306 61.7402 20.6682 60.043C21.0058 58.3456 21.8392 56.7866 23.0628 55.5628C24.2866 54.3392 25.8456 53.5058 27.543 53.1682C29.2402 52.8306 30.9996 53.0038 32.5984 53.666C34.1974 54.3284 35.564 55.4498 36.5254 56.8888C37.4868 58.3276 38 60.0194 38 61.75C38 64.0706 37.0782 66.2962 35.4372 67.9372C33.7962 69.5782 31.5706 70.5 29.25 70.5Z" fill="white"/>
</g>
<defs>
<linearGradient id="paint0_linear_69_709" x1="48" y1="0" x2="48" y2="96" gradientUnits="userSpaceOnUse">
<stop stop-color="#F97316"/>
<stop offset="1" stop-color="#DC2626"/>
</linearGradient>
<clipPath id="clip0_69_709">
<rect width="96" height="96" fill="white"/>
</clipPath>
</defs>
</svg>
