<?xml version="1.0" encoding="UTF-8"?>
<svg width="606px" height="606px" viewBox="0 0 606 606" version="1.1" xmlns="http://www.w3.org/2000/svg" xmlns:xlink="http://www.w3.org/1999/xlink">
    <!-- Generator: Sketch 40.2 (33826) - http://www.bohemiancoding.com/sketch -->
    <title>accounts</title>
    <desc>Created with Sketch.</desc>
    <defs>
        <linearGradient x1="50%" y1="0%" x2="50%" y2="100%" id="linearGradient-1">
            <stop stop-color="#FFFFFF" stop-opacity="0.2" offset="0%"></stop>
            <stop stop-color="#000000" stop-opacity="0.2" offset="100%"></stop>
        </linearGradient>
        <path d="M552.268958,552.268958 C600,504.537813 600,431.458333 600,300 C600,168.541667 600,95.4621875 552.268958,47.7310417 C504.537813,0 431.458333,0 300,0 C168.541667,0 95.4621875,0 47.7310417,47.7310417 C0,95.4621875 0,168.541667 0,300 C0,431.458333 0,504.537813 47.7310417,552.268958 C95.4621875,600 168.541667,600 300,600 C431.458333,600 504.537813,600 552.268958,552.268958 Z" id="path-2"></path>
    </defs>
    <g id="Page-1" stroke="none" stroke-width="1" fill="none" fill-rule="evenodd">
        <g id="accounts" transform="translate(3.000000, 3.000000)">
            <g id="Squircle2-Copy-6">
                <g id="Shape">
                    <use fill="#F06563" xlink:href="#path-2"></use>
                    <use stroke="#000000" stroke-width="4.04" fill="url(#linearGradient-1)" xlink:href="#path-2"></use>
                </g>
            </g>
            <g id="user-1" opacity="0.9" transform="translate(102.000000, 100.000000)" fill="#FFFFFF">
                <g id="Capa_1">
                    <path d="M85.0904665,299.148073 C83.2243408,300.689655 81.4393509,302.312373 79.735497,303.935091 C78.9241379,304.74645 78.1127789,305.557809 77.3014199,306.288032 L76.7334686,306.855984 L76.5711968,307.018256 L76.2466531,307.261663 L76.2466531,307.261663 L76.1655172,307.342799 L75.9221095,307.667343 L74.5427992,309.208925 C73.5691684,310.344828 72.7578093,311.48073 72.0275862,312.535497 C71.6219067,312.129817 71.2162272,311.643002 70.8105477,311.237323 C68.2141988,308.803245 66.348073,305.801217 64.0762677,303.042596 C61.9667343,300.20284 59.5326572,297.606491 57.6665314,294.604462 C54.0154158,288.600406 49.715213,282.839757 46.7943205,276.348884 C45.2527383,273.184584 43.4677485,270.10142 42.0073022,266.855984 L38.1127789,256.957404 C26.0235294,226.93712 24.5630832,198.782961 16.5306288,201.217039 C13.2040568,202.352941 10.6077079,209.249493 9.06612576,220.851927 C8.90385396,226.612576 8.90385396,233.509128 9.55294118,241.298174 C10.2020284,245.111562 10.9322515,249.168357 11.8247465,253.46856 C12.3115619,255.578093 12.6361055,257.768763 13.2851927,259.959432 C14.0154158,262.150101 14.7456389,264.340771 15.4758621,266.612576 C20.4251521,283.002028 28.6198783,298.174442 37.7070994,312.697769 C42.7375254,319.675456 47.4434077,326.896552 53.4474645,333.144016 L57.7476673,338.01217 C59.1269777,339.634888 60.5874239,341.257606 62.210142,342.718053 L71.6219067,351.561866 C84.7659229,362.758621 98.9647059,372.900609 114.786207,380.20284 C122.412982,384.340771 130.76998,387.018256 138.88357,390.020284 C142.940365,391.48073 147.240568,392.292089 151.378499,393.509128 C155.597566,394.563895 159.654361,395.862069 164.197972,396.348884 L174.907911,397.890467 L180.26288,398.62069 L185.131034,398.864097 L194.867343,399.269777 L197.30142,399.350913 L198.518458,399.432049 L199.167546,399.432049 L199.897769,399.432049 L199.978905,399.432049 L200.141176,399.432049 L200.46572,399.432049 L205.658418,399.188641 C212.636105,398.701826 219.613793,398.782961 226.429209,397.403651 C233.325761,396.267748 240.222312,395.456389 246.875456,393.346856 C273.893712,386.53144 299.289249,373.874239 320.952535,356.673428 C342.615822,339.472617 360.790264,317.809331 373.285193,293.225152 L377.666531,283.894523 C379.045842,280.730223 380.749696,277.728195 381.723327,274.401623 L385.131034,264.665314 L386.834888,259.79716 C387.321704,258.174442 387.646247,256.470588 388.133063,254.766734 L390.56714,244.787018 C390.972819,243.083164 391.459635,241.460446 391.703043,239.756592 L392.433266,234.482759 C393.325761,227.505071 394.705071,220.283976 394.623935,214.036511 C397.463692,189.939148 395.51643,164.381339 388.538742,140.365112 C381.642191,116.186613 369.715213,93.306288 353.812576,73.5091278 C338.153347,53.7931034 318.356187,36.9979716 295.881542,24.5841785 L278.599594,16.1460446 C272.595538,13.7931034 266.591481,11.6024341 260.587424,9.41176471 C254.421095,7.62677485 248.173631,6.0851927 242.007302,4.46247465 C235.597566,3.1643002 228.863286,2.35294118 222.291278,1.29817444 L219.776065,0.973630832 L217.585396,0.811359026 L213.122921,0.567951318 L204.279108,0.162271805 L202.088438,0.0811359026 L200.952535,0 L199.816633,0 L199.492089,0 L198.924138,0 L194.13712,0.243407708 L184.563083,0.730223124 L179.776065,0.973630832 C178.153347,1.13590264 176.611765,1.46044625 174.989047,1.62271805 L165.496146,3.0831643 C159.08641,3.81338742 152.920081,5.76064909 146.672617,7.30223124 C121.926166,14.1176471 98.4778905,25.801217 78.1939148,41.4604462 C57.8288032,57.1196755 40.4657201,76.5922921 27.3217039,98.5801217 C25.6989858,101.338742 23.83286,104.016227 22.4535497,106.855984 L18.2344828,115.537525 C16.8551724,118.458418 15.3135903,121.298174 14.1776876,124.219067 L10.7699797,133.225152 C9.71521298,136.227181 8.49817444,139.229209 7.52454361,142.231237 L5.09046653,151.561866 L2.65638945,160.892495 L1.0336714,170.791075 C-0.994726166,180.851927 1.68275862,193.509128 3.38661258,197.890467 C7.03772819,206.247465 10.6077079,195.780933 14.4210953,179.959432 C21.5610548,153.914807 33.7314402,127.626775 51.5002028,104.016227 C53.5286004,100.933063 56.2060852,98.336714 58.5590264,95.4158215 L62.1290061,91.1967546 L63.9139959,89.0872211 L65.9423935,87.0588235 C68.6198783,84.4624746 71.2162272,81.7849899 73.893712,79.1075051 L75.9221095,77.0791075 L78.1127789,75.2941176 L82.4941176,71.643002 C88.0924949,66.5314402 94.5022312,62.3935091 100.66856,58.0121704 C103.751724,55.7403651 107.240568,54.1176471 110.486004,52.1703854 C113.812576,50.3042596 116.976876,48.1947262 120.546856,46.7342799 C136.855172,38.296146 154.786207,33.2657201 172.798377,30.6693712 C177.341988,30.1825558 181.804462,29.127789 186.429209,29.2089249 L193.244625,28.9655172 L196.652333,28.8843813 L198.356187,28.8032454 L199.248682,28.8032454 L199.654361,28.8032454 L199.816633,28.8032454 L214.096552,29.7768763 L217.747667,30.020284 C218.964706,30.1014199 219.938337,30.3448276 221.074239,30.5882353 L227.565112,31.7241379 L234.055984,32.7789047 C236.246653,33.1845842 238.437323,33.9148073 240.627992,34.4827586 L247.2,36.2677485 C249.390669,36.8356998 251.581339,37.4036511 253.690872,38.296146 L266.348073,43.1643002 C270.404868,45.1115619 274.461663,47.2210953 278.518458,49.168357 C294.421095,57.7687627 308.944422,68.8032454 321.520487,81.703854 C334.096552,94.6855984 344.23854,109.776876 352.189858,125.841785 L355.110751,131.926978 L356.571197,134.929006 L357.707099,138.093306 L362.25071,150.750507 L365.577282,163.813387 C365.82069,164.868154 366.145233,166.004057 366.388641,167.058824 L366.875456,170.385396 L367.849087,177.03854 L368.903854,183.691684 L369.228398,190.425963 L369.552941,197.160243 L369.715213,200.567951 L369.715213,200.892495 L369.715213,201.622718 L369.634077,203.488844 L368.98499,218.174442 C368.498174,222.718053 367.686815,226.774848 367.118864,231.075051 C364.116836,248.438134 358.437323,266.044625 350.16146,282.109533 C341.723327,296.795132 331.094523,310.10142 319.005274,321.78499 C318.275051,319.675456 317.139148,317.565923 315.597566,315.699797 C313.244625,312.697769 310.891684,309.614604 308.214199,306.693712 C302.940365,300.689655 297.017444,294.929006 290.607708,289.411765 C284.197972,283.894523 277.30142,278.701826 270.080325,273.752535 C266.429209,271.318458 262.778093,268.884381 258.964706,266.612576 L253.204057,263.204868 L252.717241,262.96146 L252.879513,257.525355 L253.285193,244.624746 L253.853144,225.070994 C256.855172,222.231237 259.370385,218.904665 261.236511,215.172414 C262.696957,212.251521 263.751724,209.087221 264.319675,205.841785 C264.644219,204.219067 264.806491,202.596349 264.887627,200.973631 L264.968763,197.403651 L265.61785,172.413793 L265.942394,159.918864 L266.104665,153.6714 L266.185801,150.507099 L266.185801,148.965517 L266.104665,146.693712 L266.023529,143.529412 C265.942394,142.231237 265.698986,140.527383 265.455578,138.985801 C265.131034,135.740365 264.319675,133.387424 263.670588,130.628803 C261.966734,125.35497 259.776065,120.162272 256.774037,115.537525 C250.76998,106.206897 242.331846,98.4178499 232.189858,93.5496957 C227.240568,91.0344828 221.804462,89.3306288 216.287221,88.356998 C210.851116,87.3022312 204.603651,87.3833671 201.033671,87.3833671 L194.786207,87.464503 L193.650304,87.464503 L193.244625,87.464503 L192.433266,87.5456389 L190.891684,87.6267748 C189.836917,87.7079108 188.944422,87.7079108 187.159432,87.9513185 L182.534686,88.6815416 C181.074239,89.0060852 179.776065,89.3306288 178.396755,89.7363083 C175.638134,90.3853955 173.122921,91.5212982 170.526572,92.494929 C160.384584,97.0385396 151.459635,104.340771 145.293306,113.509128 C141.155375,119.026369 137.991075,125.192698 135.881542,131.764706 C135.394726,133.46856 134.907911,135.091278 134.502231,136.795132 L133.609736,141.906694 C133.204057,145.233266 133.041785,149.208925 133.041785,151.399594 L132.392698,186.93712 L132.311562,195.780933 L132.311562,200.730223 L132.311562,201.947262 L132.473834,204.219067 C132.636105,205.679513 132.798377,206.815416 133.122921,208.032454 C134.502231,214.766734 137.828803,221.095335 142.372414,226.125761 L142.372414,250.791075 L142.45355,259.959432 L139.289249,261.663286 C120.141176,272.616633 101.966734,284.94929 85.0904665,299.148073 L85.0904665,299.148073 Z M247.767951,260.527383 C247.60568,260.446247 247.281136,260.283976 247.767951,260.527383 L247.767951,260.527383 L247.767951,260.527383 Z M143.83286,292.089249 C147.565112,290.141988 151.297363,288.194726 155.029615,286.3286 L160.627992,283.56998 L162.007302,282.920892 L162.737525,282.596349 L163.143205,282.434077 L163.305477,282.352941 C163.711156,282.109533 164.116836,281.947262 164.522515,281.703854 C167.686815,279.756592 170.120892,276.673428 171.256795,273.184584 C171.581339,272.292089 171.743611,271.48073 171.905882,270.425963 C171.987018,269.858012 172.068154,268.803245 171.987018,269.046653 L171.987018,268.397566 L171.987018,267.586207 C172.14929,258.904665 172.14929,250.223124 172.14929,241.622718 C172.068154,234.158215 171.987018,226.693712 171.987018,219.310345 L171.987018,218.823529 C171.905882,214.685598 169.796349,210.628803 166.064097,208.275862 C163.873428,206.896552 162.25071,204.624746 161.682759,202.109533 C161.520487,201.135903 161.520487,201.866126 161.439351,199.756592 L161.358215,195.618661 L161.195943,186.53144 L160.46572,150.344828 C160.384584,148.640974 160.46572,147.829615 160.46572,146.612576 C160.384584,145.476673 160.627992,144.421907 160.790264,143.286004 C161.114807,141.095335 161.601623,138.904665 162.331846,136.795132 C163.792292,132.576065 166.145233,128.600406 169.228398,125.192698 C172.230426,121.78499 176.043813,118.945233 180.181744,116.997972 C182.291278,116.024341 184.400811,115.212982 186.672617,114.64503 C187.808519,114.320487 188.619878,114.239351 189.674645,113.995943 C190.080325,113.833671 190.810548,113.833671 191.621907,113.752535 L193.893712,113.590264 L203.143205,114.401623 L205.577282,114.64503 L207.443408,114.969574 C208.660446,115.131846 209.877485,115.375254 211.013387,115.699797 C215.71927,116.916836 220.019473,119.107505 223.670588,122.028398 C227.321704,124.94929 230.323732,128.600406 232.433266,132.576065 C233.001217,133.549696 233.488032,134.604462 233.893712,135.659229 C234.380527,136.63286 234.705071,137.768763 235.029615,138.823529 C235.678702,140.933063 236.003245,143.286004 236.165517,144.74645 C236.246653,144.989858 236.246653,145.963489 236.246653,146.774848 L236.327789,149.208925 L236.246653,153.346856 L236.003245,163.245436 L235.678702,183.042596 L235.597566,192.941176 L235.597566,197.890467 L235.597566,200.162272 C235.597566,200.40568 235.597566,200.649087 235.51643,200.892495 C235.273022,202.839757 234.13712,204.624746 232.433266,205.760649 L232.189858,205.922921 C227.970791,208.843813 225.21217,213.711968 225.21217,219.229209 L225.293306,255.496957 L225.374442,264.584178 L225.374442,266.855984 L225.374442,267.991886 L225.374442,268.640974 C225.374442,270.10142 225.61785,271.643002 225.942394,273.103448 C226.672617,276.024341 228.214199,278.782961 230.323732,280.973631 C231.459635,282.109533 232.35213,282.920892 233.974848,283.975659 L235.029615,284.543611 L235.678702,284.868154 L235.92211,284.94929 L237.788235,285.841785 C242.899797,288.356998 248.011359,291.115619 253.122921,293.955375 C263.264909,299.634888 273.163489,305.801217 282.656389,312.454361 C287.362272,315.780933 292.14929,319.188641 296.530629,322.677485 C298.640162,324.300203 300.993103,326.247465 303.346045,328.194726 L305.049899,329.655172 C305.131034,329.817444 305.374442,329.979716 305.536714,330.141988 C305.861258,330.547667 306.185801,330.872211 306.429209,331.359026 C306.672617,331.68357 307.078296,332.008114 307.646247,332.332657 C266.834888,365.35497 210.688844,377.849899 160.060041,365.030426 L149.836917,362.434077 L139.938337,358.864097 L134.989047,357.079108 C133.366329,356.43002 131.824746,355.618661 130.202028,354.888438 L120.627992,350.425963 C108.701014,343.691684 96.9363083,336.308316 86.7943205,326.977688 C87.9302231,326.166329 89.1472617,325.436105 90.2020284,324.94929 C93.2851927,323.326572 97.0985801,320.730223 100.911968,318.21501 C114.380527,308.559838 128.98499,299.959432 143.83286,292.089249 L143.83286,292.089249 Z" id="Shape"></path>
                </g>
            </g>
        </g>
    </g>
</svg>