<svg width="320" height="320" viewBox="0 0 320 320" fill="none" xmlns="http://www.w3.org/2000/svg">
<g clip-path="url(#clip0_1010_8228)">
<path d="M160 0C281.326 0 320 38.6737 320 160C320 281.326 281.326 320 160 320C38.6736 320 0 281.326 0 160C0 38.6737 38.6736 0 160 0Z" fill="url(#paint0_linear_1010_8228)"/>
<path d="M160 2C220.573 2 259.85 11.6833 284.083 35.9168C308.317 60.1504 318 99.4272 318 160C318 220.573 308.317 259.85 284.083 284.083C259.85 308.317 220.573 318 160 318C99.4272 318 60.1504 308.317 35.9168 284.083C11.6833 259.85 2 220.573 2 160C2 99.4272 11.6833 60.1504 35.9168 35.9168C60.1504 11.6833 99.4272 2 160 2Z" stroke="#F8FAFC" stroke-opacity="0.2" stroke-width="4"/>
<g clip-path="url(#clip1_1010_8228)">
<g clip-path="url(#clip2_1010_8228)">
<mask id="mask0_1010_8228" style="mask-type:alpha" maskUnits="userSpaceOnUse" x="66" y="66" width="188" height="188">
<circle cx="159.952" cy="159.952" r="93.84" fill="#D9D9D9"/>
</mask>
<g mask="url(#mask0_1010_8228)">
<path d="M201.1 118H70C66.7 118 64 115.3 64 112V70C64 66.7 66.7 64 70 64H241C244.3 64 247 66.7 247 70V72.1C246.7 97.3 226.3 118 201.1 118Z" fill="#F0BF1A"/>
<path d="M247.3 256H64.6001V202H201.7C226.9 202 247.3 222.4 247.3 247.6V256V256Z" fill="#3EBEB0"/>
<path d="M190.3 187H54.3999V133H190.3C205.3 133 217.3 145 217.3 160C217.3 175 205 187 190.3 187V187Z" fill="#07A5DE"/>
<path d="M148 133H59.2V187H148C150.1 178.9 151.3 169.9 151.3 160C151.3 150.1 150.1 141.1 148 133Z" fill="#231F20"/>
<path d="M111.7 76.9004C95.5001 86.5004 82.0001 100.9 73.6001 118H144.4C137.2 101.5 125.8 87.7004 111.7 76.9004Z" fill="#D7A229"/>
<path d="M114.7 244.6C128.5 233.5 139.6 218.8 146.5 202H73.6001C82.6001 220 97.0001 235 114.7 244.6Z" fill="#019B8F"/>
</g>
</g>
</g>
</g>
<defs>
<linearGradient id="paint0_linear_1010_8228" x1="160" y1="0" x2="160" y2="320" gradientUnits="userSpaceOnUse">
<stop stop-color="#475569"/>
<stop offset="1" stop-color="#1E293B"/>
</linearGradient>
<clipPath id="clip0_1010_8228">
<rect width="320" height="320" fill="white"/>
</clipPath>
<clipPath id="clip1_1010_8228">
<rect width="240" height="240" fill="white" transform="translate(40 40)"/>
</clipPath>
<clipPath id="clip2_1010_8228">
<rect width="240" height="240" fill="white" transform="translate(40 40)"/>
</clipPath>
</defs>
</svg>
