<svg width="320" height="320" viewBox="0 0 320 320" fill="none" xmlns="http://www.w3.org/2000/svg">
<g clip-path="url(#clip0_937_7190)">
<path d="M160 0C281.326 0 320 38.6737 320 160C320 281.326 281.326 320 160 320C38.6736 320 0 281.326 0 160C0 38.6737 38.6736 0 160 0Z" fill="url(#paint0_linear_937_7190)"/>
<path d="M160 2C220.573 2 259.85 11.6833 284.083 35.9168C308.317 60.1504 318 99.4272 318 160C318 220.573 308.317 259.85 284.083 284.083C259.85 308.317 220.573 318 160 318C99.4272 318 60.1504 308.317 35.9168 284.083C11.6833 259.85 2 220.573 2 160C2 99.4272 11.6833 60.1504 35.9168 35.9168C60.1504 11.6833 99.4272 2 160 2Z" stroke="#F8FAFC" stroke-opacity="0.2" stroke-width="4"/>
<path d="M70 100C81.3743 100 85 114.503 85 160C85 205.497 81.3743 220 70 220C58.6257 220 55 205.497 55 160C55 114.503 58.6257 100 70 100Z" fill="url(#paint1_linear_937_7190)"/>
<path d="M115 140C126.374 140 130 154.503 130 200C130 245.497 126.374 260 115 260C103.626 260 100 245.497 100 200C100 154.503 103.626 140 115 140Z" fill="url(#paint2_linear_937_7190)"/>
<path d="M160 80C171.374 80 175 94.5026 175 140C175 185.497 171.374 200 160 200C148.626 200 145 185.497 145 140C145 94.5026 148.626 80 160 80Z" fill="url(#paint3_linear_937_7190)"/>
<path d="M205 120C216.374 120 220 134.503 220 180C220 225.497 216.374 240 205 240C193.626 240 190 225.497 190 180C190 134.503 193.626 120 205 120Z" fill="url(#paint4_linear_937_7190)"/>
<path d="M250 60C261.374 60 265 74.5026 265 120C265 165.497 261.374 180 250 180C238.626 180 235 165.497 235 120C235 74.5026 238.626 60 250 60Z" fill="url(#paint5_linear_937_7190)"/>
</g>
<defs>
<linearGradient id="paint0_linear_937_7190" x1="160" y1="0" x2="160" y2="320" gradientUnits="userSpaceOnUse">
<stop stop-color="#475569"/>
<stop offset="1" stop-color="#1E293B"/>
</linearGradient>
<linearGradient id="paint1_linear_937_7190" x1="70" y1="100" x2="70" y2="220" gradientUnits="userSpaceOnUse">
<stop stop-color="#34D399"/>
<stop offset="1" stop-color="#059669"/>
</linearGradient>
<linearGradient id="paint2_linear_937_7190" x1="115" y1="140" x2="115" y2="260" gradientUnits="userSpaceOnUse">
<stop stop-color="#FB7185"/>
<stop offset="1" stop-color="#E11D48"/>
</linearGradient>
<linearGradient id="paint3_linear_937_7190" x1="160" y1="80" x2="160" y2="200" gradientUnits="userSpaceOnUse">
<stop stop-color="#34D399"/>
<stop offset="1" stop-color="#059669"/>
</linearGradient>
<linearGradient id="paint4_linear_937_7190" x1="205" y1="120" x2="205" y2="240" gradientUnits="userSpaceOnUse">
<stop stop-color="#FB7185"/>
<stop offset="1" stop-color="#E11D48"/>
</linearGradient>
<linearGradient id="paint5_linear_937_7190" x1="250" y1="60" x2="250" y2="180" gradientUnits="userSpaceOnUse">
<stop stop-color="#34D399"/>
<stop offset="1" stop-color="#059669"/>
</linearGradient>
<clipPath id="clip0_937_7190">
<rect width="320" height="320" fill="white"/>
</clipPath>
</defs>
</svg>
