<?xml version="1.0" encoding="UTF-8"?>
<svg width="64px" height="64px" viewBox="0 0 64 64" version="1.1" xmlns="http://www.w3.org/2000/svg" xmlns:xlink="http://www.w3.org/1999/xlink">
    <!-- Generator: Sketch 54.1 (76490) - https://sketchapp.com -->
    <title>accounts copy</title>
    <desc>Created with Sketch.</desc>
    <defs>
        <path d="M32,64 C46.0222222,64 53.8173667,64 58.9086889,58.9086889 C64,53.8173667 64,46.0222222 64,32 C64,17.9777778 64,10.1826333 58.9086889,5.09131111 C53.8173667,0 46.0222222,0 32,0 C17.9777778,0 10.1826333,0 5.09131111,5.09131111 C0,10.1826333 0,17.9777778 0,32 C0,46.0222222 0,53.8173667 5.09131111,58.9086889 C10.1826333,64 17.9777778,64 32,64 Z" id="path-1"></path>
        <linearGradient x1="50%" y1="0%" x2="50%" y2="100%" id="linearGradient-3">
            <stop stop-color="#FDFEFF" offset="0%"></stop>
            <stop stop-color="#FBFCFD" stop-opacity="0.9" offset="100%"></stop>
        </linearGradient>
        <path d="M35.4597222,6.35419207 C35.8354167,6.49893293 36.2395833,6.58536585 36.6666667,6.58536585 C38.5076389,6.58536585 40,5.11120427 40,3.29268293 C40,1.47416159 38.5076389,0 36.6666667,0 C34.8256944,0 33.3333333,1.47416159 33.3333333,3.29268293 C33.3333333,3.459375 33.3590278,3.61920732 33.3826389,3.77903963 L26.7618056,9.01097561 C26.3868056,8.86623476 25.9819444,8.77980183 25.5548611,8.77980183 C25.1277778,8.77980183 24.7236111,8.86623476 24.3479167,9.01097561 L17.7284722,3.77972561 C17.7527778,3.61989329 17.7777778,3.459375 17.7777778,3.29268293 C17.7777778,1.47416159 16.2854167,0 14.4444444,0 C12.6034722,0 11.1111111,1.47416159 11.1111111,3.29268293 C11.1111111,3.58559451 11.1625,3.86478659 11.2347222,4.13506098 L4.18611111,11.0977134 C3.9125,11.026372 3.62986111,10.9756098 3.33333333,10.9756098 C1.49236111,10.9756098 0,12.4497713 0,14.2682927 C0,16.086814 1.49236111,17.5609756 3.33333333,17.5609756 C5.17430556,17.5609756 6.66666667,16.086814 6.66666667,14.2682927 C6.66666667,13.9753811 6.61527778,13.696189 6.54305556,13.4259146 L13.5916667,6.4632622 C13.8652778,6.53460366 14.1479167,6.58536585 14.4444444,6.58536585 C14.8715278,6.58536585 15.2756944,6.49893293 15.6513889,6.35419207 L22.2722222,11.586128 C22.2479167,11.7459604 22.2229167,11.9064787 22.2229167,12.0731707 C22.2229167,13.8916921 23.7152778,15.3658537 25.55625,15.3658537 C27.3972222,15.3658537 28.8895833,13.8916921 28.8895833,12.0731707 C28.8895833,11.9064787 28.8638889,11.7466463 28.8402778,11.586814 L35.4597222,6.35419207 Z M27.7777778,21.9512195 L23.3333333,21.9512195 C22.7194444,21.9512195 22.2222222,22.442378 22.2222222,23.0487805 L22.2222222,34.0243902 C22.2222222,34.6307927 22.7194444,35.1219512 23.3333333,35.1219512 L27.7777778,35.1219512 C28.3916667,35.1219512 28.8888889,34.6307927 28.8888889,34.0243902 L28.8888889,23.0487805 C28.8888889,22.442378 28.3916667,21.9512195 27.7777778,21.9512195 Z M38.8888889,13.1707317 L34.4444444,13.1707317 C33.8305556,13.1707317 33.3333333,13.6618902 33.3333333,14.2682927 L33.3333333,34.0243902 C33.3333333,34.6307927 33.8305556,35.1219512 34.4444444,35.1219512 L38.8888889,35.1219512 C39.5027778,35.1219512 40,34.6307927 40,34.0243902 L40,14.2682927 C40,13.6618902 39.5027778,13.1707317 38.8888889,13.1707317 Z M16.6666667,13.1707317 L12.2222222,13.1707317 C11.6083333,13.1707317 11.1111111,13.6618902 11.1111111,14.2682927 L11.1111111,34.0243902 C11.1111111,34.6307927 11.6083333,35.1219512 12.2222222,35.1219512 L16.6666667,35.1219512 C17.2805556,35.1219512 17.7777778,34.6307927 17.7777778,34.0243902 L17.7777778,14.2682927 C17.7777778,13.6618902 17.2805556,13.1707317 16.6666667,13.1707317 Z M5.55555556,24.1463415 L1.11111111,24.1463415 C0.497222222,24.1463415 0,24.6375 0,25.2439024 L0,34.0243902 C0,34.6307927 0.497222222,35.1219512 1.11111111,35.1219512 L5.55555556,35.1219512 C6.16944444,35.1219512 6.66666667,34.6307927 6.66666667,34.0243902 L6.66666667,25.2439024 C6.66666667,24.6375 6.16944444,24.1463415 5.55555556,24.1463415 Z" id="path-4"></path>
        <filter x="-5.0%" y="-2.8%" width="110.0%" height="111.4%" filterUnits="objectBoundingBox" id="filter-5">
            <feOffset dx="0" dy="1" in="SourceAlpha" result="shadowOffsetOuter1"></feOffset>
            <feGaussianBlur stdDeviation="0.5" in="shadowOffsetOuter1" result="shadowBlurOuter1"></feGaussianBlur>
            <feColorMatrix values="0 0 0 0 0   0 0 0 0 0   0 0 0 0 0  0 0 0 0.1 0" type="matrix" in="shadowBlurOuter1"></feColorMatrix>
        </filter>
    </defs>
    <g id="Page-1" stroke="none" stroke-width="1" fill="none" fill-rule="evenodd">
        <g id="accounts-copy">
            <mask id="mask-2" fill="white">
                <use xlink:href="#path-1"></use>
            </mask>
            <use id="Path" fill="#FF3B38" xlink:href="#path-1"></use>
            <g id="analytics" mask="url(#mask-2)" fill-rule="nonzero">
                <g transform="translate(12.000000, 14.000000)" id="Shape">
                    <g>
                        <use fill="black" fill-opacity="1" filter="url(#filter-5)" xlink:href="#path-4"></use>
                        <use fill="url(#linearGradient-3)" xlink:href="#path-4"></use>
                    </g>
                </g>
            </g>
        </g>
    </g>
</svg>