<svg width="80" height="80" viewBox="0 0 80 80" fill="none" xmlns="http://www.w3.org/2000/svg">
<rect width="80" height="80" fill="url(#paint0_linear_954_3561)"/>
<path d="M53.8295 59.6231C53.6961 60.3051 54.1815 61 54.8764 61H62.4285C64.9533 61 66.9999 58.9534 66.9999 56.4286C66.9999 50.1168 61.8831 45 55.5714 45H50.7688C49.838 45 49.3675 46.2132 49.9716 46.9212C52.4835 49.8651 54 53.684 54 57.8571C54 58.4613 53.9414 59.0517 53.8295 59.6231Z" fill="black" fill-opacity="0.2"/>
<path d="M37.1429 45H26.8571C19.7563 45 14 50.7564 14 57.8571C14 60.6975 16.3025 63 19.1429 63H44.8571C47.6975 63 50 60.6975 50 57.8571C50 50.7564 44.2436 45 37.1429 45Z" fill="black" fill-opacity="0.2"/>
<path d="M45.7087 40.035C44.7112 39.5604 44.5516 38.2901 45.092 37.3266C46.3071 35.16 47 32.6609 47 30C47 27.9313 46.5812 25.9604 45.8238 24.1675C45.3938 23.1497 45.693 21.9046 46.7374 21.5443C47.76 21.1916 48.8576 21 50 21C55.5229 21 60 25.4772 60 31C60 36.5228 55.5229 41 50 41C48.4641 41 47.0091 40.6537 45.7087 40.035Z" fill="black" fill-opacity="0.2"/>
<path d="M43 30C43 36.0751 38.0751 41 32 41C25.9249 41 21 36.0751 21 30C21 23.9249 25.9249 19 32 19C38.0751 19 43 23.9249 43 30Z" fill="black" fill-opacity="0.2"/>
<path fill-rule="evenodd" clip-rule="evenodd" d="M53.8294 58.6231C53.696 59.3051 54.1814 60 54.8763 60H62.4284C64.9532 60 66.9998 57.9534 66.9998 55.4286C66.9998 49.1168 61.883 44 55.5713 44H50.7687C49.8379 44 49.3673 45.2132 49.9715 45.9212C52.4834 48.8651 53.9998 52.684 53.9998 56.8571C53.9998 57.4613 53.9412 58.0517 53.8294 58.6231Z" fill="url(#paint1_linear_954_3561)"/>
<path d="M37.1429 44H26.8571C19.7563 44 14 49.7564 14 56.8571C14 59.6975 16.3025 62 19.1429 62H44.8571C47.6975 62 50 59.6975 50 56.8571C50 49.7564 44.2436 44 37.1429 44Z" fill="url(#paint2_linear_954_3561)"/>
<path fill-rule="evenodd" clip-rule="evenodd" d="M45.7087 39.035C44.7112 38.5604 44.5516 37.2901 45.092 36.3266C46.3071 34.16 47 31.6609 47 29C47 26.9313 46.5812 24.9604 45.8238 23.1675C45.3938 22.1497 45.693 20.9046 46.7374 20.5443C47.76 20.1916 48.8576 20 50 20C55.5229 20 60 24.4772 60 30C60 35.5228 55.5229 40 50 40C48.4641 40 47.0091 39.6537 45.7087 39.035Z" fill="url(#paint3_linear_954_3561)"/>
<circle cx="32" cy="29" r="11" fill="url(#paint4_linear_954_3561)"/>
<defs>
<linearGradient id="paint0_linear_954_3561" x1="40" y1="0" x2="40" y2="80" gradientUnits="userSpaceOnUse">
<stop stop-color="#EA580C"/>
<stop offset="1" stop-color="#7C2D12"/>
</linearGradient>
<linearGradient id="paint1_linear_954_3561" x1="58.3505" y1="44" x2="58.3505" y2="60" gradientUnits="userSpaceOnUse">
<stop stop-color="#F9FAFB"/>
<stop offset="1" stop-color="#9CA3AF"/>
</linearGradient>
<linearGradient id="paint2_linear_954_3561" x1="32" y1="44" x2="32" y2="62" gradientUnits="userSpaceOnUse">
<stop stop-color="#F9FAFB"/>
<stop offset="1" stop-color="#9CA3AF"/>
</linearGradient>
<linearGradient id="paint3_linear_954_3561" x1="52.3933" y1="20" x2="52.3933" y2="40" gradientUnits="userSpaceOnUse">
<stop stop-color="#FDE68A"/>
<stop offset="1" stop-color="#D97706"/>
</linearGradient>
<linearGradient id="paint4_linear_954_3561" x1="32" y1="18" x2="32" y2="40" gradientUnits="userSpaceOnUse">
<stop stop-color="#FDE68A"/>
<stop offset="1" stop-color="#D97706"/>
</linearGradient>
</defs>
</svg>
