<svg width="48" height="48" viewBox="0 0 48 48" fill="none" xmlns="http://www.w3.org/2000/svg">
<rect width="48" height="48" fill="url(#paint0_linear_221_2443)"/>
<path d="M24 39C32.2843 39 39 32.2843 39 24C39 15.7157 32.2843 9 24 9C15.7157 9 9 15.7157 9 24C9 32.2843 15.7157 39 24 39Z" stroke="white" stroke-width="2.25"/>
<path d="M17.25 31.5C20.7476 27.8367 27.2148 27.6642 30.75 31.5M27.7427 20.25C27.7427 22.321 26.0613 24 23.9872 24C21.9133 24 20.232 22.321 20.232 20.25C20.232 18.1789 21.9133 16.5 23.9872 16.5C26.0613 16.5 27.7427 18.1789 27.7427 20.25Z" stroke="white" stroke-width="2.25" stroke-linecap="round"/>
<defs>
<linearGradient id="paint0_linear_221_2443" x1="24" y1="0" x2="24" y2="48" gradientUnits="userSpaceOnUse">
<stop stop-color="#FACA15"/>
<stop offset="1" stop-color="#FF5A1F"/>
</linearGradient>
</defs>
</svg>
