<?xml version="1.0" encoding="UTF-8"?>
<svg width="130px" height="130px" viewBox="0 0 130 130" version="1.1" xmlns="http://www.w3.org/2000/svg" xmlns:xlink="http://www.w3.org/1999/xlink">
    <!-- Generator: Sketch 40.3 (33839) - http://www.bohemiancoding.com/sketch -->
    <title>persons</title>
    <desc>Created with Sketch.</desc>
    <defs>
        <path d="M64,0 C111.3344,0 128,16.6656 128,64 C128,111.3344 111.3344,128 64,128 C16.6656,128 0,111.3344 0,64 C0,16.6656 16.6656,0 64,0 L64,0 Z" id="path-1"></path>
        <mask id="mask-2" maskContentUnits="userSpaceOnUse" maskUnits="objectBoundingBox" x="-1" y="-1" width="130" height="130">
            <rect x="-1" y="-1" width="130" height="130" fill="white"></rect>
            <use xlink:href="#path-1" fill="black"></use>
        </mask>
        <linearGradient x1="50%" y1="0%" x2="50%" y2="100%" id="linearGradient-3">
            <stop stop-color="#FFFFFF" stop-opacity="0.2" offset="0%"></stop>
            <stop stop-color="#000000" stop-opacity="0.2" offset="100%"></stop>
        </linearGradient>
        <path d="M128,64 C128,111.3344 111.3344,128 64,128 C16.6656,128 0,111.3344 0,64 C0,16.6656 16.6656,0 64,0 C111.3344,0 128,16.6656 128,64 Z" id="path-4"></path>
        <mask id="mask-5" maskContentUnits="userSpaceOnUse" maskUnits="objectBoundingBox" x="-1" y="-1" width="130" height="130">
            <rect x="-1" y="-1" width="130" height="130" fill="white"></rect>
            <use xlink:href="#path-4" fill="black"></use>
        </mask>
    </defs>
    <g id="Page-1" stroke="none" stroke-width="1" fill="none" fill-rule="evenodd">
        <g id="persons" transform="translate(1.000000, 1.000000)">
            <g id="Shape">
                <use fill="#FFFFFF" fill-rule="evenodd" xlink:href="#path-1"></use>
                <use stroke-opacity="0.3" stroke="#000000" mask="url(#mask-2)" stroke-width="2" xlink:href="#path-1"></use>
            </g>
            <path d="M63.8144127,24 C60.14964,24.0681818 56.7064581,24.4261364 55.6325945,27.4090909 C51.14964,27.3068182 50.0928218,29.8636364 48.4735036,33.5113636 C46.8541854,37.1590909 47.8087309,46.6704545 48.9848672,50.0965909 C46.3598672,51.6988636 47.21214,59.3693182 51.0303218,59.6079545 C51.4735036,61.6022727 51.8485036,66.8011364 55.1212309,68.6420455 L55.1212309,75.2897727 C55.0019127,81.1022727 34.4280491,85.6363636 31.4280491,88.7727273 C28.4280491,91.9090909 27.8825945,95.1647727 28.0189581,99 L99.6098672,99 C99.7462309,95.1647727 99.2007763,91.9090909 96.2007763,88.7727273 C93.2007763,85.6363636 73.0530491,81.1022727 72.6780491,75.3068182 L72.6780491,68.6590909 C75.9507763,66.8181818 76.5132763,61.2784091 76.9394127,59.2840909 C80.7575945,58.8579545 81.4394127,51.5284091 78.8144127,49.9431818 C79.9905491,46.5 81.2860036,37.1761364 79.6666854,33.5284091 C78.0473672,29.8806818 74.0416854,24 63.8144127,24 L63.8144127,24 Z" id="Shape" stroke="#B6866D" stroke-width="2" fill="#F0C7B1" stroke-linecap="round" stroke-linejoin="round"></path>
            <g id="Shape-Copy">
                <use fill="url(#linearGradient-3)" fill-rule="evenodd" xlink:href="#path-4"></use>
                <use stroke-opacity="0.5" stroke="#000000" mask="url(#mask-5)" stroke-width="2" xlink:href="#path-4"></use>
            </g>
        </g>
    </g>
</svg>