<?xml version="1.0" encoding="UTF-8"?>
<svg width="606px" height="606px" viewBox="0 0 606 606" version="1.1" xmlns="http://www.w3.org/2000/svg" xmlns:xlink="http://www.w3.org/1999/xlink">
    <!-- Generator: Sketch 40.2 (33826) - http://www.bohemiancoding.com/sketch -->
    <title>people</title>
    <desc>Created with Sketch.</desc>
    <defs>
        <linearGradient x1="50%" y1="0%" x2="50%" y2="100%" id="linearGradient-1">
            <stop stop-color="#FFFFFF" stop-opacity="0.2" offset="0%"></stop>
            <stop stop-color="#000000" stop-opacity="0.2" offset="100%"></stop>
        </linearGradient>
        <path d="M552.268958,552.268958 C600,504.537813 600,431.458333 600,300 C600,168.541667 600,95.4621875 552.268958,47.7310417 C504.537813,0 431.458333,0 300,0 C168.541667,0 95.4621875,0 47.7310417,47.7310417 C0,95.4621875 0,168.541667 0,300 C0,431.458333 0,504.537813 47.7310417,552.268958 C95.4621875,600 168.541667,600 300,600 C431.458333,600 504.537813,600 552.268958,552.268958 Z" id="path-2"></path>
    </defs>
    <g id="Page-1" stroke="none" stroke-width="1" fill="none" fill-rule="evenodd">
        <g id="people" transform="translate(3.000000, 3.000000)">
            <g id="Squircle2-Copy-8">
                <g id="Shape">
                    <use fill="#F06563" xlink:href="#path-2"></use>
                    <use stroke="#000000" stroke-width="4.04" fill="url(#linearGradient-1)" xlink:href="#path-2"></use>
                </g>
                <g id="user" opacity="0.9" transform="translate(128.000000, 100.000000)" fill="#FFFFFF">
                    <g id="Capa_1">
                        <g id="Group">
                            <path d="M97.2488798,179.238289 C101.566599,186.651731 107.106314,193.739308 113.868024,199.686354 C120.548269,205.633401 128.450509,210.439919 136.841548,213.372709 C146.373116,216.875764 155.497352,217.038697 161.607332,215.816701 C167.717312,214.187373 171.057434,211.580448 170.405703,207.832994 C169.265173,200.826884 158.185743,196.590631 145.802851,190.480652 C134.479022,184.940937 126.332383,175.164969 120.955601,163.270876 C115.497352,151.376782 112.727495,137.690428 111.179633,123.759674 C110.527902,118.138493 110.202037,112.435845 110.12057,106.733198 C110.039104,103.881874 110.039104,101.03055 110.12057,98.2606925 L110.283503,94.1059063 L110.609369,89.3808554 L111.2611,81.2342159 C111.342566,78.4643585 112.238697,76.0203666 112.646029,73.3319756 L113.379226,69.4215886 L114.601222,65.7556008 C115.497352,63.311609 115.986151,60.7046843 117.289613,58.586558 C121.362933,49.299389 127.880244,41.5600815 136.352749,36.101833 C144.743788,30.4806517 155.252953,27.3034623 165.843585,26.2443992 C175.375153,26.814664 185.069654,28.9327902 193.379226,32.598778 C201.770265,36.2647658 208.857841,41.3156823 214.153157,47.7515275 C219.529939,54.1873727 223.11446,62.089613 225.558452,70.7250509 C226.210183,75.1242363 227.513646,78.3014257 227.839511,84.4928717 L228.654175,92.802444 C228.817108,94.8391039 228.980041,97.5274949 229.061507,99.9714868 C229.631772,120.175153 227.350713,141.193483 219.855804,158.219959 C217.982077,162.456212 215.782485,166.366599 213.257026,169.95112 C210.731568,173.454175 207.880244,176.468432 204.703055,179.156823 C198.348676,184.126273 190.609369,187.629328 182.21833,188.688391 C181.566599,188.769857 180.833401,189.014257 180.018737,189.421589 C179.204073,189.828921 178.552342,190.399185 177.330346,190.96945 C175.130754,192.028513 173.094094,193.331976 172.197963,194.391039 C168.531976,198.464358 173.827291,201.885947 181.3222,203.596741 C187.513646,205.063136 194.519756,205.063136 201.688798,203.759674 C208.939308,202.456212 216.271283,199.11609 222.870061,194.391039 C236.23055,184.778004 245.436253,169.217923 250.405703,153.413442 C256.434216,134.187373 258.470876,114.635438 258.14501,94.8391039 C258.14501,92.4765784 257.900611,89.4623218 257.737678,87.3441955 L257.24888,80.4195519 C257.24888,76.1832994 255.863951,70.1547862 254.886354,64.8594705 C254.479022,62.089613 253.501426,59.5641548 252.686762,56.9572301 C251.790631,54.3503055 251.057434,51.8248473 249.998371,49.2179226 C247.472912,44.2484725 245.354786,39.1160896 241.851731,34.5539715 C235.497352,25.185336 226.780448,17.0386965 216.841548,11.5804481 C206.984114,6.0407332 196.23055,2.53767821 185.476986,1.0712831 C180.100204,0.256619145 174.641955,-0.0692464358 169.34664,0.0122199593 C163.643992,0.0936863544 158.348676,0.745417515 152.971894,1.80448065 C142.299796,3.92260692 131.627699,7.91446029 122.177597,14.1873727 C112.564562,19.8900204 103.684725,27.6293279 97.4118126,37.1608961 C87.1470468,52.0692464 82.8293279,69.3401222 81.5258656,85.5519348 L81.2,88.6476578 L81.0370672,90.1955193 C80.9556008,91.0101833 81.1185336,89.1364562 81.1185336,89.299389 L81.1185336,89.3808554 L81.1185336,89.4623218 L81.1185336,89.6252546 L81.0370672,90.0325866 L80.9556008,90.9287169 C80.792668,93.0468432 80.6297352,95.0020367 80.5482688,97.0386965 C80.385336,101.03055 80.3038697,104.940937 80.3038697,108.851324 C80.385336,116.753564 80.9556008,124.574338 82.0961303,132.476578 C84.295723,148.281059 88.613442,164.329939 97.2488798,179.238289 L97.2488798,179.238289 Z" id="Shape"></path>
                            <path d="M343.847658,311.947047 C343.684725,307.303462 343.277393,302.415479 342.625662,297.446029 C341.240733,287.507128 338.307943,276.753564 331.790631,266.651731 C325.27332,256.549898 314.519756,248.566191 303.521792,244.900204 L303.358859,244.818737 C303.032994,244.737271 302.625662,244.574338 302.299796,244.492872 C283.969857,239.767821 265.965784,231.784114 249.34664,221.92668 C245.354786,219.645621 237.778411,218.179226 234.845621,218.586558 C233.460692,218.830957 232.483096,219.319756 231.994297,220.13442 C231.505499,220.949084 231.505499,222.008147 231.831365,223.230143 C232.564562,225.755601 235.008554,229.095723 238.430143,232.517312 C252.686762,247.181263 272.320163,260.460285 296.189817,268.769857 L295.456619,268.525458 C305.069654,273.087576 310.853768,280.745418 313.623625,291.743381 C315.904684,299.971487 316.067617,309.747454 315.904684,319.686354 C315.741752,324.574338 315.415886,329.625255 314.927088,334.350305 C314.682688,336.712831 314.356823,339.075356 313.868024,341.193483 C313.786558,341.519348 313.786558,341.763747 313.705092,342.008147 C313.29776,342.252546 312.890428,342.415479 312.564562,342.578411 C310.690835,343.474542 308.898574,344.452138 307.024847,345.266802 C303.277393,347.059063 299.367006,348.606925 295.538086,350.236253 C287.717312,353.331976 279.733605,356.101833 271.586965,358.464358 C255.375153,363.270876 238.674542,366.773931 221.810998,369.05499 C217.656212,369.788187 213.338493,370.032587 209.10224,370.521385 C204.865988,371.09165 200.629735,371.336049 196.393483,371.580448 C192.15723,371.824847 187.920978,372.232179 183.603259,372.232179 L171.1389,372.558045 C162.259063,372.395112 153.134827,372.395112 144.988187,371.824847 L138.715275,371.498982 L132.360896,370.928717 C128.124644,370.521385 123.806925,370.276986 119.570672,369.625255 C114.19389,368.566191 108.817108,367.670061 103.521792,366.285132 L95.5380855,364.411405 L87.6358452,362.211813 C76.7193483,359.11609 65.9657841,355.613035 55.5380855,351.295316 C50.3242363,349.177189 45.1918534,346.89613 40.2224033,344.533605 C37.7784114,343.311609 35.2529532,342.089613 32.8904277,340.786151 C32.4830957,340.541752 32.1572301,340.378819 31.7498982,340.13442 C31.5869654,338.912424 31.4240326,337.690428 31.2610998,336.386965 C30.8537678,332.720978 30.690835,328.729124 30.5279022,324.737271 C30.2835031,316.916497 30.6093686,308.606925 31.4240326,301.682281 C32.3201629,294.594705 34.19389,288.484725 36.9637475,284.004073 C39.8150713,279.604888 43.3995927,276.590631 48.6949084,274.391039 L47.4729124,274.716904 C62.3812627,270.480652 76.3934827,264.533605 89.5910387,257.527495 C108.735642,247.344196 121.607332,233.90224 115.986151,228.688391 C110.935234,223.96334 96.7600815,227.792261 78.1857434,235.694501 C65.9657841,240.90835 53.3384929,245.063136 40.6297352,247.832994 C40.4668024,247.832994 40.3038697,247.91446 40.1409369,247.995927 L39.6521385,248.158859 C32.4016293,250.521385 25.1511202,254.513238 19.2855397,260.215886 C13.4199593,265.837067 9.26517312,272.843177 6.49531568,279.767821 C3.72545825,286.773931 2.25906314,293.780041 1.44439919,300.541752 C1.03706721,303.96334 0.792668024,307.221996 0.629735234,310.480652 L0.466802444,315.124236 L0.385336049,317.405295 L0.385336049,320.093686 C0.466802444,325.551935 0.629735234,331.010183 1.2,336.631365 C1.44439919,339.482688 1.77026477,342.252546 2.34052953,345.348269 C2.9107943,348.443992 3.48105906,351.458248 5.02892057,355.531568 L5.11038697,355.694501 C6.08798371,358.138493 7.71731161,360.256619 10.1613035,361.723014 C12.0350305,362.863544 13.4199593,363.678208 14.9678208,364.492872 C16.5156823,365.389002 17.9820774,366.1222 19.5299389,366.936864 C22.5441955,368.566191 25.6399185,369.869654 28.6541752,371.336049 C34.7641548,374.02444 40.9556008,376.549898 47.2285132,378.830957 C59.6928717,383.311609 72.4016293,387.059063 85.2733198,389.828921 C91.709165,391.376782 98.1450102,392.354379 104.662322,393.657841 C111.179633,394.472505 117.615479,395.694501 124.214257,396.264766 C130.731568,396.916497 137.24888,397.568228 143.929124,397.812627 L153.868024,398.301426 L163.399593,398.382892 C162.910794,398.138493 162.421996,397.812627 161.933198,397.568228 C162.421996,397.812627 162.910794,398.138493 163.399593,398.382892 C177.656212,400.01222 191.912831,400.175153 206.332383,399.767821 C220.670468,398.953157 235.171487,397.568228 249.509572,394.716904 C263.847658,391.947047 278.022811,388.281059 291.953564,383.393075 C298.878208,380.949084 305.802851,378.260692 312.646029,375.164969 C316.067617,373.698574 319.407739,371.98778 322.829328,370.276986 C324.540122,369.380855 326.16945,368.566191 327.880244,367.588595 C329.672505,366.610998 331.1389,365.796334 333.338493,364.411405 L333.582892,364.248473 C336.271283,362.537678 338.470876,360.01222 339.611405,356.753564 C342.21833,349.503055 342.625662,344.85947 343.195927,339.89002 C343.684725,335.002037 343.929124,330.358452 344.092057,325.714868 C344.173523,323.433809 344.173523,321.152749 344.173523,318.708758 L343.847658,311.947047 L343.847658,311.947047 Z" id="Shape"></path>
                        </g>
                    </g>
                </g>
            </g>
        </g>
    </g>
</svg>