<svg width="320" height="320" viewBox="0 0 320 320" fill="none" xmlns="http://www.w3.org/2000/svg">
<g clip-path="url(#clip0_935_6804)">
<path d="M160 0C281.326 0 320 38.6737 320 160C320 281.326 281.326 320 160 320C38.6736 320 0 281.326 0 160C0 38.6737 38.6736 0 160 0Z" fill="url(#paint0_linear_935_6804)"/>
<path d="M160 2C220.573 2 259.85 11.6833 284.083 35.9168C308.317 60.1504 318 99.4272 318 160C318 220.573 308.317 259.85 284.083 284.083C259.85 308.317 220.573 318 160 318C99.4272 318 60.1504 308.317 35.9168 284.083C11.6833 259.85 2 220.573 2 160C2 99.4272 11.6833 60.1504 35.9168 35.9168C60.1504 11.6833 99.4272 2 160 2Z" stroke="#0F172A" stroke-opacity="0.2" stroke-width="4"/>
<g clip-path="url(#clip1_935_6804)">
<path fill-rule="evenodd" clip-rule="evenodd" d="M81.9394 81.0474C79.5575 84.9494 83.9695 89.1266 88.2974 87.6542C104.079 82.2851 124.353 80.0001 150 80.0001C233.412 80.0001 260 104.171 260 180V180C260 183.888 264.49 184.914 265.521 181.165C268.63 169.855 270 156.245 270 140C270 71.7539 245.829 50 170 50C122.941 50 95.7774 58.3782 81.9394 81.0474Z" fill="url(#paint1_linear_935_6804)"/>
<path fill-rule="evenodd" clip-rule="evenodd" d="M50 180C50 111.754 74.1711 90 150 90C225.829 90 250 111.754 250 180C250 248.246 225.829 270 150 270C74.1711 270 50 248.246 50 180ZM147.679 150C155.377 136.667 174.623 136.667 182.321 150L216.962 210C224.66 223.333 215.037 240 199.641 240H130.359C114.963 240 105.34 223.333 113.038 210L147.679 150ZM105 170C118.807 170 130 158.807 130 145C130 131.193 118.807 120 105 120C91.1929 120 80 131.193 80 145C80 158.807 91.1929 170 105 170Z" fill="url(#paint2_linear_935_6804)"/>
<path d="M156.34 155C160.189 148.333 169.811 148.333 173.66 155L208.301 215C212.15 221.667 207.339 230 199.641 230H130.359C122.661 230 117.85 221.667 121.699 215L156.34 155Z" fill="url(#paint3_linear_935_6804)"/>
<circle cx="105" cy="145" r="15" fill="url(#paint4_linear_935_6804)"/>
</g>
</g>
<defs>
<linearGradient id="paint0_linear_935_6804" x1="160" y1="0" x2="160" y2="320" gradientUnits="userSpaceOnUse">
<stop stop-color="#F8FAFC"/>
<stop offset="1" stop-color="#E2E8F0"/>
</linearGradient>
<linearGradient id="paint1_linear_935_6804" x1="175.635" y1="50" x2="175.635" y2="183.504" gradientUnits="userSpaceOnUse">
<stop stop-color="#7DD3FC"/>
<stop offset="1" stop-color="#0EA5E9"/>
</linearGradient>
<linearGradient id="paint2_linear_935_6804" x1="150" y1="90" x2="150" y2="270" gradientUnits="userSpaceOnUse">
<stop stop-color="#60A5FA"/>
<stop offset="1" stop-color="#2563EB"/>
</linearGradient>
<linearGradient id="paint3_linear_935_6804" x1="165" y1="140" x2="165" y2="260" gradientUnits="userSpaceOnUse">
<stop stop-color="#34D399"/>
<stop offset="1" stop-color="#059669"/>
</linearGradient>
<linearGradient id="paint4_linear_935_6804" x1="105" y1="130" x2="105" y2="160" gradientUnits="userSpaceOnUse">
<stop stop-color="#FB923C"/>
<stop offset="1" stop-color="#EA580C"/>
</linearGradient>
<clipPath id="clip0_935_6804">
<rect width="320" height="320" fill="white"/>
</clipPath>
<clipPath id="clip1_935_6804">
<rect width="240" height="240" fill="white" transform="translate(40 40)"/>
</clipPath>
</defs>
</svg>
