<svg width="80" height="80" viewBox="0 0 80 80" fill="none" xmlns="http://www.w3.org/2000/svg">
<rect width="80" height="80" fill="url(#paint0_linear_2420_10315)"/>
<path d="M22.2529 27C23.015 27 23.5862 27.7018 23.5007 28.4591C23.2782 30.4306 23.2782 32.9531 23.2782 36.3V47.6667C23.2782 51.4779 23.2782 54.2201 23.6068 56.297C23.742 57.1513 23.1178 58 22.2529 58C17.4196 58 15.003 58 13.5015 56.4867C12 54.9734 12 52.5378 12 47.6667V37.3333C12 32.4622 12 30.0266 13.5015 28.5133C15.003 27 17.4196 27 22.2529 27Z" fill="black" fill-opacity="0.2"/>
<path d="M56.3932 56.297C56.258 57.1513 56.8822 58 57.7471 58C62.5804 58 64.997 58 66.4985 56.4867C68 54.9734 68 52.5378 68 47.6667V37.3333C68 32.4622 68 30.0266 66.4985 28.5133C64.997 27 62.5804 27 57.7471 27C56.985 27 56.4138 27.7018 56.4993 28.4591C56.7218 30.4306 56.7218 32.9531 56.7218 36.3V47.6667C56.7218 51.4779 56.7218 54.2201 56.3932 56.297Z" fill="black" fill-opacity="0.2"/>
<path d="M27 34C27 29.286 27 26.9289 28.4645 25.4645C29.9289 24 32.286 24 37 24H43C47.714 24 50.0711 24 51.5355 25.4645C53 26.9289 53 29.286 53 34V51C53 55.714 53 58.0711 51.5355 59.5355C50.0711 61 47.714 61 43 61H37C32.286 61 29.9289 61 28.4645 59.5355C27 58.0711 27 55.714 27 51V34Z" fill="black" fill-opacity="0.2"/>
<path d="M22.2529 21C23.0231 21 23.6053 21.6973 23.5242 22.4633C23.2782 24.7859 23.2782 27.7812 23.2782 31.8V45C23.2782 49.5901 23.2782 52.8451 23.6448 55.2876C23.7754 56.1581 23.1332 57 22.2529 57V57C17.4196 57 15.003 57 13.5015 55.2426C12 53.4853 12 50.6569 12 45V33C12 27.3431 12 24.5147 13.5015 22.7574C15.003 21 17.4196 21 22.2529 21V21Z" fill="url(#paint1_linear_2420_10315)"/>
<path d="M56.3552 55.2876C56.2246 56.1581 56.8668 57 57.7471 57V57C62.5804 57 64.997 57 66.4985 55.2426C68 53.4853 68 50.6569 68 45V33C68 27.3431 68 24.5147 66.4985 22.7574C64.997 21 62.5804 21 57.7471 21V21C56.9769 21 56.3947 21.6973 56.4758 22.4633C56.7218 24.7859 56.7218 27.7812 56.7218 31.8V45C56.7218 49.5901 56.7218 52.8451 56.3552 55.2876Z" fill="url(#paint2_linear_2420_10315)"/>
<rect x="27" y="18" width="26" height="42" rx="5" fill="url(#paint3_linear_2420_10315)"/>
<defs>
<linearGradient id="paint0_linear_2420_10315" x1="40" y1="0" x2="40" y2="80" gradientUnits="userSpaceOnUse">
<stop stop-color="#41948D"/>
<stop offset="1" stop-color="#21413F"/>
</linearGradient>
<linearGradient id="paint1_linear_2420_10315" x1="18" y1="21" x2="18" y2="57" gradientUnits="userSpaceOnUse">
<stop stop-color="#F9FAFB"/>
<stop offset="1" stop-color="#9CA3AF"/>
</linearGradient>
<linearGradient id="paint2_linear_2420_10315" x1="62" y1="21" x2="62" y2="57" gradientUnits="userSpaceOnUse">
<stop stop-color="#F9FAFB"/>
<stop offset="1" stop-color="#9CA3AF"/>
</linearGradient>
<linearGradient id="paint3_linear_2420_10315" x1="40" y1="18" x2="40" y2="60" gradientUnits="userSpaceOnUse">
<stop stop-color="#FCD34D"/>
<stop offset="1" stop-color="#EA580C"/>
</linearGradient>
</defs>
</svg>
