<svg width="48" height="48" viewBox="0 0 48 48" fill="none" xmlns="http://www.w3.org/2000/svg">
<rect width="48" height="48" fill="url(#paint0_linear_274_424)"/>
<path d="M9.75 16.75H38.25" stroke="white" stroke-width="2.25" stroke-linejoin="round"/>
<path d="M31.5 9.25L27 16.75" stroke="white" stroke-width="2.25" stroke-linejoin="round"/>
<path d="M21 9.25L16.5 16.75" stroke="white" stroke-width="2.25" stroke-linejoin="round"/>
<path d="M9.75 23.5C9.75 16.7825 9.75 13.4237 11.8369 11.3369C13.9237 9.25 17.2825 9.25 24 9.25C30.7175 9.25 34.0763 9.25 36.1632 11.3369C38.25 13.4237 38.25 16.7825 38.25 23.5C38.25 30.2175 38.25 33.5763 36.1632 35.6632C34.0763 37.75 30.7175 37.75 24 37.75C17.2825 37.75 13.9237 37.75 11.8369 35.6632C9.75 33.5763 9.75 30.2175 9.75 23.5Z" stroke="white" stroke-width="2.25"/>
<path d="M28.4297 27.8422C28.2024 28.7823 27.1286 29.4466 24.9809 30.7753C22.9046 32.0596 21.8666 32.7019 21.0299 32.4438C20.684 32.337 20.3689 32.1343 20.1147 31.855C19.5 31.1797 19.5 29.8698 19.5 27.25C19.5 24.6303 19.5 23.3203 20.1147 22.6449C20.3689 22.3657 20.684 22.1631 21.0299 22.0563C21.8666 21.7981 22.9046 22.4404 24.9809 23.7247C27.1286 25.0534 28.2024 25.7178 28.4297 26.6578C28.5234 27.0459 28.5234 27.4542 28.4297 27.8422Z" stroke="white" stroke-width="2.25" stroke-linejoin="round"/>
<defs>
<linearGradient id="paint0_linear_274_424" x1="24" y1="0" x2="24" y2="48" gradientUnits="userSpaceOnUse">
<stop stop-color="#0D9488"/>
<stop offset="1" stop-color="#0F766E"/>
</linearGradient>
</defs>
</svg>
