<?xml version="1.0" encoding="UTF-8"?>
<svg width="64px" height="64px" viewBox="0 0 64 64" version="1.1" xmlns="http://www.w3.org/2000/svg" xmlns:xlink="http://www.w3.org/1999/xlink">
    <!-- Generator: Sketch 55 (78076) - https://sketchapp.com -->
    <title>smtp mailer</title>
    <desc>Created with Sketch.</desc>
    <defs>
        <path d="M32,64 C46.0222222,64 53.8173667,64 58.9086889,58.9086889 C64,53.8173667 64,46.0222222 64,32 C64,17.9777778 64,10.1826333 58.9086889,5.09131111 C53.8173667,0 46.0222222,0 32,0 C17.9777778,0 10.1826333,0 5.09131111,5.09131111 C0,10.1826333 0,17.9777778 0,32 C0,46.0222222 0,53.8173667 5.09131111,58.9086889 C10.1826333,64 17.9777778,64 32,64 Z" id="path-1"></path>
        <linearGradient x1="50%" y1="0%" x2="50%" y2="100%" id="linearGradient-3">
            <stop stop-color="#FDFEFF" offset="0%"></stop>
            <stop stop-color="#FBFCFD" stop-opacity="0.9" offset="100%"></stop>
        </linearGradient>
        <path d="M35.7142857,0 L4.28571429,0 C1.91875,0 0,1.91875 0,4.28571429 L0,35.7142857 C0,38.08125 1.91875,40 4.28571429,40 L35.7142857,40 C38.08125,40 40,38.08125 40,35.7142857 L40,4.28571429 C40,1.91875 38.08125,0 35.7142857,0 Z M15.9033036,20.545 C7.80616071,14.6684821 7.88866071,14.6536607 5.71428571,12.9613393 L5.71428571,10.7142857 C5.71428571,9.53080357 6.67366071,8.57142857 7.85714286,8.57142857 L32.1428571,8.57142857 C33.3263393,8.57142857 34.2857143,9.53080357 34.2857143,10.7142857 L34.2857143,12.9613393 C32.1097321,14.655 32.1933929,14.6688393 24.0966964,20.5450893 C23.1591964,21.2285714 21.2938393,22.8772321 20,22.8570536 C18.7050893,22.8765179 16.8422321,21.2296429 15.9033036,20.545 L15.9033036,20.545 Z M34.2857143,16.5870536 L34.2857143,29.2857143 C34.2857143,30.4691964 33.3263393,31.4285714 32.1428571,31.4285714 L7.85714286,31.4285714 C6.67366071,31.4285714 5.71428571,30.4691964 5.71428571,29.2857143 L5.71428571,16.5870536 C6.96053571,17.5508036 8.69008929,18.8402679 14.2234821,22.8561607 C15.4879464,23.7794643 17.6141071,25.72625 19.9997321,25.7141964 C22.4003571,25.7261607 24.5566071,23.74625 25.7783036,22.8548214 C31.3102679,18.8400893 33.0394643,17.5507143 34.2857143,16.5870536 Z" id="path-4"></path>
        <filter x="-5.0%" y="-2.5%" width="110.0%" height="110.0%" filterUnits="objectBoundingBox" id="filter-5">
            <feOffset dx="0" dy="1" in="SourceAlpha" result="shadowOffsetOuter1"></feOffset>
            <feGaussianBlur stdDeviation="0.5" in="shadowOffsetOuter1" result="shadowBlurOuter1"></feGaussianBlur>
            <feColorMatrix values="0 0 0 0 0   0 0 0 0 0   0 0 0 0 0  0 0 0 0.1 0" type="matrix" in="shadowBlurOuter1"></feColorMatrix>
        </filter>
    </defs>
    <g id="Page-1" stroke="none" stroke-width="1" fill="none" fill-rule="evenodd">
        <g id="Artboard" transform="translate(-502.000000, -184.000000)">
            <g id="smtp-mailer" transform="translate(502.000000, 184.000000)">
                <mask id="mask-2" fill="white">
                    <use xlink:href="#path-1"></use>
                </mask>
                <use id="Path" fill="#738088" xlink:href="#path-1"></use>
                <g id="envelope-square" mask="url(#mask-2)" fill-rule="nonzero">
                    <g transform="translate(12.000000, 12.000000)" id="Shape">
                        <g>
                            <use fill="black" fill-opacity="1" filter="url(#filter-5)" xlink:href="#path-4"></use>
                            <use fill="url(#linearGradient-3)" xlink:href="#path-4"></use>
                        </g>
                    </g>
                </g>
            </g>
        </g>
    </g>
</svg>