<?xml version="1.0" encoding="UTF-8" standalone="no"?>
<svg
   xmlns:dc="http://purl.org/dc/elements/1.1/"
   xmlns:cc="http://creativecommons.org/ns#"
   xmlns:rdf="http://www.w3.org/1999/02/22-rdf-syntax-ns#"
   xmlns:svg="http://www.w3.org/2000/svg"
   xmlns="http://www.w3.org/2000/svg"
   xmlns:xlink="http://www.w3.org/1999/xlink"
   xmlns:sodipodi="http://sodipodi.sourceforge.net/DTD/sodipodi-0.dtd"
   xmlns:inkscape="http://www.inkscape.org/namespaces/inkscape"
   inkscape:version="1.0 (4035a4f, 2020-05-01)"
   sodipodi:docname="std-icon.svg"
   id="svg45"
   version="1.1"
   viewBox="0 0 64 64"
   height="64px"
   width="64px">
  <title
     id="title10">Classes</title>
  <defs
     id="defs28">
    <path
       id="path-1"
       d="M32,64 C46.0222222,64 53.8173667,64 58.9086889,58.9086889 C64,53.8173667 64,46.0222222 64,32 C64,17.9777778 64,10.1826333 58.9086889,5.09131111 C53.8173667,0 46.0222222,0 32,0 C17.9777778,0 10.1826333,0 5.09131111,5.09131111 C0,10.1826333 0,17.9777778 0,32 C0,46.0222222 0,53.8173667 5.09131111,58.9086889 C10.1826333,64 17.9777778,64 32,64 Z" />
    <linearGradient
       gradientUnits="userSpaceOnUse"
       gradientTransform="scale(0.87287156,1.1456439)"
       id="linearGradient-3"
       y2="34.914862"
       x2="17.457431"
       y1="0"
       x1="17.457431">
      <stop
         id="stop15"
         offset="0%"
         stop-color="#FDFEFF" />
      <stop
         id="stop17"
         offset="100%"
         stop-opacity="0.9"
         stop-color="#FBFCFD" />
    </linearGradient>
    <path
       id="path-4"
       d="M17.7777778,10.625 L17.7777778,0 L1.9047619,0 C0.849206349,0 0,0.8359375 0,1.875 L0,38.125 C0,39.1640625 0.849206349,40 1.9047619,40 L28.5714286,40 C29.6269841,40 30.4761905,39.1640625 30.4761905,38.125 L30.4761905,12.5 L19.6825397,12.5 C18.6349206,12.5 17.7777778,11.65625 17.7777778,10.625 Z M22.8571429,29.0625 C22.8571429,29.578125 22.4285714,30 21.9047619,30 L8.57142857,30 C8.04761905,30 7.61904762,29.578125 7.61904762,29.0625 L7.61904762,28.4375 C7.61904762,27.921875 8.04761905,27.5 8.57142857,27.5 L21.9047619,27.5 C22.4285714,27.5 22.8571429,27.921875 22.8571429,28.4375 L22.8571429,29.0625 Z M22.8571429,24.0625 C22.8571429,24.578125 22.4285714,25 21.9047619,25 L8.57142857,25 C8.04761905,25 7.61904762,24.578125 7.61904762,24.0625 L7.61904762,23.4375 C7.61904762,22.921875 8.04761905,22.5 8.57142857,22.5 L21.9047619,22.5 C22.4285714,22.5 22.8571429,22.921875 22.8571429,23.4375 L22.8571429,24.0625 Z M22.8571429,18.4375 L22.8571429,19.0625 C22.8571429,19.578125 22.4285714,20 21.9047619,20 L8.57142857,20 C8.04761905,20 7.61904762,19.578125 7.61904762,19.0625 L7.61904762,18.4375 C7.61904762,17.921875 8.04761905,17.5 8.57142857,17.5 L21.9047619,17.5 C22.4285714,17.5 22.8571429,17.921875 22.8571429,18.4375 Z M30.4761905,9.5234375 L30.4761905,10 L20.3174603,10 L20.3174603,0 L20.8015873,0 C21.3095238,0 21.7936508,0.1953125 22.1507937,0.546875 L29.9206349,8.203125 C30.2777778,8.5546875 30.4761905,9.03125 30.4761905,9.5234375 Z" />
    <filter
       id="filter-5"
       filterUnits="objectBoundingBox"
       height="110.0%"
       width="113.1%"
       y="-2.5%"
       x="-6.6%">
      <feOffset
         id="feOffset21"
         result="shadowOffsetOuter1"
         in="SourceAlpha"
         dy="1"
         dx="0" />
      <feGaussianBlur
         id="feGaussianBlur23"
         result="shadowBlurOuter1"
         in="shadowOffsetOuter1"
         stdDeviation="0.5" />
      <feColorMatrix
         id="feColorMatrix25"
         in="shadowBlurOuter1"
         type="matrix"
         values="0 0 0 0 0   0 0 0 0 0   0 0 0 0 0  0 0 0 0.1 0" />
    </filter>
  </defs>
  <g
     fill-rule="evenodd"
     fill="none"
     stroke-width="1"
     stroke="none"
     id="Page-1">
    <g
       transform="translate(-340,-430)"
       id="Artboard">
      <g
         transform="translate(340,430)"
         id="posts">
        <mask
           fill="#ffffff"
           id="mask-2">
          <use
             height="100%"
             width="100%"
             y="0"
             x="0"
             id="use30"
             xlink:href="#path-1" />
        </mask>
        <use
           height="100%"
           width="100%"
           y="0"
           x="0"
           xlink:href="#path-1"
           fill="#00b356"
           id="Path" />
        <path
           d="M 358.39604,-56.114146 79.456041,-141.81415 c -15.2,-4.67 -31.6,-4.67 -46.79,0 l -278.950001,85.700004 c -23.54,7.23 -23.54,38.36 0,45.59 l 48.63,14.9399999 c -10.67,13.1900001 -17.23,29.2800001 -17.88,46.9000001 -9.63,5.52 -16.41,15.48 -16.41,27.37 0,10.78 5.68,19.85 13.86,25.649996 l -25.53,114.88 c -2.22,9.99 5.38,19.47 15.61,19.47 h 56.11 c 10.24,0 17.84,-9.48 15.62,-19.47 l -25.53,-114.88 c 8.18,-5.799996 13.86,-14.869996 13.86,-25.649996 0,-11.57 -6.47,-21.25 -15.66,-26.87 0.76,-15.02 8.44,-28.3 20.69,-36.72 l 195.570001,60.09 c 9.06,2.78 26.44,6.25 46.79,0 l 278.949999,-85.7 c 23.55,-7.24 23.55,-38.36 0,-45.6 z M 88.846041,105.77585 c -28.53,8.76 -52.84,3.92 -65.59,0 l -145.020001,-44.549996 -14.18,113.459996 c 0,35.35 85.960001,64 192.000001,64 106.039999,0 191.999999,-28.65 191.999999,-64 l -14.18,-113.469996 z"
           id="path51" />
        <path
           id="path977"
           d="M 7.4822014,47.56034 6.8941629,47.084175 8.0156784,42.014538 9.1371939,36.944901 8.5743518,36.154462 C 7.8222244,35.098197 7.8470078,33.863335 8.6361724,33.07417 8.9797372,32.730606 9.404317,31.879691 9.5796832,31.183248 9.7550497,30.486805 10.143003,29.57366 10.441801,29.154036 10.740599,28.734412 10.942238,28.353791 10.889888,28.308212 10.837537,28.262632 9.860643,27.951061 8.719012,27.615833 7.5773809,27.280604 6.354763,26.779347 6.0020834,26.501929 5.1784259,25.854041 5.1579786,24.717627 5.9572468,24.010019 6.3266795,23.682953 11.275956,22.038102 18.962459,19.687844 c 10.87668,-3.3257 12.562177,-3.774528 13.650909,-3.635075 2.059464,0.263792 25.323526,7.552061 25.694451,8.049673 0.457669,0.613981 0.415041,1.811993 -0.08217,2.309201 -0.439941,0.439942 -1.91772,0.924637 -16.28567,5.341517 -7.646566,2.350646 -9.340203,2.788446 -10.337581,2.672235 -0.656039,-0.07644 -4.900516,-1.279642 -9.432172,-2.673785 -4.531656,-1.394143 -8.367826,-2.534805 -8.524822,-2.534805 -0.455688,0 -1.597201,1.505794 -1.78308,2.352099 -0.134764,0.613573 -0.02933,0.91516 0.507676,1.452165 0.843314,0.843314 0.887512,2.048391 0.114922,3.133393 l -0.562842,0.790439 1.121516,5.069637 1.121515,5.069637 -0.588038,0.476165 c -0.854062,0.691576 -5.2408133,0.691576 -6.0948746,0 z"
           style="fill:#ffffff;fill-opacity:1;stroke:#ffffff;stroke-width:0.265066;stroke-opacity:1" />
        <path
           id="path979"
           d="M 28.486065,47.752125 C 23.809129,47.392731 19.90226,46.3837 17.839641,45.002464 c -1.83833,-1.231042 -1.892029,-1.485698 -1.316496,-6.243276 0.628891,-5.198658 0.674313,-5.389905 1.241568,-5.227518 0.248515,0.07114 3.01636,0.94129 6.150768,1.933663 5.278089,1.671074 5.875087,1.804465 8.084519,1.806386 2.22316,0.0019 2.799366,-0.127841 8.4624,-1.905891 3.342241,-1.04938 6.147813,-1.907964 6.2346,-1.907964 0.08679,0 0.365516,1.759377 0.619394,3.909726 0.253878,2.15035 0.532367,4.338521 0.618861,4.862602 0.454273,2.752444 -4.545472,4.895735 -12.908722,5.533711 -1.956166,0.149223 -3.616305,0.254625 -3.689198,0.234227 -0.07289,-0.0204 -1.355965,-0.1311 -2.85127,-0.246005 z"
           style="fill:#ffffff;fill-opacity:1;stroke:#ffffff;stroke-width:0.265066;stroke-opacity:1" />
      </g>
    </g>
  </g>
</svg>
