<svg width="320" height="320" viewBox="0 0 320 320" fill="none" xmlns="http://www.w3.org/2000/svg">
<g clip-path="url(#clip0_895_8331)">
<path d="M160 0C281.326 0 320 38.6737 320 160C320 281.326 281.326 320 160 320C38.6736 320 0 281.326 0 160C0 38.6737 38.6736 0 160 0Z" fill="url(#paint0_linear_895_8331)"/>
<path d="M160 2C220.573 2 259.85 11.6833 284.083 35.9168C308.317 60.1504 318 99.4272 318 160C318 220.573 308.317 259.85 284.083 284.083C259.85 308.317 220.573 318 160 318C99.4272 318 60.1504 308.317 35.9168 284.083C11.6833 259.85 2 220.573 2 160C2 99.4272 11.6833 60.1504 35.9168 35.9168C60.1504 11.6833 99.4272 2 160 2Z" stroke="#F8FAFC" stroke-opacity="0.2" stroke-width="4"/>
<g clip-path="url(#clip1_895_8331)">
<path fill-rule="evenodd" clip-rule="evenodd" d="M198.464 215.634C196.259 213.55 196.033 209.99 198.452 208.158C199.754 207.172 201.112 206.254 202.519 205.411C204.088 204.471 206.039 204.636 207.633 205.532C212.695 208.378 218.537 210 224.757 210C231.339 210 237.497 208.183 242.756 205.023C244.324 204.082 246.269 203.861 247.864 204.755C259.681 211.378 268.224 223.148 270.458 237.029C270.683 238.432 270.224 239.856 269.238 240.879C258.257 252.278 242.835 259.369 225.758 259.369C223.02 259.369 220.326 259.187 217.685 258.834C214.375 258.392 212.834 254.659 213.696 251.432C214.983 246.616 214.783 241.427 212.795 236.571C209.509 228.547 204.588 221.418 198.464 215.634Z" fill="url(#paint1_linear_895_8331)"/>
<circle cx="224.758" cy="175" r="25" fill="url(#paint2_linear_895_8331)"/>
<path fill-rule="evenodd" clip-rule="evenodd" d="M121.448 215.253C123.711 213.155 123.935 209.518 121.443 207.698C119.981 206.628 118.451 205.645 116.863 204.755C115.268 203.861 113.322 204.082 111.755 205.024C106.496 208.183 100.338 210 93.7555 210C87.5351 210 81.6936 208.378 76.6315 205.532C75.0371 204.636 73.0857 204.471 71.5169 205.411C60.2884 212.14 52.2178 223.596 50.0565 237.029C49.8308 238.433 50.2898 239.856 51.2759 240.88C62.2572 252.278 77.6785 259.369 94.7559 259.369C97.1244 259.369 99.461 259.233 101.758 258.967C105.128 258.578 106.718 254.773 105.832 251.498C104.523 246.659 104.716 241.44 106.716 236.557C110.074 228.362 115.139 221.101 121.448 215.253Z" fill="url(#paint3_linear_895_8331)"/>
<circle cx="93.7539" cy="175" r="25" fill="url(#paint4_linear_895_8331)"/>
<path fill-rule="evenodd" clip-rule="evenodd" d="M142.631 215.532C141.037 214.636 139.086 214.471 137.517 215.411C126.288 222.14 118.218 233.596 116.057 247.029C115.831 248.433 116.29 249.856 117.276 250.88C128.257 262.278 143.678 269.369 160.756 269.369C177.834 269.369 193.255 262.278 204.237 250.879C205.223 249.856 205.682 248.432 205.456 247.029C203.222 233.148 194.68 221.378 182.863 214.755C181.268 213.861 179.322 214.082 177.755 215.023C172.496 218.183 166.338 220 159.755 220C153.535 220 147.694 218.378 142.631 215.532Z" fill="url(#paint5_linear_895_8331)"/>
<circle cx="159.754" cy="185" r="25" fill="url(#paint6_linear_895_8331)"/>
<path fill-rule="evenodd" clip-rule="evenodd" d="M261 120C261 66.9197 236.829 50 161 50C85.171 50 61 66.9197 61 120C61 129.579 61.7872 137.981 63.5233 145.318C64.4212 149.113 69.3018 149.898 72.3655 147.485C78.3199 142.797 85.8333 140 94 140C105.897 140 116.407 145.935 122.731 155.006C125.525 159.013 134.632 160.399 138.483 157.394C144.418 152.761 151.887 150 160 150C168.297 150 175.92 152.887 181.919 157.712C185.553 160.634 193.296 159.438 195.889 155.562C202.167 146.179 212.862 140 225 140C234.195 140 242.562 143.546 248.808 149.345C251.729 152.057 256.799 151.594 257.855 147.751C260.026 139.854 261 130.656 261 120ZM101 90C101 84.4772 105.477 80 111 80H211C216.523 80 221 84.4772 221 90C221 95.5228 216.523 100 211 100H111C105.477 100 101 95.5228 101 90ZM111 110C105.477 110 101 114.477 101 120C101 125.523 105.477 130 111 130H190C195.523 130 200 125.523 200 120C200 114.477 195.523 110 190 110H111Z" fill="url(#paint7_linear_895_8331)"/>
</g>
</g>
<defs>
<linearGradient id="paint0_linear_895_8331" x1="160" y1="0" x2="160" y2="320" gradientUnits="userSpaceOnUse">
<stop stop-color="#475569"/>
<stop offset="1" stop-color="#1E293B"/>
</linearGradient>
<linearGradient id="paint1_linear_895_8331" x1="233.618" y1="204.188" x2="233.618" y2="259.369" gradientUnits="userSpaceOnUse">
<stop stop-color="#2DD4BF"/>
<stop offset="1" stop-color="#0D9488"/>
</linearGradient>
<linearGradient id="paint2_linear_895_8331" x1="224.758" y1="150" x2="224.758" y2="200" gradientUnits="userSpaceOnUse">
<stop stop-color="#FB923C"/>
<stop offset="1" stop-color="#EA580C"/>
</linearGradient>
<linearGradient id="paint3_linear_895_8331" x1="86.6148" y1="204.188" x2="86.6148" y2="259.369" gradientUnits="userSpaceOnUse">
<stop stop-color="#2DD4BF"/>
<stop offset="1" stop-color="#0D9488"/>
</linearGradient>
<linearGradient id="paint4_linear_895_8331" x1="93.7539" y1="150" x2="93.7539" y2="200" gradientUnits="userSpaceOnUse">
<stop stop-color="#FB923C"/>
<stop offset="1" stop-color="#EA580C"/>
</linearGradient>
<linearGradient id="paint5_linear_895_8331" x1="160.756" y1="214.188" x2="160.756" y2="269.369" gradientUnits="userSpaceOnUse">
<stop stop-color="#2DD4BF"/>
<stop offset="1" stop-color="#0D9488"/>
</linearGradient>
<linearGradient id="paint6_linear_895_8331" x1="159.754" y1="160" x2="159.754" y2="210" gradientUnits="userSpaceOnUse">
<stop stop-color="#FB923C"/>
<stop offset="1" stop-color="#EA580C"/>
</linearGradient>
<linearGradient id="paint7_linear_895_8331" x1="161" y1="50" x2="161" y2="159.338" gradientUnits="userSpaceOnUse">
<stop stop-color="#7DD3FC"/>
<stop offset="1" stop-color="#0EA5E9"/>
</linearGradient>
<clipPath id="clip0_895_8331">
<rect width="320" height="320" fill="white"/>
</clipPath>
<clipPath id="clip1_895_8331">
<rect width="240" height="240" fill="white" transform="translate(40 40)"/>
</clipPath>
</defs>
</svg>
