<svg width="48" height="48" viewBox="0 0 48 48" fill="none" xmlns="http://www.w3.org/2000/svg">
<rect width="48" height="48" fill="url(#paint0_linear_337_1919)"/>
<path d="M11.25 19.5526C11.25 14.3424 11.25 11.7372 12.7877 10.1186C14.3254 8.5 16.8003 8.5 21.75 8.5H26.25C31.1997 8.5 33.6745 8.5 35.2123 10.1186C36.75 11.7372 36.75 14.3424 36.75 19.5526V27.4474C36.75 32.6577 36.75 35.2627 35.2123 36.8814C33.6745 38.5 31.1997 38.5 26.25 38.5H21.75C16.8003 38.5 14.3254 38.5 12.7877 36.8814C11.25 35.2627 11.25 32.6577 11.25 27.4474V19.5526Z" stroke="white" stroke-width="2.25" stroke-linecap="round" stroke-linejoin="round"/>
<path d="M18 8.5L18.1233 9.2398C18.4226 11.0357 18.5723 11.9336 19.2017 12.4668C19.8311 13 20.7414 13 22.5621 13H25.4379C27.2586 13 28.169 13 28.7984 12.4668C29.4278 11.9336 29.5774 11.0357 29.8767 9.2398L30 8.5" stroke="white" stroke-width="2.25" stroke-linecap="round" stroke-linejoin="round"/>
<path d="M18 29.5H24M18 22H30" stroke="white" stroke-width="2.25" stroke-linecap="round"/>
<defs>
<linearGradient id="paint0_linear_337_1919" x1="24" y1="0" x2="24" y2="48" gradientUnits="userSpaceOnUse">
<stop stop-color="#0D9488"/>
<stop offset="1" stop-color="#0F766E"/>
</linearGradient>
</defs>
</svg>
