<svg width="320" height="320" viewBox="0 0 320 320" fill="none" xmlns="http://www.w3.org/2000/svg">
<g clip-path="url(#clip0_1014_7392)">
<path d="M160 0C281.326 0 320 38.6737 320 160C320 281.326 281.326 320 160 320C38.6736 320 0 281.326 0 160C0 38.6737 38.6736 0 160 0Z" fill="url(#paint0_linear_1014_7392)"/>
<path d="M160 2C220.573 2 259.85 11.6833 284.083 35.9168C308.317 60.1504 318 99.4272 318 160C318 220.573 308.317 259.85 284.083 284.083C259.85 308.317 220.573 318 160 318C99.4272 318 60.1504 308.317 35.9168 284.083C11.6833 259.85 2 220.573 2 160C2 99.4272 11.6833 60.1504 35.9168 35.9168C60.1504 11.6833 99.4272 2 160 2Z" stroke="#F8FAFC" stroke-opacity="0.2" stroke-width="4"/>
<g clip-path="url(#clip1_1014_7392)">
<g clip-path="url(#clip2_1014_7392)">
<path d="M151.825 53.0515C199.146 49.7642 230.522 72.9643 248.462 101.231C257.458 115.404 266.284 136.929 266.324 159.046C266.368 183.076 258.597 203.886 248.462 219.155C238.045 234.849 224.572 247.811 207.701 256.322C179.499 270.55 140.085 270.939 114.269 257.24C85.5188 241.984 63.4136 220.21 55.1878 182.447C51.8959 167.335 51.5175 147.809 56.1037 131.056C57.18 127.126 59.1358 122.99 60.6839 119.126C68.1237 100.557 80.7869 84.4091 96.4076 73.2407C102.684 68.7532 110.299 64.29 117.017 61.3106C125.377 57.6038 139.451 53.9109 151.825 53.0515Z" fill="white"/>
<path d="M241.587 161.718C241.587 206.525 205.331 242.845 160.609 242.845C115.887 242.845 79.6323 206.525 79.6323 161.718C79.6323 116.913 115.887 80.5898 160.609 80.5898C205.331 80.5898 241.587 116.913 241.587 161.718Z" fill="black"/>
<path d="M151.825 53.0515C199.146 49.7642 230.522 72.9643 248.462 101.231C257.458 115.404 266.284 136.929 266.324 159.046C266.368 183.076 258.597 203.886 248.462 219.155C238.045 234.849 224.572 247.811 207.701 256.322C179.499 270.55 140.085 270.939 114.269 257.24C85.5188 241.984 63.4136 220.21 55.1878 182.447C51.8959 167.335 51.5175 147.809 56.1037 131.056C57.18 127.126 59.1358 122.99 60.6839 119.126C68.1237 100.557 80.7869 84.4091 96.4076 73.2407C102.684 68.7532 110.299 64.29 117.017 61.3106C125.377 57.6038 139.451 53.9109 151.825 53.0515ZM135.795 60.8521C118.219 65.4176 105.331 73.5969 94.1177 82.4181C77.9476 95.1382 67.6393 112.889 61.5999 134.268C54.8808 158.053 59.1968 186.836 68.47 204.931C78.0861 223.696 90.9978 238.263 109.231 248.522C126.971 258.503 151.921 264.911 177.931 259.993C201.041 255.624 218.592 245.538 232.891 230.627C252.021 210.676 267.397 173.93 257.165 135.186C254.43 124.831 250.854 114.038 245.257 104.901C242.232 99.9655 237.795 95.1096 233.349 90.2184C216.569 71.7573 189.45 55.8489 154.573 58.0987C147.936 58.5268 142.103 59.2135 135.795 60.8521Z" fill="black"/>
<path d="M165.505 259.016L259.079 165.271" stroke="white" stroke-width="1.78766"/>
<path d="M157.325 251.591L251.306 157.437" stroke="white" stroke-width="1.78766"/>
<path d="M149.145 244.168L243.535 149.604" stroke="white" stroke-width="1.78766"/>
<path d="M140.964 236.744L235.763 141.771" stroke="white" stroke-width="1.78766"/>
<path d="M132.784 229.32L227.991 133.938" stroke="white" stroke-width="1.78766"/>
<path d="M124.604 221.898L220.218 126.104" stroke="white" stroke-width="1.78766"/>
<path d="M116.423 214.473L212.447 118.271" stroke="white" stroke-width="1.78766"/>
<path d="M108.243 207.048L204.674 110.438" stroke="white" stroke-width="1.78766"/>
<path d="M100.062 199.624L196.901 102.604" stroke="white" stroke-width="1.78766"/>
<path d="M91.8823 192.2L189.13 94.7715" stroke="white" stroke-width="1.78766"/>
<path d="M83.7017 184.776L181.358 86.9385" stroke="white" stroke-width="1.78766"/>
<path d="M75.521 177.352L173.586 79.1045" stroke="white" stroke-width="1.78766"/>
<path d="M67.3408 169.928L165.814 71.2715" stroke="white" stroke-width="1.78766"/>
<path d="M59.1602 162.504L158.042 63.4385" stroke="white" stroke-width="1.78766"/>
<path d="M59.1284 163.452L154.571 259.078" stroke="white" stroke-width="1.78766"/>
<path d="M66.8687 155.587L162.497 251.399" stroke="white" stroke-width="1.78766"/>
<path d="M74.6084 147.721L170.423 243.718" stroke="white" stroke-width="1.78766"/>
<path d="M82.3486 139.855L178.349 236.039" stroke="white" stroke-width="1.78766"/>
<path d="M90.0879 131.99L186.274 228.359" stroke="white" stroke-width="1.78766"/>
<path d="M97.8281 124.125L194.2 220.68" stroke="white" stroke-width="1.78766"/>
<path d="M105.568 116.26L202.126 213.001" stroke="white" stroke-width="1.78766"/>
<path d="M113.308 108.395L210.051 205.321" stroke="white" stroke-width="1.78766"/>
<path d="M121.048 100.529L217.978 197.642" stroke="white" stroke-width="1.78766"/>
<path d="M128.788 92.6641L225.903 189.962" stroke="white" stroke-width="1.78766"/>
<path d="M136.528 84.7988L233.829 182.283" stroke="white" stroke-width="1.78766"/>
<path d="M144.268 76.9336L241.755 174.604" stroke="white" stroke-width="1.78766"/>
<path d="M152.007 69.0684L249.68 166.925" stroke="white" stroke-width="1.78766"/>
<path d="M159.748 61.2031L257.606 159.245" stroke="white" stroke-width="1.78766"/>
<path d="M227.852 90.6776C219.431 82.2401 209.077 74.6369 196.709 70.0293C183.889 65.2532 169.387 61.2273 152.283 62.6875C125.037 65.0143 105.908 77.2612 91.3692 91.5953C81.1858 101.635 73.5257 113.938 68.4693 128.303C61.0453 149.397 61.4957 174.293 69.8433 195.754C76.9636 214.06 88.6177 228.825 105.109 240.263C120.612 251.016 142.863 259.355 167.854 257.241C198.293 254.665 220.565 239.019 235.18 220.991C238.919 216.379 242.637 211.166 244.797 204.932C246.914 200.44 247.95 197.386 248.92 195.755C252.979 186.642 255.13 177.026 255.789 166.388C257.819 133.668 245.253 108.111 227.852 90.6776ZM218.882 190.366C218.823 190.49 218.771 190.606 218.711 190.734C217.201 195.063 214.599 198.683 211.985 201.886C201.764 214.405 186.19 225.269 164.904 227.057C147.426 228.525 131.866 222.735 121.025 215.268C111.604 208.78 104.443 200.748 99.4208 191.096C99.1145 190.515 96.1981 183.783 96.1896 183.487C92.2112 171.125 91.866 151.245 95.9493 139.316C98.6744 131.354 103.216 122.74 109.231 115.915C117.536 106.491 125.847 100.452 139.001 96.184C145.007 94.2349 150.384 92.2512 157.779 92.0545C175.812 91.5735 194.176 99.6855 204.036 108.573C213.097 116.74 223.424 132.649 226.02 147.575C228.692 162.938 225.841 177.937 218.882 190.366Z" fill="black"/>
<path d="M187.537 205.102C183.096 205.102 179.199 202.284 177.839 198.091L172.893 182.992H148.15L143.555 197.953C142.167 202.228 138.241 205.09 133.777 205.09C132.706 205.09 131.641 204.92 130.614 204.586C125.279 202.981 122.25 197.228 123.884 191.768L144.769 125.492C146.125 121.276 150.117 118.335 154.478 118.335H165.583C169.969 118.335 173.961 121.226 175.29 125.365L197.254 191.617C199.01 197.033 196.102 202.848 190.775 204.585C189.721 204.928 188.632 205.102 187.537 205.102Z" fill="white" stroke="black" stroke-width="5.36298"/>
<path d="M105.519 97.2133L105.493 97.1779C102.888 93.6019 103.652 88.5994 107.488 85.7949C111.324 82.9908 116.251 83.7779 118.855 87.3535L118.881 87.3889C121.486 90.9648 120.721 95.9677 116.886 98.7718C113.05 101.576 108.123 100.789 105.519 97.2133ZM115.391 89.9953L115.365 89.9599C114.056 88.1631 111.62 87.5452 109.72 88.9342C107.838 90.3103 107.692 92.7619 109 94.559L109.026 94.5944C110.335 96.3911 112.771 97.0091 114.654 95.6329C116.554 94.2439 116.7 91.7923 115.391 89.9953Z" fill="white"/>
<path d="M130.628 73.7747L134.542 72.5166L145.515 85.2961L141.161 86.6955L139.254 84.4174L133.602 86.2341L133.395 89.1921L129.125 90.5646L130.628 73.7747ZM137.068 81.6275L134.099 77.979L133.781 82.684L137.068 81.6275Z" fill="white"/>
<path d="M152.564 77.6195L152.598 68.9639L156.929 68.981L156.895 77.5487C156.886 79.7732 158.003 80.8346 159.718 80.8418C161.433 80.8486 162.558 79.84 162.566 77.6818L162.601 69.0043L166.931 69.0214L166.898 77.567C166.878 82.5444 164.034 84.7138 159.659 84.6963C155.284 84.6784 152.545 82.4429 152.564 77.6195Z" fill="white"/>
<path d="M182.572 76.1068L178.157 74.7567L179.248 71.1758L192.156 75.1229L191.066 78.7038L186.651 77.3542L183.25 88.5179L179.171 87.2708L182.572 76.1068Z" fill="white"/>
<path d="M203.687 80.1201L207.237 82.4873L204.047 87.2909L208.604 90.3293L211.795 85.5253L215.345 87.8924L206.82 100.727L203.269 98.3602L206.509 93.4829L201.951 90.4445L198.712 95.3218L195.162 92.9547L203.687 80.1201Z" fill="white"/>
<path d="M216.228 220.426L216.256 220.46C218.995 223.934 218.422 228.963 214.696 231.912C210.97 234.861 206.016 234.263 203.276 230.789L203.249 230.755C200.51 227.281 201.084 222.252 204.809 219.303C208.535 216.354 213.489 216.952 216.228 220.426ZM206.637 228.017L206.664 228.052C208.041 229.797 210.499 230.322 212.345 228.861C214.173 227.413 214.227 224.958 212.85 223.212L212.823 223.178C211.447 221.432 208.988 220.908 207.16 222.355C205.314 223.816 205.261 226.272 206.637 228.017Z" fill="white"/>
<path d="M192.155 244.851L188.3 246.281L176.777 233.998L181.065 232.407L183.07 234.6L188.637 232.535L188.714 229.571L192.919 228.012L192.155 244.851ZM185.377 237.29L188.504 240.804L188.614 236.09L185.377 237.29Z" fill="white"/>
<path d="M170.089 241.92L170.469 250.567L166.143 250.758L165.766 242.199C165.668 239.977 164.501 238.97 162.788 239.046C161.075 239.122 160 240.184 160.095 242.34L160.477 251.009L156.15 251.2L155.774 242.663C155.555 237.691 158.292 235.387 162.662 235.194C167.033 235 169.876 237.101 170.089 241.92Z" fill="white"/>
<path d="M140.026 244.747L144.484 245.953L143.51 249.567L130.477 246.043L131.451 242.428L135.908 243.633L138.945 232.362L143.063 233.476L140.026 244.747Z" fill="white"/>
<path d="M118.958 241.606L115.3 239.41L118.261 234.46L113.565 231.64L110.604 236.59L106.946 234.394L114.858 221.169L118.516 223.366L115.51 228.391L120.205 231.211L123.212 226.185L126.87 228.382L118.958 241.606Z" fill="white"/>
</g>
</g>
</g>
<defs>
<linearGradient id="paint0_linear_1014_7392" x1="160" y1="0" x2="160" y2="320" gradientUnits="userSpaceOnUse">
<stop stop-color="#475569"/>
<stop offset="1" stop-color="#1E293B"/>
</linearGradient>
<clipPath id="clip0_1014_7392">
<rect width="320" height="320" fill="white"/>
</clipPath>
<clipPath id="clip1_1014_7392">
<rect width="240" height="240" fill="white" transform="translate(40 40)"/>
</clipPath>
<clipPath id="clip2_1014_7392">
<rect width="240" height="240" fill="white" transform="translate(40 40)"/>
</clipPath>
</defs>
</svg>
