<?xml version="1.0" encoding="UTF-8"?>
<svg width="606px" height="606px" viewBox="0 0 606 606" version="1.1" xmlns="http://www.w3.org/2000/svg" xmlns:xlink="http://www.w3.org/1999/xlink">
    <!-- Generator: Sketch 40.2 (33826) - http://www.bohemiancoding.com/sketch -->
    <title>oauth</title>
    <desc>Created with Sketch.</desc>
    <defs>
        <linearGradient x1="50%" y1="0%" x2="50%" y2="100%" id="linearGradient-1">
            <stop stop-color="#FFFFFF" stop-opacity="0.2" offset="0%"></stop>
            <stop stop-color="#000000" stop-opacity="0.2" offset="100%"></stop>
        </linearGradient>
        <path d="M552.268958,552.268958 C600,504.537813 600,431.458333 600,300 C600,168.541667 600,95.4621875 552.268958,47.7310417 C504.537813,0 431.458333,0 300,0 C168.541667,0 95.4621875,0 47.7310417,47.7310417 C0,95.4621875 0,168.541667 0,300 C0,431.458333 0,504.537813 47.7310417,552.268958 C95.4621875,600 168.541667,600 300,600 C431.458333,600 504.537813,600 552.268958,552.268958 Z" id="path-2"></path>
    </defs>
    <g id="Page-1" stroke="none" stroke-width="1" fill="none" fill-rule="evenodd">
        <g id="oauth" transform="translate(3.000000, 3.000000)">
            <g id="Squircle2-Copy-6">
                <g id="Shape">
                    <use fill="#FFFFFF" xlink:href="#path-2"></use>
                    <use stroke="#000000" stroke-width="4.04" fill="url(#linearGradient-1)" xlink:href="#path-2"></use>
                </g>
            </g>
            <g id="Group" opacity="0.9" transform="translate(101.000000, 101.000000)">
                <path d="M184.983496,0.579358948 C273.280718,-5.53844473 331.826708,37.6375953 365.301922,90.242589 C382.08682,116.618629 398.555336,156.678529 398.631268,197.838596 C398.712528,242.56006 384.213573,281.28818 365.301922,309.704153 C345.864744,338.910809 320.724697,363.033937 289.243688,378.873537 C236.620369,405.351408 163.077206,406.075534 114.906547,380.581358 C61.2601463,352.19001 20.0132579,311.666216 4.66440104,241.389344 C-1.47807231,213.265551 -2.18410373,176.926782 6.37352993,145.748745 C8.38172327,138.434935 12.0311064,130.737764 14.9198406,123.546416 C28.8020169,88.9880133 52.4307571,58.9367634 81.5778676,38.1520712 C93.2899963,29.8006569 107.498546,21.4945005 120.0346,15.9497418 C135.632566,9.05123927 161.89427,2.17869338 184.983496,0.579358948 L184.983496,0.579358948 Z" id="Shape" fill="#FFFFFF"></path>
                <path d="M352.472132,202.811641 C352.472132,286.197997 284.822333,353.791341 201.373416,353.791341 C117.924498,353.791341 50.2760292,286.197997 50.2760292,202.811641 C50.2760292,119.427281 117.924498,51.8286103 201.373416,51.8286103 C284.821667,51.8286103 352.472132,119.427281 352.472132,202.811641 L352.472132,202.811641 Z" id="Shape" fill="#000000"></path>
                <path d="M184.983496,0.579358948 C273.280718,-5.53844473 331.826708,37.6375953 365.301922,90.242589 C382.08682,116.618629 398.555336,156.678529 398.631268,197.838596 C398.712528,242.56006 384.213573,281.28818 365.301922,309.704153 C345.864744,338.910809 320.724697,363.033937 289.243688,378.873537 C236.620369,405.351408 163.077206,406.075534 114.906547,380.581358 C61.2601463,352.19001 20.0132579,311.666216 4.66440104,241.389344 C-1.47807231,213.265551 -2.18410373,176.926782 6.37352993,145.748745 C8.38172327,138.434935 12.0311064,130.737764 14.9198406,123.546416 C28.8020169,88.9880133 52.4307571,58.9367634 81.5778676,38.1520712 C93.2899963,29.8006569 107.498546,21.4945005 120.0346,15.9497418 C135.632566,9.05123927 161.89427,2.17869338 184.983496,0.579358948 L184.983496,0.579358948 Z M155.072408,15.0964972 C122.275916,23.593003 98.2288859,38.8149664 77.3050453,55.2316053 C47.1328572,78.9041531 27.8981635,111.939095 16.6289695,151.726116 C4.09158309,195.991008 12.145004,249.556399 29.4481023,283.232273 C47.3912914,318.155401 71.4836165,345.26422 105.506338,364.356399 C138.606556,382.930775 185.162002,394.857564 233.695667,385.704819 C276.816869,377.573038 309.566736,358.802323 336.246731,331.052572 C371.942614,293.924453 400.632134,225.539095 381.540645,153.433937 C376.437237,134.162722 369.76524,114.077531 359.320637,97.0738702 C353.677714,87.8878469 345.397165,78.8509085 337.101295,69.7480799 C305.792132,35.3913391 255.188996,5.78534895 190.110882,9.97237072 C177.726026,10.7690429 166.841819,12.0469131 155.072408,15.0964972 L155.072408,15.0964972 Z" id="Shape" fill="#000000"></path>
                <g id="hashpattern" transform="translate(11.989213, 15.307820)" stroke="#FFFFFF" stroke-width="2">
                    <g id="Group" transform="translate(0.000000, 3.993344)">
                        <path d="M198.521382,364.585691 L373.122952,190.121797" id="Shape"></path>
                        <path d="M183.257782,350.768719 L358.620667,175.543428" id="Shape"></path>
                        <path d="M167.993516,336.953744 L344.119048,160.965724" id="Shape"></path>
                        <path d="M152.72925,323.136772 L329.616763,146.38802" id="Shape"></path>
                        <path d="M137.46565,309.320466 L315.115144,131.809651" id="Shape"></path>
                        <path d="M122.201384,295.507488 L300.612193,117.231947" id="Shape"></path>
                        <path d="M106.937117,281.687854 L286.110574,102.654243" id="Shape"></path>
                        <path d="M91.6728513,267.871547 L271.607623,88.0758735" id="Shape"></path>
                        <path d="M76.4085852,254.055241 L257.102008,73.4981697" id="Shape"></path>
                        <path d="M61.1449852,240.23827 L242.603719,58.9204659" id="Shape"></path>
                        <path d="M45.8807191,226.422629 L228.101434,44.3427621" id="Shape"></path>
                        <path d="M30.6164531,212.606323 L213.599815,29.7643927" id="Shape"></path>
                        <path d="M15.352187,198.789351 L199.09753,15.1866889" id="Shape"></path>
                        <path d="M0.0879208938,184.973045 L184.595245,0.608985025" id="Shape"></path>
                    </g>
                    <g id="Group">
                        <path d="M0.0286408972,190.730116 L178.119072,368.69218" id="Shape"></path>
                        <path d="M14.4709798,176.092512 L192.907766,354.401331" id="Shape"></path>
                        <path d="M28.9133188,161.454908 L207.69646,340.109151" id="Shape"></path>
                        <path d="M43.3556577,146.817304 L222.48582,325.818303" id="Shape"></path>
                        <path d="M57.7973306,132.1797 L237.273848,311.526123" id="Shape"></path>
                        <path d="M72.2396695,117.542097 L252.063874,297.234609" id="Shape"></path>
                        <path d="M86.6820085,102.904493 L266.852568,282.943095" id="Shape"></path>
                        <path d="M101.123681,88.2668885 L281.641262,268.650915" id="Shape"></path>
                        <path d="M115.56602,73.6292845 L296.430622,254.359401" id="Shape"></path>
                        <path d="M130.008359,58.9916805 L311.21865,240.066556" id="Shape"></path>
                        <path d="M144.450698,44.3540765 L326.00801,225.776373" id="Shape"></path>
                        <path d="M158.892371,29.7164725 L340.796704,211.484193" id="Shape"></path>
                        <path d="M173.33471,15.0795341 L355.585398,197.193344" id="Shape"></path>
                        <path d="M187.777715,0.441930116 L370.374758,182.901165" id="Shape"></path>
                    </g>
                </g>
                <path d="M326.845856,70.60199 C311.131328,54.8994922 291.811378,40.7497418 268.733476,32.1747002 C244.812332,23.286181 217.752679,15.7940013 185.83806,18.5114722 C134.999802,22.8415887 99.3052508,45.633602 72.1769926,72.3098103 C53.1754205,90.9940033 38.8822806,113.889844 29.4474362,140.624619 C15.5945669,179.87986 16.4351439,226.21397 32.0111295,266.153404 C45.2971755,300.221291 67.0429453,327.699494 97.814592,348.985351 C126.742564,368.996666 168.261208,384.516799 214.893251,380.581358 C271.690149,375.788013 313.247425,346.671208 340.518221,313.120459 C347.495943,304.537431 354.433701,294.835601 358.464074,283.232938 C362.413188,274.872872 364.346115,269.189677 366.155821,266.15407 C373.730339,249.194336 377.743395,231.30016 378.974287,211.502489 C382.76088,150.609311 359.313976,103.045917 326.845856,70.60199 L326.845856,70.60199 Z M310.106917,256.124785 C309.998348,256.356399 309.901102,256.57204 309.787871,256.810975 C306.970406,264.867547 302.116773,271.604319 297.238495,277.565052 C278.166322,300.862223 249.106468,321.080526 209.387538,324.409644 C176.776214,327.141092 147.74167,316.365052 127.512538,302.469544 C109.933688,290.394336 96.5710442,275.447248 87.2008084,257.483854 C86.6293225,256.402988 81.1875521,243.875201 81.1715665,243.32412 C73.7482455,220.316466 73.1041584,183.320792 80.7233031,161.119794 C85.8080615,146.302489 94.2824367,130.270542 105.506338,117.569045 C121.003062,100.030942 136.511108,88.793005 161.055025,80.8495774 C172.261609,77.2222895 182.293916,73.5304426 196.092834,73.164386 C229.742557,72.2692113 264.008394,87.3660499 282.406507,103.905817 C299.313961,119.105151 318.58329,148.712473 323.427598,176.490176 C328.413113,205.080526 323.092566,232.994669 310.106917,256.124785 L310.106917,256.124785 Z" id="Shape" fill="#000000"></path>
                <path d="M251.618941,283.549418 C243.333063,283.549418 236.061605,278.306156 233.523889,270.50183 L224.294859,242.403328 L178.126399,242.403328 L169.551447,270.245591 C166.963109,278.201664 159.636368,283.527454 151.307862,283.527454 C149.308328,283.527454 147.322115,283.211314 145.404507,282.589684 C135.449464,279.603328 129.797882,268.896506 132.847804,258.736106 L171.816742,135.393012 C174.347132,127.546755 181.79643,122.073877 189.933775,122.073877 L210.655131,122.073877 C218.838435,122.073877 226.287066,127.453577 228.768167,135.156739 L269.750627,258.45391 C273.027679,268.534443 267.601228,279.35574 257.660838,282.589018 C255.695273,283.226622 253.663102,283.549418 251.618941,283.549418 L251.618941,283.549418 L251.618941,283.549418 Z" id="Shape" stroke="#000000" stroke-width="6" fill="#FFFFFF"></path>
                <g id="OAUTH" transform="translate(95.247635, 29.950083)" fill="#FFFFFF">
                    <g id="Group">
                        <path d="M3.33100295,52.8146423 L3.28238004,52.7487521 C-1.57724755,46.0938436 -0.151197295,36.7840266 7.00569667,31.5647255 C14.1625906,26.3460899 23.3563187,27.8109817 28.2159462,34.4652246 L28.2645692,34.5311148 C33.1241967,41.1860233 31.6981465,50.4965058 24.5412525,55.7151414 C17.3843585,60.933777 8.19063054,59.4695507 3.33100295,52.8146423 L3.33100295,52.8146423 Z M21.7524284,39.3816972 L21.7038055,39.315807 C19.2620025,35.9720466 14.7154266,34.8219634 11.170616,37.4069884 C7.6584427,39.9680532 7.38535508,44.5304493 9.82715808,47.8748752 L9.875781,47.9407654 C12.3182501,51.2845258 16.8641599,52.434609 20.3763332,49.8735441 C23.9218099,47.2885191 24.1948975,42.7261231 21.7524284,39.3816972 L21.7524284,39.3816972 Z" id="Shape"></path>
                        <path d="M50.1841805,9.19600666 L57.4876093,6.85457571 L77.9618544,30.637604 L69.8378306,33.2419301 L66.2796986,29.0023295 L55.7338539,32.3833611 L55.3475348,37.8881864 L47.3800368,40.4425957 L50.1841805,9.19600666 L50.1841805,9.19600666 Z M62.200036,23.8103161 L56.6596875,17.0202995 L56.0675536,25.7763727 L62.200036,23.8103161 L62.200036,23.8103161 Z" id="Shape"></path>
                        <path d="M91.1146869,16.3507488 L91.1786293,0.242262895 L99.2593588,0.274209651 L99.1960824,16.2189684 C99.1794307,20.3587354 101.263555,22.3341098 104.463343,22.347421 C107.663131,22.3600666 109.762575,20.4831947 109.777895,16.4665557 L109.842503,0.317470882 L117.923233,0.349417637 L117.859956,16.2529118 C117.823323,25.5161398 112.516098,29.553411 104.352776,29.5207987 C96.1901203,29.4875208 91.0793853,25.3271215 91.1146869,16.3507488 L91.1146869,16.3507488 Z" id="Shape"></path>
                        <polygon id="Shape" points="147.106975 13.5361065 138.869054 11.0236273 140.904555 4.359401 164.99155 11.7051581 162.956048 18.3693844 154.718127 15.8575707 148.372503 36.6336106 140.762017 34.312812"></polygon>
                        <polygon id="Shape" points="186.506858 21.0043261 193.131565 25.4096506 187.178254 34.3494176 195.68127 40.0039933 201.635247 31.0635607 208.259953 35.4688852 192.352266 59.3550749 185.726894 54.9497504 191.772121 45.8728785 183.268439 40.2183028 177.223877 49.2951747 170.599171 44.8898502"></polygon>
                    </g>
                    <g id="Group" transform="translate(5.994606, 276.206323)">
                        <path d="M203.913863,5.91214642 L203.964484,5.97670549 C209.075885,12.4412646 208.006181,21.8003328 201.05377,27.2885191 C194.101359,32.7767055 184.857676,31.6638935 179.746275,25.1993344 L179.695653,25.1347754 C174.584252,18.6695507 175.654623,9.31114809 182.606368,3.82296173 C189.558779,-1.66455907 198.802462,-0.552412646 203.913863,5.91214642 L203.913863,5.91214642 Z M186.017299,20.0399334 L186.06792,20.1044925 C188.636276,23.3530782 193.223482,24.3287854 196.667716,21.6099834 C200.079313,18.9164725 200.178557,14.3467554 197.609536,11.0981697 L197.558914,11.0336106 C194.991225,7.78502496 190.403353,6.8093178 186.991755,9.50282862 C183.547521,12.2216306 183.448943,16.7913478 186.017299,20.0399334 L186.017299,20.0399334 Z" id="Shape"></path>
                        <path d="M158.994945,51.3690516 L151.801418,54.0292845 L130.299431,31.1700499 L138.300898,28.2103161 L142.042865,32.290183 L152.429519,28.4485857 L152.572724,22.9324459 L160.42033,20.0299501 L158.994945,51.3690516 L158.994945,51.3690516 Z M146.346992,37.2978369 L152.181076,43.8369384 L152.386891,35.0635607 L146.346992,37.2978369 L146.346992,37.2978369 Z" id="Shape"></path>
                        <path d="M117.819326,45.9134775 L118.53002,62.00599 L110.457284,62.3620632 L109.75325,46.4332779 C109.570748,42.2975042 107.39404,40.4246256 104.197582,40.5657238 C101.001125,40.706822 98.9942639,42.6828619 99.1714379,46.6955075 L99.88413,62.828619 L91.8113933,63.1846922 L91.1093583,47.2971714 C90.700393,38.0432612 95.8077976,33.7557404 103.962461,33.3963394 C112.117789,33.0362729 117.423016,36.9457571 117.819326,45.9134775 L117.819326,45.9134775 Z" id="Shape"></path>
                        <polygon id="Shape" points="61.7251299 51.1753744 70.0423133 53.4189684 68.2246154 60.1464226 43.9058294 53.5873544 45.7235272 46.8592346 54.0407106 49.1028286 59.7069458 28.1271215 67.390699 30.1996672"></polygon>
                        <polygon id="Shape" points="22.4131672 45.3297837 15.5866427 41.2419301 21.1116716 32.0299501 12.3508874 26.7826955 6.82585848 35.9946755 0 31.906822 14.7627173 7.29517471 21.5885758 11.3836938 15.9789564 20.7361065 24.7404067 25.9833611 30.3500261 16.6309484 37.1758846 20.7194676"></polygon>
                    </g>
                </g>
            </g>
        </g>
    </g>
</svg>