<svg width="240" height="240" viewBox="0 0 240 240" fill="none" xmlns="http://www.w3.org/2000/svg">
<rect width="240" height="240" fill="#0EA5E9"/>
<path fill-rule="evenodd" clip-rule="evenodd" d="M156.828 115.98C153.438 114.328 151.591 110.001 154.387 107.472C156.1 105.921 157.956 104.525 159.933 103.306C161.489 102.346 163.441 102.52 165.05 103.389C169.183 105.622 173.915 106.89 178.942 106.89C184.272 106.89 189.269 105.465 193.573 102.976C195.156 102.06 197.102 101.83 198.686 102.744C208.244 108.265 215.164 117.842 217.093 129.123C217.333 130.524 216.873 131.95 215.879 132.966C209.197 139.805 200.587 144.753 190.927 146.932C188.864 147.398 186.804 146.334 185.724 144.515C178.977 133.152 169.665 123.668 158.648 116.973C158.049 116.61 157.443 116.28 156.828 115.98Z" fill="#7DD3FC"/>
<path fill-rule="evenodd" clip-rule="evenodd" d="M166.31 94.2833C164.813 93.1465 164.413 91.1437 164.89 89.3256C165.869 85.59 166.391 81.6688 166.391 77.6258C166.391 73.5827 165.869 69.6615 164.89 65.9259C164.413 64.1078 164.813 62.1049 166.31 60.9682C169.818 58.3038 174.194 56.7225 178.94 56.7225C190.484 56.7225 199.843 66.0812 199.843 77.6257C199.843 89.1702 190.484 98.5289 178.94 98.5289C174.194 98.5289 169.818 96.9476 166.31 94.2833Z" fill="#BAE6FD"/>
<path fill-rule="evenodd" clip-rule="evenodd" d="M23.2773 132.977C22.2837 131.961 21.823 130.535 22.0621 129.134C23.9248 118.222 30.4577 108.903 39.531 103.306C41.0876 102.346 43.0396 102.52 44.6487 103.389C48.7816 105.622 53.5129 106.89 58.5403 106.89C63.8703 106.89 68.8674 105.465 73.1716 102.975C74.7545 102.06 76.7001 101.83 78.2835 102.744C81.0462 104.34 83.5885 106.274 85.8536 108.491C88.1106 110.699 87.1794 114.336 84.4362 115.9C72.5006 122.705 62.448 132.734 55.3184 144.885C54.281 146.653 52.3175 147.722 50.3005 147.356C39.8022 145.45 30.4351 140.298 23.2773 132.977Z" fill="#7DD3FC"/>
<path fill-rule="evenodd" clip-rule="evenodd" d="M75.8799 68.8C76.165 67.4668 75.9959 66.048 75.1693 64.9638C71.3505 59.955 65.3207 56.7225 58.536 56.7225C46.9915 56.7225 37.6328 66.0812 37.6328 77.6257C37.6328 89.1702 46.9915 98.5289 58.536 98.5289C65.1202 98.5289 70.9935 95.4847 74.825 90.727C75.6797 89.6656 75.8869 88.2526 75.6381 86.9128C75.1292 84.1734 74.8632 81.3487 74.8632 78.4619C74.8632 75.1477 75.2138 71.9153 75.8799 68.8Z" fill="#BAE6FD"/>
<path fill-rule="evenodd" clip-rule="evenodd" d="M103.958 136.488C104.754 129.495 99.8495 121.161 92.9422 122.51C90.2158 123.042 87.593 123.973 85.1317 125.482C72.4166 133.277 62.4329 145.092 56.9506 159.159C52.8219 169.753 56.758 181.69 65.8312 188.542C81.174 200.129 100.277 207 120.985 207C141.696 207 160.802 200.127 176.146 188.537C185.219 181.684 189.154 169.747 185.024 159.154C179.518 145.031 169.476 133.178 156.688 125.386C153.464 123.422 149.968 122.446 146.326 122.058C139.44 121.324 134.781 129.433 135.577 136.312C136.221 141.872 136.5 148.718 136.5 157.058C136.5 188.759 132.458 198.864 119.778 198.864C107.097 198.864 103.055 188.759 103.055 157.058C103.055 148.805 103.329 142.016 103.958 136.488Z" fill="#7DD3FC"/>
<path d="M119.783 123.613C126.123 123.613 128.144 131.697 128.144 157.058C128.144 182.419 126.123 190.503 119.783 190.503C113.443 190.503 111.422 182.419 111.422 157.058C111.422 131.697 113.443 123.613 119.783 123.613Z" fill="#BAE6FD"/>
<circle cx="120.852" cy="77.6257" r="37.6257" fill="#E0F2FE"/>
</svg>
