<?xml version="1.0" encoding="UTF-8"?>
<svg width="606px" height="606px" viewBox="0 0 606 606" version="1.1" xmlns="http://www.w3.org/2000/svg" xmlns:xlink="http://www.w3.org/1999/xlink">
    <!-- Generator: Sketch 40.2 (33826) - http://www.bohemiancoding.com/sketch -->
    <title>mailchimp</title>
    <desc>Created with Sketch.</desc>
    <defs>
        <linearGradient x1="50%" y1="0%" x2="50%" y2="100%" id="linearGradient-1">
            <stop stop-color="#FFFFFF" stop-opacity="0.2" offset="0%"></stop>
            <stop stop-color="#000000" stop-opacity="0.2" offset="100%"></stop>
        </linearGradient>
        <path d="M552.268958,552.268958 C600,504.537813 600,431.458333 600,300 C600,168.541667 600,95.4621875 552.268958,47.7310417 C504.537813,0 431.458333,0 300,0 C168.541667,0 95.4621875,0 47.7310417,47.7310417 C0,95.4621875 0,168.541667 0,300 C0,431.458333 0,504.537813 47.7310417,552.268958 C95.4621875,600 168.541667,600 300,600 C431.458333,600 504.537813,600 552.268958,552.268958 Z" id="path-2"></path>
    </defs>
    <g id="Page-1" stroke="none" stroke-width="1" fill="none" fill-rule="evenodd">
        <g id="mailchimp" transform="translate(3.000000, 3.000000)">
            <g id="Squircle2-Copy-6">
                <g id="Shape">
                    <use fill="#FFFFFF" xlink:href="#path-2"></use>
                    <use stroke="#000000" stroke-width="4.04" fill="url(#linearGradient-1)" xlink:href="#path-2"></use>
                </g>
            </g>
            <g id="mc_freddie_color_web" opacity="0.9" transform="translate(109.000000, 100.000000)">
                <path d="M375.550301,285.663327 C375.239279,286.680561 345.853307,399.632064 230.392786,399.598397 C130.58517,399.567936 83.2777555,312.814429 83.2777555,312.814429 C76.004008,313.22004 68.9851703,312.06493 62.5114228,309.686573 C33.2288577,298.929058 19.1791583,265.428457 29.2825651,237.322645 L13.1887776,225.023647 C-49.153507,177.532665 127.450902,-39.7875752 189.901403,9.38757515 C190.217234,9.63607214 204.808818,21.3811623 204.808818,21.3811623 C227.232064,7.76432866 249.438878,0.403206413 267.49018,0.40240481 C280.309419,0.400801603 291.030862,4.11222445 298.250902,11.9302605 C314.46012,29.4805611 308.63487,62.9947896 286.501002,96.9258517 C291.261723,101.445291 295.207214,107.587976 298.023246,113.685772 C305.059719,119.11503 309.620842,127.369138 311.886974,138.768737 C314.410421,151.444489 314.933066,169.4998 316.517034,177.258517 C322.485772,179.952705 319.943086,178.705411 326.307014,181.884569 C332.942685,185.200802 341.022846,189.239279 349.952705,197.831663 C365.825251,201.808417 371.886172,218.683768 362.598798,230.201202 C362.349499,230.50982 361.228056,231.838878 360.066533,233.160721 C360.343888,233.891784 363.388377,238.824048 365.585571,248.865731 C372.162725,250.419238 377.402004,254.468938 380.151503,260.341483 C384.906613,271.83487 375.550301,285.663327 375.550301,285.663327 L375.550301,285.663327 Z M329.779559,370.965932 L329.779559,375.693788 L331.590381,375.693788 L331.590381,370.965932 L333.442084,370.965932 L333.442084,369.474148 L327.951904,369.474148 L327.951904,370.965932 L329.779559,370.965932 L329.779559,370.965932 Z M333.995992,369.474148 L333.995992,375.693788 L335.647295,375.693788 L335.647295,371.203206 L336.996393,375.693788 L338.40481,375.693788 L339.753908,371.191182 L339.753908,375.693788 L341.40521,375.693788 L341.40521,369.474148 L338.823246,369.474148 L337.708216,373.053307 L336.576353,369.474148 L333.995992,369.474148 L333.995992,369.474148 Z" id="Fill-1" fill="#5B453E"></path>
                <path d="M106.831263,243.160721 L106.831263,243.160721 C109.345892,236.769539 110.613226,231.523848 110.613226,231.523848 C113.491784,240.323848 114.964329,249.579158 114.386373,258.934669 C116.772745,255.759519 119.334669,249.779559 119.334669,249.779559 C123.773948,275.913427 104.702204,299.835671 79.5767535,299.835671 C57.2689379,299.835671 39.1855711,280.798397 39.1855711,257.314629 C39.1855711,233.83006 57.2689379,214.792786 79.5767535,214.792786 C85.3587174,214.792786 90.8577154,216.072144 95.8316633,218.376754 C95.8316633,218.375952 104.416834,222.704609 106.831263,243.160721 L106.831263,243.160721 Z M326.623647,335.316232 C357.935872,310.714228 363.406012,281.083768 363.927856,280.062525 C371.632866,270.821643 369.538277,261.717836 359.359519,261.717034 C356.121042,261.717034 353.674549,262.571543 353.674549,262.571543 C353.674549,262.571543 353.712224,249.086974 347.47495,238.58517 C342.666132,243.992786 329.319439,254.705411 311.806814,263.019639 C295.383567,270.816834 273.47014,277.64489 246.313427,278.549098 L246.312625,278.549098 C238.708617,278.879359 234.00481,277.641683 231.356313,286.506613 C230.510621,289.638477 230.876152,294.290982 231.512625,295.636072 C233.654509,302.978758 239.251303,306.21483 246.618036,307.928657 C252.204409,309.229659 258.137074,309.352305 258.137074,309.352305 C313.212826,310.896192 357.438878,267.941483 357.967134,267.58477 C358.478557,267.165531 358.901804,266.669339 358.901804,266.669339 C358.901804,266.669339 358.416032,267.808417 358.358317,267.937475 C350.403206,285.826854 304.344689,318.267735 258.499399,317.338677 L258.348697,317.392385 C247.716232,317.351503 234.798397,314.61483 228.082565,306.286974 C217.456513,293.111022 222.970741,271.202405 239.906212,270.689379 C239.927054,270.688577 243.821242,270.598798 245.554309,270.554709 C287.485371,269.265731 325.109419,253.860521 352.048096,221.690581 C355.752305,217.088577 351.614429,210.767936 343.586373,210.575551 C343.515832,210.573948 343.447695,210.543487 343.399599,210.492184 C333.881363,200.300601 325.51503,196.6998 318.069739,192.917034 C302.464128,184.966733 303.932665,191.834068 300.303006,153.272946 C299.321042,142.876954 297.352305,128.698998 288.218838,123.263327 C285.825251,121.838076 283.208818,121.227255 280.492184,121.227255 C277.807615,121.227255 276.499399,121.774749 275.971944,121.891784 C270.96994,123.000401 268.12505,125.836473 264.561924,129.122244 C247.723447,144.649299 234.264529,140.434469 214.176353,140.256513 C195.30982,140.091383 178.652505,153.252104 175.466132,173.462926 L175.460521,173.474148 C173.911824,184.053707 174.914629,194.803206 176.572345,199.635271 C176.572345,199.635271 171.451703,196.228457 169.011623,193.212826 C171.964729,211.676152 188.809619,223.743487 188.809619,223.743487 C186.156313,224.352705 182.33988,224.1002 182.33988,224.1002 C182.355912,224.113828 191.954309,231.70501 200.285371,234.353507 C198.115431,235.704208 187.134269,246.540281 181.470942,261.457315 C176.171543,275.417234 178.330261,292.176353 178.330261,292.176353 L182.933066,285.315431 C182.933066,285.315431 179.927054,300.606012 185.74509,315.413226 C187.675351,311.008417 191.892585,303.145491 191.892585,303.145491 C191.892585,303.145491 191.224048,319.566333 199.129459,333.010822 C199.332265,329.907816 200.518637,322.008016 200.518637,322.008016 C200.518637,322.008016 205.05491,336.026453 215.534269,345.828457 C235.151102,363.236874 287.091784,366.380762 326.623647,335.316232 L326.623647,335.316232 Z" id="Fill-2" fill="#F2D9B4"></path>
                <path d="M35.3298597,225.358717 C35.1703407,225.316232 20.1306613,214.278958 17.9911824,210.644489 C5.33707415,189.290581 27.3523046,145.429259 43.0188377,120.497796 C81.7346693,58.8817635 146.177154,10.2549098 175.446092,17.1991984 L205.503006,32.7142285 C193.832465,39.5791583 182.54509,48.0112224 175.783567,53.6192385 L169.387575,58.9827655 C169.387575,58.9827655 150.71022,71.557515 141.421242,79.4845691 C104.183567,111.259319 67.5190381,160.448898 53.9222445,207.930261 C53.9222445,207.928657 42.7503006,213.47495 35.3298597,225.358717" id="Fill-3" fill="#207EAC"></path>
                <path d="M175.446894,17.1983968 L175.446894,17.1983968 C146.177154,10.2541082 81.7362725,58.8801603 43.0196393,120.496994 C43.0084168,120.514629 42.9971944,120.533066 42.9859719,120.550701 L43.1422846,120.567535 L73.991984,144.854509 C107.864529,91.0869739 150.436874,63.3627255 151.637675,62.5482966 L146.746293,29.6392786 L155.909419,25.2521042 L174.298998,31.2072144 L172.892184,25.0637275 L175.446894,17.1983968" id="Fill-4" fill="#4EB1D3"></path>
                <path d="M205.503006,32.7134269 L175.783567,53.6176353 L173.704208,55.2448898 L147.3499,33.7122244 L146.744689,29.6400802 L155.907816,25.2529058 C156.378357,25.4052104 173.571944,30.9731463 174.297395,31.208016 L174.604409,19.7907816 L175.446092,17.1991984 L183.495792,14.1146293 C183.507014,14.1226453 205.472545,32.6869739 205.503006,32.7134269" id="Fill-5" fill="#FACD55"></path>
                <path d="M264.150701,12.2116232 C244.496192,12.2116232 222.430461,22.5490982 205.503006,32.7126253 C203.128657,34.1098196 200.772745,35.5719439 198.46493,37.0621242 L189.608016,29.6376754 L192.82485,40.8176353 C191.608818,41.6529058 190.421643,42.4857715 189.259319,43.3138277 L170.958717,37.7258517 L183.067735,47.8621242 C180.303006,49.957515 177.833267,51.9190381 175.784369,53.6176353 L146.745491,29.6400802 L148.282966,40.3863727 L169.388377,58.9819639 C169.388377,58.9819639 150.711022,71.5559118 141.422044,79.4837675 C104.184369,111.257715 67.5198397,160.448096 53.9230461,207.929459 L54.6957916,207.49499 C54.8008016,207.436473 54.9066132,207.388377 55.0116232,207.330661 C55.38998,207.127054 55.7667335,206.933066 56.1450902,206.742285 C56.387976,206.620441 56.6292585,206.496994 56.8721443,206.380762 C57.2609218,206.193988 57.650501,206.02004 58.0400802,205.848497 C58.2693387,205.746693 58.5002004,205.64008 58.7302605,205.544689 C59.1519038,205.367535 59.5727455,205.207214 59.9943888,205.047695 C60.1891784,204.973948 60.3839679,204.892986 60.5787575,204.824048 C61.1927856,204.603607 61.8044088,204.400802 62.4144289,204.218838 C71.658517,201.461323 84.2348697,199.688176 98.9571142,205.93988 C106.350301,187.292184 115.183166,168.31984 129.103006,150.08978 C140.389579,135.308216 151.238477,122.112224 164.260521,114.854509 C188.916232,91.692986 255.36994,67.1326653 276.659719,88.4216433 C281.693788,80.1867735 286.062525,72.3911824 289.661723,62.6188377 C298.54509,39.1182365 298.707014,12.2116232 264.150701,12.2116232" id="Fill-6" fill="#131B23"></path>
                <polyline id="Fill-7" fill="#131B23" points="179.792385 32.9859719 175.446894 17.1983968 172.891383 25.0637275 174.420842 31.246493 179.792385 32.9859719"></polyline>
                <path d="M353.675351,262.556313 C353.675351,262.556313 353.713026,249.071743 347.475752,238.56994 C342.666934,243.977555 329.32024,254.69018 311.807615,263.004409 C295.38517,270.800802 273.470942,277.629659 246.314228,278.533868 L246.313427,278.533868 C238.709419,278.864128 234.005611,277.626453 231.357114,286.491383 C231.150301,287.255311 231.016433,288.110621 230.940281,288.985972 L230.937074,289.075752 C230.936273,289.075752 230.934669,289.07495 230.933868,289.07495 C230.910621,289.357916 230.892986,289.641683 230.881764,289.925451 C230.855311,290.735872 230.863327,291.449299 230.895391,292.072144 C230.896192,292.087375 230.896994,292.101804 230.897796,292.117034 C230.9002,292.163527 230.902605,292.208417 230.90501,292.253307 C230.929058,292.642886 230.962725,293.016433 231.003607,293.367535 C231.00521,293.384369 231.007615,293.403607 231.009218,293.420441 C231.011623,293.438878 231.014028,293.457315 231.016433,293.475752 C231.195992,294.884168 231.47495,295.538277 231.508617,295.612826 C231.51022,295.616032 231.511824,295.619238 231.512625,295.621643 L231.547094,295.739479 C233.715431,302.997996 239.291383,306.21002 246.618036,307.914228 C252.204409,309.21523 258.137876,309.337074 258.137876,309.337074 C303.07495,310.597996 340.789579,282.234068 353.438878,271.554309 C353.655311,268.561122 353.782766,266.426453 353.675351,262.556313 L353.675351,262.556313 Z M224.581162,22.5146293 C235.316232,17.5655311 246.822445,13.6553106 257.858116,12.5282565 C246.897796,14.993988 233.542285,20.6765531 217.718637,30.3591182 C217.333066,30.5819639 180.276553,55.591984 157.636874,78.0488978 C145.299399,90.2869739 95.755511,149.697796 95.7947896,149.647295 C104.849699,132.512224 110.814429,124.1002 125.148697,106.073747 C133.255311,95.8781563 141.906212,85.9631263 150.761523,76.808016 C153.737876,73.7298597 156.738277,70.7390782 159.748297,67.8517034 C160.896192,66.7503006 186.785571,40.240481 224.581162,22.5146293 L224.581162,22.5146293 Z" id="Fill-8" fill="#FFFFFF"></path>
                <path d="M326.623647,335.316232 C321.248898,339.53988 315.64489,343.129459 309.923848,346.138677 C296.693387,341.11022 288.573948,330.396794 288.573948,330.396794 C288.573948,330.396794 299.917435,327.714629 315.07976,320.004008 C333.520641,310.633267 350.754309,297.095792 363.928657,280.061723 C363.406012,281.082966 357.935872,310.714228 326.623647,335.316232 L326.623647,335.316232 Z M290.615631,192.486573 C284.216433,187.93507 273.616834,191.557515 271.28016,199.089379 C274.983567,199.276152 278.913026,202.077756 278.67014,205.662525 C281.28497,203.131864 285.002806,201.702605 288.619639,201.76994 C286.875351,198.972345 287.756313,194.1499 290.615631,192.486573 L290.615631,192.486573 Z M223.470942,284.400802 C225.486974,276.897796 231.17996,270.953908 239.906212,270.689379 C239.927054,270.688577 243.821242,270.598798 245.554309,270.554709 C287.485371,269.265731 325.109419,253.860521 352.048096,221.690581 C355.752305,217.088577 351.614429,210.767936 343.586373,210.575551 C343.554309,210.574749 343.471743,210.575551 343.471743,210.575551 C342.113828,212.011222 341.870942,214.633267 339.62485,218.551503 C331.430862,232.787174 320.097796,239.296994 304.98517,246.849699 C258.650902,269.917435 234.623647,259.183968 224.981162,273.307415 C222.178758,277.463727 222.125852,282.106613 223.470942,284.400802 C223.470942,284.401603 223.470942,284.400802 223.470942,284.400802 L223.470942,284.400802 Z M307.307415,187.655311 C302.876152,184.475351 302.718236,178.928257 300.302204,153.272946 C299.529459,145.09018 298.143487,134.56513 293.135872,127.803607 C292.1002,126.898597 290.644489,125.858918 288.546693,125.858918 C285.383567,125.719439 281.807615,128.997194 279.780361,131.236874 C274.026453,139.541483 268.529058,144.88978 258.805611,149.524649 C248.96513,153.978357 239.612826,155.593587 229.903808,155.287375 C222.796794,155.062926 216.573146,153.891784 210.472144,153.814028 C199.167936,153.637675 189.36994,157.301804 182.229259,166.318236 C177.332265,172.502605 175.366733,179.039679 174.73988,186.82004 C174.763928,187.757916 174.805611,188.642084 174.859319,189.47495 C174.944289,190.711022 175.056513,191.890982 175.193587,192.998798 C175.692184,196.941884 176.403206,198.987575 176.403206,198.987575 C176.403206,199.018036 176.398397,199.048497 176.389579,199.076553 C176.448898,199.269739 176.508216,199.455711 176.56994,199.632866 C176.56994,199.632866 171.449299,196.226854 169.009218,193.211222 C171.471743,208.602806 183.586373,219.550301 187.548697,222.765531 C187.782766,222.94509 188.013627,223.123046 188.239679,223.301804 C188.259719,223.317034 188.276553,223.335471 188.290982,223.353908 C188.622846,223.610421 188.806413,223.742685 188.806413,223.742685 C186.153908,224.351904 182.336673,224.099399 182.336673,224.099399 C182.353507,224.113026 191.951904,231.704208 200.282966,234.352705 C211.335471,225.012425 223.866934,221.426854 234.153908,220.314228 C240.388778,216.44489 247.092585,212.644489 254.29018,208.979559 C252.110621,195.406814 264.147495,181.738677 279.294589,180.426453 C290.723848,179.593587 296.283768,184.716633 300.287776,190.195591 C302.460922,189.502204 304.911423,188.743888 307.649699,187.937475 C307.534269,187.860521 307.419639,187.765932 307.307415,187.655311 L307.307415,187.655311 Z M312.77515,279.07014 C312.659719,279.072545 312.540281,279.098196 312.349499,279.140681 C307.783567,280.198798 260.698998,298.438477 230.933868,289.089379 C230.8,290.718236 230.843287,294.140281 231.51022,295.627255 C231.511022,295.630461 231.512625,295.633667 231.513427,295.636072 C236.016032,296.538677 241.714629,297.115832 248.328657,297.115832 C287.496593,297.115832 315.723447,279.307415 312.77515,279.07014 L312.77515,279.07014 Z M93.6480962,275.413226 C93.6593186,275.40521 93.6705411,275.397996 93.6817635,275.38998 C96.0665331,272.826453 97.0669339,269.24489 96.5002004,265.818838 C95.6200401,260.88978 90.0344689,259.893387 86.341483,256.065731 C86.2829659,256.005611 86.2244489,255.943888 86.1675351,255.881363 C86.10501,255.814028 86.0448898,255.745892 85.9855711,255.678557 C85.9815631,255.673747 85.9783567,255.668938 85.9735471,255.664128 C84.3142285,253.753908 83.7362725,251.580762 83.8717435,249.641683 C84.1635271,244.599599 88.6412826,243.181563 90.9715431,244.10982 C90.9715431,244.10982 93.7354709,244.763928 95.8757515,247.7499 C95.8757515,247.7499 95.8749499,247.74509 95.8741483,247.737876 C95.5486974,246.752705 95.6160321,245.160721 93.9406814,242.788778 C91.1951904,238.899399 84.888978,234.943487 75.9503006,236.837675 L75.9519038,236.837675 C74.2997996,237.187174 75.2248497,236.988377 73.5951904,237.447695 C73.3402806,237.51984 73.1086172,237.590381 72.9074148,237.674549 C72.3951904,237.914228 71.9214429,238.079359 71.4669339,238.320641 C71.2312625,238.452104 69.8885772,239.061323 68.2717435,240.278958 C58.2236473,253.248898 75.242485,276.770341 93.6480962,275.413226 L93.6480962,275.413226 Z" id="Fill-9" fill="#E2B986"></path>
                <path d="M241.798798,195.581563 C242.646894,196.821643 242.873747,197.757916 242.531463,198.147495 C241.848497,198.945892 239.407615,197.867735 235.802806,196.463327 C226.577956,193.022044 219.781162,192.497796 207.7499,197.051703 C204.707816,198.212425 202.550701,199.108617 201.515832,198.954709 C199.828457,198.703808 201.462124,195.61523 205.149499,192.618838 C212.569138,186.6998 222.759118,184.862525 231.466934,188.103407 C235.278557,189.506212 239.559118,192.306212 241.798798,195.581563 L241.798798,195.581563 Z M239.971142,205.018036 C237.442084,203.086172 232.78477,201.790782 227.949499,202.612425 C226.934669,202.767134 225.997595,203.081363 225.07495,203.329058 C224.736673,203.412425 224.413627,203.531864 224.098597,203.664128 C222.099399,204.506613 220.368737,205.414028 218.689379,207.023647 C216.762325,208.885772 216.21483,210.61483 216.771944,211.040481 C217.319439,211.477355 218.653307,210.830461 220.714228,209.996794 C227.618437,207.126253 232.50501,207.0501 237.15992,207.374749 C239.40521,207.525451 240.907415,207.660922 241.256112,207.049299 C241.502204,206.634068 241.055711,205.845291 239.971142,205.018036 L239.971142,205.018036 Z M91.2849699,240.429659 L91.2865731,240.431263 L91.288978,240.432866 C92.4224449,241.333868 93.2913828,242.295792 93.9390782,243.214429 C96.0633267,246.220441 95.3875752,247.974349 96.2589178,248.827255 C96.5731463,249.135872 97.0220441,249.232866 97.4701403,249.0501 C98.6741483,248.553106 99.2657315,246.638076 99.3787575,245.301804 L99.3795591,245.293788 C99.6817635,242.08016 97.9831663,238.468938 95.7322645,235.91022 L95.7266533,235.903006 C94.349499,234.303006 92.5362725,232.812024 90.3799599,231.611222 C88.2196393,230.408016 85.7130261,229.495792 82.9571142,229.068537 C78.1947896,228.327856 73.5102204,229.276152 72.202004,229.666533 L72.2092184,229.66493 C71.5350701,229.860521 70.7014028,230.036072 69.9847695,230.317435 C62.2180361,233.345892 57.107014,238.906613 54.8328657,246.27014 L54.8320641,246.272545 L54.8312625,246.276553 C53.9903808,249.07976 53.6553106,251.785972 53.6553106,254.286172 C53.6553106,256.441683 53.9038076,258.44489 54.2917836,260.23006 L54.2917836,260.231663 L54.2925852,260.23487 L54.2917836,260.231663 C54.9490982,263.235271 56.2925852,266.617234 58.3903808,268.837675 L58.3967936,268.844088 C61.0188377,271.677756 63.8933868,271.135872 62.6661323,268.499399 C62.3735471,267.769138 60.7895792,264.783968 60.5763527,259.380361 C60.4376754,255.844489 60.9226453,252.164329 62.2204409,248.806413 C62.9386774,246.989178 63.9230461,245.221643 65.204008,243.632866 C67.8436874,240.403206 71.0869739,238.957916 71.4661323,238.747094 C71.9206413,238.50501 72.3943888,238.33988 72.9066132,238.1002 C73.107014,238.016834 73.3386774,237.945491 73.5943888,237.874148 C75.2240481,237.41483 74.2997996,237.613627 75.9511022,237.263327 L75.949499,237.263327 C82.1635271,235.946293 87.5118236,237.386774 91.2849699,240.429659 L91.2849699,240.429659 Z M89.9591182,252.428858 C89.1006012,251.749098 88.7022044,251.168737 88.4649299,250.275752 C88.1146293,248.648497 88.2973948,247.703407 89.6881764,246.726253 C90.7591182,245.992786 91.6208417,245.639279 91.6240481,245.178357 C91.6721443,244.306212 88.0897796,243.408417 85.5847695,245.874148 C83.5054108,248.08978 82.8488978,252.708617 86.1667335,256.308617 C89.860521,260.294188 95.6048096,261.234469 96.4993988,266.246092 C96.6172345,266.956313 96.7046092,267.746693 96.6428858,268.527455 C96.6557114,269.423647 96.3559118,270.713427 96.341483,270.794389 C95.2304609,275.635271 90.6364729,280.254108 83.0613226,279.077355 C81.6657315,278.873747 80.761523,278.702204 80.4921844,279.087776 C79.9078156,279.900601 83.1543086,283.61523 89.0973948,283.480561 C94.9122244,283.357114 100.680561,279.003607 102.52986,272.46012 C102.550701,272.37515 103.096593,270.52024 103.141483,268.857715 C103.245691,267.626453 103.156713,266.35992 102.927455,265.03487 C101.412425,256.632465 93.0637275,254.906613 89.9591182,252.428858 L89.9591182,252.428858 Z M292.610822,192.441683 C290.312625,192.083367 288.052104,194.347094 287.55992,197.498196 C287.067735,200.649299 288.532265,203.494188 290.830461,203.853307 C293.127856,204.211623 295.389178,201.947896 295.881363,198.796794 C296.372745,195.645691 294.908216,192.800802 292.610822,192.441683 L292.610822,192.441683 Z M267.363527,201.633667 C266.1002,203.938277 267.638477,207.211222 270.799198,208.942685 C273.959118,210.67495 277.545491,210.210822 278.808818,207.905411 C280.071343,205.600802 278.533868,202.327856 275.372345,200.596393 C272.211623,198.86493 268.626052,199.329058 267.363527,201.633667 L267.363527,201.633667 Z M174.860922,108.406413 C218.342285,80.2236473 261.774749,76.9835671 276.65491,88.4248497 C276.655711,88.4224449 276.656513,88.4216433 276.657315,88.4200401 C276.63006,88.345491 276.391182,87.6849699 276.298196,87.5038076 C272.52024,79.4757515 263.704208,73.8757515 255.850902,71.6288577 C257.228858,73.0597194 259.221643,75.6793587 260.027255,77.2360721 C254.101002,73.1655311 246.225251,69.5807615 238.006413,67.8773547 C238.006413,67.8773547 238.98517,68.5803607 239.152705,68.7366733 C240.791182,70.2629259 242.971543,72.6741483 243.863727,74.7446894 C236.008016,71.5903808 226.077756,69.8228457 217.576754,71.4597194 C217.457315,71.4829659 216.513828,71.7058116 216.513828,71.7058116 C216.513828,71.7058116 217.620842,71.9807615 217.866934,72.054509 C220.686172,72.8897796 224.708617,74.6076152 226.481764,76.9619238 C212.370341,74.4801603 196.846493,77.2272545 188.474549,81.9086172 C189.551102,81.8637275 189.540681,81.8589178 190.451303,81.8829659 C193.531062,81.9647295 199.735471,82.3831663 202.340681,84.0408818 C193.439679,85.8509018 180.557916,89.8324649 173.624048,95.7963928 C174.848096,95.6537074 181.796393,94.7679359 184.639679,95.2248497 C146.471343,117.066132 129.100601,150.087375 129.100601,150.087375 C140.353507,135.423647 154.952305,121.30982 174.860922,108.406413 L174.860922,108.406413 Z" id="Fill-10" fill="#916D53"></path>
                <path d="M277.446894,169.977555 C277.387575,166.981162 277.861323,162.029659 280.682966,161.108617 C280.686172,161.107816 280.684569,161.107816 280.688577,161.107014 C285.51022,159.43487 291.894188,171.782766 292.187575,182.746293 C288.377555,180.838477 283.900601,180.028858 279.296192,180.428056 C278.138677,176.898597 277.583968,173.573547 277.446894,169.977555" id="Fill-11" fill="#5B453E"></path>
            </g>
        </g>
    </g>
</svg>