<?xml version="1.0" encoding="UTF-8"?>
<svg width="64px" height="64px" viewBox="0 0 64 64" version="1.1" xmlns="http://www.w3.org/2000/svg" xmlns:xlink="http://www.w3.org/1999/xlink">
    <!-- Generator: Sketch 55 (78076) - https://sketchapp.com -->
    <title>contact</title>
    <desc>Created with Sketch.</desc>
    <defs>
        <path d="M32,64 C46.0222222,64 53.8173667,64 58.9086889,58.9086889 C64,53.8173667 64,46.0222222 64,32 C64,17.9777778 64,10.1826333 58.9086889,5.09131111 C53.8173667,0 46.0222222,0 32,0 C17.9777778,0 10.1826333,0 5.09131111,5.09131111 C0,10.1826333 0,17.9777778 0,32 C0,46.0222222 0,53.8173667 5.09131111,58.9086889 C10.1826333,64 17.9777778,64 32,64 Z" id="path-1"></path>
        <linearGradient x1="50%" y1="0%" x2="50%" y2="100%" id="linearGradient-3">
            <stop stop-color="#FDFEFF" offset="0%"></stop>
            <stop stop-color="#FBFCFD" stop-opacity="0.9" offset="100%"></stop>
        </linearGradient>
        <path d="M35,0 L5,0 C2.2421875,0 0,2.24205644 0,4.99970774 L0,27.4983926 C0,30.2560439 2.2421875,32.4981003 5,32.4981003 L12.5,32.4981003 L12.5,39.0602167 C12.5,39.8257969 13.375,40.2710834 13.9921875,39.8179849 L23.75,32.4981003 L35,32.4981003 C37.7578125,32.4981003 40,30.2560439 40,27.4983926 L40,4.99970774 C40,2.24205644 37.7578125,0 35,0 Z M16.580952,24.5793332 L12.867576,24.9953572 C12.3668095,25.0492862 11.9507882,24.6255581 12.0047169,24.1324927 L12.4207382,20.4190937 L19.8397862,13 L24,17.1602395 L16.580952,24.5793332 Z M28.5478332,12.5731807 L26.1210139,15 L22,10.8789861 L24.4268193,8.4521668 C25.0297084,7.84927773 26.0065413,7.84927773 26.6094304,8.4521668 L28.5478332,10.3905696 C29.1507223,10.9934587 29.1507223,11.9702916 28.5478332,12.5731807 Z" id="path-4"></path>
        <filter x="-5.0%" y="-2.5%" width="110.0%" height="110.0%" filterUnits="objectBoundingBox" id="filter-5">
            <feOffset dx="0" dy="1" in="SourceAlpha" result="shadowOffsetOuter1"></feOffset>
            <feGaussianBlur stdDeviation="0.5" in="shadowOffsetOuter1" result="shadowBlurOuter1"></feGaussianBlur>
            <feColorMatrix values="0 0 0 0 0   0 0 0 0 0   0 0 0 0 0  0 0 0 0.1 0" type="matrix" in="shadowBlurOuter1"></feColorMatrix>
        </filter>
    </defs>
    <g id="Page-1" stroke="none" stroke-width="1" fill="none" fill-rule="evenodd">
        <g id="Artboard" transform="translate(-826.000000, -430.000000)">
            <g id="contact" transform="translate(826.000000, 430.000000)">
                <mask id="mask-2" fill="white">
                    <use xlink:href="#path-1"></use>
                </mask>
                <use id="Path" fill="#00B356" xlink:href="#path-1"></use>
                <g id="comment-alt-edit" mask="url(#mask-2)" fill-rule="nonzero">
                    <g transform="translate(12.000000, 13.000000)" id="Shape">
                        <g>
                            <use fill="black" fill-opacity="1" filter="url(#filter-5)" xlink:href="#path-4"></use>
                            <use fill="url(#linearGradient-3)" xlink:href="#path-4"></use>
                        </g>
                    </g>
                </g>
            </g>
        </g>
    </g>
</svg>