<svg width="48" height="48" viewBox="0 0 48 48" fill="none" xmlns="http://www.w3.org/2000/svg">
<rect width="48" height="48" fill="url(#paint0_linear_337_1862)"/>
<path d="M16.5 14.5V13C16.5 10.8787 16.5 9.81802 17.159 9.15901C17.818 8.5 18.8787 8.5 21 8.5H27C29.1213 8.5 30.1819 8.5 30.841 9.15901C31.5 9.81802 31.5 10.8787 31.5 13V14.5C31.5 16.6213 31.5 17.682 30.841 18.341C30.1819 19 29.1213 19 27 19H25.5L21 22V19C18.8787 19 17.818 19 17.159 18.341C16.5 17.682 16.5 16.6213 16.5 14.5Z" stroke="white" stroke-width="2.25" stroke-linejoin="round"/>
<path d="M11.385 33.6112C10.4419 34.243 7.96891 35.5332 9.47511 37.1475C10.2109 37.936 11.0303 38.5 12.0606 38.5H15H17.9394C18.9697 38.5 19.7891 37.936 20.5249 37.1475C22.0311 35.5332 19.5581 34.243 18.615 33.6112C16.4032 32.1297 13.5968 32.1297 11.385 33.6112Z" stroke="white" stroke-width="2.25"/>
<path d="M29.385 33.6112C28.4418 34.243 25.9689 35.5332 27.4751 37.1475C28.2108 37.936 29.0304 38.5 30.0606 38.5H33H35.9394C36.9696 38.5 37.7892 37.936 38.525 37.1475C40.0311 35.5332 37.5582 34.243 36.615 33.6112C34.4033 32.1297 31.5968 32.1297 29.385 33.6112Z" stroke="white" stroke-width="2.25"/>
<path d="M18 25.75C18 27.4069 16.6569 28.75 15 28.75C13.3431 28.75 12 27.4069 12 25.75C12 24.0931 13.3431 22.75 15 22.75C16.6569 22.75 18 24.0931 18 25.75Z" stroke="white" stroke-width="2.25"/>
<path d="M36 25.75C36 27.4069 34.6569 28.75 33 28.75C31.3431 28.75 30 27.4069 30 25.75C30 24.0931 31.3431 22.75 33 22.75C34.6569 22.75 36 24.0931 36 25.75Z" stroke="white" stroke-width="2.25"/>
<defs>
<linearGradient id="paint0_linear_337_1862" x1="24" y1="0" x2="24" y2="48" gradientUnits="userSpaceOnUse">
<stop stop-color="#0D9488"/>
<stop offset="1" stop-color="#0F766E"/>
</linearGradient>
</defs>
</svg>
