<?xml version="1.0" encoding="UTF-8"?>
<svg width="606px" height="606px" viewBox="0 0 606 606" version="1.1" xmlns="http://www.w3.org/2000/svg" xmlns:xlink="http://www.w3.org/1999/xlink">
    <!-- Generator: Sketch 40.2 (33826) - http://www.bohemiancoding.com/sketch -->
    <title>rocket-chat</title>
    <desc>Created with Sketch.</desc>
    <defs>
        <linearGradient x1="50%" y1="0%" x2="50%" y2="100%" id="linearGradient-1">
            <stop stop-color="#FFFFFF" stop-opacity="0.2" offset="0%"></stop>
            <stop stop-color="#000000" stop-opacity="0.2" offset="100%"></stop>
        </linearGradient>
        <path d="M552.268958,552.268958 C600,504.537813 600,431.458333 600,300 C600,168.541667 600,95.4621875 552.268958,47.7310417 C504.537813,0 431.458333,0 300,0 C168.541667,0 95.4621875,0 47.7310417,47.7310417 C0,95.4621875 0,168.541667 0,300 C0,431.458333 0,504.537813 47.7310417,552.268958 C95.4621875,600 168.541667,600 300,600 C431.458333,600 504.537813,600 552.268958,552.268958 Z" id="path-2"></path>
    </defs>
    <g id="Page-1" stroke="none" stroke-width="1" fill="none" fill-rule="evenodd">
        <g id="rocket-chat" transform="translate(3.000000, 3.000000)">
            <g id="Squircle2-Copy-6">
                <g id="Shape">
                    <use fill="#FFFFFF" xlink:href="#path-2"></use>
                    <use stroke="#000000" stroke-width="4.04" fill="url(#linearGradient-1)" xlink:href="#path-2"></use>
                </g>
            </g>
            <g opacity="0.9" transform="translate(100.000000, 129.000000)" id="Group">
                <g>
                    <path d="M399.922287,170.791736 C399.922287,150.710096 393.914961,131.458704 382.063959,113.556467 C371.422406,97.4903563 356.513853,83.2683558 337.757417,71.2816403 C301.537819,48.1464411 253.934233,35.4013253 203.724145,35.4013253 C186.951525,35.4013253 170.418398,36.8183364 154.384221,39.6284088 C144.437203,30.3160522 132.789772,21.937725 120.467763,15.3156935 C54.6306384,-16.5929992 0.0338037008,14.5652764 0.0338037008,14.5652764 C0.0338037008,14.5652764 50.7947298,56.2653153 42.5401419,92.8162158 C19.8320417,115.344695 7.52200827,142.51139 7.52200827,170.791736 C7.52200827,170.879552 7.52599984,170.971358 7.52599984,171.063164 C7.52599984,171.150978 7.52200827,171.238794 7.52200827,171.334591 C7.52200827,199.614937 19.8280503,226.781633 42.5401419,249.30612 C50.7947298,285.861012 0.0338037008,327.56105 0.0338037008,327.56105 C0.0338037008,327.56105 54.6306384,358.715336 120.467763,326.810633 C132.789772,320.188602 144.433211,311.806283 154.384221,302.497919 C170.422391,305.304 186.951525,306.721011 203.724145,306.721011 C253.938223,306.721011 301.537819,293.983877 337.757417,270.848678 C356.513853,258.861964 371.422406,244.643955 382.063959,228.569859 C393.914961,210.671614 399.922287,191.412239 399.922287,171.338583 C399.922287,171.246777 399.918297,171.158963 399.918297,171.067156 C399.918297,170.97535 399.922287,170.879552 399.922287,170.791736 L399.922287,170.791736 L399.922287,170.791736 L399.922287,170.791736 Z" id="Shape" fill="#C1272D"></path>
                    <path d="M203.724145,63.7934358 C296.700023,63.7934358 372.077025,111.939877 372.077025,171.3306 C372.077025,230.717331 296.700023,278.867764 203.724145,278.867764 C183.019817,278.867764 163.193638,276.472816 144.876277,272.110017 C126.259546,294.502783 85.3059328,325.641102 45.5218523,315.578328 C58.4625556,301.679644 77.6341156,278.193186 73.5307711,239.506791 C49.6850706,220.953927 35.3712637,197.208014 35.3712637,171.3306 C35.3672722,111.935885 110.744274,63.7934358 203.724145,63.7934358" id="Shape" fill="#FFFFFF"></path>
                    <path d="M203.724145,197.156125 C216.075895,197.156125 226.088969,187.14305 226.088969,174.791298 C226.088969,162.439548 216.075895,152.426475 203.724145,152.426475 C191.372394,152.426475 181.35932,162.439548 181.35932,174.791298 C181.35932,187.14305 191.372394,197.156125 203.724145,197.156125 L203.724145,197.156125 L203.724145,197.156125 Z M281.480128,197.156125 C293.831878,197.156125 303.844953,187.14305 303.844953,174.791298 C303.844953,162.439548 293.831878,152.426475 281.480128,152.426475 C269.128377,152.426475 259.115305,162.439548 259.115305,174.791298 C259.115305,187.14305 269.128377,197.156125 281.480128,197.156125 L281.480128,197.156125 L281.480128,197.156125 Z M125.964169,197.152133 C138.313716,197.152133 148.325002,187.140845 148.325002,174.791298 C148.325002,162.441753 138.313716,152.430467 125.964169,152.430467 C113.614623,152.430467 103.603337,162.441753 103.603337,174.791298 C103.603337,187.140845 113.614623,197.152133 125.964169,197.152133 L125.964169,197.152133 L125.964169,197.152133 Z" id="Shape" fill="#C1272D"></path>
                    <path d="M203.724145,264.717611 C183.019817,264.717611 163.193638,262.641989 144.876277,258.857972 C128.438949,275.997817 94.5823653,299.037219 59.4963748,298.191003 C54.8741248,305.196227 49.8487253,310.924145 45.5218523,315.574336 C85.3059328,325.637109 126.259546,294.502783 144.876277,272.106027 C163.193638,276.472816 183.023809,278.863772 203.724145,278.863772 C295.953598,278.863772 370.851609,231.479723 372.045092,172.747611 C370.851609,223.656225 295.953598,264.717611 203.724145,264.717611 L203.724145,264.717611 L203.724145,264.717611 L203.724145,264.717611 Z" id="Shape" fill="#CCCCCC"></path>
                </g>
            </g>
        </g>
    </g>
</svg>