<svg width="81" height="80" viewBox="0 0 81 80" fill="none" xmlns="http://www.w3.org/2000/svg">
<rect width="80" height="80" transform="translate(0.5)" fill="url(#paint0_linear_589_6108)"/>
<g filter="url(#filter0_d_589_6108)">
<mask id="path-1-inside-1_589_6108" fill="white">
<path fill-rule="evenodd" clip-rule="evenodd" d="M20.5005 58.0034C20.4765 56.8978 21.3881 56.0207 22.472 55.8018C27.0431 54.8787 30.4847 50.8411 30.4847 46C30.4847 45.8717 30.4823 45.7439 30.4775 45.6167C30.4285 44.3167 31.3154 43.0414 32.6162 43.0216C34.0407 43 35.6528 43 37.4891 43H43.492C51.0127 43 54.7731 43 57.2835 44.4863C57.6851 44.724 58.0564 44.986 58.3934 45.2693C60.5 47.0407 60.5 49.6938 60.5 55V55V55C60.5 60.3063 60.5 62.9593 58.3934 64.7307C58.0564 65.014 57.6851 65.2759 57.2835 65.5136C54.7731 67 51.0127 67 43.492 67H37.4891C29.9684 67 26.208 67 23.6975 65.5136C23.296 65.2759 22.9246 65.014 22.5877 64.7307C20.9226 63.3306 20.5736 61.3797 20.5005 58.0034Z"/>
</mask>
<path fill-rule="evenodd" clip-rule="evenodd" d="M20.5005 58.0034C20.4765 56.8978 21.3881 56.0207 22.472 55.8018C27.0431 54.8787 30.4847 50.8411 30.4847 46C30.4847 45.8717 30.4823 45.7439 30.4775 45.6167C30.4285 44.3167 31.3154 43.0414 32.6162 43.0216C34.0407 43 35.6528 43 37.4891 43H43.492C51.0127 43 54.7731 43 57.2835 44.4863C57.6851 44.724 58.0564 44.986 58.3934 45.2693C60.5 47.0407 60.5 49.6938 60.5 55V55V55C60.5 60.3063 60.5 62.9593 58.3934 64.7307C58.0564 65.014 57.6851 65.2759 57.2835 65.5136C54.7731 67 51.0127 67 43.492 67H37.4891C29.9684 67 26.208 67 23.6975 65.5136C23.296 65.2759 22.9246 65.014 22.5877 64.7307C20.9226 63.3306 20.5736 61.3797 20.5005 58.0034Z" fill="url(#paint1_linear_589_6108)"/>
<path d="M57.2835 44.4863L56.774 45.3468L56.7741 45.3468L57.2835 44.4863ZM58.3934 45.2693L59.037 44.504L59.0369 44.5039L58.3934 45.2693ZM58.3934 64.7307L57.7498 63.9653L57.7498 63.9653L58.3934 64.7307ZM57.2835 65.5136L56.774 64.6531L56.774 64.6532L57.2835 65.5136ZM23.6975 65.5136L23.188 66.3741L23.188 66.3741L23.6975 65.5136ZM22.5877 64.7307L23.2313 63.9653L23.2312 63.9653L22.5877 64.7307ZM29.4847 46C29.4847 50.3554 26.3881 53.9907 22.2741 54.8215L22.67 56.782C27.6981 55.7666 31.4847 51.3267 31.4847 46H29.4847ZM29.4782 45.6544C29.4825 45.769 29.4847 45.8842 29.4847 46H31.4847C31.4847 45.8591 31.482 45.7188 31.4768 45.579L29.4782 45.6544ZM32.6314 44.0215C34.0467 44 35.6506 44 37.4891 44V42C35.655 42 34.0346 42 32.601 42.0218L32.6314 44.0215ZM37.4891 44H43.492V42H37.4891V44ZM43.492 44C47.27 44 50.0403 44.0008 52.1822 44.1822C54.32 44.3632 55.7105 44.7171 56.774 45.3468L57.7929 43.6258C56.3461 42.7692 54.6012 42.3799 52.351 42.1894C50.1049 41.9992 47.2347 42 43.492 42V44ZM56.7741 45.3468C57.1312 45.5582 57.4573 45.7888 57.7499 46.0348L59.0369 44.5039C58.6555 44.1833 58.2389 43.8898 57.7929 43.6258L56.7741 45.3468ZM57.7498 46.0347C58.5728 46.7267 59.015 47.5901 59.2508 48.9768C59.4967 50.4219 59.5 52.3119 59.5 55H61.5C61.5 52.3818 61.5033 50.2922 61.2225 48.6414C60.9317 46.9321 60.3206 45.5833 59.037 44.504L57.7498 46.0347ZM59.5 55V55H61.5V55H59.5ZM59.5 55V55H61.5V55H59.5ZM59.5 55C59.5 57.6881 59.4967 59.5782 59.2508 61.0232C59.015 62.4098 58.5728 63.2733 57.7498 63.9653L59.037 65.496C60.3206 64.4167 60.9317 63.0679 61.2225 61.3586C61.5033 59.7078 61.5 57.6182 61.5 55H59.5ZM57.7498 63.9653C57.4574 64.2111 57.1313 64.4416 56.774 64.6531L57.7929 66.3742C58.2388 66.1102 58.6555 65.8169 59.037 65.496L57.7498 63.9653ZM56.774 64.6532C55.7105 65.2828 54.32 65.6367 52.1822 65.8178C50.0403 65.9992 47.27 66 43.492 66V68C47.2347 68 50.1049 68.0008 52.351 67.8106C54.6012 67.6201 56.3461 67.2308 57.793 66.3741L56.774 64.6532ZM43.492 66H37.4891V68H43.492V66ZM37.4891 66C33.7111 66 30.9407 65.9992 28.7989 65.8178C26.6611 65.6367 25.2705 65.2828 24.207 64.6532L23.188 66.3741C24.635 67.2308 26.3799 67.6201 28.6301 67.8106C30.8762 68.0008 33.7464 68 37.4891 68V66ZM24.207 64.6532C23.8497 64.4416 23.5236 64.2112 23.2313 63.9653L21.944 65.496C22.3256 65.8168 22.7422 66.1102 23.188 66.3741L24.207 64.6532ZM23.2312 63.9653C21.9422 62.8814 21.5737 61.3705 21.5002 57.9817L19.5007 58.0251C19.5736 61.389 19.903 63.7798 21.9441 65.496L23.2312 63.9653ZM31.4768 45.579C31.4417 44.6496 32.0649 44.0301 32.6314 44.0215L32.601 42.0218C30.5659 42.0527 29.4152 43.9838 29.4782 45.6544L31.4768 45.579ZM22.2741 54.8215C20.8539 55.1083 19.4635 56.3069 19.5007 58.0251L21.5002 57.9817C21.4895 57.4887 21.9222 56.933 22.67 56.782L22.2741 54.8215Z" fill="url(#paint2_linear_589_6108)" mask="url(#path-1-inside-1_589_6108)"/>
</g>
<g filter="url(#filter1_d_589_6108)">
<circle cx="20.5" cy="46" r="6" fill="url(#paint3_linear_589_6108)"/>
<circle cx="20.5" cy="46" r="5.5" stroke="url(#paint4_linear_589_6108)"/>
</g>
<g filter="url(#filter2_d_589_6108)">
<mask id="path-5-inside-2_589_6108" fill="white">
<path fill-rule="evenodd" clip-rule="evenodd" d="M26.5005 30.0034C26.4765 28.8978 27.3881 28.0207 28.472 27.8018C33.0431 26.8787 36.4847 22.8411 36.4847 18C36.4847 17.8717 36.4823 17.7439 36.4775 17.6167C36.4285 16.3167 37.3154 15.0414 38.6162 15.0216C40.0407 15 41.6528 15 43.4891 15H49.492C57.0127 15 60.7731 15 63.2835 16.4863C63.6851 16.724 64.0564 16.986 64.3934 17.2693C66.5 19.0407 66.5 21.6938 66.5 27V27V27C66.5 32.3063 66.5 34.9593 64.3934 36.7307C64.0564 37.014 63.6851 37.2759 63.2835 37.5136C60.7731 39 57.0127 39 49.492 39H43.4891C35.9684 39 32.208 39 29.6975 37.5136C29.296 37.2759 28.9246 37.014 28.5877 36.7307C26.9226 35.3306 26.5736 33.3797 26.5005 30.0034Z"/>
</mask>
<path fill-rule="evenodd" clip-rule="evenodd" d="M26.5005 30.0034C26.4765 28.8978 27.3881 28.0207 28.472 27.8018C33.0431 26.8787 36.4847 22.8411 36.4847 18C36.4847 17.8717 36.4823 17.7439 36.4775 17.6167C36.4285 16.3167 37.3154 15.0414 38.6162 15.0216C40.0407 15 41.6528 15 43.4891 15H49.492C57.0127 15 60.7731 15 63.2835 16.4863C63.6851 16.724 64.0564 16.986 64.3934 17.2693C66.5 19.0407 66.5 21.6938 66.5 27V27V27C66.5 32.3063 66.5 34.9593 64.3934 36.7307C64.0564 37.014 63.6851 37.2759 63.2835 37.5136C60.7731 39 57.0127 39 49.492 39H43.4891C35.9684 39 32.208 39 29.6975 37.5136C29.296 37.2759 28.9246 37.014 28.5877 36.7307C26.9226 35.3306 26.5736 33.3797 26.5005 30.0034Z" fill="url(#paint5_linear_589_6108)"/>
<path d="M63.2835 16.4863L62.774 17.3468L62.7741 17.3468L63.2835 16.4863ZM64.3934 17.2693L65.037 16.504L65.0369 16.5039L64.3934 17.2693ZM64.3934 36.7307L63.7498 35.9653L63.7498 35.9653L64.3934 36.7307ZM63.2835 37.5136L62.774 36.6531L62.774 36.6532L63.2835 37.5136ZM29.6975 37.5136L29.188 38.3741L29.188 38.3741L29.6975 37.5136ZM28.5877 36.7307L29.2313 35.9653L29.2312 35.9653L28.5877 36.7307ZM35.4847 18C35.4847 22.3554 32.3881 25.9907 28.2741 26.8215L28.67 28.782C33.6981 27.7666 37.4847 23.3267 37.4847 18H35.4847ZM35.4782 17.6544C35.4825 17.769 35.4847 17.8842 35.4847 18H37.4847C37.4847 17.8591 37.482 17.7188 37.4768 17.579L35.4782 17.6544ZM38.6314 16.0215C40.0467 16 41.6506 16 43.4891 16V14C41.655 14 40.0346 14 38.601 14.0218L38.6314 16.0215ZM43.4891 16H49.492V14H43.4891V16ZM49.492 16C53.27 16 56.0403 16.0008 58.1822 16.1822C60.32 16.3632 61.7105 16.7171 62.774 17.3468L63.7929 15.6258C62.3461 14.7692 60.6012 14.3799 58.351 14.1894C56.1049 13.9992 53.2347 14 49.492 14V16ZM62.7741 17.3468C63.1312 17.5582 63.4573 17.7888 63.7499 18.0348L65.0369 16.5039C64.6555 16.1833 64.2389 15.8898 63.7929 15.6258L62.7741 17.3468ZM63.7498 18.0347C64.5728 18.7267 65.015 19.5901 65.2508 20.9768C65.4967 22.4219 65.5 24.3119 65.5 27H67.5C67.5 24.3818 67.5033 22.2922 67.2225 20.6414C66.9317 18.9321 66.3206 17.5833 65.037 16.504L63.7498 18.0347ZM65.5 27V27H67.5V27H65.5ZM65.5 27V27H67.5V27H65.5ZM65.5 27C65.5 29.6881 65.4967 31.5782 65.2508 33.0232C65.015 34.4098 64.5728 35.2733 63.7498 35.9653L65.037 37.496C66.3206 36.4167 66.9317 35.0679 67.2225 33.3586C67.5033 31.7078 67.5 29.6182 67.5 27H65.5ZM63.7498 35.9653C63.4574 36.2111 63.1313 36.4416 62.774 36.6531L63.7929 38.3742C64.2388 38.1102 64.6555 37.8169 65.037 37.496L63.7498 35.9653ZM62.774 36.6532C61.7105 37.2828 60.32 37.6367 58.1822 37.8178C56.0403 37.9992 53.27 38 49.492 38V40C53.2347 40 56.1049 40.0008 58.351 39.8106C60.6012 39.6201 62.3461 39.2308 63.793 38.3741L62.774 36.6532ZM49.492 38H43.4891V40H49.492V38ZM43.4891 38C39.7111 38 36.9407 37.9992 34.7989 37.8178C32.6611 37.6367 31.2705 37.2828 30.207 36.6532L29.188 38.3741C30.635 39.2308 32.3799 39.6201 34.6301 39.8106C36.8762 40.0008 39.7464 40 43.4891 40V38ZM30.207 36.6532C29.8497 36.4416 29.5236 36.2112 29.2313 35.9653L27.944 37.496C28.3256 37.8168 28.7422 38.1102 29.188 38.3741L30.207 36.6532ZM29.2312 35.9653C27.9422 34.8814 27.5737 33.3705 27.5002 29.9817L25.5007 30.0251C25.5736 33.389 25.903 35.7798 27.9441 37.496L29.2312 35.9653ZM37.4768 17.579C37.4417 16.6496 38.0649 16.0301 38.6314 16.0215L38.601 14.0218C36.5659 14.0527 35.4152 15.9838 35.4782 17.6544L37.4768 17.579ZM28.2741 26.8215C26.8539 27.1083 25.4635 28.3069 25.5007 30.0251L27.5002 29.9817C27.4895 29.4887 27.9222 28.933 28.67 28.782L28.2741 26.8215Z" fill="url(#paint6_linear_589_6108)" mask="url(#path-5-inside-2_589_6108)"/>
</g>
<g filter="url(#filter3_d_589_6108)">
<circle cx="26.5" cy="18" r="6" fill="url(#paint7_linear_589_6108)"/>
<circle cx="26.5" cy="18" r="5.5" stroke="url(#paint8_linear_589_6108)"/>
</g>
<defs>
<filter id="filter0_d_589_6108" x="18.5" y="42" width="44" height="28" filterUnits="userSpaceOnUse" color-interpolation-filters="sRGB">
<feFlood flood-opacity="0" result="BackgroundImageFix"/>
<feColorMatrix in="SourceAlpha" type="matrix" values="0 0 0 0 0 0 0 0 0 0 0 0 0 0 0 0 0 0 127 0" result="hardAlpha"/>
<feOffset dy="1"/>
<feGaussianBlur stdDeviation="1"/>
<feComposite in2="hardAlpha" operator="out"/>
<feColorMatrix type="matrix" values="0 0 0 0 0 0 0 0 0 0 0 0 0 0 0 0 0 0 0.5 0"/>
<feBlend mode="normal" in2="BackgroundImageFix" result="effect1_dropShadow_589_6108"/>
<feBlend mode="normal" in="SourceGraphic" in2="effect1_dropShadow_589_6108" result="shape"/>
</filter>
<filter id="filter1_d_589_6108" x="12.5" y="39" width="16" height="16" filterUnits="userSpaceOnUse" color-interpolation-filters="sRGB">
<feFlood flood-opacity="0" result="BackgroundImageFix"/>
<feColorMatrix in="SourceAlpha" type="matrix" values="0 0 0 0 0 0 0 0 0 0 0 0 0 0 0 0 0 0 127 0" result="hardAlpha"/>
<feOffset dy="1"/>
<feGaussianBlur stdDeviation="1"/>
<feComposite in2="hardAlpha" operator="out"/>
<feColorMatrix type="matrix" values="0 0 0 0 0 0 0 0 0 0 0 0 0 0 0 0 0 0 0.5 0"/>
<feBlend mode="normal" in2="BackgroundImageFix" result="effect1_dropShadow_589_6108"/>
<feBlend mode="normal" in="SourceGraphic" in2="effect1_dropShadow_589_6108" result="shape"/>
</filter>
<filter id="filter2_d_589_6108" x="24.5" y="14" width="44" height="28" filterUnits="userSpaceOnUse" color-interpolation-filters="sRGB">
<feFlood flood-opacity="0" result="BackgroundImageFix"/>
<feColorMatrix in="SourceAlpha" type="matrix" values="0 0 0 0 0 0 0 0 0 0 0 0 0 0 0 0 0 0 127 0" result="hardAlpha"/>
<feOffset dy="1"/>
<feGaussianBlur stdDeviation="1"/>
<feComposite in2="hardAlpha" operator="out"/>
<feColorMatrix type="matrix" values="0 0 0 0 0 0 0 0 0 0 0 0 0 0 0 0 0 0 0.5 0"/>
<feBlend mode="normal" in2="BackgroundImageFix" result="effect1_dropShadow_589_6108"/>
<feBlend mode="normal" in="SourceGraphic" in2="effect1_dropShadow_589_6108" result="shape"/>
</filter>
<filter id="filter3_d_589_6108" x="18.5" y="11" width="16" height="16" filterUnits="userSpaceOnUse" color-interpolation-filters="sRGB">
<feFlood flood-opacity="0" result="BackgroundImageFix"/>
<feColorMatrix in="SourceAlpha" type="matrix" values="0 0 0 0 0 0 0 0 0 0 0 0 0 0 0 0 0 0 127 0" result="hardAlpha"/>
<feOffset dy="1"/>
<feGaussianBlur stdDeviation="1"/>
<feComposite in2="hardAlpha" operator="out"/>
<feColorMatrix type="matrix" values="0 0 0 0 0 0 0 0 0 0 0 0 0 0 0 0 0 0 0.5 0"/>
<feBlend mode="normal" in2="BackgroundImageFix" result="effect1_dropShadow_589_6108"/>
<feBlend mode="normal" in="SourceGraphic" in2="effect1_dropShadow_589_6108" result="shape"/>
</filter>
<linearGradient id="paint0_linear_589_6108" x1="40" y1="0" x2="40" y2="80" gradientUnits="userSpaceOnUse">
<stop stop-color="#0D9488"/>
<stop offset="1" stop-color="#134E4A"/>
</linearGradient>
<linearGradient id="paint1_linear_589_6108" x1="40.5" y1="43" x2="40.5" y2="67" gradientUnits="userSpaceOnUse">
<stop stop-color="#F3F4F6"/>
<stop offset="1" stop-color="#9CA3AF"/>
</linearGradient>
<linearGradient id="paint2_linear_589_6108" x1="40.5" y1="43" x2="40.5" y2="67" gradientUnits="userSpaceOnUse">
<stop stop-color="white" stop-opacity="0.8"/>
<stop offset="1" stop-color="white" stop-opacity="0"/>
</linearGradient>
<linearGradient id="paint3_linear_589_6108" x1="20.5" y1="40" x2="20.5" y2="52" gradientUnits="userSpaceOnUse">
<stop stop-color="#FDE68A"/>
<stop offset="1" stop-color="#D97706"/>
</linearGradient>
<linearGradient id="paint4_linear_589_6108" x1="20.5" y1="40" x2="20.5" y2="52" gradientUnits="userSpaceOnUse">
<stop stop-color="white" stop-opacity="0.8"/>
<stop offset="1" stop-color="white" stop-opacity="0"/>
</linearGradient>
<linearGradient id="paint5_linear_589_6108" x1="46.5" y1="15" x2="46.5" y2="39" gradientUnits="userSpaceOnUse">
<stop stop-color="#F3F4F6"/>
<stop offset="1" stop-color="#9CA3AF"/>
</linearGradient>
<linearGradient id="paint6_linear_589_6108" x1="46.5" y1="15" x2="46.5" y2="39" gradientUnits="userSpaceOnUse">
<stop stop-color="white" stop-opacity="0.8"/>
<stop offset="1" stop-color="white" stop-opacity="0"/>
</linearGradient>
<linearGradient id="paint7_linear_589_6108" x1="26.5" y1="12" x2="26.5" y2="24" gradientUnits="userSpaceOnUse">
<stop stop-color="#FDE68A"/>
<stop offset="1" stop-color="#D97706"/>
</linearGradient>
<linearGradient id="paint8_linear_589_6108" x1="26.5" y1="12" x2="26.5" y2="24" gradientUnits="userSpaceOnUse">
<stop stop-color="white" stop-opacity="0.8"/>
<stop offset="1" stop-color="white" stop-opacity="0"/>
</linearGradient>
</defs>
</svg>
