<?xml version="1.0" encoding="UTF-8"?>
<svg width="606px" height="606px" viewBox="0 0 606 606" version="1.1" xmlns="http://www.w3.org/2000/svg" xmlns:xlink="http://www.w3.org/1999/xlink">
    <!-- Generator: Sketch 40.2 (33826) - http://www.bohemiancoding.com/sketch -->
    <title>timeline</title>
    <desc>Created with Sketch.</desc>
    <defs>
        <linearGradient x1="50%" y1="0%" x2="50%" y2="100%" id="linearGradient-1">
            <stop stop-color="#FFFFFF" stop-opacity="0.2" offset="0%"></stop>
            <stop stop-color="#000000" stop-opacity="0.2" offset="100%"></stop>
        </linearGradient>
        <path d="M552.268958,552.268958 C600,504.537813 600,431.458333 600,300 C600,168.541667 600,95.4621875 552.268958,47.7310417 C504.537813,0 431.458333,0 300,0 C168.541667,0 95.4621875,0 47.7310417,47.7310417 C0,95.4621875 0,168.541667 0,300 C0,431.458333 0,504.537813 47.7310417,552.268958 C95.4621875,600 168.541667,600 300,600 C431.458333,600 504.537813,600 552.268958,552.268958 Z" id="path-2"></path>
    </defs>
    <g id="Page-1" stroke="none" stroke-width="1" fill="none" fill-rule="evenodd">
        <g id="timeline" transform="translate(3.000000, 3.000000)">
            <g id="Squircle2-Copy-6">
                <g id="Shape">
                    <use fill="#4F94E7" xlink:href="#path-2"></use>
                    <use stroke="#000000" stroke-width="4.04" fill="url(#linearGradient-1)" xlink:href="#path-2"></use>
                </g>
            </g>
            <g id="share" opacity="0.9" transform="translate(94.000000, 100.000000)" fill="#FFFFFF">
                <g id="Capa_1">
                    <path d="M343.674438,3.43558282 C342.120245,2.86298569 340.484254,2.53578732 338.930061,2.12678937 C337.29407,1.71779141 335.821677,1.30879346 334.022086,1.06339468 L329.768507,0.490797546 L327.641718,0.245398773 L326.005726,0.163599182 L322.733742,0.081799591 L320.361554,8.32667268e-17 L318.398364,0.081799591 C313.16319,0.327198364 307.928016,1.06339468 302.856442,2.45398773 C292.713292,5.15337423 283.22454,10.0613497 275.20818,16.6871166 C259.011861,29.8568507 249.359509,49.7341513 248.705112,70.3476483 C246.987321,78.9366053 247.069121,88.7525562 249.27771,97.99591 C249.604908,99.4683027 250.095706,100.858896 250.504703,102.331288 C245.596728,102.08589 240.934151,102.985685 236.598773,104.539877 C217.21227,111.656442 197.25317,117.627812 179.911656,129.243354 C177.457669,130.143149 175.085481,130.961145 172.631493,131.860941 C158.316564,137.586912 144.328834,144.130879 131.895297,153.537832 C128.950511,149.366053 125.678528,145.439673 121.833947,141.92229 C117.007771,137.586912 111.690798,133.660532 105.801227,130.797546 C102.938241,129.243354 99.8298569,128.179959 96.7214724,126.952965 C95.1672802,126.380368 93.5312883,126.05317 91.9770961,125.644172 C90.3411043,125.235174 88.8687117,124.826176 87.0691207,124.580777 L82.8155419,124.00818 L80.6887526,123.762781 L79.0527607,123.680982 L75.7807771,123.599182 L73.408589,123.517382 L71.4453988,123.599182 C66.2102249,123.844581 60.9750511,124.580777 55.9034765,125.97137 C45.7603272,128.670757 36.2715746,133.578732 28.2552147,140.204499 C12.0588957,153.374233 2.40654397,173.251534 1.75214724,193.865031 C0.0343558282,202.453988 0.116155419,212.269939 2.32474438,221.513292 C4.53333333,230.756646 8.70511247,239.754601 14.594683,247.443763 C20.4842536,255.214724 28.009816,261.840491 36.598773,266.666667 L43.2245399,270.02045 C45.5149284,270.920245 47.8871166,271.820041 50.1775051,272.638037 C52.5496933,273.374233 55.003681,273.94683 57.3758691,274.601227 C59.9116564,275.173824 62.7746421,275.501022 65.4740286,275.91002 L66.4556237,276.07362 L67.19182,276.155419 L68.6642127,276.237219 L71.608998,276.400818 L72.3451943,276.400818 L72.7541922,276.400818 L73.6539877,276.400818 L73.7357873,276.400818 L73.9811861,276.400818 L75.8625767,276.319018 L79.5435583,276.155419 C84.4515337,275.746421 89.4413088,274.928425 94.1856851,273.537832 C103.756237,270.838446 112.754192,266.257669 120.606953,260.286299 C127.805317,254.723926 133.940286,247.93456 138.930061,240.245399 C141.465849,243.435583 144.410634,246.05317 147.600818,248.09816 C164.942331,259.386503 181.711247,271.738241 201.343149,278.609407 C203.469939,280 205.596728,281.472393 207.805317,282.781186 C221.302249,291.042945 235.20818,298.404908 250.586503,302.658487 C249.441309,307.484663 248.705112,312.392638 248.541513,317.300613 C246.823722,325.889571 246.905521,335.705521 249.11411,344.948875 C251.322699,354.192229 255.494479,363.190184 261.384049,370.879346 C267.27362,378.650307 274.799182,385.276074 283.388139,390.102249 L290.013906,393.456033 C292.304294,394.355828 294.676483,395.255624 296.966871,396.07362 C299.339059,396.809816 301.793047,397.382413 304.165235,398.03681 C306.701022,398.609407 309.564008,398.936605 312.263395,399.345603 L313.24499,399.509202 L313.981186,399.591002 L315.453579,399.672802 L318.398364,399.836401 L319.13456,399.836401 L319.543558,399.836401 L320.443354,399.836401 L320.525153,399.836401 L320.770552,399.836401 L322.651943,399.754601 L326.332924,399.591002 C331.2409,399.182004 336.230675,398.364008 340.975051,396.973415 C350.545603,394.274029 359.543558,389.693252 367.396319,383.721881 C375.24908,377.668712 381.874847,370.143149 387.028221,361.717791 C388.418814,359.672802 389.482209,357.464213 390.545603,355.173824 C391.690798,352.965235 392.590593,350.674847 393.490389,348.384458 C394.471984,346.09407 395.12638,343.721881 395.780777,341.349693 L396.762372,337.750511 L397.498569,333.660532 C398.316564,329.161554 395.535378,325.235174 393.653988,323.599182 C389.809407,320.654397 386.373824,324.00818 383.429039,329.243354 C378.275665,337.91411 372.304294,345.357873 365.760327,351.738241 C359.052761,358.03681 351.608998,363.353783 343.510838,366.952965 C338.684663,369.243354 333.449489,370.470348 328.214315,370.961145 C326.905521,371.042945 325.596728,371.288344 324.287935,371.206544 L322.324744,371.206544 L321.343149,371.206544 L320.852352,371.206544 L320.852352,371.206544 C317.662168,370.879346 314.062986,370.633947 312.426994,369.97955 C311.363599,369.734151 310.300204,369.488753 308.991411,369.079755 C307.764417,368.670757 306.537423,368.425358 305.392229,367.852761 L301.874847,366.380368 L298.521063,364.580777 C294.185685,361.96319 290.259305,358.773006 286.905521,355.092025 C283.551738,351.411043 280.852352,347.157464 278.725562,342.740286 C276.598773,338.323108 275.20818,333.578732 274.553783,328.670757 L274.471984,326.543967 L274.390184,324.662577 L274.308384,322.781186 L274.226585,321.881391 L274.226585,321.881391 L274.226585,321.472393 L274.390184,316.564417 L274.799182,313.374233 C275.453579,308.875256 276.925971,303.803681 278.970961,299.304703 C281.670348,295.132924 285.024131,291.370143 288.623313,288.179959 C300.320654,277.873211 316.680573,274.110429 331.404499,277.709611 C338.766462,279.427403 345.719427,282.781186 351.608998,287.770961 C357.662168,292.597137 362.488344,298.977505 365.842127,306.175869 C366.905521,308.220859 367.641718,310.265849 368.786912,312.06544 C369.604908,313.94683 370.750102,315.664622 371.895297,317.137014 C374.022086,320.0818 376.885072,322.126789 380.566053,321.799591 C383.919836,321.390593 386.701022,319.100204 388.582413,314.846626 C389.318609,312.719836 389.891207,310.184049 390.054806,307.239264 C389.973006,304.376278 389.809407,301.022495 388.664213,297.668712 C387.028221,291.533742 384.165235,285.807771 380.975051,280.245399 C377.539468,274.846626 373.531288,269.775051 368.705112,265.357873 C363.878937,261.022495 358.561963,257.096115 352.672393,254.233129 C349.809407,252.678937 346.701022,251.615542 343.592638,250.388548 C342.038446,249.815951 340.402454,249.488753 338.848262,249.079755 C337.21227,248.670757 335.739877,248.261759 333.858487,248.01636 L329.604908,247.443763 L327.478119,247.198364 L325.842127,247.116564 L322.570143,247.034765 L320.197955,246.952965 L318.234765,247.034765 C312.999591,247.280164 307.764417,248.01636 302.692843,249.406953 C292.549693,252.106339 283.060941,257.014315 275.044581,263.640082 C269.400409,268.220859 264.574233,273.701431 260.647853,279.672802 C254.349284,275.092025 247.968916,270.511247 241.015951,267.239264 C228.664213,261.431493 215.739877,256.768916 203.060941,251.615542 C187.846217,235.173824 167.559918,228.05726 148.746012,218.323108 C148.827812,218.07771 148.909611,217.91411 148.909611,217.668712 L149.891207,214.06953 L150.627403,209.97955 C151.445399,205.480573 148.664213,201.554192 146.782822,199.9182 C142.938241,196.973415 139.502658,200.327198 136.557873,205.562372 C131.404499,214.233129 125.433129,221.676892 118.889162,228.05726 C112.181595,234.355828 104.737832,239.672802 96.6396728,243.271984 C91.8134969,245.562372 86.5783231,246.789366 81.3431493,247.280164 C80.0343558,247.361963 78.7255624,247.607362 77.4167689,247.525562 L75.4535787,247.525562 L74.4719836,247.525562 L73.9811861,247.525562 L73.9811861,247.525562 C70.791002,247.198364 67.19182,246.952965 65.5558282,246.298569 C64.4924335,246.05317 63.4290389,245.807771 62.1202454,245.398773 C60.8932515,244.989775 59.6662577,244.744376 58.5210634,244.171779 L55.003681,242.699387 L51.6498978,240.899796 C47.3145194,238.282209 43.3881391,235.092025 40.0343558,231.411043 C36.6805726,227.730061 33.9811861,223.476483 31.8543967,219.059305 C29.7276074,214.642127 28.3370143,209.897751 27.6826176,204.989775 L27.3554192,203.190184 L27.2736196,201.308793 L27.19182,199.427403 L27.1100204,198.527607 L27.1100204,198.527607 L27.1100204,198.118609 L27.2736196,193.210634 L27.6826176,190.02045 C28.3370143,185.521472 29.809407,180.449898 31.8543967,175.95092 C34.5537832,171.779141 37.9075665,168.01636 41.5067485,164.826176 C53.20409,154.519427 69.5640082,150.756646 84.2879346,154.355828 C91.6498978,156.07362 98.602863,159.427403 104.492434,164.417178 C110.545603,169.243354 115.371779,175.623722 118.725562,182.822086 C119.788957,184.867076 120.525153,186.912065 121.670348,188.711656 C122.488344,190.593047 123.633538,192.310838 124.778732,193.783231 C126.905521,196.728016 129.768507,198.773006 133.449489,198.445808 C136.803272,198.03681 139.584458,195.746421 141.465849,191.492843 C142.202045,189.366053 142.774642,186.830266 142.938241,183.885481 C142.856442,181.595092 142.774642,178.977505 142.120245,176.359918 C149.891207,173.98773 157.662168,171.615542 164.778732,167.852761 C176.885072,161.472393 188.337014,153.94683 200.034356,146.912065 C222.774642,144.621677 240.852352,132.188139 260.402454,122.862986 C260.729652,123.271984 260.975051,123.680982 261.22045,124.08998 C267.11002,131.860941 274.635583,138.486708 283.22454,143.312883 L289.850307,146.666667 C292.140695,147.566462 294.512883,148.466258 296.803272,149.284254 C299.17546,150.02045 301.629448,150.593047 304.001636,151.247444 C306.537423,151.820041 309.400409,152.147239 312.099796,152.556237 L313.081391,152.719836 L313.817587,152.801636 L315.28998,152.883436 L318.234765,153.047035 L318.970961,153.047035 L319.379959,153.047035 L320.279755,153.047035 L320.361554,153.047035 L320.606953,153.047035 L322.488344,152.965235 L326.169325,152.801636 C331.077301,152.392638 336.067076,151.574642 340.811452,150.184049 C350.382004,147.484663 359.379959,142.903885 367.23272,136.932515 C375.085481,130.879346 381.711247,123.353783 386.864622,114.928425 C388.255215,112.883436 389.318609,110.674847 390.382004,108.384458 C391.527198,106.175869 392.426994,103.885481 393.326789,101.595092 C394.308384,99.3047035 394.962781,96.9325153 395.617178,94.5603272 L396.598773,90.9611452 L397.334969,86.8711656 C398.152965,82.3721881 395.371779,78.4458078 393.490389,76.809816 C389.645808,73.8650307 386.210225,77.2188139 383.26544,82.4539877 C378.112065,91.1247444 372.140695,98.5685072 365.596728,104.948875 C358.889162,111.247444 351.445399,116.564417 343.347239,120.163599 C338.521063,122.453988 333.28589,123.680982 328.050716,124.171779 C326.741922,124.253579 325.433129,124.498978 324.124335,124.417178 L322.161145,124.417178 L321.17955,124.417178 L320.688753,124.417178 L320.688753,124.417178 C317.498569,124.08998 313.899387,123.844581 312.263395,123.190184 C311.2,122.944785 310.136605,122.699387 308.827812,122.290389 C307.600818,121.881391 306.373824,121.635992 305.22863,121.063395 L301.711247,119.591002 L298.357464,117.791411 C294.022086,115.173824 290.095706,111.98364 286.741922,108.302658 C283.388139,104.621677 280.688753,100.368098 278.561963,95.9509202 C276.435174,91.5337423 275.044581,86.7893661 274.390184,81.8813906 L274.062986,80.0817996 L273.981186,78.200409 L273.899387,76.3190184 L273.817587,75.4192229 L273.817587,75.4192229 L273.817587,75.0102249 L273.981186,70.1022495 L274.390184,66.9120654 C275.044581,62.4130879 276.516973,57.3415133 278.561963,52.8425358 C281.26135,48.6707566 284.615133,44.9079755 288.214315,41.7177914 C299.911656,31.4110429 316.271575,27.6482618 330.995501,31.2474438 C338.357464,32.9652352 345.310429,36.3190184 351.2,41.3087935 C357.25317,46.1349693 362.079346,52.5153374 365.433129,59.7137014 C366.496524,61.7586912 367.23272,63.803681 368.377914,65.603272 C369.19591,67.4846626 370.341104,69.202454 371.486299,70.6748466 C373.613088,73.6196319 376.476074,75.6646217 380.157055,75.3374233 C383.510838,74.9284254 386.292025,72.6380368 388.173415,68.3844581 C388.909611,66.2576687 389.482209,63.7218814 389.645808,60.7770961 C389.564008,57.9141104 389.400409,54.5603272 388.255215,51.206544 C386.619223,45.0715746 383.756237,39.3456033 380.566053,33.7832311 C377.13047,28.3844581 373.12229,23.2310838 368.296115,18.8139059 C363.469939,14.4785276 358.152965,10.5521472 352.263395,7.68916155 C349.891207,5.64417178 346.782004,4.5807771 343.674438,3.43558282 L343.674438,3.43558282 Z" id="Shape"></path>
                </g>
            </g>
        </g>
    </g>
</svg>