<svg width="320" height="320" viewBox="0 0 320 320" fill="none" xmlns="http://www.w3.org/2000/svg">
<g clip-path="url(#clip0_740_4577)">
<path d="M160 0C281.326 0 320 38.6737 320 160C320 281.326 281.326 320 160 320C38.6736 320 0 281.326 0 160C0 38.6737 38.6736 0 160 0Z" fill="url(#paint0_linear_740_4577)"/>
<path d="M160 2C220.573 2 259.85 11.6833 284.083 35.9168C308.317 60.1504 318 99.4272 318 160C318 220.573 308.317 259.85 284.083 284.083C259.85 308.317 220.573 318 160 318C99.4272 318 60.1504 308.317 35.9168 284.083C11.6833 259.85 2 220.573 2 160C2 99.4272 11.6833 60.1504 35.9168 35.9168C60.1504 11.6833 99.4272 2 160 2Z" stroke="#F8FAFC" stroke-opacity="0.2" stroke-width="4"/>
<g clip-path="url(#clip1_740_4577)">
<path d="M89.0546 96.1256C88.1799 95.2508 88.3046 93.8024 89.2529 93.008C90.6124 91.8693 91.8694 90.6122 93.0082 89.2528C93.8025 88.3045 95.251 88.1798 96.1257 89.0545L107.251 100.18C108.106 101.034 108.01 102.443 107.096 103.234C105.715 104.429 104.429 105.714 103.234 107.096C102.443 108.009 101.035 108.105 100.18 107.251L89.0546 96.1256Z" fill="url(#paint1_linear_740_4577)"/>
<path d="M213.59 220.661C212.715 219.786 212.84 218.338 213.788 217.543C215.148 216.405 216.405 215.148 217.543 213.788C218.338 212.84 219.786 212.715 220.661 213.59L231.786 224.715C232.641 225.57 232.545 226.978 231.631 227.769C230.25 228.964 228.964 230.25 227.769 231.631C226.978 232.545 225.57 232.641 224.715 231.786L213.59 220.661Z" fill="url(#paint2_linear_740_4577)"/>
<path d="M220.661 106.785C219.786 107.66 218.338 107.535 217.543 106.587C216.405 105.228 215.148 103.97 213.788 102.832C212.84 102.037 212.715 100.589 213.59 99.7142L224.715 88.5888C225.57 87.7343 226.978 87.8303 227.769 88.7442C228.964 90.1253 230.25 91.4112 231.631 92.6061C232.545 93.3968 232.641 94.8053 231.786 95.6599L220.661 106.785Z" fill="url(#paint3_linear_740_4577)"/>
<path d="M99.7142 213.59C100.589 212.715 102.037 212.84 102.832 213.788C103.97 215.148 105.228 216.405 106.587 217.543C107.535 218.338 107.66 219.786 106.785 220.661L95.6599 231.786C94.8053 232.641 93.3968 232.545 92.6061 231.631C91.4112 230.25 90.1253 228.964 88.7442 227.769C87.8303 226.978 87.7343 225.57 88.5888 224.715L99.7142 213.59Z" fill="url(#paint4_linear_740_4577)"/>
<path d="M160 100C205.497 100 220 114.503 220 160C220 205.497 205.497 220 160 220C114.503 220 100 205.497 100 160C100 114.503 114.503 100 160 100Z" fill="url(#paint5_linear_740_4577)"/>
<circle cx="70" cy="70" r="20" fill="url(#paint6_linear_740_4577)"/>
<circle cx="70" cy="250" r="20" fill="url(#paint7_linear_740_4577)"/>
<circle cx="250" cy="70" r="20" fill="url(#paint8_linear_740_4577)"/>
<circle cx="250" cy="250" r="20" fill="url(#paint9_linear_740_4577)"/>
</g>
</g>
<defs>
<linearGradient id="paint0_linear_740_4577" x1="160" y1="0" x2="160" y2="320" gradientUnits="userSpaceOnUse">
<stop stop-color="#475569"/>
<stop offset="1" stop-color="#1E293B"/>
</linearGradient>
<linearGradient id="paint1_linear_740_4577" x1="160.188" y1="88" x2="160.188" y2="232.375" gradientUnits="userSpaceOnUse">
<stop stop-color="#94A3B8"/>
<stop offset="1" stop-color="#64748B"/>
</linearGradient>
<linearGradient id="paint2_linear_740_4577" x1="160.188" y1="88" x2="160.188" y2="232.375" gradientUnits="userSpaceOnUse">
<stop stop-color="#94A3B8"/>
<stop offset="1" stop-color="#64748B"/>
</linearGradient>
<linearGradient id="paint3_linear_740_4577" x1="160.188" y1="88" x2="160.188" y2="232.375" gradientUnits="userSpaceOnUse">
<stop stop-color="#94A3B8"/>
<stop offset="1" stop-color="#64748B"/>
</linearGradient>
<linearGradient id="paint4_linear_740_4577" x1="160.188" y1="88" x2="160.188" y2="232.375" gradientUnits="userSpaceOnUse">
<stop stop-color="#94A3B8"/>
<stop offset="1" stop-color="#64748B"/>
</linearGradient>
<linearGradient id="paint5_linear_740_4577" x1="160" y1="100" x2="160" y2="220" gradientUnits="userSpaceOnUse">
<stop stop-color="#2DD4BF"/>
<stop offset="1" stop-color="#0D9488"/>
</linearGradient>
<linearGradient id="paint6_linear_740_4577" x1="70" y1="50" x2="70" y2="90" gradientUnits="userSpaceOnUse">
<stop stop-color="#FB7185"/>
<stop offset="1" stop-color="#E11D48"/>
</linearGradient>
<linearGradient id="paint7_linear_740_4577" x1="70" y1="230" x2="70" y2="270" gradientUnits="userSpaceOnUse">
<stop stop-color="#FB923C"/>
<stop offset="1" stop-color="#EA580C"/>
</linearGradient>
<linearGradient id="paint8_linear_740_4577" x1="250" y1="50" x2="250" y2="90" gradientUnits="userSpaceOnUse">
<stop stop-color="#34D399"/>
<stop offset="1" stop-color="#059669"/>
</linearGradient>
<linearGradient id="paint9_linear_740_4577" x1="250" y1="230" x2="250" y2="270" gradientUnits="userSpaceOnUse">
<stop stop-color="#60A5FA"/>
<stop offset="1" stop-color="#2563EB"/>
</linearGradient>
<clipPath id="clip0_740_4577">
<rect width="320" height="320" fill="white"/>
</clipPath>
<clipPath id="clip1_740_4577">
<rect width="240" height="240" fill="white" transform="translate(40 40)"/>
</clipPath>
</defs>
</svg>
