<svg width="320" height="320" viewBox="0 0 320 320" fill="none" xmlns="http://www.w3.org/2000/svg">
<g clip-path="url(#clip0_893_7454)">
<path d="M160 0C281.326 0 320 38.6737 320 160C320 281.326 281.326 320 160 320C38.6736 320 0 281.326 0 160C0 38.6737 38.6736 0 160 0Z" fill="url(#paint0_linear_893_7454)"/>
<path d="M160 2C220.573 2 259.85 11.6833 284.083 35.9168C308.317 60.1504 318 99.4272 318 160C318 220.573 308.317 259.85 284.083 284.083C259.85 308.317 220.573 318 160 318C99.4272 318 60.1504 308.317 35.9168 284.083C11.6833 259.85 2 220.573 2 160C2 99.4272 11.6833 60.1504 35.9168 35.9168C60.1504 11.6833 99.4272 2 160 2Z" stroke="#0F172A" stroke-opacity="0.2" stroke-width="4"/>
<g clip-path="url(#clip1_893_7454)">
<path fill-rule="evenodd" clip-rule="evenodd" d="M270 160C270 76.5882 243.412 50 160 50C76.5881 50 50 76.5882 50 160C50 176.005 50.9789 189.918 53.1503 201.952C54.1935 207.733 60.3487 210.952 66.1958 210.383C68.8804 210.122 71.8096 210 75 210C101.54 210 110 218.46 110 245C110 248.19 109.878 251.12 109.617 253.804C109.048 259.651 112.267 265.807 118.048 266.85C130.082 269.021 143.995 270 160 270C243.412 270 270 243.412 270 160ZM218.45 161.35C218.45 157.4 218.1 153.65 217.5 150H161V172.55H193.35C191.9 179.95 187.65 186.2 181.35 190.45V190.454L181.345 190.45C175.945 194.05 169.095 196.25 160.995 196.25C145.346 196.25 132.097 185.702 127.346 171.453L127.35 171.45C126.1 167.85 125.45 164 125.45 160C125.45 156 126.15 152.15 127.35 148.55V148.535C132.104 134.293 145.35 123.75 160.995 123.75C169.845 123.75 177.745 126.8 183.995 132.75L201.095 115.65C190.745 105.95 177.195 100 160.995 100C137.545 100 117.295 113.5 107.445 133.1L107.449 133.103C103.349 141.202 101 150.301 101 160C101 169.696 103.348 178.793 107.445 186.89V186.9C117.295 206.5 137.545 220 160.995 220C177.195 220 190.745 214.6 200.645 205.45L200.645 205.45H200.65C211.95 195 218.45 179.6 218.45 161.35Z" fill="url(#paint1_linear_893_7454)"/>
<path d="M75 220C93.9572 220 100 226.043 100 245C100 263.957 93.9572 270 75 270C56.0428 270 50 263.957 50 245C50 226.043 56.0428 220 75 220Z" fill="url(#paint2_linear_893_7454)"/>
</g>
</g>
<defs>
<linearGradient id="paint0_linear_893_7454" x1="160" y1="0" x2="160" y2="320" gradientUnits="userSpaceOnUse">
<stop stop-color="#F8FAFC"/>
<stop offset="1" stop-color="#E2E8F0"/>
</linearGradient>
<linearGradient id="paint1_linear_893_7454" x1="160" y1="50" x2="160" y2="270" gradientUnits="userSpaceOnUse">
<stop stop-color="#60A5FA"/>
<stop offset="1" stop-color="#2563EB"/>
</linearGradient>
<linearGradient id="paint2_linear_893_7454" x1="75" y1="220" x2="75" y2="270" gradientUnits="userSpaceOnUse">
<stop stop-color="#FB923C"/>
<stop offset="1" stop-color="#EA580C"/>
</linearGradient>
<clipPath id="clip0_893_7454">
<rect width="320" height="320" fill="white"/>
</clipPath>
<clipPath id="clip1_893_7454">
<rect width="240" height="240" fill="white" transform="translate(40 40)"/>
</clipPath>
</defs>
</svg>
