<?xml version="1.0" encoding="UTF-8"?>
<svg width="606px" height="606px" viewBox="0 0 606 606" version="1.1" xmlns="http://www.w3.org/2000/svg" xmlns:xlink="http://www.w3.org/1999/xlink">
    <!-- Generator: Sketch 40.2 (33826) - http://www.bohemiancoding.com/sketch -->
    <title>payments</title>
    <desc>Created with Sketch.</desc>
    <defs>
        <linearGradient x1="50%" y1="0%" x2="50%" y2="100%" id="linearGradient-1">
            <stop stop-color="#FFFFFF" stop-opacity="0.2" offset="0%"></stop>
            <stop stop-color="#000000" stop-opacity="0.2" offset="100%"></stop>
        </linearGradient>
        <path d="M552.268958,552.268958 C600,504.537813 600,431.458333 600,300 C600,168.541667 600,95.4621875 552.268958,47.7310417 C504.537813,0 431.458333,0 300,0 C168.541667,0 95.4621875,0 47.7310417,47.7310417 C0,95.4621875 0,168.541667 0,300 C0,431.458333 0,504.537813 47.7310417,552.268958 C95.4621875,600 168.541667,600 300,600 C431.458333,600 504.537813,600 552.268958,552.268958 Z" id="path-2"></path>
    </defs>
    <g id="Page-1" stroke="none" stroke-width="1" fill="none" fill-rule="evenodd">
        <g id="payments" transform="translate(3.000000, 3.000000)">
            <g id="Squircle2-Copy-6">
                <g id="Shape">
                    <use fill="#1DB291" xlink:href="#path-2"></use>
                    <use stroke="#000000" stroke-width="4.04" fill="url(#linearGradient-1)" xlink:href="#path-2"></use>
                </g>
            </g>
            <g id="coin" opacity="0.9" transform="translate(102.000000, 100.000000)" fill="#FFFFFF">
                <g id="Capa_1">
                    <g id="Group">
                        <path d="M70.9322515,311.48073 C68.3359026,309.046653 66.4697769,306.044625 64.1979716,303.286004 C62.0884381,300.446247 59.6543611,297.849899 57.7882353,294.84787 C54.1371197,288.843813 49.8369168,283.083164 46.9160243,276.592292 C45.3744422,273.427992 43.5894523,270.344828 42.1290061,267.099391 L38.2344828,257.200811 C26.1452333,227.180527 24.684787,199.026369 16.6523327,201.460446 C13.3257606,202.596349 10.7294118,209.492901 9.18782961,221.095335 C9.02555781,226.855984 9.02555781,233.752535 9.67464503,241.541582 C10.3237323,245.35497 11.0539554,249.492901 11.9464503,253.711968 C12.4332657,255.821501 12.7578093,258.01217 13.4068966,260.20284 C14.1371197,262.393509 14.8673428,264.584178 15.5975659,266.855984 C20.546856,283.245436 28.7415822,298.41785 37.8288032,313.022312 C42.8592292,320 47.6462475,327.221095 53.5691684,333.46856 L57.8693712,338.336714 C59.2486815,339.959432 60.7091278,341.58215 62.3318458,343.042596 L71.7436105,351.88641 C84.8876268,363.083164 99.1675456,373.225152 114.907911,380.527383 C122.534686,384.665314 130.891684,387.342799 139.005274,390.425963 C143.062069,391.88641 147.362272,392.697769 151.581339,393.914807 C155.800406,394.969574 159.857201,396.267748 164.400811,396.754564 L175.110751,398.296146 L180.46572,399.026369 L185.333874,399.269777 L195.070183,399.675456 L197.50426,399.756592 L198.721298,399.837728 L199.370385,399.837728 L200.100609,399.837728 L200.181744,399.837728 L200.344016,399.837728 L200.66856,399.837728 L205.861258,399.59432 C212.838945,399.107505 219.816633,399.188641 226.632049,397.809331 C233.5286,396.673428 240.425152,395.862069 247.078296,393.752535 C274.096552,386.93712 299.492089,374.279919 321.155375,357.079108 C342.818661,339.79716 360.993103,318.21501 373.488032,293.549696 L377.869371,284.219067 C379.248682,281.054767 380.952535,278.052738 381.926166,274.726166 L385.41501,264.989858 L387.118864,260.121704 C387.60568,258.498986 387.930223,256.795132 388.417039,255.091278 L390.851116,245.030426 C391.256795,243.326572 391.743611,241.703854 391.987018,240 L392.717241,234.726166 C393.609736,227.748479 394.989047,220.527383 394.907911,214.279919 C397.747667,190.182556 395.800406,164.624746 388.822718,140.527383 C381.926166,116.348884 369.999189,93.4685598 354.096552,73.5902637 C338.193915,53.7119675 318.315619,36.9168357 295.92211,24.5841785 L278.640162,16.1460446 C272.636105,13.7931034 266.632049,11.6024341 260.627992,9.41176471 C254.461663,7.62677485 248.214199,6.0851927 241.966734,4.46247465 C235.556998,3.1643002 228.822718,2.35294118 222.25071,1.29817444 L219.735497,0.973630832 L217.544828,0.811359026 L213.082353,0.567951318 L204.23854,0.162271805 L202.04787,0.0811359026 L200.911968,0 L199.776065,0 L199.451521,0 L198.88357,0 L194.096552,0.243407708 L184.441379,0.730223124 L179.654361,0.973630832 C178.031643,1.13590264 176.490061,1.46044625 174.867343,1.62271805 L165.374442,3.0831643 C158.964706,3.81338742 152.798377,5.76064909 146.550913,7.30223124 C121.723327,14.1176471 98.3561866,25.8823529 77.9910751,41.4604462 C57.9505071,57.0385396 40.5874239,76.5111562 27.4434077,98.4989858 C25.8206897,101.257606 23.9545639,103.935091 22.5752535,106.774848 L18.3561866,115.456389 C16.9768763,118.377282 15.4352941,121.217039 14.2993915,124.137931 L10.9728195,133.144016 C9.91805274,136.146045 8.7010142,139.148073 7.72738337,142.231237 L5.21217039,151.561866 L2.77809331,160.892495 L1.15537525,170.791075 C-0.873022312,180.851927 1.80446247,193.509128 3.50831643,197.890467 C7.15943205,206.247465 10.7294118,195.780933 14.5427992,179.959432 C21.6827586,153.833671 33.9342799,127.545639 51.6219067,103.935091 C53.6503043,100.851927 56.327789,98.2555781 58.6807302,95.3346856 L62.2507099,91.0344828 L64.0356998,88.9249493 L66.0640974,86.9776876 C68.7415822,84.3813387 71.337931,81.703854 74.0154158,79.0263692 L76.0438134,76.9979716 L78.2344828,75.2129817 L82.6158215,71.5618661 C88.2141988,66.4503043 94.6239351,62.3123732 100.790264,57.9310345 C103.873428,55.6592292 107.362272,54.0365112 110.607708,52.0892495 C113.93428,50.2231237 117.09858,48.1135903 120.66856,46.653144 C136.976876,38.2150101 154.907911,33.1845842 172.920081,30.5882353 C177.463692,30.1014199 181.926166,29.0466531 186.550913,29.127789 L193.366329,28.8843813 L196.774037,28.8032454 L198.47789,28.7221095 L199.370385,28.7221095 L199.776065,28.7221095 L199.938337,28.7221095 L214.218256,29.6957404 L217.869371,29.9391481 C219.08641,30.020284 220.060041,30.2636917 221.195943,30.5070994 L227.686815,31.643002 L234.177688,32.6977688 C236.368357,33.1034483 238.559026,33.8336714 240.749696,34.4016227 L247.321704,36.1866126 C249.512373,36.7545639 251.703043,37.3225152 253.812576,38.2150101 L266.469777,43.0831643 C270.526572,45.030426 274.583367,47.1399594 278.640162,49.168357 C294.542799,57.8498986 309.066126,68.8032454 321.723327,81.703854 C334.299391,94.6855984 344.522515,109.776876 352.473834,125.922921 L355.394726,132.008114 L356.855172,135.010142 L357.991075,138.174442 L362.534686,150.831643 L365.861258,163.894523 C366.104665,164.94929 366.429209,166.085193 366.672617,167.139959 L367.159432,170.466531 L368.133063,177.119675 L369.18783,183.772819 L369.512373,190.507099 L369.836917,197.241379 L369.999189,200.649087 L369.999189,200.973631 L369.999189,201.703854 L369.918053,203.56998 L369.268966,218.255578 C368.78215,222.799189 367.970791,226.855984 367.40284,231.156187 C364.400811,248.51927 358.640162,266.125761 350.445436,282.271805 C341.439351,297.849899 330.16146,311.88641 317.09858,324.137931 C275.800406,363.1643 214.705071,378.823529 160.019473,365.030426 L149.796349,362.434077 L139.897769,358.864097 L134.948479,357.079108 C133.325761,356.43002 131.784178,355.618661 130.16146,354.888438 L120.587424,350.425963 C108.335903,343.529412 96.327789,335.983773 86.0235294,326.3286 C80.4251521,321.947262 75.8004057,316.592292 70.9322515,311.48073 L70.9322515,311.48073 Z" id="Shape"></path>
                        <path d="M210.242596,70.1825558 C206.266937,68.31643 202.940365,70.7505071 200.425152,74.3204868 C194.745639,82.3529412 191.256795,91.6024341 189.309533,101.338742 C186.307505,101.176471 183.305477,101.014199 180.303448,100.933063 L178.761866,100.851927 L176.652333,100.851927 L173.569168,100.933063 C171.053955,101.176471 167.808519,101.419878 165.455578,102.068966 C160.344016,102.96146 155.475862,104.908722 150.851116,107.261663 C146.226369,109.69574 142.007302,112.778905 138.112779,116.267748 C134.380527,119.918864 130.972819,123.975659 128.295335,128.51927 C122.940365,137.687627 119.938337,148.235294 120.26288,159.107505 C120.344016,160.243408 120.26288,160.892495 120.344016,162.434077 L120.911968,166.896552 C121.398783,169.817444 121.966734,172.251521 122.778093,174.929006 C124.319675,180.121704 126.753753,185.070994 129.674645,189.614604 C132.676673,194.158215 136.327789,198.296146 140.384584,201.866126 C144.603651,205.35497 149.147262,208.438134 154.177688,210.709939 C159.208114,212.900609 164.481947,214.685598 169.999189,215.415822 C172.757809,215.902637 175.435294,215.902637 178.193915,216.064909 L183.63002,216.064909 C183.548884,216.957404 183.386613,217.849899 183.305477,218.742394 C182.412982,228.72211 181.926166,238.701826 182.737525,248.600406 C182.412982,257.200811 182.25071,265.882353 182.331846,274.482759 C176.490061,274.807302 170.56714,275.05071 164.725355,275.456389 C150.120892,276.43002 138.031643,280.162272 139.08641,287.464503 C140.060041,294.198783 150.445436,299.148073 165.374442,299.878296 C171.297363,300.20284 177.30142,300.527383 183.224341,300.851927 C183.63002,306.53144 184.116836,312.210953 184.765923,317.890467 C185.739554,325.760649 189.471805,332.332657 196.774037,331.764706 C203.508316,331.196755 208.457606,325.679513 209.18783,317.565923 C209.674645,312.454361 210.16146,307.261663 210.648276,302.068966 L215.840974,302.231237 L218.356187,302.312373 C219.248682,302.312373 220.46572,302.312373 221.520487,302.231237 C223.711156,302.231237 225.901826,301.98783 228.092495,301.663286 C236.774037,300.446247 245.21217,297.03854 252.270994,291.845842 C263.711156,283.651116 271.987018,270.993915 274.745639,257.200811 C275.151318,255.496957 275.31359,253.387424 275.556998,251.521298 L275.71927,250.060852 L275.71927,249.006085 L275.800406,246.977688 L275.800406,245.922921 L275.800406,244.787018 L275.800406,244.137931 L275.638134,241.541582 C275.556998,239.837728 275.31359,238.052738 274.989047,236.348884 C273.853144,229.452333 271.419067,222.799189 267.849087,216.876268 C260.790264,204.94929 249.268966,195.943205 236.206085,192.048682 C232.960649,191.075051 229.715213,190.344828 225.901826,189.939148 C223.873428,189.614604 222.656389,189.69574 221.277079,189.614604 L218.68073,189.533469 L216.652333,189.614604 L212.757809,189.69574 C215.273022,177.525355 214.786207,165.192698 214.542799,152.941176 C214.705071,147.586207 214.705071,142.231237 214.705071,136.795132 C214.786207,135.821501 214.786207,134.84787 214.867343,133.793103 C214.867343,133.630832 214.786207,133.46856 214.705071,133.225152 L214.705071,127.707911 C227.443408,127.707911 240.181744,127.789047 252.920081,128.11359 C256.408925,128.194726 261.926166,125.35497 263.63002,123.407708 C267.037728,119.432049 262.575254,116.105477 255.92211,113.590264 C243.427181,108.803245 229.309533,105.638945 214.461663,103.529412 C214.380527,94.198783 214.461663,84.9492901 214.948479,75.6997972 C215.029615,74.0770791 212.189858,71.0750507 210.242596,70.1825558 L210.242596,70.1825558 Z M183.224341,188.478702 L178.518458,188.073022 C176.652333,187.748479 175.029615,187.586207 173.325761,187.018256 C166.672617,185.233266 160.911968,181.419878 156.855172,176.308316 C154.826775,173.793103 153.122921,171.034483 151.987018,168.032454 C151.500203,166.572008 150.932252,165.030426 150.688844,163.488844 L150.445436,162.352941 C150.3643,162.028398 150.3643,161.78499 150.3643,161.460446 L150.202028,160.649087 L150.120892,160.243408 L150.120892,159.350913 L150.039757,156.511156 L150.202028,154.158215 C150.445436,152.616633 150.607708,150.993915 151.094523,149.533469 C151.905882,146.53144 153.122921,143.610548 154.907911,141.014199 C158.396755,135.821501 163.589452,131.68357 169.512373,129.736308 C170.891684,129.330629 172.757809,128.762677 173.650304,128.681542 L174.461663,128.51927 C174.705071,128.438134 175.597566,128.438134 176.084381,128.356998 L177.950507,128.275862 L178.843002,128.194726 L179.005274,128.194726 L186.469777,128.194726 C185.009331,148.154158 183.548884,168.275862 183.224341,188.478702 L183.224341,188.478702 Z M215.029615,215.821501 L218.112779,215.740365 L218.518458,215.740365 L218.68073,215.740365 L218.761866,215.740365 L218.112779,215.740365 L218.112779,215.740365 L218.112779,215.740365 L218.112779,215.740365 L218.843002,215.740365 L220.384584,215.740365 C222.899797,215.740365 223.386613,215.983773 224.522515,215.983773 C225.739554,216.227181 227.2,216.389452 228.498174,216.795132 C233.609736,218.823529 237.828803,222.393509 241.155375,226.53144 C246.266937,233.346856 248.133063,241.78499 246.429209,250.223124 C244.968763,257.931034 239.532657,265.233266 232.636105,269.208925 C229.147262,271.318458 225.252738,272.535497 221.114807,272.941176 L219.573225,273.022312 L218.761866,273.103448 L217.544828,273.103448 L212.757809,273.184584 L212.027586,273.184584 C211.94645,265.557809 211.703043,257.931034 211.378499,250.30426 C211.865314,246.73428 212.189858,243.083164 212.027586,239.513185 C211.865314,231.561866 211.135091,223.610548 210.323732,215.578093 L215.029615,215.821501 L215.029615,215.821501 Z" id="Shape"></path>
                    </g>
                </g>
            </g>
        </g>
    </g>
</svg>