<?xml version="1.0" encoding="UTF-8"?>
<svg width="64px" height="64px" viewBox="0 0 64 64" version="1.1" xmlns="http://www.w3.org/2000/svg" xmlns:xlink="http://www.w3.org/1999/xlink">
    <!-- Generator: Sketch 55 (78076) - https://sketchapp.com -->
    <title>payments</title>
    <desc>Created with Sketch.</desc>
    <defs>
        <path d="M32,64 C46.0222222,64 53.8173667,64 58.9086889,58.9086889 C64,53.8173667 64,46.0222222 64,32 C64,17.9777778 64,10.1826333 58.9086889,5.09131111 C53.8173667,0 46.0222222,0 32,0 C17.9777778,0 10.1826333,0 5.09131111,5.09131111 C0,10.1826333 0,17.9777778 0,32 C0,46.0222222 0,53.8173667 5.09131111,58.9086889 C10.1826333,64 17.9777778,64 32,64 Z" id="path-1"></path>
        <linearGradient x1="50%" y1="0%" x2="50%" y2="100%" id="linearGradient-3">
            <stop stop-color="#FDFEFF" offset="0%"></stop>
            <stop stop-color="#FBFCFD" stop-opacity="0.9" offset="100%"></stop>
        </linearGradient>
        <path d="M37.5833333,0 L3.41666667,0 C1.53038194,0 0,1.54599809 0,3.45153061 L0,28.7627551 C0,30.6682876 1.53038194,32.2142857 3.41666667,32.2142857 L37.5833333,32.2142857 C39.4696181,32.2142857 41,30.6682876 41,28.7627551 L41,3.45153061 C41,1.54599809 39.4696181,0 37.5833333,0 Z M13.6666667,16.9700255 C13.6666667,16.4954401 14.0510417,16.1071429 14.5208333,16.1071429 L19.0763889,16.1071429 C19.5461806,16.1071429 19.9305556,16.4954401 19.9305556,16.9700255 L19.9305556,19.846301 C19.9305556,20.3208865 19.5461806,20.7091837 19.0763889,20.7091837 L14.5208333,20.7091837 C14.0510417,20.7091837 13.6666667,20.3208865 13.6666667,19.846301 L13.6666667,16.9700255 Z M11.3888889,26.7493622 C11.3888889,27.2239477 11.0045139,27.6122449 10.5347222,27.6122449 L5.40972222,27.6122449 C4.93993056,27.6122449 4.55555556,27.2239477 4.55555556,26.7493622 L4.55555556,26.1741071 C4.55555556,25.6995217 4.93993056,25.3112245 5.40972222,25.3112245 L10.5347222,25.3112245 C11.0045139,25.3112245 11.3888889,25.6995217 11.3888889,26.1741071 L11.3888889,26.7493622 Z M12.5277778,19.846301 C12.5277778,20.3208865 12.1434028,20.7091837 11.6736111,20.7091837 L5.40972222,20.7091837 C4.93993056,20.7091837 4.55555556,20.3208865 4.55555556,19.846301 L4.55555556,16.9700255 C4.55555556,16.4954401 4.93993056,16.1071429 5.40972222,16.1071429 L11.6736111,16.1071429 C12.1434028,16.1071429 12.5277778,16.4954401 12.5277778,16.9700255 L12.5277778,19.846301 Z M25.0555556,26.7493622 C25.0555556,27.2239477 24.6711806,27.6122449 24.2013889,27.6122449 L14.5208333,27.6122449 C14.0510417,27.6122449 13.6666667,27.2239477 13.6666667,26.7493622 L13.6666667,26.1741071 C13.6666667,25.6995217 14.0510417,25.3112245 14.5208333,25.3112245 L24.2013889,25.3112245 C24.6711806,25.3112245 25.0555556,25.6995217 25.0555556,26.1741071 L25.0555556,26.7493622 Z M27.3333333,19.846301 C27.3333333,20.3208865 26.9489583,20.7091837 26.4791667,20.7091837 L21.9236111,20.7091837 C21.4538194,20.7091837 21.0694444,20.3208865 21.0694444,19.846301 L21.0694444,16.9700255 C21.0694444,16.4954401 21.4538194,16.1071429 21.9236111,16.1071429 L26.4791667,16.1071429 C26.9489583,16.1071429 27.3333333,16.4954401 27.3333333,16.9700255 L27.3333333,19.846301 Z M36.4444444,19.846301 C36.4444444,20.3208865 36.0600694,20.7091837 35.5902778,20.7091837 L29.3263889,20.7091837 C28.8565972,20.7091837 28.4722222,20.3208865 28.4722222,19.846301 L28.4722222,16.9700255 C28.4722222,16.4954401 28.8565972,16.1071429 29.3263889,16.1071429 L35.5902778,16.1071429 C36.0600694,16.1071429 36.4444444,16.4954401 36.4444444,16.9700255 L36.4444444,19.846301 Z M36.4444444,9.77933673 C36.4444444,10.7356983 35.6828125,11.505102 34.7361111,11.505102 L29.0416667,11.505102 C28.0949653,11.505102 27.3333333,10.7356983 27.3333333,9.77933673 L27.3333333,6.32780612 C27.3333333,5.37144452 28.0949653,4.60204082 29.0416667,4.60204082 L34.7361111,4.60204082 C35.6828125,4.60204082 36.4444444,5.37144452 36.4444444,6.32780612 L36.4444444,9.77933673 Z" id="path-4"></path>
        <filter x="-4.9%" y="-3.1%" width="109.8%" height="112.4%" filterUnits="objectBoundingBox" id="filter-5">
            <feOffset dx="0" dy="1" in="SourceAlpha" result="shadowOffsetOuter1"></feOffset>
            <feGaussianBlur stdDeviation="0.5" in="shadowOffsetOuter1" result="shadowBlurOuter1"></feGaussianBlur>
            <feColorMatrix values="0 0 0 0 0   0 0 0 0 0   0 0 0 0 0  0 0 0 0.1 0" type="matrix" in="shadowBlurOuter1"></feColorMatrix>
        </filter>
    </defs>
    <g id="Page-1" stroke="none" stroke-width="1" fill="none" fill-rule="evenodd">
        <g id="Artboard" transform="translate(-1231.000000, -430.000000)">
            <g id="payments" transform="translate(1231.000000, 430.000000)">
                <mask id="mask-2" fill="white">
                    <use xlink:href="#path-1"></use>
                </mask>
                <use id="Path" fill="#00B356" xlink:href="#path-1"></use>
                <g id="credit-card-front" mask="url(#mask-2)" fill-rule="nonzero">
                    <g transform="translate(12.000000, 16.000000)" id="Shape">
                        <g>
                            <use fill="black" fill-opacity="1" filter="url(#filter-5)" xlink:href="#path-4"></use>
                            <use fill="url(#linearGradient-3)" xlink:href="#path-4"></use>
                        </g>
                    </g>
                </g>
            </g>
        </g>
    </g>
</svg>