<svg width="320" height="320" viewBox="0 0 320 320" fill="none" xmlns="http://www.w3.org/2000/svg">
<g clip-path="url(#clip0_1004_7239)">
<path d="M160 0C281.326 0 320 38.6737 320 160C320 281.326 281.326 320 160 320C38.6736 320 0 281.326 0 160C0 38.6737 38.6736 0 160 0Z" fill="url(#paint0_linear_1004_7239)"/>
<path d="M160 2C220.573 2 259.85 11.6833 284.083 35.9168C308.317 60.1504 318 99.4272 318 160C318 220.573 308.317 259.85 284.083 284.083C259.85 308.317 220.573 318 160 318C99.4272 318 60.1504 308.317 35.9168 284.083C11.6833 259.85 2 220.573 2 160C2 99.4272 11.6833 60.1504 35.9168 35.9168C60.1504 11.6833 99.4272 2 160 2Z" stroke="#0F172A" stroke-opacity="0.2" stroke-width="4"/>
<g clip-path="url(#clip1_1004_7239)">
<path fill-rule="evenodd" clip-rule="evenodd" d="M217.648 222.473C218.971 219.037 215.581 216.063 211.998 216.91C203.516 218.914 194.438 220 185 220C145.651 220 112.546 201.126 102.865 175.503C101.727 172.492 98.273 170.81 95.4958 172.438C79.8646 181.601 70 195.033 70 210C70 237.614 103.579 260 145 260C179.961 260 209.336 244.052 217.648 222.473Z" fill="url(#paint1_linear_1004_7239)"/>
<path fill-rule="evenodd" clip-rule="evenodd" d="M234.504 122.438C231.726 120.81 228.273 122.491 227.135 125.503C217.453 151.126 184.349 170 144.999 170C135.562 170 126.484 168.915 118.003 166.911C114.419 166.064 111.03 169.038 112.353 172.474C120.665 194.052 150.039 210 185.001 210C226.422 210 260.001 187.614 260.001 160C260.001 145.032 250.136 131.601 234.504 122.438Z" fill="url(#paint2_linear_1004_7239)"/>
<ellipse cx="145" cy="110" rx="75" ry="50" fill="url(#paint3_linear_1004_7239)"/>
</g>
</g>
<defs>
<linearGradient id="paint0_linear_1004_7239" x1="160" y1="0" x2="160" y2="320" gradientUnits="userSpaceOnUse">
<stop stop-color="#F8FAFC"/>
<stop offset="1" stop-color="#E2E8F0"/>
</linearGradient>
<linearGradient id="paint1_linear_1004_7239" x1="70" y1="260" x2="218" y2="172" gradientUnits="userSpaceOnUse">
<stop stop-color="#F87171"/>
<stop offset="1" stop-color="#DC2626"/>
</linearGradient>
<linearGradient id="paint2_linear_1004_7239" x1="112.061" y1="210" x2="264.653" y2="130.672" gradientUnits="userSpaceOnUse">
<stop stop-color="#FB923C"/>
<stop offset="1" stop-color="#EA580C"/>
</linearGradient>
<linearGradient id="paint3_linear_1004_7239" x1="70" y1="160" x2="220" y2="60" gradientUnits="userSpaceOnUse">
<stop stop-color="#FACC15"/>
<stop offset="1" stop-color="#CA8A04"/>
</linearGradient>
<clipPath id="clip0_1004_7239">
<rect width="320" height="320" fill="white"/>
</clipPath>
<clipPath id="clip1_1004_7239">
<rect width="240" height="240" fill="white" transform="translate(40 40)"/>
</clipPath>
</defs>
</svg>
