<?xml version="1.0" encoding="UTF-8"?>
<svg width="606px" height="606px" viewBox="0 0 606 606" version="1.1" xmlns="http://www.w3.org/2000/svg" xmlns:xlink="http://www.w3.org/1999/xlink">
    <!-- Generator: Sketch 40.2 (33826) - http://www.bohemiancoding.com/sketch -->
    <title>card</title>
    <desc>Created with Sketch.</desc>
    <defs>
        <linearGradient x1="50%" y1="0%" x2="50%" y2="100%" id="linearGradient-1">
            <stop stop-color="#FFFFFF" stop-opacity="0.2" offset="0%"></stop>
            <stop stop-color="#000000" stop-opacity="0.2" offset="100%"></stop>
        </linearGradient>
        <path d="M552.268958,552.268958 C600,504.537813 600,431.458333 600,300 C600,168.541667 600,95.4621875 552.268958,47.7310417 C504.537813,0 431.458333,0 300,0 C168.541667,0 95.4621875,0 47.7310417,47.7310417 C0,95.4621875 0,168.541667 0,300 C0,431.458333 0,504.537813 47.7310417,552.268958 C95.4621875,600 168.541667,600 300,600 C431.458333,600 504.537813,600 552.268958,552.268958 Z" id="path-2"></path>
    </defs>
    <g id="Page-1" stroke="none" stroke-width="1" fill="none" fill-rule="evenodd">
        <g id="card" transform="translate(3.000000, 3.000000)">
            <g id="Squircle2-Copy-6">
                <g id="Shape">
                    <use fill="#1DB291" xlink:href="#path-2"></use>
                    <use stroke="#000000" stroke-width="4.04" fill="url(#linearGradient-1)" xlink:href="#path-2"></use>
                </g>
            </g>
            <g id="Layer_1" transform="translate(100.000000, 157.000000)" fill="#FFFFFF" opacity="0.9">
                <g id="Group">
                    <path d="M375,-2.84217094e-14 L25,-2.84217094e-14 C11.1607143,-2.84217094e-14 0.0892857143,11.1607143 0,25 L0,25 L0,25.2678571 L0,260.446429 L0,260.714286 L0,260.714286 C0.178571429,274.553571 11.1607143,285.714286 25,285.714286 L375,285.714286 C388.928571,285.714286 400,274.375 400,260.446429 L400,260.446429 L400,25.2678571 L400,25.2678571 C400,11.3392857 388.928571,-2.84217094e-14 375,-2.84217094e-14 L375,-2.84217094e-14 Z M40.2678571,28.5714286 L359.642857,28.5714286 C365.803571,28.5714286 370.446429,33.125 371.339286,39.2857143 L371.339286,57.1428571 L28.5714286,57.1428571 L28.5714286,39.0178571 C29.4642857,32.9464286 34.1964286,28.5714286 40.2678571,28.5714286 L40.2678571,28.5714286 Z M359.732143,257.142857 L40.2678571,257.142857 C34.1071429,257.142857 29.4642857,252.767857 28.5714286,246.696429 L28.5714286,142.857143 L371.428571,142.857143 L371.428571,246.428571 C370.535714,252.589286 365.803571,257.142857 359.732143,257.142857 L359.732143,257.142857 Z" id="Shape"></path>
                    <rect id="Rectangle-path" x="57.1428571" y="185.714286" width="171.428571" height="14.2857143"></rect>
                    <rect id="Rectangle-path" x="57.1428571" y="214.285714" width="85.7142857" height="14.2857143"></rect>
                    <rect id="Rectangle-path" x="285.714286" y="185.714286" width="57.1428571" height="42.8571429"></rect>
                </g>
            </g>
        </g>
    </g>
</svg>