<?xml version="1.0" encoding="UTF-8"?>
<svg width="600px" height="600px" viewBox="0 0 600 600" version="1.1" xmlns="http://www.w3.org/2000/svg" xmlns:xlink="http://www.w3.org/1999/xlink">
    <!-- Generator: Sketch 40.3 (33839) - http://www.bohemiancoding.com/sketch -->
    <title>Group 2 Copy 6</title>
    <desc>Created with Sketch.</desc>
    <defs>
        <linearGradient x1="50%" y1="0%" x2="50%" y2="100%" id="linearGradient-1">
            <stop stop-color="#FFFFFF" stop-opacity="0.2" offset="0%"></stop>
            <stop stop-color="#000000" stop-opacity="0.138870018" offset="100%"></stop>
        </linearGradient>
        <path d="M316.428571,199.375 C316.428571,182.589286 324.732143,188.75 330,156.785714 C332.053571,144.196429 333.75,152.589286 338.125,132.410714 C340.446429,121.875 336.517857,121.071429 337.053571,116.071429 C337.5,111.071429 337.946429,106.517857 338.839286,96.25 C339.910714,83.3928571 328.482143,49.8214286 287.589286,49.8214286 C246.696429,49.8214286 235.267857,83.3928571 236.339286,96.25 C237.142857,106.607143 237.678571,111.071429 238.125,116.071429 C238.571429,121.071429 234.732143,121.875 237.053571,132.410714 C241.428571,152.589286 243.125,144.107143 245.178571,156.785714 C250.446429,188.75 258.660714,182.678571 258.660714,199.375 C258.660714,211.339286 261.428571,216.339286 245.357143,223.928571 C250.178571,225.625 255.803571,227.678571 262.589286,230.267857 C311.160714,248.75 310,266.696429 311.25,275.178571 C312.142857,280.982143 312.589286,327.232143 312.767857,343.75 L395,343.75 C396.74423,343.75 400,341.452044 399.992344,337.629929 C399.957181,320.076271 399.760528,270.374307 398.660714,263.482143 C397.678571,256.875 388.839286,248.125 351.160714,233.75 C314.196429,219.732143 316.428571,225.357143 316.428571,199.375 Z" id="path-2"></path>
        <filter x="-50%" y="-50%" width="200%" height="200%" filterUnits="objectBoundingBox" id="filter-3">
            <feMorphology radius="1" operator="dilate" in="SourceAlpha" result="shadowSpreadOuter1"></feMorphology>
            <feOffset dx="0" dy="2" in="shadowSpreadOuter1" result="shadowOffsetOuter1"></feOffset>
            <feColorMatrix values="0 0 0 0 0   0 0 0 0 0   0 0 0 0 0  0 0 0 0.2 0" type="matrix" in="shadowOffsetOuter1"></feColorMatrix>
        </filter>
        <linearGradient x1="50%" y1="0%" x2="50%" y2="100%" id="linearGradient-4">
            <stop stop-color="#FFFFFF" offset="0%"></stop>
            <stop stop-color="#F6F6F6" offset="35.2427758%"></stop>
            <stop stop-color="#E5E5E5" offset="100%"></stop>
        </linearGradient>
        <path d="M290,316.607143 C289.821429,300 289.375,280.892857 288.482143,275.178571 C287.142857,266.696429 275.714286,255.357143 227.232143,236.875 C220.535714,234.375 214.910714,232.321429 210,230.535714 C180.267857,220 182.410714,216.517857 182.410714,187.678571 C182.410714,165.982143 193.125,180.089286 199.910714,138.928571 C202.589286,122.678571 204.732143,133.482143 210.357143,107.5 C213.392857,93.9285714 208.303571,92.8571429 208.928571,86.3392857 C209.553571,79.8214286 210.178571,74.0178571 211.25,60.7142857 C212.678571,44.1964286 197.946429,0.803571429 145.089286,0.803571429 C92.2321429,0.803571429 77.5892857,44.1071429 78.9285714,60.7142857 C80,74.0178571 80.625,79.8214286 81.3392857,86.3392857 C81.9642857,92.8571429 76.875,93.8392857 79.9107143,107.5 C85.625,133.482143 87.7678571,122.678571 90.4464286,138.928571 C97.2321429,180.089286 107.857143,165.982143 107.857143,187.678571 C107.857143,221.25 110.803571,218.75 63.0357143,236.875 C14.5535714,255.357143 3.125,266.696429 1.78571429,275.178571 C0.430922983,283.375059 0.103988986,318.604193 0.0250942966,335.129649 C1.11480269e-13,340.385956 4.79024368,343.75 7,343.75 L145.089286,343.75 L290.178571,343.75 C290.178571,343.75 290.178571,331.160714 290,316.607143 Z" id="path-5"></path>
        <filter x="-50%" y="-50%" width="200%" height="200%" filterUnits="objectBoundingBox" id="filter-6">
            <feMorphology radius="1" operator="dilate" in="SourceAlpha" result="shadowSpreadOuter1"></feMorphology>
            <feOffset dx="0" dy="2" in="shadowSpreadOuter1" result="shadowOffsetOuter1"></feOffset>
            <feColorMatrix values="0 0 0 0 0   0 0 0 0 0   0 0 0 0 0  0 0 0 0.08 0" type="matrix" in="shadowOffsetOuter1"></feColorMatrix>
        </filter>
    </defs>
    <g id="Page-1" stroke="none" stroke-width="1" fill="none" fill-rule="evenodd">
        <g id="Group-2-Copy-6">
            <path d="M552.268958,552.268958 C600,504.537813 600,431.458333 600,300 C600,168.541667 600,95.4621875 552.268958,47.7310417 C504.537813,0 431.458333,0 300,0 C168.541667,0 95.4621875,0 47.7310417,47.7310417 C0,95.4621875 0,168.541667 0,300 C0,431.458333 0,504.537813 47.7310417,552.268958 C95.4621875,600 168.541667,600 300,600 C431.458333,600 504.537813,600 552.268958,552.268958 L552.268958,552.268958 Z" id="path" fill="#F6A623"></path>
            <path d="M552.268958,552.268958 C600,504.537813 600,431.458333 600,300 C600,168.541667 600,95.4621875 552.268958,47.7310417 C504.537813,0 431.458333,0 300,0 C168.541667,0 95.4621875,0 47.7310417,47.7310417 C0,95.4621875 0,168.541667 0,300 C0,431.458333 0,504.537813 47.7310417,552.268958 C95.4621875,600 168.541667,600 300,600 C431.458333,600 504.537813,600 552.268958,552.268958 L552.268958,552.268958 Z" id="path-copy" fill="url(#linearGradient-1)"></path>
            <g id="person-stalker" transform="translate(100.000000, 124.000000)">
                <g id="Layer_1">
                    <g id="Group">
                        <g id="Shape" opacity="0.496773098">
                            <use fill="black" fill-opacity="1" filter="url(#filter-3)" xlink:href="#path-2"></use>
                            <use fill="#FFFFFF" fill-rule="evenodd" xlink:href="#path-2"></use>
                        </g>
                        <g id="Shape">
                            <use fill="black" fill-opacity="1" filter="url(#filter-6)" xlink:href="#path-5"></use>
                            <use fill="url(#linearGradient-4)" fill-rule="evenodd" xlink:href="#path-5"></use>
                        </g>
                    </g>
                </g>
            </g>
        </g>
    </g>
</svg>