<?xml version="1.0" encoding="UTF-8"?>
<svg width="606px" height="606px" viewBox="0 0 606 606" version="1.1" xmlns="http://www.w3.org/2000/svg" xmlns:xlink="http://www.w3.org/1999/xlink">
    <!-- Generator: Sketch 40.2 (33826) - http://www.bohemiancoding.com/sketch -->
    <title>Azure</title>
    <desc>Created with Sketch.</desc>
    <defs>
        <linearGradient x1="50%" y1="0%" x2="50%" y2="100%" id="linearGradient-1">
            <stop stop-color="#FFFFFF" stop-opacity="0.2" offset="0%"></stop>
            <stop stop-color="#000000" stop-opacity="0.2" offset="100%"></stop>
        </linearGradient>
        <path d="M552.268958,552.268958 C600,504.537813 600,431.458333 600,300 C600,168.541667 600,95.4621875 552.268958,47.7310417 C504.537813,0 431.458333,0 300,0 C168.541667,0 95.4621875,0 47.7310417,47.7310417 C0,95.4621875 0,168.541667 0,300 C0,431.458333 0,504.537813 47.7310417,552.268958 C95.4621875,600 168.541667,600 300,600 C431.458333,600 504.537813,600 552.268958,552.268958 Z" id="path-2"></path>
        <path d="M385.455827,163.35 L362.781955,163.35 L288.411654,163.35 L199.530075,163.35 L199.530075,240.4875 L306.550752,240.4875 C296.574248,289.4925 254.854323,317.625 199.530075,317.625 C134.229323,317.625 81.6259398,264.99 81.6259398,199.65 C81.6259398,134.31 134.229323,81.675 199.530075,81.675 C227.645677,81.675 253.040414,91.6575 272.993421,107.9925 L331.038534,49.9125 C295.667293,19.0575 250.319549,0 199.530075,0 C88.8815789,0 0,88.935 0,199.65 C0,310.365 88.8815789,399.3 199.530075,399.3 C299.295113,399.3 389.990602,326.7 389.990602,199.65 C389.990602,187.8525 388.176692,175.1475 385.455827,163.35 L385.455827,163.35 Z" id="path-3"></path>
        <path d="M385.455827,163.35 L362.781955,163.35 L288.411654,163.35 L199.530075,163.35 L199.530075,240.4875 L306.550752,240.4875 C296.574248,289.4925 254.854323,317.625 199.530075,317.625 C134.229323,317.625 81.6259398,264.99 81.6259398,199.65 C81.6259398,134.31 134.229323,81.675 199.530075,81.675 C227.645677,81.675 253.040414,91.6575 272.993421,107.9925 L331.038534,49.9125 C295.667293,19.0575 250.319549,0 199.530075,0 C88.8815789,0 0,88.935 0,199.65 C0,310.365 88.8815789,399.3 199.530075,399.3 C299.295113,399.3 389.990602,326.7 389.990602,199.65 C389.990602,187.8525 388.176692,175.1475 385.455827,163.35 L385.455827,163.35 Z" id="path-5"></path>
        <path d="M385.455827,163.35 L362.781955,163.35 L288.411654,163.35 L199.530075,163.35 L199.530075,240.4875 L306.550752,240.4875 C296.574248,289.4925 254.854323,317.625 199.530075,317.625 C134.229323,317.625 81.6259398,264.99 81.6259398,199.65 C81.6259398,134.31 134.229323,81.675 199.530075,81.675 C227.645677,81.675 253.040414,91.6575 272.993421,107.9925 L331.038534,49.9125 C295.667293,19.0575 250.319549,0 199.530075,0 C88.8815789,0 0,88.935 0,199.65 C0,310.365 88.8815789,399.3 199.530075,399.3 C299.295113,399.3 389.990602,326.7 389.990602,199.65 C389.990602,187.8525 388.176692,175.1475 385.455827,163.35 L385.455827,163.35 Z" id="path-7"></path>
        <path d="M385.455827,163.35 L362.781955,163.35 L288.411654,163.35 L199.530075,163.35 L199.530075,240.4875 L306.550752,240.4875 C296.574248,289.4925 254.854323,317.625 199.530075,317.625 C134.229323,317.625 81.6259398,264.99 81.6259398,199.65 C81.6259398,134.31 134.229323,81.675 199.530075,81.675 C227.645677,81.675 253.040414,91.6575 272.993421,107.9925 L331.038534,49.9125 C295.667293,19.0575 250.319549,0 199.530075,0 C88.8815789,0 0,88.935 0,199.65 C0,310.365 88.8815789,399.3 199.530075,399.3 C299.295113,399.3 389.990602,326.7 389.990602,199.65 C389.990602,187.8525 388.176692,175.1475 385.455827,163.35 L385.455827,163.35 Z" id="path-9"></path>
    </defs>
    <g id="Page-1" stroke="none" stroke-width="1" fill="none" fill-rule="evenodd">
        <g id="google" transform="translate(3.000000, 3.000000)">
            <g id="Squircle2-Copy-6">
                <g id="Shape">
                    <use fill="#FFFFFF" xlink:href="#path-2"></use>
                    <use stroke="#000000" stroke-width="4.04" fill="url(#linearGradient-1)" xlink:href="#path-2"></use>
                </g>
            </g>

<!-- FIGURE [START] -->
<g transform="translate(60,50)">
<g transform="scale(5.0, 5.0)">
    <defs>
        <linearGradient id="e399c19f-b68f-429d-b176-18c2117ff73c" x1="-1032.172" x2="-1059.213" y1="145.312" y2="65.426" gradientTransform="matrix(1 0 0 -1 1075 158)" gradientUnits="userSpaceOnUse">
            <stop offset="0" stop-color="#114a8b"/>
            <stop offset="1" stop-color="#0669bc"/>
        </linearGradient>
        <linearGradient id="ac2a6fc2-ca48-4327-9a3c-d4dcc3256e15" x1="-1023.725" x2="-1029.98" y1="108.083" y2="105.968" gradientTransform="matrix(1 0 0 -1 1075 158)" gradientUnits="userSpaceOnUse">
            <stop offset="0" stop-opacity=".3"/>
            <stop offset=".071" stop-opacity=".2"/>
            <stop offset=".321" stop-opacity=".1"/>
            <stop offset=".623" stop-opacity=".05"/>
            <stop offset="1" stop-opacity="0"/>
        </linearGradient>
        <linearGradient id="a7fee970-a784-4bb1-af8d-63d18e5f7db9" x1="-1027.165" x2="-997.482" y1="147.642" y2="68.561" gradientTransform="matrix(1 0 0 -1 1075 158)" gradientUnits="userSpaceOnUse">
            <stop offset="0" stop-color="#3ccbf4"/>
            <stop offset="1" stop-color="#2892df"/>
        </linearGradient>
    </defs>
    <path fill="url(#e399c19f-b68f-429d-b176-18c2117ff73c)" d="M33.338 6.544h26.038l-27.03 80.087a4.152 4.152 0 0 1-3.933 2.824H8.149a4.145 4.145 0 0 1-3.928-5.47L29.404 9.368a4.152 4.152 0 0 1 3.934-2.825z"/>
    <path fill="#0078d4" d="M71.175 60.261h-41.29a1.911 1.911 0 0 0-1.305 3.309l26.532 24.764a4.171 4.171 0 0 0 2.846 1.121h23.38z"/>
    <path fill="url(#ac2a6fc2-ca48-4327-9a3c-d4dcc3256e15)" d="M33.338 6.544a4.118 4.118 0 0 0-3.943 2.879L4.252 83.917a4.14 4.14 0 0 0 3.908 5.538h20.787a4.443 4.443 0 0 0 3.41-2.9l5.014-14.777 17.91 16.705a4.237 4.237 0 0 0 2.666.972H81.24L71.024 60.261l-29.781.007L59.47 6.544z"/>
    <path fill="url(#a7fee970-a784-4bb1-af8d-63d18e5f7db9)" d="M66.595 9.364a4.145 4.145 0 0 0-3.928-2.82H33.648a4.146 4.146 0 0 1 3.928 2.82l25.184 74.62a4.146 4.146 0 0 1-3.928 5.472h29.02a4.146 4.146 0 0 0 3.927-5.472z"/>
</g>
</g>

<!-- FIGURE [ END ] -->

        </g>
    </g>
</svg>
