<?xml version="1.0" encoding="UTF-8"?>
<svg width="64px" height="64px" viewBox="0 0 64 64" version="1.1" xmlns="http://www.w3.org/2000/svg" xmlns:xlink="http://www.w3.org/1999/xlink">
    <!-- Generator: Sketch 54.1 (76490) - https://sketchapp.com -->
    <title>accounts</title>
    <desc>Created with Sketch.</desc>
    <defs>
        <path d="M32,64 C46.0222222,64 53.8173667,64 58.9086889,58.9086889 C64,53.8173667 64,46.0222222 64,32 C64,17.9777778 64,10.1826333 58.9086889,5.09131111 C53.8173667,0 46.0222222,0 32,0 C17.9777778,0 10.1826333,0 5.09131111,5.09131111 C0,10.1826333 0,17.9777778 0,32 C0,46.0222222 0,53.8173667 5.09131111,58.9086889 C10.1826333,64 17.9777778,64 32,64 Z" id="path-1"></path>
        <linearGradient x1="50%" y1="0%" x2="50%" y2="100%" id="linearGradient-3">
            <stop stop-color="#FDFEFF" offset="0%"></stop>
            <stop stop-color="#FBFCFD" stop-opacity="0.9" offset="100%"></stop>
        </linearGradient>
        <path d="M20,0 C8.94685484,0 0,8.94508065 0,20 C0,31.0531452 8.94508065,40 20,40 C23.8833871,40 27.688871,38.8596774 30.92,36.7562097 C31.8881452,36.1259677 32.0994355,34.7975 31.3677419,33.903629 L30.5470161,32.9009677 C29.9283871,32.1452419 28.8390323,31.9600806 28.0169355,32.4873387 C25.6387097,34.0126613 22.8479032,34.8387097 20,34.8387097 C11.8179032,34.8387097 5.16129032,28.1820968 5.16129032,20 C5.16129032,11.8179032 11.8179032,5.16129032 20,5.16129032 C28.0757258,5.16129032 34.8387097,9.80798387 34.8387097,18.0645161 C34.8387097,21.1924194 33.1376613,24.4953226 30.1475806,24.8139516 C28.7484677,24.7773387 28.783871,23.7770968 29.0608065,22.3926613 L30.9505645,12.6257258 C31.1816935,11.4314516 30.2667742,10.3225806 29.0504032,10.3225806 L25.4229032,10.3225806 C24.8684009,10.3225685 24.4022322,10.7387955 24.3396774,11.2897581 L24.338871,11.2971774 C23.153629,9.85354839 21.0769355,9.54112903 19.5025,9.54112903 C13.4879839,9.54112903 8.38709677,14.56 8.38709677,21.7556452 C8.38709677,27.0220161 11.353629,30.2935484 16.1290323,30.2935484 C18.3051613,30.2935484 20.7555645,29.0325 22.1766935,27.2021774 C22.9445968,29.9525 25.4519355,29.9524194 27.8791129,29.9524194 C36.6620161,29.9524194 40,24.1772581 40,18.0645161 C40,7.06879032 31.1308871,0 20,0 Z M18.2516129,24.5508065 C16.4573387,24.5508065 15.3427419,23.2908871 15.3427419,21.2628226 C15.3427419,17.6343548 17.8249194,15.3975806 20.0709677,15.3975806 C21.8687097,15.3975806 22.9420161,16.6266935 22.9420161,18.6854839 C22.9420161,22.3194355 20.2101613,24.5508065 18.2516129,24.5508065 Z" id="path-4"></path>
        <filter x="-5.0%" y="-2.5%" width="110.0%" height="110.0%" filterUnits="objectBoundingBox" id="filter-5">
            <feOffset dx="0" dy="1" in="SourceAlpha" result="shadowOffsetOuter1"></feOffset>
            <feGaussianBlur stdDeviation="0.5" in="shadowOffsetOuter1" result="shadowBlurOuter1"></feGaussianBlur>
            <feColorMatrix values="0 0 0 0 0   0 0 0 0 0   0 0 0 0 0  0 0 0 0.1 0" type="matrix" in="shadowBlurOuter1"></feColorMatrix>
        </filter>
    </defs>
    <g id="Page-1" stroke="none" stroke-width="1" fill="none" fill-rule="evenodd">
        <g id="accounts">
            <mask id="mask-2" fill="white">
                <use xlink:href="#path-1"></use>
            </mask>
            <use id="Path" fill="#FF3B38" xlink:href="#path-1"></use>
            <g id="at" mask="url(#mask-2)" fill-rule="nonzero">
                <g transform="translate(12.000000, 12.000000)" id="Shape">
                    <g>
                        <use fill="black" fill-opacity="1" filter="url(#filter-5)" xlink:href="#path-4"></use>
                        <use fill="url(#linearGradient-3)" xlink:href="#path-4"></use>
                    </g>
                </g>
            </g>
        </g>
    </g>
</svg>