<svg width="48" height="48" viewBox="0 0 48 48" fill="none" xmlns="http://www.w3.org/2000/svg">
<rect width="48" height="48" fill="url(#paint0_linear_221_2535)"/>
<path d="M10.4502 21.2441V28.7468C10.4502 32.9909 10.4502 35.113 11.7682 36.4315C13.0862 37.7501 15.2076 37.7501 19.4502 37.7501H28.4502C32.6928 37.7501 34.8141 37.7501 36.1321 36.4315C37.4502 35.113 37.4502 32.9909 37.4502 28.7468V21.2441" stroke="white" stroke-width="2.25" stroke-linecap="round"/>
<path d="M28.4502 30.9898C27.424 31.9006 25.7904 32.4898 23.9502 32.4898C22.11 32.4898 20.4763 31.9006 19.4502 30.9898" stroke="white" stroke-width="2.25" stroke-linecap="round"/>
<path d="M21.1557 18.1277C20.7327 19.6553 19.1944 22.2904 16.2717 22.6723C13.691 23.0095 11.7337 21.883 11.2337 21.412C10.6825 21.0301 9.42624 19.8081 9.11859 19.0443C8.81092 18.2805 9.16986 16.6256 9.42624 15.9509L10.4511 12.9833C10.7013 12.2379 11.287 10.475 11.8875 9.87869C12.488 9.2824 13.7037 9.25645 14.2041 9.25645H24.7123C27.4171 9.29467 33.3313 9.23233 34.5004 9.25646C35.6695 9.28058 36.3721 10.2606 36.5772 10.6807C38.3215 14.9059 39 17.3257 39 18.3569C38.7723 19.4568 37.83 21.5309 34.5004 22.4432C31.0399 23.3912 29.0781 21.5471 28.4626 20.8391M19.7328 20.8391C20.22 21.4375 21.748 22.6418 23.9631 22.6723C26.1783 22.7029 28.0909 21.1574 28.7703 20.3809C28.9626 20.1518 29.3779 19.472 29.8087 18.1277" stroke="white" stroke-width="2.25" stroke-linecap="round" stroke-linejoin="round"/>
<defs>
<linearGradient id="paint0_linear_221_2535" x1="24" y1="0" x2="24" y2="48" gradientUnits="userSpaceOnUse">
<stop stop-color="#0D9488"/>
<stop offset="1" stop-color="#0F766E"/>
</linearGradient>
</defs>
</svg>
