<?xml version="1.0" encoding="utf-8"?>
<!-- Generator: Adobe Illustrator 20.1.0, SVG Export Plug-In . SVG Version: 6.00 Build 0)  -->
<svg version="1.1" id="Слой_1" xmlns="http://www.w3.org/2000/svg" xmlns:xlink="http://www.w3.org/1999/xlink" x="0px" y="0px"
	 viewBox="0 0 600 600" style="enable-background:new 0 0 600 600;" xml:space="preserve">
<style type="text/css">
	.st0{fill:#2BAF92;}
	.st1{fill:url(#path-copy_1_);}
	.st2{fill:#FFFFFF;}
</style>
<g id="Слой_1_1_">
	<title>Group 2 Copy 4</title>
	<desc>Created with Sketch.</desc>
	<g id="Page-1">
		<g id="Group-2-Copy-4">
			<path id="path" class="st0" d="M552.3,552.3C600,504.5,600,431.5,600,300s0-204.5-47.7-252.3C504.5,0,431.5,0,300,0
				S95.5,0,47.7,47.7C0,95.5,0,168.5,0,300s0,204.5,47.7,252.3C95.5,600,168.5,600,300,600S504.5,600,552.3,552.3L552.3,552.3z"/>
			
				<linearGradient id="path-copy_1_" gradientUnits="userSpaceOnUse" x1="471.7133" y1="-0.7867" x2="471.7133" y2="0.2133" gradientTransform="matrix(600 0 0 600 -282728 472)">
				<stop  offset="0" style="stop-color:#FFFFFF;stop-opacity:0.2"/>
				<stop  offset="1" style="stop-color:#000000;stop-opacity:0.1389"/>
			</linearGradient>
			<path id="path-copy" class="st1" d="M552.3,552.3C600,504.5,600,431.5,600,300s0-204.5-47.7-252.3C504.5,0,431.5,0,300,0
				S95.5,0,47.7,47.7C0,95.5,0,168.5,0,300s0,204.5,47.7,252.3C95.5,600,168.5,600,300,600S504.5,600,552.3,552.3L552.3,552.3z"/>
		</g>
	</g>
</g>
<g id="Слой_2">
	<g>
		<path class="st2" d="M485.6,140.4c-6.4-6.4-14-9.5-23-9.5H137.4c-8.9,0-16.6,3.2-23,9.5c-6.4,6.4-9.5,14-9.5,23v273.1
			c0,8.9,3.2,16.6,9.5,23c6.4,6.4,14,9.5,23,9.5h325.2c8.9,0,16.6-3.2,23-9.5c6.4-6.4,9.5-14,9.5-23V163.3
			C495.1,154.4,492,146.8,485.6,140.4z M183,430c0,3.5-1.3,6.6-3.9,9.2c-2.6,2.6-5.7,3.9-9.2,3.9h-26c-3.5,0-6.6-1.3-9.2-3.9
			c-2.6-2.6-3.9-5.7-3.9-9.2v-26c0-3.5,1.3-6.6,3.9-9.2c2.6-2.6,5.7-3.9,9.2-3.9h26c3.5,0,6.6,1.3,9.2,3.9c2.6,2.6,3.9,5.7,3.9,9.2
			V430z M183,352c0,3.5-1.3,6.6-3.9,9.2c-2.6,2.6-5.7,3.9-9.2,3.9h-26c-3.5,0-6.6-1.3-9.2-3.9c-2.6-2.6-3.9-5.7-3.9-9.2v-26
			c0-3.5,1.3-6.6,3.9-9.2s5.7-3.9,9.2-3.9h26c3.5,0,6.6,1.3,9.2,3.9c2.6,2.6,3.9,5.7,3.9,9.2V352z M183,274c0,3.5-1.3,6.6-3.9,9.2
			c-2.6,2.6-5.7,3.9-9.2,3.9h-26c-3.5,0-6.6-1.3-9.2-3.9c-2.6-2.6-3.9-5.7-3.9-9.2v-26c0-3.5,1.3-6.6,3.9-9.2
			c2.6-2.6,5.7-3.9,9.2-3.9h26c3.5,0,6.6,1.3,9.2,3.9c2.6,2.6,3.9,5.7,3.9,9.2V274z M183,195.9c0,3.5-1.3,6.6-3.9,9.2
			c-2.6,2.6-5.7,3.9-9.2,3.9h-26c-3.5,0-6.6-1.3-9.2-3.9s-3.9-5.7-3.9-9.2v-26c0-3.5,1.3-6.6,3.9-9.2s5.7-3.9,9.2-3.9h26
			c3.5,0,6.6,1.3,9.2,3.9c2.6,2.6,3.9,5.7,3.9,9.2V195.9z M391,430c0,3.5-1.3,6.6-3.9,9.2c-2.6,2.6-5.7,3.9-9.2,3.9H221.9
			c-3.5,0-6.6-1.3-9.2-3.9c-2.6-2.6-3.9-5.7-3.9-9.2V326c0-3.5,1.3-6.6,3.9-9.2c2.6-2.6,5.7-3.9,9.2-3.9h156.2
			c3.5,0,6.6,1.3,9.2,3.9c2.6,2.6,3.9,5.7,3.9,9.2L391,430L391,430z M391,274c0,3.5-1.3,6.6-3.9,9.2c-2.6,2.6-5.7,3.9-9.2,3.9H221.9
			c-3.5,0-6.6-1.3-9.2-3.9c-2.6-2.6-3.9-5.7-3.9-9.2V169.9c0-3.5,1.3-6.6,3.9-9.2c2.6-2.6,5.7-3.9,9.2-3.9h156.2
			c3.5,0,6.6,1.3,9.2,3.9c2.6,2.6,3.9,5.7,3.9,9.2L391,274L391,274z M469.1,430c0,3.5-1.3,6.6-3.9,9.2c-2.6,2.6-5.7,3.9-9.2,3.9h-26
			c-3.5,0-6.6-1.3-9.2-3.9c-2.6-2.6-3.9-5.7-3.9-9.2v-26c0-3.5,1.3-6.6,3.9-9.2c2.6-2.6,5.7-3.9,9.2-3.9h26c3.5,0,6.6,1.3,9.2,3.9
			c2.6,2.6,3.9,5.7,3.9,9.2V430L469.1,430z M469.1,352c0,3.5-1.3,6.6-3.9,9.2c-2.6,2.6-5.7,3.9-9.2,3.9h-26c-3.5,0-6.6-1.3-9.2-3.9
			c-2.6-2.6-3.9-5.7-3.9-9.2v-26c0-3.5,1.3-6.6,3.9-9.2c2.6-2.6,5.7-3.9,9.2-3.9h26c3.5,0,6.6,1.3,9.2,3.9c2.6,2.6,3.9,5.7,3.9,9.2
			V352L469.1,352z M469.1,274c0,3.5-1.3,6.6-3.9,9.2c-2.6,2.6-5.7,3.9-9.2,3.9h-26c-3.5,0-6.6-1.3-9.2-3.9c-2.6-2.6-3.9-5.7-3.9-9.2
			v-26c0-3.5,1.3-6.6,3.9-9.2c2.6-2.6,5.7-3.9,9.2-3.9h26c3.5,0,6.6,1.3,9.2,3.9c2.6,2.6,3.9,5.7,3.9,9.2V274L469.1,274z
			 M469.1,195.9c0,3.5-1.3,6.6-3.9,9.2c-2.6,2.6-5.7,3.9-9.2,3.9h-26c-3.5,0-6.6-1.3-9.2-3.9c-2.6-2.6-3.9-5.7-3.9-9.2v-26
			c0-3.5,1.3-6.6,3.9-9.2c2.6-2.6,5.7-3.9,9.2-3.9h26c3.5,0,6.6,1.3,9.2,3.9c2.6,2.6,3.9,5.7,3.9,9.2V195.9L469.1,195.9z"/>
	</g>
</g>
</svg>
