<?xml version="1.0" encoding="UTF-8"?>
<svg width="64px" height="64px" viewBox="0 0 64 64" version="1.1" xmlns="http://www.w3.org/2000/svg" xmlns:xlink="http://www.w3.org/1999/xlink">
    <!-- Generator: Sketch 55 (78076) - https://sketchapp.com -->
    <title>videos</title>
    <desc>Created with Sketch.</desc>
    <defs>
        <path d="M32,64 C46.0222222,64 53.8173667,64 58.9086889,58.9086889 C64,53.8173667 64,46.0222222 64,32 C64,17.9777778 64,10.1826333 58.9086889,5.09131111 C53.8173667,0 46.0222222,0 32,0 C17.9777778,0 10.1826333,0 5.09131111,5.09131111 C0,10.1826333 0,17.9777778 0,32 C0,46.0222222 0,53.8173667 5.09131111,58.9086889 C10.1826333,64 17.9777778,64 32,64 Z" id="path-1"></path>
        <linearGradient x1="50%" y1="0%" x2="50%" y2="100%" id="linearGradient-3">
            <stop stop-color="#FDFEFF" offset="0%"></stop>
            <stop stop-color="#FBFCFD" stop-opacity="0.9" offset="100%"></stop>
        </linearGradient>
        <path d="M24.5145833,0 L3.48541667,0 C1.56041667,0 0,1.56041667 0,3.48541667 L0,24.5145833 C0,26.4395833 1.56041667,28 3.48541667,28 L24.5145833,28 C26.4395833,28 28,26.4395833 28,24.5145833 L28,3.48541667 C28,1.56041667 26.4395833,0 24.5145833,0 Z M38.325,2.74895833 L30.3333333,8.26145833 L30.3333333,19.7385417 L38.325,25.24375 C39.8708333,26.3083333 42,25.221875 42,23.3625 L42,4.63020833 C42,2.778125 39.878125,1.684375 38.325,2.74895833 Z" id="path-4"></path>
        <filter x="-4.8%" y="-3.6%" width="109.5%" height="114.3%" filterUnits="objectBoundingBox" id="filter-5">
            <feOffset dx="0" dy="1" in="SourceAlpha" result="shadowOffsetOuter1"></feOffset>
            <feGaussianBlur stdDeviation="0.5" in="shadowOffsetOuter1" result="shadowBlurOuter1"></feGaussianBlur>
            <feColorMatrix values="0 0 0 0 0   0 0 0 0 0   0 0 0 0 0  0 0 0 0.1 0" type="matrix" in="shadowBlurOuter1"></feColorMatrix>
        </filter>
    </defs>
    <g id="Page-1" stroke="none" stroke-width="1" fill="none" fill-rule="evenodd">
        <g id="Artboard" transform="translate(-1474.000000, -430.000000)">
            <g id="videos" transform="translate(1474.000000, 430.000000)">
                <mask id="mask-2" fill="white">
                    <use xlink:href="#path-1"></use>
                </mask>
                <use id="Path" fill="#00B356" xlink:href="#path-1"></use>
                <g id="video" mask="url(#mask-2)" fill-rule="nonzero">
                    <g transform="translate(12.000000, 18.000000)" id="Shape">
                        <g>
                            <use fill="black" fill-opacity="1" filter="url(#filter-5)" xlink:href="#path-4"></use>
                            <use fill="url(#linearGradient-3)" xlink:href="#path-4"></use>
                        </g>
                    </g>
                </g>
            </g>
        </g>
    </g>
</svg>