<svg width="320" height="320" viewBox="0 0 320 320" fill="none" xmlns="http://www.w3.org/2000/svg">
<g clip-path="url(#clip0_1016_7375)">
<path d="M160 0C281.326 0 320 38.6737 320 160C320 281.326 281.326 320 160 320C38.6736 320 0 281.326 0 160C0 38.6737 38.6736 0 160 0Z" fill="url(#paint0_linear_1016_7375)"/>
<path d="M160 2C220.573 2 259.85 11.6833 284.083 35.9168C308.317 60.1504 318 99.4272 318 160C318 220.573 308.317 259.85 284.083 284.083C259.85 308.317 220.573 318 160 318C99.4272 318 60.1504 308.317 35.9168 284.083C11.6833 259.85 2 220.573 2 160C2 99.4272 11.6833 60.1504 35.9168 35.9168C60.1504 11.6833 99.4272 2 160 2Z" stroke="#F8FAFC" stroke-opacity="0.2" stroke-width="4"/>
<g clip-path="url(#clip1_1016_7375)">
<path fill-rule="evenodd" clip-rule="evenodd" d="M115.252 242.422C111.558 241.913 108.51 245.401 110.428 248.598C117.64 260.617 132.759 265 160 265C187.24 265 202.359 260.617 209.571 248.598C211.489 245.401 208.441 241.913 204.747 242.422C191.854 244.197 177.01 245 159.999 245C142.989 245 128.145 244.197 115.252 242.422Z" fill="url(#paint1_linear_1016_7375)"/>
<path fill-rule="evenodd" clip-rule="evenodd" d="M270 150C270 85.5454 243.412 65 160 65C76.5881 65 50 85.5454 50 150C50 214.455 76.5881 235 160 235C243.412 235 270 214.455 270 150ZM145 201.962L205 167.321C218.333 159.623 218.333 140.377 205 132.679L145 98.0385C131.667 90.3405 115 99.963 115 115.359L115 184.641C115 200.037 131.667 209.66 145 201.962Z" fill="url(#paint2_linear_1016_7375)"/>
<path d="M200 141.34C206.667 145.189 206.667 154.811 200 158.66L140 193.301C133.333 197.15 125 192.339 125 184.641L125 115.359C125 107.661 133.333 102.85 140 106.699L200 141.34Z" fill="url(#paint3_linear_1016_7375)"/>
</g>
</g>
<defs>
<linearGradient id="paint0_linear_1016_7375" x1="160" y1="0" x2="160" y2="320" gradientUnits="userSpaceOnUse">
<stop stop-color="#475569"/>
<stop offset="1" stop-color="#1E293B"/>
</linearGradient>
<linearGradient id="paint1_linear_1016_7375" x1="160" y1="242.372" x2="160" y2="265" gradientUnits="userSpaceOnUse">
<stop stop-color="#94A3B8"/>
<stop offset="1" stop-color="#475569"/>
</linearGradient>
<linearGradient id="paint2_linear_1016_7375" x1="160" y1="65" x2="160" y2="235" gradientUnits="userSpaceOnUse">
<stop stop-color="#60A5FA"/>
<stop offset="1" stop-color="#2563EB"/>
</linearGradient>
<linearGradient id="paint3_linear_1016_7375" x1="134" y1="90" x2="134" y2="206.25" gradientUnits="userSpaceOnUse">
<stop stop-color="#FB923C"/>
<stop offset="1" stop-color="#EA580C"/>
</linearGradient>
<clipPath id="clip0_1016_7375">
<rect width="320" height="320" fill="white"/>
</clipPath>
<clipPath id="clip1_1016_7375">
<rect width="240" height="240" fill="white" transform="translate(40 40)"/>
</clipPath>
</defs>
</svg>
