<?xml version="1.0" encoding="UTF-8"?>
<svg width="606px" height="606px" viewBox="0 0 606 606" version="1.1" xmlns="http://www.w3.org/2000/svg" xmlns:xlink="http://www.w3.org/1999/xlink">
    <!-- Generator: Sketch 40.2 (33826) - http://www.bohemiancoding.com/sketch -->
    <title>smtp-mailer</title>
    <desc>Created with Sketch.</desc>
    <defs>
        <linearGradient x1="50%" y1="0%" x2="50%" y2="100%" id="linearGradient-1">
            <stop stop-color="#FFFFFF" stop-opacity="0.2" offset="0%"></stop>
            <stop stop-color="#000000" stop-opacity="0.2" offset="100%"></stop>
        </linearGradient>
        <path d="M552.268958,552.268958 C600,504.537813 600,431.458333 600,300 C600,168.541667 600,95.4621875 552.268958,47.7310417 C504.537813,0 431.458333,0 300,0 C168.541667,0 95.4621875,0 47.7310417,47.7310417 C0,95.4621875 0,168.541667 0,300 C0,431.458333 0,504.537813 47.7310417,552.268958 C95.4621875,600 168.541667,600 300,600 C431.458333,600 504.537813,600 552.268958,552.268958 Z" id="path-2"></path>
    </defs>
    <g id="Page-1" stroke="none" stroke-width="1" fill="none" fill-rule="evenodd">
        <g id="smtp-mailer" transform="translate(3.000000, 3.000000)">
            <g id="Squircle2-Copy-6">
                <g id="Shape">
                    <use fill="#4A4A4A" xlink:href="#path-2"></use>
                    <use stroke="#000000" stroke-width="4.04" fill="url(#linearGradient-1)" xlink:href="#path-2"></use>
                </g>
            </g>
            <g id="mail" opacity="0.9" transform="translate(100.000000, 147.000000)" fill="#FFFFFF">
                <g id="Capa_1">
                    <g id="Group">
                        <path d="M351.566667,30.0113821 C352.217073,30.0113821 352.298374,30.0926829 352.460976,30.1739837 C352.623577,30.2552846 352.786179,30.2552846 352.94878,30.2552846 C353.192683,30.2552846 353.761789,30.4178862 354.330894,30.5804878 C354.9,30.7430894 355.469106,30.8243902 355.956911,31.0682927 C358.070732,31.8 360.184553,32.8569106 361.973171,34.3203252 C365.550407,37.1658537 368.395935,41.1495935 369.452846,45.5398374 C369.85935,46.596748 369.94065,47.8162602 370.103252,48.9544715 L370.265854,50.7430894 L370.265854,53.8325203 L370.347154,66.0276423 L370.591057,90.499187 C370.997561,123.100813 371.566667,155.702439 372.460976,188.222764 C373.436585,225.214634 377.176423,255.946341 384.493496,253.182114 C391.241463,250.661789 396.200813,224.401626 396.93252,186.434146 C397.582927,152.287805 398.233333,118.060163 398.88374,83.7512195 L399.208943,58.0601626 L399.290244,51.6373984 C399.290244,50.7430894 399.208943,49.0357724 399.208943,47.6536585 C399.208943,46.1902439 399.046341,44.7268293 398.802439,43.3447154 C397.989431,37.5723577 396.200813,31.9626016 393.517886,26.7593496 C388.070732,16.4341463 378.88374,8.22276423 368.070732,3.75121951 C366.688618,3.26341463 365.306504,2.69430894 363.92439,2.28780488 L359.696748,1.1495935 C358.152033,0.824390244 356.444715,0.580487805 354.818699,0.417886179 L353.599187,0.255284553 L352.786179,0.17398374 L351.160163,0.0926829268 L348.88374,0.0113821138 L347.257724,0.0113821138 L344.086992,0.0113821138 L337.664228,0.0113821138 C282.623577,0.17398374 227.582927,0.661788618 172.542276,1.23089431 L90.0219512,2.12520325 L69.4528455,2.36910569 L59.1276423,2.4504065 L54.0056911,2.53170732 L52.704878,2.53170732 L51.0788618,2.61300813 L47.7455285,2.85691057 C38.8837398,3.91382114 30.3471545,7.32845528 23.4365854,12.8569106 C16.5260163,18.304065 11.0788618,25.702439 8.15203252,34.0764228 C6.60731707,37.7349593 5.63170732,41.4747967 4.98130081,46.1089431 L4.73739837,48.4666667 L4.65609756,49.604878 L4.65609756,49.9300813 L4.65609756,50.7430894 L4.65609756,51.3121951 L4.49349593,55.9463415 L3.76178862,74.4829268 C3.35528455,86.8406504 2.94878049,99.198374 2.46097561,111.637398 C1.72926829,136.434146 1.1601626,161.312195 0.753658537,186.190244 C0.591056911,198.629268 0.428455285,211.068293 0.265853659,223.588618 L0.103252033,242.287805 L0.0219512195,251.637398 C-0.0593495935,252.938211 0.103252033,255.377236 0.184552846,257.572358 C0.265853659,259.76748 0.753658537,261.962602 1.07886179,264.157724 C4.65609756,281.8 17.5829268,297.084553 34.5747967,303.182114 C36.6886179,303.995122 38.802439,304.564228 40.997561,305.133333 C43.1113821,305.702439 46.0382114,306.027642 48.395935,306.352846 L50.7536585,306.515447 L51.8918699,306.596748 L53.8430894,306.596748 L58.5585366,306.596748 L77.3390244,306.596748 C127.339024,306.515447 177.501626,306.434146 227.501626,306.352846 L302.542276,306.352846 L340.021951,306.515447 L349.371545,306.596748 C353.761789,306.515447 358.314634,306.108943 362.623577,304.970732 C371.404065,302.856911 379.534146,298.385366 386.038211,292.287805 C390.753659,287.978862 395.225203,280.743089 397.095122,273.75122 C397.582927,271.962602 397.90813,270.255285 398.152033,268.629268 C398.314634,267.003252 398.477236,265.377236 398.558537,263.995122 C398.639837,262.531707 398.558537,260.986992 398.395935,259.76748 C398.314634,259.117073 398.233333,258.547967 398.233333,258.060163 C398.152033,257.572358 397.989431,257.328455 397.90813,257.003252 C396.119512,252.531707 394.330894,253.100813 392.460976,256.921951 C392.054472,257.81626 391.322764,259.442276 390.753659,260.82439 C390.184553,262.369106 389.290244,263.83252 388.477236,265.539837 C386.607317,268.79187 384.330894,272.369106 381.241463,275.621138 C376.200813,280.986992 369.778049,284.889431 362.86748,286.75935 C359.452846,287.734959 355.87561,287.978862 352.298374,287.978862 C348.88374,287.81626 344.9,287.247154 341.160163,286.921951 C325.87561,285.377236 310.103252,284.076423 293.843089,283.100813 C261.322764,280.986992 227.257724,279.84878 192.86748,279.360976 C151.485366,278.710569 110.021951,278.141463 68.6398374,277.491057 L53.1113821,277.247154 L49.9406504,277.003252 C49.1276423,276.84065 48.7211382,276.678049 48.0707317,276.596748 L45.7130081,275.946341 C44.9813008,275.621138 44.1682927,275.377236 43.4365854,275.052033 C37.501626,272.287805 32.7861789,266.921951 30.9162602,260.82439 C30.4284553,259.279675 30.1845528,257.734959 29.9406504,256.108943 L29.8593496,253.669919 L29.8593496,249.84878 L30.0219512,234.320325 L30.3471545,203.182114 C30.7536585,161.718699 31.0788618,120.173984 31.0788618,78.6292683 L31.0788618,63.0195122 L31.0788618,55.2146341 L31.0788618,51.3121951 L31.0788618,51.1495935 L31.1601626,50.1739837 L31.2414634,48.2227642 C31.2414634,47.8162602 31.3227642,47.6536585 31.3227642,47.5723577 L31.404065,47.2471545 C31.4853659,47.003252 31.4853659,46.7593496 31.4853659,46.5154472 L31.9731707,44.401626 L32.7861789,42.2878049 C33.1113821,41.6373984 33.4365854,40.9056911 33.7617886,40.2552846 C35.2252033,37.5723577 37.2577236,35.2146341 39.696748,33.3447154 C42.1357724,31.4747967 44.9813008,30.1739837 47.9081301,29.4422764 C49.3715447,29.1170732 50.9162602,28.9544715 52.5422764,28.8731707 L60.2658537,28.7918699 L91.4853659,28.3853659 C112.135772,28.7105691 132.704878,28.9544715 153.355285,29.2796748 C186.038211,29.5235772 218.721138,29.8487805 251.404065,30.0926829 L300.428455,30.2552846 L348.558537,30.2552846 L351.566667,30.0113821 L351.566667,30.0113821 Z" id="Shape"></path>
                        <path d="M347.90813,64.3203252 C347.257724,59.604878 342.379675,59.3609756 336.85122,60.9869919 C318.558537,66.1089431 300.753659,77.1658537 284.493496,90.499187 C256.444715,113.426016 227.989431,135.865041 200.834959,159.930081 C196.769919,156.515447 192.704878,153.100813 188.558537,149.76748 L175.062602,136.515447 C146.200813,108.873171 116.688618,82.0439024 84.9,58.0601626 C75.8756098,51.2308943 66.3634146,47.7349593 62.0544715,53.8325203 C58.1520325,59.3609756 60.8349593,68.3853659 68.8837398,76.6780488 C83.4365854,91.6373984 98.0707317,106.75935 113.761789,120.499187 C126.444715,131.637398 139.452846,142.613008 152.460976,153.426016 C148.070732,154.482927 144.249593,156.434146 140.91626,158.873171 C125.143902,170.417886 108.477236,181.149593 95.9569106,196.434146 C94.0056911,197.897561 91.9731707,199.279675 90.0219512,200.743089 C77.9081301,210.255285 66.3634146,220.417886 57.501626,233.344715 C54.9813008,237.003252 54.9,242.206504 60.1845528,247.409756 C64.9813008,252.125203 70.6723577,253.669919 74.4121951,251.149593 C81.2414634,246.678049 88.1520325,242.287805 93.9243902,236.678049 C103.192683,227.653659 111.485366,217.572358 120.184553,207.978862 C141.322764,199.76748 154.493496,182.531707 170.509756,168.466667 C177.339024,174.076423 184.086992,179.76748 190.834959,185.458537 C191.729268,186.515447 192.623577,187.653659 193.517886,188.710569 C196.526016,192.287805 201.729268,193.100813 205.713008,190.499187 L208.395935,188.710569 C219.534146,181.230894 230.265854,173.263415 240.753659,164.80813 C242.054472,168.466667 244.005691,171.8 246.363415,174.645528 C258.88374,189.76748 270.509756,205.78374 286.526016,217.328455 C288.070732,219.198374 289.615447,221.149593 291.160163,222.938211 C301.404065,234.482927 312.217073,245.377236 325.631707,253.507317 C329.452846,255.78374 334.656098,255.621138 339.452846,250.011382 C343.843089,244.970732 345.062602,239.198374 342.379675,235.539837 C337.501626,228.954472 332.704878,222.287805 326.769919,216.921951 C317.176423,208.222764 306.688618,200.499187 296.526016,192.369106 C288.152033,174.076423 272.94878,162.369106 259.208943,149.360976 C288.152033,124.564228 315.550407,97.8162602 344.656098,73.3447154 C347.013821,71.6373984 348.233333,66.6780488 347.90813,64.3203252 L347.90813,64.3203252 Z" id="Shape"></path>
                    </g>
                </g>
            </g>
        </g>
    </g>
</svg>