<svg width="320" height="320" viewBox="0 0 320 320" fill="none" xmlns="http://www.w3.org/2000/svg">
<g clip-path="url(#clip0_817_5934)">
<path d="M160 0C281.326 0 320 38.6737 320 160C320 281.326 281.326 320 160 320C38.6736 320 0 281.326 0 160C0 38.6737 38.6736 0 160 0Z" fill="url(#paint0_linear_817_5934)"/>
<path d="M160 2C220.573 2 259.85 11.6833 284.083 35.9168C308.317 60.1504 318 99.4272 318 160C318 220.573 308.317 259.85 284.083 284.083C259.85 308.317 220.573 318 160 318C99.4272 318 60.1504 308.317 35.9168 284.083C11.6833 259.85 2 220.573 2 160C2 99.4272 11.6833 60.1504 35.9168 35.9168C60.1504 11.6833 99.4272 2 160 2Z" stroke="#0F172A" stroke-opacity="0.2" stroke-width="4"/>
<g clip-path="url(#clip1_817_5934)">
<path d="M110 170C155.497 170 170 182.086 170 220C170 257.914 155.497 270 110 270C64.5026 270 50 257.914 50 220C50 182.086 64.5026 170 110 170Z" fill="url(#paint1_linear_817_5934)"/>
<path fill-rule="evenodd" clip-rule="evenodd" d="M220 160C220 122.086 205.498 110 160 110C117.021 110 101.7 120.785 100.136 153.94C100.002 156.789 102.385 159.092 105.237 159.041C106.792 159.014 108.379 159 110 159C156.622 159 175.347 170.188 179.214 203.738C179.542 206.582 182.08 208.731 184.9 208.242C210.992 203.72 220 189.882 220 160Z" fill="url(#paint2_linear_817_5934)"/>
<path fill-rule="evenodd" clip-rule="evenodd" d="M270 100C270 62.0855 255.498 50 210 50C167.021 50 151.7 60.7848 150.136 93.9397C150.002 96.7889 152.385 99.0916 155.237 99.0411C156.792 99.0135 158.379 99 160 99C206.622 99 225.347 110.188 229.214 143.738C229.542 146.582 232.08 148.731 234.9 148.242C260.992 143.72 270 129.882 270 100Z" fill="url(#paint3_linear_817_5934)"/>
</g>
</g>
<defs>
<linearGradient id="paint0_linear_817_5934" x1="160" y1="0" x2="160" y2="320" gradientUnits="userSpaceOnUse">
<stop stop-color="#F8FAFC"/>
<stop offset="1" stop-color="#E2E8F0"/>
</linearGradient>
<linearGradient id="paint1_linear_817_5934" x1="110" y1="170" x2="110" y2="270" gradientUnits="userSpaceOnUse">
<stop stop-color="#7DD3FC"/>
<stop offset="1" stop-color="#0EA5E9"/>
</linearGradient>
<linearGradient id="paint2_linear_817_5934" x1="160.066" y1="110" x2="160.066" y2="208.312" gradientUnits="userSpaceOnUse">
<stop stop-color="#FB923C"/>
<stop offset="1" stop-color="#EA580C"/>
</linearGradient>
<linearGradient id="paint3_linear_817_5934" x1="210.066" y1="50" x2="210.066" y2="148.312" gradientUnits="userSpaceOnUse">
<stop stop-color="#2DD4BF"/>
<stop offset="1" stop-color="#0D9488"/>
</linearGradient>
<clipPath id="clip0_817_5934">
<rect width="320" height="320" fill="white"/>
</clipPath>
<clipPath id="clip1_817_5934">
<rect width="240" height="240" fill="white" transform="translate(40 40)"/>
</clipPath>
</defs>
</svg>
