<svg width="80" height="80" viewBox="0 0 80 80" fill="none" xmlns="http://www.w3.org/2000/svg">
<mask id="mask0" mask-type="alpha" maskUnits="userSpaceOnUse" x="0" y="0" width="80" height="80">
<path d="M40 80C57.5278 80 67.2717 80 73.6359 73.6359C80 67.2717 80 57.5278 80 40C80 22.4722 80 12.7283 73.6359 6.36414C67.2717 0 57.5278 0 40 0C22.4722 0 12.7283 0 6.36414 6.36414C0 12.7283 0 22.4722 0 40C0 57.5278 0 67.2717 6.36414 73.6359C12.7283 80 22.4722 80 40 80Z" fill="white"/>
</mask>
<g mask="url(#mask0)">
<path d="M40 80C57.5278 80 67.2717 80 73.6359 73.6359C80 67.2717 80 57.5278 80 40C80 22.4722 80 12.7283 73.6359 6.36414C67.2717 0 57.5278 0 40 0C22.4722 0 12.7283 0 6.36414 6.36414C0 12.7283 0 22.4722 0 40C0 57.5278 0 67.2717 6.36414 73.6359C12.7283 80 22.4722 80 40 80Z" fill="#FF3D71"/>
</g>
<g filter="url(#filter0_d)">
<path d="M58.4568 48.1901H47.8868C47.2679 48.1901 46.6744 48.4359 46.2368 48.8735C45.7993 49.3111 45.5534 49.9046 45.5534 50.5234C45.5534 51.1423 45.7993 51.7357 46.2368 52.1733C46.6744 52.6109 47.2679 52.8568 47.8868 52.8568H53.4868C50.913 55.5465 47.5937 57.4052 43.9555 58.194C40.3172 58.9829 36.5262 58.6658 33.0696 57.2837C29.6129 55.9015 26.6484 53.5173 24.5571 50.4375C22.4658 47.3576 21.3432 43.7228 21.3334 40.0001C21.3334 39.3812 21.0876 38.7878 20.65 38.3502C20.2124 37.9126 19.6189 37.6667 19.0001 37.6667C18.3812 37.6667 17.7878 37.9126 17.3502 38.3502C16.9126 38.7878 16.6667 39.3812 16.6667 40.0001C16.6791 44.5566 18.0253 49.0098 20.5392 52.8102C23.053 56.6105 26.6246 59.5916 30.8131 61.3856C35.0017 63.1796 39.6238 63.708 44.1091 62.9056C48.5945 62.1031 52.7467 60.005 56.0534 56.8701V61.0001C56.0534 61.6189 56.2993 62.2124 56.7368 62.65C57.1744 63.0876 57.7679 63.3334 58.3867 63.3334C59.0056 63.3334 59.5991 63.0876 60.0367 62.65C60.4743 62.2124 60.7201 61.6189 60.7201 61.0001V50.5001C60.7143 49.8972 60.4754 49.32 60.0535 48.8894C59.6316 48.4587 59.0594 48.2081 58.4568 48.1901ZM47.0001 40.0001C47.0001 38.6156 46.5895 37.2622 45.8204 36.1111C45.0512 34.9599 43.958 34.0627 42.6789 33.5329C41.3998 33.0031 39.9923 32.8645 38.6345 33.1346C37.2766 33.4047 36.0293 34.0714 35.0503 35.0503C34.0714 36.0293 33.4047 37.2766 33.1346 38.6345C32.8645 39.9923 33.0031 41.3998 33.5329 42.6789C34.0627 43.958 34.9599 45.0512 36.1111 45.8204C37.2622 46.5895 38.6156 47.0001 40.0001 47.0001C41.8566 47.0001 43.6371 46.2626 44.9498 44.9498C46.2626 43.6371 47.0001 41.8566 47.0001 40.0001ZM37.6667 40.0001C37.6667 39.5386 37.8036 39.0875 38.06 38.7038C38.3164 38.32 38.6808 38.021 39.1072 37.8444C39.5335 37.6678 40.0027 37.6216 40.4553 37.7116C40.9079 37.8016 41.3237 38.0238 41.65 38.3502C41.9763 38.6765 42.1986 39.0922 42.2886 39.5449C42.3786 39.9975 42.3324 40.4667 42.1558 40.893C41.9792 41.3194 41.6801 41.6838 41.2964 41.9402C40.9127 42.1966 40.4616 42.3334 40.0001 42.3334C39.3812 42.3334 38.7878 42.0876 38.3502 41.65C37.9126 41.2124 37.6667 40.6189 37.6667 40.0001ZM40.0001 16.6667C34.0183 16.6838 28.2716 18.9975 23.9467 23.1301V19.0001C23.9467 18.3812 23.7009 17.7878 23.2633 17.3502C22.8257 16.9126 22.2323 16.6667 21.6134 16.6667C20.9946 16.6667 20.4011 16.9126 19.9635 17.3502C19.5259 17.7878 19.2801 18.3812 19.2801 19.0001V29.5001C19.2801 30.1189 19.5259 30.7124 19.9635 31.15C20.4011 31.5876 20.9946 31.8334 21.6134 31.8334H32.1134C32.7323 31.8334 33.3257 31.5876 33.7633 31.15C34.2009 30.7124 34.4467 30.1189 34.4467 29.5001C34.4467 28.8812 34.2009 28.2878 33.7633 27.8502C33.3257 27.4126 32.7323 27.1667 32.1134 27.1667H26.5134C29.0858 24.4784 32.403 22.6202 36.039 21.8307C39.6751 21.0411 43.4641 21.3562 46.9198 22.7354C50.3755 24.1147 53.3402 26.4952 55.4333 29.5715C57.5264 32.6477 58.6524 36.2793 58.6668 40.0001C58.6668 40.6189 58.9126 41.2124 59.3502 41.65C59.7878 42.0876 60.3812 42.3334 61.0001 42.3334C61.6189 42.3334 62.2124 42.0876 62.65 41.65C63.0876 41.2124 63.3334 40.6189 63.3334 40.0001C63.3334 36.9359 62.7299 33.9017 61.5573 31.0708C60.3847 28.2399 58.6659 25.6676 56.4992 23.5009C54.3325 21.3342 51.7603 19.6155 48.9294 18.4429C46.0984 17.2703 43.0643 16.6667 40.0001 16.6667V16.6667Z" fill="white"/>
</g>
<defs>
<filter id="filter0_d" x="9" y="10" width="62" height="62" filterUnits="userSpaceOnUse" color-interpolation-filters="sRGB">
<feFlood flood-opacity="0" result="BackgroundImageFix"/>
<feColorMatrix in="SourceAlpha" type="matrix" values="0 0 0 0 0 0 0 0 0 0 0 0 0 0 0 0 0 0 127 0"/>
<feOffset dy="1"/>
<feGaussianBlur stdDeviation="1.5"/>
<feColorMatrix type="matrix" values="0 0 0 0 0 0 0 0 0 0 0 0 0 0 0 0 0 0 0.1 0"/>
<feBlend mode="normal" in2="BackgroundImageFix" result="effect1_dropShadow"/>
<feBlend mode="normal" in="SourceGraphic" in2="effect1_dropShadow" result="shape"/>
</filter>
</defs>
</svg>
