<svg width="320" height="320" viewBox="0 0 320 320" fill="none" xmlns="http://www.w3.org/2000/svg">
<g clip-path="url(#clip0_1016_7319)">
<path d="M160 0C281.326 0 320 38.6737 320 160C320 281.326 281.326 320 160 320C38.6736 320 0 281.326 0 160C0 38.6737 38.6736 0 160 0Z" fill="url(#paint0_linear_1016_7319)"/>
<path d="M160 2C220.573 2 259.85 11.6833 284.083 35.9168C308.317 60.1504 318 99.4272 318 160C318 220.573 308.317 259.85 284.083 284.083C259.85 308.317 220.573 318 160 318C99.4272 318 60.1504 308.317 35.9168 284.083C11.6833 259.85 2 220.573 2 160C2 99.4272 11.6833 60.1504 35.9168 35.9168C60.1504 11.6833 99.4272 2 160 2Z" stroke="#F8FAFC" stroke-opacity="0.2" stroke-width="4"/>
<g clip-path="url(#clip1_1016_7319)">
<path fill-rule="evenodd" clip-rule="evenodd" d="M166.535 206.572C165.177 204.03 161.828 203.692 159.482 205.366C146.816 214.408 129.322 220 110 220C90.6777 220 73.1839 214.408 60.5176 205.366C58.1724 203.692 54.8229 204.03 53.4647 206.572C51.2214 210.769 50 215.289 50 220C50 242.091 76.8629 260 110 260C143.137 260 170 242.091 170 220C170 215.289 168.779 210.769 166.535 206.572Z" fill="url(#paint1_linear_1016_7319)"/>
<ellipse cx="110" cy="170" rx="60" ry="40" fill="url(#paint2_linear_1016_7319)"/>
<path fill-rule="evenodd" clip-rule="evenodd" d="M175.467 202.268C173.102 197.815 173.048 192.263 175.423 187.814C178.378 182.281 179.996 176.275 179.996 170C179.996 160.427 176.23 151.482 169.698 143.881C167.054 140.805 167.777 135.842 171.626 134.565V134.565C173.03 134.099 174.565 134.276 175.893 134.927C182.525 138.176 189.982 140 197.866 140C204.168 140 210.198 138.835 215.751 136.706C220.774 134.782 226.282 133.729 231.325 135.601C246.067 141.075 258.985 150.3 268.92 162.117C274.381 168.612 273.662 178.157 267.394 183.878C249.617 200.104 225.963 210 199.998 210C194.395 210 188.898 209.539 183.546 208.653C179.948 208.058 177.178 205.489 175.467 202.268V202.268Z" fill="url(#paint3_linear_1016_7319)"/>
<circle cx="199.867" cy="90" r="40" fill="url(#paint4_linear_1016_7319)"/>
</g>
</g>
<defs>
<linearGradient id="paint0_linear_1016_7319" x1="160" y1="0" x2="160" y2="320" gradientUnits="userSpaceOnUse">
<stop stop-color="#475569"/>
<stop offset="1" stop-color="#1E293B"/>
</linearGradient>
<linearGradient id="paint1_linear_1016_7319" x1="110" y1="204.335" x2="110" y2="260" gradientUnits="userSpaceOnUse">
<stop stop-color="#FB923C"/>
<stop offset="1" stop-color="#EA580C"/>
</linearGradient>
<linearGradient id="paint2_linear_1016_7319" x1="110" y1="130" x2="110" y2="210" gradientUnits="userSpaceOnUse">
<stop stop-color="#FACC15"/>
<stop offset="1" stop-color="#CA8A04"/>
</linearGradient>
<linearGradient id="paint3_linear_1016_7319" x1="220.361" y1="134.303" x2="220.361" y2="210" gradientUnits="userSpaceOnUse">
<stop stop-color="#2DD4BF"/>
<stop offset="1" stop-color="#0D9488"/>
</linearGradient>
<linearGradient id="paint4_linear_1016_7319" x1="199.867" y1="50" x2="199.867" y2="130" gradientUnits="userSpaceOnUse">
<stop stop-color="#7DD3FC"/>
<stop offset="1" stop-color="#0EA5E9"/>
</linearGradient>
<clipPath id="clip0_1016_7319">
<rect width="320" height="320" fill="white"/>
</clipPath>
<clipPath id="clip1_1016_7319">
<rect width="240" height="240" fill="white" transform="translate(40 40)"/>
</clipPath>
</defs>
</svg>
