<svg width="320" height="320" viewBox="0 0 320 320" fill="none" xmlns="http://www.w3.org/2000/svg">
<g clip-path="url(#clip0_391_2790)">
<path d="M160 0C281.326 0 320 38.6737 320 160C320 281.326 281.326 320 160 320C38.6736 320 0 281.326 0 160C0 38.6737 38.6736 0 160 0Z" fill="url(#paint0_linear_391_2790)"/>
<path d="M160 2C220.573 2 259.85 11.6833 284.083 35.9168C308.317 60.1504 318 99.4272 318 160C318 220.573 308.317 259.85 284.083 284.083C259.85 308.317 220.573 318 160 318C99.4272 318 60.1504 308.317 35.9168 284.083C11.6833 259.85 2 220.573 2 160C2 99.4272 11.6833 60.1504 35.9168 35.9168C60.1504 11.6833 99.4272 2 160 2Z" stroke="#F8FAFC" stroke-opacity="0.2" stroke-width="4"/>
<g clip-path="url(#clip1_391_2790)">
<path fill-rule="evenodd" clip-rule="evenodd" d="M270 160C270 220.751 220.751 270 160 270C99.2487 270 50 220.751 50 160C50 99.2487 99.2487 50 160 50C174.829 50 188.974 52.9345 201.883 58.2545C205.781 59.8609 205.691 65.5021 202.466 68.2181C194.843 74.6384 190 84.2536 190 95V95C190 95.7945 189.173 96.345 188.447 96.0218C179.755 92.1512 170.129 90 160 90C121.34 90 90 121.34 90 160C90 198.66 121.34 230 160 230C198.66 230 230 198.66 230 160C230 149.871 227.849 140.245 223.978 131.553C223.655 130.827 224.205 130 225 130V130C235.746 130 245.362 125.157 251.782 117.534C254.498 114.309 260.139 114.219 261.745 118.117C267.065 131.026 270 145.171 270 160Z" fill="url(#paint1_linear_391_2790)"/>
<circle cx="160" cy="160" r="50" fill="url(#paint2_linear_391_2790)"/>
<circle cx="225" cy="95" r="25" fill="url(#paint3_linear_391_2790)"/>
</g>
</g>
<defs>
<linearGradient id="paint0_linear_391_2790" x1="160" y1="0" x2="160" y2="320" gradientUnits="userSpaceOnUse">
<stop stop-color="#475569"/>
<stop offset="1" stop-color="#1E293B"/>
</linearGradient>
<linearGradient id="paint1_linear_391_2790" x1="160" y1="50" x2="160" y2="270" gradientUnits="userSpaceOnUse">
<stop stop-color="#2DD4BF"/>
<stop offset="1" stop-color="#0D9488"/>
</linearGradient>
<linearGradient id="paint2_linear_391_2790" x1="160" y1="110" x2="160" y2="210" gradientUnits="userSpaceOnUse">
<stop stop-color="#60A5FA"/>
<stop offset="1" stop-color="#2563EB"/>
</linearGradient>
<linearGradient id="paint3_linear_391_2790" x1="225" y1="70" x2="225" y2="120" gradientUnits="userSpaceOnUse">
<stop stop-color="#FB7185"/>
<stop offset="1" stop-color="#E11D48"/>
</linearGradient>
<clipPath id="clip0_391_2790">
<rect width="320" height="320" fill="white"/>
</clipPath>
<clipPath id="clip1_391_2790">
<rect width="240" height="240" fill="white" transform="translate(40 40)"/>
</clipPath>
</defs>
</svg>
