<svg width="80" height="80" viewBox="0 0 80 80" fill="none" xmlns="http://www.w3.org/2000/svg">
<rect width="80" height="80" fill="url(#paint0_linear_425_2730)"/>
<path d="M34 55C34 59.4183 30.4184 63 26 63C21.5816 63 18 59.4183 18 55C18 50.5817 21.5816 47 26 47C30.4184 47 34 50.5817 34 55Z" fill="black" fill-opacity="0.2"/>
<path d="M62 27C62 31.4183 58.4184 35 54 35C49.5816 35 46 31.4183 46 27C46 22.5817 49.5816 19 54 19C58.4184 19 62 22.5817 62 27Z" fill="black" fill-opacity="0.2"/>
<path d="M29.1282 30.0527C31.9172 27.2828 35.7588 25.5714 40.0001 25.5714C40.4432 25.5714 40.882 25.5901 41.3157 25.6267C41.7339 25.662 42.1154 25.3759 42.2069 24.9663C43.0832 21.0437 45.9509 17.8725 49.6935 16.5692C50.043 16.4475 50.0788 15.9412 49.7336 15.8077C46.714 14.6402 43.4318 14 40.0001 14C36.0323 14 32.2643 14.8559 28.8709 16.3931C28.5996 16.516 28.4286 16.7881 28.4286 17.0859V29.7748C28.4286 30.1301 28.8761 30.3031 29.1282 30.0527Z" fill="black" fill-opacity="0.2"/>
<path d="M56.0291 62.7292C55.7784 62.9143 55.4286 62.733 55.4286 62.421V41C55.4286 40.5568 55.41 40.118 55.3734 39.6843C55.3379 39.2661 55.6241 38.8847 56.0337 38.7932C59.9565 37.917 63.1274 35.0492 64.4308 31.3065C64.5523 30.957 65.0587 30.9213 65.1922 31.2664C66.3597 34.2861 67 37.5683 67 41C67 49.91 62.6842 57.8117 56.0291 62.7292Z" fill="black" fill-opacity="0.2"/>
<path d="M15.5692 50.6934C15.4476 51.0428 14.9412 51.0787 14.8077 50.7335C13.6402 47.7139 13 44.4317 13 41C13 32.0902 17.3158 24.1883 23.9709 19.2708C24.2216 19.0855 24.5715 19.2671 24.5715 19.5789V41C24.5715 41.4432 24.5901 41.882 24.6268 42.3157C24.6621 42.7339 24.3759 43.1154 23.9663 43.2069C20.0437 44.0831 16.8725 46.9508 15.5692 50.6934Z" fill="black" fill-opacity="0.2"/>
<path d="M51.1289 65.607C51.4004 65.484 51.5713 65.2121 51.5713 64.9143V52.2251C51.5713 51.8698 51.1239 51.697 50.8716 51.9474C48.0829 54.7172 44.2412 56.4286 39.9998 56.4286C39.5567 56.4286 39.1179 56.4101 38.6842 56.3734C38.266 56.3379 37.8845 56.6241 37.7931 57.0338C36.9168 60.9565 34.0491 64.1274 30.3064 65.4308C29.9569 65.5527 29.9211 66.0587 30.2663 66.1922C33.286 67.3597 36.5681 68 39.9998 68C43.9677 68 47.7357 67.1441 51.1289 65.607Z" fill="black" fill-opacity="0.2"/>
<path d="M34 54C34 58.4183 30.4184 62 26 62C21.5816 62 18 58.4183 18 54C18 49.5817 21.5816 46 26 46C30.4184 46 34 49.5817 34 54Z" fill="url(#paint1_linear_425_2730)"/>
<path d="M62 26C62 30.4183 58.4184 34 54 34C49.5816 34 46 30.4183 46 26C46 21.5817 49.5816 18 54 18C58.4184 18 62 21.5817 62 26Z" fill="url(#paint2_linear_425_2730)"/>
<path d="M29.1282 29.0527C31.9172 26.2828 35.7588 24.5714 40.0001 24.5714C40.4432 24.5714 40.882 24.5901 41.3157 24.6267C41.7339 24.662 42.1154 24.3759 42.2069 23.9663C43.0832 20.0437 45.9509 16.8725 49.6935 15.5692C50.043 15.4475 50.0788 14.9412 49.7336 14.8077C46.714 13.6402 43.4318 13 40.0001 13C36.0323 13 32.2643 13.8559 28.8709 15.3931C28.5996 15.516 28.4286 15.7881 28.4286 16.0859V28.7748C28.4286 29.1301 28.8761 29.3031 29.1282 29.0527Z" fill="url(#paint3_linear_425_2730)"/>
<path d="M56.0291 61.7292C55.7784 61.9143 55.4286 61.733 55.4286 61.421V40C55.4286 39.5568 55.41 39.118 55.3734 38.6843C55.3379 38.2661 55.6241 37.8847 56.0337 37.7932C59.9565 36.917 63.1274 34.0492 64.4308 30.3065C64.5523 29.957 65.0587 29.9213 65.1922 30.2664C66.3597 33.2861 67 36.5683 67 40C67 48.91 62.6842 56.8117 56.0291 61.7292Z" fill="url(#paint4_linear_425_2730)"/>
<path d="M15.5692 49.6934C15.4476 50.0428 14.9412 50.0787 14.8077 49.7335C13.6402 46.7139 13 43.4317 13 40C13 31.0902 17.3158 23.1883 23.9709 18.2708C24.2216 18.0855 24.5715 18.2671 24.5715 18.5789V40C24.5715 40.4432 24.5901 40.882 24.6268 41.3157C24.6621 41.7339 24.3759 42.1154 23.9663 42.2069C20.0437 43.0831 16.8725 45.9508 15.5692 49.6934Z" fill="url(#paint5_linear_425_2730)"/>
<path d="M51.1289 64.607C51.4004 64.484 51.5713 64.2121 51.5713 63.9143V51.2251C51.5713 50.8698 51.1239 50.697 50.8716 50.9474C48.0829 53.7172 44.2412 55.4286 39.9998 55.4286C39.5567 55.4286 39.1179 55.4101 38.6842 55.3734C38.266 55.3379 37.8845 55.6241 37.7931 56.0338C36.9168 59.9565 34.0491 63.1274 30.3064 64.4308C29.9569 64.5527 29.9211 65.0587 30.2663 65.1922C33.286 66.3597 36.5681 67 39.9998 67C43.9677 67 47.7357 66.1441 51.1289 64.607Z" fill="url(#paint6_linear_425_2730)"/>
<defs>
<linearGradient id="paint0_linear_425_2730" x1="40" y1="0" x2="40" y2="80" gradientUnits="userSpaceOnUse">
<stop stop-color="#6B7280"/>
<stop offset="1" stop-color="#1F2937"/>
</linearGradient>
<linearGradient id="paint1_linear_425_2730" x1="26" y1="46" x2="26" y2="62" gradientUnits="userSpaceOnUse">
<stop stop-color="#FDE68A"/>
<stop offset="1" stop-color="#D97706"/>
</linearGradient>
<linearGradient id="paint2_linear_425_2730" x1="54" y1="18" x2="54" y2="34" gradientUnits="userSpaceOnUse">
<stop stop-color="#FDE68A"/>
<stop offset="1" stop-color="#D97706"/>
</linearGradient>
<linearGradient id="paint3_linear_425_2730" x1="40" y1="13" x2="40" y2="67" gradientUnits="userSpaceOnUse">
<stop stop-color="#F9FAFB"/>
<stop offset="1" stop-color="#9CA3AF"/>
</linearGradient>
<linearGradient id="paint4_linear_425_2730" x1="40" y1="13" x2="40" y2="67" gradientUnits="userSpaceOnUse">
<stop stop-color="#F9FAFB"/>
<stop offset="1" stop-color="#9CA3AF"/>
</linearGradient>
<linearGradient id="paint5_linear_425_2730" x1="40" y1="13" x2="40" y2="67" gradientUnits="userSpaceOnUse">
<stop stop-color="#F9FAFB"/>
<stop offset="1" stop-color="#9CA3AF"/>
</linearGradient>
<linearGradient id="paint6_linear_425_2730" x1="40" y1="13" x2="40" y2="67" gradientUnits="userSpaceOnUse">
<stop stop-color="#F9FAFB"/>
<stop offset="1" stop-color="#9CA3AF"/>
</linearGradient>
</defs>
</svg>
