<svg width="48" height="48" viewBox="0 0 48 48" fill="none" xmlns="http://www.w3.org/2000/svg">
<rect width="48" height="48" fill="url(#paint0_linear_337_1821)"/>
<path d="M24.7941 8.5C30.7837 8.5 33.7785 8.5 35.6393 10.2574C37.5 12.0147 37.5 14.8431 37.5 20.5V26.5C37.5 32.1568 37.5 34.9853 35.6393 36.7426C33.7785 38.5 30.7837 38.5 24.7941 38.5H23.2059C17.2163 38.5 14.2215 38.5 12.3607 36.7426C10.5 34.9853 10.5 32.1568 10.5 26.5V20.5C10.5 14.8431 10.5 12.0147 12.3607 10.2574C14.2215 8.5 17.2163 8.5 23.2059 8.5H24.7941Z" stroke="white" stroke-width="2.25" stroke-linecap="round"/>
<path d="M18 16H30" stroke="white" stroke-width="2.25" stroke-linecap="round"/>
<path d="M18 23.5H30" stroke="white" stroke-width="2.25" stroke-linecap="round"/>
<path d="M18 31H24" stroke="white" stroke-width="2.25" stroke-linecap="round"/>
<defs>
<linearGradient id="paint0_linear_337_1821" x1="24" y1="0" x2="24" y2="48" gradientUnits="userSpaceOnUse">
<stop stop-color="#0D9488"/>
<stop offset="1" stop-color="#0F766E"/>
</linearGradient>
</defs>
</svg>
