<svg width="80" height="80" viewBox="0 0 80 80" fill="none" xmlns="http://www.w3.org/2000/svg">
<rect width="80" height="80" fill="url(#paint0_linear_963_3702)"/>
<path fill-rule="evenodd" clip-rule="evenodd" d="M62.6627 14.9098C59.0397 11.4286 53.2086 11.4286 41.5463 11.4286H38.4539C26.7916 11.4286 20.9604 11.4286 17.3374 14.9098C13.7144 18.3911 13.7144 23.994 13.7144 35.2V47.0857C13.7144 58.2916 13.7144 63.8948 17.3374 67.3758C20.9604 70.8571 26.7915 70.8571 38.4539 70.8571H41.5463C53.2086 70.8571 59.0397 70.8571 62.6627 67.3758C66.2858 63.8948 66.2858 58.2916 66.2858 47.0857V35.2C66.2858 23.994 66.2858 18.3911 62.6627 14.9098ZM27.4286 46.8571C25.5351 46.8571 24.0001 48.3922 24.0001 50.2857C24.0001 52.1793 25.5351 53.7143 27.4286 53.7143H52.5715C54.465 53.7143 56.0001 52.1793 56.0001 50.2857C56.0001 48.3922 54.465 46.8571 52.5715 46.8571H27.4286ZM24.0001 60.5714C24.0001 58.6779 25.5351 57.1429 27.4286 57.1429H52.5715C54.465 57.1429 56.0001 58.6779 56.0001 60.5714C56.0001 62.465 54.465 64 52.5715 64H27.4286C25.5351 64 24.0001 62.465 24.0001 60.5714ZM22.6169 20.6631C20.5715 22.5188 20.5715 25.2982 20.5715 30.8571C20.5715 36.4161 20.5715 39.1955 22.6169 41.0512C22.9441 41.3479 23.3047 41.6225 23.6946 41.8716C26.1322 43.4286 29.7834 43.4286 37.0858 43.4286H42.9144C50.2168 43.4286 53.868 43.4286 56.3055 41.8716C56.6954 41.6225 57.056 41.3479 57.3832 41.0512C59.4286 39.1955 59.4286 36.4161 59.4286 30.8572C59.4286 25.2983 59.4286 22.5188 57.3832 20.6631C57.056 20.3663 56.6954 20.0918 56.3055 19.8428C53.868 18.2857 50.2168 18.2857 42.9144 18.2857H37.0858C29.7834 18.2857 26.1322 18.2857 23.6946 19.8428C23.3047 20.0918 22.9441 20.3663 22.6169 20.6631Z" fill="black" fill-opacity="0.2"/>
<path d="M24.0001 30.8571C24.0001 26.8143 24.0001 24.7929 25.6845 23.4433C25.954 23.2275 26.2509 23.0278 26.572 22.8467C28.5795 21.7143 31.5863 21.7143 37.6001 21.7143H42.4001C48.4138 21.7143 51.4207 21.7143 53.4281 22.8467C53.7492 23.0278 54.0462 23.2275 54.3156 23.4433C56.0001 24.7929 56.0001 26.8143 56.0001 30.8571C56.0001 34.9 56.0001 36.9214 54.3156 38.271C54.0462 38.4868 53.7492 38.6865 53.4281 38.8676C51.4207 40 48.4138 40 42.4001 40H37.6001C31.5863 40 28.5795 40 26.572 38.8676C26.2509 38.6865 25.954 38.4868 25.6845 38.271C24.0001 36.9214 24.0001 34.9 24.0001 30.8571Z" fill="black" fill-opacity="0.2"/>
<path fill-rule="evenodd" clip-rule="evenodd" d="M62.6627 13.767C59.0397 10.2857 53.2086 10.2857 41.5463 10.2857H38.4539C26.7916 10.2857 20.9604 10.2857 17.3374 13.767C13.7144 17.2482 13.7144 22.8512 13.7144 34.0571V45.9429C13.7144 57.1487 13.7144 62.7519 17.3374 66.233C20.9604 69.7143 26.7915 69.7143 38.4539 69.7143H41.5463C53.2086 69.7143 59.0397 69.7143 62.6627 66.233C66.2858 62.7519 66.2858 57.1487 66.2858 45.9429V34.0571C66.2858 22.8512 66.2858 17.2482 62.6627 13.767ZM27.4286 45.7143C25.5351 45.7143 24.0001 47.2493 24.0001 49.1429C24.0001 51.0364 25.5351 52.5714 27.4286 52.5714H52.5715C54.465 52.5714 56.0001 51.0364 56.0001 49.1429C56.0001 47.2493 54.465 45.7143 52.5715 45.7143H27.4286ZM24.0001 59.4286C24.0001 57.535 25.5351 56 27.4286 56H52.5715C54.465 56 56.0001 57.535 56.0001 59.4286C56.0001 61.3221 54.465 62.8571 52.5715 62.8571H27.4286C25.5351 62.8571 24.0001 61.3221 24.0001 59.4286ZM22.6169 19.5203C20.5715 21.3759 20.5715 24.1554 20.5715 29.7143C20.5715 35.2732 20.5715 38.0527 22.6169 39.9084C22.9441 40.2051 23.3047 40.4796 23.6946 40.7287C26.1322 42.2857 29.7834 42.2857 37.0857 42.2857H37.0858H42.9144H42.9144C50.2168 42.2857 53.868 42.2857 56.3055 40.7287C56.6954 40.4796 57.056 40.2051 57.3832 39.9084C59.4286 38.0527 59.4286 35.2732 59.4286 29.7143C59.4286 24.1554 59.4286 21.3759 57.3832 19.5203C57.056 19.2235 56.6954 18.949 56.3055 18.6999C53.868 17.1429 50.2168 17.1429 42.9144 17.1429H37.0858C29.7834 17.1429 26.1322 17.1429 23.6946 18.6999C23.3047 18.949 22.9441 19.2235 22.6169 19.5203Z" fill="url(#paint1_linear_963_3702)"/>
<path d="M24 29.7143C24 25.6714 24 23.65 25.6845 22.3005C25.9539 22.0846 26.2508 21.885 26.5719 21.7038C28.5794 20.5714 31.5863 20.5714 37.6 20.5714H42.4C48.4138 20.5714 51.4206 20.5714 53.428 21.7038C53.7491 21.885 54.0461 22.0846 54.3155 22.3005C56 23.65 56 25.6714 56 29.7143C56 33.7571 56 35.7786 54.3155 37.1282C54.0461 37.3439 53.7491 37.5436 53.428 37.7248C51.4206 38.8571 48.4138 38.8571 42.4 38.8571H37.6C31.5863 38.8571 28.5794 38.8571 26.5719 37.7248C26.2508 37.5436 25.9539 37.3439 25.6845 37.1282C24 35.7786 24 33.7571 24 29.7143Z" fill="url(#paint2_linear_963_3702)"/>
<defs>
<linearGradient id="paint0_linear_963_3702" x1="40" y1="0" x2="40" y2="80" gradientUnits="userSpaceOnUse">
<stop stop-color="#0D9488"/>
<stop offset="1" stop-color="#134E4A"/>
</linearGradient>
<linearGradient id="paint1_linear_963_3702" x1="40.0001" y1="10.2857" x2="40.0001" y2="69.7143" gradientUnits="userSpaceOnUse">
<stop stop-color="#F9FAFB"/>
<stop offset="1" stop-color="#9CA3AF"/>
</linearGradient>
<linearGradient id="paint2_linear_963_3702" x1="40" y1="20.5714" x2="40" y2="38.8571" gradientUnits="userSpaceOnUse">
<stop stop-color="#FDE68A"/>
<stop offset="1" stop-color="#D97706"/>
</linearGradient>
</defs>
</svg>
