<?xml version="1.0" encoding="UTF-8"?>
<svg width="606px" height="606px" viewBox="0 0 606 606" version="1.1" xmlns="http://www.w3.org/2000/svg" xmlns:xlink="http://www.w3.org/1999/xlink">
    <!-- Generator: Sketch 40.2 (33826) - http://www.bohemiancoding.com/sketch -->
    <title>posts</title>
    <desc>Created with Sketch.</desc>
    <defs>
        <linearGradient x1="50%" y1="0%" x2="50%" y2="100%" id="linearGradient-1">
            <stop stop-color="#FFFFFF" stop-opacity="0.2" offset="0%"></stop>
            <stop stop-color="#000000" stop-opacity="0.2" offset="100%"></stop>
        </linearGradient>
        <path d="M552.268958,552.268958 C600,504.537813 600,431.458333 600,300 C600,168.541667 600,95.4621875 552.268958,47.7310417 C504.537813,0 431.458333,0 300,0 C168.541667,0 95.4621875,0 47.7310417,47.7310417 C0,95.4621875 0,168.541667 0,300 C0,431.458333 0,504.537813 47.7310417,552.268958 C95.4621875,600 168.541667,600 300,600 C431.458333,600 504.537813,600 552.268958,552.268958 Z" id="path-2"></path>
    </defs>
    <g id="Page-1" stroke="none" stroke-width="1" fill="none" fill-rule="evenodd">
        <g id="posts" transform="translate(3.000000, 3.000000)">
            <g id="Squircle2-Copy-6">
                <g id="Shape">
                    <use fill="#458EE5" xlink:href="#path-2"></use>
                    <use stroke="#000000" stroke-width="4.04" fill="url(#linearGradient-1)" xlink:href="#path-2"></use>
                </g>
            </g>
            <g id="up-arrow-2" opacity="0.9" transform="translate(123.000000, 118.000000)" fill="#FFFFFF">
                <g id="Capa_1">
                    <g id="Group">
                        <path d="M347.637981,358.518312 C354.317884,358.694099 359.767278,353.420492 359.943065,346.740588 C361.173574,291.279814 362.316189,236.170613 362.228295,181.237199 C362.052508,126.391678 361.525148,71.6340508 360.822,16.8764237 C360.734107,9.31758596 354.845245,3.51661743 347.637981,3.69240436 C296.923453,4.3076586 246.296818,4.92291283 195.582291,5.53816707 C136.869458,2.37400242 77.8050508,0.791920097 18.3890702,0.000878934625 C9.24815012,-0.0870145278 1.68931235,7.20814286 1.51352542,16.4369564 C0.107230024,126.215891 1.42563196,236.434293 1.07405811,346.125334 C0.986164649,355.617828 8.63289588,363.352453 18.2132833,363.440346 C40.8019031,363.616133 63.2147361,363.704027 85.4517821,363.879814 C93.9774479,363.967707 238.159638,359.924608 242.378524,357.815165 C250.728403,353.508385 223.439686,349.465286 207.267289,346.740588 C186.612326,343.22485 49.6791429,341.906448 25.8600145,339.797005 C28.4089249,306.92485 29.9031138,271.943252 30.4304746,236.522186 C31.5730896,168.668433 32.7157046,100.726787 33.8583196,32.7851404 C114.368731,33.7519685 195.05493,34.0156489 276.004809,32.6093535 C294.286649,32.8730339 312.480596,33.2246077 330.762436,33.4882881 C329.707714,132.720007 329.531927,231.951726 331.553477,330.831872 C325.752508,331.007659 319.863646,331.095552 314.062678,331.271339 C278.641613,332.326061 249.109409,336.36916 251.746213,344.279571 C254.119337,351.574729 279.256867,356.93623 315.732654,357.815165 C326.367763,358.078845 336.914978,358.342525 347.637981,358.518312 Z" id="Shape"></path>
                        <path d="M109.467449,124.857057 C139.039951,128.094123 168.612454,133.005534 198.405646,129.321976 C202.047037,129.768468 205.798772,130.21496 209.440162,130.549829 C232.833336,132.447419 256.116164,133.005534 279.398992,128.428992 C286.019702,127.089517 291.53696,121.95486 290.985234,111.908792 C290.543853,102.644084 285.799012,95.8350828 279.067957,94.830476 C266.92999,92.9328854 254.571332,90.8120488 242.433364,91.0352948 C222.791926,91.4817867 203.150488,93.7142462 183.50905,95.1653449 C148.308945,82.3287025 112.226078,89.695819 76.5845919,87.0168676 C75.0397597,86.9052446 72.501821,90.8120488 71.7294049,93.4910003 C70.1845727,98.9605262 72.1707856,103.537068 75.26045,106.997381 C85.1915142,118.494547 97.2202399,123.517581 109.467449,124.857057 L109.467449,124.857057 Z" id="Shape"></path>
                        <path d="M75.1517517,179.948954 C85.0828159,191.446121 97.2207833,196.469155 109.469096,197.808631 C139.041598,201.045697 168.614101,205.957108 198.407293,202.27355 C202.048683,202.720042 205.800419,203.166534 209.441809,203.501403 C232.834983,205.398993 256.117811,205.957108 279.400639,201.380566 C286.021349,200.04109 291.538607,194.906433 290.986881,184.860365 C290.5455,175.595658 285.800658,168.786657 279.069604,167.78205 C266.931636,165.884459 254.572979,163.763623 242.435011,163.986869 C222.793573,164.433361 203.152135,166.66582 183.510697,168.116919 C148.310591,155.280276 112.227725,162.647393 76.5862388,159.968441 C75.0414066,159.856818 72.5034679,163.763623 71.7310518,166.442574 C70.1862196,171.800477 72.171329,176.488642 75.1517517,179.948954 L75.1517517,179.948954 Z" id="Shape"></path>
                        <path d="M75.1517517,252.021594 C85.0828159,263.51876 97.2207833,268.541794 109.469096,269.88127 C139.041598,273.118336 168.614101,278.029747 198.407293,274.346189 C202.048683,274.792681 205.800419,275.239173 209.441809,275.574042 C232.834983,277.471633 256.117811,278.029747 279.400639,273.453205 C286.021349,272.11373 291.538607,266.979073 290.986881,256.933005 C290.5455,247.668298 285.800658,240.859296 279.069604,239.854689 C266.931636,237.957098 254.572979,235.836262 242.435011,236.059508 C222.793573,236.506 203.152135,238.738459 183.510697,240.189558 C148.310591,227.352916 112.227725,234.720032 76.5862388,232.041081 C75.0414066,231.929458 72.5034679,235.836262 71.7310518,238.515213 C70.1862196,243.873116 72.171329,248.561281 75.1517517,252.021594 L75.1517517,252.021594 Z" id="Shape"></path>
                    </g>
                </g>
            </g>
        </g>
    </g>
</svg>