<svg width="320" height="320" viewBox="0 0 320 320" fill="none" xmlns="http://www.w3.org/2000/svg">
<g clip-path="url(#clip0_1004_7444)">
<path d="M160 0C281.326 0 320 38.6737 320 160C320 281.326 281.326 320 160 320C38.6736 320 0 281.326 0 160C0 38.6737 38.6736 0 160 0Z" fill="url(#paint0_linear_1004_7444)"/>
<path d="M160 2C220.573 2 259.85 11.6833 284.083 35.9168C308.317 60.1504 318 99.4272 318 160C318 220.573 308.317 259.85 284.083 284.083C259.85 308.317 220.573 318 160 318C99.4272 318 60.1504 308.317 35.9168 284.083C11.6833 259.85 2 220.573 2 160C2 99.4272 11.6833 60.1504 35.9168 35.9168C60.1504 11.6833 99.4272 2 160 2Z" stroke="#0F172A" stroke-opacity="0.2" stroke-width="4"/>
<g clip-path="url(#clip1_1004_7444)">
<path fill-rule="evenodd" clip-rule="evenodd" d="M230 180C230 111.754 208.246 90 140 90C71.7539 90 50 111.754 50 180C50 248.246 71.7539 270 140 270C208.246 270 230 248.246 230 180ZM90 155C90 146.716 96.7157 140 105 140H175C183.284 140 190 146.716 190 155C190 163.284 183.284 170 175 170H105C96.7157 170 90 163.284 90 155ZM90 205C90 196.716 96.7157 190 105 190H150C158.284 190 165 196.716 165 205C165 213.284 158.284 220 150 220H105C96.7157 220 90 213.284 90 205Z" fill="url(#paint1_linear_1004_7444)"/>
<path fill-rule="evenodd" clip-rule="evenodd" d="M270 140C270 71.7539 248.246 50 180 50C147.728 50 125.853 54.8644 111.757 67.2089C105.515 72.6759 111.428 81.2893 119.704 80.6824C126.016 80.2195 132.773 80 140 80C215.829 80 240 104.171 240 180C240 187.227 239.78 193.984 239.318 200.296C238.711 208.572 247.324 214.485 252.791 208.243C265.136 194.147 270 172.272 270 140Z" fill="url(#paint2_linear_1004_7444)"/>
</g>
</g>
<defs>
<linearGradient id="paint0_linear_1004_7444" x1="160" y1="0" x2="160" y2="320" gradientUnits="userSpaceOnUse">
<stop stop-color="#F8FAFC"/>
<stop offset="1" stop-color="#E2E8F0"/>
</linearGradient>
<linearGradient id="paint1_linear_1004_7444" x1="140" y1="90" x2="140" y2="270" gradientUnits="userSpaceOnUse">
<stop stop-color="#FB7185"/>
<stop offset="1" stop-color="#E11D48"/>
</linearGradient>
<linearGradient id="paint2_linear_1004_7444" x1="189.577" y1="50" x2="189.577" y2="210.846" gradientUnits="userSpaceOnUse">
<stop stop-color="#6EE7B7"/>
<stop offset="1" stop-color="#10B981"/>
</linearGradient>
<clipPath id="clip0_1004_7444">
<rect width="320" height="320" fill="white"/>
</clipPath>
<clipPath id="clip1_1004_7444">
<rect width="240" height="240" fill="white" transform="translate(40 40)"/>
</clipPath>
</defs>
</svg>
