<svg width="80" height="80" viewBox="0 0 80 80" fill="none" xmlns="http://www.w3.org/2000/svg">
<rect width="80" height="80" fill="url(#paint0_linear_963_3702)"/>
<path d="M31.6968 59.9999C30.4628 59.9991 29.474 61.118 29.9142 62.2707C30.2752 63.2159 30.7787 63.9936 31.481 64.6568C33.9619 67 37.955 67 45.9412 67H48.0588C56.045 67 60.038 67 62.519 64.6568C65 62.3138 65 58.5424 65 51V43C65 35.4575 65 31.6863 62.519 29.3431C61.4281 28.3129 60.0449 27.7356 58.1586 27.4122C56.9932 27.2124 55.9895 28.1809 55.996 29.3632C56.0002 30.1247 56.0002 30.9125 56.0001 31.7249V40.275C56.0003 43.8107 56.0005 46.8799 55.6501 49.342C55.2706 52.0073 54.4124 54.5375 52.2655 56.565C50.151 58.562 47.5674 59.3312 44.8573 59.6753C42.2973 60.0004 39.0892 60.0002 35.3137 60.0001H32.6867C32.3523 60.0001 32.0222 60.0001 31.6968 59.9999Z" fill="black" fill-opacity="0.2"/>
<path fill-rule="evenodd" clip-rule="evenodd" d="M49.519 18.3432C49.2631 18.1014 48.991 17.8847 48.7002 17.6902C48.3908 17.4834 47.9993 17.7234 47.9983 18.0955C47.9846 23.2749 47.8631 26.0918 46.7866 28.225C46.1076 29.5706 45.1759 30.7019 44.0678 31.5264C42.0875 33 39.3914 33 34 33C28.6086 33 25.9125 33 23.9322 31.5264C22.8241 30.7019 21.8924 29.5706 21.2134 28.225C20.1369 26.0918 20.0154 23.2749 20.0016 18.0955C20.0007 17.7234 19.6092 17.4834 19.2998 17.6902C19.009 17.8846 18.7369 18.1014 18.481 18.3432C16 20.6863 16 24.4575 16 32V40C16 47.5424 16 51.3138 18.481 53.6568C20.962 56 24.955 56 32.9412 56H35.0588C43.045 56 47.038 56 49.519 53.6568C52 51.3138 52 47.5424 52 40V32C52 24.4575 52 20.6863 49.519 18.3432ZM24 38C22.8954 38 22 38.8954 22 40C22 41.1046 22.8954 42 24 42H44C45.1046 42 46 41.1046 46 40C46 38.8954 45.1046 38 44 38H24ZM22 48C22 46.8954 22.8954 46 24 46H44C45.1046 46 46 46.8954 46 48C46 49.1046 45.1046 50 44 50H24C22.8954 50 22 49.1046 22 48Z" fill="black" fill-opacity="0.2"/>
<path d="M24.9372 16.2215C23.7928 16.3449 23 17.349 23 18.5C23 22.9288 23 25.1431 23.9534 26.7699C24.4869 27.6801 25.219 28.4454 26.0896 29.0032C27.6456 30 29.7639 30 34 30C38.2361 30 40.3544 30 41.9104 29.0032C42.781 28.4454 43.5131 27.6801 44.0466 26.7699C45 25.1431 45 22.9288 45 18.5C45 17.349 44.2072 16.3449 43.0628 16.2215C41.0091 16 38.3889 16 34.9705 16H33.0294C29.6111 16 26.9909 16 24.9372 16.2215Z" fill="black" fill-opacity="0.2"/>
<path fill-rule="evenodd" clip-rule="evenodd" d="M30.5191 58.9976C29.9021 58.9955 29.4219 59.5466 29.5682 60.146C29.9287 61.6228 30.5179 62.7474 31.4809 63.6568C33.9619 66 37.9549 66 45.9411 66H48.0587C56.0449 66 60.0379 66 62.5189 63.6568C64.9999 61.3138 64.9999 57.5424 64.9999 50V42C64.9999 34.4575 64.9999 30.6863 62.5189 28.3431C61.2274 27.1234 59.5262 26.5386 57.0652 26.2582C56.4778 26.1913 55.9786 26.6683 55.9862 27.2595C56.0002 28.356 56.0001 29.5131 56.0001 30.7249V30.725L56 31V39L56.0001 39.275V39.2751C56.0003 42.8107 56.0005 45.8798 55.65 48.3419C55.2706 51.0073 54.4123 53.5375 52.2654 55.565C50.1509 57.562 47.5673 58.3311 44.8573 58.6753C42.2973 59.0003 39.0891 59.0002 35.3136 59H35.3136H35.3135H35.3135H32.6866H32.6865H32.6865H32.6865C31.9417 59.0001 31.2191 59.0001 30.5191 58.9976Z" fill="url(#paint1_linear_963_3702)"/>
<path fill-rule="evenodd" clip-rule="evenodd" d="M49.519 17.3432C49.2631 17.1014 48.991 16.8847 48.7002 16.6902C48.3908 16.4834 47.9993 16.7234 47.9983 17.0955C47.9846 22.2749 47.8631 25.0918 46.7866 27.225C46.1076 28.5706 45.1759 29.7019 44.0678 30.5264C42.0875 32 39.3914 32 34 32C28.6086 32 25.9125 32 23.9322 30.5264C22.8241 29.7019 21.8924 28.5706 21.2134 27.225C20.1369 25.0918 20.0154 22.2749 20.0016 17.0955C20.0007 16.7234 19.6092 16.4834 19.2998 16.6902C19.009 16.8846 18.7369 17.1014 18.481 17.3432C16 19.6863 16 23.4575 16 31V39C16 46.5424 16 50.3138 18.481 52.6568C20.962 55 24.955 55 32.9412 55H35.0588C43.045 55 47.038 55 49.519 52.6568C52 50.3138 52 46.5424 52 39V31C52 23.4575 52 19.6863 49.519 17.3432ZM24 37C22.8954 37 22 37.8954 22 39C22 40.1046 22.8954 41 24 41H44C45.1046 41 46 40.1046 46 39C46 37.8954 45.1046 37 44 37H24ZM22 47C22 45.8954 22.8954 45 24 45H44C45.1046 45 46 45.8954 46 47C46 48.1046 45.1046 49 44 49H24C22.8954 49 22 48.1046 22 47Z" fill="url(#paint2_linear_963_3702)"/>
<path fill-rule="evenodd" clip-rule="evenodd" d="M24.9372 15.2215C23.7928 15.3449 23 16.349 23 17.5C23 21.9288 23 24.1431 23.9534 25.7699C24.4869 26.6801 25.219 27.4454 26.0896 28.0032C27.6456 29 29.7639 29 34 29C38.2361 29 40.3544 29 41.9104 28.0032C42.781 27.4454 43.5131 26.6801 44.0466 25.7699C45 24.1431 45 21.9288 45 17.5C45 16.349 44.2072 15.3449 43.0628 15.2215C41.0091 15 38.3889 15 34.9705 15H33.0294C29.6111 15 26.9909 15 24.9372 15.2215Z" fill="url(#paint3_linear_963_3702)"/>
<defs>
<linearGradient id="paint0_linear_963_3702" x1="40" y1="0" x2="40" y2="80" gradientUnits="userSpaceOnUse">
<stop stop-color="#0D9488"/>
<stop offset="1" stop-color="#134E4A"/>
</linearGradient>
<linearGradient id="paint1_linear_963_3702" x1="47.2708" y1="26.2519" x2="47.2708" y2="66" gradientUnits="userSpaceOnUse">
<stop stop-color="#F9FAFB"/>
<stop offset="1" stop-color="#9CA3AF"/>
</linearGradient>
<linearGradient id="paint2_linear_963_3702" x1="34" y1="16.614" x2="34" y2="55" gradientUnits="userSpaceOnUse">
<stop stop-color="#F9FAFB"/>
<stop offset="1" stop-color="#9CA3AF"/>
</linearGradient>
<linearGradient id="paint3_linear_963_3702" x1="34" y1="15" x2="34" y2="29" gradientUnits="userSpaceOnUse">
<stop stop-color="#FDE68A"/>
<stop offset="1" stop-color="#D97706"/>
</linearGradient>
</defs>
</svg>
