<?xml version="1.0" encoding="UTF-8"?>
<svg width="64px" height="64px" viewBox="0 0 64 64" version="1.1" xmlns="http://www.w3.org/2000/svg" xmlns:xlink="http://www.w3.org/1999/xlink">
    <!-- Generator: Sketch 54.1 (76490) - https://sketchapp.com -->
    <title>posts</title>
    <desc>Created with Sketch.</desc>
    <defs>
        <path d="M32,64 C46.0222222,64 53.8173667,64 58.9086889,58.9086889 C64,53.8173667 64,46.0222222 64,32 C64,17.9777778 64,10.1826333 58.9086889,5.09131111 C53.8173667,0 46.0222222,0 32,0 C17.9777778,0 10.1826333,0 5.09131111,5.09131111 C0,10.1826333 0,17.9777778 0,32 C0,46.0222222 0,53.8173667 5.09131111,58.9086889 C10.1826333,64 17.9777778,64 32,64 Z" id="path-1"></path>
        <linearGradient x1="50%" y1="0%" x2="50%" y2="100%" id="linearGradient-3">
            <stop stop-color="#FDFEFF" offset="0%"></stop>
            <stop stop-color="#FBFCFD" stop-opacity="0.9" offset="100%"></stop>
        </linearGradient>
        <path d="M17.7777778,10.625 L17.7777778,0 L1.9047619,0 C0.849206349,0 0,0.8359375 0,1.875 L0,38.125 C0,39.1640625 0.849206349,40 1.9047619,40 L28.5714286,40 C29.6269841,40 30.4761905,39.1640625 30.4761905,38.125 L30.4761905,12.5 L19.6825397,12.5 C18.6349206,12.5 17.7777778,11.65625 17.7777778,10.625 Z M22.8571429,29.0625 C22.8571429,29.578125 22.4285714,30 21.9047619,30 L8.57142857,30 C8.04761905,30 7.61904762,29.578125 7.61904762,29.0625 L7.61904762,28.4375 C7.61904762,27.921875 8.04761905,27.5 8.57142857,27.5 L21.9047619,27.5 C22.4285714,27.5 22.8571429,27.921875 22.8571429,28.4375 L22.8571429,29.0625 Z M22.8571429,24.0625 C22.8571429,24.578125 22.4285714,25 21.9047619,25 L8.57142857,25 C8.04761905,25 7.61904762,24.578125 7.61904762,24.0625 L7.61904762,23.4375 C7.61904762,22.921875 8.04761905,22.5 8.57142857,22.5 L21.9047619,22.5 C22.4285714,22.5 22.8571429,22.921875 22.8571429,23.4375 L22.8571429,24.0625 Z M22.8571429,18.4375 L22.8571429,19.0625 C22.8571429,19.578125 22.4285714,20 21.9047619,20 L8.57142857,20 C8.04761905,20 7.61904762,19.578125 7.61904762,19.0625 L7.61904762,18.4375 C7.61904762,17.921875 8.04761905,17.5 8.57142857,17.5 L21.9047619,17.5 C22.4285714,17.5 22.8571429,17.921875 22.8571429,18.4375 Z M30.4761905,9.5234375 L30.4761905,10 L20.3174603,10 L20.3174603,0 L20.8015873,0 C21.3095238,0 21.7936508,0.1953125 22.1507937,0.546875 L29.9206349,8.203125 C30.2777778,8.5546875 30.4761905,9.03125 30.4761905,9.5234375 Z" id="path-4"></path>
        <filter x="-6.6%" y="-2.5%" width="113.1%" height="110.0%" filterUnits="objectBoundingBox" id="filter-5">
            <feOffset dx="0" dy="1" in="SourceAlpha" result="shadowOffsetOuter1"></feOffset>
            <feGaussianBlur stdDeviation="0.5" in="shadowOffsetOuter1" result="shadowBlurOuter1"></feGaussianBlur>
            <feColorMatrix values="0 0 0 0 0   0 0 0 0 0   0 0 0 0 0  0 0 0 0.1 0" type="matrix" in="shadowBlurOuter1"></feColorMatrix>
        </filter>
    </defs>
    <g id="Page-1" stroke="none" stroke-width="1" fill="none" fill-rule="evenodd">
        <g id="Artboard" transform="translate(-340.000000, -430.000000)">
            <g id="posts" transform="translate(340.000000, 430.000000)">
                <mask id="mask-2" fill="white">
                    <use xlink:href="#path-1"></use>
                </mask>
                <use id="Path" fill="#00B356" xlink:href="#path-1"></use>
                <g id="file-alt" mask="url(#mask-2)" fill-rule="nonzero">
                    <g transform="translate(17.000000, 12.000000)" id="Shape">
                        <g>
                            <use fill="black" fill-opacity="1" filter="url(#filter-5)" xlink:href="#path-4"></use>
                            <use fill="url(#linearGradient-3)" xlink:href="#path-4"></use>
                        </g>
                    </g>
                </g>
            </g>
        </g>
    </g>
</svg>