<svg width="48" height="48" viewBox="0 0 48 48" fill="none" xmlns="http://www.w3.org/2000/svg">
<rect width="48" height="48" fill="url(#paint0_linear_221_2584)"/>
<path d="M22.6613 14.3644C23.0538 15.0406 23.25 15.3787 23.25 15.75C23.25 16.1213 23.0538 16.4594 22.6613 17.1356L20.7871 20.3644C20.3945 21.0406 20.1983 21.3787 19.875 21.5643C19.5517 21.75 19.1592 21.75 18.3741 21.75H14.6259C13.8408 21.75 13.4483 21.75 13.125 21.5643C12.8017 21.3787 12.6055 21.0406 12.2129 20.3644L10.3388 17.1356C9.94626 16.4594 9.75 16.1213 9.75 15.75C9.75 15.3787 9.94626 15.0406 10.3388 14.3644L12.2129 11.1356C12.6055 10.4594 12.8017 10.1213 13.125 9.93564C13.4483 9.75 13.8408 9.75 14.6259 9.75H18.3741C19.1592 9.75 19.5517 9.75 19.875 9.93564C20.1983 10.1213 20.3945 10.4594 20.7871 11.1356L22.6613 14.3644Z" stroke="white" stroke-width="2.25" stroke-linecap="round" stroke-linejoin="round"/>
<path d="M37.6613 23.3643C38.0538 24.0406 38.25 24.3787 38.25 24.75C38.25 25.1213 38.0538 25.4594 37.6613 26.1357L35.787 29.3643C35.3946 30.0406 35.1982 30.3787 34.875 30.5643C34.5518 30.75 34.1592 30.75 33.3741 30.75H29.6259C28.8408 30.75 28.4482 30.75 28.125 30.5643C27.8018 30.3787 27.6054 30.0406 27.213 29.3643L25.3387 26.1357C24.9462 25.4594 24.75 25.1213 24.75 24.75C24.75 24.3787 24.9462 24.0406 25.3387 23.3643L27.213 20.1356C27.6054 19.4594 27.8018 19.1213 28.125 18.9356C28.4482 18.75 28.8408 18.75 29.6259 18.75H33.3741C34.1592 18.75 34.5518 18.75 34.875 18.9356C35.1982 19.1213 35.3946 19.4594 35.787 20.1356L37.6613 23.3643Z" stroke="white" stroke-width="2.25" stroke-linecap="round" stroke-linejoin="round"/>
<path d="M22.6613 30.8643C23.0538 31.5407 23.25 31.8787 23.25 32.25C23.25 32.6213 23.0538 32.9593 22.6613 33.6357L20.7871 36.8643C20.3945 37.5407 20.1983 37.8787 19.875 38.0643C19.5517 38.25 19.1592 38.25 18.3741 38.25H14.6259C13.8408 38.25 13.4483 38.25 13.125 38.0643C12.8017 37.8787 12.6055 37.5407 12.2129 36.8643L10.3388 33.6357C9.94626 32.9593 9.75 32.6213 9.75 32.25C9.75 31.8787 9.94626 31.5407 10.3388 30.8643L12.2129 27.6357C12.6055 26.9594 12.8017 26.6213 13.125 26.4357C13.4483 26.25 13.8408 26.25 14.6259 26.25H18.3741C19.1592 26.25 19.5517 26.25 19.875 26.4357C20.1983 26.6213 20.3945 26.9594 20.7871 27.6357L22.6613 30.8643Z" stroke="white" stroke-width="2.25" stroke-linecap="round" stroke-linejoin="round"/>
<defs>
<linearGradient id="paint0_linear_221_2584" x1="24" y1="0" x2="24" y2="48" gradientUnits="userSpaceOnUse">
<stop stop-color="#F43F5E"/>
<stop offset="1" stop-color="#BE123C"/>
</linearGradient>
</defs>
</svg>
