<?xml version="1.0" encoding="UTF-8"?>
<svg width="64px" height="64px" viewBox="0 0 64 64" version="1.1" xmlns="http://www.w3.org/2000/svg" xmlns:xlink="http://www.w3.org/1999/xlink">
    <!-- Generator: Sketch 55 (78076) - https://sketchapp.com -->
    <title>photos</title>
    <desc>Created with Sketch.</desc>
    <defs>
        <path d="M32,64 C46.0222222,64 53.8173667,64 58.9086889,58.9086889 C64,53.8173667 64,46.0222222 64,32 C64,17.9777778 64,10.1826333 58.9086889,5.09131111 C53.8173667,0 46.0222222,0 32,0 C17.9777778,0 10.1826333,0 5.09131111,5.09131111 C0,10.1826333 0,17.9777778 0,32 C0,46.0222222 0,53.8173667 5.09131111,58.9086889 C10.1826333,64 17.9777778,64 32,64 Z" id="path-1"></path>
        <linearGradient x1="50%" y1="0%" x2="50%" y2="100%" id="linearGradient-3">
            <stop stop-color="#FDFEFF" offset="0%"></stop>
            <stop stop-color="#FBFCFD" stop-opacity="0.9" offset="100%"></stop>
        </linearGradient>
        <path d="M39,8.5 L39,30.3571429 C39,32.3683036 37.3623047,34 35.34375,34 L3.65625,34 C1.63769531,34 0,32.3683036 0,30.3571429 L0,8.5 C0,6.48883929 1.63769531,4.85714286 3.65625,4.85714286 L10.359375,4.85714286 L11.2962891,2.36026786 C11.8294922,0.941071429 13.1929688,0 14.7164063,0 L24.2759766,0 C25.7994141,0 27.1628906,0.941071429 27.6960938,2.36026786 L28.640625,4.85714286 L35.34375,4.85714286 C37.3623047,4.85714286 39,6.48883929 39,8.5 Z M28.640625,19.4285714 C28.640625,14.4044643 24.5425781,10.3214286 19.5,10.3214286 C14.4574219,10.3214286 10.359375,14.4044643 10.359375,19.4285714 C10.359375,24.4526786 14.4574219,28.5357143 19.5,28.5357143 C24.5425781,28.5357143 28.640625,24.4526786 28.640625,19.4285714 Z M26.203125,19.4285714 C26.203125,23.109375 23.1943359,26.1071429 19.5,26.1071429 C15.8056641,26.1071429 12.796875,23.109375 12.796875,19.4285714 C12.796875,15.7477679 15.8056641,12.75 19.5,12.75 C23.1943359,12.75 26.203125,15.7477679 26.203125,19.4285714 Z M17.0625,19.4285714 C17.0625,18.0928571 18.159375,17 19.5,17 C20.1703125,17 20.71875,16.4535714 20.71875,15.7857143 C20.71875,15.1178571 20.1703125,14.5714286 19.5,14.5714286 C16.8111328,14.5714286 14.625,16.7495536 14.625,19.4285714 C14.625,20.0964286 15.1734375,20.6428571 15.84375,20.6428571 C16.5140625,20.6428571 17.0625,20.0964286 17.0625,19.4285714 Z" id="path-4"></path>
        <filter x="-5.1%" y="-2.9%" width="110.3%" height="111.8%" filterUnits="objectBoundingBox" id="filter-5">
            <feOffset dx="0" dy="1" in="SourceAlpha" result="shadowOffsetOuter1"></feOffset>
            <feGaussianBlur stdDeviation="0.5" in="shadowOffsetOuter1" result="shadowBlurOuter1"></feGaussianBlur>
            <feColorMatrix values="0 0 0 0 0   0 0 0 0 0   0 0 0 0 0  0 0 0 0.1 0" type="matrix" in="shadowBlurOuter1"></feColorMatrix>
        </filter>
    </defs>
    <g id="Page-1" stroke="none" stroke-width="1" fill="none" fill-rule="evenodd">
        <g id="Artboard" transform="translate(-1393.000000, -430.000000)">
            <g id="photos" transform="translate(1393.000000, 430.000000)">
                <mask id="mask-2" fill="white">
                    <use xlink:href="#path-1"></use>
                </mask>
                <use id="Path" fill="#00B356" xlink:href="#path-1"></use>
                <g id="camera-alt" mask="url(#mask-2)" fill-rule="nonzero">
                    <g transform="translate(13.000000, 14.000000)" id="Shape">
                        <g>
                            <use fill="black" fill-opacity="1" filter="url(#filter-5)" xlink:href="#path-4"></use>
                            <use fill="url(#linearGradient-3)" xlink:href="#path-4"></use>
                        </g>
                    </g>
                </g>
            </g>
        </g>
    </g>
</svg>