<?xml version="1.0" encoding="utf-8"?>
<!-- Generator: Adobe Illustrator 20.1.0, SVG Export Plug-In . SVG Version: 6.00 Build 0)  -->
<svg version="1.1" id="Слой_1" xmlns="http://www.w3.org/2000/svg" xmlns:xlink="http://www.w3.org/1999/xlink" x="0px" y="0px"
	 viewBox="0 0 600 600" style="enable-background:new 0 0 600 600;" xml:space="preserve">
<style type="text/css">
	.st0{fill:#2BAF92;}
	.st1{fill:url(#path-copy_1_);}
	.st2{fill:#FFFFFF;}
</style>
<g id="Слой_1_1_">
	<title>Group 2 Copy 4</title>
	<desc>Created with Sketch.</desc>
	<g id="Page-1">
		<g id="Group-2-Copy-4">
			<path id="path" class="st0" d="M552.3,552.3C600,504.5,600,431.5,600,300s0-204.5-47.7-252.3C504.5,0,431.5,0,300,0
				S95.5,0,47.7,47.7C0,95.5,0,168.5,0,300s0,204.5,47.7,252.3C95.5,600,168.5,600,300,600S504.5,600,552.3,552.3L552.3,552.3z"/>
			
				<linearGradient id="path-copy_1_" gradientUnits="userSpaceOnUse" x1="707.32" y1="365.18" x2="707.32" y2="364.18" gradientTransform="matrix(600 0 0 -600 -424092 219108)">
				<stop  offset="0" style="stop-color:#FFFFFF;stop-opacity:0.2"/>
				<stop  offset="1" style="stop-color:#000000;stop-opacity:0.1389"/>
			</linearGradient>
			<path id="path-copy" class="st1" d="M552.3,552.3C600,504.5,600,431.5,600,300s0-204.5-47.7-252.3C504.5,0,431.5,0,300,0
				S95.5,0,47.7,47.7C0,95.5,0,168.5,0,300s0,204.5,47.7,252.3C95.5,600,168.5,600,300,600S504.5,600,552.3,552.3L552.3,552.3z"/>
		</g>
	</g>
</g>
<g>
	<g>
		<path class="st2" d="M486.9,139.2c-5.4-5.5-12-8.3-19.7-8.3H132.8c-7.7,0-14.3,2.8-19.7,8.3c-5.4,5.5-8.2,12.1-8.2,19.9v281.7
			c0,7.8,2.7,14.4,8.2,19.9c5.4,5.5,12,8.3,19.7,8.3h334.4c7.7,0,14.3-2.8,19.7-8.3c5.4-5.5,8.2-12.1,8.2-19.9V159.1
			C495.1,151.3,492.4,144.7,486.9,139.2z M160.6,145h83.6v28.2h-83.6V145z M467.2,440.8H132.8v-28.2h334.5L467.2,440.8L467.2,440.8z
			 M216.4,314.5c0-23.3,8.2-43.3,24.5-59.8c16.3-16.5,36-24.8,59.1-24.8c23.1,0,42.8,8.3,59.1,24.8c16.3,16.5,24.5,36.4,24.5,59.8
			c0,23.3-8.2,43.3-24.5,59.8c-16.3,16.5-36,24.8-59.1,24.8c-23.1,0-42.8-8.3-59.1-24.8C224.6,357.7,216.4,337.8,216.4,314.5z
			 M467.2,189.5v26H132.8v-28.2H273l13.9-28.2h180.3V189.5L467.2,189.5z"/>
		<path class="st2" d="M339.4,354.3c10.9-11,16.3-24.3,16.3-39.8c0-15.6-5.4-28.8-16.3-39.8c-10.9-11-24-16.5-39.4-16.5
			c-15.4,0-28.5,5.5-39.4,16.5c-10.9,11-16.3,24.3-16.3,39.8c0,15.6,5.4,28.8,16.3,39.8c10.9,11,24,16.5,39.4,16.5
			C315.4,370.8,328.5,365.3,339.4,354.3z M285.2,299.1c-4.1,4.1-6.1,9.1-6.1,15c0,2.1-0.7,3.7-2,5.1c-1.3,1.3-3,2-5,2
			c-2,0-3.7-0.7-5-2c-1.3-1.3-2-3-2-5.1c0-9.7,3.4-18,10.2-24.9c6.8-6.9,15-10.3,24.6-10.3c2,0,3.7,0.7,5,2c1.3,1.3,2,3,2,5.1
			c0,2.1-0.7,3.7-2,5.1c-1.3,1.3-3,2-5,2C294.2,292.9,289.3,295,285.2,299.1z"/>
	</g>
</g>
</svg>
