<svg width="48" height="48" viewBox="0 0 48 48" fill="none" xmlns="http://www.w3.org/2000/svg">
<rect width="48" height="48" fill="url(#paint0_linear_337_1878)"/>
<path d="M17.25 19C18.4926 19 19.5 17.9926 19.5 16.75C19.5 15.5074 18.4926 14.5 17.25 14.5C16.0074 14.5 15 15.5074 15 16.75C15 17.9926 16.0074 19 17.25 19Z" stroke="white" stroke-width="2.25" stroke-linecap="round" stroke-linejoin="round"/>
<path d="M9.75 23.5C9.75 16.7825 9.75 13.4237 11.8369 11.3369C13.9237 9.25 17.2825 9.25 24 9.25C30.7175 9.25 34.0763 9.25 36.1632 11.3369C38.25 13.4237 38.25 16.7825 38.25 23.5C38.25 30.2175 38.25 33.5763 36.1632 35.6632C34.0763 37.75 30.7175 37.75 24 37.75C17.2825 37.75 13.9237 37.75 11.8369 35.6632C9.75 33.5763 9.75 30.2175 9.75 23.5Z" stroke="white" stroke-width="2.25"/>
<path d="M13.5 36.9998C20.0587 29.1625 27.4111 18.826 38.2462 25.8136" stroke="white" stroke-width="2.25"/>
<defs>
<linearGradient id="paint0_linear_337_1878" x1="24" y1="0" x2="24" y2="48" gradientUnits="userSpaceOnUse">
<stop stop-color="#0D9488"/>
<stop offset="1" stop-color="#0F766E"/>
</linearGradient>
</defs>
</svg>
