<?xml version="1.0" encoding="UTF-8" standalone="no"?>
<!DOCTYPE svg PUBLIC "-//W3C//DTD SVG 1.1//EN" "http://www.w3.org/Graphics/SVG/1.1/DTD/svg11.dtd">
<svg width="100%" height="100%" viewBox="0 0 64 64" version="1.1" xmlns="http://www.w3.org/2000/svg" xmlns:xlink="http://www.w3.org/1999/xlink" xml:space="preserve" xmlns:serif="http://www.serif.com/" style="fill-rule:evenodd;clip-rule:evenodd;stroke-linejoin:round;stroke-miterlimit:2;">
    <g transform="matrix(1,0,0,1,-264,-64)">
        <g id="reviews" transform="matrix(1,0,0,1,264,64)">
            <path id="Path" d="M32,64C46.022,64 53.817,64 58.909,58.909C64,53.817 64,46.022 64,32C64,17.978 64,10.183 58.909,5.091C53.817,0 46.022,0 32,0C17.978,0 10.183,0 5.091,5.091C0,10.183 0,17.978 0,32C0,46.022 0,53.817 5.091,58.909C10.183,64 17.978,64 32,64Z" style="fill:rgb(0,179,86);"/>
            <g id="star" transform="matrix(0.0824653,0,0,0.0824653,32,31.2778)">
                <g transform="matrix(1,0,0,1,-288,-256)">
                    <clipPath id="_clip1">
                        <rect x="0" y="0" width="576" height="512"/>
                    </clipPath>
                    <g clip-path="url(#_clip1)">
                        <g transform="matrix(1,0,0,1,-0.00547647,-0.0157042)">
                            <path d="M528.53,171.5L382.17,150.2L316.74,17.81C305.03,-5.78 271.06,-6.08 259.26,17.81L193.83,150.2L47.47,171.5C21.2,175.29 10.68,207.58 29.72,226.08L135.63,329.08L110.63,474.57C106.11,500.87 133.85,520.57 157.11,508.26L288,439.56L418.93,508.25C442.19,520.46 469.93,500.86 465.41,474.56L440.41,329.07L546.32,226.07C565.32,207.58 554.8,175.29 528.53,171.5ZM437.64,242.5L371.59,306.73L387.22,397.59C387.335,398.261 387.393,398.942 387.393,399.623C387.393,406.206 381.976,411.623 375.393,411.623C373.452,411.623 371.539,411.152 369.82,410.25L288,367.27L206.18,410.21C204.461,411.112 202.548,411.583 200.607,411.583C194.024,411.583 188.607,406.166 188.607,399.583C188.607,398.902 188.665,398.221 188.78,397.55L204.41,306.69L138.41,242.46C136.094,240.202 134.786,237.101 134.786,233.866C134.786,227.955 139.154,222.88 145,222L236.34,208.72L277.24,125.91C279.259,121.821 283.44,119.222 288,119.222C292.56,119.222 296.741,121.821 298.76,125.91L339.66,208.72L431,222C436.865,222.861 441.258,227.945 441.258,233.873C441.258,237.104 439.952,240.203 437.64,242.46L437.64,242.5Z" style="fill:white;fill-opacity:0.6;fill-rule:nonzero;"/>
                        </g>
                        <g transform="matrix(1,0,0,1,-0.00547647,-0.0157042)">
                            <path d="M121.755,504.587C122.107,504.898 382.17,150.2 382.17,150.2L316.74,17.81C305.03,-5.78 271.06,-6.08 259.26,17.81L193.83,150.2L47.47,171.5C21.2,175.29 10.68,207.58 29.72,226.08L135.63,329.08L110.63,474.57C108.511,486.898 113.165,496.995 121.755,504.587ZM437.64,242.5L371.59,306.73L387.22,397.59C387.335,398.261 387.393,398.942 387.393,399.623C387.393,406.206 381.976,411.623 375.393,411.623C373.452,411.623 371.539,411.152 369.82,410.25L288,367.27L206.18,410.21C204.461,411.112 202.548,411.583 200.607,411.583C194.024,411.583 188.607,406.166 188.607,399.583C188.607,398.902 188.665,398.221 188.78,397.55L204.41,306.69L138.41,242.46C136.094,240.202 134.786,237.101 134.786,233.866C134.786,227.955 139.154,222.88 145,222L236.34,208.72L277.24,125.91C279.259,121.821 283.44,119.222 288,119.222C292.56,119.222 296.741,121.821 298.76,125.91L339.66,208.72L431,222C436.865,222.861 441.258,227.945 441.258,233.873C441.258,237.104 439.952,240.203 437.64,242.46L437.64,242.5Z" style="fill:white;fill-opacity:0.26;fill-rule:nonzero;"/>
                        </g>
                        <path d="M437.64,242.46L371.59,306.69L387.22,397.55C387.335,398.221 387.393,398.902 387.393,399.583C387.393,406.166 381.976,411.583 375.393,411.583C373.452,411.583 371.539,411.112 369.82,410.21L288,367.27L206.18,410.21C204.461,411.112 202.548,411.583 200.607,411.583C194.024,411.583 188.607,406.166 188.607,399.583C188.607,398.902 188.665,398.221 188.78,397.55L204.41,306.69L138.41,242.46C136.094,240.202 134.786,237.101 134.786,233.866C134.786,227.955 139.154,222.88 145,222L236.34,208.72L277.24,125.91C279.259,121.821 283.44,119.222 288,119.222C292.56,119.222 296.741,121.821 298.76,125.91L339.66,208.72L431,222C436.865,222.861 441.258,227.945 441.258,233.873C441.258,237.104 439.952,240.203 437.64,242.46Z" style="fill:white;fill-rule:nonzero;"/>
                    </g>
                </g>
            </g>
        </g>
    </g>
</svg>
