<?xml version="1.0" encoding="UTF-8" standalone="no"?>
<svg
   xmlns:dc="http://purl.org/dc/elements/1.1/"
   xmlns:cc="http://creativecommons.org/ns#"
   xmlns:rdf="http://www.w3.org/1999/02/22-rdf-syntax-ns#"
   xmlns:svg="http://www.w3.org/2000/svg"
   xmlns="http://www.w3.org/2000/svg"
   xmlns:sodipodi="http://sodipodi.sourceforge.net/DTD/sodipodi-0.dtd"
   xmlns:inkscape="http://www.inkscape.org/namespaces/inkscape"
   version="1.1"
   x="0px"
   y="0px"
   viewBox="0 0 64 64"
   style="enable-background:new 0 0 64 64;"
   xml:space="preserve"
   id="svg1326"
   sodipodi:docname="std-icon.svg"
   inkscape:version="1.0 (6e3e5246a0, 2020-05-07)"><metadata
   id="metadata1332"><rdf:RDF><cc:Work
       rdf:about=""><dc:format>image/svg+xml</dc:format><dc:type
         rdf:resource="http://purl.org/dc/dcmitype/StillImage" /></cc:Work></rdf:RDF></metadata><defs
   id="defs1330" /><sodipodi:namedview
   inkscape:document-rotation="0"
   pagecolor="#ffffff"
   bordercolor="#666666"
   borderopacity="1"
   objecttolerance="10"
   gridtolerance="10"
   guidetolerance="10"
   inkscape:pageopacity="0"
   inkscape:pageshadow="2"
   inkscape:window-width="1920"
   inkscape:window-height="1015"
   id="namedview1328"
   showgrid="false"
   inkscape:zoom="9.3139221"
   inkscape:cx="39.922411"
   inkscape:cy="43.336403"
   inkscape:window-x="0"
   inkscape:window-y="0"
   inkscape:window-maximized="1"
   inkscape:current-layer="svg1326" />
<style
   type="text/css"
   id="style1311">
	.st0{fill:#ffd800;}
	.st1{fill:#FFFFFF;}
</style>
<g
   id="Слой_1">
	<title
   id="title1313">contact</title>
	<desc
   id="desc1315">Created with Sketch.</desc>
	<g
   id="Page-1">
		<g
   id="Artboard"
   transform="translate(-826.000000, -430.000000)">
			<g
   id="contact"
   transform="translate(826.000000, 430.000000)">
				<g
   id="Path">
					<path
   id="path-1_1_"
   class="st0"
   d="M32,64c14,0,21.8,0,26.9-5.1S64,46,64,32s0-21.8-5.1-26.9S46,0,32,0S10.2,0,5.1,5.1       S0,18,0,32s0,21.8,5.1,26.9S18,64,32,64z"
   style="fill:#00b356;fill-opacity:1" />
				</g>
			</g>
		</g>
	</g>
</g>
<g
   id="Слой_3">
	<path
   d="M512 650.376533c-21.077333 0-38.161067-26.077867-38.161067-58.282667L473.838933 271.479467c0-32.2048 17.083733-58.282667 38.161067-58.282667 21.060267 0 38.161067 26.077867 38.161067 58.282667l0 320.631467C550.161067 624.298667 533.060267 650.376533 512 650.376533L512 650.376533zM512.017067 810.820267c-26.555733 0-48.0256-21.521067-48.0256-48.042667 0-26.504533 21.486933-48.008533 48.0256-48.008533 26.5216 0 48.008533 21.486933 48.008533 48.008533C560.008533 789.2992 538.538667 810.820267 512.017067 810.820267L512.017067 810.820267zM983.7568 312.695467c-25.787733-60.9792-62.702933-115.712-109.704533-162.747733-47.018667-47.018667-101.768533-83.9168-162.747733-109.7216C648.174933 13.533867 581.12 0 512 0s-136.174933 13.533867-199.304533 40.226133c-60.9792 25.787733-115.729067 62.702933-162.730667 109.7216-47.018667 47.018667-83.933867 101.768533-109.7216 162.747733C13.533867 375.825067 0 442.88 0 512s13.533867 136.174933 40.2432 199.304533c25.787733 60.962133 62.702933 115.729067 109.7216 162.730667 47.0016 47.018667 101.751467 83.933867 162.730667 109.7216C375.825067 1010.466133 442.88 1024 512 1024c128.2048 0 250.845867-47.598933 345.3952-134.0416 8.328533-7.6288 8.891733-20.565333 1.28-28.910933-7.611733-8.328533-20.565333-8.9088-28.910933-1.297067C742.792533 939.264 629.947733 983.074133 512 983.074133c-63.607467 0-125.303467-12.4416-183.364267-37.0176-56.081067-23.722667-106.461867-57.685333-149.725867-100.949333-43.264-43.281067-77.226667-93.6448-100.949333-149.742933C53.384533 637.303467 40.925867 575.607467 40.925867 512s12.4416-125.303467 37.0176-183.364267c23.722667-56.081067 57.685333-106.461867 100.949333-149.725867s93.6448-77.243733 149.725867-100.9664C386.696533 53.367467 448.392533 40.925867 512 40.925867c63.624533 0 125.303467 12.4416 183.364267 37.000533 56.098133 23.722667 106.461867 57.7024 149.725867 100.9664s77.226667 93.6448 100.949333 149.725867c24.558933 58.0608 37.0176 119.773867 37.0176 183.364267 0 83.968-22.3744 166.4-64.6656 238.353067-5.7344 9.762133-2.474667 22.306133 7.287467 28.040533 9.728 5.7344 22.272 2.474667 28.0064-7.287467C999.68 692.872533 1024 603.255467 1024 512 1024 442.88 1010.449067 375.825067 983.7568 312.695467z"
   id="path1323" />
</g>
<path
   sodipodi:nodetypes="sssssssssscssccscccscccscccscccscscscscscccsss"
   style="overflow:hidden;fill:#eeeeee;fill-opacity:1;stroke-width:0.0537107"
   id="path1145"
   d="m 31.967129,38.861491 c -1.132082,0 -2.69134,-0.540841 -2.69134,-3.022488 V 18.510574 c 0,-2.909786 1.559258,-3.130417 2.69134,-3.130417 1.131167,0 2.387505,0.650528 2.370502,3.4542 l -0.103788,17.113489 c -0.01505,2.480685 -1.135547,2.913645 -2.266714,2.913645 z m 8.65e-4,8.617582 c -2.071145,0 -2.793386,-1.477936 -2.793386,-2.794505 0,-2.175548 1.36797,-3.114681 2.793386,-3.114681 1.424501,0 2.578585,0.724141 2.792472,3.006758 -0.107817,2.068525 -1.367971,2.902428 -2.792472,2.902428 z M 57.305629,20.724323 C 55.920547,17.449074 53.937796,14.509324 51.413297,11.98299 48.887879,9.4575727 45.947213,7.4757394 42.671963,6.0897394 39.281213,4.6560728 35.679629,3.9291561 31.967129,3.9291561 c -3.712498,0 -7.314082,0.7269167 -10.704832,2.1605833 -3.27525,1.3850833 -6.215917,3.3678333 -8.740417,5.8932506 -2.5254161,2.525417 -4.5081662,5.466084 -5.8932495,8.741333 -1.4345833,3.390751 -2.1615,6.992335 -2.1615,10.704835 0,3.7125 0.7269167,7.314083 2.1615,10.704832 1.3850833,3.274334 3.3678334,6.215916 5.8932495,8.740417 2.5245,2.525417 5.465167,4.508167 8.740417,5.89325 3.39075,1.434584 6.992334,2.1615 10.704832,2.1615 6.886001,0 13.473167,-2.556582 18.551502,-7.1995 0.447332,-0.40975 0.477583,-1.104583 0.06875,-1.552833 -0.408831,-0.447334 -2.284129,-1.336619 -2.732379,-0.927787 -4.671335,4.27075 -9.659735,6.193892 -15.994818,6.193892 -3.416417,0 -6.195439,-0.884104 -9.313939,-2.204104 -3.012168,-1.274167 -4.963262,-2.130524 -7.287012,-4.454274 -2.32375,-2.324667 -3.937172,-5.137677 -5.211339,-8.150761 -1.3199998,-3.118499 -1.8790742,-6.110237 -1.8790742,-9.526652 0,-3.416418 0.66825,-5.978209 1.9882502,-9.096708 1.274167,-3.012167 2.670555,-4.752121 4.994305,-7.075871 2.32375,-2.323751 4.064091,-4.256763 7.076257,-5.5309297 3.119417,-1.32 6.216141,-1.98825 9.632557,-1.98825 3.417334,0 6.837108,0.5603219 9.955608,1.8794053 3.013082,1.2741664 4.75252,2.8869334 7.076269,5.2106834 2.323751,2.32375 3.934024,4.705966 5.208191,7.718133 1.319083,3.118499 2.092051,6.111153 2.092051,9.526653 0,4.510001 -0.767678,7.973227 -3.039178,11.837893 -0.308,0.524333 0.508749,1.84034 1.033083,2.148341 0.522501,0.307998 1.196251,0.132916 1.50425,-0.391417 2.470418,-4.201083 3.776667,-9.0145 3.776667,-13.915916 0,-3.7125 -0.727833,-7.314084 -2.161501,-10.704835 z" /></svg>
