<svg width="320" height="320" viewBox="0 0 320 320" fill="none" xmlns="http://www.w3.org/2000/svg">
<g clip-path="url(#clip0_1008_7328)">
<path d="M160 0C281.326 0 320 38.6737 320 160C320 281.326 281.326 320 160 320C38.6736 320 0 281.326 0 160C0 38.6737 38.6736 0 160 0Z" fill="url(#paint0_linear_1008_7328)"/>
<path d="M160 2C220.573 2 259.85 11.6833 284.083 35.9168C308.317 60.1504 318 99.4272 318 160C318 220.573 308.317 259.85 284.083 284.083C259.85 308.317 220.573 318 160 318C99.4272 318 60.1504 308.317 35.9168 284.083C11.6833 259.85 2 220.573 2 160C2 99.4272 11.6833 60.1504 35.9168 35.9168C60.1504 11.6833 99.4272 2 160 2Z" stroke="#0F172A" stroke-opacity="0.2" stroke-width="4"/>
<g clip-path="url(#clip1_1008_7328)">
<path fill-rule="evenodd" clip-rule="evenodd" d="M160 50C243.412 50 270 76.5882 270 160C270 243.412 243.412 270 160 270C143.995 270 130.082 269.021 118.048 266.85C112.267 265.807 109.048 259.651 109.617 253.804C109.878 251.12 110 248.19 110 245C110 218.46 101.54 210 75 210C71.8096 210 68.8804 210.122 66.1958 210.383C60.3487 210.952 54.1935 207.733 53.1503 201.952C50.9789 189.918 50 176.005 50 160C50 76.5882 76.5881 50 160 50ZM131.814 131.618C139.044 124.437 149.004 120 160 120C161.482 120 162.945 120.081 164.385 120.238C164.926 120.297 165.422 119.925 165.524 119.39C167.531 108.78 175.125 100.145 185.131 96.661C186.037 96.3455 186.13 95.0327 185.235 94.6867C177.406 91.6598 168.897 90 160 90C149.489 90 139.518 92.3168 130.572 96.4677C130.222 96.6302 130 96.9823 130 97.3684V130.898C130 131.819 131.16 132.267 131.814 131.618ZM118.443 103.665C101.189 116.414 90 136.9 90 160C90 168.897 91.6598 177.406 94.6867 185.235C95.0327 186.13 96.3455 186.037 96.661 185.131C100.121 175.195 108.659 167.637 119.167 165.567C119.646 165.472 120 165.057 120 164.569V104.464C120 103.655 119.093 103.185 118.443 103.665ZM200 215.536C200 216.345 200.907 216.815 201.557 216.335C218.811 203.586 230 183.1 230 160C230 151.103 228.34 142.594 225.313 134.765C224.967 133.87 223.654 133.963 223.339 134.869C219.879 144.805 211.341 152.363 200.833 154.433C200.354 154.528 200 154.943 200 155.431V215.536ZM189.428 223.532C189.778 223.37 190 223.018 190 222.632V189.102C190 188.181 188.84 187.733 188.186 188.382C180.956 195.563 170.996 200 160 200C158.518 200 157.055 199.919 155.615 199.762C155.074 199.703 154.578 200.075 154.476 200.61C152.469 211.22 144.875 219.855 134.869 223.339C133.963 223.654 133.87 224.967 134.765 225.313C142.594 228.34 151.103 230 160 230C170.511 230 180.482 227.683 189.428 223.532ZM215 125C215 136.046 206.046 145 195 145C183.954 145 175 136.046 175 125C175 113.954 183.954 105 195 105C206.046 105 215 113.954 215 125ZM145 195C145 206.046 136.046 215 125 215C113.954 215 105 206.046 105 195C105 183.954 113.954 175 125 175C136.046 175 145 183.954 145 195Z" fill="url(#paint1_linear_1008_7328)"/>
<path d="M75 220C93.9572 220 100 226.043 100 245C100 263.957 93.9572 270 75 270C56.0428 270 50 263.957 50 245C50 226.043 56.0428 220 75 220Z" fill="url(#paint2_linear_1008_7328)"/>
</g>
</g>
<defs>
<linearGradient id="paint0_linear_1008_7328" x1="160" y1="0" x2="160" y2="320" gradientUnits="userSpaceOnUse">
<stop stop-color="#F8FAFC"/>
<stop offset="1" stop-color="#E2E8F0"/>
</linearGradient>
<linearGradient id="paint1_linear_1008_7328" x1="160" y1="50" x2="160" y2="270" gradientUnits="userSpaceOnUse">
<stop stop-color="#60A5FA"/>
<stop offset="1" stop-color="#2563EB"/>
</linearGradient>
<linearGradient id="paint2_linear_1008_7328" x1="75" y1="220" x2="75" y2="270" gradientUnits="userSpaceOnUse">
<stop stop-color="#FB923C"/>
<stop offset="1" stop-color="#EA580C"/>
</linearGradient>
<clipPath id="clip0_1008_7328">
<rect width="320" height="320" fill="white"/>
</clipPath>
<clipPath id="clip1_1008_7328">
<rect width="240" height="240" fill="white" transform="translate(40 40)"/>
</clipPath>
</defs>
</svg>
