<svg width="320" height="320" viewBox="0 0 320 320" fill="none" xmlns="http://www.w3.org/2000/svg">
<g clip-path="url(#clip0_937_6706)">
<path d="M160 0C281.326 0 320 38.6737 320 160C320 281.326 281.326 320 160 320C38.6736 320 0 281.326 0 160C0 38.6737 38.6736 0 160 0Z" fill="url(#paint0_linear_937_6706)"/>
<path d="M160 2C220.573 2 259.85 11.6833 284.083 35.9168C308.317 60.1504 318 99.4272 318 160C318 220.573 308.317 259.85 284.083 284.083C259.85 308.317 220.573 318 160 318C99.4272 318 60.1504 308.317 35.9168 284.083C11.6833 259.85 2 220.573 2 160C2 99.4272 11.6833 60.1504 35.9168 35.9168C60.1504 11.6833 99.4272 2 160 2Z" stroke="#0F172A" stroke-opacity="0.2" stroke-width="4"/>
<g clip-path="url(#clip1_937_6706)">
<path fill-rule="evenodd" clip-rule="evenodd" d="M254.789 79.537C253.232 74.8851 248.405 72.2435 243.58 73.1273C215.904 78.1963 189.647 80.0543 163.441 71.3624C161.182 70.6132 158.735 70.6152 156.477 71.3665C130.579 79.9825 104.614 78.134 77.2649 73.1271C72.4395 72.2437 67.613 74.8851 66.0559 79.5371C49.2065 129.877 51.6791 182.384 101.775 232.479C154.538 285.242 166.307 285.242 219.07 232.479C269.166 182.384 271.639 129.877 254.789 79.537ZM160.001 221C193.138 221 220.001 194.137 220.001 161C220.001 127.863 193.138 101 160.001 101C126.864 101 100.001 127.863 100.001 161C100.001 194.137 126.864 221 160.001 221Z" fill="url(#paint1_linear_937_6706)"/>
<circle cx="160" cy="161" r="50" fill="url(#paint2_linear_937_6706)"/>
</g>
</g>
<defs>
<linearGradient id="paint0_linear_937_6706" x1="160" y1="0" x2="160" y2="320" gradientUnits="userSpaceOnUse">
<stop stop-color="#F8FAFC"/>
<stop offset="1" stop-color="#E2E8F0"/>
</linearGradient>
<linearGradient id="paint1_linear_937_6706" x1="160.423" y1="70.8018" x2="160.423" y2="272.052" gradientUnits="userSpaceOnUse">
<stop stop-color="#2DD4BF"/>
<stop offset="1" stop-color="#0D9488"/>
</linearGradient>
<linearGradient id="paint2_linear_937_6706" x1="160" y1="111" x2="160" y2="211" gradientUnits="userSpaceOnUse">
<stop stop-color="#FB923C"/>
<stop offset="1" stop-color="#EA580C"/>
</linearGradient>
<clipPath id="clip0_937_6706">
<rect width="320" height="320" fill="white"/>
</clipPath>
<clipPath id="clip1_937_6706">
<rect width="240" height="240" fill="white" transform="translate(40 40)"/>
</clipPath>
</defs>
</svg>
