<?xml version="1.0" encoding="utf-8"?>
<!-- Generator: Adobe Illustrator 20.1.0, SVG Export Plug-In . SVG Version: 6.00 Build 0)  -->
<svg version="1.1" id="Слой_1" xmlns="http://www.w3.org/2000/svg" xmlns:xlink="http://www.w3.org/1999/xlink" x="0px" y="0px"
	 viewBox="0 0 64 64" style="enable-background:new 0 0 64 64;" xml:space="preserve">
<style type="text/css">
	.st0{fill:#94B0D3;}
	.st1{fill:#FFFFFF;}
</style>
<title>artificer</title>
<desc>Created with Sketch.</desc>
<g id="Page-1">
	<g id="Artboard" transform="translate(-502.000000, -676.000000)">
		<g id="artificer" transform="translate(502.000000, 676.000000)">
			<g id="Path">
				<path id="path-1_1_" class="st0" d="M32,64c14,0,21.8,0,26.9-5.1C64,53.8,64,46,64,32s0-21.8-5.1-26.9C53.8,0,46,0,32,0
					S10.2,0,5.1,5.1C0,10.2,0,18,0,32s0,21.8,5.1,26.9C10.2,64,18,64,32,64z"/>
			</g>
		</g>
	</g>
</g>
<path class="st1" d="M54.3,44.7L43.7,34.1c-2.1-2.1-5.2-2.5-7.8-1.3l-9.7-9.7v-5.7L14.5,8.7l-5.8,5.8l8.7,11.7h5.7l9.7,9.7
	c-1.2,2.5-0.8,5.7,1.3,7.8l10.7,10.7c1.3,1.3,3.5,1.3,4.8,0l4.8-4.8C55.7,48.2,55.7,46.1,54.3,44.7L54.3,44.7z M38.9,29.2
	c2.6,0,5,1,6.8,2.8l1.8,1.8c1.4-0.6,2.8-1.5,4-2.7c3.4-3.4,4.5-8.1,3.5-12.5c-0.2-0.8-1.2-1.1-1.8-0.5l-6.8,6.8l-6.2-1l-1-6.2
	l6.8-6.8c0.6-0.6,0.3-1.6-0.5-1.8c-4.3-1.1-9.1,0.1-12.4,3.5c-2.6,2.6-3.8,6-3.8,9.4l7.5,7.5C37.4,29.3,38.2,29.2,38.9,29.2
	L38.9,29.2z M29.4,36.6l-5.2-5.2L10.4,45.4c-2.3,2.3-2.3,6,0,8.2s6,2.3,8.2,0l11.3-11.3C29.2,40.5,29,38.6,29.4,36.6L29.4,36.6z
	 M14.5,51.7c-1.2,0-2.2-1-2.2-2.2c0-1.2,1-2.2,2.2-2.2s2.2,1,2.2,2.2C16.7,50.7,15.7,51.7,14.5,51.7z"/>
</svg>
