<svg width="320" height="320" viewBox="0 0 320 320" fill="none" xmlns="http://www.w3.org/2000/svg">
<g clip-path="url(#clip0_922_6503)">
<path d="M160 0C281.326 0 320 38.6737 320 160C320 281.326 281.326 320 160 320C38.6736 320 0 281.326 0 160C0 38.6737 38.6736 0 160 0Z" fill="url(#paint0_linear_922_6503)"/>
<g clip-path="url(#clip1_922_6503)">
<path opacity="0.6" fill-rule="evenodd" clip-rule="evenodd" d="M226.749 68.5519C229.836 66.4247 229.709 61.8008 226.281 60.2841C209.903 53.0386 188.198 50 160 50C76.5881 50 50 76.5882 50 160C50 230.094 68.7756 260.061 124.269 267.844C127.694 268.324 130.537 265.135 130.252 261.688C130.081 259.625 130 257.399 130 255C130 250.88 130.238 247.269 130.762 244.116C131.283 240.99 129.339 237.733 126.24 237.069C91.8825 229.713 80 207.554 80 160C80 99.3368 99.3368 80 160 80C176.765 80 190.373 81.4768 201.29 84.8947C202.958 85.4169 204.785 85.1131 206.148 84.0188C213.175 78.3763 220.152 73.0976 226.749 68.5519ZM260.007 94.3847C258.514 90.9257 253.862 90.7736 251.721 93.8737C247.152 100.49 241.852 107.484 236.191 114.524C235.106 115.873 234.796 117.68 235.298 119.336C238.579 130.145 240 143.554 240 160C240 207.554 228.117 229.713 193.76 237.069C190.661 237.733 188.717 240.99 189.238 244.116C189.762 247.269 190 250.88 190 255C190 257.399 189.919 259.625 189.749 261.688C189.463 265.135 192.306 268.324 195.731 267.844C251.224 260.061 270 230.094 270 160C270 132.182 267.043 110.684 260.007 94.3847Z" fill="url(#paint1_linear_922_6503)"/>
<path opacity="0.8" d="M160 235C175.166 235 180 239.834 180 255C180 270.166 175.166 275 160 275C144.834 275 140 270.166 140 255C140 239.834 144.834 235 160 235Z" fill="url(#paint2_linear_922_6503)"/>
<path fill-rule="evenodd" clip-rule="evenodd" d="M188.738 156.018C188.514 154.331 188.968 152.609 190.155 151.391C217.545 123.285 258.678 76.6613 251.216 69.199C243.843 61.826 198.239 101.893 170.041 129.271C168.722 130.551 166.825 130.972 165.024 130.605C163.078 130.208 161.063 130 159 130C142.431 130 129 143.431 129 160C129 176.569 142.431 190 159 190C175.569 190 189 176.569 189 160C189 158.65 188.911 157.321 188.738 156.018Z" fill="url(#paint3_linear_922_6503)"/>
</g>
</g>
<defs>
<linearGradient id="paint0_linear_922_6503" x1="160" y1="0" x2="160" y2="320" gradientUnits="userSpaceOnUse">
<stop stop-color="#FB7185"/>
<stop offset="1" stop-color="#E11D48"/>
</linearGradient>
<linearGradient id="paint1_linear_922_6503" x1="160" y1="50" x2="160" y2="267.892" gradientUnits="userSpaceOnUse">
<stop stop-color="white"/>
<stop offset="1" stop-color="#FECDD3"/>
</linearGradient>
<linearGradient id="paint2_linear_922_6503" x1="160" y1="235" x2="160" y2="275" gradientUnits="userSpaceOnUse">
<stop stop-color="white"/>
<stop offset="1" stop-color="#FECDD3"/>
</linearGradient>
<linearGradient id="paint3_linear_922_6503" x1="190.553" y1="68.3091" x2="190.553" y2="190" gradientUnits="userSpaceOnUse">
<stop stop-color="white"/>
<stop offset="1" stop-color="#FECDD3"/>
</linearGradient>
<clipPath id="clip0_922_6503">
<rect width="320" height="320" fill="white"/>
</clipPath>
<clipPath id="clip1_922_6503">
<rect width="240" height="240" fill="white" transform="translate(40 40)"/>
</clipPath>
</defs>
</svg>
