<svg width="320" height="320" viewBox="0 0 320 320" fill="none" xmlns="http://www.w3.org/2000/svg">
<g clip-path="url(#clip0_910_8165)">
<path d="M160 0C281.326 0 320 38.6737 320 160C320 281.326 281.326 320 160 320C38.6736 320 0 281.326 0 160C0 38.6737 38.6736 0 160 0Z" fill="url(#paint0_linear_910_8165)"/>
<g clip-path="url(#clip1_910_8165)">
<g clip-path="url(#clip2_910_8165)">
<path opacity="0.6" fill-rule="evenodd" clip-rule="evenodd" d="M160 40C178.957 40 185 46.0428 185 65V65C185 69.4486 180.679 72.2735 176.303 71.4728C171.015 70.5054 165.567 70 160 70C154.433 70 148.985 70.5054 143.697 71.4728C139.321 72.2735 135 69.4486 135 65V65C135 46.0428 141.043 40 160 40ZM109.71 85.3502C112.888 83.205 113.748 78.8109 111.037 76.0996V76.0996C97.6321 62.6948 89.0864 62.6948 75.6816 76.0996C62.2768 89.5044 62.2768 98.0501 75.6816 111.455V111.455C78.4507 114.224 82.9345 113.324 85.11 110.068C91.6243 100.317 99.9923 91.9098 109.71 85.3502ZM71.4728 143.697C72.2735 139.321 69.4486 135 65 135V135C46.0428 135 40 141.043 40 160C40 178.957 46.0428 185 65 185V185C69.4486 185 72.2735 180.679 71.4728 176.303C70.5054 171.015 70 165.567 70 160C70 154.433 70.5054 148.985 71.4728 143.697ZM84.8517 209.543C82.9839 206.716 79.0777 205.983 76.6816 208.379V208.379C63.2768 221.784 63.2768 230.329 76.6816 243.734C90.0864 257.139 98.6321 257.139 112.037 243.734V243.734C114.491 241.281 113.721 237.284 110.817 235.385C100.497 228.638 91.6465 219.829 84.8517 209.543ZM143.697 248.527C139.321 247.726 135 250.551 135 255V255C135 273.957 141.043 280 160 280C178.957 280 185 273.957 185 255V255C185 250.551 180.679 247.726 176.303 248.527C171.015 249.495 165.567 250 160 250C154.433 250 148.985 249.495 143.697 248.527ZM209.183 235.385C206.279 237.284 205.509 241.281 207.963 243.734V243.734C221.368 257.139 229.913 257.139 243.318 243.734C256.723 230.329 256.723 221.784 243.318 208.379V208.379C240.922 205.983 237.016 206.716 235.148 209.543C228.353 219.829 219.503 228.638 209.183 235.385ZM248.321 177.39C247.572 181.216 250.101 185 254 185V185C272.957 185 279 178.957 279 160C279 141.043 272.957 135 254 135V135C250.101 135 247.572 138.784 248.321 142.61C249.423 148.236 250 154.051 250 160C250 165.949 249.423 171.764 248.321 177.39ZM234.89 110.068C237.065 113.324 241.549 114.224 244.318 111.455V111.455C257.723 98.0501 257.723 89.5043 244.318 76.0996C230.913 62.6948 222.368 62.6948 208.963 76.0996V76.0996C206.252 78.8108 207.111 83.2048 210.289 85.35C220.008 91.9097 228.376 100.317 234.89 110.068Z" fill="url(#paint1_linear_910_8165)"/>
<path fill-rule="evenodd" clip-rule="evenodd" d="M160 240C204.183 240 240 204.183 240 160C240 115.817 204.183 80 160 80C115.817 80 80 115.817 80 160C80 204.183 115.817 240 160 240ZM160 210C187.614 210 210 187.614 210 160C210 132.386 187.614 110 160 110C132.386 110 110 132.386 110 160C110 187.614 132.386 210 160 210Z" fill="url(#paint2_linear_910_8165)"/>
<circle opacity="0.8" cx="160" cy="160" r="40" fill="url(#paint3_linear_910_8165)"/>
</g>
</g>
</g>
<defs>
<linearGradient id="paint0_linear_910_8165" x1="160" y1="0" x2="160" y2="320" gradientUnits="userSpaceOnUse">
<stop stop-color="#FB7185"/>
<stop offset="1" stop-color="#E11D48"/>
</linearGradient>
<linearGradient id="paint1_linear_910_8165" x1="159.5" y1="40" x2="159.5" y2="280" gradientUnits="userSpaceOnUse">
<stop stop-color="white"/>
<stop offset="1" stop-color="#FECDD3"/>
</linearGradient>
<linearGradient id="paint2_linear_910_8165" x1="160" y1="80" x2="160" y2="240" gradientUnits="userSpaceOnUse">
<stop stop-color="white"/>
<stop offset="1" stop-color="#FECDD3"/>
</linearGradient>
<linearGradient id="paint3_linear_910_8165" x1="160" y1="120" x2="160" y2="200" gradientUnits="userSpaceOnUse">
<stop stop-color="white"/>
<stop offset="1" stop-color="#FECDD3"/>
</linearGradient>
<clipPath id="clip0_910_8165">
<rect width="320" height="320" fill="white"/>
</clipPath>
<clipPath id="clip1_910_8165">
<rect width="240" height="240" fill="white" transform="translate(40 40)"/>
</clipPath>
<clipPath id="clip2_910_8165">
<rect width="240" height="240" fill="white" transform="translate(40 40)"/>
</clipPath>
</defs>
</svg>
