<svg width="320" height="320" viewBox="0 0 320 320" fill="none" xmlns="http://www.w3.org/2000/svg">
<g clip-path="url(#clip0_922_6610)">
<path d="M160 0C281.326 0 320 38.6737 320 160C320 281.326 281.326 320 160 320C38.6736 320 0 281.326 0 160C0 38.6737 38.6736 0 160 0Z" fill="url(#paint0_linear_922_6610)"/>
<g clip-path="url(#clip1_922_6610)">
<g opacity="0.8">
<path d="M98 150C99.0508 150 100.033 149.5 100.095 147.907C101.241 118.275 112.99 108.141 144.886 105.55C147.638 105.326 149.808 102.985 149.488 100.242C146.841 77.5511 133.507 70 100 70C62.0855 70 50 79.6684 50 110C50 140.332 60.0855 150 98 150Z" fill="url(#paint1_linear_922_6610)"/>
<path d="M219.905 147.907C219.907 149.958 221.949 150 222 150C259.914 150 270 140.332 270 110C270 79.6684 257.914 70 220 70C186.493 70 173.159 77.5511 170.512 100.242C170.192 102.985 172.362 105.326 175.114 105.55C207.01 108.141 218.759 118.275 219.905 147.907Z" fill="url(#paint2_linear_922_6610)"/>
</g>
<g opacity="0.6">
<path d="M101.133 170.979C101.041 170.423 100.564 170 100 170C62.0855 170 50 179.668 50 210C50 240.332 62.0855 250 100 250C137.914 250 150 240.332 150 210C150 209.759 149.999 209.52 149.998 209.282C149.981 206.718 147.906 204.686 145.35 204.487C117.36 202.308 104.732 192.897 101.133 170.979Z" fill="url(#paint3_linear_922_6610)"/>
<path d="M174.65 204.487C172.094 204.686 170.019 206.718 170.002 209.282C170.001 209.52 170 209.759 170 210C170 240.332 182.086 250 220 250C257.914 250 270 240.332 270 210C270 179.668 257.914 170 220 170C219.436 170 218.959 170.423 218.867 170.979C215.268 192.897 202.64 202.308 174.65 204.487Z" fill="url(#paint4_linear_922_6610)"/>
</g>
<path d="M160 115C197.914 115 210 124.668 210 155C210 185.332 197.914 195 160 195C122.086 195 110 185.332 110 155C110 124.668 122.086 115 160 115Z" fill="url(#paint5_linear_922_6610)"/>
</g>
</g>
<defs>
<linearGradient id="paint0_linear_922_6610" x1="160" y1="0" x2="160" y2="320" gradientUnits="userSpaceOnUse">
<stop stop-color="#FB7185"/>
<stop offset="1" stop-color="#E11D48"/>
</linearGradient>
<linearGradient id="paint1_linear_922_6610" x1="160" y1="70" x2="160" y2="150" gradientUnits="userSpaceOnUse">
<stop stop-color="white"/>
<stop offset="1" stop-color="#FECDD3"/>
</linearGradient>
<linearGradient id="paint2_linear_922_6610" x1="160" y1="70" x2="160" y2="150" gradientUnits="userSpaceOnUse">
<stop stop-color="white"/>
<stop offset="1" stop-color="#FECDD3"/>
</linearGradient>
<linearGradient id="paint3_linear_922_6610" x1="160" y1="170" x2="160" y2="250" gradientUnits="userSpaceOnUse">
<stop stop-color="white"/>
<stop offset="1" stop-color="#FECDD3"/>
</linearGradient>
<linearGradient id="paint4_linear_922_6610" x1="160" y1="170" x2="160" y2="250" gradientUnits="userSpaceOnUse">
<stop stop-color="white"/>
<stop offset="1" stop-color="#FECDD3"/>
</linearGradient>
<linearGradient id="paint5_linear_922_6610" x1="160" y1="115" x2="160" y2="195" gradientUnits="userSpaceOnUse">
<stop stop-color="white"/>
<stop offset="1" stop-color="#FECDD3"/>
</linearGradient>
<clipPath id="clip0_922_6610">
<rect width="320" height="320" fill="white"/>
</clipPath>
<clipPath id="clip1_922_6610">
<rect width="240" height="240" fill="white" transform="translate(40 40)"/>
</clipPath>
</defs>
</svg>
