<svg width="240" height="240" viewBox="0 0 240 240" fill="none" xmlns="http://www.w3.org/2000/svg">
<path fill-rule="evenodd" clip-rule="evenodd" d="M189.909 143.498C189.806 139.974 186.093 137.817 182.873 139.252C137.37 159.537 102.506 159.639 57.1093 139.556C53.8867 138.131 50.1788 140.296 50.082 143.819C50.0269 145.822 50 147.882 50 150C50 203.08 66.9197 220 120 220C173.08 220 190 203.08 190 150C190 147.769 189.97 145.602 189.909 143.498Z" fill="url(#paint0_linear_435_3054)"/>
<path fill-rule="evenodd" clip-rule="evenodd" d="M27.7223 124.666C24.479 122.826 20.3921 124.947 20.2542 128.673C20.0793 133.402 20 138.82 20 145C20 179.123 22.4171 190 30 190C37.5829 190 40 179.123 40 145C40 141.089 39.9683 137.484 39.9006 134.165C39.8636 132.35 38.8278 130.708 37.222 129.859C36.7575 129.614 36.2918 129.367 35.8249 129.118C32.9983 127.61 30.2975 126.127 27.7223 124.666Z" fill="url(#paint1_linear_435_3054)"/>
<path fill-rule="evenodd" clip-rule="evenodd" d="M51.3903 56.4436C99.8241 84.4069 116.471 91.2271 120.263 84.6601C124.054 78.0932 109.824 67.0864 61.3903 39.1231V39.1231C60.0653 38.3581 60.1571 36.4159 61.5492 35.781C109.361 13.9741 143.839 16.7137 195 43.9999C251.872 74.3315 251.872 93.6683 195 124C138.129 154.331 101.872 154.331 45.0005 124C-8.23 95.6103 -11.6381 76.8527 34.7761 49.6965C36.3262 48.7895 38.2759 48.7923 39.8234 49.7037C43.4408 51.834 47.2932 54.0782 51.3903 56.4436Z" fill="url(#paint2_linear_435_3054)"/>
<defs>
<linearGradient id="paint0_linear_435_3054" x1="50" y1="208" x2="190" y2="212" gradientUnits="userSpaceOnUse">
<stop stop-color="#6EE7B7"/>
<stop offset="1" stop-color="#10B981"/>
</linearGradient>
<linearGradient id="paint1_linear_435_3054" x1="30" y1="123.992" x2="30" y2="190" gradientUnits="userSpaceOnUse">
<stop stop-color="#FB923C"/>
<stop offset="1" stop-color="#EA580C"/>
</linearGradient>
<linearGradient id="paint2_linear_435_3054" x1="125" y1="147" x2="120" y2="21" gradientUnits="userSpaceOnUse">
<stop stop-color="#60A5FA"/>
<stop offset="1" stop-color="#2563EB"/>
</linearGradient>
</defs>
</svg>
