<svg width="80" height="80" viewBox="0 0 80 80" fill="none" xmlns="http://www.w3.org/2000/svg">
<rect width="80" height="80" fill="url(#paint0_linear_954_3785)"/>
<path d="M59.9273 56.0359C59.9786 56.5721 60.4172 57 60.9559 57H64C66.2093 57 68 55.2092 68 53C68 47.4772 63.5229 43 58 43H52.7905C52.236 43 52.0379 43.8987 52.5122 44.1859C56.5906 46.6551 59.4443 50.993 59.9273 56.0359Z" fill="black" fill-opacity="0.2"/>
<path d="M27.4877 44.1859C27.962 43.8987 27.7639 43 27.2094 43H22C16.4772 43 12 47.4772 12 53C12 55.2092 13.7909 57 16 57H19.044C19.5827 57 20.0213 56.5721 20.0726 56.0359C20.5556 50.993 23.4093 46.6551 27.4877 44.1859Z" fill="black" fill-opacity="0.2"/>
<path d="M44.8571 45H35.1429C28.4366 45 23 50.4366 23 57.1429C23 59.8255 25.1746 62 27.8571 62H52.1429C54.8255 62 57 59.8255 57 57.1429C57 50.4366 51.5634 45 44.8571 45Z" fill="black" fill-opacity="0.2"/>
<path d="M52.4999 38C52.0593 38 51.8289 37.5047 52.0535 37.1256C53.2901 35.0383 54 32.602 54 30C54 27.2407 53.2017 24.6678 51.8234 22.4997C51.4215 21.8674 51.7508 21 52.4999 21C57.1944 21 60.9999 24.8056 60.9999 29.5C60.9999 34.1944 57.1944 38 52.4999 38Z" fill="black" fill-opacity="0.2"/>
<path d="M28.1764 22.4995C28.5783 21.8673 28.2491 21 27.5 21C22.8056 21 19 24.8056 19 29.5C19 34.1944 22.8056 38 27.5 38C27.9405 38 28.1709 37.5048 27.9464 37.1258C26.7097 35.0384 25.9998 32.6021 25.9998 30C25.9998 27.2406 26.7981 24.6676 28.1764 22.4995Z" fill="black" fill-opacity="0.2"/>
<path d="M51 30C51 36.0751 46.0751 41 40 41C33.9249 41 29 36.0751 29 30C29 23.9249 33.9249 19 40 19C46.0751 19 51 23.9249 51 30Z" fill="black" fill-opacity="0.2"/>
<path d="M59.9273 55.0359C59.9787 55.5721 60.4172 56 60.9559 56H64C66.2092 56 68 54.2092 68 52C68 46.4772 63.5228 42 58 42H52.7905C52.236 42 52.0379 42.8987 52.5122 43.1859C56.5906 45.6551 59.4443 49.993 59.9273 55.0359Z" fill="url(#paint1_linear_954_3785)"/>
<path d="M27.4877 43.1859C27.962 42.8987 27.7639 42 27.2094 42H22C16.4772 42 12 46.4772 12 52C12 54.2092 13.7909 56 16 56H19.044C19.5827 56 20.0213 55.5721 20.0726 55.0359C20.5556 49.993 23.4093 45.6551 27.4877 43.1859Z" fill="url(#paint2_linear_954_3785)"/>
<path d="M44.8571 44H35.1429C28.4366 44 23 49.4366 23 56.1429C23 58.8255 25.1746 61 27.8571 61H52.1429C54.8255 61 57 58.8255 57 56.1429C57 49.4366 51.5634 44 44.8571 44Z" fill="url(#paint3_linear_954_3785)"/>
<path fill-rule="evenodd" clip-rule="evenodd" d="M52.4999 37C52.0593 37 51.8289 36.5047 52.0535 36.1256C53.2901 34.0383 54 31.602 54 29C54 26.2407 53.2017 23.6678 51.8234 21.4997C51.4215 20.8674 51.7508 20 52.4999 20C57.1944 20 60.9999 23.8056 60.9999 28.5C60.9999 33.1944 57.1944 37 52.4999 37Z" fill="url(#paint4_linear_954_3785)"/>
<path fill-rule="evenodd" clip-rule="evenodd" d="M28.1764 21.4995C28.5783 20.8673 28.2491 20 27.5 20C22.8056 20 19 23.8056 19 28.5C19 33.1944 22.8056 37 27.5 37C27.9405 37 28.1709 36.5048 27.9464 36.1258C26.7097 34.0384 25.9998 31.6021 25.9998 29C25.9998 26.2406 26.7981 23.6676 28.1764 21.4995Z" fill="url(#paint5_linear_954_3785)"/>
<circle cx="40" cy="29" r="11" fill="url(#paint6_linear_954_3785)"/>
<defs>
<linearGradient id="paint0_linear_954_3785" x1="40" y1="0" x2="40" y2="80" gradientUnits="userSpaceOnUse">
<stop stop-color="#DB2777"/>
<stop offset="1" stop-color="#881337"/>
</linearGradient>
<linearGradient id="paint1_linear_954_3785" x1="59.046" y1="42" x2="59.046" y2="56" gradientUnits="userSpaceOnUse">
<stop stop-color="#F9FAFB"/>
<stop offset="1" stop-color="#9CA3AF"/>
</linearGradient>
<linearGradient id="paint2_linear_954_3785" x1="20.9539" y1="42" x2="20.9539" y2="56" gradientUnits="userSpaceOnUse">
<stop stop-color="#F9FAFB"/>
<stop offset="1" stop-color="#9CA3AF"/>
</linearGradient>
<linearGradient id="paint3_linear_954_3785" x1="40" y1="44" x2="40" y2="61" gradientUnits="userSpaceOnUse">
<stop stop-color="#F9FAFB"/>
<stop offset="1" stop-color="#9CA3AF"/>
</linearGradient>
<linearGradient id="paint4_linear_954_3785" x1="56.3253" y1="20" x2="56.3253" y2="37" gradientUnits="userSpaceOnUse">
<stop stop-color="#FDE68A"/>
<stop offset="1" stop-color="#D97706"/>
</linearGradient>
<linearGradient id="paint5_linear_954_3785" x1="23.6746" y1="20" x2="23.6746" y2="37" gradientUnits="userSpaceOnUse">
<stop stop-color="#FDE68A"/>
<stop offset="1" stop-color="#D97706"/>
</linearGradient>
<linearGradient id="paint6_linear_954_3785" x1="40" y1="18" x2="40" y2="40" gradientUnits="userSpaceOnUse">
<stop stop-color="#FDE68A"/>
<stop offset="1" stop-color="#D97706"/>
</linearGradient>
</defs>
</svg>
