<svg width="80" height="80" viewBox="0 0 80 80" fill="none" xmlns="http://www.w3.org/2000/svg">
<rect width="80" height="80" fill="url(#paint0_linear_1007_4132)"/>
<path fill-rule="evenodd" clip-rule="evenodd" d="M27.1684 28.2781C28.4046 29.8183 28.2441 32.1431 26.8098 33.4707L21.2028 38.6606C20.29 39.5054 19.6869 40.0692 19.2725 40.5C19.6869 40.9308 20.2898 41.4945 21.2027 42.3393L26.8098 47.5293C28.2441 48.8569 28.4046 51.1817 27.1684 52.7219C25.9321 54.2621 23.7672 54.4345 22.3329 53.107L16.7261 47.9172C16.6788 47.8735 16.6314 47.8297 16.5842 47.786C15.53 46.8108 14.4916 45.8501 13.7452 44.9446C12.9202 43.9437 12 42.4859 12 40.5C12 38.5141 12.9202 37.0563 13.7452 36.0554C14.4916 35.1499 15.53 34.1893 16.5842 33.214C16.6314 33.1703 16.6787 33.1266 16.7259 33.0829L22.3329 27.8931C23.7672 26.5655 25.9321 26.7379 27.1684 28.2781Z" fill="black" fill-opacity="0.2"/>
<path fill-rule="evenodd" clip-rule="evenodd" d="M52.8317 28.278C54.0679 26.7378 56.2328 26.5655 57.6671 27.8931L63.2736 33.0827C63.3206 33.1261 63.3679 33.1699 63.4148 33.2133C64.4694 34.1888 65.5082 35.1496 66.2548 36.0554C67.0799 37.0563 68 38.5141 68 40.5C68 42.4859 67.0799 43.9437 66.2548 44.9446C65.5082 45.8504 64.4694 46.8112 63.4148 47.7867C63.3679 47.8301 63.3209 47.8736 63.2739 47.917L57.6671 53.1069C56.2328 54.4345 54.0679 54.2622 52.8317 52.722C51.5954 51.1818 51.7559 48.857 53.1901 47.5294L58.797 42.3395C59.7098 41.4948 60.3131 40.9307 60.7275 40.5C60.3131 40.0693 59.7102 39.5056 58.7973 38.6608L53.1901 33.4706C51.7559 32.143 51.5954 29.8182 52.8317 28.278Z" fill="black" fill-opacity="0.2"/>
<path d="M40.3452 23.8799C40.9017 21.7371 43.0826 20.4782 45.2165 21.0682C47.3504 21.6581 48.6291 23.8734 48.0726 26.0162L39.7351 58.1201C39.1786 60.2629 36.9976 61.5218 34.8637 60.9319C32.7299 60.3419 31.4512 58.1266 32.0077 55.9838L40.3452 23.8799Z" fill="black" fill-opacity="0.2"/>
<path fill-rule="evenodd" clip-rule="evenodd" d="M27.1684 27.2781C28.4046 28.8183 28.2441 31.1431 26.8098 32.4707L21.2028 37.6605C20.29 38.5054 19.6869 39.0692 19.2725 39.5C19.6869 39.9308 20.2898 40.4945 21.2027 41.3393L26.8098 46.5293C28.2441 47.8569 28.4046 50.1817 27.1684 51.7219C25.9321 53.2621 23.7672 53.4345 22.3329 52.107L16.7261 46.9172C16.6788 46.8735 16.6314 46.8297 16.5842 46.786C15.53 45.8107 14.4916 44.8501 13.7452 43.9446C12.9202 42.9437 12 41.4859 12 39.5C12 37.5141 12.9202 36.0563 13.7452 35.0554C14.4916 34.1499 15.53 33.1893 16.5842 32.214C16.6314 32.1703 16.6787 32.1266 16.7259 32.0829L22.3329 26.893C23.7672 25.5655 25.9321 25.7379 27.1684 27.2781Z" fill="url(#paint1_linear_1007_4132)"/>
<path fill-rule="evenodd" clip-rule="evenodd" d="M52.8317 27.278C54.0679 25.7378 56.2328 25.5655 57.6671 26.8931L63.2736 32.0826C63.3206 32.1261 63.3679 32.1698 63.4148 32.2133C64.4694 33.1888 65.5082 34.1496 66.2548 35.0554C67.0799 36.0563 68 37.5141 68 39.5C68 41.4859 67.0799 42.9437 66.2548 43.9446C65.5082 44.8504 64.4694 45.8112 63.4148 46.7867C63.3679 46.8301 63.3209 46.8736 63.2739 46.917L57.6671 52.1069C56.2328 53.4345 54.0679 53.2622 52.8317 51.722C51.5954 50.1818 51.7559 47.857 53.1901 46.5294L58.797 41.3395C59.7098 40.4948 60.3131 39.9307 60.7275 39.5C60.3131 39.0693 59.7101 38.5056 58.7973 37.6608L53.1901 32.4706C51.7559 31.143 51.5954 28.8182 52.8317 27.278Z" fill="url(#paint2_linear_1007_4132)"/>
<rect width="8.01727" height="41.1861" rx="4.00863" transform="matrix(0.963846 0.266461 -0.251365 0.967892 41.3528 19)" fill="url(#paint3_linear_1007_4132)"/>
<defs>
<linearGradient id="paint0_linear_1007_4132" x1="40" y1="0" x2="40" y2="80" gradientUnits="userSpaceOnUse">
<stop stop-color="#6B7280"/>
<stop offset="1" stop-color="#1F2937"/>
</linearGradient>
<linearGradient id="paint1_linear_1007_4132" x1="20" y1="26" x2="20" y2="53" gradientUnits="userSpaceOnUse">
<stop stop-color="#F9FAFB"/>
<stop offset="1" stop-color="#9CA3AF"/>
</linearGradient>
<linearGradient id="paint2_linear_1007_4132" x1="60" y1="26" x2="60" y2="53" gradientUnits="userSpaceOnUse">
<stop stop-color="#F9FAFB"/>
<stop offset="1" stop-color="#9CA3AF"/>
</linearGradient>
<linearGradient id="paint3_linear_1007_4132" x1="4.00863" y1="0" x2="4.00863" y2="41.1861" gradientUnits="userSpaceOnUse">
<stop stop-color="#FDE68A"/>
<stop offset="1" stop-color="#D97706"/>
</linearGradient>
</defs>
</svg>
