<svg width="48" height="48" viewBox="0 0 48 48" fill="none" xmlns="http://www.w3.org/2000/svg">
<rect width="48" height="48" fill="url(#paint0_linear_221_2472)"/>
<path d="M9.75 24C9.75 17.2825 9.75 13.9237 11.8369 11.8369C13.9237 9.75 17.2825 9.75 24 9.75C30.7175 9.75 34.0763 9.75 36.1632 11.8369C38.25 13.9237 38.25 17.2825 38.25 24C38.25 30.7175 38.25 34.0763 36.1632 36.1632C34.0763 38.25 30.7175 38.25 24 38.25C17.2825 38.25 13.9237 38.25 11.8369 36.1632C9.75 34.0763 9.75 30.7175 9.75 24Z" stroke="white" stroke-width="2.25"/>
<path d="M9.75 19.5H38.25" stroke="white" stroke-width="2.25" stroke-linejoin="round"/>
<path d="M16.4997 15H16.5132" stroke="white" stroke-width="3" stroke-linecap="round" stroke-linejoin="round"/>
<path d="M22.4997 15H22.5132" stroke="white" stroke-width="3" stroke-linecap="round" stroke-linejoin="round"/>
<path d="M30 25.5L31.8397 27.0858C32.6133 27.7524 33 28.0858 33 28.5C33 28.9142 32.6133 29.2476 31.8397 29.9142L30 31.5" stroke="white" stroke-width="2.25" stroke-linecap="round" stroke-linejoin="round"/>
<path d="M18 25.5L16.1602 27.0858C15.3867 27.7524 15 28.0858 15 28.5C15 28.9142 15.3867 29.2476 16.1602 29.9142L18 31.5" stroke="white" stroke-width="2.25" stroke-linecap="round" stroke-linejoin="round"/>
<path d="M25.5 24L22.5 33" stroke="white" stroke-width="2.25" stroke-linecap="round" stroke-linejoin="round"/>
<defs>
<linearGradient id="paint0_linear_221_2472" x1="24" y1="0" x2="24" y2="48" gradientUnits="userSpaceOnUse">
<stop stop-color="#71717A"/>
<stop offset="1" stop-color="#52525B"/>
</linearGradient>
</defs>
</svg>
