<svg width="320" height="320" viewBox="0 0 320 320" fill="none" xmlns="http://www.w3.org/2000/svg">
<g clip-path="url(#clip0_1002_6886)">
<path d="M160 0C281.326 0 320 38.6737 320 160C320 281.326 281.326 320 160 320C38.6736 320 0 281.326 0 160C0 38.6737 38.6736 0 160 0Z" fill="url(#paint0_linear_1002_6886)"/>
<path d="M160 2C220.573 2 259.85 11.6833 284.083 35.9168C308.317 60.1504 318 99.4272 318 160C318 220.573 308.317 259.85 284.083 284.083C259.85 308.317 220.573 318 160 318C99.4272 318 60.1504 308.317 35.9168 284.083C11.6833 259.85 2 220.573 2 160C2 99.4272 11.6833 60.1504 35.9168 35.9168C60.1504 11.6833 99.4272 2 160 2Z" stroke="#0F172A" stroke-opacity="0.2" stroke-width="4"/>
<path fill-rule="evenodd" clip-rule="evenodd" d="M166.788 101.399C166.024 103.026 166.072 104.942 167.087 106.425C173.246 115.423 183.054 126.404 196.958 140.307C201.458 144.808 205.653 148.88 209.573 152.537C214.044 156.71 214.044 163.9 209.573 168.072C205.651 171.731 201.455 175.804 196.952 180.307C159.419 217.841 151.728 234.078 165.132 247.482C178.537 260.887 194.774 253.196 232.307 215.663C259.048 188.922 270.641 172.991 270.25 161.193C270.231 160.623 270.232 160.055 270.253 159.485C270.688 147.68 259.101 131.74 232.313 104.952C198.423 71.062 181.895 61.5018 169.138 69.8331C167.067 71.1854 166.871 73.9947 167.974 76.2083C171.643 83.5725 171.401 91.5782 166.788 101.399Z" fill="url(#paint1_linear_1002_6886)"/>
<path fill-rule="evenodd" clip-rule="evenodd" d="M110.692 152.542C106.22 156.714 106.22 163.905 110.692 168.077C114.612 171.735 118.807 175.806 123.307 180.307C136.702 193.701 146.296 204.384 152.487 213.193C153.535 214.685 153.598 216.631 152.825 218.282C148.044 228.484 147.985 236.727 152.132 244.329C153.345 246.552 153.189 249.446 151.064 250.823C138.315 259.081 121.786 249.497 87.9521 215.662C61.1663 188.877 49.5791 172.937 50.0117 161.133C50.0325 160.563 50.0335 159.995 50.0145 159.425C49.6212 147.626 61.2142 131.695 87.957 104.952C125.49 67.4187 141.727 59.7275 155.132 73.1323C168.537 86.5371 160.846 102.774 123.312 140.307C118.81 144.81 114.614 148.883 110.692 152.542Z" fill="url(#paint2_linear_1002_6886)"/>
</g>
<defs>
<linearGradient id="paint0_linear_1002_6886" x1="160" y1="0" x2="160" y2="320" gradientUnits="userSpaceOnUse">
<stop stop-color="#F8FAFC"/>
<stop offset="1" stop-color="#E2E8F0"/>
</linearGradient>
<linearGradient id="paint1_linear_1002_6886" x1="214.632" y1="67" x2="214.632" y2="253.615" gradientUnits="userSpaceOnUse">
<stop stop-color="#60A5FA"/>
<stop offset="1" stop-color="#2563EB"/>
</linearGradient>
<linearGradient id="paint2_linear_1002_6886" x1="105.632" y1="67" x2="105.632" y2="253.615" gradientUnits="userSpaceOnUse">
<stop stop-color="#34D399"/>
<stop offset="1" stop-color="#059669"/>
</linearGradient>
<clipPath id="clip0_1002_6886">
<rect width="320" height="320" fill="white"/>
</clipPath>
</defs>
</svg>
