<?xml version="1.0" encoding="UTF-8"?>
<svg width="606px" height="606px" viewBox="0 0 606 606" version="1.1" xmlns="http://www.w3.org/2000/svg" xmlns:xlink="http://www.w3.org/1999/xlink">
    <!-- Generator: Sketch 40.2 (33826) - http://www.bohemiancoding.com/sketch -->
    <title>developer</title>
    <desc>Created with Sketch.</desc>
    <defs>
        <linearGradient x1="50%" y1="0%" x2="50%" y2="100%" id="linearGradient-1">
            <stop stop-color="#FFFFFF" stop-opacity="0.2" offset="0%"></stop>
            <stop stop-color="#000000" stop-opacity="0.2" offset="100%"></stop>
        </linearGradient>
        <path d="M552.268958,552.268958 C600,504.537813 600,431.458333 600,300 C600,168.541667 600,95.4621875 552.268958,47.7310417 C504.537813,0 431.458333,0 300,0 C168.541667,0 95.4621875,0 47.7310417,47.7310417 C0,95.4621875 0,168.541667 0,300 C0,431.458333 0,504.537813 47.7310417,552.268958 C95.4621875,600 168.541667,600 300,600 C431.458333,600 504.537813,600 552.268958,552.268958 Z" id="path-2"></path>
    </defs>
    <g id="Page-1" stroke="none" stroke-width="1" fill="none" fill-rule="evenodd">
        <g id="developer" transform="translate(3.000000, 3.000000)">
            <g id="Squircle2-Copy-6">
                <g id="Shape">
                    <use fill="#4A4A4A" xlink:href="#path-2"></use>
                    <use stroke="#000000" stroke-width="4.04" fill="url(#linearGradient-1)" xlink:href="#path-2"></use>
                </g>
            </g>
            <g id="wrench" opacity="0.9" transform="translate(166.000000, 100.000000)" fill="#FFFFFF">
                <g id="Capa_1">
                    <g id="Group">
                        <path d="M238.294867,128.275154 C237.966324,133.285421 237.227105,138.295688 236.159343,143.223819 C234.023819,153.080082 230.327721,162.525667 225.399589,171.396304 C220.389322,180.102669 214.064887,188.398357 206.919097,195.051335 C206.015606,195.87269 205.440657,196.61191 204.208624,197.597536 L200.841068,200.472279 L197.30924,203.511294 C195.912936,204.661191 194.680903,205.975359 193.366735,207.207392 C188.274333,212.299795 183.839014,217.967146 180.06078,224.209446 C176.364682,230.451745 173.407803,237.104723 171.43655,244.086242 C170.450924,247.61807 169.629569,251.149897 169.136756,254.76386 C168.890349,256.488706 168.643943,258.459959 168.479671,260.513347 C168.233265,262.731006 168.3154,263.880903 168.233265,265.441478 L168.151129,301.00616 C167.986858,324.414784 167.822587,347.741273 167.740452,371.067762 C167.658316,379.36345 170.53306,392.422998 172.504312,396.529774 C176.528953,404.661191 179.896509,394.065708 182.44271,378.295688 C186.713758,352.258727 189.752772,323.347023 191.80616,292.956879 C192.298973,285.400411 192.709651,277.679671 193.202464,269.876797 L193.366735,266.919918 L193.613142,264.291581 C193.777413,262.238193 194.023819,261.170431 194.352361,259.445585 C194.92731,256.160164 195.912936,252.874743 197.062834,249.753593 C199.362628,243.429158 202.81232,237.5154 207.083368,232.340862 C209.218891,229.712526 211.518686,227.24846 214.147023,225.112936 L223.18193,217.638604 C227.370842,213.86037 231.149076,210.164271 234.680903,206.221766 C236.405749,204.250513 238.212731,202.279261 239.773306,200.143737 C241.416016,198.090349 243.058727,195.954825 244.537166,193.737166 C250.615195,185.030801 255.625462,175.50308 259.485832,165.482546 C263.264066,155.462012 265.810267,144.948665 267.0423,134.271047 C267.617248,128.850103 268.027926,123.7577 267.863655,118.008214 C267.78152,115.462012 267.863655,113.408624 267.617248,110.533881 L266.795893,102.073922 C264.003285,80.7186858 255.789733,59.9383984 243.140862,42.3613963 C236.816427,33.4907598 229.42423,25.523614 221.128542,18.4599589 C216.93963,15.0102669 212.668583,11.6427105 208.068994,8.68583162 C205.851335,7.12525667 203.469405,5.72895277 201.087474,4.41478439 L197.555647,2.3613963 L197.30924,2.19712526 L197.227105,2.11498973 L196.241478,1.62217659 L195.748665,1.37577002 C194.763039,0.965092402 193.777413,0.636550308 192.709651,0.390143737 C191.888296,0.22587269 191.149076,0.143737166 190.409856,0.0616016427 C187.370842,-0.184804928 184.249692,0.308008214 181.53922,1.45790554 C176.118275,3.67556468 171.765092,8.68583162 170.450924,14.7638604 C170.286653,15.5030801 170.204517,16.2422998 170.122382,16.9815195 L170.040246,18.0492813 L170.040246,18.7063655 L170.040246,19.6098563 L170.040246,21.4168378 L169.958111,28.7268994 L169.79384,43.2648871 L169.547433,72.4229979 L169.465298,86.9609856 L169.465298,89.835729 C169.383162,90.9856263 169.383162,92.4640657 169.218891,93.2854209 C169.05462,93.6960986 169.05462,94.1067762 168.972485,94.5995893 L168.397536,96.5708419 C166.67269,101.827515 162.730185,106.50924 157.719918,109.055441 C155.255852,110.36961 152.54538,111.10883 149.752772,111.355236 L148.68501,111.437372 C148.356468,111.437372 148.027926,111.519507 147.288706,111.519507 L143.674743,111.519507 L136.364682,111.519507 L121.744559,111.601643 L118.130595,111.601643 L117.391376,111.601643 L117.062834,111.601643 L115.255852,111.519507 C113.695277,111.519507 113.777413,111.273101 113.202464,111.273101 C112.873922,111.273101 112.052567,111.026694 111.395483,110.862423 C105.974538,109.466119 100.964271,105.687885 98.0073922,100.759754 C96.5289528,98.2956879 95.5433265,95.5852156 95.2147844,92.7104723 C95.1326489,91.9712526 95.1326489,91.2320329 95.0505133,90.5749487 C94.9683778,89.7535934 94.9683778,88.275154 94.9683778,87.1252567 L94.8862423,79.8151951 L95.3790554,50.9034908 L95.625462,36.4476386 L95.7075975,29.2197125 L95.7897331,25.6057495 L95.7897331,23.798768 L95.7897331,22.8952772 L95.7897331,22.4024641 L95.7075975,20.8418891 L95.625462,20.1026694 C95.5433265,19.2813142 95.3790554,18.3778234 95.2147844,17.5564682 C94.8041068,15.9958932 94.4755647,15.0924025 93.900616,13.8603696 C92.8328542,11.5605749 91.3544148,9.58932238 89.5474333,7.94661191 C86.0156057,4.66119097 81.3338809,2.77207392 76.2414784,2.77207392 C73.6952772,2.77207392 71.149076,3.34702259 68.8492813,4.25051335 C68.2743326,4.49691992 67.7815195,4.74332649 67.2065708,5.07186858 L66.7958932,5.31827515 L65.974538,5.8110883 L65.8102669,5.89322382 L65.2353183,6.30390144 L62.7712526,7.86447639 C59.7322382,9.58932238 55.7075975,12.6283368 52.0936345,15.2566735 C45.276386,20.5954825 38.9519507,26.5913758 33.2024641,32.9979466 C27.5351129,39.5687885 22.4427105,46.6324435 18.0073922,54.1067762 C13.6542094,61.6632444 10.1223819,69.6303901 7.16550308,77.8439425 C4.37289528,86.0574949 2.40164271,94.5995893 1.16960986,103.223819 C0.758932238,107.577002 0.183983573,111.848049 0.101848049,116.201232 L0.0197125257,119.486653 L0.0197125257,120.308008 L0.0197125257,120.718686 L0.0197125257,121.540041 L0.0197125257,122.936345 C0.101848049,124.907598 0.101848049,126.632444 0.183983573,128.767967 L0.758932238,135.667351 L1.662423,142.156057 C2.40164271,146.427105 3.22299795,150.698152 4.37289528,154.969199 C6.59055441,163.429158 9.62956879,171.64271 13.4078029,179.445585 C20.964271,195.13347 31.6418891,209.26078 44.6193018,220.759754 L48.8082136,224.537988 C49.8759754,225.605749 50.5330595,226.262834 51.6008214,227.412731 C53.5720739,229.548255 55.3790554,231.930185 56.9396304,234.394251 C60.1429158,239.322382 62.4427105,244.661191 63.8390144,250.328542 C64.4960986,253.12115 64.9067762,255.995893 65.1531828,258.870637 L65.2353183,261.088296 L65.3174538,263.963039 L65.3995893,269.712526 L65.8102669,292.546201 C66.138809,307.741273 66.5494867,323.01848 66.8780287,338.213552 C67.863655,372.792608 71.6418891,401.622177 79.0340862,398.99384 C85.8513347,396.61191 90.8616016,372.135524 91.6008214,336.570842 C91.9293634,320.63655 92.3400411,304.620123 92.6685832,288.603696 L93.1613963,264.620123 C93.2435318,261.00616 93.3256674,255.585216 92.7507187,250.985626 C92.2579055,246.221766 91.2722793,241.540041 89.7938398,236.940452 C87.001232,227.823409 82.4837782,219.199179 76.6521561,211.64271 C75.1737166,209.753593 73.6952772,207.946612 72.0525667,206.13963 L69.3420945,203.347023 L67.0422998,201.211499 L62.7712526,197.268994 C61.4570842,196.036961 60.3071869,194.722793 58.9930185,193.49076 C49.3010267,183.141684 41.662423,170.821355 36.6521561,157.597536 C34.598768,152.258727 33.038193,146.755647 31.9704312,141.170431 C31.313347,138.377823 30.9848049,135.585216 30.5741273,132.710472 C30.4098563,129.917864 29.9991786,127.700205 29.9170431,124.250513 C29.5063655,112.75154 30.8205339,101.334702 34.1059548,90.3285421 C37.3092402,79.3223819 42.3195072,68.8911704 48.8903491,59.5277207 C52.0936345,54.7638604 55.8718686,50.4106776 59.8143737,46.2217659 C61.9498973,44.2505133 63.8390144,42.1149897 66.138809,40.3080082 L67.9457906,38.7474333 L68.0279261,42.5256674 L68.5207392,81.1293634 L68.6850103,90.9034908 C68.8492813,95.0924025 69.3420945,99.3634497 70.6562628,103.38809 C72.9560575,111.519507 77.6377823,118.829569 83.55154,124.579055 C89.6295688,130.328542 97.1039014,134.517454 105.235318,136.488706 C107.124435,137.063655 109.506366,137.392197 111.80616,137.638604 L112.627515,137.720739 L113.202464,137.720739 L114.434497,137.802875 L115.66653,137.88501 L116.241478,137.88501 L117.391376,137.88501 L127.083368,137.802875 L144.413963,138.62423 L146.549487,138.706366 C147.288706,138.706366 147.945791,138.788501 148.931417,138.788501 C150.820534,138.706366 152.709651,138.788501 154.598768,138.542094 C158.377002,138.213552 162.155236,137.310062 165.769199,135.995893 C180.307187,130.903491 192.298973,118.501027 196.570021,103.059548 C196.816427,102.073922 197.144969,101.170431 197.391376,100.102669 L197.966324,96.7351129 L198.212731,95.0924025 C198.294867,94.5174538 198.294867,94.2710472 198.294867,93.8603696 L198.459138,91.724846 L198.78768,82.3613963 L199.280493,64.9486653 C199.444764,56.7351129 199.609035,48.5215606 199.773306,40.3080082 C206.015606,45.4004107 211.682957,51.1498973 216.611088,57.5564682 C222.771253,65.523614 227.863655,74.3942505 231.477618,83.7577002 C233.366735,88.4394251 234.763039,93.2854209 235.912936,98.2135524 C236.487885,100.677618 236.816427,103.141684 237.30924,105.605749 C237.637782,107.98768 237.802053,110.287474 238.130595,112.587269 C238.294867,115.297741 238.377002,118.336756 238.459138,121.211499 L238.377002,124.49692 C238.459138,125.811088 238.459138,127.043121 238.294867,128.275154 L238.294867,128.275154 Z" id="Shape"></path>
                        <path d="M142.524846,273.737166 C138.500205,272.833676 135.132649,273.983573 132.586448,275.708419 C124.126489,281.37577 120.43039,288.35729 119.444764,295.338809 C117.062834,312.258727 113.448871,329.178645 116.159343,346.262834 C115.830801,348.398357 115.502259,350.451745 115.255852,352.587269 C113.859548,365.975359 113.448871,379.281314 116.816427,392.587269 C117.802053,396.365503 121.580287,399.486653 128.972485,399.240246 C135.789733,398.99384 140.8,396.283368 141.53922,392.422998 C142.935524,385.441478 144.496099,378.459959 144.331828,371.396304 C144.003285,360.143737 142.360575,348.89117 141.292813,337.638604 C150.738398,317.5154 145.317454,296.899384 147.288706,276.447639 C147.452977,275.544148 144.578234,274.147844 142.524846,273.737166 L142.524846,273.737166 Z" id="Shape"></path>
                    </g>
                </g>
            </g>
        </g>
    </g>
</svg>