<?xml version="1.0" encoding="UTF-8"?>
<svg width="600px" height="600px" viewBox="0 0 600 600" version="1.1" xmlns="http://www.w3.org/2000/svg" xmlns:xlink="http://www.w3.org/1999/xlink">
    <!-- Generator: Sketch 41.1 (35376) - http://www.bohemiancoding.com/sketch -->
    <title>Group 2 Copy 31</title>
    <desc>Created with Sketch.</desc>
    <defs>
        <linearGradient x1="50%" y1="0%" x2="50%" y2="100%" id="linearGradient-1">
            <stop stop-color="#FFFFFF" offset="0%"></stop>
            <stop stop-color="#FFFFFF" offset="100%"></stop>
        </linearGradient>
        <path d="M552.268958,552.268958 C600,504.537813 600,431.458333 600,300 C600,168.541667 600,95.4621875 552.268958,47.7310417 C504.537813,0 431.458333,0 300,0 C168.541667,0 95.4621875,0 47.7310417,47.7310417 C0,95.4621875 0,168.541667 0,300 C0,431.458333 0,504.537813 47.7310417,552.268958 C95.4621875,600 168.541667,600 300,600 C431.458333,600 504.537813,600 552.268958,552.268958 L552.268958,552.268958 Z" id="path-2"></path>
        <mask id="mask-3" maskContentUnits="userSpaceOnUse" maskUnits="objectBoundingBox" x="0" y="0" width="600" height="600" fill="white">
            <use xlink:href="#path-2"></use>
        </mask>
        <linearGradient x1="50%" y1="0%" x2="50%" y2="100%" id="linearGradient-4">
            <stop stop-color="#FFFFFF" stop-opacity="0.2" offset="0%"></stop>
            <stop stop-color="#000000" stop-opacity="0.138870018" offset="100%"></stop>
        </linearGradient>
    </defs>
    <g id="Page-1" stroke="none" stroke-width="1" fill="none" fill-rule="evenodd">
        <g id="Group-2-Copy-31">
            <use id="path-copy-20" stroke="#6F6E6E" mask="url(#mask-3)" stroke-width="8" fill="url(#linearGradient-1)" xlink:href="#path-2"></use>
            <g id="Group-2" transform="translate(59.000000, 217.000000)">
                <g id="logo" transform="translate(0.000000, 0.789474)">
                    <g id="Slice-1">
                        <g id="Page-1">
                            <g id="Logo">
                                <g id="mark">
                                    <polygon id="Fill-17" fill="#FFCF01" points="70.9046667 164.002794 106.650484 144.364198 36.3891284 103.06259 0.268399272 124.556769"></polygon>
                                    <polygon id="Fill-18" fill="#40BEB4" points="71.1653723 123.587601 70.9046667 164.002239 142.222234 124.895467 142.222234 84.1384066"></polygon>
                                    <polygon id="Fill-19" fill="#01A5DB" points="142.222786 84.1384066 142.222786 124.895467 71.1659237 83.9973155 71.5006666 42.4816928"></polygon>
                                    <polygon id="Fill-20" fill="#EF3F2D" points="71.1653723 83.8429081 71.1653723 123.58776 0.191211495 81.7305068 0.157343389 42.4263661"></polygon>
                                    <polygon id="Fill-21" fill="#F16625" points="0.157815967 42.4263661 0.157815967 81.7312994 71.4998003 42.6633673 71.1658449 0.733190697"></polygon>
                                    <polygon id="Fill-22" fill="#FFCF01" points="107.082105 63.4398851 141.878828 41.9116219 71.1653723 0.733666285 35.5558154 21.6745789"></polygon>
                                    <polygon id="Fill-23" fill="#00A1AF" points="142.222786 84.1384066 106.18082 104.168569 142.222786 124.895467"></polygon>
                                    <polygon id="Fill-24" fill="#5DA73C" points="71.1653723 123.587601 70.9046667 164.002239 106.651271 144.364436"></polygon>
                                    <polygon id="Fill-25" fill="#ED1F2E" points="0.157815967 42.4263661 0.190896443 81.7312994 35.4444444 62.974919"></polygon>
                                    <polygon id="Fill-26" fill="#F0532D" points="71.1653723 0.733587021 71.5001154 42.6629709 35.5558154 21.6744997"></polygon>
                                    <polygon id="Fill-27" fill="#FEBE10" points="71.1653723 123.587601 35.5825949 144.274075 70.9046667 164.002239"></polygon>
                                    <polygon id="Fill-28" fill="#FEBE10" points="71.4996428 42.6629709 108.050418 22.2127062 71.1648999 0.733587021"></polygon>
                                </g>
                            </g>
                        </g>
                    </g>
                </g>
                <g id="logosvg-animated-copy" transform="translate(317.378587, 0.000000)">
                    <g id="Group">
                        <g id="inner">
                            <g id="XMLID_5_">
                                <path d="M33.5078903,82.5110674 L33.5078903,82.5110674 C33.5078903,55.4002881 55.4238619,33.367113 82.4565788,33.367113 C102.063223,33.367113 119.088853,44.9730653 126.786612,61.6566218 L126.786612,13.2833751 C114.107951,4.98693264 98.7577146,0.181343005 82.3660169,0.181343005 C37.0398031,0.181343005 0.271685597,37.1299803 0.271685597,82.5110674 C0.271685597,109.485839 13.1314705,133.468452 33.5078903,148.519921 L33.5078903,82.5110674 Z" id="Shape" fill="#2AB191"></path>
                                <path d="M131.314705,16.5022135 L131.314705,82.5110674 C131.314705,109.621847 109.398734,131.655022 82.3660169,131.655022 C62.759373,131.655022 45.7337422,120.049069 38.0359836,103.365513 L38.0359836,151.73876 C50.7146448,160.035202 66.0648811,164.840792 82.4565788,164.840792 C127.782793,164.840792 164.55091,127.93749 164.55091,82.5110674 C164.55091,55.5362954 151.691125,31.5536829 131.314705,16.5022135 Z" id="Shape" fill="#4990E2"></path>
                            </g>
                        </g>
                        <g id="outer" transform="translate(0.000000, 0.453358)">
                            <path d="M31.1985628,12.5580031 C27.5308072,5.75764042 14.4898985,-0.997386529 0,0.181343005 L0,56.4883461 C5.43371195,38.6713959 16.5728214,23.3479119 31.1985628,12.5580031 Z" id="Shape" fill="#4990E2"></path>
                            <path d="M133.624033,151.557417 C137.291789,158.357779 150.242135,165.112806 164.822596,163.934077 L164.822596,107.627074 C159.298322,125.444024 148.249774,140.767508 133.624033,151.557417 Z" id="Shape" fill="#EE6666"></path>
                        </g>
                    </g>
                </g>
                <g id="arrow-right-c" opacity="0.100000001" transform="translate(178.103493, 42.080644)" fill="#000000">
                    <g id="Layer_1">
                        <path d="M73.1367816,2.83067165 L103.36183,34.4498763 C105.169908,36.1964609 106.073948,38.5754297 106.073948,41.1953066 C106.073948,43.8151836 105.169908,46.1640388 103.36183,47.940737 L73.1367816,79.6803957 C69.5507589,83.4445868 63.7046379,83.4445868 60.1186153,79.6803957 C56.5325926,75.9162047 56.5325926,69.833272 60.1186153,66.069081 L74.6435138,50.8918627 L9.25133578,50.8918627 C4.12844626,50.8918627 0,46.5856282 0,41.2555337 C0,35.9254392 4.12844626,31.6192047 9.22120114,31.6192047 L74.6133791,31.6192047 L60.0884806,16.4419864 C56.502458,12.6777954 56.502458,6.59486269 60.0884806,2.83067165 C63.7046379,-0.933519376 69.5206243,-0.933519376 73.1367816,2.83067165 Z" id="Shape"></path>
                    </g>
                </g>
            </g>
            <path d="M600,300 C600,168.541667 600,95.4621875 552.268958,47.7310417 C504.537813,0 431.458333,0 300,0 C168.541667,0 95.4621875,0 47.7310417,47.7310417 C0,95.4621875 0,168.541667 0,300 C0,431.458333 0,504.537813 47.7310417,552.268958 C95.4621875,600 168.541667,600 300,600 C431.458333,600 504.537813,600 552.268958,552.268958 C600,504.537813 600,431.458333 600,300 Z" id="path-copy" fill="url(#linearGradient-4)"></path>
        </g>
    </g>
</svg>