<?xml version="1.0" encoding="UTF-8"?>
<svg width="606px" height="606px" viewBox="0 0 606 606" version="1.1" xmlns="http://www.w3.org/2000/svg" xmlns:xlink="http://www.w3.org/1999/xlink">
    <!-- Generator: Sketch 40.2 (33826) - http://www.bohemiancoding.com/sketch -->
    <title>acl</title>
    <desc>Created with Sketch.</desc>
    <defs>
        <linearGradient x1="50%" y1="0%" x2="50%" y2="100%" id="linearGradient-1">
            <stop stop-color="#FFFFFF" stop-opacity="0.2" offset="0%"></stop>
            <stop stop-color="#000000" stop-opacity="0.2" offset="100%"></stop>
        </linearGradient>
        <path d="M552.268958,552.268958 C600,504.537813 600,431.458333 600,300 C600,168.541667 600,95.4621875 552.268958,47.7310417 C504.537813,0 431.458333,0 300,0 C168.541667,0 95.4621875,0 47.7310417,47.7310417 C0,95.4621875 0,168.541667 0,300 C0,431.458333 0,504.537813 47.7310417,552.268958 C95.4621875,600 168.541667,600 300,600 C431.458333,600 504.537813,600 552.268958,552.268958 Z" id="path-2"></path>
    </defs>
    <g id="Page-1" stroke="none" stroke-width="1" fill="none" fill-rule="evenodd">
        <g id="acl" transform="translate(3.000000, 3.000000)">
            <g id="Squircle2-Copy-6">
                <g id="Shape">
                    <use fill="#F06563" xlink:href="#path-2"></use>
                    <use stroke="#000000" stroke-width="4.04" fill="url(#linearGradient-1)" xlink:href="#path-2"></use>
                </g>
            </g>
            <g id="levels" opacity="0.9" transform="translate(118.000000, 100.000000)" fill="#FFFFFF">
                <g id="Layer_1">
                    <g id="Group">
                        <path d="M47.9166667,36.6666667 L47.9166667,16.6666667 C47.9166667,7.5 40.4166667,0 31.25,0 C22.0833333,0 14.5833333,7.5 14.5833333,16.6666667 L14.5833333,39.0625 C5.72916667,45.1041667 0,55.2083333 0,66.6666667 C0,78.125 5.72916667,88.2291667 14.5833333,94.2708333 L14.5833333,383.333333 C14.5833333,392.5 22.0833333,400 31.25,400 C40.4166667,400 47.9166667,392.5 47.9166667,383.333333 L47.9166667,96.6666667 C59.0625,91.25 66.6666667,79.8958333 66.6666667,66.6666667 C66.6666667,53.4375 59.0625,42.0833333 47.9166667,36.6666667 L47.9166667,36.6666667 Z" id="Shape"></path>
                        <path d="M147.916667,238.4375 L147.916667,16.6666667 C147.916667,7.5 140.416667,0 131.25,0 C122.083333,0 114.583333,7.5 114.583333,16.6666667 L114.583333,237.1875 C104.0625,242.8125 96.875,253.854167 96.875,266.666667 C96.875,279.479167 104.0625,290.520833 114.583333,296.145833 L114.583333,383.333333 C114.583333,392.5 122.083333,400 131.25,400 C140.416667,400 147.916667,392.5 147.916667,383.333333 L147.916667,294.895833 C157.291667,288.958333 163.541667,278.541667 163.541667,266.666667 C163.541667,254.791667 157.291667,244.375 147.916667,238.4375 L147.916667,238.4375 Z" id="Shape"></path>
                        <path d="M247.916667,103.4375 L247.916667,16.6666667 C247.916667,7.5 240.416667,0 231.25,0 C222.083333,0 214.583333,7.5 214.583333,16.6666667 L214.583333,103.4375 C204.583333,109.166667 197.916667,120 197.916667,132.291667 C197.916667,144.583333 204.583333,155.416667 214.583333,161.145833 L214.583333,383.333333 C214.583333,392.5 222.083333,400 231.25,400 C240.416667,400 247.916667,392.5 247.916667,383.333333 L247.916667,161.145833 C257.916667,155.416667 264.583333,144.583333 264.583333,132.291667 C264.583333,120 257.916667,109.166667 247.916667,103.4375 L247.916667,103.4375 Z" id="Shape"></path>
                        <path d="M364.583333,332.291667 C364.583333,320 357.916667,309.166667 347.916667,303.4375 L347.916667,16.6666667 C347.916667,7.5 340.416667,0 331.25,0 C322.083333,0 314.583333,7.5 314.583333,16.6666667 L314.583333,303.4375 C304.583333,309.166667 297.916667,320 297.916667,332.291667 C297.916667,344.583333 304.583333,355.416667 314.583333,361.145833 L314.583333,383.333333 C314.583333,392.5 322.083333,400 331.25,400 C340.416667,400 347.916667,392.5 347.916667,383.333333 L347.916667,361.145833 C357.916667,355.416667 364.583333,344.583333 364.583333,332.291667 L364.583333,332.291667 Z" id="Shape"></path>
                    </g>
                </g>
            </g>
        </g>
    </g>
</svg>