<svg width="320" height="320" viewBox="0 0 320 320" fill="none" xmlns="http://www.w3.org/2000/svg">
<g clip-path="url(#clip0_1014_7568)">
<path d="M160 0C281.326 0 320 38.6737 320 160C320 281.326 281.326 320 160 320C38.6736 320 0 281.326 0 160C0 38.6737 38.6736 0 160 0Z" fill="url(#paint0_linear_1014_7568)"/>
<path d="M160 2C220.573 2 259.85 11.6833 284.083 35.9168C308.317 60.1504 318 99.4272 318 160C318 220.573 308.317 259.85 284.083 284.083C259.85 308.317 220.573 318 160 318C99.4272 318 60.1504 308.317 35.9168 284.083C11.6833 259.85 2 220.573 2 160C2 99.4272 11.6833 60.1504 35.9168 35.9168C60.1504 11.6833 99.4272 2 160 2Z" stroke="#F8FAFC" stroke-opacity="0.2" stroke-width="4"/>
<g clip-path="url(#clip1_1014_7568)">
<path fill-rule="evenodd" clip-rule="evenodd" d="M178.887 222.293C178.055 219.45 174.68 218.562 172.071 219.966C160.36 226.266 145.791 230 130 230C107.453 230 87.3963 222.386 74.5937 210.562C72.5295 208.655 69.2781 208.481 67.4819 210.642C62.7144 216.378 60 222.978 60 230C60 252.092 86.8629 270 120 270C153.137 270 180 252.092 180 230C180 227.364 179.617 224.787 178.887 222.293Z" fill="url(#paint1_linear_1014_7568)"/>
<ellipse cx="130" cy="180" rx="60" ry="40" fill="url(#paint2_linear_1014_7568)"/>
<path fill-rule="evenodd" clip-rule="evenodd" d="M194.047 200.209C192.97 201.947 192.809 204.216 194.222 205.694C197.038 208.642 200.613 209.904 205.087 209.904C220.253 209.904 225.087 195.402 225.087 149.904C225.087 138.284 224.772 128.685 224.05 120.834C223.787 117.975 227.371 116.115 229.545 117.99C246.878 132.939 256.314 134.577 264.945 125.945C275.669 115.221 270.542 103.257 243.732 76.4475C225.316 58.0314 213.905 49.8463 205.089 50.0022C196.273 49.8474 184.862 58.0326 166.448 76.4475C139.638 103.257 134.51 115.221 145.234 125.945C153.865 134.576 163.299 132.939 180.63 117.995C182.804 116.12 186.388 117.979 186.125 120.838C185.465 128.009 185.145 136.637 185.095 146.932C185.088 148.342 185.692 149.68 186.697 150.669C195.065 158.908 200 169.042 200 180C200 187.192 197.874 194.029 194.047 200.209Z" fill="url(#paint3_linear_1014_7568)"/>
</g>
</g>
<defs>
<linearGradient id="paint0_linear_1014_7568" x1="160" y1="0" x2="160" y2="320" gradientUnits="userSpaceOnUse">
<stop stop-color="#475569"/>
<stop offset="1" stop-color="#1E293B"/>
</linearGradient>
<linearGradient id="paint1_linear_1014_7568" x1="120" y1="209.076" x2="120" y2="270" gradientUnits="userSpaceOnUse">
<stop stop-color="#FB923C"/>
<stop offset="1" stop-color="#EA580C"/>
</linearGradient>
<linearGradient id="paint2_linear_1014_7568" x1="130" y1="140" x2="130" y2="220" gradientUnits="userSpaceOnUse">
<stop stop-color="#FACC15"/>
<stop offset="1" stop-color="#CA8A04"/>
</linearGradient>
<linearGradient id="paint3_linear_1014_7568" x1="205.09" y1="50" x2="205.09" y2="209.904" gradientUnits="userSpaceOnUse">
<stop stop-color="#60A5FA"/>
<stop offset="1" stop-color="#2563EB"/>
</linearGradient>
<clipPath id="clip0_1014_7568">
<rect width="320" height="320" fill="white"/>
</clipPath>
<clipPath id="clip1_1014_7568">
<rect width="240" height="240" fill="white" transform="translate(40 40)"/>
</clipPath>
</defs>
</svg>
