<?xml version="1.0" encoding="UTF-8"?>
<svg width="606px" height="606px" viewBox="0 0 606 606" version="1.1" xmlns="http://www.w3.org/2000/svg" xmlns:xlink="http://www.w3.org/1999/xlink">
    <!-- Generator: Sketch 40.2 (33826) - http://www.bohemiancoding.com/sketch -->
    <title>ACL</title>
    <desc>Created with Sketch.</desc>
    <defs>
        <linearGradient x1="50%" y1="0%" x2="50%" y2="100%" id="linearGradient-1">
            <stop stop-color="#FFFFFF" stop-opacity="0.2" offset="0%"></stop>
            <stop stop-color="#000000" stop-opacity="0.2" offset="100%"></stop>
        </linearGradient>
        <path d="M552.268958,552.268958 C600,504.537813 600,431.458333 600,300 C600,168.541667 600,95.4621875 552.268958,47.7310417 C504.537813,0 431.458333,0 300,0 C168.541667,0 95.4621875,0 47.7310417,47.7310417 C0,95.4621875 0,168.541667 0,300 C0,431.458333 0,504.537813 47.7310417,552.268958 C95.4621875,600 168.541667,600 300,600 C431.458333,600 504.537813,600 552.268958,552.268958 Z" id="path-2"></path>
    </defs>
    <g id="Page-1" stroke="none" stroke-width="1" fill="none" fill-rule="evenodd">
        <g id="ACL" transform="translate(3.000000, 3.000000)">
            <g id="Shape">
                <use fill="#1DB291" xlink:href="#path-2"></use>
                <use stroke="#000000" stroke-width="4.04" fill="url(#linearGradient-1)" xlink:href="#path-2"></use>
            </g>
            <g id="levels-1" opacity="0.9" transform="translate(115.000000, 100.000000)" fill="#FFFFFF">
                <g id="Capa_1">
                    <g id="Group">
                        <path d="M55.8691207,75.7464213 C89.406953,78.1186094 122.862986,81.7177914 156.564417,79.0184049 C160.736196,79.3456033 164.907975,79.6728016 169.079755,79.9182004 C195.501022,81.3087935 222.00409,81.7177914 248.261759,78.3640082 C249.97955,78.1186094 251.697342,77.7096115 253.251534,77.2188139 C253.251534,79.4274029 253.333333,81.799591 254.151329,84.2535787 C256.850716,94.2331288 262.413088,103.640082 270.184049,111.002045 C278.03681,118.364008 287.852761,123.599182 298.813906,125.398773 L302.413088,125.889571 L304.212679,126.134969 L305.521472,126.216769 L308.05726,126.298569 L310.02045,126.298569 L311.656442,126.216769 C315.99182,126.05317 320.327198,125.398773 324.417178,124.253579 C332.760736,121.96319 340.531697,117.873211 347.075665,112.474438 C360.245399,101.595092 368.09816,85.2351738 368.507157,68.3844581 C368.01636,68.8752556 367.443763,69.202454 366.952965,69.6932515 C367.443763,69.1206544 368.01636,68.7116564 368.507157,68.3844581 C370.143149,61.4314928 370.224949,53.3333333 368.588957,45.6441718 C366.952965,37.9550102 363.517382,30.5112474 358.691207,24.0490798 C353.865031,17.5869121 347.648262,12.0245399 340.531697,7.93456033 C338.732106,6.95296524 336.850716,6.05316973 335.051125,5.15337423 C333.169734,4.33537832 331.206544,3.6809816 329.243354,2.94478528 C327.280164,2.37218814 325.235174,1.799591 323.271984,1.30879346 C321.145194,0.81799591 318.691207,0.572597137 316.482618,0.245398773 L315.582822,0.163599182 L315.010225,0.163599182 L313.865031,0.081799591 L311.574642,0 L311.002045,0 L310.674847,0 L309.693252,0 L309.529652,0 L307.97546,0.081799591 L304.867076,0.245398773 C300.777096,0.572597137 296.687117,1.30879346 292.678937,2.45398773 C284.744376,4.66257669 277.218814,8.50715746 270.756646,13.4969325 C264.212679,18.4867076 258.732106,24.7034765 254.478528,31.7382413 C253.333333,33.4560327 252.433538,35.3374233 251.533742,37.1370143 C250.552147,38.9366053 249.815951,40.8997955 249.079755,42.7811861 C248.261759,44.6625767 247.689162,46.6257669 247.116564,48.6707566 L246.298569,51.6973415 L245.97137,53.6605317 C232.801636,52.2699387 219.550102,50.8793456 206.380368,51.0429448 C184.130879,51.3701431 161.881391,53.006135 139.631902,54.0695297 C99.7137014,44.6625767 58.8957055,50.0613497 18.5685072,48.0981595 C16.7689162,48.0163599 13.9877301,50.8793456 13.0879346,52.8425358 C11.3701431,56.8507157 13.5787321,60.204499 17.0143149,62.7402863 C28.3026585,71.0838446 41.9631902,74.7648262 55.8691207,75.7464213 L55.8691207,75.7464213 Z M260.0409,58.7321063 C270.102249,45.398773 280.899796,36.6462168 292.924335,31.4928425 C296.523517,29.8568507 300.368098,29.1206544 304.130879,28.793456 C305.112474,28.793456 306.01227,28.5480573 306.993865,28.7116564 L309.202454,28.793456 C311.656442,29.0388548 314.683027,29.3660532 315.664622,29.8568507 C316.400818,30.0204499 317.137014,30.1840491 318.03681,30.593047 C318.936605,30.9202454 319.836401,31.1656442 320.654397,31.5746421 L323.108384,32.7198364 L325.480573,34.1104294 C328.588957,36.0736196 331.288344,38.3640082 333.660532,41.0633947 C338.241309,46.4621677 341.349693,53.006135 342.249489,59.8773006 C342.413088,60.6952965 342.494888,61.595092 342.494888,62.4948875 L342.576687,63.803681 L342.658487,64.4580777 L342.658487,64.4580777 L342.658487,64.5398773 L342.494888,68.3844581 C342.413088,69.2842536 342.249489,69.7750511 342.249489,70.5112474 C341.840491,73.5378323 340.858896,77.3006135 339.550102,80.5725971 C337.586912,83.5173824 335.132924,86.0531697 332.433538,88.3435583 C324.00818,95.4601227 312.556237,97.9141104 302.249489,95.4601227 C297.096115,94.3149284 292.188139,92.0245399 287.93456,88.5889571 C283.599182,85.2351738 280,80.8997955 277.300613,75.7464213 C276.482618,74.3558282 275.828221,72.8834356 274.846626,71.5746421 C274.110429,70.2658487 272.965235,69.0388548 271.90184,67.9754601 C269.856851,65.8486708 266.912065,64.2944785 263.231084,64.5398773 C262.494888,64.6216769 261.840491,64.7852761 261.186094,64.9488753 C260.858896,63.0674847 260.204499,61.3496933 259.141104,59.8773006 C259.550102,59.4683027 259.795501,59.1411043 260.0409,58.7321063 L260.0409,58.7321063 Z" id="Shape"></path>
                        <path d="M3.599182,195.746421 C3.10838446,196.319018 2.53578732,196.728016 2.04498978,197.055215 C0.408997955,204.00818 0.327198364,212.106339 1.96319018,219.795501 C3.599182,227.484663 7.03476483,234.928425 11.8609407,241.390593 C16.6871166,247.852761 22.9038855,253.415133 30.0204499,257.505112 C31.8200409,258.486708 33.7014315,259.386503 35.5010225,260.286299 C37.3824131,261.104294 39.3456033,261.758691 41.3087935,262.494888 C43.2719836,263.067485 45.3169734,263.640082 47.2801636,264.130879 C49.406953,264.621677 51.8609407,264.867076 54.0695297,265.194274 L54.9693252,265.276074 L55.5419223,265.276074 L56.6871166,265.357873 L58.9775051,265.439673 L59.5501022,265.439673 L59.8773006,265.439673 L60.8588957,265.439673 L61.0224949,265.439673 L62.5766871,265.357873 L65.6850716,265.194274 C69.7750511,264.867076 73.8650307,264.130879 77.8732106,262.985685 C85.807771,260.777096 93.3333333,256.932515 99.795501,251.94274 C106.339468,246.952965 111.820041,240.736196 116.07362,233.701431 C117.218814,231.98364 118.118609,230.102249 119.018405,228.302658 C120,226.503067 120.736196,224.539877 121.472393,222.658487 C122.290389,220.777096 122.862986,218.813906 123.435583,216.768916 L124.253579,213.742331 L124.580777,211.779141 C137.750511,213.169734 151.002045,214.560327 164.171779,214.396728 C186.421268,214.06953 208.670757,212.433538 230.920245,211.370143 C270.838446,220.777096 311.656442,215.378323 351.98364,217.341513 C353.783231,217.423313 356.564417,214.560327 357.464213,212.597137 C359.182004,208.588957 356.973415,205.235174 353.537832,202.699387 C342.249489,194.274029 328.588957,190.593047 314.683027,189.611452 C281.145194,187.239264 247.689162,183.640082 213.98773,186.339468 C209.815951,186.01227 205.644172,185.685072 201.472393,185.439673 C175.051125,184.04908 148.548057,183.640082 122.290389,186.993865 C120.572597,187.239264 118.854806,187.648262 117.300613,188.139059 C117.300613,185.93047 117.218814,183.558282 116.400818,181.104294 C113.701431,171.124744 108.139059,161.717791 100.368098,154.355828 C92.5153374,146.993865 82.6993865,141.758691 71.7382413,139.9591 L68.1390593,139.468303 L66.3394683,139.222904 L65.0306748,139.141104 L62.4948875,139.059305 L60.5316973,139.059305 L58.8957055,139.141104 C54.5603272,139.304703 50.2249489,139.9591 46.1349693,141.104294 C37.791411,143.394683 30.0204499,147.484663 23.4764826,152.883436 C10.3067485,163.762781 2.45398773,180.122699 2.04498978,196.973415 C2.61758691,196.564417 3.10838446,196.155419 3.599182,195.746421 L3.599182,195.746421 Z M27.9754601,200.736196 L28.1390593,196.891616 C28.2208589,195.99182 28.3844581,195.501022 28.3844581,194.764826 C28.793456,191.738241 29.7750511,187.97546 31.0838446,184.703476 C33.0470348,181.758691 35.5010225,179.222904 38.200409,176.932515 C46.6257669,169.815951 58.0777096,167.361963 68.3844581,169.815951 C73.5378323,170.961145 78.4458078,173.251534 82.6993865,176.687117 C87.0347648,180.0409 90.6339468,184.376278 93.3333333,189.529652 C94.1513292,190.920245 94.805726,192.392638 95.7873211,193.701431 C96.5235174,195.010225 97.6687117,196.237219 98.7321063,197.300613 C100.777096,199.427403 103.721881,200.981595 107.402863,200.736196 C108.139059,200.654397 108.793456,200.490798 109.447853,200.327198 C109.775051,202.208589 110.429448,203.92638 111.492843,205.398773 C111.247444,205.725971 110.920245,206.134969 110.674847,206.462168 C100.613497,219.795501 89.8159509,228.548057 77.791411,233.701431 C74.192229,235.337423 70.3476483,236.07362 66.5848671,236.400818 C65.603272,236.400818 64.7034765,236.646217 63.7218814,236.482618 L61.5132924,236.400818 C59.0593047,236.155419 56.0327198,235.828221 55.0511247,235.337423 C54.3149284,235.173824 53.5787321,235.010225 52.6789366,234.601227 C51.7791411,234.274029 50.8793456,234.02863 50.0613497,233.619632 L47.607362,232.474438 L45.2351738,231.083845 C42.1267894,229.120654 39.4274029,226.830266 37.0552147,224.130879 C32.4744376,218.650307 29.3660532,212.188139 28.4662577,205.316973 C28.3026585,204.498978 28.2208589,203.599182 28.2208589,202.699387 L28.1390593,201.390593 L28.0572597,200.736196 L28.0572597,200.736196 L27.9754601,200.736196 L27.9754601,200.736196 Z" id="Shape"></path>
                        <path d="M17.0143149,336.359918 C28.3026585,344.785276 41.9631902,348.466258 55.8691207,349.447853 C89.406953,351.820041 122.862986,355.419223 156.564417,352.719836 C160.736196,353.047035 164.907975,353.374233 169.079755,353.619632 C195.501022,355.010225 222.00409,355.419223 248.261759,352.06544 C249.97955,351.820041 251.697342,351.411043 253.251534,350.920245 C253.251534,353.128834 253.333333,355.501022 254.151329,357.95501 C256.850716,367.93456 262.413088,377.341513 270.184049,384.703476 C278.03681,392.06544 287.852761,397.300613 298.813906,399.100204 L302.413088,399.591002 L304.212679,399.836401 L305.521472,399.9182 L308.05726,400 L310.02045,400 L311.656442,399.9182 C315.99182,399.754601 320.327198,399.100204 324.417178,397.95501 C332.760736,395.664622 340.531697,391.574642 347.075665,386.175869 C360.245399,375.296524 368.09816,358.936605 368.507157,342.08589 C368.01636,342.576687 367.443763,342.903885 366.952965,343.394683 C367.443763,342.822086 368.01636,342.413088 368.507157,342.08589 C370.143149,335.132924 370.224949,327.034765 368.588957,319.345603 C366.952965,311.656442 363.517382,304.212679 358.691207,297.750511 C353.865031,291.288344 347.648262,285.725971 340.531697,281.635992 C338.732106,280.654397 336.850716,279.754601 335.051125,278.854806 C333.169734,278.03681 331.206544,277.382413 329.243354,276.646217 C327.280164,276.07362 325.235174,275.501022 323.271984,275.010225 C321.145194,274.519427 318.691207,274.274029 316.482618,273.94683 L315.582822,273.865031 L315.010225,273.865031 L313.865031,273.783231 L311.574642,273.701431 L311.002045,273.701431 L310.674847,273.701431 L309.693252,273.701431 L309.529652,273.701431 L307.97546,273.783231 L304.867076,273.94683 C300.777096,274.274029 296.687117,275.010225 292.678937,276.155419 C284.744376,278.364008 277.218814,282.208589 270.756646,287.198364 C264.212679,292.188139 258.732106,298.404908 254.478528,305.439673 C253.333333,307.157464 252.433538,309.038855 251.533742,310.838446 C250.552147,312.638037 249.815951,314.601227 249.079755,316.482618 C248.261759,318.364008 247.689162,320.327198 247.116564,322.372188 L246.298569,325.398773 L245.97137,327.361963 C232.801636,325.97137 219.550102,324.580777 206.380368,324.744376 C184.130879,325.071575 161.881391,326.707566 139.631902,327.770961 C99.7137014,318.364008 58.8957055,323.762781 18.5685072,321.799591 C16.7689162,321.717791 13.9877301,324.580777 13.0879346,326.543967 C11.2883436,330.388548 13.5787321,333.742331 17.0143149,336.359918 L17.0143149,336.359918 Z M260.0409,332.433538 C270.102249,319.100204 280.899796,310.347648 292.924335,305.194274 C296.523517,303.558282 300.368098,302.822086 304.130879,302.494888 C305.112474,302.494888 306.01227,302.249489 306.993865,302.413088 L309.202454,302.494888 C311.656442,302.740286 314.683027,303.067485 315.664622,303.558282 C316.400818,303.721881 317.137014,303.885481 318.03681,304.294479 C318.936605,304.621677 319.836401,304.867076 320.654397,305.276074 L323.108384,306.421268 L325.480573,307.811861 C328.588957,309.775051 331.288344,312.06544 333.660532,314.764826 C338.241309,320.163599 341.349693,326.707566 342.249489,333.578732 C342.413088,334.396728 342.494888,335.296524 342.494888,336.196319 L342.576687,337.505112 L342.658487,338.159509 L342.658487,338.159509 L342.658487,338.241309 L342.494888,342.08589 C342.413088,342.985685 342.249489,343.476483 342.249489,344.212679 C341.840491,347.239264 340.858896,351.002045 339.550102,354.274029 C337.586912,357.218814 335.132924,359.754601 332.433538,362.04499 C324.00818,369.161554 312.556237,371.615542 302.249489,369.161554 C297.096115,368.01636 292.188139,365.725971 287.93456,362.290389 C283.599182,358.936605 280,354.601227 277.300613,349.447853 C276.482618,348.05726 275.828221,346.584867 274.846626,345.276074 C274.110429,343.96728 272.965235,342.740286 271.90184,341.676892 C269.856851,339.550102 266.912065,337.99591 263.231084,338.241309 C262.494888,338.323108 261.840491,338.486708 261.186094,338.650307 C260.858896,336.768916 260.204499,335.051125 259.141104,333.578732 C259.550102,333.169734 259.795501,332.842536 260.0409,332.433538 L260.0409,332.433538 Z" id="Shape"></path>
                    </g>
                </g>
            </g>
        </g>
    </g>
</svg>