<?xml version="1.0" encoding="UTF-8"?>
<svg width="516px" height="516px" viewBox="0 0 516 516" version="1.1" xmlns="http://www.w3.org/2000/svg" xmlns:xlink="http://www.w3.org/1999/xlink">
    <!-- Generator: Sketch 50.2 (55047) - http://www.bohemiancoding.com/sketch -->
    <title>Lucid</title>
    <desc>Created with Sketch.</desc>
    <defs>
        <linearGradient x1="50%" y1="0%" x2="50%" y2="100%" id="linearGradient-1">
            <stop stop-color="#FFFFFF" offset="0%"></stop>
            <stop stop-color="#EEEEEE" offset="100%"></stop>
        </linearGradient>
    </defs>
    <g id="Page-1" stroke="none" stroke-width="1" fill="none" fill-rule="evenodd">
        <g id="Lucid" transform="translate(2.000000, 2.000000)">
            <path d="M256,512 C368.177778,512 430.538933,512 471.269511,471.269511 C512,430.538933 512,368.177778 512,256 C512,143.822222 512,81.4610667 471.269511,40.7304889 C430.538933,0 368.177778,0 256,0 C143.822222,0 81.4610667,0 40.7304889,40.7304889 C0,81.4610667 0,143.822222 0,256 C0,368.177778 0,430.538933 40.7304889,471.269511 C81.4610667,512 143.822222,512 256,512 Z" id="Shape" stroke="#000000" stroke-width="4" fill="url(#linearGradient-1)"></path>
            <g id="brightness" transform="translate(76.000000, 76.000000)" fill-rule="nonzero">
                <path d="M230.36652,101 C254.003746,138.051541 248.707336,186.553733 217.630534,217.630534 C186.553733,248.707336 138.051541,254.003746 101,230.36652 C121.580322,262.893322 159.949099,279.53817 197.761388,272.342801 C235.573677,265.147432 265.147432,235.573677 272.342801,197.761388 C279.53817,159.949099 262.893322,121.580322 230.36652,101 Z" id="Shape" fill="#E8E5FE"></path>
                <path d="M180,72 C120.353247,72 72,120.353247 72,180 C72,239.646753 120.353247,288 180,288 C239.646753,288 288,239.646753 288,180 C288,151.356619 276.621461,123.886397 256.367532,103.632468 C236.113603,83.3785388 208.643381,72 180,72 Z M180,273.6 C128.306147,273.6 86.4,231.693853 86.4,180 C86.4,128.306147 128.306147,86.4 180,86.4 C231.693853,86.4 273.6,128.306147 273.6,180 C273.541276,231.669509 231.669509,273.541276 180,273.6 Z" id="Shape" fill="#5180D9"></path>
                <path d="M180,43 C183.865993,43 187,39.791374 187,35.8333333 L187,7.16666667 C187,3.20862596 183.865993,2.42360094e-16 180,0 C176.134007,-2.42360094e-16 173,3.20862596 173,7.16666667 L173,35.8333333 C173,39.791374 176.134007,43 180,43 Z" id="Shape" fill="#F47735"></path>
                <path d="M180,317 C176.134007,317 173,320.208626 173,324.166667 L173,352.833333 C173,356.791374 176.134007,360 180,360 C183.865993,360 187,356.791374 187,352.833333 L187,324.166667 C187,320.208626 183.865993,317 180,317 Z" id="Shape" fill="#B975B3"></path>
                <path d="M35.8333333,173 L7.16666667,173 C3.20862596,173 4.84720188e-16,176.134007 0,180 C-4.84720188e-16,183.865993 3.20862596,187 7.16666667,187 L35.8333333,187 C39.791374,187 43,183.865993 43,180 C43,176.134007 39.791374,173 35.8333333,173 Z" id="Shape" fill="#F15ABE"></path>
                <path d="M352.833333,173 L324.166667,173 C320.208626,173 317,176.134007 317,180 C317,183.865993 320.208626,187 324.166667,187 L352.833333,187 C356.791374,187 360,183.865993 360,180 C360,176.134007 356.791374,173 352.833333,173 Z" id="Shape" fill="#F47735"></path>
                <path d="M73.5605482,83.8108936 C75.3835581,85.6810463 78.0715969,86.4259358 80.5971057,85.7608127 C83.1226145,85.0956896 85.0951088,83.1233926 85.7605615,80.5978733 C86.4260143,78.072354 85.6815357,75.3840985 83.8117184,73.5607486 L63.309378,53.0590087 C60.468771,50.2889945 55.9291449,50.3174398 53.1234706,53.1228336 C50.3177963,55.9282273 50.2887101,60.4680374 53.0582077,63.3091537 L73.5605482,83.8108936 Z" id="Shape" fill="#95DF4B"></path>
                <path d="M287.355295,277.066691 C284.504092,274.286342 279.947532,274.314893 277.131392,277.130754 C274.315251,279.946614 274.286057,284.503362 277.065885,287.355079 L297.644705,307.933309 C300.495908,310.713658 305.052468,310.685107 307.868608,307.869246 C310.684749,305.053386 310.713943,300.496638 307.934115,297.644921 L287.355295,277.066691 Z" id="Shape" fill="#00B1A5"></path>
                <path d="M73.5605482,277.190556 L53.0582077,297.690846 C50.2887101,300.531963 50.3177963,305.071773 53.1234706,307.877166 C55.9291449,310.68256 60.468771,310.711005 63.309378,307.940991 L83.8117184,287.439251 C85.6815357,285.615901 86.4260143,282.927646 85.7605615,280.402127 C85.0951088,277.876607 83.1226145,275.90431 80.5971057,275.239187 C78.0715969,274.574064 75.3835581,275.318954 73.5605482,277.189106 L73.5605482,277.190556 Z" id="Shape" fill="#F5A623"></path>
                <path d="M297.644705,53.0666907 L277.065885,73.6449215 C274.286057,76.4966379 274.315251,81.0533857 277.131392,83.8692463 C279.947532,86.6851068 284.504092,86.7136582 287.355295,83.9333093 L307.934115,63.3550785 C310.713943,60.5033621 310.684749,55.9466143 307.868608,53.1307537 C305.052468,50.3148932 300.495908,50.2863418 297.644705,53.0666907 Z" id="Shape" fill="#5180D9"></path>
            </g>
        </g>
    </g>
</svg>