<svg width="18" height="14" viewBox="0 0 18 14" fill="none" xmlns="http://www.w3.org/2000/svg">
<path d="M3.75 8.25H1.25C0.559766 8.25 0 8.80977 0 9.5V12C0 12.6902 0.559766 13.25 1.25 13.25H3.75C4.44023 13.25 5 12.6902 5 12V9.5C5 8.80977 4.44023 8.25 3.75 8.25ZM10 8.25H7.5C6.80977 8.25 6.25 8.80977 6.25 9.5V12C6.25 12.6902 6.80977 13.25 7.5 13.25H10C10.6902 13.25 11.25 12.6902 11.25 12V9.5C11.25 8.80977 10.6902 8.25 10 8.25ZM16.25 8.25H13.75C13.0598 8.25 12.5 8.80977 12.5 9.5V12C12.5 12.6902 13.0598 13.25 13.75 13.25H16.25C16.9402 13.25 17.5 12.6902 17.5 12V9.5C17.5 8.80977 16.9402 8.25 16.25 8.25ZM3.75 0.75H1.25C0.559766 0.75 0 1.30977 0 2V4.5C0 5.19023 0.559766 5.75 1.25 5.75H3.75C4.44023 5.75 5 5.19023 5 4.5V2C5 1.30977 4.44023 0.75 3.75 0.75ZM10 0.75H7.5C6.80977 0.75 6.25 1.30977 6.25 2V4.5C6.25 5.19023 6.80977 5.75 7.5 5.75H10C10.6902 5.75 11.25 5.19023 11.25 4.5V2C11.25 1.30977 10.6902 0.75 10 0.75ZM16.25 0.75H13.75C13.0598 0.75 12.5 1.30977 12.5 2V4.5C12.5 5.19023 13.0598 5.75 13.75 5.75H16.25C16.9402 5.75 17.5 5.19023 17.5 4.5V2C17.5 1.30977 16.9402 0.75 16.25 0.75Z" fill="#323C46"/>
</svg>
