<?xml version="1.0" encoding="UTF-8"?>
<svg width="64px" height="64px" viewBox="0 0 64 64" version="1.1" xmlns="http://www.w3.org/2000/svg" xmlns:xlink="http://www.w3.org/1999/xlink">
    <!-- Generator: Sketch 55 (78076) - https://sketchapp.com -->
    <title>russian</title>
    <desc>Created with Sketch.</desc>
    <defs>
        <path d="M32,64 C46.0222222,64 53.8173667,64 58.9086889,58.9086889 C64,53.8173667 64,46.0222222 64,32 C64,17.9777778 64,10.1826333 58.9086889,5.09131111 C53.8173667,0 46.0222222,0 32,0 C17.9777778,0 10.1826333,0 5.09131111,5.09131111 C0,10.1826333 0,17.9777778 0,32 C0,46.0222222 0,53.8173667 5.09131111,58.9086889 C10.1826333,64 17.9777778,64 32,64 Z" id="path-1"></path>
        <linearGradient x1="50%" y1="0%" x2="50%" y2="100%" id="linearGradient-3">
            <stop stop-color="#FDFEFF" offset="0%"></stop>
            <stop stop-color="#FBFCFD" stop-opacity="0.9" offset="100%"></stop>
        </linearGradient>
        <path d="M31.024,39.256 C31.4080019,39.8320029 31.6,40.3759974 31.6,40.888 C31.6,41.5706701 31.3173362,42.141331 30.752,42.6 C30.1866638,43.058669 29.5306704,43.288 28.784,43.288 C28.2719974,43.288 27.7920022,43.1706678 27.344,42.936 C26.8959978,42.7013322 26.5120016,42.3493357 26.192,41.88 L22.032,35.8 C21.7333318,35.3733312 21.4186683,35.0586677 21.088,34.856 C20.7573317,34.6533323 20.3680022,34.552 19.92,34.552 L17.84,34.552 L17.84,40.28 C17.84,41.1760045 17.5840026,41.8853307 17.072,42.408 C16.5599974,42.9306693 15.8560045,43.192 14.96,43.192 C14.0639955,43.192 13.3546693,42.9306693 12.832,42.408 C12.3093307,41.8853307 12.048,41.1760045 12.048,40.28 L12.048,23.16 C12.048,22.285329 12.2826643,21.6133357 12.752,21.144 C13.2213357,20.6746643 13.893329,20.44 14.768,20.44 L22.8,20.44 C25.5306803,20.44 27.5839931,21.0319941 28.96,22.216 C30.3360069,23.4000059 31.024,25.1119888 31.024,27.352 C31.024,29.0586752 30.5546714,30.5039941 29.616,31.688 C28.6773286,32.8720059 27.3546752,33.6666646 25.648,34.072 C26.3520035,34.1786672 26.9653307,34.4133315 27.488,34.776 C28.0106693,35.1386685 28.5279974,35.682663 29.04,36.408 L31.024,39.256 Z M21.872,30.136 C23.1733398,30.136 24.1066638,29.9333354 24.672,29.528 C25.2373362,29.1226646 25.52,28.4613379 25.52,27.544 C25.52,26.6053286 25.2373362,25.9280021 24.672,25.512 C24.1066638,25.0959979 23.1733398,24.888 21.872,24.888 L17.776,24.888 L17.776,30.136 L21.872,30.136 Z M44.528,43.288 C41.2639837,43.288 38.7840085,42.4560083 37.088,40.792 C35.3919915,39.1279917 34.544,36.696016 34.544,33.496 L34.544,23.16 C34.544,22.285329 34.8053307,21.5866693 35.328,21.064 C35.8506693,20.5413307 36.549329,20.28 37.424,20.28 C38.298671,20.28 38.9973307,20.5413307 39.52,21.064 C40.0426693,21.5866693 40.304,22.285329 40.304,23.16 L40.304,33.72 C40.304,35.3413414 40.666663,36.589329 41.392,37.464 C42.117337,38.338671 43.1626598,38.776 44.528,38.776 C45.8933402,38.776 46.938663,38.338671 47.664,37.464 C48.389337,36.589329 48.752,35.3413414 48.752,33.72 L48.752,23.16 C48.752,22.285329 49.0133307,21.5866693 49.536,21.064 C50.0586693,20.5413307 50.757329,20.28 51.632,20.28 C52.506671,20.28 53.210664,20.5413307 53.744,21.064 C54.277336,21.5866693 54.544,22.285329 54.544,23.16 L54.544,33.496 C54.544,36.6746826 53.6853419,39.101325 51.968,40.776 C50.2506581,42.450675 47.7706829,43.288 44.528,43.288 Z" id="path-4"></path>
        <filter x="-4.7%" y="-4.3%" width="109.4%" height="117.4%" filterUnits="objectBoundingBox" id="filter-5">
            <feOffset dx="0" dy="1" in="SourceAlpha" result="shadowOffsetOuter1"></feOffset>
            <feGaussianBlur stdDeviation="0.5" in="shadowOffsetOuter1" result="shadowBlurOuter1"></feGaussianBlur>
            <feColorMatrix values="0 0 0 0 0   0 0 0 0 0   0 0 0 0 0  0 0 0 0.1 0" type="matrix" in="shadowBlurOuter1"></feColorMatrix>
        </filter>
    </defs>
    <g id="Page-1" stroke="none" stroke-width="1" fill="none" fill-rule="evenodd">
        <g id="Artboard" transform="translate(-421.000000, -266.000000)">
            <g id="russian" transform="translate(421.000000, 266.000000)">
                <mask id="mask-2" fill="white">
                    <use xlink:href="#path-1"></use>
                </mask>
                <use id="Path" fill="#8B73AE" xlink:href="#path-1"></use>
                <g id="RU" fill-rule="nonzero" mask="url(#mask-2)">
                    <use fill="black" fill-opacity="1" filter="url(#filter-5)" xlink:href="#path-4"></use>
                    <use fill="#323C46" xlink:href="#path-4"></use>
                    <use fill="url(#linearGradient-3)" xlink:href="#path-4"></use>
                </g>
            </g>
        </g>
    </g>
</svg>