<?xml version="1.0" encoding="UTF-8"?>
<svg width="606px" height="606px" viewBox="0 0 606 606" version="1.1" xmlns="http://www.w3.org/2000/svg" xmlns:xlink="http://www.w3.org/1999/xlink">
    <!-- Generator: Sketch 43.1 (39012) - http://www.bohemiancoding.com/sketch -->
    <title>protean</title>
    <desc>Created with Sketch.</desc>
    <defs>
        <linearGradient x1="50%" y1="0%" x2="50%" y2="100%" id="linearGradient-1">
            <stop stop-color="#FFFFFF" stop-opacity="0.2" offset="0%"></stop>
            <stop stop-color="#000000" stop-opacity="0.2" offset="100%"></stop>
        </linearGradient>
    </defs>
    <g id="Page-1" stroke="none" stroke-width="1" fill="none" fill-rule="evenodd">
        <g id="protean" transform="translate(3.000000, 3.000000)" fill-rule="nonzero">
            <g id="Squircle2-Copy-6">
                <g id="Shape">
                    <g id="path-2-link" fill="#FFFFFF">
                        <path d="M552.268958,552.268958 C600,504.537813 600,431.458333 600,300 C600,168.541667 600,95.4621875 552.268958,47.7310417 C504.537813,0 431.458333,0 300,0 C168.541667,0 95.4621875,0 47.7310417,47.7310417 C0,95.4621875 0,168.541667 0,300 C0,431.458333 0,504.537813 47.7310417,552.268958 C95.4621875,600 168.541667,600 300,600 C431.458333,600 504.537813,600 552.268958,552.268958 Z" id="path-2"></path>
                    </g>
                    <g id="path-2-link" stroke="#000000" stroke-width="4.04" fill="url(#linearGradient-1)">
                        <path d="M552.268958,552.268958 C600,504.537813 600,431.458333 600,300 C600,168.541667 600,95.4621875 552.268958,47.7310417 C504.537813,0 431.458333,0 300,0 C168.541667,0 95.4621875,0 47.7310417,47.7310417 C0,95.4621875 0,168.541667 0,300 C0,431.458333 0,504.537813 47.7310417,552.268958 C95.4621875,600 168.541667,600 300,600 C431.458333,600 504.537813,600 552.268958,552.268958 Z" id="path-2"></path>
                    </g>
                </g>
            </g>
            <g id="galaxy-hole" transform="translate(100.000000, 100.000000)">
                <path d="M207.8208,96.3968 C246.836775,121.189289 264.78201,168.775911 251.852065,213.157556 C238.92212,257.5392 198.226747,288.041736 152,288 C149.36,288 146.7696,287.7984 144.1792,287.6032 C180.679625,310.912202 227.809351,309.138691 262.454776,283.152442 C297.100201,257.166194 311.99549,212.41704 299.83562,170.851091 C287.675749,129.285141 251.010886,99.6196028 207.8224,96.4032 L207.8208,96.3968 Z" id="Shape" fill="#CBC5F1"></path>
                <path d="M200,80 C133.72583,80 80,133.72583 80,200 C80,266.27417 133.72583,320 200,320 C266.27417,320 320,266.27417 320,200 C319.927692,133.755804 266.244196,80.0723085 200,80 Z M200,304 C142.562386,304 96,257.437614 96,200 C96,142.562386 142.562386,96 200,96 C257.437614,96 304,142.562386 304,200 C303.933872,257.4102 257.4102,303.933872 200,304 Z" id="Shape" fill="#6761A9"></path>
                <path d="M370.6096,129.3344 C360.864,105.8304 359.1344,76.2928 341.4224,58.5792 C323.7104,40.8656 294.1712,39.136 270.6656,29.3904 C248,19.9872 226.08,0 200,0 C173.92,0 152.008,19.9856 129.3344,29.3904 C105.8304,39.136 76.2928,40.8656 58.5792,58.5776 C40.8656,76.2896 39.1376,105.8288 29.3904,129.3328 C19.9872,152 0,173.92 0,200 C0,226.08 19.9872,248 29.3904,270.6656 C39.1376,294.1696 40.8656,323.7072 58.5792,341.4208 C76.2928,359.1344 105.8304,360.8624 129.3344,370.6096 C152.008,380.0112 173.92,400 200,400 C226.08,400 247.992,380.0128 270.6656,370.6096 C294.1696,360.864 323.7072,359.1344 341.4192,341.4224 C359.1312,323.7104 360.8624,294.1712 370.6096,270.6672 C380.0128,247.992 400,226.08 400,200 C400,173.92 380.0128,152 370.6096,129.3344 Z M368.4064,240.32 C363.701256,248.116925 359.501164,256.207674 355.832,264.5424 C352.406838,273.295911 349.524048,282.252065 347.2,291.36 C344.722875,305.469614 338.857904,318.767097 330.1088,330.1104 C318.765901,338.858863 305.468963,344.723286 291.36,347.2 C282.250841,349.526666 273.293619,352.412128 264.5392,355.84 C256.204627,359.510087 248.113902,363.710701 240.3168,368.416 C228.394446,376.903974 214.531664,382.262475 200,384 C185.466314,382.260272 171.602269,376.898408 159.68,368.4064 C151.883091,363.700756 143.792344,359.50013 135.4576,355.8304 C126.703847,352.40636 117.747729,349.524116 108.64,347.2 C94.530513,344.72341 81.233027,338.858988 69.8896,330.1104 C61.1409019,318.767039 55.2764669,305.469524 52.8,291.36 C50.4760813,282.251504 47.5932889,273.29481 44.168,264.5408 C40.4980834,256.206145 36.297464,248.11541 31.592,240.3184 C23.1007493,228.396469 17.7394452,214.533001 16,200 C17.7402631,185.466447 23.1020778,171.60253 31.5936,159.68 C36.2992787,151.88311 40.4999054,143.792361 44.1696,135.4576 C47.5942193,126.704053 50.4764752,117.7479 52.8,108.64 C55.2777842,94.5307837 61.1433034,81.23385 69.8928,69.8912 C81.2353087,61.1427869 94.5315834,55.2778652 108.64,52.8 C117.749149,50.4732989 126.706369,47.5878377 135.4608,44.16 C143.79419,40.4926202 151.883853,36.2946748 159.68,31.592 C171.602558,23.1008043 185.466526,17.7395195 200,16 C214.533653,17.7398619 228.397666,23.1017137 240.32,31.5936 C248.11689,36.2992787 256.207639,40.4999054 264.5424,44.1696 C273.295992,47.5940933 282.252137,50.4763468 291.36,52.8 C305.470007,55.2774315 318.767939,61.1423577 330.112,69.8912 C338.859559,81.2344528 344.723391,94.531294 347.2,108.64 C349.526998,117.74854 352.412453,126.705209 355.84,135.4592 C359.509135,143.794229 363.70978,151.885014 368.416,159.6816 C376.90392,171.604581 382.262401,185.467863 384,200 C382.260004,214.53362 376.898165,228.3976 368.4064,240.32 L368.4064,240.32 Z" id="Shape" fill="#6761A9"></path>
            </g>
        </g>
    </g>
</svg>