<svg width="320" height="320" viewBox="0 0 320 320" fill="none" xmlns="http://www.w3.org/2000/svg">
<g clip-path="url(#clip0_1019_7298)">
<path d="M160 0C281.326 0 320 38.6737 320 160C320 281.326 281.326 320 160 320C38.6736 320 0 281.326 0 160C0 38.6737 38.6736 0 160 0Z" fill="url(#paint0_linear_1019_7298)"/>
<path d="M160 2C220.573 2 259.85 11.6833 284.083 35.9168C308.317 60.1504 318 99.4272 318 160C318 220.573 308.317 259.85 284.083 284.083C259.85 308.317 220.573 318 160 318C99.4272 318 60.1504 308.317 35.9168 284.083C11.6833 259.85 2 220.573 2 160C2 99.4272 11.6833 60.1504 35.9168 35.9168C60.1504 11.6833 99.4272 2 160 2Z" stroke="#F8FAFC" stroke-opacity="0.2" stroke-width="4"/>
<g clip-path="url(#clip1_1019_7298)">
<path fill-rule="evenodd" clip-rule="evenodd" d="M265.001 215.001C265.001 225.341 261.705 228.638 251.365 228.638C249.807 228.638 248.376 229.543 247.692 230.943C244.136 238.221 238.221 244.136 230.943 247.693C229.543 248.376 228.637 249.807 228.637 251.365C228.637 261.705 225.341 265.001 215.001 265.001C204.661 265.001 201.365 261.705 201.365 251.365C201.365 249.807 200.46 248.377 199.06 247.693C191.78 244.137 185.864 238.221 182.308 230.941C181.624 229.541 180.194 228.636 178.636 228.636C168.296 228.636 165 225.34 165 215C165 204.66 168.296 201.364 178.636 201.364C180.194 201.364 181.625 200.458 182.309 199.058C185.865 191.78 191.78 185.865 199.058 182.309C200.458 181.625 201.364 180.194 201.364 178.636C201.364 168.296 204.66 165 215 165C225.34 165 228.636 168.296 228.636 178.636C228.636 180.194 229.542 181.624 230.941 182.308C238.221 185.864 244.137 191.78 247.693 199.06C248.377 200.46 249.807 201.365 251.365 201.365C261.705 201.365 265.001 204.661 265.001 215.001ZM233.182 215.001C233.182 228.788 228.788 233.182 215 233.182C201.213 233.182 196.819 228.788 196.819 215.001C196.819 201.214 201.213 196.819 215.001 196.819C228.788 196.819 233.182 201.214 233.182 215.001Z" fill="url(#paint1_linear_1019_7298)"/>
<path fill-rule="evenodd" clip-rule="evenodd" d="M105 165C115.34 165 118.636 168.296 118.636 178.636C118.636 180.193 119.541 181.623 120.94 182.307C128.22 185.863 134.135 191.779 137.692 199.058C138.375 200.458 139.806 201.364 141.364 201.364C151.704 201.364 155 204.66 155 215C155 225.34 151.704 228.636 141.364 228.636C139.805 228.636 138.374 229.542 137.69 230.942C134.134 238.22 128.22 244.134 120.942 247.69C119.542 248.374 118.636 249.805 118.636 251.364C118.636 261.704 115.34 265 105 265C94.6596 265 91.3635 261.704 91.3635 251.364C91.3635 249.806 90.4582 248.375 89.0584 247.692C81.7788 244.135 75.8628 238.22 72.3065 230.94C71.623 229.541 70.1935 228.636 68.6364 228.636C58.296 228.636 55 225.34 55 215C55 204.66 58.2961 201.364 68.6364 201.364C70.1929 201.364 71.6218 200.459 72.3049 199.061C75.8614 191.779 81.7789 185.861 89.0606 182.305C90.4592 181.622 91.3637 180.193 91.3637 178.636C91.3637 168.296 94.6597 165 105 165ZM104.999 196.817C118.786 196.818 123.181 201.212 123.181 214.999C123.181 228.786 118.786 233.181 104.999 233.181C91.2122 233.181 86.8175 228.786 86.8175 214.999C86.8175 201.212 91.2122 196.817 104.999 196.817Z" fill="url(#paint2_linear_1019_7298)"/>
<path fill-rule="evenodd" clip-rule="evenodd" d="M155 105C155 115.34 151.704 118.636 141.364 118.636C139.806 118.636 138.377 119.541 137.693 120.94C134.137 128.22 128.221 134.135 120.942 137.692C119.542 138.375 118.636 139.806 118.636 141.364C118.636 151.704 115.34 155 105 155C94.6597 155 91.3637 151.704 91.3637 141.364C91.3637 139.805 90.4581 138.374 89.0579 137.69C81.7802 134.134 75.8657 128.22 72.3098 120.942C71.6257 119.542 70.1948 118.636 68.6364 118.636C58.296 118.636 55 115.34 55 105C55 94.6596 58.2961 91.3635 68.6364 91.3635C70.1943 91.3635 71.6246 90.4582 72.3084 89.0584C75.8644 81.7788 81.7802 75.8628 89.0596 72.3065C90.4587 71.623 91.3635 70.1935 91.3635 68.6364C91.3635 58.296 94.6596 55 105 55C115.34 55 118.636 58.2961 118.636 68.6364C118.636 70.1929 119.541 71.6218 120.939 72.3049C128.221 75.8614 134.139 81.7789 137.695 89.0606C138.378 90.4592 139.807 91.3637 141.364 91.3637C151.704 91.3637 155 94.6597 155 105ZM123.182 104.999C123.182 118.786 118.788 123.181 105.001 123.181C91.2135 123.181 86.8188 118.786 86.8188 104.999C86.8188 91.2122 91.2135 86.8175 105.001 86.8175C118.788 86.8175 123.182 91.2122 123.182 104.999Z" fill="url(#paint3_linear_1019_7298)"/>
<path fill-rule="evenodd" clip-rule="evenodd" d="M215 55C225.34 55 228.636 58.2961 228.636 68.6364C228.636 70.1935 229.541 71.623 230.94 72.3066C238.22 75.8628 244.135 81.7788 247.692 89.0584C248.375 90.4582 249.806 91.3635 251.364 91.3635C261.704 91.3635 265 94.6596 265 105C265 115.34 261.704 118.636 251.364 118.636C249.805 118.636 248.374 119.542 247.69 120.942C244.134 128.22 238.22 134.134 230.942 137.69C229.542 138.374 228.636 139.805 228.636 141.364C228.636 151.704 225.34 155 215 155C204.66 155 201.364 151.704 201.364 141.364C201.364 139.806 200.458 138.375 199.058 137.692C191.779 134.135 185.863 128.22 182.307 120.94C181.623 119.541 180.193 118.636 178.636 118.636C168.296 118.636 165 115.34 165 105C165 94.6597 168.296 91.3637 178.636 91.3637C180.193 91.3637 181.622 90.4591 182.305 89.0606C185.861 81.7789 191.779 75.8614 199.061 72.3049C200.459 71.6218 201.364 70.1928 201.364 68.6364C201.364 58.2961 204.66 55 215 55ZM214.999 86.8175C228.786 86.8175 233.181 91.2122 233.181 104.999C233.181 118.786 228.786 123.181 214.999 123.181C201.212 123.181 196.817 118.786 196.817 104.999C196.818 91.2122 201.212 86.8175 214.999 86.8175Z" fill="url(#paint4_linear_1019_7298)"/>
<circle cx="160" cy="160" r="25" fill="url(#paint5_linear_1019_7298)"/>
</g>
</g>
<defs>
<linearGradient id="paint0_linear_1019_7298" x1="160" y1="0" x2="160" y2="320" gradientUnits="userSpaceOnUse">
<stop stop-color="#475569"/>
<stop offset="1" stop-color="#1E293B"/>
</linearGradient>
<linearGradient id="paint1_linear_1019_7298" x1="215.001" y1="165" x2="215.001" y2="265.001" gradientUnits="userSpaceOnUse">
<stop stop-color="#34D399"/>
<stop offset="1" stop-color="#059669"/>
</linearGradient>
<linearGradient id="paint2_linear_1019_7298" x1="105" y1="165" x2="105" y2="265" gradientUnits="userSpaceOnUse">
<stop stop-color="#60A5FA"/>
<stop offset="1" stop-color="#2563EB"/>
</linearGradient>
<linearGradient id="paint3_linear_1019_7298" x1="105" y1="55" x2="105" y2="155" gradientUnits="userSpaceOnUse">
<stop stop-color="#CBD5E1"/>
<stop offset="1" stop-color="#64748B"/>
</linearGradient>
<linearGradient id="paint4_linear_1019_7298" x1="215" y1="55" x2="215" y2="155" gradientUnits="userSpaceOnUse">
<stop stop-color="#FB7185"/>
<stop offset="1" stop-color="#E11D48"/>
</linearGradient>
<linearGradient id="paint5_linear_1019_7298" x1="160" y1="135" x2="160" y2="185" gradientUnits="userSpaceOnUse">
<stop stop-color="#FB923C"/>
<stop offset="1" stop-color="#EA580C"/>
</linearGradient>
<clipPath id="clip0_1019_7298">
<rect width="320" height="320" fill="white"/>
</clipPath>
<clipPath id="clip1_1019_7298">
<rect width="240" height="240" fill="white" transform="translate(40 40)"/>
</clipPath>
</defs>
</svg>
