<?xml version="1.0" encoding="UTF-8"?>
<svg width="516px" height="516px" viewBox="0 0 516 516" version="1.1" xmlns="http://www.w3.org/2000/svg" xmlns:xlink="http://www.w3.org/1999/xlink">
    <!-- Generator: Sketch 50.2 (55047) - http://www.bohemiancoding.com/sketch -->
    <title>Decorous</title>
    <desc>Created with Sketch.</desc>
    <defs>
        <linearGradient x1="50%" y1="0%" x2="50%" y2="100%" id="linearGradient-1">
            <stop stop-color="#FFFFFF" offset="0%"></stop>
            <stop stop-color="#EEEEEE" offset="100%"></stop>
        </linearGradient>
    </defs>
    <g id="Page-1" stroke="none" stroke-width="1" fill="none" fill-rule="evenodd">
        <g id="Decorous" transform="translate(2.000000, 2.000000)">
            <path d="M256,512 C368.177778,512 430.538933,512 471.269511,471.269511 C512,430.538933 512,368.177778 512,256 C512,143.822222 512,81.4610667 471.269511,40.7304889 C430.538933,0 368.177778,0 256,0 C143.822222,0 81.4610667,0 40.7304889,40.7304889 C0,81.4610667 0,143.822222 0,256 C0,368.177778 0,430.538933 40.7304889,471.269511 C81.4610667,512 143.822222,512 256,512 Z" id="Shape" stroke="#000000" stroke-width="4" fill="url(#linearGradient-1)"></path>
            <g id="aperture" transform="translate(76.000000, 76.000000)">
                <path d="M273.456,43.33392 C318.453307,109.083858 310.236212,197.55933 253.900017,253.897994 C197.563821,310.236657 109.088709,318.457627 43.3368,273.4632 C80.8879114,328.403749 147.682702,355.523858 212.905296,342.311625 C278.12789,329.099392 329.102476,278.122573 342.311852,212.899401 C355.521229,147.676228 328.398194,80.8826248 273.456,43.33392 Z" id="Shape" fill-opacity="0.1" fill="#5180D9" fill-rule="nonzero"></path>
                <path d="M180,0 C80.588745,-6.08718376e-15 1.21743675e-14,80.588745 0,180 C-1.21743675e-14,279.411255 80.588745,360 180,360 C279.411255,360 360,279.411255 360,180 C360,132.261032 341.035769,86.4773275 307.279221,52.7207794 C273.522672,18.9642313 227.738968,2.92316873e-15 180,0 Z M180.4536,271.728 L102.9816,227.0016 C102.300813,226.632777 101.563637,226.379266 100.8,226.25136 L100.8,136.8 C100.773318,136.023139 100.619102,135.255949 100.34352,134.52912 L177.81552,89.80272 C178.471314,89.3921049 179.055106,88.876422 179.54352,88.27632 L257.01552,133.00272 C257.706006,133.319009 258.444193,133.518519 259.2,133.59312 L259.2,223.2 C259.226682,223.976861 259.380898,224.744051 259.65648,225.47088 L182.18448,270.19728 C181.527328,270.608943 180.942528,271.126116 180.4536,271.728 Z" id="Shape" fill="#5180D9" fill-rule="nonzero"></path>
                <path d="M344.30688,176.59728 L273.6,217.41984 L273.6,43.524 C317.483656,73.6323001 344.205802,123.011495 345.40848,176.21712 C345.031288,176.312787 344.662794,176.439954 344.30688,176.59728 Z" id="Path" fill="#7AD2CC"></path>
                <path d="M259.2,36 L259.2,117.648 L108.7056,30.76128 C156.637743,7.60788311 212.81488,9.1013536 259.44912,34.7688 C259.328364,35.1716079 259.244969,35.5832794 259.2,36 Z" id="Path" fill="#CBDBFC"></path>
                <path d="M94.09104,38.7 C94.3387337,38.9557794 94.6069934,39.1908076 94.89312,39.40272 L165.61008,80.23248 L15.05088,167.16096 C19.2202991,114.126071 48.6294862,66.3284396 94.09104,38.7 Z" id="Path" fill="#CDF1A9"></path>
                <path d="M15.69312,183.40272 L86.4,142.58016 L86.4,316.476 C42.4907065,286.351274 15.7637656,236.93457 14.5872,183.69792 C14.9642961,183.634485 15.3345736,183.535648 15.69312,183.40272 Z" id="Path" fill="#FFCE78"></path>
                <path d="M100.8,324 L100.8,242.352 L251.2944,329.23728 C203.362257,352.390677 147.18512,350.897206 100.55088,325.22976 C100.674494,324.828253 100.756442,324.416584 100.8,324 Z" id="Path" fill="#F5A9DB"></path>
                <path d="M265.1112,320.59728 L194.39424,279.76752 L344.95344,192.84048 C340.782616,245.875671 311.371775,293.672843 265.90896,321.3 C265.665586,321.044221 265.397327,320.809192 265.1112,320.59728 Z" id="Path" fill="#FFB086"></path>
                <polygon id="Shape" fill-opacity="0.1" fill="#5180D9" fill-rule="nonzero" points="129.6 209.1024 129.6 150.8976 180 121.7952 230.4 150.8976 230.4 209.1024 180 238.2048"></polygon>
            </g>
        </g>
    </g>
</svg>