<?xml version="1.0" encoding="UTF-8"?>
<svg width="64px" height="64px" viewBox="0 0 64 64" version="1.1" xmlns="http://www.w3.org/2000/svg" xmlns:xlink="http://www.w3.org/1999/xlink">
    <!-- Generator: Sketch 54.1 (76490) - https://sketchapp.com -->
    <title>channels</title>
    <desc>Created with Sketch.</desc>
    <defs>
        <path d="M32,64 C46.0222222,64 53.8173667,64 58.9086889,58.9086889 C64,53.8173667 64,46.0222222 64,32 C64,17.9777778 64,10.1826333 58.9086889,5.09131111 C53.8173667,0 46.0222222,0 32,0 C17.9777778,0 10.1826333,0 5.09131111,5.09131111 C0,10.1826333 0,17.9777778 0,32 C0,46.0222222 0,53.8173667 5.09131111,58.9086889 C10.1826333,64 17.9777778,64 32,64 Z" id="path-1"></path>
        <linearGradient x1="50%" y1="0%" x2="50%" y2="100%" id="linearGradient-3">
            <stop stop-color="#FDFEFF" offset="0%"></stop>
            <stop stop-color="#FBFCFD" stop-opacity="0.9" offset="100%"></stop>
        </linearGradient>
        <path d="M39.3452583,13.4025893 L39.9830259,9.83116071 C40.100258,9.17446429 39.5953475,8.57142857 38.9282943,8.57142857 L32.2488333,8.57142857 L33.5544576,1.25973214 C33.6716897,0.603035714 33.1667792,0 32.499726,0 L28.8718706,0 C28.352784,9.42915068e-06 27.9083685,0.372117744 27.817139,0.883125 L26.4441933,8.57142857 L17.6375012,8.57142857 L18.9431255,1.25973214 C19.0604469,0.603035714 18.5555364,0 17.8883939,0 L14.2605385,0 C13.7414519,9.42915068e-06 13.2970364,0.372117744 13.2058069,0.883125 L11.8328612,8.57142857 L4.77072178,8.57142857 C4.2516351,8.571438 3.80721964,8.94354632 3.71599016,9.45455357 L3.07822261,13.0259821 C2.96099053,13.6826786 3.46590099,14.2857143 4.13295424,14.2857143 L10.8124152,14.2857143 L8.77161267,25.7142857 L1.70947329,25.7142857 C1.19038661,25.7142951 0.745971146,26.0864035 0.654741663,26.5974107 L0.0169741193,30.1688393 C-0.100257966,30.8255357 0.4046525,31.4285714 1.07170574,31.4285714 L7.75116674,31.4285714 L6.44554238,38.7402679 C6.3283103,39.3969643 6.83322077,40 7.50027401,40 L11.1281294,40 C11.647216,39.9999906 12.0916315,39.6278823 12.182861,39.116875 L13.555896,31.4285714 L22.3624988,31.4285714 L21.0568745,38.7402679 C20.9395531,39.3969643 21.4444636,40 22.1116061,40 L25.7394615,40 C26.2585481,39.9999906 26.7029636,39.6278823 26.7941931,39.116875 L28.1671388,31.4285714 L35.2292782,31.4285714 C35.7483649,31.428562 36.1927804,31.0564537 36.2840098,30.5454464 L36.9217774,26.9740179 C37.0390095,26.3173214 36.534099,25.7142857 35.8670458,25.7142857 L29.1875848,25.7142857 L31.2283873,14.2857143 L38.2905267,14.2857143 C38.8096134,14.2857049 39.2540289,13.9135965 39.3452583,13.4025893 L39.3452583,13.4025893 Z M23.3829448,25.7142857 L14.576342,25.7142857 L16.6171445,14.2857143 L25.4237473,14.2857143 L23.3829448,25.7142857 Z" id="path-4"></path>
        <filter x="-5.0%" y="-2.5%" width="110.0%" height="110.0%" filterUnits="objectBoundingBox" id="filter-5">
            <feOffset dx="0" dy="1" in="SourceAlpha" result="shadowOffsetOuter1"></feOffset>
            <feGaussianBlur stdDeviation="0.5" in="shadowOffsetOuter1" result="shadowBlurOuter1"></feGaussianBlur>
            <feColorMatrix values="0 0 0 0 0   0 0 0 0 0   0 0 0 0 0  0 0 0 0.1 0" type="matrix" in="shadowBlurOuter1"></feColorMatrix>
        </filter>
    </defs>
    <g id="Page-1" stroke="none" stroke-width="1" fill="none" fill-rule="evenodd">
        <g id="Artboard" transform="translate(-421.000000, -430.000000)">
            <g id="channels" transform="translate(421.000000, 430.000000)">
                <mask id="mask-2" fill="white">
                    <use xlink:href="#path-1"></use>
                </mask>
                <use id="Path" fill="#00B356" xlink:href="#path-1"></use>
                <g id="hashtag" mask="url(#mask-2)" fill-rule="nonzero">
                    <g transform="translate(12.000000, 12.000000)" id="Shape">
                        <g>
                            <use fill="black" fill-opacity="1" filter="url(#filter-5)" xlink:href="#path-4"></use>
                            <use fill="url(#linearGradient-3)" xlink:href="#path-4"></use>
                        </g>
                    </g>
                </g>
            </g>
        </g>
    </g>
</svg>