<svg width="80" height="80" viewBox="0 0 80 80" fill="none" xmlns="http://www.w3.org/2000/svg">
<rect width="80" height="80" fill="url(#paint0_linear_1007_3943)"/>
<path d="M14.041 44.8192C14.211 52.7537 14.296 56.7207 17.2369 59.6596C20.1777 62.5982 24.2705 62.7005 32.4558 62.9052L32.4569 62.9053C37.5021 63.0316 42.4978 63.0316 47.5431 62.9053L47.5441 62.9052C55.7295 62.7005 59.8222 62.5982 62.7632 59.6596C65.704 56.7207 65.7891 52.7537 65.9588 44.8192C66.0137 42.268 66.0137 39.732 65.9588 37.1808C65.9404 36.3205 65.923 35.5069 65.9029 34.7362C65.8642 33.2577 64.2761 32.3791 62.9864 33.103L55.8089 37.1317C55.0024 37.5843 54.6258 38.5292 54.7825 39.4407C54.9255 40.2724 55 41.1275 55 42C55 50.2843 48.2843 57 40 57C31.7157 57 25 50.2843 25 42C25 41.1275 25.0745 40.2723 25.2175 39.4406C25.3742 38.5291 24.9976 37.5843 24.1911 37.1316L17.0135 33.1028C15.7238 32.379 14.1357 33.2575 14.097 34.736C14.0768 35.5067 14.0594 36.3203 14.041 37.1806C13.9863 39.7318 13.9863 42.268 14.041 44.8192Z" fill="black" fill-opacity="0.2"/>
<path d="M54.3173 33.0351C53.3913 33.5548 52.2307 33.2497 51.5529 32.4323C48.8015 29.1137 44.6476 27 40 27C35.3524 27 31.1985 29.1137 28.4471 32.4322C27.7694 33.2497 26.6088 33.5547 25.6828 33.035L16.1102 27.662C15.3322 27.2253 14.9163 26.3174 15.2285 25.4816C15.6794 24.2749 16.3191 23.2576 17.2369 22.3405C20.1778 19.4017 24.2708 19.2994 32.4569 19.0946C37.5021 18.9685 42.4978 18.9685 47.5431 19.0947C55.7291 19.2994 59.8221 19.4018 62.7632 22.3405C63.681 23.2577 64.3206 24.275 64.7715 25.4817C65.0838 26.3175 64.6678 27.2253 63.8898 27.662L54.3173 33.0351Z" fill="black" fill-opacity="0.2"/>
<path fill-rule="evenodd" clip-rule="evenodd" d="M28 42C28 35.3725 33.3725 30 40 30C46.6275 30 52 35.3725 52 42V43.1429C52 45.9831 49.6974 48.2857 46.8571 48.2857C45.2119 48.2857 43.747 47.5131 42.8056 46.3108C41.9988 46.837 41.0351 47.1429 40 47.1429C37.1597 47.1429 34.8571 44.8403 34.8571 42C34.8571 39.1597 37.1597 36.8571 40 36.8571C42.8403 36.8571 45.1429 39.1597 45.1429 42V43.1429C45.1429 44.0896 45.9104 44.8571 46.8571 44.8571C47.8039 44.8571 48.5714 44.0896 48.5714 43.1429V42C48.5714 37.2661 44.7339 33.4286 40 33.4286C35.2661 33.4286 31.4286 37.2661 31.4286 42C31.4286 46.7339 35.2661 50.5714 40 50.5714C40.9468 50.5714 41.7143 51.3389 41.7143 52.2857C41.7143 53.2325 40.9468 54 40 54C33.3725 54 28 48.6275 28 42ZM41.7143 42C41.7143 41.0533 40.9467 40.2857 40 40.2857C39.0533 40.2857 38.2857 41.0533 38.2857 42C38.2857 42.9467 39.0533 43.7143 40 43.7143C40.9467 43.7143 41.7143 42.9467 41.7143 42Z" fill="black" fill-opacity="0.2"/>
<path fill-rule="evenodd" clip-rule="evenodd" d="M14.041 43.8192C14.211 51.7537 14.296 55.7207 17.2369 58.6596C20.1777 61.5982 24.2705 61.7005 32.4558 61.9052L32.4569 61.9053C37.5021 62.0316 42.4978 62.0316 47.5431 61.9053L47.5441 61.9052C55.7295 61.7005 59.8222 61.5982 62.7632 58.6596C65.7041 55.7207 65.7891 51.7537 65.9589 43.8192C66.0137 41.268 66.0137 38.732 65.9589 36.1808C65.9404 35.3205 65.923 34.5069 65.9029 33.7362C65.8642 32.2577 64.2761 31.3791 62.9864 32.103L55.8089 36.1317C55.0024 36.5843 54.6258 37.5292 54.7825 38.4407C54.9255 39.2724 55 40.1275 55 41C55 49.2843 48.2843 56 40 56C31.7157 56 25 49.2843 25 41C25 40.1275 25.0745 39.2723 25.2175 38.4406C25.3742 37.5291 24.9976 36.5843 24.1911 36.1316L17.0135 32.1028C15.7238 31.379 14.1357 32.2575 14.097 33.736C14.0768 34.5067 14.0594 35.3203 14.041 36.1806L14.041 36.1808C13.9863 38.732 13.9864 41.268 14.041 43.8192ZM54.3173 32.0351C53.3913 32.5548 52.2307 32.2497 51.5529 31.4323C48.8015 28.1137 44.6476 26 40 26C35.3524 26 31.1985 28.1137 28.4471 31.4322C27.7694 32.2497 26.6088 32.5547 25.6828 32.035L16.1102 26.662C15.3322 26.2253 14.9163 25.3174 15.2285 24.4816C15.6794 23.2749 16.3191 22.2576 17.2369 21.3405C20.1778 18.4017 24.2708 18.2994 32.4569 18.0946C37.5021 17.9685 42.4978 17.9685 47.5431 18.0947L47.5432 18.0947C55.7292 18.2994 59.8221 18.4018 62.7632 21.3405C63.681 22.2577 64.3206 23.275 64.7715 24.4817C65.0838 25.3175 64.6678 26.2253 63.8898 26.662L54.3173 32.0351Z" fill="url(#paint1_linear_1007_3943)"/>
<path fill-rule="evenodd" clip-rule="evenodd" d="M28 41C28 34.3725 33.3725 29 40 29C46.6275 29 52 34.3725 52 41V42.1429C52 44.9831 49.6974 47.2857 46.8571 47.2857C45.2119 47.2857 43.747 46.5131 42.8056 45.3108C41.9988 45.837 41.0351 46.1429 40 46.1429C37.1597 46.1429 34.8571 43.8403 34.8571 41C34.8571 38.1597 37.1597 35.8571 40 35.8571C42.8403 35.8571 45.1429 38.1597 45.1429 41V42.1429C45.1429 43.0896 45.9104 43.8571 46.8571 43.8571C47.8039 43.8571 48.5714 43.0896 48.5714 42.1429V41C48.5714 36.2661 44.7339 32.4286 40 32.4286C35.2661 32.4286 31.4286 36.2661 31.4286 41C31.4286 45.7339 35.2661 49.5714 40 49.5714C40.9468 49.5714 41.7143 50.3389 41.7143 51.2857C41.7143 52.2325 40.9468 53 40 53C33.3725 53 28 47.6275 28 41ZM41.7143 41C41.7143 40.0533 40.9467 39.2857 40 39.2857C39.0533 39.2857 38.2857 40.0533 38.2857 41C38.2857 41.9467 39.0533 42.7143 40 42.7143C40.9467 42.7143 41.7143 41.9467 41.7143 41Z" fill="url(#paint2_linear_1007_3943)"/>
<defs>
<linearGradient id="paint0_linear_1007_3943" x1="40" y1="0" x2="40" y2="80" gradientUnits="userSpaceOnUse">
<stop stop-color="#0891B2"/>
<stop offset="1" stop-color="#155E75"/>
</linearGradient>
<linearGradient id="paint1_linear_1007_3943" x1="40" y1="18" x2="40" y2="62" gradientUnits="userSpaceOnUse">
<stop stop-color="#F9FAFB"/>
<stop offset="1" stop-color="#9CA3AF"/>
</linearGradient>
<linearGradient id="paint2_linear_1007_3943" x1="40" y1="29" x2="40" y2="53" gradientUnits="userSpaceOnUse">
<stop stop-color="#FDE68A"/>
<stop offset="1" stop-color="#D97706"/>
</linearGradient>
</defs>
</svg>
