<?xml version="1.0" encoding="UTF-8"?>
<svg width="64px" height="64px" viewBox="0 0 64 64" version="1.1" xmlns="http://www.w3.org/2000/svg" xmlns:xlink="http://www.w3.org/1999/xlink">
    <!-- Generator: Sketch 55 (78076) - https://sketchapp.com -->
    <title>quotes</title>
    <desc>Created with Sketch.</desc>
    <defs>
        <path d="M32,64 C46.0222222,64 53.8173667,64 58.9086889,58.9086889 C64,53.8173667 64,46.0222222 64,32 C64,17.9777778 64,10.1826333 58.9086889,5.09131111 C53.8173667,0 46.0222222,0 32,0 C17.9777778,0 10.1826333,0 5.09131111,5.09131111 C0,10.1826333 0,17.9777778 0,32 C0,46.0222222 0,53.8173667 5.09131111,58.9086889 C10.1826333,64 17.9777778,64 32,64 Z" id="path-1"></path>
        <linearGradient x1="50%" y1="0%" x2="50%" y2="100%" id="linearGradient-3">
            <stop stop-color="#FDFEFF" offset="0%"></stop>
            <stop stop-color="#FBFCFD" stop-opacity="0.9" offset="100%"></stop>
        </linearGradient>
        <path d="M35.34375,0 L25.59375,0 C23.5751953,0 21.9375,1.63769531 21.9375,3.65625 L21.9375,13.40625 C21.9375,15.4248047 23.5751953,17.0625 25.59375,17.0625 L31.6875,17.0625 L31.6875,21.9375 C31.6875,24.6263672 29.5013672,26.8125 26.8125,26.8125 L26.203125,26.8125 C25.1900391,26.8125 24.375,27.6275391 24.375,28.640625 L24.375,32.296875 C24.375,33.3099609 25.1900391,34.125 26.203125,34.125 L26.8125,34.125 C33.5460938,34.125 39,28.6710938 39,21.9375 L39,3.65625 C39,1.63769531 37.3623047,0 35.34375,0 Z M13.40625,0 L3.65625,0 C1.63769531,0 0,1.63769531 0,3.65625 L0,13.40625 C0,15.4248047 1.63769531,17.0625 3.65625,17.0625 L9.75,17.0625 L9.75,21.9375 C9.75,24.6263672 7.56386719,26.8125 4.875,26.8125 L4.265625,26.8125 C3.25253906,26.8125 2.4375,27.6275391 2.4375,28.640625 L2.4375,32.296875 C2.4375,33.3099609 3.25253906,34.125 4.265625,34.125 L4.875,34.125 C11.6085938,34.125 17.0625,28.6710938 17.0625,21.9375 L17.0625,3.65625 C17.0625,1.63769531 15.4248047,0 13.40625,0 Z" id="path-4"></path>
        <filter x="-5.1%" y="-2.9%" width="110.3%" height="111.7%" filterUnits="objectBoundingBox" id="filter-5">
            <feOffset dx="0" dy="1" in="SourceAlpha" result="shadowOffsetOuter1"></feOffset>
            <feGaussianBlur stdDeviation="0.5" in="shadowOffsetOuter1" result="shadowBlurOuter1"></feGaussianBlur>
            <feColorMatrix values="0 0 0 0 0   0 0 0 0 0   0 0 0 0 0  0 0 0 0.1 0" type="matrix" in="shadowBlurOuter1"></feColorMatrix>
        </filter>
    </defs>
    <g id="Page-1" stroke="none" stroke-width="1" fill="none" fill-rule="evenodd">
        <g id="Artboard" transform="translate(-1879.000000, -430.000000)">
            <g id="quotes" transform="translate(1879.000000, 430.000000)">
                <mask id="mask-2" fill="white">
                    <use xlink:href="#path-1"></use>
                </mask>
                <use id="Path" fill="#00B356" xlink:href="#path-1"></use>
                <g id="quote-right" mask="url(#mask-2)" fill-rule="nonzero">
                    <g transform="translate(13.000000, 16.000000)" id="Shape">
                        <g>
                            <use fill="black" fill-opacity="1" filter="url(#filter-5)" xlink:href="#path-4"></use>
                            <use fill="url(#linearGradient-3)" xlink:href="#path-4"></use>
                        </g>
                    </g>
                </g>
            </g>
        </g>
    </g>
</svg>