<?xml version="1.0"?>
<svg width="600" height="600" xmlns="http://www.w3.org/2000/svg" xmlns:svg="http://www.w3.org/2000/svg" xmlns:xlink="http://www.w3.org/1999/xlink">
 <!-- Generator: Sketch 40.3 (33839) - http://www.bohemiancoding.com/sketch -->
 <title>Group 2 Copy 4</title>
 <desc>Created with Sketch.</desc>
 <defs>
  <linearGradient id="linearGradient-1" y2="100%" x2="50%" y1="0%" x1="50%">
   <stop offset="0%" stop-opacity="0.2" stop-color="#FFFFFF"/>
   <stop offset="100%" stop-opacity="0.13887" stop-color="#000000"/>
  </linearGradient>
  <path id="path-2" d="m285,135.71429c22.47768,0 40.71429,-18.23661 40.71429,-40.71429c0,-22.47768 -18.23661,-40.71429 -40.71429,-40.71429c-22.47768,0 -40.71429,18.23661 -40.71429,40.71429c0,22.47768 18.23661,40.71429 40.71429,40.71429l0,0z"/>
  <path id="path-5" d="m356.25,0l-332.5,0c-13.23214,0 -23.75,10.77232 -23.75,24.00446l0,277.70536c0,13.23214 10.51786,24.00447 23.75,24.00447l332.5,0c13.23214,0 23.75,-10.77233 23.75,-24.00447l0,-277.70536c0,-13.23214 -10.51786,-24.00446 -23.75,-24.00446l0,0zm-87.45089,167.69196c-2.54465,-2.96875 -6.44643,-5.25892 -10.85715,-5.25892c-4.32589,0 -7.37946,2.03571 -10.85714,4.83482l-15.86161,13.40178c-3.30803,2.375 -5.9375,3.98661 -9.75446,3.98661c-3.64732,0 -6.95536,-1.35714 -9.33036,-3.47768c-0.84821,-0.76339 -2.375,-2.20536 -3.64732,-3.47768l-45.63393,-49.36607c-3.39285,-3.90178 -8.48214,-6.36161 -14.16518,-6.36161c-5.68303,0 -10.94196,2.79911 -14.25,6.61608l-107.2991,129.4375l0,-220.95983c0.84821,-5.76785 5.34375,-9.9241 11.1116,-9.9241l303.40625,0c5.85268,0 10.60268,4.32589 10.94197,10.17857l0.25446,220.875l-84.05803,-90.50447l0,0z"/>
  <symbol viewBox="0 0 475.082 475.081" height="512px" width="512px" y="0px" x="0px" id="svg_6" xmlns:xlink="http://www.w3.org/1999/xlink" xmlns="http://www.w3.org/2000/svg">
   <g>
    <g>
     <path fill="#FFFFFF" d="m164.454,36.547l-109.636,0c-15.229,0 -28.171,5.33 -38.832,15.987c-10.656,10.659 -15.986,23.601 -15.986,38.831l0,109.632c0,15.229 5.327,28.169 15.986,38.826c10.66,10.656 23.606,15.988 38.832,15.988l63.953,0c7.611,0 14.084,2.666 19.414,7.994c5.33,5.325 7.994,11.8 7.994,19.417l0,9.131c0,20.177 -7.139,37.397 -21.413,51.675c-14.275,14.271 -31.499,21.409 -51.678,21.409l-18.27,0c-4.952,0 -9.233,1.813 -12.851,5.427c-3.615,3.614 -5.424,7.898 -5.424,12.847l0,36.549c0,4.941 1.809,9.233 5.424,12.848c3.621,3.613 7.898,5.427 12.851,5.427l18.271,0c19.797,0 38.688,-3.86 56.676,-11.566c17.987,-7.707 33.546,-18.131 46.68,-31.265c13.131,-13.135 23.553,-28.691 31.261,-46.679c7.707,-17.987 11.562,-36.877 11.562,-56.671l0,-200.993c0,-15.23 -5.33,-28.171 -15.987,-38.828s-23.602,-15.986 -38.827,-15.986z"/>
     <path fill="#FFFFFF" d="m459.089,52.534c-10.656,-10.657 -23.599,-15.987 -38.828,-15.987l-109.632,0c-15.229,0 -28.171,5.33 -38.828,15.987c-10.656,10.66 -15.984,23.601 -15.984,38.831l0,109.632c0,15.229 5.328,28.169 15.984,38.826c10.657,10.656 23.6,15.988 38.828,15.988l63.953,0c7.611,0 14.089,2.666 19.418,7.994c5.324,5.328 7.994,11.8 7.994,19.417l0,9.131c0,20.177 -7.139,37.397 -21.416,51.675c-14.274,14.271 -31.494,21.409 -51.675,21.409l-18.274,0c-4.948,0 -9.233,1.813 -12.847,5.427c-3.617,3.614 -5.428,7.898 -5.428,12.847l0,36.549c0,4.941 1.811,9.233 5.428,12.848c3.613,3.613 7.898,5.427 12.847,5.427l18.274,0c19.794,0 38.684,-3.86 56.674,-11.566c17.984,-7.707 33.541,-18.131 46.676,-31.265c13.134,-13.135 23.562,-28.695 31.265,-46.679c7.706,-17.983 11.563,-36.877 11.563,-56.671l0,-200.993c-0.003,-15.23 -5.328,-28.171 -15.992,-38.827z"/>
    </g>
   </g>
   <g/>
   <g/>
   <g/>
   <g/>
   <g/>
   <g/>
   <g/>
   <g/>
   <g/>
   <g/>
   <g/>
   <g/>
   <g/>
   <g/>
   <g/>
  </symbol>
 </defs>
 <g class="layer">
  <title>Layer 1</title>
  <path fill="#2BAF92" id="path" d="m552.26896,552.26896c47.73104,-47.73115 47.73104,-120.81063 47.73104,-252.26896c0,-131.45833 0,-204.53781 -47.73104,-252.26896c-47.73115,-47.73104 -120.81063,-47.73104 -252.26896,-47.73104c-131.45833,0 -204.53781,0 -252.26896,47.73104c-47.73104,47.73115 -47.73104,120.81063 -47.73104,252.26896c0,131.45833 0,204.53781 47.73104,252.26896c47.73115,47.73104 120.81063,47.73104 252.26896,47.73104c131.45833,0 204.53781,0 252.26896,-47.73104l0,0z"/>
  <path fill="url(#linearGradient-1)" id="path-copy" d="m552.26896,552.26896c47.73104,-47.73115 47.73104,-120.81063 47.73104,-252.26896c0,-131.45833 0,-204.53781 -47.73104,-252.26896c-47.73115,-47.73104 -120.81063,-47.73104 -252.26896,-47.73104c-131.45833,0 -204.53781,0 -252.26896,47.73104c-47.73104,47.73115 -47.73104,120.81063 -47.73104,252.26896c0,131.45833 0,204.53781 47.73104,252.26896c47.73115,47.73104 120.81063,47.73104 252.26896,47.73104c131.45833,0 204.53781,0 252.26896,-47.73104l0,0z"/>
  <use x="408.57053" y="365.813149" transform="matrix(0.42097994685173035,0,0,0.42097994685173035,0,0) " xlink:href="#svg_6" id="svg_7"/>
  <g id="svg_8"/>
 </g>
</svg>