<svg width="320" height="320" viewBox="0 0 320 320" fill="none" xmlns="http://www.w3.org/2000/svg">
<g clip-path="url(#clip0_1006_8289)">
<path d="M160 0C281.326 0 320 38.6737 320 160C320 281.326 281.326 320 160 320C38.6736 320 0 281.326 0 160C0 38.6737 38.6736 0 160 0Z" fill="url(#paint0_linear_1006_8289)"/>
<path d="M160 2C220.573 2 259.85 11.6833 284.083 35.9168C308.317 60.1504 318 99.4272 318 160C318 220.573 308.317 259.85 284.083 284.083C259.85 308.317 220.573 318 160 318C99.4272 318 60.1504 308.317 35.9168 284.083C11.6833 259.85 2 220.573 2 160C2 99.4272 11.6833 60.1504 35.9168 35.9168C60.1504 11.6833 99.4272 2 160 2Z" stroke="#0F172A" stroke-opacity="0.2" stroke-width="4"/>
<g clip-path="url(#clip1_1006_8289)">
<path fill-rule="evenodd" clip-rule="evenodd" d="M155 150C155 112.086 142.914 100 105 100C67.0855 100 55 112.086 55 150C55 187.914 67.0855 200 105 200V200C112.292 200 119.473 202.473 124.703 207.554L137.704 220.185C144.033 226.333 154.643 221.869 154.672 213.045L154.849 159.384V159.384C154.851 158.595 154.809 157.804 154.846 157.015C154.95 154.782 155 152.445 155 150Z" fill="url(#paint1_linear_1006_8289)"/>
<path fill-rule="evenodd" clip-rule="evenodd" d="M265 150C265 112.086 252.914 100 215 100C177.086 100 165 112.086 165 150C165 187.914 177.086 200 215 200V200C222.292 200 229.473 202.473 234.703 207.554L247.704 220.185C254.033 226.333 264.643 221.869 264.672 213.045L264.849 159.384V159.384C264.851 158.595 264.809 157.804 264.846 157.015C264.95 154.782 265 152.445 265 150Z" fill="url(#paint2_linear_1006_8289)"/>
</g>
</g>
<defs>
<linearGradient id="paint0_linear_1006_8289" x1="160" y1="0" x2="160" y2="320" gradientUnits="userSpaceOnUse">
<stop stop-color="#F8FAFC"/>
<stop offset="1" stop-color="#E2E8F0"/>
</linearGradient>
<linearGradient id="paint1_linear_1006_8289" x1="105" y1="100" x2="105" y2="223.032" gradientUnits="userSpaceOnUse">
<stop stop-color="#FB923C"/>
<stop offset="1" stop-color="#EA580C"/>
</linearGradient>
<linearGradient id="paint2_linear_1006_8289" x1="215" y1="100" x2="215" y2="223.032" gradientUnits="userSpaceOnUse">
<stop stop-color="#FB923C"/>
<stop offset="1" stop-color="#EA580C"/>
</linearGradient>
<clipPath id="clip0_1006_8289">
<rect width="320" height="320" fill="white"/>
</clipPath>
<clipPath id="clip1_1006_8289">
<rect width="240" height="240" fill="white" transform="translate(40 40)"/>
</clipPath>
</defs>
</svg>
