<?xml version="1.0" encoding="UTF-8"?>
<svg width="64px" height="64px" viewBox="0 0 64 64" version="1.1" xmlns="http://www.w3.org/2000/svg" xmlns:xlink="http://www.w3.org/1999/xlink">
    <!-- Generator: Sketch 54.1 (76490) - https://sketchapp.com -->
    <title>forms</title>
    <desc>Created with Sketch.</desc>
    <defs>
        <path d="M32,64 C46.0222222,64 53.8173667,64 58.9086889,58.9086889 C64,53.8173667 64,46.0222222 64,32 C64,17.9777778 64,10.1826333 58.9086889,5.09131111 C53.8173667,0 46.0222222,0 32,0 C17.9777778,0 10.1826333,0 5.09131111,5.09131111 C0,10.1826333 0,17.9777778 0,32 C0,46.0222222 0,53.8173667 5.09131111,58.9086889 C10.1826333,64 17.9777778,64 32,64 Z" id="path-1"></path>
        <linearGradient x1="50%" y1="0%" x2="50%" y2="100%" id="linearGradient-3">
            <stop stop-color="#FDFEFF" offset="0%"></stop>
            <stop stop-color="#FBFCFD" stop-opacity="0.9" offset="100%"></stop>
        </linearGradient>
        <path d="M25.9677419,5 L19.7849462,5 C19.7849462,2.2421875 17.5668683,0 14.8387097,0 C12.1105511,0 9.89247312,2.2421875 9.89247312,5 L3.70967742,5 C1.66162634,5 0,6.6796875 0,8.75 L0,36.25 C0,38.3203125 1.66162634,40 3.70967742,40 L25.9677419,40 C28.015793,40 29.6774194,38.3203125 29.6774194,36.25 L29.6774194,8.75 C29.6774194,6.6796875 28.015793,5 25.9677419,5 Z M14.8387097,3.125 C15.8665995,3.125 16.6935484,3.9609375 16.6935484,5 C16.6935484,6.0390625 15.8665995,6.875 14.8387097,6.875 C13.8108199,6.875 12.983871,6.0390625 12.983871,5 C12.983871,3.9609375 13.8108199,3.125 14.8387097,3.125 Z M5.06989247,16.359375 L6.05141129,15.375 C6.21370968,15.2109375 6.47647849,15.2109375 6.63877688,15.375 L8.23084677,17 L11.9096102,13.3125 C12.0719086,13.1484375 12.3346774,13.1484375 12.4969758,13.3125 L13.4707661,14.3046875 C13.6330645,14.46875 13.6330645,14.734375 13.4707661,14.8984375 L8.50907258,19.8671875 C8.34677419,20.03125 8.08400538,20.03125 7.92170699,19.8671875 L5.06989247,16.953125 C4.90759409,16.7890625 4.90759409,16.5234375 5.06989247,16.359375 Z M7.41935484,30.625 C6.39146505,30.625 5.56451613,29.7890625 5.56451613,28.75 C5.56451613,27.7109375 6.39146505,26.875 7.41935484,26.875 C8.44724462,26.875 9.27419355,27.7109375 9.27419355,28.75 C9.27419355,29.7890625 8.44724462,30.625 7.41935484,30.625 Z M24.7311828,29.375 C24.7311828,29.71875 24.452957,30 24.1129032,30 L12.983871,30 C12.6438172,30 12.3655914,29.71875 12.3655914,29.375 L12.3655914,28.125 C12.3655914,27.78125 12.6438172,27.5 12.983871,27.5 L24.1129032,27.5 C24.452957,27.5 24.7311828,27.78125 24.7311828,28.125 L24.7311828,29.375 Z M24.7311828,19.375 C24.7311828,19.71875 24.3988575,20 23.9892473,20 L11.9096102,20 L14.405914,17.5 L23.9892473,17.5 C24.3988575,17.5 24.7311828,17.78125 24.7311828,18.125 L24.7311828,19.375 Z" id="path-4"></path>
        <filter x="-6.7%" y="-2.5%" width="113.5%" height="110.0%" filterUnits="objectBoundingBox" id="filter-5">
            <feOffset dx="0" dy="1" in="SourceAlpha" result="shadowOffsetOuter1"></feOffset>
            <feGaussianBlur stdDeviation="0.5" in="shadowOffsetOuter1" result="shadowBlurOuter1"></feGaussianBlur>
            <feColorMatrix values="0 0 0 0 0   0 0 0 0 0   0 0 0 0 0  0 0 0 0.1 0" type="matrix" in="shadowBlurOuter1"></feColorMatrix>
        </filter>
    </defs>
    <g id="Page-1" stroke="none" stroke-width="1" fill="none" fill-rule="evenodd">
        <g id="Artboard" transform="translate(-340.000000, -512.000000)">
            <g id="forms" transform="translate(340.000000, 512.000000)">
                <mask id="mask-2" fill="white">
                    <use xlink:href="#path-1"></use>
                </mask>
                <use id="Path" fill="#2085FD" xlink:href="#path-1"></use>
                <g id="clipboard-list-check" mask="url(#mask-2)" fill-rule="nonzero">
                    <g transform="translate(17.000000, 11.000000)" id="Shape">
                        <g>
                            <use fill="black" fill-opacity="1" filter="url(#filter-5)" xlink:href="#path-4"></use>
                            <use fill="url(#linearGradient-3)" xlink:href="#path-4"></use>
                        </g>
                    </g>
                </g>
            </g>
        </g>
    </g>
</svg>