<?xml version="1.0" encoding="UTF-8"?>
<svg width="64px" height="64px" viewBox="0 0 64 64" version="1.1" xmlns="http://www.w3.org/2000/svg" xmlns:xlink="http://www.w3.org/1999/xlink">
    <!-- Generator: Sketch 54.1 (76490) - https://sketchapp.com -->
    <title>dashboard</title>
    <desc>Created with Sketch.</desc>
    <defs>
        <path d="M32,64 C46.0222222,64 53.8173667,64 58.9086889,58.9086889 C64,53.8173667 64,46.0222222 64,32 C64,17.9777778 64,10.1826333 58.9086889,5.09131111 C53.8173667,0 46.0222222,0 32,0 C17.9777778,0 10.1826333,0 5.09131111,5.09131111 C0,10.1826333 0,17.9777778 0,32 C0,46.0222222 0,53.8173667 5.09131111,58.9086889 C10.1826333,64 17.9777778,64 32,64 Z" id="path-1"></path>
        <linearGradient x1="50%" y1="0%" x2="50%" y2="100%" id="linearGradient-3">
            <stop stop-color="#FDFEFF" offset="0%"></stop>
            <stop stop-color="#FBFCFD" stop-opacity="0.9" offset="100%"></stop>
        </linearGradient>
        <path d="M32,14 C20.9541667,14 12,23.0630319 12,34.2431611 C12,37.9544073 12.9895833,41.4308891 14.7125,44.4209726 C15.1020833,45.0971505 15.8444444,45.4893617 16.6180556,45.4893617 L47.3819444,45.4893617 C48.1555556,45.4893617 48.8979167,45.0971505 49.2875,44.4209726 C51.0104167,41.4308891 52,37.9544073 52,34.2431611 C52,23.0630319 43.0458333,14 32,14 Z M32,19.106383 C33.174867,19.106383 34.1276596,20.0591755 34.1276596,21.2340426 C34.1276596,22.4089096 33.174867,23.3617021 32,23.3617021 C30.825133,23.3617021 29.8723404,22.4089096 29.8723404,21.2340426 C29.8723404,20.0591755 30.825133,19.106383 32,19.106383 Z M18.3829787,39.5319149 C17.2081117,39.5319149 16.2553191,38.5791223 16.2553191,37.4042553 C16.2553191,36.2293883 17.2081117,35.2765957 18.3829787,35.2765957 C19.5578457,35.2765957 20.5106383,36.2293883 20.5106383,37.4042553 C20.5106383,38.5791223 19.5578457,39.5319149 18.3829787,39.5319149 Z M21.787234,27.6170213 C20.612367,27.6170213 19.6595745,26.6642287 19.6595745,25.4893617 C19.6595745,24.3144947 20.612367,23.3617021 21.787234,23.3617021 C22.9621011,23.3617021 23.9148936,24.3144947 23.9148936,25.4893617 C23.9148936,26.6642287 22.9621011,27.6170213 21.787234,27.6170213 Z M35.6214992,41.2340426 L27.9380615,41.2340426 C27.554726,40.552977 27.3191489,39.7724542 27.3191489,38.9277887 C27.3191489,36.3800989 29.3159785,34.315281 31.7797804,34.315281 C32.1735705,34.315281 32.5478454,34.3844686 32.9116656,34.4839258 L40.4780117,24.0517306 C41.0341967,23.2906668 42.0810511,23.1349946 42.8205402,23.7057925 C43.5586353,24.2787524 43.7091816,25.3634124 43.1550875,26.1280797 L35.5887415,36.5595543 C35.9936832,37.2535925 36.2404118,38.0578986 36.2404118,38.9277887 C36.2404118,39.7724542 36.0048347,40.552977 35.6214992,41.2340426 Z M45.6170213,39.5319149 C44.4421543,39.5319149 43.4893617,38.5791223 43.4893617,37.4042553 C43.4893617,36.2293883 44.4421543,35.2765957 45.6170213,35.2765957 C46.7918883,35.2765957 47.7446809,36.2293883 47.7446809,37.4042553 C47.7446809,38.5791223 46.7918883,39.5319149 45.6170213,39.5319149 Z" id="path-4"></path>
        <filter x="-5.0%" y="-3.2%" width="110.0%" height="112.7%" filterUnits="objectBoundingBox" id="filter-5">
            <feOffset dx="0" dy="1" in="SourceAlpha" result="shadowOffsetOuter1"></feOffset>
            <feGaussianBlur stdDeviation="0.5" in="shadowOffsetOuter1" result="shadowBlurOuter1"></feGaussianBlur>
            <feColorMatrix values="0 0 0 0 0   0 0 0 0 0   0 0 0 0 0  0 0 0 0.1 0" type="matrix" in="shadowBlurOuter1"></feColorMatrix>
        </filter>
    </defs>
    <g id="Page-1" stroke="none" stroke-width="1" fill="none" fill-rule="evenodd">
        <g id="dashboard">
            <mask id="mask-2" fill="white">
                <use xlink:href="#path-1"></use>
            </mask>
            <use id="Path" fill="#FF3B38" xlink:href="#path-1"></use>
            <g id="Shape" fill-rule="nonzero" mask="url(#mask-2)">
                <use fill="black" fill-opacity="1" filter="url(#filter-5)" xlink:href="#path-4"></use>
                <use fill="url(#linearGradient-3)" xlink:href="#path-4"></use>
            </g>
        </g>
    </g>
</svg>