<?xml version="1.0" encoding="UTF-8" standalone="no"?>
<!DOCTYPE svg PUBLIC "-//W3C//DTD SVG 1.1//EN" "http://www.w3.org/Graphics/SVG/1.1/DTD/svg11.dtd">
<svg width="100%" height="100%" viewBox="0 0 64 64" version="1.1" xmlns="http://www.w3.org/2000/svg" xmlns:xlink="http://www.w3.org/1999/xlink" xml:space="preserve" xmlns:serif="http://www.serif.com/" style="fill-rule:evenodd;clip-rule:evenodd;stroke-linejoin:round;stroke-miterlimit:2;">
    <g id="discussions">
        <path id="Path" d="M32,64C46.022,64 53.817,64 58.909,58.909C64,53.817 64,46.022 64,32C64,17.978 64,10.183 58.909,5.091C53.817,0 46.022,0 32,0C17.978,0 10.183,0 5.091,5.091C0,10.183 0,17.978 0,32C0,46.022 0,53.817 5.091,58.909C10.183,64 17.978,64 32,64Z" style="fill:rgb(0,179,86);"/>
        <g id="copyright" transform="matrix(0.09375,0,0,0.09375,32,32)">
            <g transform="matrix(1,0,0,1,-256,-256)">
                <path d="M256,8C119.033,8 8,119.033 8,256C8,392.967 119.033,504 256,504C392.967,504 504,392.967 504,256C504,119.033 392.967,8 256,8ZM373.134,354.753C371.542,356.62 333.358,400.484 263.283,400.484C178.591,400.484 118.799,337.224 118.799,254.917C118.799,173.614 180.803,111.516 262.561,111.516C329.518,111.516 364.526,148.831 365.983,150.42C369.664,154.432 370.175,160.47 367.221,165.043L344.841,199.698C340.792,205.965 332.067,207.049 326.607,201.993C326.374,201.779 300.078,178.113 264.727,178.113C218.611,178.113 190.811,211.688 190.811,254.195C190.811,293.797 216.325,333.887 265.088,333.887C303.785,333.887 330.368,305.549 330.632,305.262C335.764,299.697 344.691,300.229 349.14,306.315L373.687,339.887C376.955,344.357 376.725,350.538 373.134,354.753Z" style="fill:rgb(235,235,235);fill-rule:nonzero;"/>
                <path d="M256,8C119.033,8 8,119.033 8,256C8,344.413 57.314,438.523 154.233,482.225C154.57,482.378 447.774,98.745 447.369,98.249C403.195,44.071 333.044,8 256,8ZM373.134,354.753C371.542,356.62 333.358,400.484 263.283,400.484C178.591,400.484 118.799,337.224 118.799,254.917C118.799,173.614 180.803,111.516 262.561,111.516C329.518,111.516 364.526,148.831 365.983,150.42C369.664,154.432 370.175,160.47 367.221,165.043L344.841,199.698C340.792,205.965 332.067,207.049 326.607,201.993C326.374,201.779 300.078,178.113 264.727,178.113C218.611,178.113 190.811,211.688 190.811,254.195C190.811,293.797 216.325,333.887 265.088,333.887C303.785,333.887 330.368,305.549 330.632,305.262C335.764,299.697 344.691,300.229 349.14,306.315L373.687,339.887C376.955,344.357 376.725,350.538 373.134,354.753Z" style="fill:rgb(245,245,245);fill-rule:nonzero;"/>
                <path d="M256,8C119.033,8 8,119.033 8,256C8,290.536 17.756,333.796 30.472,358.873C30.754,359.429 447.774,98.745 447.369,98.249C403.195,44.071 333.044,8 256,8ZM373.134,354.753C371.542,356.62 333.358,400.484 263.283,400.484C178.591,400.484 118.799,337.224 118.799,254.917C118.799,173.614 180.803,111.516 262.561,111.516C329.518,111.516 364.526,148.831 365.983,150.42C369.664,154.432 370.175,160.47 367.221,165.043L344.841,199.698C340.792,205.965 332.067,207.049 326.607,201.993C326.374,201.779 300.078,178.113 264.727,178.113C218.611,178.113 190.811,211.688 190.811,254.195C190.811,293.797 216.325,333.887 265.088,333.887C303.785,333.887 330.368,305.549 330.632,305.262C335.764,299.697 344.691,300.229 349.14,306.315L373.687,339.887C376.955,344.357 376.725,350.538 373.134,354.753Z" style="fill:white;fill-rule:nonzero;"/>
            </g>
        </g>
        <g transform="matrix(0.0940632,0,0,0.0933252,7.82539,8.10875)">
            <path d="M373.134,354.753C371.542,356.62 333.358,400.484 263.283,400.484C178.591,400.484 118.799,337.224 118.799,254.917C118.799,173.614 180.803,111.516 262.561,111.516C329.518,111.516 364.526,148.831 365.983,150.42C369.664,154.432 370.175,160.47 367.221,165.043L344.841,199.698C340.792,205.965 332.067,207.049 326.607,201.993C326.374,201.779 300.078,178.113 264.727,178.113C218.611,178.113 190.811,211.688 190.811,254.195C190.811,293.797 216.325,333.887 265.088,333.887C303.785,333.887 330.368,305.549 330.632,305.262C335.764,299.697 344.691,300.229 349.14,306.315L373.687,339.887C376.955,344.357 376.725,350.538 373.134,354.753Z" style="fill:rgb(0,179,86);fill-rule:nonzero;stroke:rgb(0,179,86);stroke-width:10.67px;"/>
        </g>
    </g>
</svg>
