<svg width="320" height="320" viewBox="0 0 320 320" fill="none" xmlns="http://www.w3.org/2000/svg">
<g clip-path="url(#clip0_820_5544)">
<path d="M160 0C281.326 0 320 38.6737 320 160C320 281.326 281.326 320 160 320C38.6736 320 0 281.326 0 160C0 38.6737 38.6736 0 160 0Z" fill="url(#paint0_linear_820_5544)"/>
<path d="M160 2C220.573 2 259.85 11.6833 284.083 35.9168C308.317 60.1504 318 99.4272 318 160C318 220.573 308.317 259.85 284.083 284.083C259.85 308.317 220.573 318 160 318C99.4272 318 60.1504 308.317 35.9168 284.083C11.6833 259.85 2 220.573 2 160C2 99.4272 11.6833 60.1504 35.9168 35.9168C60.1504 11.6833 99.4272 2 160 2Z" stroke="#F8FAFC" stroke-opacity="0.2" stroke-width="4"/>
<g clip-path="url(#clip1_820_5544)">
<path fill-rule="evenodd" clip-rule="evenodd" d="M65.0238 172.332C67.7211 170.08 71.7345 171.678 73.112 174.91C84.1609 200.834 123.35 220 170 220C171.207 220 172.304 220.702 172.819 221.793C175.443 227.351 178.414 232.434 181.676 236.952C183.774 239.857 182.616 244.102 179.156 245.033C167.317 248.215 154.034 250 140 250C90.2944 250 50 227.614 50 200C50 189.769 55.5315 180.255 65.0238 172.332Z" fill="url(#paint1_linear_820_5544)"/>
<path fill-rule="evenodd" clip-rule="evenodd" d="M165.872 116.795C166.83 113.466 164.36 110.059 160.901 110.252C115.468 112.786 79.998 134.091 79.998 160C79.998 185.908 115.468 207.214 160.901 209.747C164.36 209.94 166.83 206.533 165.872 203.205C162.107 190.127 159.998 175.474 159.998 160C159.998 144.525 162.107 129.872 165.872 116.795Z" fill="url(#paint2_linear_820_5544)"/>
<ellipse cx="220" cy="160" rx="50" ry="90" fill="url(#paint3_linear_820_5544)"/>
</g>
</g>
<defs>
<linearGradient id="paint0_linear_820_5544" x1="160" y1="0" x2="160" y2="320" gradientUnits="userSpaceOnUse">
<stop stop-color="#475569"/>
<stop offset="1" stop-color="#1E293B"/>
</linearGradient>
<linearGradient id="paint1_linear_820_5544" x1="116.362" y1="171.28" x2="116.362" y2="250" gradientUnits="userSpaceOnUse">
<stop stop-color="#F87171"/>
<stop offset="1" stop-color="#DC2626"/>
</linearGradient>
<linearGradient id="paint2_linear_820_5544" x1="123.039" y1="110.244" x2="123.039" y2="209.755" gradientUnits="userSpaceOnUse">
<stop stop-color="#FB923C"/>
<stop offset="1" stop-color="#EA580C"/>
</linearGradient>
<linearGradient id="paint3_linear_820_5544" x1="220" y1="70" x2="220" y2="250" gradientUnits="userSpaceOnUse">
<stop stop-color="#FACC15"/>
<stop offset="1" stop-color="#CA8A04"/>
</linearGradient>
<clipPath id="clip0_820_5544">
<rect width="320" height="320" fill="white"/>
</clipPath>
<clipPath id="clip1_820_5544">
<rect width="240" height="240" fill="white" transform="translate(40 40)"/>
</clipPath>
</defs>
</svg>
