<?xml version="1.0" encoding="utf-8"?>
<!-- Generator: Adobe Illustrator 20.1.0, SVG Export Plug-In . SVG Version: 6.00 Build 0)  -->
<svg version="1.1" id="Слой_1" xmlns="http://www.w3.org/2000/svg" xmlns:xlink="http://www.w3.org/1999/xlink" x="0px" y="0px"
	 viewBox="0 0 64 64" style="enable-background:new 0 0 64 64;" xml:space="preserve">
<style type="text/css">
	.st0{fill:#00B356;}
	.st1{fill:#FFFFFF;}
</style>
<title>posts</title>
<desc>Created with Sketch.</desc>
<g id="Page-1">
	<g id="Artboard" transform="translate(-340.000000, -430.000000)">
		<g id="posts" transform="translate(340.000000, 430.000000)">
			<g id="Path">
				<path id="path-1_1_" class="st0" d="M32,64c14,0,21.8,0,26.9-5.1C64,53.8,64,46,64,32s0-21.8-5.1-26.9C53.8,0,46,0,32,0
					S10.2,0,5.1,5.1C0,10.2,0,18,0,32s0,21.8,5.1,26.9C10.2,64,18,64,32,64z"/>
			</g>
		</g>
	</g>
</g>
<path class="st1" d="M34,34h-1v-5.4c0-0.3-0.2-0.5-0.5-0.5h-0.8c-0.3,0-0.6,0.1-0.8,0.2L29.9,29c-0.2,0.1-0.3,0.5-0.1,0.7
	c0,0,0,0,0,0l0.5,0.8c0.1,0.2,0.5,0.3,0.7,0.1c0,0,0,0,0,0l0,0V34h-1c-0.3,0-0.5,0.2-0.5,0.5v1c0,0.3,0.2,0.5,0.5,0.5H34
	c0.3,0,0.5-0.2,0.5-0.5v-1C34.4,34.2,34.2,34,34,34L34,34z M49.6,20.3H14.4c-1.1,0-2,0.9-2,2v19.6c0,1.1,0.9,2,2,2h35.3
	c1.1,0,2-0.9,2-2V22.2C51.6,21.1,50.7,20.3,49.6,20.3z M15.4,40.8v-3.9c2.2,0,3.9,1.8,3.9,3.9H15.4z M15.4,27.1v-3.9h3.9
	C19.3,25.4,17.5,27.1,15.4,27.1z M32,38.9c-3.2,0-5.9-3.1-5.9-6.9c0-3.8,2.6-6.9,5.9-6.9s5.9,3.1,5.9,6.9
	C37.9,35.8,35.2,38.9,32,38.9z M48.6,40.8h-3.9c0-2.2,1.8-3.9,3.9-3.9V40.8z M48.6,27.1c-2.2,0-3.9-1.8-3.9-3.9h3.9V27.1z"/>
</svg>
