<svg width="48" height="48" viewBox="0 0 48 48" fill="none" xmlns="http://www.w3.org/2000/svg">
<rect width="48" height="48" fill="url(#paint0_linear_337_1972)"/>
<path d="M22.5 38.25C16.8754 38.25 14.0631 38.25 12.0916 36.738C11.4549 36.2498 10.895 35.6587 10.4324 34.9866C9 32.9056 9 29.9372 9 24C9 18.0629 9 15.0944 10.4324 13.0134C10.895 12.3413 11.4549 11.7503 12.0916 11.262C14.0631 9.75 16.8754 9.75 22.5 9.75H25.5C31.1246 9.75 33.9369 9.75 35.9083 11.262C36.5451 11.7503 37.105 12.3413 37.5676 13.0134C39 15.0944 39 18.0629 39 24C39 29.9372 39 32.9056 37.5676 34.9866C37.105 35.6587 36.5451 36.2498 35.9083 36.738C33.9369 38.25 31.1246 38.25 25.5 38.25H22.5Z" stroke="white" stroke-width="2.25"/>
<path d="M9.75 28.5H38.25" stroke="white" stroke-width="2.25" stroke-linecap="round" stroke-linejoin="round"/>
<path d="M16.5134 33H16.5M22.5 33H22.4865" stroke="white" stroke-width="3" stroke-linecap="round" stroke-linejoin="round"/>
<path d="M31.5 21.3C30.817 21.3 30.0983 21.3423 29.4854 20.9656C29.2517 20.8221 29.0965 20.6236 28.7865 20.2267L25.875 16.5L22.125 22.5L19.4151 19.8985C19.0308 19.5296 18.6562 19.1556 18.1477 19.0076C17.7778 18.9 17.3519 18.9 16.5 18.9" stroke="white" stroke-width="2.25" stroke-linecap="round" stroke-linejoin="round"/>
<defs>
<linearGradient id="paint0_linear_337_1972" x1="24" y1="0" x2="24" y2="48" gradientUnits="userSpaceOnUse">
<stop stop-color="#71717A"/>
<stop offset="1" stop-color="#52525B"/>
</linearGradient>
</defs>
</svg>
