<svg width="320" height="320" viewBox="0 0 320 320" fill="none" xmlns="http://www.w3.org/2000/svg">
<g clip-path="url(#clip0_1006_7322)">
<path d="M160 0C281.326 0 320 38.6737 320 160C320 281.326 281.326 320 160 320C38.6736 320 0 281.326 0 160C0 38.6737 38.6736 0 160 0Z" fill="url(#paint0_linear_1006_7322)"/>
<path d="M160 2C220.573 2 259.85 11.6833 284.083 35.9168C308.317 60.1504 318 99.4272 318 160C318 220.573 308.317 259.85 284.083 284.083C259.85 308.317 220.573 318 160 318C99.4272 318 60.1504 308.317 35.9168 284.083C11.6833 259.85 2 220.573 2 160C2 99.4272 11.6833 60.1504 35.9168 35.9168C60.1504 11.6833 99.4272 2 160 2Z" stroke="#0F172A" stroke-opacity="0.2" stroke-width="4"/>
<g opacity="0.8">
<path d="M185 80C241.872 80 260 84.8342 260 100C260 115.166 241.872 120 185 120C128.128 120 110 115.166 110 100C110 84.8342 128.128 80 185 80Z" fill="url(#paint1_linear_1006_7322)"/>
<path d="M80 80C95.1658 80 100 84.8342 100 100C100 115.166 95.1658 120 80 120C64.8342 120 60 115.166 60 100C60 84.8342 64.8342 80 80 80Z" fill="url(#paint2_linear_1006_7322)"/>
<path d="M160 140C197.914 140 210 144.834 210 160C210 175.166 197.914 180 160 180C122.086 180 110 175.166 110 160C110 144.834 122.086 140 160 140Z" fill="url(#paint3_linear_1006_7322)"/>
<path d="M80 140C95.1658 140 100 144.834 100 160C100 175.166 95.1658 180 80 180C64.8342 180 60 175.166 60 160C60 144.834 64.8342 140 80 140Z" fill="url(#paint4_linear_1006_7322)"/>
<path d="M180 200C233.08 200 250 204.834 250 220C250 235.166 233.08 240 180 240C126.92 240 110 235.166 110 220C110 204.834 126.92 200 180 200Z" fill="url(#paint5_linear_1006_7322)"/>
<path d="M80 200C95.1658 200 100 204.834 100 220C100 235.166 95.1658 240 80 240C64.8342 240 60 235.166 60 220C60 204.834 64.8342 200 80 200Z" fill="url(#paint6_linear_1006_7322)"/>
</g>
</g>
<defs>
<linearGradient id="paint0_linear_1006_7322" x1="160" y1="0" x2="160" y2="320" gradientUnits="userSpaceOnUse">
<stop stop-color="#F8FAFC"/>
<stop offset="1" stop-color="#E2E8F0"/>
</linearGradient>
<linearGradient id="paint1_linear_1006_7322" x1="185" y1="80" x2="185" y2="120" gradientUnits="userSpaceOnUse">
<stop stop-color="#2DD4BF"/>
<stop offset="1" stop-color="#0D9488"/>
</linearGradient>
<linearGradient id="paint2_linear_1006_7322" x1="80" y1="80" x2="80" y2="120" gradientUnits="userSpaceOnUse">
<stop stop-color="#FB923C"/>
<stop offset="1" stop-color="#EA580C"/>
</linearGradient>
<linearGradient id="paint3_linear_1006_7322" x1="160" y1="140" x2="160" y2="180" gradientUnits="userSpaceOnUse">
<stop stop-color="#2DD4BF"/>
<stop offset="1" stop-color="#0D9488"/>
</linearGradient>
<linearGradient id="paint4_linear_1006_7322" x1="80" y1="140" x2="80" y2="180" gradientUnits="userSpaceOnUse">
<stop stop-color="#FB923C"/>
<stop offset="1" stop-color="#EA580C"/>
</linearGradient>
<linearGradient id="paint5_linear_1006_7322" x1="180" y1="200" x2="180" y2="240" gradientUnits="userSpaceOnUse">
<stop stop-color="#2DD4BF"/>
<stop offset="1" stop-color="#0D9488"/>
</linearGradient>
<linearGradient id="paint6_linear_1006_7322" x1="80" y1="200" x2="80" y2="240" gradientUnits="userSpaceOnUse">
<stop stop-color="#FB923C"/>
<stop offset="1" stop-color="#EA580C"/>
</linearGradient>
<clipPath id="clip0_1006_7322">
<rect width="320" height="320" fill="white"/>
</clipPath>
</defs>
</svg>
