<?xml version="1.0" encoding="UTF-8"?>
<svg width="64px" height="64px" viewBox="0 0 64 64" version="1.1" xmlns="http://www.w3.org/2000/svg" xmlns:xlink="http://www.w3.org/1999/xlink">
    <!-- Generator: Sketch 55 (78076) - https://sketchapp.com -->
    <title>spaces</title>
    <desc>Created with Sketch.</desc>
    <defs>
        <path d="M32,64 C46.0222222,64 53.8173667,64 58.9086889,58.9086889 C64,53.8173667 64,46.0222222 64,32 C64,17.9777778 64,10.1826333 58.9086889,5.09131111 C53.8173667,0 46.0222222,0 32,0 C17.9777778,0 10.1826333,0 5.09131111,5.09131111 C0,10.1826333 0,17.9777778 0,32 C0,46.0222222 0,53.8173667 5.09131111,58.9086889 C10.1826333,64 17.9777778,64 32,64 Z" id="path-1"></path>
        <linearGradient x1="50%" y1="0%" x2="50%" y2="100%" id="linearGradient-3">
            <stop stop-color="#FDFEFF" offset="0%"></stop>
            <stop stop-color="#FBFCFD" stop-opacity="0.9" offset="100%"></stop>
        </linearGradient>
        <path d="M0.921231238,10.9862533 L18.209578,18.8288342 C18.7142606,19.0581668 19.2849972,19.0581668 19.7896798,18.8288342 L37.0780266,10.9862533 C38.3063349,10.4288786 38.3063349,8.5726947 37.0780266,8.01532001 L19.790422,0.171996874 C19.2886845,-0.0573322913 18.7120577,-0.0573322913 18.2103202,0.171996874 L0.921231238,8.01457784 C-0.307077079,8.57195252 -0.307077079,10.4288786 0.921231238,10.9862533 Z M37.0787688,17.538189 L32.7674437,15.5840378 L20.7708421,21.0219663 C20.2097538,21.2765329 19.6137831,21.4056716 19,21.4056716 C18.3862169,21.4056716 17.7909884,21.2765329 17.2291579,21.0219663 L5.2332985,15.5840378 L0.921231238,17.538189 C-0.307077079,18.0948215 -0.307077079,19.9502632 0.921231238,20.5068957 L18.209578,28.3435392 C18.7142606,28.5721297 19.2849972,28.5721297 19.7896798,28.3435392 L37.0787688,20.5068957 C38.3070771,19.9502632 38.3070771,18.0948215 37.0787688,17.538189 Z M37.0787688,27.0232069 L32.7837716,25.0764775 L20.7708421,30.5218278 C20.2097538,30.7763944 19.6137831,30.9055331 19,30.9055331 C18.3862169,30.9055331 17.7909884,30.7763944 17.2291579,30.5218278 L5.21697054,25.0764775 L0.921231238,27.0232069 C-0.307077079,27.5798394 -0.307077079,29.4352811 0.921231238,29.9919136 L18.209578,37.8285572 C18.7142606,38.0571476 19.2849972,38.0571476 19.7896798,37.8285572 L37.0787688,29.9919136 C38.3070771,29.4352811 38.3070771,27.5798394 37.0787688,27.0232069 Z" id="path-4"></path>
        <filter x="-5.3%" y="-2.6%" width="110.5%" height="110.5%" filterUnits="objectBoundingBox" id="filter-5">
            <feOffset dx="0" dy="1" in="SourceAlpha" result="shadowOffsetOuter1"></feOffset>
            <feGaussianBlur stdDeviation="0.5" in="shadowOffsetOuter1" result="shadowBlurOuter1"></feGaussianBlur>
            <feColorMatrix values="0 0 0 0 0   0 0 0 0 0   0 0 0 0 0  0 0 0 0.1 0" type="matrix" in="shadowBlurOuter1"></feColorMatrix>
        </filter>
    </defs>
    <g id="Page-1" stroke="none" stroke-width="1" fill="none" fill-rule="evenodd">
        <g id="Artboard" transform="translate(-1879.000000, -511.000000)">
            <g id="spaces" transform="translate(1879.000000, 511.000000)">
                <mask id="mask-2" fill="white">
                    <use xlink:href="#path-1"></use>
                </mask>
                <use id="Path" fill="#00B356" xlink:href="#path-1"></use>
                <g id="layer-group" mask="url(#mask-2)" fill-rule="nonzero">
                    <g transform="translate(14.000000, 13.000000)" id="Shape">
                        <g>
                            <use fill="black" fill-opacity="1" filter="url(#filter-5)" xlink:href="#path-4"></use>
                            <use fill="url(#linearGradient-3)" xlink:href="#path-4"></use>
                        </g>
                    </g>
                </g>
            </g>
        </g>
    </g>
</svg>