<?xml version="1.0" encoding="UTF-8"?>
<svg width="606px" height="606px" viewBox="0 0 606 606" version="1.1" xmlns="http://www.w3.org/2000/svg" xmlns:xlink="http://www.w3.org/1999/xlink">
    <defs>

        <path d="M552.268958,552.268958 C600,504.537813 600,431.458333 600,300 C600,168.541667 600,95.4621875 552.268958,47.7310417 C504.537813,0 431.458333,0 300,0 C168.541667,0 95.4621875,0 47.7310417,47.7310417 C0,95.4621875 0,168.541667 0,300 C0,431.458333 0,504.537813 47.7310417,552.268958 C95.4621875,600 168.541667,600 300,600 C431.458333,600 504.537813,600 552.268958,552.268958 Z" id="path-2"></path>
    </defs>
    <g id="Page-1" stroke="none" stroke-width="1" fill="none" fill-rule="evenodd">
        <g id="una-connect" transform="translate(3.000000, 3.000000)">
            <g id="Squircle2-Copy-6">
                <g id="Shape">
                    <use fill="#FFFFFF" xlink:href="#path-2"></use>
                    <use stroke="#000000" stroke-width="4.04" fill="url(#linearGradient-1)" xlink:href="#path-2"></use>
                </g>
            </g>
            <g clip-path="url(#b)" transform="scale(2.5, 2.5), translate(25.0, 22.0)">
                <path fill="#4285F4" d="M180.5 87.5l-28-28-20-20L96 76l20 20-20 20-36.5 36.5 28 28c4.7 4.7 12.3 4.7 17 0l28-28 20-20 28-28c4.7-4.7 4.7-12.3 0-17z"/>            
                <path fill="#4FC3F7" d="M132.5 39.5l-28-28c-4.7-4.7-12.3-4.7-17 0l-28 28-20 20-28 28c-4.7 4.7-4.7 12.3 0 17l28 28 20 20L96 116 76 96l20-20 36.5-36.5z"/>
            </g>
        </g>
    </g>
</svg>
