<svg width="240" height="240" viewBox="0 0 240 240" fill="none" xmlns="http://www.w3.org/2000/svg">
<rect width="240" height="240" fill="#0EA5E9"/>
<path fill-rule="evenodd" clip-rule="evenodd" d="M163.491 76.4976C155.28 68.2917 144.914 62.5772 133.592 60.0148C122.271 57.4523 110.455 58.1465 99.5105 62.0171C88.5665 65.8877 78.9414 72.7767 71.748 81.8876C64.5546 90.9984 60.0867 101.959 58.8607 113.503C57.6347 125.046 59.7008 136.701 64.8201 147.119C69.9394 157.538 77.9028 166.295 87.7897 172.378C97.6766 178.461 109.083 181.621 120.691 181.494C132.299 181.367 143.633 177.957 153.384 171.659C154.513 170.885 155.785 170.344 157.126 170.07C158.467 169.796 159.849 169.793 161.192 170.061C162.534 170.33 163.808 170.865 164.94 171.634C166.073 172.403 167.039 173.391 167.783 174.539C168.527 175.688 169.034 176.974 169.273 178.322C169.512 179.669 169.479 181.051 169.175 182.386C168.872 183.72 168.304 184.981 167.505 186.092C166.707 187.204 165.694 188.144 164.526 188.858C149.22 198.756 131.052 203.271 112.893 201.691C94.7345 200.112 77.6196 192.527 64.2524 180.135C50.8853 167.743 42.028 151.25 39.0798 133.263C36.1317 115.275 39.2607 96.8185 47.9726 80.8078C56.6845 64.797 70.4826 52.1454 87.187 44.8515C103.892 37.5576 122.55 36.0373 140.215 40.5308C157.88 45.0243 173.544 55.2754 184.733 69.6646C195.922 84.0538 201.997 101.761 202 119.988C202.002 125.7 200.413 131.299 197.412 136.158C194.41 141.017 190.115 144.945 185.006 147.5C179.898 150.055 174.18 151.137 168.491 150.625C162.803 150.112 157.369 148.025 152.8 144.599C146.959 152.387 138.537 157.842 129.042 159.989C119.547 162.136 109.597 160.834 100.974 156.317C92.3506 151.799 85.6161 144.361 81.9753 135.332C78.3345 126.303 78.0251 116.274 81.1025 107.038C84.1798 97.8023 90.443 89.9627 98.7715 84.9223C107.1 79.8818 116.95 77.9692 126.56 79.5268C136.17 81.0843 144.911 86.0104 151.221 93.4236C157.531 100.837 160.998 110.253 161 119.988C161 122.707 162.08 125.314 164.002 127.236C165.924 129.158 168.532 130.238 171.25 130.238C173.968 130.238 176.576 129.158 178.498 127.236C180.42 125.314 181.5 122.707 181.5 119.988C181.5 104.234 175.494 88.5208 163.491 76.4976ZM140.5 119.988C140.5 114.551 138.34 109.337 134.496 105.493C130.651 101.648 125.437 99.4883 120 99.4883C114.563 99.4883 109.349 101.648 105.504 105.493C101.66 109.337 99.5001 114.551 99.5001 119.988C99.5001 125.425 101.66 130.639 105.504 134.484C109.349 138.328 114.563 140.488 120 140.488C125.437 140.488 130.651 138.328 134.496 134.484C138.34 130.639 140.5 125.425 140.5 119.988Z" fill="#E0F2FE"/>
</svg>
