<?xml version="1.0" encoding="utf-8"?>
<svg version="1.1" xmlns="http://www.w3.org/2000/svg" xmlns:xlink="http://www.w3.org/1999/xlink" x="0px" y="0px" viewBox="0 0 520 520" style="enable-background:new 0 0 520 520;" xml:space="preserve">
<style type="text/css">
	.inner .p1 {fill:#4990E2;}
	.inner .p2 {fill:#2AB191;}
	.outer .p1, .outer .p2 {fill:#FF805F;}
</style>
<g class="colored">
<g class="inner">
<path class="p1" d="M152,260C152,260,152,260,152,260c0-59.8,48.4-108.4,108.1-108.4c43.3,0,80.9,25.6,97.9,62.4V107.3c-28-18.3-61.9-28.9-98.1-28.9C159.8,78.4,78.6,159.9,78.6,260c0,59.5,28.4,112.4,73.4,145.6V260z"/>
<path class="p2" d="M368,114.4V260c0,59.8-48.4,108.4-108.1,108.4c-43.3,0-80.9-25.6-97.9-62.4v106.7c28,18.3,61.9,28.9,98.1,28.9c100.1,0,181.3-81.4,181.3-181.6C441.4,200.5,413,147.6,368,114.4z"/>
</g>
<g class="outer">
<path class="p1" d="M146.9,106.7c-8.1-15-36.9-29.9-68.9-27.3v124.2C90,164.3,114.6,130.5,146.9,106.7z"/>
<path class="p2" d="M373.1,413.3c8.1,15,36.7,29.9,68.9,27.3V316.4C429.8,355.7,405.4,389.5,373.1,413.3z"/>
</g>
</g>
</svg>
